<svg version="1.1" id="Layer_1" xmlns="http://www.w3.org/2000/svg" x="0" y="0" viewBox="0 0 510 363.3" style="enable-background:new 0 0 510 363.3;background-color:#fff" xml:space="preserve"><style>.st2{fill:none;stroke:#000;stroke-width:.964;stroke-linecap:round;stroke-linejoin:round;stroke-miterlimit:10}.st4{fill:none;stroke:#1d1d1b;stroke-width:1.117;stroke-miterlimit:3.864}.st9{fill:#1d1d1b}.st10{font-family:Helvetica,Arial,sans-serif}.st11{font-size:12px}.st12{font-size:8.706px}</style><path d="M46.3 289h438.3M46.3 254.8h438.3M46.3 220.6h438.3M46.3 186.4h438.3M46.3 152.2h438.3M46.3 117.9h438.3M46.3 83.6h438.3M46.3 49.4h438.3M46.3 15.1h438.3m-383.5 0v308.3M156 15.1v308.3m54.6-308.3v308.3m54.9-308.3v308.3m54.8-308.3v308.3m54.8-308.3v308.3m54.8-308.3v308.3m54.7-308.3v308.3" style="fill:none;stroke:#000;stroke-width:.454;stroke-linecap:round;stroke-linejoin:round;stroke-miterlimit:10"/><path class="st2" d="M46.3 323.4V15.1m0 308.3h438.3"/><path d="M344.8 141h117.1v76.2H344.8V141z" style="fill-rule:evenodd;clip-rule:evenodd;fill:#1d1d1b"/><path class="st4" d="M344.8 141h117.1v76.2H344.8V141z"/><path d="M341.3 137.4h117.1v76.2H341.3v-76.2z" style="fill-rule:evenodd;clip-rule:evenodd;fill:#fff"/><path class="st4" d="M341.3 137.4h117.1v76.2H341.3v-76.2z"/><path d="M351.8 153.5h42.3" style="fill:none;stroke:#00f;stroke-miterlimit:3.864;stroke-dasharray:12,2,2,2"/><path d="M351.8 177.7h42.3" style="fill:none;stroke:#0f0;stroke-miterlimit:3.864;stroke-dasharray:2,2"/><path d="M351.8 202h42.3" style="fill:none;stroke:red;stroke-miterlimit:3.864;stroke-dasharray:72"/><text transform="translate(406.917 156.722)" class="st9 st10 st11">Blue</text><text transform="translate(406.917 182.02)" class="st9 st10 st11">Green</text><text transform="translate(406.917 204.77)" class="st9 st10 st11">Red</text><text transform="translate(213.857 357.334)" class="st10 st11">Wavelength (nm)</text><text transform="rotate(-90 128.403 111.313)" class="st9 st10 st11">Quantum Efficiency (%)</text><text transform="translate(29.495 15.143)" class="st10 st12">90</text><text transform="translate(29.495 50.002)" class="st10 st12">80</text><text transform="translate(29.495 84.799)" class="st10 st12">70</text><text transform="translate(29.495 119.658)" class="st10 st12">60</text><text transform="translate(29.495 154.519)" class="st10 st12">50</text><text transform="translate(29.495 189.378)" class="st10 st12">40</text><text transform="translate(29.495 224.237)" class="st10 st12">30</text><text transform="translate(29.495 259.036)" class="st10 st12">20</text><text transform="translate(29.495 293.896)" class="st10 st12">10</text><text transform="translate(34.368 328.755)" class="st10 st12">0</text><text transform="translate(41.896 337.084)" class="st10 st12">400</text><text transform="translate(94.296 337.084)" class="st10 st12">500</text><text transform="translate(149.796 337.084)" class="st10 st12">600</text><text transform="translate(203.296 337.084)" class="st10 st12">700</text><text transform="translate(257.896 337.084)" class="st10 st12">800</text><text transform="translate(313.396 337.084)" class="st10 st12">900</text><text transform="translate(365.896 337.084)" class="st10 st12">1000</text><text transform="translate(420.996 337.084)" class="st10 st12">1100</text><text transform="translate(476.196 337.084)" class="st10 st12">1200</text><path class="st2" d="M46.2 323.6H480"/><path style="fill:none;stroke:red;stroke-miterlimit:10" d="m46.2 285.4 5.5 6.3 5.5 4.8 5.5 3.3 5.4 3.1 5.5 2.6 5.5.9 5.6-.2 5.3-1.4 5.5-.9h5.5l5.4-2.8 5.5-6.3 5.5-8.6 5.5 7.7 5.4 13.5 5.5-.2 5.5.7 5.6-46.9 5.3-141.5 5.5-26.3 5.5 6.2 5.4 3.5 5.5 3 5.5 13.8 5.5 15 5.4-.4 5.5 11.1 5.5 16.8 5.5-6.1 5.4 22.6 5.5.2 5.5 17 5.4 5.2 5.5 8.6 5.5 4.9 5.5 7.9 5.4-.7 5.5 15.1 5.5-6.7 5.5 18.1 5.4-5.9 5.5 7.2 5.5 10.5 5.4-9 5.5 13.8 5.5 3.3 5.5-5.5 5.4 12 5.5 2.6 5.5-.2 5.5 8.1 5.4 3.5 5.5-2.7 5.5 1.6 5.4 4.6 5.5-1.6 5.5-7.6"/><path style="fill:none;stroke:#0f0;stroke-miterlimit:10;stroke-dasharray:3,3,3,3" d="m46.2 301.3 5.5.3 5.5-.3 5.5 2.2 5.4-3.7 5.5-8.7 5.5-1.2 5.6-17.6 5.3-71.4 5.5-89.1 5.5-45 5.4-17.4 5.5 1.5 5.5 4.6 5.5 15 5.4 9.2 5.5 14.6 5.5 19.7 5.6 30.4 5.3 38.2 5.5 44.7 5.5 40.9 5.4 22.4 5.5 8.4 5.5 5.8 5.5 3.7h5.4l5.5-1.9 5.5-4.4 5.5-9.4 5.4-4.3 5.5-5.5 5.5 3.4 5.4 3.8 5.5-.9 5.5-5.2 5.5-5 5.4-6h5.5l5.5-8.9 5.5 5.2 5.4-9.8 5.5-1.5 5.5 5.7 5.4-10.5 5.5 12.9 5.5 2.8 5.5-7.8 5.4 13.5 5.5 1.5 5.5-.2 5.5 7.6 5.4 3.7 5.5-2.3 5.5 1.7 5.4 4.6 5.5-2.2 5.5-7.6"/><path style="fill:none;stroke:#00f;stroke-miterlimit:10;stroke-dasharray:12,2,2,2" d="m46.2 189.7 5.5-34.9 5.5-21.6 5.5-26.6 5.4-9.9 5.5-9.1 5.5-2.6 5.6 5 5.3 23.2 5.5 37.9 5.5 42.1 5.4 34.3 5.5 28.6 5.5 18.6 5.5 14.2 5.4 9.2 5.5 5.4 5.5 3.3 5.6 2.4 5.3 1.5 5.5 1.1 5.5 1.3 5.4.2h5.5l5.5-.6 5.5-1.6 5.4-3 5.5-2.2h5.5l5.5-1.1 5.4 1.1 5.5.7 5.5 3.9 5.4 2.2 5.5.6 5.5.2h5.5l5.4-1.7 5.5-5.6 5.5-23 5.5-16.4 5.4-15.5 5.5.7 5.5 9 5.4-7.9 5.5 13.3 5.5.4 5.5-4.1 5.4 10.7 5.5.9 5.5 1.3 5.5 6.7 5.4 5.3 5.5-2 5.5 1.7 5.4 3.1 5.5-.2 5.5-6.3"/></svg>