<svg version="1.1" id="Ebene_2_00000037655623724182476430000002112761572816900253_" xmlns="http://www.w3.org/2000/svg" x="0" y="0" viewBox="0 0 1220.1 416.5" style="enable-background:new 0 0 1220.1 416.5" xml:space="preserve"><style>.st0{fill:#00457c}.st2{fill:#fff}.st3{fill:#14487e}.st7{fill:#f99d33}</style><path class="st0" d="m333.1 229.7 8.6 109.3h-60.2l6.5-82.2c13-10 27.9-19.2 45.1-27.1m-2.7-33.5c-11.9 1.2-24.7 3-38.1 5.6l9.9-125H321l9.4 119.4zm105.6 9c0-.7-1-1.2-3.8-1.3-1.9-.1-4.4-.1-5.7-.1-22.1-.1-46.9 1.8-73.1 7.7l-.6-7.9c18.1-3.5 37.3-5.5 57.8-5.5 1 0 3 .1 3.3-.8.3-1-.6-1.3-1.8-1.6 0 0-1.8-.4-4.9-.6-8.7-.6-28.5-2-55.2-.6L341.2 54.9H282l-12.1 151.9c-71.6 18-155.8 59.8-216.6 154.2h84.9s61.5-116.5 193.2-152.5l.7 8.6c-59.4 18.1-123.3 58.6-175.1 144h52.1s14.3-42.9 55.2-83.6l-6.7 83.6h107.7l-11-139.9c22.8-8 48.9-13.4 78.7-14.9 1.7-.1 3-.2 3-1.1"/><path class="st0" d="M512 284.6c0-31.7-21.8-49.3-44.1-49.3-15.5 0-25.4 7.9-32.4 17.8v-15.8h-21.8v46.9c9.8-8.5 24.3-20.3 35.6-26.3 4-2.3 8.6-3.6 13.4-3.6 14.8 0 27.2 12.1 27.2 30.4v.4c0 18.7-12.2 30.4-27.2 30.4-14.8 0-27.7-12.2-27.7-30.4v-.4c0-1 .1-2.1.1-3.1-6.4 4.2-15.3 12.3-21.4 18.1v61.5h21.8v-43.6c6.7 8.8 16.6 16.7 32.4 16.7 22.5 0 44.1-17.8 44.1-49.3v-.4zm57.1 50.4 37.8-97.7h-22.7l-24.7 70.6-26.8-70.6h-23.4l39.6 95.2c-3.6 8.1-7.4 10.8-13.5 10.8-4.5 0-8.8-1.4-12.8-3.6l-7.4 16.2c6.7 3.6 13.5 5.8 22.5 5.8 15.3-.1 23.8-7.3 31.4-26.7m46-2.7h21.8v-126h-21.8v126zm112-47c0 16.4-11.2 30.1-28.8 30.1-16.9 0-29-13.9-29-30.4v-.4c0-16.6 11.2-30.2 28.6-30.2 17.1 0 29.2 13.9 29.2 30.6v.3zm21.8-.4v-.4c0-27.2-21.4-49.3-50.6-49.3-29.2 0-50.8 22.5-50.8 49.7v.4c0 27 21.4 49.1 50.4 49.1 29.4 0 51-22.5 51-49.5m73.1 47.4h21.8v-60.7c0-22-12.4-36.4-33.8-36.4-14.8 0-23.6 7.7-29.7 16.6v-14.6h-21.8v95h21.8v-53.6c0-14.8 8.8-23.6 21.4-23.6 13 0 20.3 8.5 20.3 23.2v54.1z"/><g id="Doku_3.0"><path d="M974.4 54.9h192.3v277.6H974.4V54.9z" style="fill:#14487e;stroke:#fff;stroke-width:3;stroke-miterlimit:10"/><path class="st2" d="M1133.3 357.6H940.9V127.7L988.6 80h144.6v277.6h.1z"/><path class="st3" d="M1136.7 361.1H937.5V126.3l49.7-49.7h149.5v284.5zm-192.4-6.9h185.5V83.5H990l-45.7 45.7v225z"/><path class="st3" d="M992 131.2h-51.1v-6.8h44.3V80.1h6.8v51.1zm-4 212-.8-.8-2.6-.1v-84h2.6l.8-.7h6.8l.9.2h93.1l.8-.2 13.9.4 2.7 2.9.1 43.8 1.4.8v.1h.8v2.8h14.7v24.2h-14.7v3h-1.3l-1 1v3.9l-3 2.2-14 .6-101.2-.1z"/><path class="st2" d="m1089.9 260.9 12.1.3.8.9.1 44.9h.9l.5.3v1.6h.8v2.8h14.7v17.4H1105v3h-.8v1.5l-.4.4h-1.1v4.7l-.8.5-12.9.6h-99.8l-.8-.8h-.4v-77.3h.6l.7-.7h5l.9.2h93.8l.9-.3m-.6-6.8-.8.2H995.6l-.6-.1h-8.5l-.8.8-4.6.1v90.7l4.5.1.8.8h102.9l12.9-.6 2.1-.1 1.7-1.2.8-.6 2.8-2V339h2.2v-3h14.7v-31h-14.7v-2.8h-2.2l-.1-40v-2.6l-1.8-1.9-.8-.9-2-2.2-2.9-.1-12.1-.3-.6-.1z"/><path class="st3" d="m1000.1 319.2-2.5-59.4h89.1l-.3 63.3-86.3-3.9z"/><path class="st2" d="m1084.5 262.1-.3 58.6-81.9-3.7-2.3-54.9h84.5m4.6-4.5h-93.8l2.7 63.8 90.8 4.1.3-67.9z"/><path class="st2" d="M1087.1 286.5h-4.6c-5.9 0-10.6-4.8-10.6-10.6 0-5.9 4.8-10.6 10.6-10.6h4.6v4.5h-4.6c-3.4-.1-6.2 2.5-6.3 5.9-.1 3.4 2.5 6.2 5.9 6.3H1087v4.5zm-84.4 0h-3.9V282h3.9c3.4.1 6.2-2.5 6.3-5.9.1-3.4-2.5-6.2-5.9-6.3H998.2v-4.5h4.6c5.9 0 10.6 4.8 10.6 10.6s-4.8 10.6-10.7 10.6z"/><path d="m995.3 261.1 2.7 64.2" style="fill:none;stroke:#14487e;stroke-width:.29;stroke-miterlimit:3.86"/><path d="M1102.8 307h.9l.5.3v1.6h.8v2.8h14.7v17.4H1105v3h-.8v1.5l-.4.4h-1.1v4.7l-.8.6-12.9.6h-99.8l-.8-.8-32-.7-.7-.9v-74.3l.7-.9 32.1-.6.7-.7h5l.9.2h93.8l.8-.2 12.1.3.8.9.2 44.8z" style="fill:none;stroke:#fff;stroke-width:.86;stroke-miterlimit:3.86"/><path d="M1104.4 304.4v29.9" style="fill:none;stroke:#fff;stroke-width:7;stroke-miterlimit:3.86"/><path class="st7" d="m954.7 264.5 31.4-.6v72.7l-31.4-.6-.7-.8v-69.9l.7-.8z"/><path class="st2" d="m988.4 339-34.7-.7-2-2.2v-71.6l1.9-2.3 34.8-.7V339zm-32.1-5.2 27.6.6v-68.1l-27.6.5v67z"/><path class="st7" d="M1082 109.2c-6.8-6.8-15.8-7.5-15.8-7.5-17.8 7.6-35.7 18.4-35.7 18.4s26.8-12.1 54.4-6.5c0 0-1.6-3.1-2.9-4.4z"/><path class="st3" d="M1115.3 101.1c-7.9-11.9-29.1-7.8-42.7-3.6 3.9 1.1 25.5 2.9 17.7 35.7-4.7 19.5-18.6 42.5-18 43.6.8 1.6 56.8-55 43-75.7zm2.2 94.8H955.9c-1.3.1-2.3-.9-2.4-2.2-.1-1.3.9-2.3 2.2-2.4H1117.5c1.3-.1 2.3.9 2.4 2.2.1 1.3-.9 2.3-2.2 2.4h-.2zm0 16.7H955.9c-1.3.1-2.3-.9-2.4-2.2-.1-1.3.9-2.3 2.2-2.4H1117.5c1.3-.1 2.3.9 2.4 2.2.1 1.3-.9 2.3-2.2 2.4h-.2zm0 16.8H955.9c-1.3 0-2.3-1-2.3-2.3s1-2.3 2.3-2.3h161.6c1.3 0 2.3 1 2.3 2.3s-1 2.3-2.3 2.3zm-68.1-83.7h-93.5c-1.3.1-2.3-.9-2.4-2.2-.1-1.3.9-2.3 2.2-2.4h93.7c1.3-.1 2.3.9 2.4 2.2.1 1.3-.9 2.3-2.2 2.4h-.2zm0 16.8h-93.5c-1.3 0-2.3-1-2.3-2.3 0-1.3 1-2.3 2.3-2.3h93.5c1.3 0 2.3 1 2.3 2.3-.1 1.2-1.1 2.3-2.3 2.3zm0 16.7h-93.5c-1.3 0-2.3-1-2.3-2.3 0-1.3 1-2.3 2.3-2.3h93.5c1.3 0 2.3 1 2.3 2.3-.1 1.3-1.1 2.3-2.3 2.3zm68.1 66.9H955.9c-1.3.1-2.3-.9-2.4-2.2s.9-2.3 2.2-2.4H1117.5c1.3-.1 2.3.9 2.4 2.2.1 1.3-.9 2.3-2.2 2.4h-.2z"/></g></svg>