<svg xmlns="http://www.w3.org/2000/svg" viewBox="0 0 822.4 500.4" style="enable-background:new 0 0 822.4 500.4;background-color:#fff" xml:space="preserve"><style>.st0{fill:none;stroke:#000;stroke-width:.4252;stroke-linecap:round;stroke-linejoin:round;stroke-miterlimit:10}.st1{stroke-width:.2835}.st1,.st2,.st3,.st4{fill:none;stroke:#000;stroke-linecap:round;stroke-linejoin:round}.st2{stroke-width:.283;stroke-miterlimit:10}.st3,.st4{stroke-width:.2835;stroke-dasharray:.6469,3.2347}.st4{stroke-dasharray:9.7041,3.2347,.6469,3.2347}.st5{font-family:Helvetica,Arial,sans-serif}.st6{font-size:14px}.st7{font-size:14.9998px}</style><g id="BCBL"><path class="st0" d="M654.7 97.2c-6.2 0-11.3 5-11.3 11.2s5 11.3 11.2 11.3 11.3-5 11.3-11.2-5-11.3-11.2-11.3"/><path class="st0" d="M654.7 102.4c-3.3 0-6 2.7-6 6s2.7 6 6 6 6-2.7 6-6c.1-3.3-2.6-6-6-6m-396.6-5.2c6.2 0 11.3 5 11.3 11.2s-5 11.3-11.2 11.3c-6.2 0-11.3-5-11.3-11.2s5-11.3 11.2-11.3"/><path class="st0" d="M258.1 102.4c3.3 0 6 2.7 6 6s-2.7 6-6 6-6-2.7-6-6 2.7-6 6-6m396.6 329c-6.2 0-11.3-5-11.3-11.2s5-11.3 11.2-11.3 11.3 5 11.3 11.2-5 11.3-11.2 11.3"/><path class="st0" d="M654.7 426.2c-3.3 0-6-2.7-6-6s2.7-6 6-6 6 2.7 6 6c.1 3.3-2.6 6-6 6"/><path class="st0" d="M654.7 434.3c7.8 0 14.1-6.3 14.1-14.1V108.4c0-7.8-6.3-14.1-14.1-14.1H258.1c-7.8 0-14.1 6.3-14.1 14.1v311.8c0 7.8 6.3 14.1 14.1 14.1h396.6z"/><path class="st0" d="M280.1 432.1c-4.7 0-8.4-3.7-8.4-8.5v-3.4c0-7.5-6.2-13.7-13.7-13.7h-3.4.1c-4.7 0-8.5-3.8-8.5-8.6V130.5c0-4.7 3.8-8.5 8.5-8.6h-.1 3.4c7.5 0 13.7-6.2 13.7-13.7v-3.4c0-4.7 3.6-8.5 8.4-8.5h352.7c4.7 0 8.4 3.7 8.4 8.5v3.4c0 7.5 6.2 13.7 13.7 13.7h3.4-.1c4.7 0 8.5 3.8 8.5 8.6V398c0 4.7-3.8 8.5-8.5 8.6h.1-3.4c-7.5 0-13.7 6.2-13.7 13.7v3.4c0 4.7-3.6 8.5-8.4 8.5H280.1z"/><path class="st0" d="M258.1 431.4c6.2 0 11.3-5 11.3-11.2s-5-11.3-11.2-11.3c-6.2 0-11.3 5-11.3 11.2s5 11.3 11.2 11.3"/><path class="st0" d="M258.1 426.2c3.3 0 6-2.7 6-6s-2.7-6-6-6-6 2.7-6 6 2.7 6 6 6m56.6-303.6h283.5v283.5H314.7zM53.1 420.3h34m582.1-253.8h4.9m0-6.5.3 3.2-.3 3.3m0-6.5h-5.2m0-2.5h5.2v2.5m0-15.7.3 6.7-.3 6.5m0-13.2h-5.2m5.2 0v-2.5h-5.2m5.2-6.5.3 3.3-.3 3.2m0-6.5h0-4.9m22.5 24.3v-17.4m-3.6 18.5v-19.6m-2.1 19.1v-18.6m-2.9 18.6v-18.6m-2 20.7v-22.7m-2.9 22.7v-22.7m-2.1 20.6v-18.6m-7.2 24.9h5.2m-5.2-31.2h5.2m17.1 24.8c.3-.1.5-.3.5-.6m0-17.3c0-.3-.2-.6-.5-.6m0 18.6-3.1.5m3.1-19.1-3.1-.5h-1.4m0 19.6h1.4m-2.1-19.1.7-.5m-.7 19.1.7.5m-3.6-19.1h2.9m-4.9 20.7 2-2.1h2.9m-2.9-18.6-2-2h-2.9m0 22.7h2.9m-5-20.7 2.1-2m-2.1 20.6 2.1 2.1m-3-2.1h.9m-.9 0c-.3 0-.6.3-.6.6l-.1 2.4m1.6-21.6h-.9c-.3 0-.6-.3-.6-.6l-.1-2.4M87.1 108.3h-34m0-14h34v340h-34z"/><path class="st0" d="M86.7 144.4c-.4-.9-.9-1.7-1.5-2.5m1.5 15.6v-13.2m-1.4 15.6c.6-.8 1.1-1.6 1.5-2.5m-12.7 9.1 11.2-6.5m-14.2 6.4c1 .1 1.9.1 2.9 0M59.9 160l11.2 6.5m-12.7-9.1c.4.9.9 1.7 1.5 2.5m-1.4-2.4v-13.2m1.4-2.4c-.6.8-1.1 1.6-1.5 2.5m1.5-2.6 11.2-6.5m2.9.1c-1-.1-1.9-.1-2.9 0m3-.1 11.2 6.5m-25.4 9.1c0 7 5.7 12.7 12.7 12.7 7 0 12.7-5.7 12.7-12.7s-5.7-12.7-12.7-12.7-12.7 5.7-12.7 12.7"/><path class="st0" d="M80.8 150.9c0-4.5-3.7-8.2-8.2-8.2-4.5 0-8.2 3.7-8.2 8.2 0 4.5 3.7 8.2 8.2 8.2 4.5 0 8.2-3.7 8.2-8.2"/><path class="st0" d="M72.6 162.1c6.2 0 11.3-5 11.3-11.2s-5-11.3-11.2-11.3-11.3 5-11.3 11.2 5 11.3 11.2 11.3"/><path class="st0" d="M70.5 146.4c0-.7-.6-1.4-1.3-1.4-.7 0-1.4.6-1.4 1.3 0 .7.6 1.4 1.3 1.4.8 0 1.4-.6 1.4-1.3m6.7 0c0-.7-.6-1.4-1.3-1.4-.7 0-1.4.6-1.4 1.3 0 .7.6 1.4 1.3 1.4.8 0 1.4-.6 1.4-1.3m-8.7 6.3c0-.7-.6-1.4-1.3-1.4-.7 0-1.4.6-1.4 1.3 0 .7.6 1.4 1.3 1.4.8 0 1.4-.6 1.4-1.3m10.8 0c0-.7-.6-1.4-1.3-1.4-.7 0-1.4.6-1.4 1.3 0 .7.6 1.4 1.3 1.4.8 0 1.4-.6 1.4-1.3"/></g><g id="Dimensions"><path class="st1" d="M24.2 144.2v-42.3"/><path d="m26.6 142.5-2.4 9.2-2.5-9.2zm0-38.9-2.4-9.2-2.5 9.2z"/><path class="st2" d="M53.2 94.4H21.4m31.7 57.3H21.4"/><path class="st1" d="M94.5 72h23.3"/><path d="M96.2 74.5 87 72l9.2-2.5z"/><path class="st2" d="M72.5 72H87"/><path class="st1" d="M64.9 72H54.5"/><path d="m63.2 69.5 9.3 2.5-9.3 2.5z"/><path class="st2" d="M72.6 150.9V69.2"/><path class="st1" d="M60.7 49.1h18.7"/><path d="m62.4 51.6-9.2-2.5 9.2-2.5zm15.4 0 9.2-2.5-9.2-2.5z"/><path class="st2" d="M87 94.4V46.2M53.2 94.4V46.2"/><path class="st1" d="M265.2 72h11"/><path d="m266.9 74.5-9.2-2.5 9.2-2.5z"/><path class="st2" d="M244 72h13.7"/><path class="st1" d="M236.5 72h-11.4"/><path d="M234.8 69.5 244 72l-9.2 2.5z"/><path class="st2" d="M258 108.4V69.2"/><path class="st1" d="M251.5 49.1h395.7"/><path d="m253.2 51.6-9.2-2.5 9.2-2.5zm392.3 0 9.2-2.5-9.2-2.5z"/><path class="st2" d="M654.7 94.4V46.2M244 108.3V20.1m424.9 88.2V17.9"/><path class="st1" d="M251.5 23.6h409.9"/><path d="m253.2 26-9.2-2.4 9.2-2.5zm406.5 0 9.2-2.4-9.2-2.5z"/><path class="st2" d="M221.6 94.4v13.7"/><path class="st1" d="M221.6 86.9V75.5"/><path d="m224.1 85.2-2.5 9.2-2.5-9.2z"/><path class="st2" d="M258 108.3h-39.2"/><path class="st1" d="M221.6 116.1v296.5"/><path d="m219.1 117.8 2.5-9.2 2.5 9.2zm0 293.1 2.5 9.2 2.5-9.2z"/><path class="st2" d="M244 420.1h-48.2m62.1-325.7h-88.2m88.2 339.9h-90.5"/><path class="st1" d="M173.2 101.9v324.8"/><path d="m170.7 103.6 2.5-9.2 2.4 9.2zm0 321.4 2.5 9.3 2.4-9.3z"/><path class="st1" d="M698.9 72h11"/><path d="m700.6 74.5-9.2-2.5 9.2-2.5z"/><path class="st2" d="M669.2 72h22.2"/><path class="st1" d="M661.6 72h-11.3"/><path d="m660 69.5 9.2 2.5-9.2 2.5z"/><path class="st2" d="M691.7 141.6V69.2M420.4 462l33.7-74.7"/><path class="st1" d="m668.6 407.2 16.5-16.5H798"/><path d="m671.6 407.7-8.3 4.8 4.8-8.3z"/><path class="st1" d="m664.5 430 16.4 16.4h65.3"/><path d="m663.9 432.9-4.7-8.2 8.2 4.7z"/></g><g id="Middle_Lines"><path class="st1" d="M654.8 92.1v4.3"/><path class="st3" d="M654.8 99.6v2.3"/><path class="st4" d="M654.8 103.5v15.2"/><path class="st1" d="M654.8 120.3v4.2m-16.2-16.2h4.3"/><path class="st3" d="M646.1 108.3h2.3"/><path class="st4" d="M650 108.3h15.2"/><path class="st1" d="M666.8 108.3h4.2M258 92.1v4.3"/><path class="st3" d="M258 99.6v2.3"/><path class="st4" d="M258 103.5v15.2"/><path class="st1" d="M258 120.3v4.2m16.2-16.2H270"/><path class="st3" d="M266.8 108.3h-2.3"/><path class="st4" d="M262.9 108.3h-15.2"/><path class="st1" d="M246.1 108.3h-4.3M72.6 134.7v4.2"/><path class="st3" d="M72.6 142.2v2.2"/><path class="st4" d="M72.6 146v15.2"/><path class="st1" d="M72.6 162.9v4.2m16.2-16.2h-4.2"/><path class="st3" d="M81.3 150.9h-2.2"/><path class="st4" d="M77.4 150.9H62.2"/><path class="st1" d="M60.6 150.9h-4.2m598.4 285.6v-4.3"/><path class="st3" d="M654.8 429v-2.3"/><path class="st4" d="M654.8 425.1v-15.2"/><path class="st1" d="M654.8 408.3V404m-16.2 16.3h4.3"/><path class="st3" d="M646.1 420.3h2.3"/><path class="st4" d="M650 420.3h15.2"/><path class="st1" d="M666.8 420.3h4.2m-413 16.2v-4.3"/><path class="st3" d="M258 429v-2.3"/><path class="st4" d="M258 425.1v-15.2"/><path class="st1" d="M258 408.3V404m16.2 16.3H270"/><path class="st3" d="M266.8 420.3h-2.3"/><path class="st4" d="M262.9 420.3h-15.2"/><path class="st1" d="M246.1 420.3h-4.3"/></g><g id="Text_1_"><text transform="rotate(-90 74.23 56.618)" class="st5 st6">20</text><text transform="translate(61.306 43.195)" class="st5 st6">12</text><text transform="translate(98.36 65.873)" class="st5 st6">5.1</text><text transform="translate(437.671 43.195)" class="st5 st6">140</text><text transform="translate(437.671 17.684)" class="st5 st6">150</text><text transform="translate(246.855 70.29)" class="st5 st6">5</text><text transform="rotate(-90 246.254 29.75)" class="st5 st6">110</text><text transform="rotate(-90 220.27 55.734)" class="st5 st6">120</text><text transform="rotate(-90 160.729 -55.606)" class="st5 st6">5</text><text transform="translate(676.303 70.29)" class="st5 st6">8</text><text transform="translate(352.615 481.42)" class="st5 st6">100 x 100 (Luminous area )</text><text transform="translate(696.994 442.33)" class="st5 st6">4 × M 5</text><text transform="translate(691.324 386.488)" class="st5 st6">4 × Ø 8 4.4 deep</text><text transform="translate(686.32 475.36)" class="st5 st7">Not to scale</text><text transform="translate(686.32 493.36)" class="st5 st7">Dimensions in mm</text></g></svg>