<svg version="1.1" id="Ebene_1" xmlns="http://www.w3.org/2000/svg" xmlns:xlink="http://www.w3.org/1999/xlink" x="0" y="0" viewBox="0 0 1020.5 510.2" style="background-color:#fff" xml:space="preserve"><style>.st0{clip-path:url(#SVGID_2_);fill:none;stroke:#000;stroke-width:.425;stroke-linecap:round;stroke-linejoin:round}.st0,.st1{stroke-miterlimit:10}.st1,.st15,.st2,.st8{fill:none;stroke:#000;stroke-width:.283;stroke-linecap:round;stroke-linejoin:round}.st8{stroke-dasharray:.258,1.288}.st15{stroke-dasharray:.773,3.865}.st16{font-family:Helvetica,Arial,sans-serif}.st17{font-size:14.9998px}.st18{font-size:14.9996px}.st19{letter-spacing:-1}.st20{font-size:14.9997px}</style><defs><path id="SVGID_1_" d="M0 0h1020.5v510.2H0z"/></defs><clipPath id="SVGID_2_"><use xlink:href="#SVGID_1_" overflow="visible"/></clipPath><path class="st0" d="M68.2 84.3c-3.9 0-7.2 3.1-7.2 7m0 0v326m0-.1c0 3.9 3.3 7.1 7.2 7.1m0 0h311.7m0 0c3.9 0 7-3.1 7-7m.1-326c0-3.9-3.1-7-7-7m7 333v-326m-7.1-7H68.2M224 229.4c-17.6 0-32 14.3-32 31.9 0 17.6 14.3 32 31.9 32 17.6 0 32-14.3 32-31.9 0-17.7-14.3-32-31.9-32"/><path class="st0" d="M82.2 119.6h283.5v283.5H82.2zm-14-34c-3.1 0-5.8 2.6-5.8 5.8m0-.1v326m0-.1c0 3.1 2.6 5.7 5.8 5.7m0 0h311.7m0 0c3.1 0 5.8-2.5 5.8-5.7m0 .1V91m0 .2c0-3.1-2.6-5.7-5.8-5.7m0 .1H68.2"/><path class="st0" d="M224 223.8c-20.7 0-37.5 16.8-37.5 37.5s16.8 37.5 37.5 37.5 37.5-16.8 37.5-37.5-16.8-37.5-37.5-37.5"/><path class="st0" d="M224 228c-18.4 0-33.4 14.9-33.4 33.4 0 18.4 14.9 33.4 33.4 33.4 18.4 0 33.4-14.9 33.4-33.4S242.4 228 224 228M509.5 90.1v-7h-17.1v7m17.1 0h-17.1m17.1 0v326m-17.1-326v326m0 0h17.1m0 0v7m0 0h-17.1v-7M664.8 369c1.3 0 2.4-1.1 2.4-2.4 0-1.3-1.1-2.4-2.4-2.4-1.3 0-2.4 1.1-2.4 2.4 0 1.3 1.1 2.4 2.4 2.4M982.4 90c0-3.9-3.3-6.9-7.2-6.9m7.2 7v326m-7.1 7c3.9 0 7.1-3.2 7.1-7.1m-7.2 7.1H663.5m-7-7.1c0 3.9 3.2 7.1 7.1 7.1m-.1-340c-3.9 0-7 3-7 6.9m0 326.1v-326m7-7h311.7M819.5 228.2c-17.6 0-32 14.3-32 31.9 0 17.6 14.3 32 31.9 32 17.6 0 32-14.3 32-31.9 0-17.7-14.3-32-31.9-32m-154.7-71.8c1.3 0 2.4-1.1 2.4-2.4 0-1.3-1.1-2.4-2.4-2.4-1.3 0-2.4 1.1-2.4 2.4 0 1.3 1.1 2.4 2.4 2.4M492.1 90.7h-2.4m0 3.2l-.2-1.6.2-1.6m0 3.2h2.6m0 1.3h-2.6v-1.3m0 7.8l-.2-3.3.2-3.2m0 6.5h2.6m-2.6 0v1.3h2.6m-2.6 3.2l-.2-1.6.2-1.6m0 3.2h2.4M481 94.1v8.7m1.8-9.2v9.7m1-9.4v9.2m1.5-9.2v9.2m.9-10.3V104m1.5-11.2V104m1-10.1v9.2m3.6-12.4h-2.6m2.6 15.5h-2.6m-8.5-12.3c-.1 0-.3.2-.3.3m.1 8.5c0 .2.1.3.3.3m-.1-9.1l1.6-.3m-1.6 9.5l1.6.2h.7m0-9.7h-.7m1 9.5l-.3.2m.3-9.4l-.3-.3m1.8 9.5h-1.5m2.4-10.3l-.9 1.1h-1.5m1.5 9.2l.9.9h1.5m0-11.2h-1.5m2.5 10.3l-1 .9m1-10.1l-1-1.1m1.5 1.1h-.5m.5 0c.2 0 .3-.1.3-.3v-1.2m-.8 10.7h.4c.2 0 .3.1.3.3v1.2m466.7-6.9c0 .4.3.6.6.6s.6-.3.6-.6c0-.4-.3-.6-.6-.6-.3-.1-.6.2-.6.6m-5.5 0c0 .4.3.6.6.6.4 0 .6-.3.6-.6 0-.4-.3-.6-.6-.6-.3-.1-.6.2-.6.6m4.6 3.2c0 .4.3.6.6.6.4 0 .6-.3.6-.6 0-.4-.3-.6-.6-.6s-.6.3-.6.6m-3.5 0c0 .4.3.6.6.6s.6-.3.6-.6c0-.4-.3-.6-.6-.6s-.6.3-.6.6"/><path class="st0" d="M954 93.6c-2.8 0-5 2.2-5 5s2.2 5 5 5 5-2.2 5-5-2.2-5-5-5"/><path class="st0" d="M960.4 98.6c0-3.6-2.9-6.4-6.4-6.4-3.6 0-6.4 2.9-6.4 6.4 0 3.6 2.9 6.4 6.4 6.4 3.6 0 6.4-2.9 6.4-6.4M947 95.4v6.5m0 0c.2.4.4.9.7 1.3m0 0l5.7 3.3m0 0h1.5m5.5-3.3l-5.6 3.3m5.6-3.3c.3-.4.5-.9.7-1.3m.1-6.5v6.5m0-6.5c-.2-.4-.4-.9-.7-1.3"/><path class="st0" d="M947.7 94.1l5.7-3.2h1.4l5.6 3.2m-12.7 0c-.3.4-.5.8-.7 1.3m-282.2-1.1c1.6 0 2.8-1.3 2.8-2.8 0-1.6-1.3-2.8-2.8-2.8-1.6 0-2.8 1.3-2.8 2.8 0 1.6 1.3 2.8 2.8 2.8"/><path class="st0" d="M664.8 95c2 0 3.5-1.6 3.5-3.5 0-2-1.6-3.5-3.5-3.5-2 0-3.5 1.6-3.5 3.5m3.5 102c1.6 0 2.8-1.3 2.8-2.8 0-1.6-1.3-2.8-2.8-2.8-1.6 0-2.8 1.3-2.8 2.8 0 1.5 1.3 2.8 2.8 2.8"/><path class="st0" d="M664.8 194.2c2 0 3.5-1.6 3.5-3.5 0-2-1.6-3.5-3.5-3.5-2 0-3.5 1.6-3.5 3.5m132.9 96.1c.8 0 1.4-.6 1.4-1.4 0-.8-.6-1.4-1.4-1.4-.8 0-1.4.6-1.4 1.4 0 .7.7 1.4 1.4 1.4"/><path class="st0" d="M794.2 287.5c1.2 0 2.1-1 2.1-2.1 0-1.2-1-2.1-2.1-2.1-1.2 0-2.1 1-2.1 2.1m52.5 1.4c.8 0 1.4-.6 1.4-1.4 0-.8-.6-1.4-1.4-1.4-.8 0-1.4.6-1.4 1.4 0 .7.7 1.4 1.4 1.4"/><path class="st0" d="M844.6 287.5c1.2 0 2.1-1 2.1-2.1 0-1.2-1-2.1-2.1-2.1-1.2 0-2.1 1-2.1 2.1m-48.3-49c.8 0 1.4-.6 1.4-1.4 0-.8-.6-1.4-1.4-1.4-.8 0-1.4.6-1.4 1.4 0 .7.7 1.4 1.4 1.4"/><path class="st0" d="M794.2 237.1c1.2 0 2.1-1 2.1-2.1 0-1.2-1-2.1-2.1-2.1-1.2 0-2.1 1-2.1 2.1m52.5 1.4c.8 0 1.4-.6 1.4-1.4 0-.8-.6-1.4-1.4-1.4-.8 0-1.4.6-1.4 1.4 0 .7.7 1.4 1.4 1.4"/><path class="st0" d="M844.6 237.1c1.2 0 2.1-1 2.1-2.1 0-1.2-1-2.1-2.1-2.1s-2.1 1-2.1 2.1M973.9 94.3c1.6 0 2.8-1.3 2.8-2.8 0-1.6-1.3-2.8-2.8-2.8-1.6 0-2.8 1.3-2.8 2.8 0 1.6 1.2 2.8 2.8 2.8"/><path class="st0" d="M973.9 95c2 0 3.5-1.6 3.5-3.5 0-2-1.6-3.5-3.5-3.5-2 0-3.5 1.6-3.5 3.5m3.5 102c1.6 0 2.8-1.3 2.8-2.8 0-1.6-1.3-2.8-2.8-2.8-1.6 0-2.8 1.3-2.8 2.8 0 1.5 1.2 2.8 2.8 2.8"/><path class="st0" d="M973.9 194.2c2 0 3.5-1.6 3.5-3.5 0-2-1.6-3.5-3.5-3.5-2 0-3.5 1.6-3.5 3.5"/><path class="st1" d="M271.6 484.6l30.8-169"/><path class="st2" d="M671 49.8h296.6"/><path d="M672.4 51.9l-7.7-2.1 7.7-2.1zm293.8 0l7.7-2.1-7.7-2.1z"/><path class="st2" d="M1015.3 241.2v37.9"/><path d="M1013.2 242.6l2.1-7.7 2 7.7zm0 35.1l2.1 7.6 2-7.6z"/><path class="st2" d="M230.4 62.8h150.3"/><path d="M231.8 64.8l-7.6-2 7.6-2.1zm147.5 0l7.7-2-7.7-2.1z"/><path class="st2" d="M67.6 26.5h313.1"/><path d="M69 28.5l-7.7-2 7.7-2.1zm310.3 0l7.7-2-7.7-2.1z"/><path class="st1" d="M386.9 24.9v70M61 22.1V92m163.2-33.1V260M628.8 91.7h36.1m-36.1 99H661M628.8 83.3h35.9m-8.4 8.5V48.3m8.6 43.5V48.3m309 43.2V48.3"/><path class="st2" d="M960.3 34.5h15.9"/><path d="M961.7 36.5l-7.7-2 7.7-2.1zm13.1 0l7.6-2-7.6-2.1z"/><path class="st1" d="M954.2 98.2V33m28.2 57V33M664.7 49.8h-8.2m362.1 185.1h-174m174 50.4H845"/><path class="st2" d="M1015.3 291.6V417"/><path d="M1013.2 293l2.1-7.7 2 7.7zm0 122.6l2.1 7.7 2-7.7z"/><path class="st1" d="M1018.6 423.3h-43.4"/><path class="st2" d="M976.3 457.5H850.6"/><path d="M974.9 455.4l7.7 2.1-7.7 2zm-122.9 0l-7.7 2.1 7.7 2z"/><path class="st1" d="M982.6 460.8V416m-138.3 44.8V285.3"/><path class="st2" d="M838 457.5h-37.4"/><path d="M836.6 455.4l7.7 2.1-7.7 2zm-34.6 0l-7.7 2.1 7.7 2z"/><path class="st1" d="M794.2 460.8V285.3"/><path class="st2" d="M650.1 49.8h-23.2"/><path d="M648.7 47.7l7.6 2.1-7.6 2.1z"/><path class="st1" d="M480.8 93.6V61.3m11.6 21.8V61.3m17.1 21.8V61.3m0 1.5H481"/><path class="st2" d="M474.6 62.8h-23.2"/><path d="M473.2 60.8l7.6 2-7.6 2.1z"/><path class="st2" d="M515.7 62.8h23.2"/><path d="M517.1 64.9l-7.6-2.1 7.6-2z"/><path class="st1" d="M632.2 84.1v7.7"/><path class="st2" d="M632.2 97.9v86.5"/><path d="M630.1 99.3l2.1-7.7 2 7.7zm0 83.7l2.1 7.7 2-7.7z"/><path class="st2" d="M632.2 77.3V62.4"/><path d="M634.2 75.9l-2 7.7-2.1-7.7z"/><path class="st1" d="M1011.5 83.1h-37.6m37.6 15.3h-57.3m54-.1V83"/><path class="st2" d="M1008.2 76.9V53.7"/><path d="M1010.3 75.5l-2.1 7.6-2.1-7.6z"/><path class="st2" d="M1008.2 105v14"/><path d="M1006.1 106.4l2.1-7.7 2.1 7.7z"/><path class="st2" d="M789.7 291.3L768.9 318h-61.3"/><path d="M786.8 291.1l7.6-5.8-3.8 8.8z"/><path class="st2" d="M671.9 99.7l20.8 26.7h120.9"/><path d="M671 102.5l-3.7-8.8 7.6 5.8z"/><path class="st2" d="M428.7 418.2V267.1"/><path d="M430.7 416.8l-2 7.7-2.1-7.7zm0-148.3l-2-7.6-2.1 7.6z"/><path class="st1" d="M223.9 260.2h205.9m-47.2 164.3h47.2"/><path class="st2" d="M23.6 418.2V90.6"/><path d="M25.6 416.8l-2 7.7-2.1-7.7zm0-324.8l-2-7.7-2.1 7.7z"/><path class="st1" d="M19 84.3h48.5M19 424.5h48.5"/><path class="st2" d="M205.2 278.8l36.2-36.3"/><path d="M207.6 279.3l-6.9 4 4-6.9zm34.3-34.3l4-6.9-6.9 4z"/><path class="st1" d="M245.9 238.1l24.7-24.8h38.5"/><defs><path id="SVGID_3_" d="M0 0h1020.5v510.2H0z"/></defs><clipPath id="SVGID_4_"><use xlink:href="#SVGID_3_" overflow="visible"/></clipPath><path d="M493.8 62.8c0 .8-.6 1.4-1.4 1.4-.8 0-1.4-.6-1.4-1.4 0-.8.6-1.4 1.4-1.4.7 0 1.4.7 1.4 1.4" clip-path="url(#SVGID_4_)"/><path class="st2" d="M819.6 430.1v-4.2"/><path fill="none" stroke="#000" stroke-width=".283" stroke-linecap="round" stroke-linejoin="round" stroke-dasharray=".574,2.87" d="M819.6 423v-2"/><path fill="none" stroke="#000" stroke-width=".283" stroke-linecap="round" stroke-linejoin="round" stroke-dasharray="8.611,2.87,.574,2.87" d="M819.6 419.6V47.9"/><path class="st2" d="M819.6 46.4v-4.2M1011.4 260h-4.2"/><path fill="none" stroke="#000" stroke-width=".283" stroke-linecap="round" stroke-linejoin="round" stroke-dasharray=".573,2.867" d="M1004.3 260h-2"/><path fill="none" stroke="#000" stroke-width=".283" stroke-linecap="round" stroke-linejoin="round" stroke-dasharray="8.602,2.867,.573,2.867" d="M1000.9 260H629.5"/><path class="st2" d="M628.1 260h-4.3m41-63.7v-4.2"/><path class="st8" d="M664.8 190.8v-.9"/><path class="st2" d="M664.8 189.2V185m5.7 5.7h-4.3"/><path class="st8" d="M665 190.7h-.9"/><path class="st2" d="M663.4 190.7h-4.2M224 453.5v-4.2"/><path fill="none" stroke="#000" stroke-width=".283" stroke-linecap="round" stroke-linejoin="round" stroke-dasharray=".573,2.864" d="M224 446.4v-2"/><path fill="none" stroke="#000" stroke-width=".283" stroke-linecap="round" stroke-linejoin="round" stroke-dasharray="8.592,2.864,.573,2.864" d="M224 443V265.7"/><path class="st2" d="M224 264.2V260m-.1 0h-4.3"/><path fill="none" stroke="#000" stroke-width=".283" stroke-linecap="round" stroke-linejoin="round" stroke-dasharray=".564,2.818" d="M216.8 260h-2"/><path fill="none" stroke="#000" stroke-width=".283" stroke-linecap="round" stroke-linejoin="round" stroke-dasharray="8.454,2.818,.564,2.818" d="M213.4 260H39"/><path class="st2" d="M37.6 260h-4.3M503.2 98.5h-4.3"/><path fill="none" stroke="#000" stroke-width=".283" stroke-linecap="round" stroke-linejoin="round" stroke-dasharray=".637,3.186" d="M495.8 98.5h-2.3"/><path fill="none" stroke="#000" stroke-width=".283" stroke-linecap="round" stroke-linejoin="round" stroke-dasharray="9.559,3.186,.637,3.186" d="M491.9 98.5H477"/><path class="st2" d="M475.4 98.5h-4.3m193.7 61.1v-4.2"/><path class="st8" d="M664.8 154.1v-.9"/><path class="st2" d="M664.8 152.5v-4.2m5.7 5.6h-4.3"/><path class="st8" d="M665 153.9h-.9"/><path class="st2" d="M663.4 153.9h-4.2m5.6-56.7v-4.3"/><path class="st8" d="M664.8 91.6v-.9"/><path class="st2" d="M664.8 90.1v-4.3m5.7 5.7h-4.3"/><path class="st8" d="M665 91.5h-.9"/><path class="st2" d="M663.4 91.5h-4.2m314.7 5.7v-4.3"/><path class="st8" d="M973.9 91.6v-.9"/><path class="st2" d="M973.9 90.1v-4.3m5.7 5.7h-4.3"/><path class="st8" d="M974 91.5h-.9"/><path class="st2" d="M972.5 91.5h-4.3m-14.1 15.7v-4.3"/><path class="st15" d="M954.1 99.1v-2.7"/><path class="st2" d="M954.1 94.4v-4.2m8.5 8.5h-4.3"/><path class="st15" d="M954.5 98.7h-2.7"/><path class="st2" d="M949.8 98.7h-4.2m28.3 97.6v-4.2"/><path class="st8" d="M973.9 190.8v-.9"/><path class="st2" d="M973.9 189.2V185m5.7 5.7h-4.3"/><path class="st8" d="M974 190.7h-.9"/><path class="st2" d="M972.5 190.7h-4.3M664.8 372.2v-4.3"/><path class="st8" d="M664.8 366.7v-.9"/><path class="st2" d="M664.8 365.1v-4.2m5.7 5.6h-4.3"/><path class="st8" d="M665 366.5h-.9"/><path class="st2" d="M663.4 366.5h-4.2m135-75.5v-4.2"/><path class="st8" d="M794.2 285.5v-.9"/><path class="st2" d="M794.2 283.9v-4.2m5.7 5.6h-4.2"/><path class="st8" d="M794.4 285.3h-.9"/><path class="st2" d="M792.8 285.3h-4.2m5.6-44.7v-4.2"/><path class="st8" d="M794.2 235.1v-.9"/><path class="st2" d="M794.2 233.5v-4.2m5.7 5.6h-4.2"/><path class="st8" d="M794.4 234.9h-.9"/><path class="st2" d="M792.8 234.9h-4.2m56 5.7v-4.2"/><path class="st8" d="M844.6 235.1v-.9"/><path class="st2" d="M844.6 233.5v-4.2m5.7 5.6h-4.2"/><path class="st8" d="M844.8 234.9h-.9"/><path class="st2" d="M843.2 234.9H839m5.6 56.1v-4.2"/><path class="st8" d="M844.6 285.5v-.9"/><path class="st2" d="M844.6 283.9v-4.2m5.7 5.6h-4.2"/><path class="st8" d="M844.8 285.3h-.9"/><path class="st2" d="M843.2 285.3H839"/><text transform="translate(216.808 502.604)" class="st16 st17">200 × 200 (Luminous Area)</text><text transform="translate(297.111 57.077)"><tspan x="0" y="0" class="st16 st18 st19">1</tspan><tspan x="7.2" y="0" class="st16 st18">15</tspan></text><text transform="translate(211.629 18.543)" class="st16 st18">230</text><text transform="translate(801.683 43.817)" class="st16 st18">218</text><text transform="translate(960.29 29.463)" class="st16 st18">20</text><text transform="rotate(-90 350.592 -276.365)" class="st16 st18">6</text><text transform="rotate(-90 388.173 -238.663)" class="st16 st18">70</text><text transform="rotate(-90 536.476 -466.464)"><tspan x="0" y="0" class="st16 st18 st19">1</tspan><tspan x="7.2" y="0" class="st16 st18">1</tspan></text><text transform="rotate(-90 642.088 -367.346)" class="st16 st18">35.6</text><text transform="rotate(-90 689.172 -320.263)" class="st16 st18">97.2</text><text transform="translate(898.823 451.656)" class="st16 st18">97.2</text><text transform="translate(804.985 451.656)" class="st16 st18">35.6</text><text transform="rotate(-90 142.744 124.194)" class="st16 st18">240</text><text transform="rotate(-90 388.693 -34.039)"><tspan x="0" y="0" class="st16 st18 st19">1</tspan><tspan x="7.2" y="0" class="st16 st18">15</tspan></text><text transform="translate(635.926 44.593)" class="st16 st18">6</text><text transform="translate(456.38 59.907)" class="st16 st18">8</text><text transform="translate(520.624 59.907)" class="st16 st18">12</text><text transform="translate(713.173 313.352)" class="st16 st20">4</text><text transform="translate(725.683 313.352)" class="st16 st20">× M3,</text><text transform="translate(713.173 331.352)" class="st16 st20">5 deep</text><text transform="translate(701.578 121.115)" class="st16 st20">4</text><text transform="translate(714.088 121.115)" class="st16 st20">× M4, 7.5 deep</text><text transform="translate(275.229 207.884)" class="st16 st18">Ø</text><text transform="translate(291.069 207.884)" class="st16 st18">45</text><text transform="translate(9.585 484.604)" class="st16 st17">Not to scale</text><text transform="translate(9.585 502.604)" class="st16 st17">Dimensions in mm</text></svg>