<svg xmlns="http://www.w3.org/2000/svg" viewBox="0 0 578.3 255.1" style="enable-background:new 0 0 578.3 255.1;background-color:#fff" xml:space="preserve"><style>.st10{font-family:Helvetica,Arial,sans-serif}.st11{font-size:9px}.st12{fill:#575756}.st14{font-size:8.7485px}.st15{font-size:6.5549px}</style><g id="Lines"><path d="M35.1 209.1V10.9m532.7 198.2H35.1" style="stroke-linecap:round;stroke-linejoin:round;fill:none;stroke:#dadada;stroke-width:.7087;stroke-miterlimit:10"/><path d="M567.8 10.9H35.1m532.7 39.6H35.1m532.7 39.7H35.1m532.7 39.6H35.1m532.7 39.6H35.1m342-158.5v198.2m38.2-198.2v198.2m38.1-198.2v198.2m38.2-198.2v198.2m38.1-198.2v198.2m38.1-198.2v198.2M301 10.9v198.2M263 10.9v198.2M225.1 10.9v198.2m-38-198.2v198.2m-38-198.2v198.2m-38-198.2v198.2" style="fill:none;stroke:#dadada;stroke-width:.2835;stroke-miterlimit:10;stroke-linecap:round;stroke-linejoin:round"/><path d="M339.2 209.2V11m-266 198.2V11" style="fill:none;stroke:#dadada;stroke-width:.2835;stroke-miterlimit:10"/></g><g id="Graphen_00000115500420143128663610000017394546589503380633_"><path id="infrared" d="M495.7 12.9c.3 1.8.6 3.6.7 5.5.7 8.4 1.2 16.9 1.5 25.3.7 20.4 1.5 40.9 2.6 61.3 1 18.6 1.9 37.1 2.8 55.7.5 11.3 1.9 22.6 4.2 33.7.6 2.9 1.8 5.6 3.5 8.1 2.8 3.9 7.3 6.3 12.1 6.5H545M494.1 12.9c.1-.4.4-.6.8-.6s.7.3.8.7m-83.4 196.1 20.8-.2c5-.1 10-.2 14.9-.5 6.6-.1 12.7-3.4 16.3-8.9 3.3-5.2 5.7-10.8 7.2-16.7 3.4-13.1 6.2-26.4 8.4-39.8 3.4-20.4 6-40.9 7.8-61.4 1.1-13.5 2.1-27 2.9-40.6.5-8 1.3-16 2.5-24 .2-1.4.5-2.8.8-4.1" style="fill:none;stroke:#178ecf;stroke-width:.8504;stroke-miterlimit:10"/><path id="red" d="M424.4 209.1h.8m-1.5 0h.7m-1.6 0h.8m-1.5 0h.7m-1.4 0h.7m-1.4 0h.7m-1.5 0h.8m-1.6 0h.7m-1.5 0h.8m-1.5 0h.7m-1.4 0h.7m-1.6 0h.8m-1.5 0h.7m-1.4 0h.7m-1.5 0h.8m-1.6 0h.7m-1.4 0h.7m-1.5 0h.8m-1.5 0h.7m-1.6 0h.8m-1.5 0h.7m-1.4 0h.7m-1.5 0h.8m-1.6 0h.7m-1.4 0h.7m-1.5 0h.8m-1.5 0h.7m-1.4 0h.7m-1.6 0h.8m-1.5 0h.7m-1.4 0h.7m-1.6 0h.8m-1.5 0h.7m-1.4 0h.7m-1.5 0h.8m-1.5 0h.7m-1.6 0h.8m-1.5 0h.7m-1.4 0h.7m-1.6 0h.8m-1.5 0h.7m-1.4 0h.7m-1.5 0h.8m-1.5 0h.7m-1.5 0h.7m-1.5 0h.8m-1.5 0h.7m-1.4 0h.7m-1.6 0h.8m-1.5 0h.7m-1.5 0h.8m-1.5 0h.7m-1.5 0h.7m-1.4 0h.7m-1.5 0h.8m-1.5 0h.7m-1.6 0h.8m-1.5 0h.7m-1.4-.3.7.2m-1.5.1.8-.2m-1.6-.1.7.2m-1.5-.2h.8m-1.5 0h.7m-1.4 0h.7m-1.5 0h.7m-1.5 0h.8m-1.5 0h.7m-1.5 0h.8m-1.6 0h.7m-1.4 0h.7m-1.5 0h.8m-1.5 0h.7m-1.4 0h.7m-1.6 0h.8m-1.5 0h.7m-1.4 0h.7m-1.6 0h.8m-1.5 0h.7m-1.4 0h.7m-1.5 0h.8m-1.5 0h.7m-1.6 0h.8m-1.5 0h.7m-1.4-.1.7.1m-1.6-.1h.8m-1.5 0h.7m-1.4 0h.7m-1.5 0h.8m-1.5-.2.7.2m-1.5-.2h.7m-1.5 0h.8m-1.5-.3.7.2m-1.4-.2h.7m-1.6-.1.8.1m-1.5-.3.7.2m-1.4-.4.7.1m-1.5-.3.8.2m-1.6-.4.7.2m-1.5-.3.8.1m-1.5-.4.7.2m-1.4-.5.7.4m-1.5-.9.7.5m-1.5-1.1.8.6m-1.5-1.2.7.6m-1.5-1.3.8.7m-1.6-1.8.7 1.1m-1.4-2.4.7 1.3m-1.5-3 .8 1.7m-1.5-3.6.7 1.9m-1.6-4.1.8 2.2m-1.5-4.9.7 2.7m-1.4-5.9.7 3.2m-1.4-7.4.7 4.2m-1.6-9 .8 4.8m-1.5-10.9.7 6.1m-1.5-13.7.8 7.5m-1.5-16.9.7 9.4m-1.5-21.7.7 12.3m-1.5-27.1.8 14.8m-1.5-32.8.7 17.9m-1.4-39 .7 21.2m-1.6-43.6.8 22.4m-1.5-44.4.7 22m-1.4-41 .7 19m-1.5-31.1.8 12.1m-1.5-17.5.7 5.4m-1.5-3.4.7-2m-1.5 9.3.8-7.3M327.2 32l.7-11.7m-1.6 25.5.8-13.9m-1.5 28.6.7-14.7m-1.4 29.7.7-14.9m-1.5 28.8.8-13.9m-1.5 26.5.7-12.7m-1.5 24.5.7-11.7m-1.5 22.2.8-10.5m-1.5 20 .7-9.6m-1.4 18.1.7-8.5m-1.6 15.8.8-7.3m-1.5 13.9.7-6.6m-1.4 12.3.7-5.7m-1.5 10.7.8-4.9m-1.6 9.3.7-4.4m-1.4 8.6.7-4.2m-1.5 7.5.8-3.3m-1.5 6.4.7-3.1m-1.6 6.1.8-3m-1.5 5.4.7-2.4m-1.4 4.6.7-2.2m-1.5 4.2.8-2m-1.6 3.5.7-1.6m-1.4 3.4.7-1.8m-1.5 3.4.8-1.6m-1.5 2.5.7-1m-1.5 2.2.7-1.2m-1.5 2.4.8-1.2m-1.5 2.1.7-.8m-1.5 1.7.8-1m-1.6 1.9.7-.8m-1.4 1.4.7-.6m-1.4 1.2.7-.6m-1.5 1.2.8-.6m-1.6 1.2.7-.6m-1.5.9.8-.4m-1.5 1 .7-.6m-1.4 1 .7-.4m-1.6.6.8-.2m-1.5.6.7-.4m-1.4.6.7-.2m-1.5.6.8-.4m-1.6.4h.7m-1.4.4.7-.5m-1.5.5h.8m-1.5.2.7-.1m-1.4.3.7-.2m-1.6.2h.8m-1.5.1.7-.1m-1.5.1h.8m-1.6.3.7-.2m-1.4.2h.7m-1.5 0h.8m-1.5.2.7-.2m-1.4.2h.7m-1.6 0h.8m-1.5 0h.7m-1.4.1.7-.1m-1.5.1h.8m-1.6 0h.7m-1.5 0h.8m-1.5 0h.7m-1.4 0h.7m-1.5 0h.7m-1.5 0h.8m-1.5 0h.7m-1.5 0h.8m-1.6 0h.7m-1.4 0h.7m-1.5 0h.8m-1.5.3.7-.2m-1.5.2h.7" style="fill:none;stroke:#f59d23;stroke-width:.8504;stroke-linecap:round;stroke-linejoin:round;stroke-miterlimit:10"/><path d="m186.5 61.8.7 13.3m-1.5-26 .7 12.7M185 38.1l.7 11m-1.4-20.9.7 10m-1.6-18.3.9 8.3m-1.7-13.8.7 5.5m-1.4-9.4.7 3.8m-1.4-3.5.7-.2m-1.5 1.9.7-1.7m-1.4 6.3.7-4.6m-1.6 10 .9-5.4m-1.6 14.5.7-9.1M177.4 41l.7-9.4m-1.5 20.2.7-10.8m-1.4 21.8.7-11M175 74.5l.9-11.7m-1.6 23.4.7-11.7m-1.5 22.9.7-11.2m-1.4 21.4.7-10.2m-1.4 19.9.7-9.7m-1.6 19.3.9-9.6m-1.6 18.5.7-8.9m-1.5 17 .7-8.1M169 152l.7-8.1m-1.4 14.8.7-6.6m-1.6 12.5.9-5.9m-1.6 11.8.7-5.9m-1.5 11 .7-5m-1.4 9.5.7-4.6m-1.4 8.6.7-3.9m-1.5 7.7.7-3.8m-1.6 6.7.9-3m-1.6 5.6.7-2.6m-1.4 4.8.7-2.2m-1.5 4.2.7-2m-1.4 3.6.7-1.6m-1.6 3 .9-1.4m-1.6 2.7.7-1.4m-1.4 2.3.7-.9m-1.5 1.9.7-1m-1.4 1.5.7-.5m-1.4 1.1.7-.6m-1.6 1.2.9-.6m-1.7.8.7-.2m-1.4.6.7-.4m-1.4.8.7-.4m-1.5.6.7-.2m-1.4.3.7-.1m-1.6.4.9-.2m-1.6.4.7-.2m-1.4.2h.7m-1.5 0h.7m-1.4.2.7-.1m-1.6.1h.9m-1.6 0h.7m-1.4 0h.7m-1.5.2.7-.2m-1.4.2h.7m-1.6 0h.9m-1.6-.2.7.2m-1.5 0 .7-.2m-1.4.2h.7m-1.4 0h.7m-1.6 0h.9m-1.6 0h.7m-1.5 0h.7m-1.4.1.7-.1m-1.4 0 .7.1m-1.5-.1h.7m-1.6 0h.9m-1.6 0h.7m-1.4.1.7-.1m-1.5.1h.7m-1.4-.1.7.1m-1.6-.1h.9m-1.6 0h.7m-1.4.1.7-.1m-1.5 0 .7.1m-1.4-.1h.7m-1.6 0h.9m-1.6 0h.7m-1.4 0h.7m-1.5 0h.7m-1.4 0h.7m-1.6 0h.9m-1.6 0h.7m-1.5 0h.7m-1.4 0h.7m-1.4 0h.7m-1.5 0h.7m-1.4 0h.7m-1.6 0h.9m-1.6 0h.7m-1.4 0h.7m-1.5 0h.7m-1.4 0h.7m-1.6 0h.9m-1.6 0h.7m-1.5 0h.7m-1.4 0h.7m-1.4 0h.7m-1.6 0h.9m-1.6 0h.7m-1.5 0h.7m-1.4 0h.7m-1.4 0h.7m-1.6 0h.9m-1.6 0h.7m-1.5 0h.7m-1.4 0h.7m-1.4 0h.7m-1.5 0h.7m-1.6 0h.9m-1.6 0h.7m-1.4 0h.7m-1.5 0h.7m-1.4 0h.7m-1.6 0h.9m-1.6 0h.7m-1.4 0h.7m-1.5 0h.8m-1.5 0h.7m-1.6 0h.9m-1.6 0h.7m-1.5 0h.7m-1.4 0h.7m-1.4 0h.7m-1.6 0h.9m-1.5 0h.6m-1.5 0h.9m-1.6 0h.7m-1.4 0h.7m-1.5 0h.7m-1.4 0h.7m-1.6 0h.9m-1.6 0h.7m-1.5 0h.7m-1.4 0h.7m-1.4 0h.7m-1.6 0h.9m-1.6 0h.7m-1.5 0h.8m-1.5 0h.7m-1.4 0h.7m-1.6 0h.9m-1.6 0h.7m-1.5 0h.7m-1.4 0h.7m-1.4 0h.7m-1.5 0h.8m-1.7 0h.9m-1.6 0h.7m-1.4 0h.7m-1.5 0h.7m-1.4 0h.7m-1.6 0h.9m-1.6 0h.7m-1.4 0h.7m-1.5 0h.7m-1.4 0h.7m-1.6 0h.9m-1.6 0h.7m-1.5 0h.8m-1.5 0h.7m-1.4 0h.7m-1.6 0h.9m-1.6 0h.7m-1.5 0h.7m-1.4 0h.7m-1.4 0h.7m-1.5 0h.8m-1.6 0h.9m-1.7 0h.7m-1.4 0h.7m-1.4 0h.7m-1.5 0h.7m-1.4 0h.7m-1.6 0h.9m-1.6 0h.7m-1.5 0h.7m-1.4 0h.7m-1.4 0h.7m-1.6 0h.9m-1.6 0h.7m-1.5 0h.7m-1.4 0h.7m-1.4 0h.7m-1.6 0h.9m-1.7 0h.7m-1.4 0h.7m-1.4 0h.7m-1.5 0h.8m-1.5 0h.7m-1.6 0h.9m-1.6 0h.7m-1.4 0h.7m-1.5 0h.7m-1.4 0h.7m-1.6 0h.9m-1.6 0h.7m301.3-44.1.7.7m-1.4-1.9.7 1.2m-1.5-2.3.7 1.1m-1.6-2.3.9 1.2m-1.6-2.6.7 1.4m-1.4-2.4.7 1m-1.5-2.6.7 1.6m-1.4-3.2.7 1.6m-1.4-2.5.7.9m-1.6-2.2.9 1.4m-1.6-2.8.7 1.4m-1.5-2.6.7 1.2m-1.4-2.4.7 1.2m-1.4-2.7.7 1.5m-1.6-3.1.9 1.6m-1.7-2.8.7 1.2m-1.4-2.6.7 1.4m-1.4-3 .7 1.6m-1.5-2.6.7 1m-1.5-3.1.9 2.1m-1.7-3.2.7 1.1m-1.4-2.7.7 1.6m-1.4-2.8.7 1.2m-1.5-2.6.7 1.4m-1.4-3 .7 1.6m-1.6-3.2.9 1.6m-1.6-3.3.7 1.7m-1.4-2.3.7.6m-1.5-2.5.7 1.8m-1.4-3.5.7 1.7m-1.6-2.7.9 1m-1.6-2.9.7 2m-1.5-3 .7 1m-1.4-2 .7 1m-1.4-2.9.7 1.8m-1.6-2.7.9 1m-1.6-2.4.7 1.4m-1.5-3 .7 1.6m-1.4-2.6.7 1m-1.4-2.3.7 1.4m-1.6-2.7.9 1.2m-1.7-2.5.7 1.4m-1.4-3 .7 1.6m-1.4-2.1.7.5m-1.5-2.1.7 1.6m-1.4-2.4.7.7m-1.6-1.4.9.7m-1.6-2.9.7 2.2m-1.4-2.8.7.6m-1.5-1.4.7.7m-1.4-2.1.7 1.5m-1.6-2.5.9 1m-1.6-1.6.7.6m-1.4-1.6.7 1m-1.5-1.2.7.1m-1.4-1.3.7 1.2m-1.4-1.8.7.6m-1.6-1 .9.4m-1.7-1.1.7.7m-1.4-1.3.7.6m-1.4-1 .7.4m-1.5-1 .7.6M290 90l.7.6m-1.6-1 .9.4m-1.6-1 .7.6m-1.4-.6h.7m-1.5-.6.7.6m-1.4-.9.7.2m-1.6-.2h.9m-1.6-.1.7.1m-1.5-.1h.7m-1.4 0h.7m-1.4 0h.7m-1.6-.2.9.2m-1.6-.5.7.2m-1.5.3.7-.5m-1.4.5h.7m-1.4.1.7-.1m-1.6.1h.9m-1.6.3.7-.2m-1.5.2h.7m-1.4.3.7-.4m-1.4.1.7.4m-1.5-.1.7-.4m-1.6.4h.9m-1.6.3.7-.2m-1.4.6.7-.4m-1.5.7.7-.4m-1.4.4h.7m-1.6-.1.9.1m-1.6.9.7-1m-1.4 1h.7m-1.5 0h.7m-1.4 0h.7m-1.6.4.9-.4m-1.6.7.7-.4m-1.5.7.7-.2m-1.4.5.7-.4m-1.4.7.7-.2m-1.6.3.9-.1m-1.6 0 .7.1m-1.5.4.7-.5m-1.4.5h.7m-1.4.5.7-.5m-1.5.8.7-.4m-1.4.8.7-.4m-1.6.4h.9m-1.6.4.7-.4m-1.4.6.7-.2m-1.5.5.7-.2m-1.4.3.7-.1m-1.6 1 .9-.9m-1.6 1.4.7-.5m-1.5.7.7-.2m-1.4.8.7-.6m-1.4 1 .7-.4m-1.6 1.4.9-1m-1.6 1.6.7-.6m-1.5 1.3.7-.7m-1.4 1.7.7-1m-1.4 2.2.7-1.2m-1.6 2.1.9-.9m-1.7 1.6.7-.7m-1.4 1 .7-.2m-1.4 2.2.7-2m-1.5 2.7.7-.7m-1.4 2.3.7-1.6m-1.6 3.1.9-1.5m-1.6 2.8.7-1.4m-1.4 3 .7-1.6m-1.5 3.2.7-1.6m-1.4 3.6.7-2m-1.6 4.1.9-2.1m-1.6 3.6.7-1.5m-1.4 3.6.7-2.1m-1.5 4 .7-2m-1.4 4.8.7-2.7m-1.6 4.6.9-2m-1.6 4.6.7-2.6m-1.5 4.9.7-2.3m-1.4 4.9.7-2.6m-1.4 5.2.7-2.6m-1.6 5.2.9-2.6m-1.5 4.9.6-2.3m-1.5 5.3.9-3m-1.6 6.1.7-3.1m-1.4 5.4.7-2.3m-1.5 5.3.7-3m-1.4 5.3.7-2.3m-1.6 5.2.9-2.8m-1.6 5.3.7-2.6m-1.5 5.5.7-2.8m-1.4 5.1.7-2.3m-1.4 4.4.7-2.1m-1.6 4.3.9-2.2m-1.6 4.4.7-2.2m-1.5 4.2.7-2m-1.4 4 .7-2m-1.4 3.6.7-1.6m-1.6 3.4.9-1.8m-1.6 3.2.7-1.4m-1.5 2.7.7-1.4m-1.4 2.4.7-1m-1.4 2.3.7-1.2m-1.5 1.9.7-.7m-1.6 1.2.9-.5m-1.6 1.5.7-1m-1.4 1.1.7-.1m-1.5.5.7-.4m-1.4.9.7-.5m-1.6.8.9-.4m-1.6.2.7.2m-1.4-.2h.7m-1.5-.4.7.4m-1.4-.8.7.4m-1.6-.7.9.4m-1.6-1.4.7 1m-1.5-2 .7 1m-1.4-2.6.7 1.6m-1.4-3.1.7 1.5m-1.6-3.5.9 2m-1.6-4 .7 2.1m-1.5-4.6.7 2.5m-1.4-5.1.7 2.6m-1.4-5.2.7 2.6m-1.5-5.2.7 2.6m-1.6-5.6.9 3.1m-1.6-6.7.7 3.6m-1.4-7.4.7 3.8m-1.5-8.3.7 4.4m-1.4-9.9.7 5.5m-1.4-11.7.7 6.2m-1.6-14.7.9 8.5m-1.6-17.6.7 9.1m-1.5-20.4.7 11.3m-1.4-23.9.7 12.6m-1.4-25.9.7 13.3m-1.6-26.3.9 13.1m257.7 120.9h7.6m-8.4-.8.7.7m-1.4-.7h.7m-1.4 0h.7m-1.5-.2.7.2m-1.4-.2h.7m-1.6 0h.9m-1.6 0h.7m-1.4 0h.7m-1.5 0h.7m-1.4-.3.7.2m-1.6.1.9-.2m-1.6-.1.7.2m-1.5-.2h.7m-1.4 0h.7m-1.4 0h.7m-1.5 0h.7m-1.5 0h.9m-1.7-.1.7.1m-1.4-.1h.7m-1.4 0h.7m-1.5 0h.7m-1.4 0h.7m-1.6-.2.9.2m-1.6-.2h.7m-1.4 0h.7m-1.5 0h.7m-1.4 0h.7m-1.6-.2.9.1m-1.6-.1h.7m-1.5 0h.7m-1.4-.2.7.2m-1.4-.2h.7m-1.6 0h.9m-1.6 0h.7m-1.5 0h.7m-1.4 0h.7m-1.4-.3.7.2m-1.6-.2h.9m-1.7-.1.7.1m-1.4-.1h.7m-1.4 0h.7m-1.5-.2.7.2m-1.4-.2h.7m-1.6-.3.9.2m-1.6-.2h.7m-1.4-.1.7.1m-1.5 0 .7-.1m-1.4 0 .7.1m-1.6-.3.9.2m-1.6-.2h.7m-1.4-.2.7.1m-1.5-.1h.7m-1.4-.2.7.2m-1.6-.2h.9m-1.6-.3.7.2m-1.5-.3.7.1m-1.4-.1h.7m-1.4 0h.7m-1.6-.2.9.2m-1.6-.2h.7m-1.5-.1.7.1m-1.4-.4.7.2m-1.4-.4.7.2m-1.5-.4.7.1m-1.4-.1h.7m-1.6-.2.9.2m-1.6-.3.7.1m-1.5-.1h.7m-1.4-.3.7.2m-1.4-.4.7.2m-1.6-.3.9.1m-1.6-.1h.7m-1.5-.3.7.2m-1.4-.6.7.4m-1.4-.4h.7m-1.6-.2.9.2m-1.6-.6.7.4m-1.5-.6.7.2m-1.4-.3.7.1m-1.4-.4.7.2m-1.6-.3.9.1m-1.7-.4.7.2m-1.4-.4.7.2m-1.4-.6.7.4m-1.5-.5.7.1m-1.4-.3.7.2m-1.6-.6.9.4m-1.6-.7.7.2m-1.4-.3.7.1m-1.5-.7.7.6m-1.4-.8.7.2m-1.6-.4.9.1m-1.6-.6.7.5m-1.5-.8.7.4m-1.4-.6.7.1m-1.4-.6.7.5m-1.6-.8.9.4m-1.6-.8.7.4m-1.5-.8.7.4m-1.4-.9.7.5m-1.4-.8.7.4m-1.6-.8.9.4m-1.5-.8.6.4m-1.5-.9.9.5m-1.6-.9.7.5m-1.4-1 .7.5m-1.5-.9.7.4m-1.4-.8.7.4m-1.6-1.2.9.9m-1.6-1.6.7.6m-1.5-.9.7.4m-1.4-1 .7.6m-1.4-1.1.7.5m-1.6-1.1.9.6m-1.6-1 .7.4m-1.5-.9.7.5m-1.4-1.2.7.7m-1.4-1.6.7.9m-1.6-1.4.9.5m-1.7-1.1.7.6m-1.4-1.5.7.9m-1.4-1.6.7.7m-1.5-1.5.7.7m-1.4-1.6.7 1m-1.6-1.5.9.5m-1.6-1.2.7.6m-1.4-1.3.7.7m-1.5-1.9.7 1.2m-1.4-2 .7.7m-1.6-1.6.9 1m-1.6-1.7.7.6m-1.4-1.4.7.9m-1.5-1.9.7 1M344 173l.7 1.1m-1.6-1.7.9.6m-1.6-1.9.7 1.2m-1.5-2.4.7 1.2m-1.4-1.9.7.7m-1.4-2.1.7 1.4m-3.1-4.8.7 1.6.7.9h0l.9 1" style="stroke:#b2b2b2;stroke-width:.8504;stroke-linecap:round;stroke-linejoin:round;fill:none;stroke-miterlimit:10" id="white"/><path style="fill:#0a457c" d="M35.9 238.8h8.5v8.5h-8.5z"/><path id="blue" d="M270.2 208.7h.8m-1.5 0h.7m-1.4 0h.7m-1.6 0h.8m-1.5 0h.7m-1.5 0h.8m-1.5 0h.7m-1.5 0h.7m-1.5 0h.8m-1.5 0h.7m-1.4-.2.7.2m-1.6-.2h.8m-1.5 0h.7m-1.4 0h.7m-1.5 0h.8m-1.6 0h.7m-1.4 0h.7m-1.5 0h.8m-1.5 0h.7m-1.5-.3.7.2m-1.5-.2h.8m-1.5 0h.7m-1.4 0h.7m-1.6 0h.8m-1.5-.1.7.1m-1.5-.1h.8m-1.5 0h.7m-1.5-.2.7.2m-1.5-.2h.8m-1.5 0h.7m-1.4 0h.7m-1.6-.2.8.1m-1.5-.1h.7m-1.4-.2.7.2m-1.5-.4.8.2m-1.6-.2h.7m-1.5-.1.8.1m-1.5-.4.7.2m-1.4-.4.7.2m-1.4-.2h.7m-1.6-.1.8.1m-1.5-.4.7.2m-1.5-.4.8.2m-1.6-.6.7.4m-1.4-.7.7.4m-1.5-.7.8.2m-1.5-.5.7.4m-1.4-.9.7.5m-1.6-.9.8.4m-1.5-.7.7.4m-1.4-1 .7.6m-1.6-1.2.8.6m-1.5-1.2.7.6m-1.5-1.5.8.8m-1.5-1.4.7.6m-1.4-1.4.7.8m-1.6-1.5.8.7m-1.5-1.7.7 1m-1.4-2.1.7 1.1m-1.6-2.2.8 1.2m-1.5-2.6.7 1.3m-1.4-2.7.7 1.4m-1.5-2.7.8 1.3m-1.5-3.3.7 2m-1.5-3.8.7 1.8m-1.5-4 .8 2.2m-1.5-4.6.7 2.4m-1.5-5.4.8 3m-1.6-5.5.7 2.5m-1.4-5.7.7 3.2m-1.4-6.3.7 3.1m-1.5-7.2.8 4.1m-1.6-7.6.7 3.5m-1.5-7.6.8 4.2m-1.5-8.4.7 4.2m-1.4-8.8.7 4.5m-1.6-9.9.8 5.4m-1.5-11.1.7 5.7m-1.4-11.6.7 5.9m-1.5-12.3.8 6.5m-1.6-13.8.7 7.3m-1.4-16 .7 8.7m-1.5-17.8.8 9.1m-1.5-19.1.7 9.9m-1.6-19.9.8 10m-1.5-20.8.7 10.8m-1.4-22 .7 11.2m-1.4-21.7.7 10.5m-1.6-20.2.8 9.7m-1.5-18.4.7 8.7m-1.5-16.3.8 7.5m-1.5-14.2.7 6.7m-1.4-9.7.7 3m-1.6-5.1.8 2.2m-1.5-3.3.7 1.1m-1.4 1.3.7-2.4m-1.6 4.6.8-2.2m-1.5 7.4.7-5.3m-1.4 11.2.7-5.9M195 33.2l.8-6.6m-1.5 14.2.7-7.7M193.5 50l.7-9.2m-1.5 18.1.8-8.8M192 67.4l.7-8.5m-1.6 18.4.8-9.9m-1.5 19 .7-9.1m-1.4 18.9.7-9.8m-1.5 17.7.8-7.9m-1.5 17.8.7-9.9m-1.5 18 .7-8.1m-1.5 17 .8-8.8m-1.5 16.3.7-7.5m-1.4 14.7.7-7.2m-1.6 14.1.8-6.9m-1.5 12.7.7-5.7m-1.5 11.2.8-5.5m-1.5 11.1.7-5.6m-1.5 9.9.7-4.3m-1.4 8.8.7-4.5m-1.5 8.4.8-3.8m-1.5 6.7.7-3m-1.6 6.4.8-3.3m-1.5 5.2.7-1.9m-1.4 4.3.7-2.4m-1.5 4.4.8-2m-1.6 3.6.7-1.6m-1.4 3.4.7-1.8m-1.5 3 .8-1.2m-1.5 1.9.7-.7m-1.4 1.9.7-1.2m-1.6 2 .8-.8m-1.5 1.7.7-.8m-1.5 1.4.8-.6m-1.6.9.7-.4m-1.4 1 .7-.6m-1.5.9.8-.2m-1.5.5.7-.4m-1.4 1 .7-.6m-1.6.9.8-.2m-1.5.2h.7m-1.4.1.7-.1m-1.6.6.8-.5m-1.5.6.7-.1m-1.4.1h.7m-1.5.2.8-.2m-1.5.5.7-.2m-1.5.2h.7m-1.5.1.8-.1m-1.5.3.7-.2m-1.4.2h.7m-1.6.2.8-.2m-1.5.2h.7m-1.5.2.8-.1m-1.5.1h.7m-1.5 0h.7m-1.5.2.8-.2m-1.5.3.7-.1m-1.4.1h.7m-1.6 0h.8m-1.5 0h.7m-1.4 0h.7m-1.5.3.8-.2m-1.6.2h.7m-1.5 0h.8m-1.5 0h.7m-1.4 0h.7m-1.4.2.7-.2m-1.6.2h.8m-1.5 0h.7m-1.5 0h.8m-1.6.1.7-.1m-1.4.1h.7m-1.5 0h.8m-1.5-.1.7.1m-1.4 0 .7-.1m-1.6.1h.8m-1.5 0h.7m-1.4-.1.7.1m-1.6 0 .8-.1m-1.5.1h.7m-1.5 0h.8m-1.5 0h.7m-1.4 0h.7m-1.6-.1.8.1m-1.5 0 .7-.1m-1.4.1h.7m-1.6-.1.8.1m-1.5-.1h.7m-1.4.1.7-.1m-1.5 0 .8.1m-1.5-.1h.7m-1.5 0h.7m-1.5.1.8-.1m-1.5 0 .7.1m-1.6 0 .8-.1m-1.5.1h.7m-1.4.3.7-.2m-1.4-.1.7.2m-1.5-.2h.8m-1.6-.1.7.1" style="fill:none;stroke:#0a457c;stroke-width:.8504;stroke-linecap:round;stroke-linejoin:round;stroke-miterlimit:10"/></g><g id="Text"><text transform="matrix(1 0 0 1.0029 27.353 221.129)" class="st12 st10 st11">250</text><text transform="matrix(1 0 0 1.0029 65.32 221.129)" class="st12 st10 st11">300</text><text transform="matrix(1 0 0 1.0029 103.65 221.129)" class="st12 st10 st11">350</text><text transform="matrix(1 0 0 1.0029 141.617 221.129)" class="st12 st10 st11">400</text><text transform="matrix(1 0 0 1.0029 179.584 221.129)" class="st12 st10 st11">450</text><text transform="matrix(1 0 0 1.0029 217.555 221.129)"><tspan x="0" y="0" class="st12 st10 st11">5</tspan><tspan x="5" y="0" class="st12 st10 st11">00</tspan></text><text transform="matrix(1 0 0 1.0029 255.522 221.129)"><tspan x="0" y="0" class="st12 st10 st11">5</tspan><tspan x="5" y="0" class="st12 st10 st11">50</tspan></text><text transform="matrix(1 0 0 1.0029 293.489 221.129)"><tspan x="0" y="0" class="st12 st10 st11">6</tspan><tspan x="5" y="0" class="st12 st10 st11">00</tspan></text><text transform="matrix(1 0 0 1.0029 331.457 221.129)"><tspan x="0" y="0" class="st12 st10 st11">6</tspan><tspan x="5" y="0" class="st12 st10 st11">50</tspan></text><text transform="matrix(1 0 0 1.0029 369.423 221.129)"><tspan x="0" y="0" class="st12 st10 st11">7</tspan><tspan x="5" y="0" class="st12 st10 st11">00</tspan></text><text transform="matrix(1 0 0 1.0029 407.39 221.129)"><tspan x="0" y="0" class="st12 st10 st11">7</tspan><tspan x="5" y="0" class="st12 st10 st11">50</tspan></text><text transform="matrix(1 0 0 1.0029 445.357 221.129)"><tspan x="0" y="0" class="st12 st10 st11">8</tspan><tspan x="5" y="0" class="st12 st10 st11">00</tspan></text><text transform="matrix(1 0 0 1.0029 483.088 221.129)"><tspan x="0" y="0" class="st12 st10 st11">8</tspan><tspan x="5" y="0" class="st12 st10 st11">50</tspan></text><text transform="matrix(1 0 0 1.0029 521.054 221.129)"><tspan x="0" y="0" class="st12 st10 st11">9</tspan><tspan x="5" y="0" class="st12 st10 st11">00</tspan></text><text transform="matrix(1 0 0 1.0029 559.02 221.129)"><tspan x="0" y="0" class="st12 st10 st11">9</tspan><tspan x="5" y="0" class="st12 st10 st11">50</tspan></text><text transform="matrix(.8877 0 0 1.0029 48.426 246.348)" class="st12 st10 st11">blue</text><text transform="matrix(1 0 0 1.0029 176.79 246.348)" class="st12 st10 st11">infrared</text><text transform="matrix(1 0 0 1.0029 19.576 211.552)" class="st12 st10 st11">0.0</text><text transform="matrix(1 0 0 1.0029 19.576 171.971)" class="st12 st10 st11">0.2</text><text transform="matrix(1 0 0 1.0029 19.576 132.27)" class="st12 st10 st11">0.4</text><text transform="matrix(1 0 0 1.0029 19.576 92.69)" class="st12 st10 st11">0.6</text><text transform="matrix(1 0 0 1.0029 19.576 53.108)" class="st12 st10 st11">0.8</text><text transform="matrix(1 0 0 1.0029 19.576 13.407)" class="st12 st10 st11">1.0</text><text transform="matrix(.9465 0 -.3237 .9492 537.954 234.583)" class="st12 st10" style="font-size:8.9633px">λ</text><text transform="matrix(1 0 0 1.0029 544.944 234.566)"><tspan x="0" y="0" class="st12 st10 st14">[</tspan><tspan x="2.5" y="0" class="st12 st10 st14">nm</tspan><tspan x="14.7" y="0" class="st12 st10 st14">]</tspan></text><text transform="matrix(1 0 0 1.0029 5.661 18.9)" class="st12 st10 st11">I</text><text transform="matrix(1 0 0 1.0029 8.65 20.574)"><tspan x="0" y="0" class="st12 st10 st15">r</tspan><tspan x="2.2" y="0" class="st12 st10 st15">el</tspan></text><text transform="matrix(1 0 0 1.0029 131.004 246.348)" class="st12 st10 st11">white</text><text transform="matrix(1 0 0 1.0029 94.041 246.348)" class="st12 st10 st11">red</text><path style="fill:#f59d23" d="M81.9 238.6h8.5v8.5h-8.5z"/><path style="fill:#b2b2b2" d="M119.6 238.8h8.5v8.5h-8.5z"/><path style="fill:#178ecf" d="M165.5 238.6h8.5v8.5h-8.5z"/></g></svg>