<svg version="1.1" id="svg655" xmlns="http://www.w3.org/2000/svg" x="0" y="0" viewBox="0 0 578.3 199" style="enable-background:new 0 0 578.3 199;background-color:#fff" xml:space="preserve"><style>.st1{fill:#1d1d1b}.st2,.st3{fill:none;stroke:#1d1d1b;stroke-width:.4252;stroke-miterlimit:3.86}.st3{stroke-linecap:round}.st7{font-family:Helvetica,Arial,sans-serif}.st8{font-size:9.2658px}.st9{font-size:8.604px}</style><g id="Layer_1"><path id="path530" class="st1" d="M26.1 100.6h.3v22.3h-.3v-22.3z"/><path id="path532" class="st1" d="m25 101.4 1.3-4.5 1.2 4.5H25zm0 20.7 1.3 4.5 1.2-4.5H25z"/><circle id="circle534" class="st2" cx="13.4" cy="111.9" r="5.3"/><path id="path536" class="st3" d="M13.4 111.9v-4.1m3.7 4.1h-3.8"/><path id="path538" class="st2" d="M53.3 181.3h446.5"/><path id="path540" class="st1" d="m498.8 182.7 5.4-1.5-5.4-1.5v3z"/><path id="path542" d="M53.3 18.3v24.8M196 95v47.4M400.7 95v47.4M127.8 43.9v48.9m136.1-49.6.2 86.9" style="fill:none;stroke:#1d1d1b;stroke-width:.4252;stroke-miterlimit:3.86;stroke-dasharray:5,3"/><path id="path544" d="M332.2 42.4V92" style="fill:none;stroke:#1d1d1b;stroke-width:.4252;stroke-miterlimit:3.86;stroke-dasharray:3.78,2.27"/><path id="path546" class="st2" d="M36.4 142.4h165.8v-12.3h2v12.4h6.3v-12.4h2v12.4h6.2v-12.4h2.1v12.4h6.2v-12.4h2.1v12.4h8.2v-12.4h2.1v12.4h6.2v-12.4h2.1v12.4h6.2v-12.4h2v12.4h6.2v-12.4h2.1v12.4h142.7v-12.4h2v12.4h6.3v-12.4h2v12.4h6.2v-12.4h2.1v12.4h6.2v-12.4h2.1v12.4h8.2v-12.4h2.1v12.4h6.2v-12.4h2.1v12.4h6.2v-12.4h2v12.4h6.3v-12.4h2v12.4h14.5m.1-99.3H332.4V30.8h-2v12.4h-6.2V30.8h-2.1v12.4h-6.2V30.8h-2.1v12.4h-6.2V30.8h-2v12.4h-8.3V30.8h-2.1v12.4H289V30.8h-2v12.4h-6.3V30.8h-2v12.4h-6.2V30.8h-2.1v12.4H127.7V30.8h-2v12.4h-6.2V30.8h-2.1v12.4h-6.2V30.8h-2.1v12.4h-6.2V30.8h-2v12.4h-8.3V30.8h-2.1v12.4h-6.2V30.8h-2.1v12.4H76V30.8h-2.1v12.4h-6.2V30.8h-2.1v12.4H36.4m0 49.6h97.5V80.4h2v12.5h6.3V80.4h2v12.5h6.2V80.4h2.1v12.5h6.2V80.4h2.1v12.5h8.2V80.4h2.1v12.5h6.2V80.4h2.1v12.5h6.2V80.4h2v12.5h6.2V80.4h2.1v12.5h142.7V80.4h2v12.5h6.3V80.4h2v12.5h6.2V80.4h2.1v12.5h6.2V80.4h2.1v12.5h8.2V80.4h2.1v12.5h6.2V80.4h2.1v12.5h6.2V80.4h2v12.5h6.3V80.4h2v12.5h82.7M133.9 76.2h-6.2"/><path id="path548" class="st1" d="M133.6 73.9h.7v4.8h-.7v-4.8zm-6.3 0h.7v4.8h-.7v-4.8z"/><path id="path550" class="st2" d="M270.4 26.6h-6.2"/><path id="path552" class="st1" d="M270 24.2h.7V29h-.7v-4.8zm-6.2 0h.7V29h-.7v-4.8z"/><path id="path554" class="st2" d="M202.2 126.7H196"/><path id="path556" class="st1" d="M201.8 124.3h.7v4.8h-.7v-4.8zm-6.2 0h.7v4.8h-.7v-4.8z"/><path id="path558" class="st2" d="M121.5 97.8H55.3"/><path id="path560" class="st1" d="M121.1 95.4h.7v4.8h-.7v-4.8zm-66.2 0h.7v4.8h-.7v-4.8z"/><path id="path562" class="st2" d="M338.3 77.1h-5.5"/><path id="path564" class="st1" d="M337.9 74.7h.7v4.8h-.7v-4.8zm-5.5 0h.7v4.8h-.7v-4.8z"/><path id="path566" class="st2" d="M189.7 149.9h-68.2"/><path id="path568" class="st1" d="M189.3 147.5h.7v4.8h-.7v-4.8zm-68.2 0h.7v4.8h-.7v-4.8z"/><path id="path570" class="st2" d="M406.6 126.7h-5.5"/><path id="path572" class="st1" d="M406.2 124.3h.7v4.8h-.7v-4.8zm-5.5 0h.7v4.8h-.7v-4.8z"/><g id="blaze_00000092433125205564237220000011860942384480954296_"><path id="path574" class="st2" d="m13.2 95.5.5.5h22.2l.5-.5V77.7l-.5-.5H13.7l-.5.5v17.8"/><path id="path576" class="st2" d="M22.1 83.9c.1-.2.1-.4 0-.5s-.3-.1-.4 0h-5.5c-.1-.1-.3-.1-.4 0-.1.1-.1.3 0 .4v4.6c-.1.1-.1.3 0 .4s.3.1.4 0h5.5c.1.1.3.1.4 0s.1-.3 0-.4v-4.5zm8.5 0c.1-.2.1-.4 0-.5s-.3-.1-.5 0h-5.5c-.1-.1-.3-.1-.5 0-.1.1-.1.3 0 .5v4.7c-.1.1-.1.3 0 .5.1.1.3.1.5 0h5.5c.1.1.3.1.5 0 .1-.1.1-.3 0-.5v-4.7z"/><path id="path578" class="st2" d="M25.8 84.7H27v1.2h-1.2v-1.2zm0 1.9H27v1.2h-1.2v-1.2zm1.9-1.9h1.2v1.2h-1.2v-1.2zm0 1.9h1.2v1.2h-1.2v-1.2z"/><circle id="circle580" class="st2" cx="18.8" cy="86.2" r="2.1"/></g><g id="blaze"><path id="path583" class="st2" d="m13.2 145.6.5.5h22.2l.5-.5v-17.8l-.5-.5H13.7l-.5.5v17.8"/><path id="path585" class="st2" d="M22.1 134c.1-.2.1-.4 0-.5s-.3-.1-.4 0h-5.5c-.1-.1-.3-.1-.4 0-.1.1-.1.3 0 .4v4.6c-.1.1-.1.3 0 .4.1.1.3.1.4 0h5.5c.1.1.3.1.4 0s.1-.3 0-.4V134zm8.5 0c.1-.2.1-.4 0-.5s-.3-.1-.5 0h-5.5c-.1-.1-.3-.1-.5 0-.1.1-.1.3 0 .5v4.7c-.1.1-.1.3 0 .5.1.1.3.1.5 0h5.5c.1.1.3.1.5 0 .1-.1.1-.3 0-.5V134z"/><path id="path587" class="st2" d="M25.8 134.8H27v1.2h-1.2v-1.2zm0 1.8H27v1.2h-1.2v-1.2zm1.9-1.8h1.2v1.2h-1.2v-1.2zm0 1.8h1.2v1.2h-1.2v-1.2z"/><circle id="circle589" class="st2" cx="18.8" cy="136.3" r="2.1"/></g><g id="blaze_00000133510556413260988020000001807622739831067555_"><path id="path592" class="st2" d="m13.2 45.5.5.4h22.2l.5-.4V27.6l-.5-.4H13.7l-.5.4v17.9"/><path id="path594" class="st2" d="M22.1 33.8c.1-.2.1-.4 0-.5s-.3-.1-.4 0h-5.5c-.1-.1-.3-.1-.4 0-.1.1-.1.3 0 .4v4.6c-.1.1-.1.3 0 .4.1.1.3.1.4 0h5.5c.1.1.3.1.4 0s.1-.3 0-.4v-4.5zm8.5.1c0-.1 0-.1 0 0 .1-.2.1-.4 0-.5s-.3-.1-.5 0h-5.5c-.1-.1-.3-.1-.5 0-.1.1-.1.3 0 .5v4.7c-.1.1-.1.3 0 .5.1.1.3.1.5 0h5.5c.1.1.3.1.5 0 .1-.1.1-.3 0-.5v-4.7z"/><path id="path596" class="st2" d="M25.8 34.6H27v1.2h-1.2v-1.2zm0 1.9H27v1.2h-1.2v-1.2zm1.9-1.9h1.2v1.2h-1.2v-1.2zm0 1.9h1.2v1.2h-1.2v-1.2z"/><circle id="circle598" class="st2" cx="18.8" cy="36.2" r="2.1"/></g><path id="path601" class="st1" d="M26.1 50.5h.3v22.3h-.3V50.5z"/><path id="path603" class="st1" d="m25 51.3 1.3-4.5 1.2 4.5H25zM25 72l1.3 4.5 1.2-4.5H25z"/><circle id="circle605" class="st2" cx="13.4" cy="61.8" r="5.3"/><path id="path607" class="st3" d="M13.4 61.8v-4.1m3.7 4.1h-3.8"/><path id="path609" d="M121.5 74.2v18.6m68.2 31v18.6" style="fill:none;stroke:#000;stroke-width:.4252;stroke-miterlimit:3.86;stroke-dasharray:5,3"/></g><g id="Text"><text id="text612" transform="translate(8.194 16.145)" class="st7 st8">Timer start</text><text id="text614" transform="translate(132.412 72.114)" class="st7 st9">Safety margin</text><text id="text616" transform="translate(268.917 22.635)" class="st7 st9">Safety margin</text><text id="text618" transform="translate(198.597 121.754)" class="st7 st8">Safety margin</text><text id="text620" transform="translate(337.167 73.603)" class="st7 st9">Safety margin</text><text id="text622" transform="translate(129.93 161.047)" class="st7 st8">Trigger offset</text><text id="text624" transform="translate(403.35 123.242)" class="st7 st8">Safety margin</text><text id="text626" transform="translate(260.32 192.239)" class="st7 st8">Time</text><text id="text628" transform="translate(497.916 138.299)" class="st7 st8">Image acquisition </text><text id="text630" transform="translate(497.916 149.419)" class="st7 st8">on camera 3</text><text id="text632" transform="translate(497.916 39.022)" class="st7 st8">Image acquisition </text><text id="text634" transform="translate(497.916 50.141)" class="st7 st8">on camera 1</text><text id="text636" transform="translate(497.916 91.54)" class="st7 st8">Image acquisition </text><text id="text638" transform="translate(497.916 102.658)" class="st7 st8">on camera 2</text><text id="text640" transform="translate(74.018 72.835)" class="st7 st8">Tiimer start</text><text id="text642" transform="translate(130.143 119.206)" class="st7 st8">Timer start</text><text id="text644" transform="translate(30.72 108.88)" class="st7 st9">PTP </text><text id="text646" transform="translate(30.72 119.205)" class="st7 st9">sync</text><text id="text648" transform="translate(30.72 58.788)" class="st7 st9">PTP </text><text id="text650" transform="translate(30.72 69.114)" class="st7 st9">sync</text><text id="text652" transform="translate(60.61 107.276)" class="st7 st8">Trigger offset</text></g></svg>