<svg xmlns="http://www.w3.org/2000/svg" viewBox="0 0 524.4 212.6" style="enable-background:new 0 0 524.4 212.6;background-color:#fff" xml:space="preserve"><style>.st0{stroke-miterlimit:10}.st0,.st2,.st3,.st4{fill:none;stroke:#000;stroke-width:.2835;stroke-linecap:round;stroke-linejoin:round}.st3{stroke-dasharray:.5322,5.3216}.st4{stroke-dasharray:26.6079,5.3216,.5322,5.3216}.st7{font-family:Helvetica,Arial,sans-serif}.st8{font-size:9.0261px}.st9{font-size:9.1477px}</style><g id="Lens"><path class="st0" d="m480.3 103.3-.3-3.8m-.9.8s0 0 0 0m.9-.7c0-.2-.2-.4-.4-.4m-.5 0h.6m-.5 0c-.1 0-.1 0 0 0m-5.4 47.2c3.1-2.5 5.9-5.3 8.4-8.4m2.3-31.9c1.1.5 2.5.2 3.3-.8.8-1 .8-2.4 0-3.4s-2.2-1.3-3.3-.8m0 .1c-1 .4-1.6 1.4-1.6 2.5s.6 2 1.6 2.5"/><path class="st0" d="M441.3 153.5c27.2-1 48.5-23.5 48-50.7-.5-27.2-22.7-48.9-49.8-48.9m1.9 101.2v-1.6"/><path class="st0" d="M484.5 101.2c-1.3-23.9-21.1-42.6-45-42.6m0 90.1c23.9 0 43.7-18.7 45-42.6m-43.2 44.4c0-1-.8-1.8-1.8-1.8"/><path class="st0" d="M456.5 65.2c-5.4-2.4-11.2-3.6-17-3.6m16.9 4.4.2-.8m-17.1 76c20.7 0 37.5-16.8 37.5-37.5s-16.8-37.5-37.5-37.5"/><path class="st0" d="M439.5 143.4c7.7 0 15.2-2.2 21.6-6.4m2.6-.1c-.7-.5-1.7-.5-2.5 0m18-35.3c0 .9.6 1.7 1.4 2m-1.4-2c-.7-14.2-9-26.9-21.6-33.3m-1.2-2.2c0 .9.4 1.7 1.2 2.1m-16.2 87.5v-.6m-1.9.6h1.8m-1.8-7.1v.1m1.9 1.9v2.9m-1.9-23.2c14.7 0 26.6-11.9 26.6-26.6 0-14.7-11.9-26.6-26.6-26.6m.9-1.6h-.9m0 56.3h.9"/><path class="st0" d="M440.4 131.8c15.2-.5 27.2-12.9 27.2-28.1s-12-27.6-27.2-28.1m0-2h-.9m0 60.2h.9"/><path class="st0" d="M440.4 133.9c16.3-.5 29.3-13.9 29.3-30.2 0-16.3-13-29.7-29.3-30.2"/><path class="st0" d="M439.5 136.6c18.2 0 32.9-14.7 32.9-32.9s-14.7-32.9-32.9-32.9"/><path class="st0" d="M439.5 157.6c29.8 0 53.9-24.1 53.9-53.9 0-29.8-24.1-53.9-53.9-53.9m5.9-.7c-2-.2-3.9-.3-5.9-.3m0 109.7c2 0 4-.1 5.9-.3"/><path class="st0" d="m445.4 158.1.4-.5.8-.5.8.2.5.5m0 0c3.9-.6 7.7-1.6 11.4-3.1m.1.1.2-.7.6-.6.8-.1.7.3m-.1.1c3.6-1.6 7.1-3.6 10.2-5.9m.1-.1v-.7l.5-.7.8-.2.7.1m8.3-8.3-.1-.7.3-.9.6-.4h.7m0 0c2.3-3.2 4.3-6.6 5.9-10.2m.1 0-.4-.7.1-.8.6-.6.6-.3m0 .1c1.4-3.7 2.5-7.5 3.1-11.4m0-.1-.4-.5-.3-.8.4-.8.7-.4"/><path class="st0" d="M494 109.6c.4-3.9.4-7.9 0-11.8m.1-.1-.7-.4-.4-.8.3-.8.4-.5"/><path class="st0" d="M493.7 95.3c-.6-3.9-1.6-7.7-3.1-11.4m0-.1-.6-.2-.6-.7-.1-.8.4-.7m-.1.1c-1.6-3.6-3.6-7.1-5.9-10.2m0-.1h-.7l-.6-.4-.3-.9.1-.6m0 0c-2.5-3.1-5.3-5.9-8.4-8.4"/><path class="st0" d="m473.9 60.9-.7.1-.8-.2-.5-.7v-.7m0 0c-3.2-2.3-6.6-4.3-10.2-5.9m0 0-.7.3-.8-.1-.6-.6-.2-.6m-.1 0c-3.7-1.4-7.5-2.5-11.4-3.1m0 0-.5.5-.8.2-.8-.3-.4-.7"/><path class="st0" d="M439.5 167.7c35.3 0 64-28.6 64-64 0-35.3-28.6-64-64-64m24.2 97.2.5.7"/><path class="st0" d="M464.3 137.6c10.8-7.9 17.2-20.5 17.3-33.9m-.9-.1.8.1m4.4.4v1h-.4v-1m0-.1c0-.1-.1-.2-.2-.2m0 0h-1.2v-.4h1.2m0 0c.1 0 .2-.1.2-.2m0 .1v-1.2h.4v1.2m0-.1c0 .1.1.2.2.2m0 0h1.1v.4h-1.1m0 0c-.1 0-.2.1-.2.2m-45.4-28.5v-2.1m0 60.5v-2.2m-56.1-26.2v-3.8m-5.4 5v-6.2m-2 6.2v-6.2m19.7 37.5c2.5 3.1 5.3 5.9 8.4 8.4m14.1-83c-.1-1.3-1.1-2.3-2.3-2.5-1.3-.2-2.5.5-2.9 1.7-.5 1.2-.1 2.5 1 3.2"/><path class="st0" d="M414.9 65.9c.9.6 2 .7 2.9.1.9-.5 1.4-1.5 1.4-2.6m-4.3 77.9c-1 .7-1.4 2.1-1 3.2.5 1.2 1.7 1.9 2.9 1.7 1.3-.2 2.2-1.2 2.3-2.5"/><path class="st0" d="M419.2 143.8c.1-1.1-.4-2.1-1.4-2.6-.9-.5-2.1-.5-2.9.1M439.5 77c-14.7 0-26.6 11.9-26.6 26.6s11.9 26.6 26.6 26.6m0-54.7h-.9m0 56.3h.9"/><path class="st0" d="M438.6 75.5c-15.2.5-27.2 12.9-27.2 28.1 0 15.2 12 27.6 27.2 28.1m.9-58.2h-.9m0 60.3h.9"/><path class="st0" d="M438.6 73.4c-16.3.5-29.3 13.9-29.3 30.2 0 16.3 13 29.7 29.3 30.2"/><path class="st0" d="M439.5 70.8c-18.2 0-32.9 14.7-32.9 32.9s14.7 32.9 32.9 32.9"/><path class="st0" d="M439.5 53.8c-27.2 0-49.3 21.8-49.8 48.9-.5 27.2 20.9 49.7 48 50.7m0 .1v1.6"/><path class="st0" d="M419.1 143.9c6.3 3.2 13.3 4.9 20.4 4.9m0-90.2c-7.1 0-14 1.7-20.4 4.9m-4.3 2.4c-12.7 8.3-20.4 22.5-20.4 37.7 0 15.2 7.7 29.4 20.4 37.7"/><path class="st0" d="M439.5 148.7c-1 0-1.8.8-1.8 1.8m1.8-88.9c-6.1 0-12.2 1.3-17.7 3.9m.3.9-.2-.9m17.6.6c-20.7 0-37.5 16.8-37.5 37.5s16.8 37.5 37.5 37.5m-14.9-.6c4.7 1.9 9.8 2.9 14.9 2.9m-18.7-74.9c.8-.4 1.3-1.3 1.2-2.2"/><path class="st0" d="M420.8 68.6c-12.5 6.7-20.6 19.5-21.1 33.7m-1.4 2c.8-.3 1.4-1.1 1.4-2m25 38.1c-.8-.3-1.8-.2-2.4.5m15.4 14.2v.6m-.1 0h1.8m-1.7-2.2v-2.9m1.8-101.8c-2 0-4 .1-5.9.3m0 109.1c2 .2 3.9.3 5.9.3m-5.9-109.4-.3.7-.9.3-.8-.2-.4-.5m-.1.1c-3.9.6-7.7 1.6-11.4 3.1m0-.1-.2.6-.6.6-.8.1-.7-.3m-.1 0c-3.6 1.6-7.1 3.6-10.2 5.9m.1 0v.7l-.5.7-.8.2-.7-.1m-.1 0c-3.1 2.5-5.9 5.3-8.4 8.4m.1 0 .1.6-.2.9-.7.4h-.7m-.1.1c-2.3 3.2-4.3 6.6-5.9 10.2m.1-.1.3.7-.1.8-.6.7-.6.2m-.1 0c-1.4 3.7-2.5 7.5-3.1 11.4m.1 0 .5.5.2.8-.4.8-.6.4m0 0c-.1 1.4-.2 2.6-.3 4m0 3.8c0 1.4.2 2.7.3 4m0 0 .6.4.4.8-.2.8-.5.6m0 0c.6 3.9 1.6 7.7 3.1 11.4m0-.1.6.3.6.6.1.8-.3.7m-.1 0c1.6 3.6 3.6 7.1 5.9 10.2m.1 0h.7l.7.4.2.9-.1.7m8.4 8.3.7-.1.8.2.5.7v.7m-.1.1c3.2 2.3 6.6 4.3 10.2 5.9m.1-.1.7-.3.8.1.6.6.2.7m-.1 0c3.7 1.4 7.5 2.5 11.4 3.1m.2-.1.4-.5.8-.2.9.5.3.5"/><path class="st0" d="M439.5 39.7c-35.3 0-64 28.7-64 64s28.7 64 64 64"/><path class="st0" d="M439.5 49.8c-29.1 0-52.9 22.9-53.9 52m0 3.7c1 29 24.8 52.1 53.9 52.1m-.9-84.2v2.1m0 56.2v2.2"/><path class="st0" d="M397.4 104.5c.3 16 9.7 30.5 24.2 37.3m.1-.1.5-.7m-24.7-36.6.8-.1m17.7 39.2-1-.6.3-.3.9.6m0 0c.1 0 .2 0 .2-.1m0 0 .6-1 .5.3-.6.9m-.1.1c0 .1 0 .2.1.2m0 0 1 .5-.2.5-1-.6m0 0c-.1 0-.2 0-.2.1m-.1 0-.5.9-.4-.2.6-.9m0-.1c0-.1 0-.2-.1-.2m.7-80.4 1-.6.2.5-1 .6m0 0c-.1 0-.1.2-.1.2m.1 0 .6.9-.5.3-.6-1m0 0c0-.1-.2-.1-.2-.1m0 0-.9.6-.3-.3 1-.6m0 0c.1 0 .1-.2.1-.2m0-.1-.6-1 .4-.2.5 1m.1-.1c0 .1.2.1.2.1M383.5 100h-5.9m0 7.2h5.9m0-7.2v7.2m-4.3-.5h0m8.2-1.2h-3m3-3.8h-3m-5.4-1.2.9-.5m-.9 6.7.9.5m-2.9-6.7.6-.5m-.6 6.7.6.5m6.8-1.7h-.9m.9-3.8h-.9m102.6 1.9h.2m-46.8 46.7v.1M61.2 113l-6.5-6.5m13.8 6.5L55.3 99.8M75.9 113 56.2 93.3M83.3 113 57.5 87.1M90.6 113 59 81.3M98.1 113 60.7 75.6m44.8 37.4L62.8 70.3m50 42.7L58.3 58.5m-.3-.3-1.7-1.7m-3.7-3.7L49 49.2m71.2 63.8L56.3 49.1m71.4 63.9L63.6 49.1M135 113 81.1 59.1m61.3 53.9-54-53.9m61.4 53.9L94.9 58.2m62.2 54.8-54.7-54.8m62.2 54.8-54.9-54.8m84.4 54.8-53.9-53.9m61.3 53.9-54-53.9m61.4 53.9-54-53.9m61.3 53.9-53.8-53.9m61.2 53.9-53.9-53.9m61.4 53.9-54-53.9m61.3 53.9-53.9-53.9m61.3 53.9-53.9-53.9m61.2 53.9-52-52m59.4 52-52.1-52m58.5 51.1-51-51.1m50.8 43.4-25.2-25.2M229.3 67l-6-6m14.3 14.3-2.4-2.3m30.7 23.2-17-17m15.6 8.1-8.2-8.1m13.1 5.7-5.7-5.7M171.9 113l-54.8-54.8m62.2 54.8-54.8-54.8m62.1 54.8-54.8-54.8m-78.4 54.9v-.1m.1 3.4 1.9-3.4m-1.2 12.6 7.2-12.6m-6 21 12-21M57 141.7 73.5 113m-14.4 35.5L79.5 113m-30.7 63.8 1.9-3.5m10.7-18.4L85.5 113m-28.6 53.1 2.8-4.6m-5 15.6 1.3-2.4m.3-.5L91.6 113m-30.9 64.1L97.6 113m-30.4 63.1 36.4-63.1m-25 54 31.1-54m-24.9 53.6.2-.3m.2-.4 30.5-52.9m-25.1 54 31.2-54m-25.7 54.9 31.7-54.9m-25.7 54.9 31.7-54.9m-25.6 54.9 31.6-54.9m-25.6 54.9 31.7-54.9m-25.7 54.9 31.7-54.9m-1 54 31.2-54m-25 53.6.3-.3m.1-.4 30.6-52.9m-29.6 61.8 2.1-3.8m.1-.1 33.5-57.9m-30.1 62.5 1.6-2.9m3.3-5.6 31.2-54M175 167l31.2-54m-25.1 54 31.1-54m-25.1 54 31.1-54m-24.4 52.8 30.4-52.8m-24 52.1 30.1-52.1m-28.4 59.5 2.1-3.5m.3-.4 32-55.6m-28.9 60.7 1.9-3.3m3-5.3 30-52.1m-24 52.1 30.1-52.1m-18.6 42.7 1.2-2m.4-.9 23-39.8m-13.5 33.9 19.5-33.9M247 146.9l19.5-33.9M253 146.9l13.6-23.6m-7.6 23.6 5.7-10m.4 10 3.2-5.7m-142 26.7 31.7-54.8m-25.7 54.8 31.7-54.8M138.9 167l30.1-54m-24 54 29.5-53.9M194.9 61h-.4l-1.8-1.9h-25.2l-.6.6V61h-.2v-1.3l-.5-.6h-8.1l-.6.6V61h-.1v-1.3l-.6-.6h-22.5l-.8-.9H95.1l-1 .9h-8.3l-.6.6v1.2H85v-1.2l-.5-.6h-8.1l-10-10H49l-.9.9v2.2l.5.6H54l.4-.6v-.8h1.9v5.9l.9.9h1.3l-.6.6v2.1l.6.6h.1v2.2h1.3v.9h1.9l1 1.5.8 1.1h.5m0 0c-6.3 14.5-9.6 30.1-9.6 45.9m212.4 0c0-9-.9-17.9-2.7-26.7m-29-14.7v1.6H231v-3.2h-.9l-.2.3m7.1 5.7.6-.6v-3.6l-.4-.2m27.1 14.7h.7l1.3-1.5h3.4v-2.1l.5-.4v-2.2l-.9-1h-31.8V77l-.5-.4m-7.7-6.5c0 .2 0 .4.1.4.2.1.3 0 .4-.1m-.5-7.2v-1.7l-.6-.5h-6.3l-1 .9v1.3h-.7v-1.3l-.8-.9h-19.6m66 39.3V84.9M61.8 72.6v-8m-1.9 13.2V64.6m-2.7 23.1V58.2M54.4 108V52.2M48.1 113V52.2m116.7 6.9h-5.4m40.9 1.9h-5.4m34.4 9.1v-2m0 0v-4.9m7.7 13.4v-.5m33.2 36.9V82.4m-35-10.7V71h.9l1.1.7m-7.9 86.4V156m-20.4 13h-2v-.9h.5v-3h12.5l.8-.9v-1.1h.7v1.1l1 .9h6.3l.6-.5v-1.7m-27 10.6.2.2h6.2l.2-.2m-43.5-2.5h-1.9v-.9h.5V167h2.2l.5-.6v-1.3h.2v1.3l.6.6h25.2l1.8-1.9h9.3v3h.5v.9h-2m-43.4 6.3.1.2h6.3l.1-.2M56.9 165.2v2.1l.6.6h-.3l-.9.9v5.9h-1.9v-.8l-.4-.6h-5.4l-.5.6v2.2l.9 1h17.4l10-10.1h8.1l.5-.6v-1.3h.2v1.3l.6.6h8.3l1 .9h38.4l.8-.9h22.5l.6-.6v-1.3h.1v1.3l.6.6h2.2v3.1h.4v.9h-1.8m71-15.3c-.1-.1-.3-.2-.4-.1-.2.1-.1.3-.1.4m7.6-6.5.5-.4v-2.2h31.8l.9-.9v-2.3l-.5-.4v-2.1h-3.4l-1.3-1.5h-.7m-26.7 13.6v-2.7l-.6-.6m-7.1 5.7.2.3h.9v-3.2h4.2v.5"/><path class="st0" d="M264.2 139.7c1.8-8.8 2.7-17.7 2.7-26.7m-213.5 0c0 15.8 3.3 31.4 9.6 45.9m0 .1h-.4l-.7 1-1.1 1.5H59v.9h-1.3v2.2m151.6 4.4h-.4m-6.6 0h-.4m-43 6.3-.4-.3m6.9.3.3-.3m0-4h-.3m-6.5 0h-.4m-14.4-4h2.7m-98.7 6.9V113m6.3 60.9v-45m2.8 39v-.2m-.3-2.5v-23.9m145.4 32.2-.4-.4m7 .4.4-.4m57-31.9v-15.4m3.9 17.9V113m-40.9 49.9v-4.8m7.7-8.1v-.5m.6 4.7v-.9m-176.8 8.2v-8m-1.8 8v-13.2m176.2 5v1.8h.9l1.5-.9M158.5 171v4m7.2 0v-4m36.2-2v4.1m7.4 0V169m15.2-3.9 4.8-8.6"/><path d="M146.6 81.5h16v11.1h-16zm-6.2 45.8h28.4v11.1h-28.4z" style="fill:#fff"/></g><g id="Dimensions_00000007419670075999130940000001523901390037858735_"><path class="st0" d="M48.6 52.8H30.4m18.2 120.5H30.4M49 49.1H14.2m34.8 128H14.2M48.1 52.2V28.5m222.1 24.8V28.5m-32.6 33V43.6m0 24.5v3.8m-8.3-10.4V13.8m85 99.2V13.8m-44.1 68.6V65.1m-.9 14.1h20.6m-20.6 67.7h20.6m-60.6-99.7h8.3"/><path class="st2" d="m234.4 69.1 7.8-10.9h5.7"/><path d="m236.1 69.1-4.3 3.6 2-5.2z"/><path class="st0" d="m313 114.4 1.3-1.4 1.3 1.4m0-2.7-1.3 1.3-1.3-1.3m65.8-36.6L383 77m0 0 56.5 26.6m-57.3-24.9-.9 2.5m-.5 1.4-.1.1m-.7 2-1.3 4.7m-.3 1.3v.3m-.3 1.3-.8 4.9m-.1 2v.2m7.4-25.6c-.9 1.6-1.7 3.2-2.4 4.9"/></g><g id="Arrows"><path class="st2" d="M34 57.1V169"/><path d="m32.6 58.1 1.4-5.4 1.5 5.4zm0 109.9 1.4 5.4 1.5-5.4z"/><path class="st2" d="M17.9 53.5v119.1"/><path d="m16.4 54.5 1.5-5.4 1.4 5.4zm0 117.1 1.5 5.4 1.4-5.4z"/><path class="st2" d="M52.5 32.2h172.4"/><path d="m53.5 33.7-5.4-1.5 5.4-1.4zm170.4 0 5.4-1.5-5.4-1.4z"/><path class="st2" d="M309.9 17.4h-76.2"/><path d="m308.9 15.9 5.4 1.5-5.4 1.4zm-74.2 0-5.4 1.5 5.4 1.4z"/><path class="st2" d="M224.9 47.2H211"/><path d="m223.9 45.8 5.4 1.4-5.4 1.4z"/><path class="st2" d="M233.7 32.2h32"/><path d="m234.7 33.7-5.4-1.5 5.4-1.4zm30 0 5.4-1.5-5.4-1.4z"/><path class="st2" d="M286.2 83.7v58.7"/><path d="m284.8 84.7 1.4-5.4 1.4 5.4zm0 56.7 1.4 5.4 1.4-5.4z"/><path class="st2" d="M241.9 47.2h13.9"/><path d="m242.9 48.6-5.4-1.4 5.4-1.4z"/><path class="st2" d="m319.3 120.4 21.1 30.5 5.3 8.6h-5.9"/><path d="m318.7 122.1-1.9-5.3 4.3 3.6z"/><path class="st2" d="m374.9 73.2-23.3-10.9"/><path d="m374.6 71.5 4.2 3.6-5.4-1z"/></g><g id="middle"><path class="st2" d="M363 103.7h14.2"/><path class="st3" d="M382.5 103.7h3.2"/><path class="st4" d="M388.4 103.7h110.7"/><path class="st2" d="M501.7 103.7h14.2m-473.1 9.4H57"/><path style="fill:none;stroke:#000;stroke-width:.2835;stroke-linecap:round;stroke-linejoin:round;stroke-dasharray:.5359,5.3587" d="M62.4 113.1h3.2"/><path style="fill:none;stroke:#000;stroke-width:.2835;stroke-linecap:round;stroke-linejoin:round;stroke-dasharray:26.7935,5.3587,.5359,5.3587" d="M68.3 113.1h187.5"/><path class="st2" d="M258.5 113.1h14.2m166.8 67v-14.2"/><path class="st3" d="M439.5 160.6v-3.2"/><path class="st4" d="M439.5 154.7V44.1"/><path class="st2" d="M439.5 41.4V27.2"/></g><g id="Text"><text transform="translate(278.941 161.406)" class="st7 st8">Sensor position</text><text transform="translate(249.24 13.415)" class="st7 st8">46.5 (in air)</text><text transform="translate(243.793 44.145)" class="st7 st8">4.5</text><text transform="translate(131.188 28.51)" class="st7 st8">99.2</text><text transform="translate(249.023 61.737)" class="st7 st8">F-mount</text><text transform="translate(242.566 28.161)" class="st7 st8">22.3</text><text transform="translate(322.978 59.376)" class="st7 st8">R34.2</text><text transform="rotate(-90.138 202.607 -80.461)" class="st7 st8">Ø 37</text><text transform="rotate(-90.138 67.53 54.292)" class="st7 st8">Ø 70</text><text transform="rotate(-90.138 81.037 50.828)" class="st7 st8">M67x0.75</text><text transform="translate(148.95 90.722)" class="st7 st8">Inf.</text><text transform="translate(144.691 136.518)" class="st7 st8">MOD</text><text transform="translate(444.62 197.583)" class="st7 st9">Not to scale</text><text transform="translate(444.444 209.332)" class="st7 st9">Dimensions in mm</text></g></svg>