<svg version="1.1" id="Ebene_1" xmlns="http://www.w3.org/2000/svg" x="0" y="0" viewBox="0 0 297 113.6" style="enable-background:new 0 0 297 113.6;background-color:#fff" xml:space="preserve"><style>.st0{fill:none}.st1{fill:#020203}.st2{font-family:Helvetica,Arial,sans-serif}.st3{font-size:7px}.st10,.st11,.st12{fill:none;stroke-miterlimit:10}.st4{stroke:#414947;stroke-width:.6763}.st4,.st5{fill:none;stroke-miterlimit:10}.st10,.st11,.st12,.st5{stroke:#020203}.st5{stroke-width:.6724}.st10,.st11,.st12{stroke-width:.7799}.st11{stroke-dasharray:6.1868,6.1868}.st12{stroke-dasharray:6.4397,6.4397}</style><path class="st0" d="M-5.3-25.6h253.1v20H-5.3v-20zM138 83.8h17.9v6H138v-6z"/><text transform="matrix(1.1336 0 0 1 137.933 88.83)" class="st1 st2 st3">2k2</text><path class="st4" d="m97.8 52.6-11.1 9.7m11.1 9.4L86.7 62"/><path class="st5" d="M160.9 78.1v-6.7"/><path class="st1" d="M156.7 78.1h8.5v16.6h-8.5V78.1z"/><path class="st4" d="M97.3 52.8h20.5M161 94.7v12M87 68.3V56.1m-32.3 6.1H87"/><path class="st1" d="m96.1 70.4-6.3-1.3 4.9-4.3 1.4 5.6z"/><path d="M129 66.9h10.8" style="fill:none;stroke:#414947;stroke-width:.724;stroke-miterlimit:10"/><path d="m139.2 69.1 3.7-2.2-3.7-2.2v4.4z" style="fill:#414947"/><path class="st1" d="M162.5 88.1c0 1.1-1 1.9-2.2 1.9s-2.2-.9-2.2-1.9c0-1.1 1-1.9 2.2-1.9s2.2.8 2.2 1.9z"/><path class="st4" d="M117.4 22.5v30.1m43-36.4v23.6"/><path d="M168.8 106.9h-16.9" style="fill:none;stroke:#414947;stroke-width:.716;stroke-miterlimit:10"/><path class="st1" d="M163.1 71.4c0 1.1-1 1.9-2.2 1.9s-2.2-.9-2.2-1.9c0-1.1 1-1.9 2.2-1.9s2.2.8 2.2 1.9zm-43.5-48.9c0 1.1-1 1.9-2.2 1.9s-2.2-.9-2.2-1.9c0-1.1 1-1.9 2.2-1.9 1.2-.1 2.2.8 2.2 1.9zm42.8-5.8c0 1.1-1 1.9-2.2 1.9s-2.2-.9-2.2-1.9c0-1.1 1-1.9 2.2-1.9 1.2-.1 2.2.8 2.2 1.9z"/><path class="st4" d="M160.4 39.4h33.3"/><path class="st5" d="M97.8 71.4h95.1M179 88h13.8"/><path d="M192.9 32.6h98.4v61.1h-98.4V32.6z" style="fill:none;stroke:#414947;stroke-width:.7;stroke-miterlimit:10"/><path class="st1" d="M195 39.3c0 1.1-1 1.9-2.2 1.9s-2.2-.9-2.2-1.9c0-1.1 1-1.9 2.2-1.9s2.2.8 2.2 1.9zm0 16.2c0 1.1-1 1.9-2.2 1.9s-2.2-.9-2.2-1.9c0-1.1 1-1.9 2.2-1.9 1.2-.1 2.2.8 2.2 1.9zm0 15.9c0 1.1-1 1.9-2.2 1.9s-2.2-.9-2.2-1.9c0-1.1 1-1.9 2.2-1.9s2.2.8 2.2 1.9zm0 16.6c0 1.1-1 1.9-2.2 1.9s-2.2-.9-2.2-1.9c0-1.1 1-1.9 2.2-1.9 1.2-.1 2.2.8 2.2 1.9z"/><path class="st0" d="M198 36.2h85.8v59.3H198V36.2z"/><text transform="matrix(1.1336 0 0 1 197.947 41.267)" class="st1 st2 st3">1 Power</text><text transform="matrix(1.1336 0 0 1 197.947 57.267)" class="st1 st2 st3">2 LED (+)</text><text transform="matrix(1.1336 0 0 1 197.947 73.368)" class="st1 st2 st3">3 Trigger source</text><text transform="matrix(1.1336 0 0 1 197.947 89.368)" class="st1 st2 st3">4 Ground / LED (-)</text><path class="st0" d="M101.7 6.5H133V16h-31.3V6.5z"/><text transform="matrix(1.1336 0 0 1 101.613 11.57)" class="st1 st2 st3">24 VDC</text><path class="st0" d="M151.5 5.2h31.3v9.5h-31.3V5.2z"/><text transform="matrix(1.1336 0 0 1 151.475 10.214)" class="st1 st2 st3">24 VDC</text><path class="st0" d="M124.9 57.1h26.6V68h-26.6V57.1z"/><text transform="matrix(1.1336 0 0 1 124.856 62.118)" class="st1 st2 st3">10 mA</text><path class="st0" d="M9.9 33.3h84.2v15.2H9.9V33.3z"/><text transform="matrix(1.1336 0 0 1 9.875 38.342)" class="st1 st2 st3">From camera</text><path class="st10" d="M105.6 89.6v3h-3"/><path class="st11" d="M96.5 92.6H12.9"/><path class="st10" d="M9.8 92.6h-3v-3"/><path class="st12" d="M6.8 83.2V34.9"/><path class="st10" d="M6.8 31.7v-3h3"/><path class="st11" d="M16 28.7h83.6"/><path class="st10" d="M102.6 28.7h3v3"/><path class="st12" d="M105.6 38.1v48.3"/><path d="M179 87.7v13.1" style="fill:none;stroke:#414947;stroke-width:.705;stroke-miterlimit:10"/><path d="M160.9 100.5H179" style="fill:none;stroke:#414947;stroke-width:.674;stroke-miterlimit:10"/><path class="st1" d="M163.2 100.5c0 1.1-1 1.9-2.2 1.9s-2.2-.9-2.2-1.9c0-1.1 1-1.9 2.2-1.9s2.2.9 2.2 1.9z"/><text transform="matrix(1.1336 0 0 1 257.393 39.4)" class="st1 st2 st3">Standard </text><text transform="matrix(1.1336 0 0 1 257.393 47.8)" class="st1 st2 st3">Light</text></svg>