<svg xmlns="http://www.w3.org/2000/svg" viewBox="0 0 552.8 552.8" style="enable-background:new 0 0 552.8 552.8;background-color:#fff" xml:space="preserve"><style>.st0{stroke-width:.4252;stroke-miterlimit:10}.st0,.st1,.st2,.st5,.st9{fill:none;stroke:#000;stroke-linecap:round;stroke-linejoin:round}.st1{stroke-width:.283;stroke-miterlimit:10}.st2,.st5,.st9{stroke-width:.2835}.st5{stroke-dasharray:8.1416}.st9{stroke-dasharray:.7015,3.5074}.st16{font-family:Helvetica,Arial,sans-serif}.st17{font-size:9px}.st18{font-size:8.9999px}.st19{font-size:14px}</style><g id="BCLB-10x100"><path class="st0" d="M56.1 19.9v124.7h0c0 6.6 5.3 11.9 11.9 11.9h283.4c6.6 0 11.8-5.3 11.8-11.9V19.9c0-6.6-5.3-11.9-11.9-11.9H68.1c-6.6 0-12 5.3-12 11.9"/><path class="st0" d="M351.5 5.7H68.1c-7.8 0-14.2 6.3-14.2 14.2h0v124.7h0c0 7.8 6.3 14.2 14.2 14.2h283.4c7.8 0 14.2-6.3 14.2-14.2v0V19.9v0c0-7.9-6.3-14.2-14.2-14.2h0z"/><path class="st0" d="M354.4 15.7H65.2v133.1h289.2V15.7m-2.8 252.2h14.2m-312 0h297.8m0 65.2h14.2v-65.2m-14.2 65.2v-65.2M312 297.7c0-1.6-1.3-3-3-3-1.6 0-3 1.3-3 3s1.3 3 3 3c1.6 0 3-1.3 3-3m-198.4 0c0-1.6-1.3-3-3-3-1.6 0-3 1.3-3 3s1.3 3 3 3 3-1.3 3-3m238 35.4H68.1m0-65.2v65.2m-14.3-65.2v65.2h14.3m283 43.9c-2.5 0-4.6 2.1-4.6 4.6 0 2.5 2.1 4.6 4.6 4.6 2.5 0 4.6-2.1 4.6-4.6 0-2.5-2.1-4.6-4.6-4.6m-283.3 0c-2.5 0-4.6 2.1-4.6 4.6 0 2.5 2.1 4.6 4.6 4.6 2.5 0 4.6-2.1 4.6-4.6 0-2.5-2.1-4.6-4.6-4.6m0 124.8c-2.5 0-4.6 2.1-4.6 4.6 0 2.5 2.1 4.6 4.6 4.6 2.5 0 4.6-2.1 4.6-4.6 0-2.6-2.1-4.6-4.6-4.6m283.3 0c-2.5 0-4.6 2.1-4.6 4.6 0 2.5 2.1 4.6 4.6 4.6 2.5 0 4.6-2.1 4.6-4.6 0-2.6-2.1-4.6-4.6-4.6m.1 18.9c7.8 0 14.2-6.4 14.2-14.2m0-.1V381.7m-.2-.1c0-7.8-6.3-14.1-14.1-14.1m.1 0H67.7m0 0c-7.8 0-14.2 6.4-14.2 14.2m0 0v124.7m.1 0c0 7.8 6.3 14.1 14.1 14.1m0 .2h283.5m11-117.7c0-6.1-5-11.1-11.1-11.1m0 104.3c6.1 0 11.1-5 11.1-11.1M67.8 392c-6.1 0-11.1 5-11.1 11.1m0 82.1v-82.3m0 82.2c0 6.1 5 11.1 11.1 11.1m283.4 0H67.7m294.5-93.3v82.3M67.7 392h283.5m98.7-233.3V5.7h65.2v14m0 0h-65.2"/><path class="st0" d="M475.4 26.6c-2.5 0-4.6 2.1-4.6 4.6 0 2.5 2.1 4.6 4.6 4.6 2.5 0 4.6-2.1 4.6-4.6 0-2.6-2.1-4.6-4.6-4.6m0 102c-2.5 0-4.6 2.1-4.6 4.6 0 2.5 2.1 4.6 4.6 4.6 2.5 0 4.6-2.1 4.6-4.6 0-2.5-2.1-4.6-4.6-4.6m39.7-108.9v124.8m-65.2 0h65.2m-65.2 14.2h65.2v-14.2m-65.5-77.8h0-4.9m0 6.5-.3-3.3.3-3.2m0 6.5h5.2m0 2.5h-5.2v-2.5m0 15.6-.3-6.6.3-6.5m0 13.1h5.2m-5.2 0v2.6h5.2m-5.2 6.4-.3-3.2.3-3.2m0 6.4h4.9m-22.5-24.3V91m3.6-18.6v19.7m2.1-19.1v18.5m2.9-18.5v18.5m2-20.7v22.7m2.9-22.7v22.7m2.1-20.5v18.5m7.2-24.8h-5.2m5.2 31.1h-5.2M427.6 73c-.3.1-.5.3-.5.6m0 17.3c0 .3.2.6.5.6m0-18.5 3.1-.6m-3.1 19.1 3.1.6h1.4m0-19.7h-1.4m2.1 19.1-.7.6m.7-19.1-.7-.6m3.6 19.1h-2.9m4.9-20.7-2 2.2h-2.9m2.9 18.5 2 2h2.9m0-22.7h-2.9m5 20.7-2.1 2m2.1-20.5-2.1-2.2m3 2.2h-.9m.9 0c.3 0 .6-.3.6-.6l.1-2.4m-1.6 21.5h.9c.3 0 .6.3.6.6l.1 2.4M126.7 267.2h0v-4.9m-6.5 0 3.2-.3 3.3.3m-6.5 0v5.2m-2.5 0v-5.2h2.5m-15.7 0 6.7-.3 6.5.3m-13.2 0v5.2m0-5.2H102v5.2m-6.5-5.2 3.3-.3 3.2.3m-6.5 0h0v4.9m24.3-22.5h-17.4m18.5 3.6h-19.6m19.1 2.1h-18.6m18.6 2.9h-18.6m20.7 2H99.8m22.7 2.9H99.8m20.6 2.1h-18.6m24.9 7.2v-5.2m-31.2 5.2v-5.2m24.9-17.1c-.1-.3-.3-.5-.6-.5m-17.4 0c-.3 0-.6.2-.6.5m18.6 0 .5 3.1m-19.1-3.1-.5 3.1v1.4m19.6 0v-1.4m-19.1 2.1-.5-.7m19.1.7.5-.7m-19.1 3.6v-2.9m20.7 4.9-2.1-2v-2.9m-18.6 2.9-2 2v2.9m22.7 0v-2.9m-20.7 5-2-2.1m20.6 2.1 2.1-2.1m-2.1 3v-.9m0 .9c0 .3.3.6.6.6l2.4.1m-21.6-1.6v.9c0 .3-.3.6-.6.6l-2.4.1"/></g><g id="Dimensions"><path class="st1" d="M515.1 158.7h17.6m-57.3-25.5h57.3m-57.3-102h57.3m-57.3 102v42.3"/><path class="st2" d="M510 188.5h-55.1"/><path d="m508.9 186.9 6.2 1.6-6.2 1.7zm-52.9 0-6.2 1.6 6.2 1.7z"/><path class="st2" d="M510 172.9h-29.4"/><path d="m508.9 171.3 6.2 1.6-6.2 1.7zm-27.2 0-6.1 1.6 6.1 1.7z"/><path class="st2" d="M532 138.3v15.4"/><path d="m530.4 139.4 1.6-6.2 1.7 6.2zm0 13.2 1.6 6.1 1.7-6.1z"/><path class="st2" d="M532 36.2v92"/><path d="m530.4 37.3 1.6-6.1 1.7 6.1zm0 89.8 1.6 6.1 1.7-6.1z"/><path class="st1" d="M415.9 158.7h34m-34-76.6h23.9"/><path class="st2" d="M417.9 87.1v66.6"/><path d="m416.3 88.3 1.6-6.2 1.7 6.2zm0 64.3 1.6 6.1 1.7-6.1z"/><path class="st1" d="M449.8 151.7v39.7m65.3-39.7v39.7M68.6 158.8H29.2"/><path class="st2" d="M33.2 153.7V10.8"/><path d="m34.9 152.6-1.7 6.1-1.6-6.1zm0-140.7-1.7-6.2-1.6 6.2z"/><path class="st1" d="M67.8 506.4H29.2m38.6 35.5H53.1m14.2-160.3H29.2"/><path class="st2" d="M32.3 501.6V386.5"/><path d="m33.9 500.5-1.6 6.2-1.7-6.2zm0-112.8-1.6-6.2-1.7 6.2z"/><path class="st1" d="M87.8 5.8H29.5m295.5 207-60.5-89.1"/><path class="st2" d="m466.5 35.6-22.1 11.8h-63"/><path d="m464.8 34.7 6.2-1.5-4.7 4.4z"/><path class="st2" d="m303.8 292-32.5-36.3H200"/><path d="m304.3 290.1 2.9 5.6-5.3-3.4z"/><path class="st2" d="m358.1 374.9 15.6-15.5h72.7"/><path d="m360.1 375.3-5.5 3.2 3.2-5.6z"/><path class="st1" d="M365.9 144.9v33.6m-312-34.1v34.2m0 154.5v18.1"/><path class="st2" d="M360.8 175.5H58.9"/><path d="m359.7 173.9 6.2 1.6-6.2 1.7zm-299.7 0-6.1 1.6 6.1 1.7z"/><path class="st1" d="M309 297.3v54.8m-198.4-54.7v54.9"/><path class="st2" d="M105.6 349.2H58.7"/><path d="m104.5 347.5 6.1 1.7-6.1 1.6zm-44.6 0-6.2 1.7 6.2 1.6z"/><path class="st2" d="M304.4 349.2H115.6"/><path d="m303.2 347.5 6.2 1.7-6.2 1.6zm-186.5 0-6.1 1.7 6.1 1.6z"/><path class="st1" d="M53.6 506.2V545m297.5-38.7v38.6M67.8 506.3V545"/><path class="st2" d="M48.1 541.9H36.7"/><path d="m47 540.3 6.1 1.6-6.1 1.7z"/><path class="st1" d="M32.4 506.3V521m35.7-.2H29.3"/><path class="st2" d="M32.4 526v11.4"/><path d="m30.7 527.1 1.7-6.1 1.6 6.1z"/><path class="st2" d="M346 541.9H73.1"/><path d="m344.9 540.3 6.2 1.6-6.2 1.7zm-270.7 0-6.2 1.6 6.2 1.7z"/><path class="st1" d="M111.1 297.8H32.6m21.3 35.3H17"/><path class="st2" d="M33.2 328v-25.1"/><path d="m34.9 326.8-1.7 6.2-1.6-6.2zm0-22.8-1.7-6.1-1.6 6.1z"/><path class="st1" d="M102 244.6H17m36.9 23.3H32.6"/><path class="st2" d="M33.2 262.8v-13.1"/><path d="m34.9 261.6-1.7 6.2-1.6-6.2zm0-10.7-1.7-6.2-1.6 6.2z"/><path class="st2" d="M18.1 327.5v-77.8"/><path d="m19.8 326.4-1.7 6.1-1.6-6.1zm0-75.5-1.7-6.2-1.6 6.2z"/><path class="st1" d="M53.8 268v-61m56.8 21.3V207"/><path class="st2" d="M105.4 208.1H59"/><path d="m104.3 206.5 6.1 1.6-6.1 1.7zm-44.1 0-6.2 1.6 6.2 1.7z"/></g><g id="Middle_Lines"><path class="st2" d="M110.6 228.3v4.3"/><path style="fill:none;stroke:#000;stroke-width:.2835;stroke-linecap:round;stroke-linejoin:round;stroke-dasharray:.5603,2.8014" d="M110.6 235.4v1.9"/><path style="fill:none;stroke:#000;stroke-width:.2835;stroke-linecap:round;stroke-linejoin:round;stroke-dasharray:8.4043,2.8014,.5603,2.8014" d="M110.6 238.7v27.8"/><path class="st2" d="M110.6 267.9v4.2"/><path class="st5" d="M110.6 297.8v-8.1"/><path style="fill:none;stroke:#000;stroke-width:.2835;stroke-linecap:round;stroke-linejoin:round;stroke-dasharray:8.1871" d="M118.7 297.8h-8.1"/><path style="fill:none;stroke:#000;stroke-width:.2835;stroke-linecap:round;stroke-linejoin:round;stroke-dasharray:5.7982" d="M308.9 297.8V292"/><path class="st2" d="M303.6 297.8h4.2"/><path style="fill:none;stroke:#000;stroke-width:.2835;stroke-linecap:round;stroke-linejoin:round;stroke-dasharray:.2153,1.0763" d="M308.9 297.8h.7"/><path class="st2" d="M310.2 297.8h4.2"/><path class="st5" d="M67.3 381.5h8.1"/><path class="st2" d="M67.3 389.6v-4.2"/><path class="st9" d="M67.3 381.9v-2.5"/><path class="st2" d="M67.3 377.6v-4.2m283.8 16.2v-4.2"/><path class="st9" d="M351.1 381.9v-2.5"/><path class="st2" d="M351.1 377.6v-4.2m8.1 8.1h-4.3"/><path class="st9" d="M351.4 381.5H349"/><path class="st2" d="M347.2 381.5H343"/><path style="fill:none;stroke:#000;stroke-width:.2835;stroke-linecap:round;stroke-linejoin:round;stroke-dasharray:8.2202" d="M351.1 506.3v-8.2"/><path class="st2" d="M359.2 506.2h-4.3"/><path class="st9" d="M351.4 506.2H349"/><path class="st2" d="M347.2 506.2H343"/><path class="st5" d="M67.7 506.3h8.1"/><path class="st2" d="M67.7 506.4v-4.3"/><path style="fill:none;stroke:#000;stroke-width:.2835;stroke-linecap:round;stroke-linejoin:round;stroke-dasharray:0,3.740046e-02" d="M67.7 502.1v-.1"/><path class="st2" d="M67.7 502v-4.2M475.4 39.3V35"/><path class="st9" d="M475.4 31.5v-2.4"/><path class="st2" d="M475.4 27.3v-4.2"/><path style="fill:none;stroke:#000;stroke-width:.2835;stroke-linecap:round;stroke-linejoin:round;stroke-dasharray:8.1102" d="M475.4 31.2h-8.1"/><path style="fill:none;stroke:#000;stroke-width:.2835;stroke-linecap:round;stroke-linejoin:round;stroke-dasharray:8.1196" d="M475.5 133.2v-8.1"/><path style="fill:none;stroke:#000;stroke-width:.2835;stroke-linecap:round;stroke-linejoin:round;stroke-dasharray:8.0273" d="M475.4 133.2h-8"/><path class="st2" d="M439.8 82.1h4.3"/><path style="fill:none;stroke:#000;stroke-width:.2835;stroke-linecap:round;stroke-linejoin:round;stroke-dasharray:.632,3.1599" d="M447.2 82.1h2.2"/><path class="st2" d="M451 82.1h4.3"/></g><g id="Text_1_"><text transform="rotate(-90 266.439 -145.724)" class="st16 st17">27</text><text transform="rotate(-90 338.328 -189.867)" class="st16 st18">9</text><text transform="rotate(-90 307.697 -220.499)" class="st16 st18">36</text><text transform="translate(490.283 169.798)" class="st16 st18">14</text><text transform="translate(478.957 185.654)" class="st16 st18">23</text><text transform="rotate(-90 57.615 27.068)" class="st16 st18">54</text><text transform="translate(330.11 219.661)" class="st16 st17">45 x 100 (Luminous area)</text><text transform="translate(200.952 251.123)" class="st16 st17">4 × M2.5, 5 deep</text><text transform="translate(382.026 43.593)" class="st16 st17">4 × M4, 5 deep</text><text transform="translate(376.126 354.621)" class="st16 st17">4 × M4, 7.3 deep</text><text transform="translate(190.122 346.355)" class="st16 st17">70</text><text transform="translate(77.149 346.355)" class="st16 st17">20</text><text transform="translate(193.977 173.027)" class="st16 st17">110</text><text transform="translate(77.149 203.08)" class="st16 st17">20</text><text transform="rotate(-90 144.65 114.103)" class="st16 st18">8</text><text transform="rotate(-90 157.455 143.628)" class="st16 st18">(30.8)</text><text transform="rotate(-90 177.363 146.816)" class="st16 st18">12.5</text><text transform="rotate(-90 239.804 209.257)" class="st16 st18">44</text><text transform="rotate(-90 273.226 242.679)" class="st16 st18">5</text><text transform="translate(58.29 538.442)" class="st16 st18">5</text><text transform="translate(187.785 538.442)" class="st16 st18">100</text><path class="st0" d="M112.7 440.1c-.7 0-1.3-.6-1.3-1.3 0-.7.6-1.3 1.3-1.3.7 0 1.3.6 1.3 1.3-.1.8-.6 1.3-1.3 1.3m0 10.8c-.7 0-1.3-.6-1.3-1.3s.6-1.3 1.3-1.3c.7 0 1.3.6 1.3 1.3s-.6 1.3-1.3 1.3m-6.5-9c-.7 0-1.3-.6-1.3-1.3s.6-1.3 1.3-1.3c.7 0 1.3.6 1.3 1.3s-.6 1.3-1.3 1.3m0 6.9c-.7 0-1.3-.6-1.3-1.3s.6-1.3 1.3-1.3c.7 0 1.3.6 1.3 1.3s-.6 1.3-1.3 1.3"/><path class="st0" d="M110.9 452.4c-4.5 0-8.1-3.6-8.1-8.1s3.6-8.1 8.1-8.1 8.1 3.6 8.1 8.1c0 4.4-3.7 8.1-8.1 8.1"/><path class="st0" d="M120.8 444.3c0 5.5-4.4 9.9-9.9 9.9s-9.9-4.4-9.9-9.9 4.4-9.9 9.9-9.9c5.4 0 9.9 4.4 9.9 9.9"/><path class="st0" d="M122.2 444.3c0 6.3-5.1 11.3-11.3 11.3-6.3 0-11.3-5.1-11.3-11.3 0-6.3 5.1-11.3 11.3-11.3 6.2-.1 11.3 5 11.3 11.3"/><path class="st0" d="M110.9 431.5c7.1 0 12.8 5.7 12.8 12.8 0 7.1-5.7 12.8-12.8 12.8-7.1 0-12.8-5.7-12.8-12.8 0-7.1 5.7-12.8 12.8-12.8m6.3 26.6h-13m0 0c-.9-.4-1.7-.9-2.5-1.4m0 0-6.5-11.2m0 0c-.1-1-.1-1.9 0-2.9m6.5-11.1-6.5 11.1m6.5-11.1c.8-.6 1.8-1 2.7-1.5m12.8 0h-12.9m12.9 0c.9.4 1.7.9 2.5 1.4"/><path class="st0" d="m119.7 456.7 6.5-11.2v-2.9l-6.5-11.1m0 25.2c-.8.6-1.6 1-2.5 1.4"/><text transform="rotate(.796 -37839.047 31267.512)" class="st16 st19">Not to scale</text><text transform="translate(430.524 545.728)" class="st16 st19">Dimensions in mm</text></g></svg>