<svg xmlns="http://www.w3.org/2000/svg" viewBox="0 0 524.4 198.4" style="enable-background:new 0 0 524.4 198.4;background-color:#fff" xml:space="preserve"><style>.st0{stroke-miterlimit:10}.st0,.st1,.st2,.st3{fill:none;stroke:#000;stroke-width:.2835;stroke-linecap:round;stroke-linejoin:round}.st2{stroke-dasharray:.5243,5.243}.st3{stroke-dasharray:26.215,5.243,.5243,5.243}.st6{font-family:Helvetica,Arial,sans-serif}.st7{font-size:8.9176px}.st8{font-size:8.9175px}.st9{font-size:9.1477px}</style><g id="Lens_neu"><path class="st0" d="m54.7 111.7-2.3-2.3m9.6 2.3-9.5-9.6m16.9 9.6L52.5 94.9m24.1 16.8-24-23.9m31.3 23.9-31-31.2m38.4 31.2L52.7 73.2m45.8 38.5-45.9-46m53.2 46L52.6 58.4m60.6 53.3L52.6 51.2m-.4-.5-2.3-2.3m70.5 63.3L64.9 56.1m62.8 55.6L72.2 56.1m62.7 55.6L78.5 55.2m63.8 56.5L85.9 55.2m85.6 56.5-56.4-56.5m63.6 56.5-56.4-56.5m63.8 56.5-56.4-56.5m63.7 56.5-56.5-56.5m63.7 56.5-56.4-56.5m63.8 56.5-56.4-56.5m63.6 56.5-55.5-55.6m62.8 55.6-55.4-55.6m62.8 55.6-55.6-55.6m62.8 55.6-55.5-55.5m3.9 1.4-1.5-1.5m60.4 55.6L189 56.1m62.8 55.6-55.6-55.6m62.8 55.6L205.3 58m53.7 46.4-29-29.1m-.2-.1-14.9-15m-4.3-4.3-5.1-5.1m53.4 46.1-21.4-21.4m-1.2-1.2-2.2-2.1m-5.9-6-6-6m-9.9-9.8-1.2-1.3m47.7 40.4-16.4-16.4m16.1 8.8-8.8-8.8m11.3 4-4.1-4m-107.3 38.6-20-20m-7.3-7.4L93.2 55.2m63.6 56.5-18.6-18.8m-11.7-11.6-26.1-26.1m63.8 56.5-24.6-24.6m-6.5-6.5-25.3-25.4M52.6 156.1l.8-1.5m-6.4 18 .8-1.4m0 3.6 2-3.6m2.8-4.8 6.8-11.8m-5.7 20.3 11.7-20.3m21.7-37.7 3-5.2m-28.8 56.7 1.1-1.6m1.6.4 7.3-12.6m15.8-27.5 9-15.4m-26.2 55.5 7.4-12.6m10.1-17.4 14.6-25.5m-26.1 55.5 7.3-12.6m4.4-7.4 20.4-35.5m-26.6 56.4 32.6-56.4m-26.6 56.4 32.5-56.4m-26.6 56.4 32.6-56.4m-26.6 56.4 32.6-56.4m-26.6 56.4 32.5-56.4m-26.6 56.4 32.6-56.4m9.5 24.8 14.3-24.8m-32.7 56.4 11.7-20m-5.7 20 32.7-56.4m-26.7 56.4 32.6-56.4m-26.2 55.7 32.1-55.7m-26 55.5 32-55.5m-26.1 55.5 32-55.5m-26 55.5 32-55.5m-26 55.5 31.9-55.5m-30.9 64 4.5-7.8m.4-.7 32-55.5m-26 55.5 32-55.5m-26.1 55.5 32-55.5m-25 53.7 31-53.7m-25 53.7 31-53.7M212 165.4l.7-1.3m2.6-1 29.7-51.4m-23.7 51.4 8.6-14.9m.1-.1 21-36.4m-23.8 51.4 1-1.6m5.9-10.2 1.7-3m.6-1 20.5-35.6m-16.2 38.5 18.3-31.8m-12.4 31.8 12.3-21.3m-6.3 21.3 5.9-10.4m0 10.4 2.3-4m-143.6 21.9 13.3-23.2m5.9-10.2 13.3-23m-26.6 56.4 11.8-20.5m7.1-12.3 13.7-23.6m-26.6 56.4 11.6-20.1m7.2-12.7 13.8-23.6m71.2-39.9-.4-.2-.4-.1-.5.1-.5.2"/><path class="st0" d="m232.9 71.8.1.5v.1h-1.9v-.6m-47.4-15.6h-5.4v-.1H177l-.5.6v1h-.3v-1l-.4-.6h-22.3l-.9-.9H78.5l-.9.9H63.1l-.6.6v1.1h-.1v-1.7l-6.3-7.7h-8.2l-.9 1v2.1l.6.6h2.6l.6-.6v-.8h1.8l.1 23m0 6-.2 12.8-.1 19.2m206.7 0-.2-17.1-.6-17"/><path class="st0" d="M258.3 77.6h.8l3.2-.7v-1.7h-.1l.1-.2v-.7l-1.2-1.2h-21.6l-.6.6v1.5h-1.2l-.5.4v.5H236v-.5l-.4-.3h-9.5v-1.4l1.1 1.3h8.5l.6-.6V71l-.3-.2h-1.9v1.6h-4.3v-3.1h-.7l-.3.2"/><path class="st0" d="M228.2 69.2c0 .2.1.3.2.4.1.1.3 0 .4-.1m-23.3-15.9h1.9v.9h-.4V58h-4.9l-1.8-1.9h-14.1l-.6.6v1h-.1v-1l-.6-.6h-1.2v.1m28.6-6.5-.4-.6h-6.2m22.5 13.3v-1.7l-.6-.5h-6.3l-.9 1v.2h-.6v-.7l-.6-.5h-6.5v-1.7l-.5-.5h-1.6v-3.5h-.4v-.9h1.8m22.8 16.5 1.2.7m.3 5.3v-1.5m26 37.1v-.9m0-35.6V75m0 35.8V76.9m0 33.9h-1.1v.9m-208.5-32v-6m-1.9 38V51.5M47 111.7V51.5m158.2-1.8.5-.6m22.5 20.1v-6.8m5.9 8.4v-.7h.7m-29.6-20.4v3.9h.3m6.5 0h.3v-3.9m15.9 106.5v-2.1m-20.6 11.3h4.6l.5-.6v-1.7h6.5l.6-.5v-1h.6v.7l.9.8h6.3l.6-.5V161m.5-7.2c-.1-.1-.2-.1-.3-.1-.1.1-.2.2-.2.4m34.1-5.9v-1.6l-3.2-.8h-.8m-29.6 8 .4.3h.7v-3.2h4.3v.5h2.2v-2.6l-.6-.6h-8.5l-1.3 1.4v-1.5h9.7l.4-.4v-.4h1.2v.4l.5.5h1.2v1.5l.6.5h21.6l1.2-1.2v-.7"/><path class="st0" d="m258.3 145.8.6-17.1.2-17m-172.1 0 .5 38m96.8 21.4h-2v-.8h.5v-3.1h2.1l.6-.6v-.8h.1v.8l.6.6h14.1l1.8-1.8h.2m-24.7 10.1.3.2h6.1m-96.5-26-1.5 3.2v.3h1.1v1.3h.3v.1h-34l-.8.8v17.2h-1.8v-.8l-.6-.6h-2.6l-.6.6v2.2l.9.9h8.2l6.3-7.7V165h.1v1.6l.6.6h14.5l.9.9h74.1l.9-.9h22.3l.4-.6v-.8h.3v.8l.5.6h2.2v3.1h.3v.8h-1.9M86 152.9v-41.2m0 42.4v-.9m176.3-6.6v-34.1h-1.1v-.8m1.1 36.6v-.1m0-35.7v-.8m-35.1 36.5v-.1m9.1.7v-1.5m0 5v-.9m-2.2 1.8v-1.8m-5.9 9.6v-4.8m-25.9 9.2h1.7l1-.1 1 .1h1.6m-30 10.1-.2-.4m6.6.6.5-.6m-20.2-7.9h2.8m-4.7 0h0M47 171.8v-60.1m40.1 42.8h-.8m-33.7.9v-43.7m33.7 42.8-.3-.4m-35.2 17.7v-60.1m183.3 41.5h.7l1.5-.9m-73.9 14.9h0"/><path class="st0" d="M177.6 171.1h-.2v4m7.1 0v-4h-.2m296.4-69-.2-3.7m-1 .8s0 0 0 0m1-.8c0-.2-.2-.4-.4-.4m-.6.1h.6m-.5 0s-.1 0 0 0m-5.3 46.6c3-2.4 5.8-5.2 8.3-8.3m2.3-31.5c1.1.5 2.5.2 3.3-.8.8-1 .8-2.4 0-3.3-.8-1-2.1-1.3-3.3-.8m0 0c-.9.4-1.5 1.4-1.5 2.4s.6 2 1.5 2.4"/><path class="st0" d="M442.2 151.7c26.8-1 47.9-23.3 47.4-50.1s-22.4-48.3-49.2-48.3m1.9 100v-1.6"/><path class="st0" d="M484.9 100c-1.3-23.6-20.8-42.1-44.5-42.1m0 89.1c23.6 0 43.2-18.5 44.5-42.1m-42.7 43.9c0-1-.8-1.8-1.8-1.8"/><path class="st0" d="M457.2 64.5c-5.3-2.3-11-3.6-16.8-3.6m16.7 4.4.2-.8m-16.9 75.1c20.5 0 37.1-16.6 37.1-37.1s-16.6-37.1-37.1-37.1"/><path class="st0" d="M440.4 141.8c7.6 0 15-2.2 21.4-6.3m2.5-.2c-.7-.5-1.7-.5-2.4 0m17.8-34.9c0 .9.6 1.7 1.4 2m-1.5-2c-.7-14-8.9-26.6-21.4-32.9m-1.1-2.2c0 .9.4 1.7 1.2 2.1m-16 86.5v-.6m-1.9.6h1.8m-1.8-7v.1m1.9 1.9v2.8m-1.9-22.9c14.5 0 26.3-11.8 26.3-26.3s-11.8-26.3-26.3-26.3m.9-1.5h-.9m0 55.6h.9"/><path class="st0" d="M441.3 130.3c15-.5 26.9-12.8 26.9-27.8s-11.9-27.3-26.9-27.8m0-2h-.9m0 59.5h.9"/><path class="st0" d="M441.3 132.3c16.1-.5 29-13.7 29-29.9 0-16.1-12.8-29.4-29-29.9"/><path class="st0" d="M440.4 135c18 0 32.5-14.5 32.5-32.5S458.4 70 440.4 70"/><path class="st0" d="M440.4 155.7c29.4 0 53.3-23.8 53.3-53.3 0-29.4-23.8-53.3-53.3-53.3m5.8-.5c-1.9-.2-3.9-.3-5.8-.3m0 108.4c2 0 3.9-.1 5.8-.3"/><path class="st0" d="m446.3 156.3.3-.6.8-.4.8.2.5.5"/><path class="st0" d="M448.7 156c3.9-.6 7.6-1.6 11.3-3m.1 0 .2-.7.6-.6.8-.1.6.4"/><path class="st0" d="M462.3 152c3.6-1.6 7-3.5 10.1-5.8m0-.1v-.7l.5-.7.8-.2.7.1m8.2-8.2-.1-.7.3-.8.6-.5h.7m0 .1c2.3-3.2 4.3-6.5 5.8-10.1m.1-.1-.4-.7.1-.8.6-.5.6-.3m0 .1c1.4-3.6 2.4-7.4 3-11.3m.1-.1-.5-.5-.2-.8.3-.8.7-.3m-.1 0c.4-3.9.4-7.8 0-11.7m.1 0-.7-.4-.3-.8.2-.8.5-.4m-.1 0c-.6-3.9-1.6-7.6-3-11.3m0-.1-.6-.1-.6-.7-.1-.8.4-.7"/><path class="st0" d="M490 80.6c-1.6-3.6-3.5-7-5.8-10.1m-.1-.1h-.7l-.6-.4-.3-.8.1-.7m0 0c-2.4-3-5.2-5.8-8.3-8.3"/><path class="st0" d="m474.4 60.2-.7.1-.8-.2-.5-.7v-.7m0 .1c-3.2-2.3-6.5-4.3-10.1-5.8m0-.1-.6.3-.8-.1-.6-.5-.2-.6m-.1 0c-3.6-1.4-7.4-2.4-11.3-3m0-.1-.5.4-.8.3-.8-.4-.3-.7"/><path class="st0" d="M440.4 164c34 0 61.6-27.6 61.6-61.6s-27.6-61.6-61.6-61.6m23.9 94.5.6.7"/><path class="st0" d="M464.9 136.1c10.7-7.8 17-20.2 17.1-33.5m-.9-.2.9.1m4.3.4v1h-.5v-1m0-.1c0-.1-.1-.2-.2-.2m0 .1h-1.1v-.5h1.1m.1 0c.1 0 .2-.1.2-.2"/><path class="st0" d="M485.8 102.1v-1.2h.5v1.2m0-.1c0 .1.1.2.2.2m-.1 0h1.2v.5h-1.2m.1 0c-.1 0-.2.1-.2.2m-44.9-28.2v-2.1m0 59.7v-2.1M386 104.3v-3.7m-5.4 4.9v-6.2m-2 6.2v-6.2m19.6 37.1c2.4 3 5.2 5.8 8.3 8.3m13.9-82c-.1-1.2-1.1-2.3-2.3-2.4-1.2-.2-2.4.5-2.9 1.7s-.1 2.5 1 3.2"/><path class="st0" d="M416.1 65.1c.9.6 2 .6 2.9.1.9-.5 1.4-1.5 1.3-2.6m-4.2 77.1c-1 .7-1.4 2-1 3.2s1.7 1.9 2.9 1.7c1.2-.2 2.2-1.2 2.3-2.4m.1 0c.1-1-.4-2-1.3-2.6-.9-.5-2-.5-2.9.1m24.2-63.5c-14.5 0-26.3 11.8-26.3 26.3s11.8 26.3 26.3 26.3m0-54.1h-.9m0 55.6h.9"/><path class="st0" d="M439.5 74.7c-15 .5-26.9 12.8-26.9 27.8s11.9 27.3 26.9 27.8m.9-57.6h-.9m0 59.5h.9"/><path class="st0" d="M439.5 72.6c-16.1.5-29 13.7-29 29.9s12.8 29.4 29 29.9"/><path class="st0" d="M440.4 70c-18 0-32.5 14.6-32.5 32.5 0 18 14.6 32.5 32.5 32.5"/><path class="st0" d="M440.4 53.2c-26.8 0-48.7 21.5-49.2 48.3-.5 26.8 20.6 49.1 47.4 50.1m0 .1v1.6"/><path class="st0" d="M420.3 142.2c6.2 3.2 13.1 4.8 20.1 4.8m0-89.1c-7 0-13.9 1.6-20.1 4.8m-4.3 2.5c-12.6 8.2-20.2 22.2-20.2 37.3 0 15 7.6 29.1 20.2 37.3m24.4 7.2c-1 0-1.8.8-1.8 1.8m1.8-87.9c-6 0-12 1.3-17.5 3.9m.3.8-.2-.8"/><path class="st0" d="M440.4 65.4c-20.5 0-37.1 16.6-37.1 37.1s16.6 37.1 37.1 37.1m-14.7-.7c4.7 1.9 9.7 2.9 14.7 2.9m-18.5-74c.8-.4 1.2-1.2 1.2-2.1"/><path class="st0" d="M422 67.8c-12.4 6.6-20.3 19.3-20.8 33.3m-1.5 2c.8-.3 1.4-1.1 1.4-2m24.6 37.7c-.8-.3-1.8-.1-2.4.5m15.3 14v.6m0 0h1.8m-1.8-2.2v-2.8m1.8-100.6c-2 0-3.9.1-5.8.3m-.1 107.7c1.9.2 3.9.3 5.8.3m-5.7-108.1-.3.7-.8.4-.9-.3-.4-.4m-.1 0c-3.9.6-7.6 1.6-11.3 3m0 .1-.2.6-.6.5-.8.1-.7-.3m0 0c-3.6 1.6-7 3.5-10.1 5.8m.1 0v.7l-.5.7-.8.2-.7-.1m-.1.1c-3 2.4-5.8 5.2-8.3 8.3m.2-.1.1.7-.3.8-.6.4h-.7m-.1.1c-2.3 3.2-4.3 6.5-5.8 10.1"/><path class="st0" d="m390.9 80.5.4.7-.2.8-.5.7-.7.1m0 .1c-1.4 3.6-2.4 7.4-3 11.3m0 0 .5.4.2.8-.5.8-.6.4m0 0c-.1 1.3-.2 2.6-.3 4m0 3.7c0 1.3.2 2.6.3 4m.1 0 .5.3.5.8-.2.8-.5.6m0 0c.6 3.9 1.6 7.6 3 11.3m0-.1.7.3.5.5.2.8-.4.7m-.1 0c1.6 3.6 3.5 7 5.8 10.1m.2 0h.7l.6.5.3.8-.1.7m8.2 8.2.7-.1.8.2.5.7v.7m-.1.1c3.2 2.3 6.5 4.3 10.1 5.8m0 0 .7-.4.8.1.6.6.2.7m0 0c3.6 1.4 7.4 2.4 11.3 3m.1 0 .4-.5.9-.2.8.4.3.6"/><path class="st0" d="M440.4 40.9c-34 0-61.6 27.6-61.6 61.6s27.6 61.6 61.6 61.6"/><path class="st0" d="M440.4 49.2c-28.7 0-52.2 22.7-53.2 51.4m0 3.7c1 28.7 24.5 51.5 53.2 51.5m-.9-83.2v2.1m0 55.5v2.1"/><path class="st0" d="M398.8 103.3c.3 15.8 9.6 30.1 23.9 36.8m.1-.1.6-.7m-24.5-36.1.8-.1m17.5 38.8-.9-.6.2-.4.9.6m0 0c.1 0 .2 0 .2-.1m0 0 .6-.9.5.2-.6.9m-.1.1c0 .1 0 .2.1.2m0 .1 1 .4-.2.5-1-.6m0 0c-.1 0-.2 0-.2.1m-.1 0-.5 1-.4-.3.6-.9m0-.1c0-.1 0-.2-.1-.2m.7-79.4 1-.5.2.4-1 .6m0 0c-.1 0-.1.2-.1.2m.1 0 .6.9-.5.3-.6-1m0 0c0-.1-.2-.1-.2-.1m0 0-.9.6-.2-.3.9-.6m0 0c.1 0 .1-.2.1-.2m0 0-.6-1.1.4-.2.5 1m.1-.1c0 .1.2.1.2.1m-32.8 36.4h-5.9m0 7.1h5.9m0-7.1v7.1m-4.3-.5h0m8.2-1.2h-3m3-3.7h-3m-5.4-1.3.9-.4m-.9 6.6.9.5m-2.9-6.7.6-.4m-.6 6.6.6.5m6.8-1.7h-.9m.9-3.7h-.9m101.3 1.8h.3m-46.3 46.1v.1"/></g><path class="st0" d="M47.4 52h-18m18 119.5h-18m18.3-123H13.3M47.7 175H13.3M46.8 51.6V25.9m215.5 26.8V28.2m-33.7 32.6V13.7m83.9 98v-98m-84.2 149V178m34-103.7v-9.9m-.4 8.7h29.5M261 150.2h30.4m-55.2 1.3v26.7M235 67.9l-2.6 3.7m2.6-3.7 7.5-10.3h4.5m64.3 55.5 1.2-1.4 1.3 1.4m0-2.7-1.3 1.3-1.2-1.3m73.3-34.2 55.8 26.2m-56.6-24.6-.9 2.5m-.5 1.4-.1.1m-.7 1.9-1.2 4.7m-.4 1.3v.2m-.2 1.4-.8 4.8m-.1 2v.2m7.2-25.3c-.9 1.6-1.6 3.2-2.4 4.8" id="Dimensions_00000007419670075999130940000001523901390037858735_"/><g id="Arrows"><path class="st1" d="M33 58.3v107"/><path d="m30.9 59.7 2-7.7 2.1 7.7zm0 104.2 2 7.6 2.1-7.6z"/><path class="st1" d="M17 54.9v113.7"/><path d="m15 56.3 2-7.7 2.1 7.7zm0 110.9 2 7.7 2.1-7.7z"/><path class="st1" d="M53.2 31.9h169.1"/><path d="m54.6 34-7.7-2.1 7.7-2.1zm166.3 0 7.7-2.1-7.7-2.1z"/><path class="st1" d="M306.3 17.2h-71.4"/><path d="m304.9 15.2 7.7 2-7.7 2.1zm-68.6 0-7.7 2 7.7 2.1z"/><path class="st1" d="M242.6 174.6h11.8"/><path d="m244 176.7-7.6-2.1 7.6-2z"/><path class="st1" d="M234.9 31.9h21"/><path d="m236.3 34-7.7-2.1 7.7-2.1zm18.2 0 7.7-2.1-7.7-2.1z"/><path class="st1" d="M287.7 79.5v64.4"/><path d="m285.6 80.9 2.1-7.7 2.1 7.7zm0 61.6 2.1 7.7 2.1-7.7z"/><path class="st1" d="m316.5 117.3 22.7 31.7 5.9 8.7h-7.3"/><path d="m315.6 119.6-2.8-7.4 6.2 5z"/><path class="st1" d="m378.9 73.5-21.3-10"/><path d="m378.5 71 6.1 5.1-7.9-1.4z"/><path class="st0" d="M228.3 174.6h8.1"/><path class="st1" d="M221.9 174.6h-11.7"/><path d="m220.5 172.6 7.7 2-7.7 2.1z"/></g><g id="middle"><path class="st1" d="M364.9 102.5H379"/><path class="st2" d="M384.3 102.5h3.1"/><path class="st3" d="M390.1 102.5h109"/><path class="st1" d="M501.7 102.5h14.2m-472.6 9.3h14.2"/><path style="fill:none;stroke:#000;stroke-width:.2835;stroke-linecap:round;stroke-linejoin:round;stroke-dasharray:.5108,5.1076" d="M62.6 111.8h3.1"/><path style="fill:none;stroke:#000;stroke-width:.2835;stroke-linecap:round;stroke-linejoin:round;stroke-dasharray:25.5379,5.1076,.5108,5.1076" d="M68.2 111.8H247"/><path class="st1" d="M249.6 111.8h14.1M440.4 178v-14.2"/><path class="st2" d="M440.4 158.6v-3.2"/><path class="st3" d="M440.4 152.8v-109"/><path class="st1" d="M440.4 41.1V27"/></g><g id="Text"><text transform="translate(277.626 159.522)" class="st6 st7">Sensor position</text><text transform="translate(248.282 13.312)" class="st6 st7">46.5 (in air)</text><text transform="translate(241.816 171.62)" class="st6 st7">4.5</text><text transform="translate(133.322 28.224)" class="st6 st7">100.3</text><text transform="translate(248.068 61.052)" class="st6 st7">F-mount</text><text transform="translate(233.975 27.88)" class="st6 st7">18.9</text><text transform="translate(332.136 62.472)" class="st6 st7">R35.5</text><text transform="rotate(-90.138 203.394 -78.903)" class="st6 st8">Ø 42.7</text><text transform="rotate(-90.138 66.793 53.661)" class="st6 st8">Ø 70</text><text transform="rotate(-90.138 79.776 50.6)" class="st6 st8">M67x0.75</text><text transform="translate(125.645 89.817)" class="st6 st7">Inf.</text><text transform="translate(131.759 144.163)" class="st6 st7">MOD</text><text transform="translate(446.448 184.181)" class="st6 st9">Not to scale</text><text transform="translate(446.273 195.93)" class="st6 st9">Dimensions in mm</text></g></svg>