<svg xmlns="http://www.w3.org/2000/svg" viewBox="0 0 524.4 198.4" style="enable-background:new 0 0 524.4 198.4;background-color:#fff" xml:space="preserve"><style>.st0{stroke-miterlimit:10}.st0,.st1,.st2,.st3{fill:none;stroke:#000;stroke-width:.2835;stroke-linecap:round;stroke-linejoin:round}.st2{stroke-dasharray:.5243,5.243}.st3{stroke-dasharray:26.215,5.243,.5243,5.243}.st6{font-family:Helvetica,Arial,sans-serif}.st7{font-size:8.9176px}.st8{font-size:8.9175px}.st9{font-size:9.1477px}</style><g id="Lens_neu_00000031906334773417635870000008387246293385512371_"><path class="st0" d="m227 72.4.2-.2M58.8 111.7 56 109m10 2.7-9.4-9.5m16.7 9.5L57.6 96m23.1 15.7L59.2 90.3m28.7 21.4L60.3 84.1m-1.1-1-.4-.6m-.1 0L57.3 81m37.9 30.7L55.5 72m47.1 39.7L54.1 63.2m55.7 48.5L54.1 55.9m-3.8-3.8-3.1-3m69.9 62.6L62.5 57.1m-.2-.2L54 48.6m70.4 63.1L68.9 56.3m62.8 55.4L76.2 56.3m62.8 55.4L82.6 55.3m63.7 56.4L89.9 55.3m63.7 56.4L97.2 55.3m63.7 56.4-56.4-56.4m63.7 56.4-56.4-56.4m63.7 56.4-56.4-56.4m63.7 56.4-56.5-56.4m63.8 56.4-56.4-56.4m63.7 56.4L141 55.3m63.7 56.4-55.6-55.4m77.4 55.4-55.2-55.3m62.6 55.3-55.5-55.4m59.1 51.8-51.9-51.8m52 44.7-44.7-44.7M238 93.9l-38.5-38.4m7.2 4.8h0M238.3 87l-10.9-10.9m-.9-.9-14.3-14.4m-7.6-7.5-4.1-4.2m23.6 21.3-.9-1m7.3 2.6-1-1.2m-7.1-7-3.6-3.5m-6.8 51.4-20.3-20.2m-8.4-8.4-26.8-26.8m62.8 55.4-21.4-21.4m-8.5-8.5-25.6-25.5M47.9 174.9l2.2-3.5m4-7 5.6-9.8m-5.8 20.3 11.8-20.3m-3.4 12.6h0m2 0 7.3-12.6m20-34.7 4.8-8.2m-26.1 55.5 7.3-12.6m15.5-26.8 9.1-16.1m-26 55.5 7.2-12.6M95 134.7l13.2-23m-17.5 34 .5-1m0-.2.3-.3m1-1.7.6-.9m0-.2.2-.4m-11.7 27.2 7.8-13.6M91 152l23.2-40.3m-26.6 56.5 32.5-56.5m-26.6 56.5 32.6-56.5m-26.6 56.5 32.6-56.5m-26.6 56.5 32.5-56.5m-26.6 56.5 32.6-56.5m-26.6 56.5 32.5-56.5m-26.6 56.5 32.6-56.5m-26.6 56.5 32.6-56.5m-26.6 56.5 32.5-56.5m-26.6 56.5 32.6-56.5m-26.4 56 32.3-56m-26.1 55.5 32.1-55.5m-13.2 64 4.6-7.9m2.5-.9.3-.3m25-36.5 10.6-18.4m-32.1 55.5 15.8-27.2m-9.8 27.2 32.1-55.5m-26.2 55.5 32.1-55.5m-25.1 53.7 31.1-53.7m-23.8 51.5 29.8-51.5m-23.8 51.5 8.6-14.9M214 162.4l.1-.2m10.6-14.8 20.6-35.7M228.4 151l1.6-2.7m.7-.9 20.6-35.7m-14.7 35.7 20.5-35.7m-14.5 35.7 20.5-35.7m-14.6 35.7 15.3-26.5m-9.3 26.5 9.6-16.7m-3.1 15.7 4.6-8.1m-106 28.9 22.1-38.3m.2-.2 9.8-17m-26.2 55.5 16.9-29m7-12.2 8.2-14.3m-26.1 55.5 17.3-29.7m6.4-11.4 8.4-14.4m-26.1 55.5 16.6-28.6m6.1-10.8 9.4-16.1m17.6-39.9-.3-.2h-1.1l-.3.2"/><path class="st0" d="M227.2 71.8v.6h-1.8l.1-.6m-17.9-10.2c-.2 0-.4.2-.4.4m-9.1-8.3h1.8v.8h-.4V58h-2.1l-1.8-1.7h-15l-.6.4v.7h-.1v-.7l-.6-.4h-7.9l-.6.4v.7h-.1v-.7l-.6-.4h-22.2l-.9-1H78.5l-.9 1H63l-.5.4v2h-.2v-2.4L56 48.6h-8.2l-.9.9v2.1l.4.5h4.4l.6-.5v-.5h1.8v17.2l.4.6h1.9l-.9.9v1m149.1-21.4-.2-.3h-6.2l-.1.3m9.1 12.6v.3h-.5v-2h-1.4v-1.8l-.6-.5h-1.6v-3.5h-.4v-.8h1.9M55.5 71.8v6.5l.4.4h.1v.5h1.9V81H56v.4h1v.5h.9v.6h.9v.6h.9l1.3 2h.1m-.1 0c-3.4 8.4-5.2 17.4-5.2 26.5m181.7.1.3-13.1.5-13.2"/><path class="st0" d="M238.3 85.4v.1l.3.1h.3l1.3-1.3v-1.9l-6.3-6.3h-13.4v-2l1.1 1.1h8.5l.4-.6V71l-.3-.2h-1.8v1.6h-4.3v-3.1h-.8l-.2.3m-.7-.3c0 .2.1.3.2.4.1.1.3 0 .4-.1m-.6-7.2v-1.6l-.5-.5h-6.3l-.9.9v1.1h-.6v-1.1l-.9-.9h-1v2h-.5V62m0 0c0-.2-.2-.4-.4-.4M55.5 71.8v-1m0 40.9h-1V68.9m-2.2-17.3v60.1m-5.4 0V51.6M178 56.3h-5.4m32.4-6.6-.4-.3m-6.9.3.4-.3m-.4 4.3h.4m6.5 0h.4"/><path class="st0" d="M206.7 60.3h.8l.9.1h2.1l.9-.1h.8m-4.6 1.3h2.4M56 81v-1.8m166.4-9.9v-2m0 0v-4.9m-.8 13.7v-.9m8.5.9v-.9m.4.9v-1.5m8.4 37.1V85.6m1.3 26.1V84.3M61 85.4v-.3m167.4-14.3v-.6h.6l1.2.6M205 53.7v-4m-7.3 0v4m24.7 102.5v-2m-43.8 17.1h-1.9v-1h.4v-3.1h2.2l.6-.5v-1.4h.1v1.4l.6.5h15l1.8-1.8h7.3l.6-.5v-1.7h7.9l.9-.9v-1.4h.6v1.4l.9.9h6.3l.5-.5V161M172 175.5l.3.2h6.1l.2-.2m-87.4-23.3H91l-.3.5v1l.9.9H54.5l-.4.6v17.2h-1.8v-.6l-.6-.4h-4.4l-.4.4v2.2l.9.9H56l6.3-7.7v-1.9h.2v1.4l.5.5h14.6l.9 1H147l.9-1h22.2l.6-.5v-1.4h.1v1.4l.6.5h2.2v3.1h.4v1h-2m51.1-17.5c-.1-.1-.3-.1-.4-.1-.1.1-.2.2-.2.4"/><path class="st0" d="m223.1 153.9.2.3h.8V151h4.3v.5h2.1v-2.6l-.4-.6h-8.5l-1.1 1.1v-2H260l6.3-6.3V139l-1.2-1.2h-.4l-.2.2v.1"/><path class="st0" d="m264.5 138.1-.6-13.2-.2-13.2m-172.6 0c0 9.1 1.8 18.1 5.2 26.5m0 0h-.1l-1.3 2.2H94v.6h-.9v.6h-.9v.4h-1v.5h1.9v1.7h-1.9v.5l-.5.5v6.6l.5.4m80.8 23.3-.3-.3m6.9.3.3-.3m-6.9-3.9h-.3v3.9m7.2-3.9h-.3m-19.9-4.1h2.7m-4.6 0h0m-109.9 4.6v-60.1m5.4 60.1v-60.1m2.2 42.9v-42.9m1 0h-1m36.2 41v-.9m.3.4v-.1m.2-7.9v-1.7M222.4 161v-4.8m8.1-7.3v-1.5m0 5v-.9M96.2 138.2v-.2m-5 4v-25m0 27.7v-29.1m173.9 22.2v-26.1m1.2 27.3v-27.3m-37.9 39.8v1.8h.6l1.5-.9m-51.6 22.8v-3.9m301.8-69.2-.2-3.7m-1 .8s0 0 0 0m1-.8c0-.2-.2-.4-.4-.4m-.6.1h.6m-.5 0s-.1 0 0 0m-5.3 46.6c3-2.4 5.8-5.2 8.3-8.3m2.3-31.5c1.1.5 2.5.2 3.3-.8.8-1 .8-2.4 0-3.3-.8-1-2.1-1.3-3.3-.8m0 0c-.9.4-1.5 1.4-1.5 2.4s.6 2 1.5 2.4"/><path class="st0" d="M442.2 151.7c26.8-1 47.9-23.3 47.4-50.1s-22.4-48.3-49.2-48.3m1.9 100v-1.6"/><path class="st0" d="M484.9 100c-1.3-23.6-20.8-42.1-44.5-42.1m0 89.1c23.6 0 43.2-18.5 44.5-42.1m-42.7 43.9c0-1-.8-1.8-1.8-1.8"/><path class="st0" d="M457.2 64.5c-5.3-2.3-11-3.6-16.8-3.6m16.7 4.4.2-.8m-16.9 75.1c20.5 0 37.1-16.6 37.1-37.1s-16.6-37.1-37.1-37.1"/><path class="st0" d="M440.4 141.8c7.6 0 15-2.2 21.4-6.3m2.5-.2c-.7-.5-1.7-.5-2.4 0m17.8-34.9c0 .9.6 1.7 1.4 2m-1.5-2c-.7-14-8.9-26.6-21.4-32.9m-1.1-2.2c0 .9.4 1.7 1.2 2.1m-16 86.5v-.6m-1.9.6h1.8m-1.8-7v.1m1.9 1.9v2.8m-1.9-22.9c14.5 0 26.3-11.8 26.3-26.3s-11.8-26.3-26.3-26.3m.9-1.5h-.9m0 55.6h.9"/><path class="st0" d="M441.3 130.3c15-.5 26.9-12.8 26.9-27.8s-11.9-27.3-26.9-27.8m0-2h-.9m0 59.5h.9"/><path class="st0" d="M441.3 132.3c16.1-.5 29-13.7 29-29.9 0-16.1-12.8-29.4-29-29.9"/><path class="st0" d="M440.4 135c18 0 32.5-14.5 32.5-32.5S458.4 70 440.4 70"/><path class="st0" d="M440.4 155.7c29.4 0 53.3-23.8 53.3-53.3 0-29.4-23.8-53.3-53.3-53.3m5.8-.5c-1.9-.2-3.9-.3-5.8-.3m0 108.4c2 0 3.9-.1 5.8-.3"/><path class="st0" d="m446.3 156.3.3-.6.8-.4.8.2.5.5"/><path class="st0" d="M448.7 156c3.9-.6 7.6-1.6 11.3-3m.1 0 .2-.7.6-.6.8-.1.6.4"/><path class="st0" d="M462.3 152c3.6-1.6 7-3.5 10.1-5.8m0-.1v-.7l.5-.7.8-.2.7.1m8.2-8.2-.1-.7.3-.8.6-.5h.7m0 .1c2.3-3.2 4.3-6.5 5.8-10.1m.1-.1-.4-.7.1-.8.6-.5.6-.3m0 .1c1.4-3.6 2.4-7.4 3-11.3m.1-.1-.5-.5-.2-.8.3-.8.7-.3m-.1 0c.4-3.9.4-7.8 0-11.7m.1 0-.7-.4-.3-.8.2-.8.5-.4m-.1 0c-.6-3.9-1.6-7.6-3-11.3m0-.1-.6-.1-.6-.7-.1-.8.4-.7"/><path class="st0" d="M490 80.6c-1.6-3.6-3.5-7-5.8-10.1m-.1-.1h-.7l-.6-.4-.3-.8.1-.7m0 0c-2.4-3-5.2-5.8-8.3-8.3"/><path class="st0" d="m474.4 60.2-.7.1-.8-.2-.5-.7v-.7m0 .1c-3.2-2.3-6.5-4.3-10.1-5.8m0-.1-.6.3-.8-.1-.6-.5-.2-.6m-.1 0c-3.6-1.4-7.4-2.4-11.3-3m0-.1-.5.4-.8.3-.8-.4-.3-.7"/><path class="st0" d="M440.4 164c34 0 61.6-27.6 61.6-61.6s-27.6-61.6-61.6-61.6m23.9 94.5.6.7"/><path class="st0" d="M464.9 136.1c10.7-7.8 17-20.2 17.1-33.5m-.9-.2.9.1m4.3.4v1h-.5v-1m0-.1c0-.1-.1-.2-.2-.2m0 .1h-1.1v-.5h1.1m.1 0c.1 0 .2-.1.2-.2"/><path class="st0" d="M485.8 102.1v-1.2h.5v1.2m0-.1c0 .1.1.2.2.2m-.1 0h1.2v.5h-1.2m.1 0c-.1 0-.2.1-.2.2m-44.9-28.2v-2.1m0 59.7v-2.1M386 104.3v-3.7m-5.4 4.9v-6.2m-2 6.2v-6.2m19.6 37.1c2.4 3 5.2 5.8 8.3 8.3m13.9-82c-.1-1.2-1.1-2.3-2.3-2.4-1.2-.2-2.4.5-2.9 1.7s-.1 2.5 1 3.2"/><path class="st0" d="M416.1 65.1c.9.6 2 .6 2.9.1.9-.5 1.4-1.5 1.3-2.6m-4.2 77.1c-1 .7-1.4 2-1 3.2s1.7 1.9 2.9 1.7c1.2-.2 2.2-1.2 2.3-2.4m.1 0c.1-1-.4-2-1.3-2.6-.9-.5-2-.5-2.9.1m24.2-63.5c-14.5 0-26.3 11.8-26.3 26.3s11.8 26.3 26.3 26.3m0-54.1h-.9m0 55.6h.9"/><path class="st0" d="M439.5 74.7c-15 .5-26.9 12.8-26.9 27.8s11.9 27.3 26.9 27.8m.9-57.6h-.9m0 59.5h.9"/><path class="st0" d="M439.5 72.6c-16.1.5-29 13.7-29 29.9s12.8 29.4 29 29.9"/><path class="st0" d="M440.4 70c-18 0-32.5 14.6-32.5 32.5 0 18 14.6 32.5 32.5 32.5"/><path class="st0" d="M440.4 53.2c-26.8 0-48.7 21.5-49.2 48.3-.5 26.8 20.6 49.1 47.4 50.1m0 .1v1.6"/><path class="st0" d="M420.3 142.2c6.2 3.2 13.1 4.8 20.1 4.8m0-89.1c-7 0-13.9 1.6-20.1 4.8m-4.3 2.5c-12.6 8.2-20.2 22.2-20.2 37.3 0 15 7.6 29.1 20.2 37.3m24.4 7.2c-1 0-1.8.8-1.8 1.8m1.8-87.9c-6 0-12 1.3-17.5 3.9m.3.8-.2-.8"/><path class="st0" d="M440.4 65.4c-20.5 0-37.1 16.6-37.1 37.1s16.6 37.1 37.1 37.1m-14.7-.7c4.7 1.9 9.7 2.9 14.7 2.9m-18.5-74c.8-.4 1.2-1.2 1.2-2.1"/><path class="st0" d="M422 67.8c-12.4 6.6-20.3 19.3-20.8 33.3m-1.5 2c.8-.3 1.4-1.1 1.4-2m24.6 37.7c-.8-.3-1.8-.1-2.4.5m15.3 14v.6m0 0h1.8m-1.8-2.2v-2.8m1.8-100.6c-2 0-3.9.1-5.8.3m-.1 107.7c1.9.2 3.9.3 5.8.3m-5.7-108.1-.3.7-.8.4-.9-.3-.4-.4m-.1 0c-3.9.6-7.6 1.6-11.3 3m0 .1-.2.6-.6.5-.8.1-.7-.3m0 0c-3.6 1.6-7 3.5-10.1 5.8m.1 0v.7l-.5.7-.8.2-.7-.1m-.1.1c-3 2.4-5.8 5.2-8.3 8.3m.2-.1.1.7-.3.8-.6.4h-.7m-.1.1c-2.3 3.2-4.3 6.5-5.8 10.1"/><path class="st0" d="m390.9 80.5.4.7-.2.8-.5.7-.7.1m0 .1c-1.4 3.6-2.4 7.4-3 11.3m0 0 .5.4.2.8-.5.8-.6.4m0 0c-.1 1.3-.2 2.6-.3 4m0 3.7c0 1.3.2 2.6.3 4m.1 0 .5.3.5.8-.2.8-.5.6m0 0c.6 3.9 1.6 7.6 3 11.3m0-.1.7.3.5.5.2.8-.4.7m-.1 0c1.6 3.6 3.5 7 5.8 10.1m.2 0h.7l.6.5.3.8-.1.7m8.2 8.2.7-.1.8.2.5.7v.7m-.1.1c3.2 2.3 6.5 4.3 10.1 5.8m0 0 .7-.4.8.1.6.6.2.7m0 0c3.6 1.4 7.4 2.4 11.3 3m.1 0 .4-.5.9-.2.8.4.3.6"/><path class="st0" d="M440.4 40.9c-34 0-61.6 27.6-61.6 61.6s27.6 61.6 61.6 61.6"/><path class="st0" d="M440.4 49.2c-28.7 0-52.2 22.7-53.2 51.4m0 3.7c1 28.7 24.5 51.5 53.2 51.5m-.9-83.2v2.1m0 55.5v2.1"/><path class="st0" d="M398.8 103.3c.3 15.8 9.6 30.1 23.9 36.8m.1-.1.6-.7m-24.5-36.1.8-.1m17.5 38.8-.9-.6.2-.4.9.6m0 0c.1 0 .2 0 .2-.1m0 0 .6-.9.5.2-.6.9m-.1.1c0 .1 0 .2.1.2m0 .1 1 .4-.2.5-1-.6m0 0c-.1 0-.2 0-.2.1m-.1 0-.5 1-.4-.3.6-.9m0-.1c0-.1 0-.2-.1-.2m.7-79.4 1-.5.2.4-1 .6m0 0c-.1 0-.1.2-.1.2m.1 0 .6.9-.5.3-.6-1m0 0c0-.1-.2-.1-.2-.1m0 0-.9.6-.2-.3.9-.6m0 0c.1 0 .1-.2.1-.2m0 0-.6-1.1.4-.2.5 1m.1-.1c0 .1.2.1.2.1m-32.8 36.4h-5.9m0 7.1h5.9m0-7.1v7.1m-4.3-.5h0m8.2-1.2h-3m3-3.7h-3m-5.4-1.3.9-.4m-.9 6.6.9.5m-2.9-6.7.6-.4m-.6 6.6.6.5m6.8-1.7h-.9m.9-3.7h-.9m101.3 1.8h.3m-46.3 46.1v.1"/></g><path class="st0" d="M47.4 52h-18m18 119.5h-18m18.3-123H13.3M47.7 175H13.3M46.8 51.6V25.9m193.6 26.8V28.2m-18 32.6V13.7m90.1 98v-98m-90 149V178m17.9-95.6v-18m-6.5 12h57.5M261 147.7h30.4m-25.2-6.3v36.8M235 67.9l-2.6 3.7m2.6-3.7 7.5-10.3h4.5m64.3 55.5 1.2-1.4 1.3 1.4m0-2.7-1.3 1.3-1.2-1.3m73.3-34.2 55.8 26.2m-56.6-24.6-.9 2.5m-.5 1.4-.1.1m-.7 1.9-1.2 4.7m-.4 1.3v.2m-.2 1.4-.8 4.8m-.1 2v.2m7.2-25.3c-.9 1.6-1.6 3.2-2.4 4.8" id="Dimensions_00000007419670075999130940000001523901390037858735_"/><g id="Arrows"><path class="st1" d="M33 58.3v107"/><path d="m30.9 59.7 2-7.7 2.1 7.7zm0 104.2 2 7.6 2.1-7.6z"/><path class="st1" d="M17 54.9v113.7"/><path d="m15 56.3 2-7.7 2.1 7.7zm0 110.9 2 7.7 2.1-7.7z"/><path class="st1" d="M53.2 31.9h162.9"/><path d="m54.6 34-7.7-2.1 7.7-2.1zm160.1 0 7.7-2.1-7.7-2.1z"/><path class="st1" d="M306.3 17.2h-77.7"/><path d="m304.9 15.2 7.7 2-7.7 2.1zm-74.9 0-7.6 2 7.6 2.1z"/><path class="st1" d="M272.6 174.6h11.8"/><path d="m274 176.7-7.6-2.1 7.6-2z"/><path class="st1" d="M228.6 31.9h5.4"/><path d="m230 34-7.6-2.1 7.6-2.1zm2.6 0 7.7-2.1-7.7-2.1z"/><path class="st1" d="M287.7 82.7v58.7"/><path d="m285.6 84.1 2.1-7.7 2.1 7.7zm0 55.9 2.1 7.6 2.1-7.6z"/><path class="st1" d="m316.5 117.3 22.7 31.7 5.9 8.7h-7.3"/><path d="m315.6 119.6-2.8-7.4 6.2 5z"/><path class="st1" d="m378.9 73.5-21.3-10"/><path d="m378.5 71 6.1 5.1-7.9-1.4z"/><path class="st0" d="M222.5 174.6h43.9"/><path class="st1" d="M216.1 174.6h-11.7"/><path d="m214.7 172.6 7.7 2-7.7 2.1z"/><path class="st0" d="M240.3 31.9h22.3"/></g><g id="middle"><path class="st1" d="M364.9 102.5H379"/><path class="st2" d="M384.3 102.5h3.1"/><path class="st3" d="M390.1 102.5h109"/><path class="st1" d="M501.7 102.5h14.2m-472.6 9.3h14.2"/><path style="fill:none;stroke:#000;stroke-width:.2835;stroke-linecap:round;stroke-linejoin:round;stroke-dasharray:.5108,5.1076" d="M62.6 111.8h3.1"/><path style="fill:none;stroke:#000;stroke-width:.2835;stroke-linecap:round;stroke-linejoin:round;stroke-dasharray:25.5379,5.1076,.5108,5.1076" d="M68.2 111.8H247"/><path class="st1" d="M249.6 111.8h14.1M440.4 178v-14.2"/><path class="st2" d="M440.4 158.6v-3.2"/><path class="st3" d="M440.4 152.8v-109"/><path class="st1" d="M440.4 41.1V27"/></g><g id="Text"><text transform="translate(275.821 160.606)" class="st6 st7">Sensor position</text><text transform="translate(248.282 13.312)" class="st6 st7">46.5 (in air)</text><text transform="translate(233.89 171.62)" class="st6 st7">24.3</text><text transform="translate(135.803 28.224)" class="st6 st7">97.3</text><text transform="translate(248.068 61.052)" class="st6 st7">F-mount</text><text transform="translate(245.083 27.88)" class="st6 st7">9.8</text><text transform="translate(332.136 62.472)" class="st6 st7">R35.5</text><text transform="rotate(-90.138 203.394 -78.903)" class="st6 st8">Ø 39.5</text><text transform="rotate(-90.138 66.793 53.661)" class="st6 st8">Ø 70</text><text transform="rotate(-90.138 79.776 50.6)" class="st6 st8">M67x0.75</text><text transform="translate(185.465 89.608)" class="st6 st7">Inf.</text><text transform="translate(183.669 136.527)" class="st6 st7">MOD</text><text transform="translate(445.754 183.677)" class="st6 st9">Not to scale</text><text transform="translate(445.579 195.425)" class="st6 st9">Dimensions in mm</text></g></svg>