<svg version="1.1" id="Ebene_1" xmlns="http://www.w3.org/2000/svg" xmlns:xlink="http://www.w3.org/1999/xlink" x="0" y="0" viewBox="0 0 1275.6 566.9" style="background-color:#fff" xml:space="preserve"><style>.st0{clip-path:url(#SVGID_4_);fill:none;stroke:#000;stroke-width:.425;stroke-linecap:round;stroke-linejoin:round}.st0,.st1{stroke-miterlimit:10}.st1,.st15,.st16,.st2,.st3,.st4,.st7,.st8{fill:none;stroke:#000;stroke-width:.283;stroke-linecap:round;stroke-linejoin:round}.st3{stroke-dasharray:.557,2.786}.st4{stroke-dasharray:8.359,2.786,.557,2.786}.st7{stroke-dasharray:.383,1.915}.st8{stroke-dasharray:5.746,1.915,.383,1.915}.st15{stroke-dasharray:.564,2.82}.st16{stroke-dasharray:8.459,2.82,.564,2.82}.st17{font-family:Helvetica,Arial,sans-serif}.st18{font-size:14.9998px}.st19{font-size:14.9996px}.st21{font-size:14.9997px}</style><defs><path id="SVGID_1_" d="M0 0h1275.6v566.9H0z"/></defs><clipPath id="SVGID_2_"><use xlink:href="#SVGID_1_" overflow="visible"/></clipPath><defs><path id="SVGID_3_" d="M0 0h1275.6v566.9H0z"/></defs><clipPath id="SVGID_4_"><use xlink:href="#SVGID_3_" overflow="visible"/></clipPath><path class="st0" d="M590.8 418.9c0 .4.3.6.6.6s.6-.3.6-.6c0-.4-.3-.6-.6-.6s-.6.2-.6.6m-5.5 0c0 .4.3.6.6.6s.6-.3.6-.6c0-.4-.3-.6-.6-.6s-.6.2-.6.6m4.6 3.2c0 .4.3.6.6.6s.6-.3.6-.6c0-.4-.3-.6-.6-.6-.4 0-.6.3-.6.6m-3.5 0c0 .4.3.6.6.6.4 0 .6-.3.6-.6 0-.4-.3-.6-.6-.6s-.6.3-.6.6"/><path class="st0" d="M588.7 414.8c-2.8 0-5 2.2-5 5s2.2 5 5 5 5-2.2 5-5-2.3-5-5-5"/><path class="st0" d="M595.1 419.8c0-3.6-2.9-6.4-6.4-6.4-3.6 0-6.4 2.9-6.4 6.4 0 3.6 2.9 6.4 6.4 6.4 3.5 0 6.4-2.9 6.4-6.4m-13.4-3.2v6.5m0 0c.2.5.4.9.7 1.3m0 0l5.6 3.3m0 0h1.5m5.6-3.3l-5.6 3.3m5.6-3.3c.3-.4.5-.9.7-1.3m0-6.5v6.5m0-6.5c-.2-.4-.4-.9-.7-1.3"/><path class="st0" d="M582.4 415.3l5.6-3.3h1.5l5.6 3.3m-12.7 0c-.3.4-.5.8-.7 1.3m-534.4-4.4h-2.4m0 3.2l-.1-1.6.1-1.6m0 3.2h2.6m0 1.3h-2.6v-1.3m0 7.8l-.1-3.3.1-3.2m0 6.5h2.6m-2.6 0v1.3h2.6m-2.6 3.2l-.1-1.6.1-1.6m0 3.2h2.4m-11.1-12.1v8.7m1.8-9.2v9.7m1-9.5v9.2m1.5-9.2v9.2m1-10.2v11.2m1.4-11.2v11.2m1.1-10.2v9.2m3.5-12.3h-2.6m2.6 15.5h-2.6m-8.5-12.3c-.1 0-.3.2-.3.3m.1 8.5c0 .2.1.3.3.3m0-9.2l1.5-.2m-1.5 9.4l1.5.3h.7m0-9.7H38m1 9.4l-.3.3m.3-9.5l-.3-.2m1.8 9.4H39m2.5-10.2l-1 1H39m1.5 9.2l1 1h1.4m0-11.2h-1.5m2.6 10.2l-1.1 1m1.1-10.2l-1.1-1m1.5 1H44m.4 0c.2 0 .3-.1.3-.3v-1.2m-.7 10.7h.4c.2 0 .3.1.3.3v1.2m1181.2 1.7h2.4m0-3.2l.2 1.6-.2 1.6m0-3.2h-2.6m0-1.3h2.6v1.3m0-7.8l.2 3.3-.2 3.2m0-6.5h-2.6m2.6 0v-1.3h-2.6m2.6-3.2l.2 1.6-.2 1.6m0-3.2h-2.4m11.2 12.1v-8.7m-1.8 9.2v-9.7m-1.1 9.4v-9.2m-1.4 9.2v-9.2m-1 10.3v-11.2m-1.4 11.2v-11.2m-1.1 10.1v-9.2m-3.6 12.4h2.6m-2.6-15.5h2.6m8.5 12.3c.1 0 .3-.2.3-.3m0-8.5c0-.2-.1-.3-.3-.3m0 9.1l-1.5.3m1.5-9.5l-1.5-.2h-.7m0 9.7h.7m-1.1-9.5l.4-.2m-.4 9.4l.4.3m-1.8-9.5h1.4m-2.4 10.3l1-1.1h1.4m-1.4-9.2l-1-.9h-1.4m0 11.2h1.4m-2.5-10.3l1.1-.9m-1.1 10.1l1.1 1.1m-1.5-1.1h.4m-.4 0c-.2 0-.3.1-.3.3v1.2m.7-10.7h-.4c-.2 0-.3-.1-.3-.3v-1.2M580.2 85.5h16.9m-16.9 7v340.2m16.9-340.2v340.2m0 0v7.1h-16.9m16.9-347.3v-7m-16.9 354.3v-7.1m0-340.2v-7m19.1 344.4V95.4m0-.1c0-1.5-.8-2.9-2.1-3.7m0 341.8c1.3-.8 2.1-2.2 2.1-3.7m0-330.1c0 1.5 1.2 2.8 2.7 2.8m.2 320.2c-1.5 0-2.9 1.5-2.9 3m2.9-3c78.7-1.4 144.7-59.7 155.8-137.6v-45c-11.1-77.9-77.1-136.2-155.7-137.6m446.1 301.9c78.3 0 141.8-63.4 141.8-141.7 0-78.3-63.4-141.8-141.7-141.8-78.3 0-141.8 63.4-141.8 141.7 0 78.3 63.4 141.8 141.7 141.8m170.1 31.3c1.6 0 3-1.3 3-3 0-1.6-1.3-3-3-3-1.6 0-3 1.3-3 3 .1 1.7 1.4 3 3 3m-340.2 0c1.6 0 3-1.3 3-3 0-1.6-1.3-3-3-3s-3 1.3-3 3 1.4 3 3 3m0-340.2c1.6 0 3-1.3 3-3 0-1.6-1.3-3-3-3-1.6 0-3 1.3-3 3 .1 1.7 1.4 3 3 3m340.2 0c1.6 0 3-1.3 3-3 0-1.6-1.3-3-3-3-1.6 0-3 1.3-3 3 .1 1.7 1.4 3 3 3m-340.1-9.9h340.2m7 7v340.2m-7 7.1H878.4m-7.2-7.1V92.5m347.3 347.3c3.9 0 7.1-3.2 7.1-7.1m0-340.2c0-3.9-3.1-7-7-7m-340.2 0c-3.9 0-7.2 3-7.2 6.9m0 340.2c0 3.9 3.2 7.1 7.1 7.1m339.8-19V317.2m-6.7-6.7h-11.3"/><path class="st0" d="M1048.4 241.2c-11.8 0-21.3 9.5-21.3 21.3s9.5 21.3 21.3 21.3 21.3-9.5 21.3-21.3c.1-11.7-9.5-21.3-21.3-21.3m151.8 69.3c-3.6 0-6.6 2.9-6.6 6.6m24.5 0c0-3.6-2.9-6.6-6.6-6.6m0 116.7c3.6 0 6.6-2.9 6.6-6.6m-6.7 6.6h-11.3m-6.5-6.6c0 3.6 2.9 6.6 6.6 6.6m-6.6-6.5V317.2M54.4 98.1c3.1 0 5.7-2.5 5.7-5.7 0-3.1-2.5-5.7-5.7-5.7-3.1 0-5.7 2.5-5.7 5.7.1 3.2 2.6 5.7 5.7 5.7m340.2 0c3.1 0 5.7-2.5 5.7-5.7 0-3.1-2.5-5.7-5.7-5.7-3.1 0-5.7 2.5-5.7 5.7.1 3.2 2.6 5.7 5.7 5.7m0 340.2c3.1 0 5.7-2.5 5.7-5.7 0-3.1-2.5-5.7-5.7-5.7-3.1 0-5.7 2.5-5.7 5.7.1 3.2 2.6 5.7 5.7 5.7m-340.2 0c3.1 0 5.7-2.5 5.7-5.7 0-3.1-2.5-5.7-5.7-5.7-3.1 0-5.7 2.5-5.7 5.7.1 3.2 2.6 5.7 5.7 5.7m170.1-3.6c95.1 0 172.2-77 172.2-172.1S319.6 90.4 224.6 90.4c-95.1 0-172.2 77-172.2 172.1s77 172.2 172.1 172.2"/><path class="st0" d="M54.4 435.6c1.6 0 3-1.3 3-3 0-1.6-1.3-3-3-3-1.6 0-3 1.3-3 3 .1 1.7 1.4 3 3 3m340.2 0c1.6 0 3-1.3 3-3 0-1.6-1.3-3-3-3-1.6 0-3 1.3-3 3 .1 1.7 1.4 3 3 3m0-340.2c1.6 0 3-1.3 3-3 0-1.6-1.3-3-3-3-1.6 0-3 1.3-3 3 .1 1.7 1.4 3 3 3m-340.2 0c1.6 0 3-1.3 3-3 0-1.6-1.3-3-3-3-1.6 0-3 1.3-3 3 .1 1.7 1.4 3 3 3m340.3-9.9H54.5m-7 7v340.2m7 7.1h340.2m7.1-7.1V92.5M47.5 432.7c0 3.9 3.1 7 7 7m340.1.1c3.9 0 7.1-3.2 7.1-7.1m.1-340.2c0-3.9-3.1-6.9-7-6.9m-340.3-.1c-3.9 0-7 3.1-7 7m177.1 148.7c-11.8 0-21.3 9.5-21.3 21.3s9.5 21.3 21.3 21.3 21.3-9.5 21.3-21.3-9.6-21.3-21.3-21.3"/><path class="st0" d="M224.6 240c-12.5 0-22.6 10.1-22.6 22.6 0 12.5 10.1 22.6 22.6 22.6 12.5 0 22.6-10.1 22.6-22.6-.1-12.5-10.2-22.6-22.6-22.6"/><defs><path id="SVGID_5_" d="M0 0h1275.6v566.9H0z"/></defs><clipPath id="SVGID_6_"><use xlink:href="#SVGID_5_" overflow="visible"/></clipPath><path class="st1" d="M928.8 493.4l39.3-154.8"/><path class="st2" d="M54 516.3h341.9"/><path d="M55.4 518.3l-7.7-2 7.7-2.1zm339.1 0l7.7-2-7.7-2.1z"/><path class="st1" d="M401.8 432.7v87.5"/><path class="st2" d="M603.3 521.1h148.6"/><path d="M604.7 523.2l-7.7-2.1 7.7-2.1zm145.8 0l7.6-2.1-7.6-2.1z"/><path class="st1" d="M758 283.1l-.3 241.9M47.4 434.7v85.5"/><path class="st2" d="M61 482.3h327.4"/><path d="M62.5 484.3l-7.7-2 7.7-2.1zm324.5 0l7.7-2-7.7-2.1z"/><path class="st1" d="M394.6 437.7v48.5M54.4 437.8v48.4M36.2 421v79.3m520.1-80.6h32.2m-32.2 20h24.2m16.4 37.6V525m0-84.7v22.4m-16.7-23V525m8.3-105.5v52.1m8.2 49.5h-16.4"/><path class="st2" d="M574.2 521.1h-24.3"/><path d="M572.8 519l7.7 2.1-7.7 2.1z"/><path class="st1" d="M588 470.1h-6.8M47.7 496.4H36.1"/><path class="st2" d="M575 470.1h-24.2"/><path d="M573.6 468l7.7 2.1-7.7 2z"/><path class="st2" d="M29.9 496.4H5.7"/><path d="M28.5 494.4l7.7 2-7.7 2.1z"/><path class="st2" d="M54 496.4h8.7"/><path d="M55.4 498.5l-7.7-2.1 7.7-2z"/><path class="st2" d="M594.8 470.1h30.4"/><path d="M596.2 472.1l-7.7-2 7.7-2.1z"/><path class="st1" d="M559.7 438.9v-19.3"/><path class="st2" d="M559.7 413.4v-11.7"/><path d="M561.7 412l-2 7.7-2.1-7.7z"/><path class="st2" d="M559.7 445.6v15"/><path d="M557.6 447l2.1-7.6 2 7.6z"/><path class="st2" d="M59 82.8l25.6-57.9h54.6"/><path d="M61.9 82.2L56 89.6l1.4-9.4z"/><path class="st2" d="M66.1 85.9l36.2-28.1h123.9"/><path d="M69 86.8l-8.8 3.7 5.7-7.6z"/><path class="st1" d="M393.7 482.3h8.2"/><path class="st2" d="M408 482.3h14.4"/><path d="M409.4 484.3l-7.6-2 7.6-2.1z"/><path class="st2" d="M463.7 433.1V92.4"/><path d="M465.8 431.7l-2.1 7.7-2-7.7zm0-337.9l-2.1-7.6-2 7.6z"/><path class="st1" d="M390.8 85.4h74m-71.2 354.3h74"/><path class="st2" d="M438.2 426V99.3"/><path d="M440.3 424.6l-2.1 7.7-2.1-7.7zm0-323.9l-2.1-7.7-2.1 7.7z"/><path class="st1" d="M390.8 92.5h48.5m-45.6 340.1h48.4m-3.9-.4v7.9"/><path class="st2" d="M438.2 446.2v14.4"/><path d="M436.1 447.7l2.1-7.7 2.1 7.7z"/><path class="st2" d="M213.9 273.2l21.3-21.3"/><path d="M216.4 273.7l-6.9 3.9 3.9-6.9zm19.2-19.3l4-6.9-6.9 4z"/><path class="st1" d="M239.6 247.6l10.6-10.6h38.4"/><path class="st2" d="M1048.4 422v-4.3"/><path class="st3" d="M1048.4 415v-2"/><path class="st4" d="M1048.4 411.6V108.7"/><path class="st2" d="M1048.4 107.4v-4.3m159.5 159.4h-4.3"/><path class="st3" d="M1200.8 262.5h-1.9"/><path class="st4" d="M1197.5 262.5H894.6"/><path class="st2" d="M893.2 262.5H889m-118.5 0h-4.2"/><path fill="none" stroke="#000" stroke-width=".283" stroke-linecap="round" stroke-linejoin="round" stroke-dasharray=".577,2.885" d="M763.4 262.5h-2"/><path fill="none" stroke="#000" stroke-width=".283" stroke-linecap="round" stroke-linejoin="round" stroke-dasharray="8.655,2.885,.577,2.885" d="M759.9 262.5H566.3"/><path class="st2" d="M564.9 262.5h-4.2M878.3 444v-4.3"/><path class="st7" d="M878.3 437.8v-1.3"/><path class="st8" d="M878.3 435.5v-9"/><path class="st2" d="M878.3 425.6v-4.3m11.4 11.3h-4.3"/><path class="st7" d="M883.5 432.6h-1.3"/><path class="st8" d="M881.2 432.6h-9"/><path class="st2" d="M871.3 432.6H867m-278.2-13.1v-4.3"/><path fill="none" stroke="#000" stroke-width=".283" stroke-linecap="round" stroke-linejoin="round" stroke-dasharray=".738,3.692" d="M588.8 411.5V409"/><path class="st2" d="M588.8 407.1v-4.2m17 17h-4.3"/><path fill="none" stroke="#000" stroke-width=".283" stroke-linecap="round" stroke-linejoin="round" stroke-dasharray=".873,4.363" d="M597.2 419.9h-3.1"/><path class="st2" d="M591.9 419.9h-4.2m652 0h-4.3"/><path fill="none" stroke="#000" stroke-width=".283" stroke-linecap="round" stroke-linejoin="round" stroke-dasharray=".297,1.483" d="M1233.9 419.9h-1"/><path fill="none" stroke="#000" stroke-width=".283" stroke-linecap="round" stroke-linejoin="round" stroke-dasharray="4.448,1.483,.297,1.483" d="M1232.1 419.9h-6.9"/><path class="st2" d="M1224.4 419.9h-4.2m-1167.8 0h-4.3"/><path fill="none" stroke="#000" stroke-width=".283" stroke-linecap="round" stroke-linejoin="round" stroke-dasharray=".316,1.582" d="M46.5 419.9h-1.1"/><path fill="none" stroke="#000" stroke-width=".283" stroke-linecap="round" stroke-linejoin="round" stroke-dasharray="4.747,1.582,.316,1.582" d="M44.6 419.9h-7.4"/><path class="st2" d="M36.4 419.9h-4.2m192.3 33.3v-4.3"/><path class="st15" d="M224.5 446.1v-2"/><path class="st16" d="M224.5 442.7V77.6"/><path class="st2" d="M224.5 76.2v-4.3m190.7 190.6h-4.3"/><path class="st15" d="M408.1 262.5h-2"/><path class="st16" d="M404.7 262.5H39.6"/><path class="st2" d="M38.2 262.5h-4.3M1218.5 444v-4.3"/><path class="st7" d="M1218.5 437.8v-1.3"/><path class="st8" d="M1218.5 435.5v-9"/><path class="st2" d="M1218.5 425.6v-4.3m11.4 11.3h-4.3"/><path class="st7" d="M1223.7 432.6h-1.3"/><path class="st8" d="M1221.4 432.6h-9"/><path class="st2" d="M1211.5 432.6h-4.3m11.3-328.8v-4.3"/><path class="st7" d="M1218.5 97.6v-1.3"/><path class="st8" d="M1218.5 95.3v-9"/><path class="st2" d="M1218.5 85.4v-4.3m11.4 11.4h-4.3"/><path class="st7" d="M1223.7 92.5h-1.3"/><path class="st8" d="M1221.4 92.5h-9"/><path class="st2" d="M1211.5 92.5h-4.3m-328.9 11.3v-4.3"/><path class="st7" d="M878.3 97.6v-1.3"/><path class="st8" d="M878.3 95.3v-9"/><path class="st2" d="M878.3 85.4v-4.3m11.4 11.4h-4.3"/><path class="st7" d="M883.5 92.5h-1.3"/><path class="st8" d="M881.2 92.5h-9"/><path class="st2" d="M871.3 92.5H867M54.4 444v-4.3"/><path class="st7" d="M54.4 437.8v-1.3"/><path class="st8" d="M54.4 435.5v-9"/><path class="st2" d="M54.4 425.6v-4.3m11.4 11.3h-4.3"/><path class="st7" d="M59.6 432.6h-1.3"/><path class="st8" d="M57.3 432.6h-9"/><path class="st2" d="M47.4 432.6h-4.3M394.6 444v-4.3"/><path class="st7" d="M394.6 437.8v-1.3"/><path class="st8" d="M394.6 435.5v-9"/><path class="st2" d="M394.6 425.6v-4.3m11.4 11.3h-4.3"/><path class="st7" d="M399.8 432.6h-1.3"/><path class="st8" d="M397.5 432.6h-9"/><path class="st2" d="M387.6 432.6h-4.3m11.3-328.8v-4.3"/><path class="st7" d="M394.6 97.6v-1.3"/><path class="st8" d="M394.6 95.3v-9"/><path class="st2" d="M394.6 85.4v-4.3M406 92.5h-4.3"/><path class="st7" d="M399.8 92.5h-1.3"/><path class="st8" d="M397.5 92.5h-9"/><path class="st2" d="M387.6 92.5h-4.3M54.4 103.8v-4.3"/><path class="st7" d="M54.4 97.6v-1.3"/><path class="st8" d="M54.4 95.3v-9"/><path class="st2" d="M54.4 85.4v-4.3m11.4 11.4h-4.3"/><path class="st7" d="M59.6 92.5h-1.3"/><path class="st8" d="M57.3 92.5h-9"/><path class="st2" d="M47.4 92.5h-4.3"/><text transform="translate(878.338 511.747)" class="st17 st18">Ø 200 (Luminous area)</text><text transform="translate(212.113 477.729)" class="st17 st19">240</text><text transform="translate(11.599 491.048)" class="st17 st19">8</text><text transform="translate(212.113 511.747)" class="st17 st19">250</text><text transform="translate(662.46 514.747)"><tspan x="0" y="0" class="st17 st19" letter-spacing="-1">1</tspan><tspan x="7.2" y="0" class="st17 st19">13</tspan></text><text transform="rotate(-90 494.542 -56.162)" class="st17 st19">14</text><text transform="translate(412.308 477.726)" class="st17 st19">5</text><text transform="rotate(-90 354.325 -79.339)" class="st17 st19">240</text><text transform="rotate(-90 367.082 -92.096)" class="st17 st19">250</text><text transform="rotate(-90 446.303 12.638)" class="st17 st19">5</text><text transform="translate(551.562 514.448)" class="st17 st19">12</text><text transform="translate(606.655 464.35)" class="st17 st19">6</text><text transform="translate(106.432 51.383)" class="st17 st21">4</text><text transform="translate(118.942 51.383)" class="st17 st21">× Ø 8, 4.4 deep</text><text transform="translate(88.027 18.458)" class="st17 st21">4</text><text transform="translate(100.537 18.458)" class="st17 st21">× M5</text><text transform="translate(254.788 231.517)" class="st17 st19">Ø</text><text transform="translate(270.627 231.517)" class="st17 st19">30</text><text transform="translate(1136.584 531.93)" class="st17 st18">Not to scale</text><text transform="translate(1136.584 549.93)" class="st17 st18">Dimensions in mm</text></svg>