<svg xmlns="http://www.w3.org/2000/svg" viewBox="0 0 680.3 453.5" style="enable-background:new 0 0 680.3 453.5;background-color:#fff" xml:space="preserve"><style>.st0,.st1{stroke-miterlimit:10}.st0{fill:none;stroke:#000;stroke-width:.4252;stroke-linecap:round;stroke-linejoin:round}.st1{stroke-width:.2835}.st1,.st10,.st11,.st13,.st2,.st3,.st4,.st5,.st6,.st8,.st9{fill:none;stroke:#000;stroke-linecap:round;stroke-linejoin:round}.st2{stroke-width:.283;stroke-miterlimit:10}.st10,.st11,.st13,.st3,.st4,.st5,.st6,.st8,.st9{stroke-width:.2835}.st4{stroke-dasharray:.658,3.2902}.st5{stroke-dasharray:9.8707,3.2902,.658,3.2902}.st6{stroke-dasharray:6.1062}.st8{stroke-dasharray:4.3487}.st9{stroke-dasharray:8.1539}.st10{stroke-dasharray:.3328,1.6642}.st11{stroke-dasharray:.4005,2.0024}.st13{stroke-dasharray:6.4397}.st17{font-family:Helvetica,Arial,sans-serif}.st18{font-size:9px}.st19{font-size:14.9998px}</style><g id="BCLB-10x100"><path class="st0" d="M50.9 24.8v93.5h0c0 4.9 4 8.9 8.9 8.9h425.3c4.9 0 8.9-4 8.9-8.9V24.8c0-4.9-4-8.9-8.9-8.9H59.9c-5 0-9 4-9 8.9"/><path class="st0" d="M485.1 14.2H59.9c-5.9 0-10.7 4.8-10.7 10.6h0v93.5h0c0 5.9 4.8 10.6 10.6 10.6h425.3c5.9 0 10.6-4.8 10.6-10.6v0-93.5 0c.1-5.9-4.7-10.6-10.6-10.6h0z"/><path class="st0" d="M487.3 21.7H57.7v99.9h429.6V21.7M59.9 210.9v48.8m-10.7-48.8v48.8h10.7m11.7-58v9.2m36.1 0v-9.2h4.3v9.2m-15.9 0v-9.2h11.6"/><path class="st0" d="M87.4 210.9v-9.2h8.7m-20.2 9.2v-9.2h11.5m-15.8 0h4.3m3.1-27.6h25.6M79 195.3h25.6m-5.8 6.4-1.9-1.4-1.8-1-1.7-.6-1.7-.1-1.6.1-1.6.6-1.8 1-1.9 1.4m19.8-27.6v21.2M79 174.1v21.2m25.6 0 3.1 6.4M79 195.3l-3.2 6.4m196.3 117.9c-1.9 0-3.4 1.5-3.4 3.4s1.5 3.4 3.4 3.4 3.4-1.5 3.4-3.4c.1-1.8-1.5-3.4-3.4-3.4m-212.5 0c-1.9 0-3.4 1.5-3.4 3.4s1.5 3.4 3.4 3.4 3.4-1.5 3.4-3.4c.1-1.8-1.5-3.4-3.4-3.4m0 93.6c-1.9 0-3.4 1.5-3.4 3.4s1.5 3.4 3.4 3.4 3.4-1.5 3.4-3.4c.1-1.9-1.5-3.4-3.4-3.4m425.7-93.6c1.9 0 3.4 1.5 3.4 3.4s-1.5 3.4-3.4 3.4-3.4-1.5-3.4-3.4 1.5-3.4 3.4-3.4m0 93.6c1.9 0 3.4 1.5 3.4 3.4s-1.5 3.4-3.4 3.4-3.4-1.5-3.4-3.4 1.5-3.4 3.4-3.4m-213.2 0c-1.9 0-3.4 1.5-3.4 3.4s1.5 3.4 3.4 3.4 3.4-1.5 3.4-3.4c.1-1.9-1.5-3.4-3.4-3.4m213 14.1c5.9 0 10.7-4.8 10.7-10.7m0 .1v-93.6m0 0c0-5.9-4.7-10.6-10.6-10.6m-.1 0H59.6m0 0c-5.9 0-10.7 4.8-10.7 10.7m0-.1v93.6m.1-.1c0 5.9 4.7 10.6 10.6 10.6m0 .1h425.5m-203.9-88.2c0-4.6-4.5-8.3-9-8.3m-.1 78.2c4.6 0 9-3.7 9-8.3M59.6 330.8c-4.6 0-8.3 3.7-8.3 8.3m0 61.7v-61.7m0 61.6c0 4.6 3.7 8.3 8.3 8.3m212.6 0H59.6m221.6-69.9v61.7m-221.6-70h212.6M71.3 363.2v13.4m40.4-13.3c-.9-2.8-2.4-5.3-4.3-7.5l-11.5-6.6c-2.9-.6-5.8-.6-8.7 0l-11.5 6.6c-2 2.2-3.4 4.7-4.4 7.5m40.4 13.3v-13.4m-40.4 13.3c.9 2.8 2.4 5.3 4.3 7.5l11.5 6.6c2.9.6 5.8.6 8.7 0l11.5-6.6c2-2.2 3.4-4.7 4.4-7.5"/><path class="st0" d="M91.5 359.3c-5.9 0-10.6 4.7-10.6 10.6 0 5.9 4.7 10.6 10.6 10.6 5.9 0 10.6-4.7 10.6-10.6 0-5.8-4.7-10.6-10.6-10.6"/><path class="st0" d="M78.7 369.9c0 7 5.7 12.8 12.8 12.8 7 0 12.8-5.7 12.8-12.8s-5.7-12.8-12.8-12.8c-7 0-12.8 5.8-12.8 12.8m5.9-14.4h13.9"/><path class="st0" d="M84.5 355.5c-5.5 2.7-9 8.3-9 14.4s3.5 11.7 9 14.4m.1 0h13.9m0 0c5.5-2.7 9-8.3 9-14.4s-3.5-11.7-9-14.4"/><path class="st0" d="M84.1 368.9c-.6 0-1 .5-1 1 0 .6.5 1 1 1 .6 0 1-.5 1-1 0-.6-.5-1-1-1m7.4 7.4c-.6 0-1 .5-1 1 0 .6.5 1 1 1 .6 0 1-.5 1-1s-.4-1-1-1m7.4-7.4c-.6 0-1 .5-1 1 0 .6.5 1 1 1 .6 0 1-.5 1-1 0-.6-.4-1-1-1m-7.4 0c-.6 0-1 .5-1 1 0 .6.5 1 1 1 .6 0 1-.5 1-1 0-.6-.4-1-1-1m0-7.4c-.6 0-1 .5-1 1 0 .6.5 1 1 1 .6 0 1-.5 1-1 0-.6-.4-1-1-1M599.3 129V14.2h48.9v10.5m0 0h-48.9"/><path class="st0" d="M618.5 29.9c-1.9 0-3.4 1.5-3.4 3.4s1.5 3.4 3.4 3.4 3.4-1.5 3.4-3.4-1.5-3.4-3.4-3.4m0 76.5c-1.9 0-3.4 1.5-3.4 3.4s1.5 3.4 3.4 3.4 3.4-1.5 3.4-3.4-1.5-3.4-3.4-3.4m29.7-81.7v93.6m-48.9 0h48.9M599.3 129h48.9v-10.7m-48.9-40.1h-9.1V65h9.1m0 20.8h-9.1v-7.6m0 14.2v-6.6m0 7v-.4m9.1-35h-9.1v-7.2m0 14.8v-7.6m-27.7 26.9V58.8m21.3 25.5V58.8m3.1 27.1h3.3m-3.3-28.6h3.3m0 35.5h9.1m-9.1-42.6h9.1m-36.8 8.6h21.3m-21.3 25.5h21.3m0-25.5 3.1-1.5m-3.1 27 3.1 1.6"/></g><g id="eingefügt"><path class="st1" d="M49.2 210.9h10.5M485 259.7h10.5v-48.8H485m0 48.8v-48.8m-14.9 0v12.7h4.1v-12.7H485m0 48.8H59.7m0-48.8h231.7v12.7m0 0h4.3v-12.7h4.3v12.7h4.4v-12.7h4v12.7h4.3v-12.7h4.3v12.7h4.4v-12.7h4v12.7h4.3v-12.7h4.4v12.7h4.3v-12.7h4v12.7h4.3v-12.7h4.4v12.7h4.3v-12.7h4v12.7h4.4v-12.7h4.3v12.7h4.3v-12.7h4v12.7h4.4v-12.7h4.3v12.7h4.3v-12.7h4.1v12.7h4.3v-12.7h4.3v12.7h4.3v-12.7h4.1v12.7h4.3v-12.7h4.3v12.7h4.1v-12.7h4.3v12.7h4.3v-12.7h4.3v12.7h4.1v-12.7h4.3v12.7h4.3v-12.7h4.3v12.7h4.1v-12.7h4.3v12.7h4.3m.3 9.5c0-1.3-1-2.3-2.3-2.3-1.3 0-2.3 1-2.3 2.3 0 1.3 1 2.3 2.3 2.3 1.3 0 2.3-1 2.3-2.3m-191.4 0c0-1.3-1-2.3-2.3-2.3-1.3 0-2.3 1-2.3 2.3 0 1.3 1 2.3 2.3 2.3 1.2 0 2.3-1 2.3-2.3m-191.5 0c0-1.3-1-2.3-2.3-2.3-1.3 0-2.3 1-2.3 2.3 0 1.3 1 2.3 2.3 2.3 1.3 0 2.3-1 2.3-2.3"/><path class="st1" d="M465.8 223.6v-12.7h4.3"/><path class="st0" d="M470.4 312.5v114.8m4 0V312.5m-182.7 0v114.8m170.1-114.8v114.8m-4.4-114.8v114.8m-4-114.8v114.8m-4.3-114.8v114.8m-4.4-114.8v114.8m-4.3-114.8v114.8m-4-114.8v114.8m-4.3-114.8v114.8m-4.4-114.8v114.8m-4.3-114.8v114.8m-4-114.8v114.8M415 312.5v114.8m-4.3-114.8v114.8m-4-114.8v114.8m-4.3-114.8v114.8M398 312.5v114.8m-4.3-114.8v114.8m-4-114.8v114.8m-4.4-114.8v114.8M381 312.5v114.8m-4.3-114.8v114.8m-4-114.8v114.8m-4.4-114.8v114.8M364 312.5v114.8m-4.3-114.8v114.8m-4.1-114.8v114.8m-4.3-114.8v114.8M347 312.5v114.8m-4.3-114.8v114.8m-4.1-114.8v114.8m-4.3-114.8v114.8M330 312.5v114.8m-4.3-114.8v114.8m-4.1-114.8v114.8m-4.3-114.8v114.8M313 312.5v114.8m-4.3-114.8v114.8m-4.1-114.8v114.8m-4.3-114.8v114.8M296 312.5v114.8m170.1-114.8v114.8"/></g><g id="Dimensions"><path class="st2" d="M648.3 129h18.9m-48.6-19.2h48.6m-48.6-76.5h48.6m-48.6 76.6v37.3"/><path class="st3" d="M643.3 162.6h-38.9"/><path d="m642.2 161 6.1 1.6-6.1 1.7zm-36.7 0-6.1 1.6 6.1 1.7z"/><path class="st3" d="M643.3 145.3h-19.6"/><path d="m642.2 143.6 6.1 1.7-6.1 1.6zm-17.4 0-6.1 1.7 6.1 1.6z"/><path class="st3" d="M666.7 114.9v9"/><path d="m665.1 116 1.6-6.1 1.6 6.1zm0 6.8 1.6 6.2 1.6-6.2z"/><path class="st3" d="M666.7 38.3v66.5"/><path d="m665.1 39.5 1.6-6.2 1.6 6.2zm0 64.2 1.6 6.1 1.6-6.1z"/><path class="st2" d="M552.7 129h46.8m-46.8-57.5h17.9"/><path class="st3" d="M554.2 76.5V124"/><path d="m552.6 77.7 1.6-6.2 1.7 6.2zm0 45.1 1.6 6.2 1.7-6.2z"/><path class="st2" d="M599.4 123.7v41.1m48.9-41.1v41.1M60.3 129H30.7"/><path class="st3" d="M33.7 123.9V19.2"/><path d="m35.4 122.8-1.7 6.1-1.6-6.1zm0-102.4-1.7-6.2-1.6 6.2z"/><path class="st2" d="M59.6 416.6H30.7M59.6 449H48.7m10.6-125.9H30.7"/><path class="st3" d="M33 411.8V328"/><path d="m34.7 410.7-1.7 6.1-1.6-6.1zm0-81.6L33 323l-1.6 6.1z"/><path class="st2" d="M59.9 14.2h-29m221.7 155.3-45.4-66.8"/><path class="st3" d="m610.8 37.2-15.5 8.2h-67.1"/><path d="m609 36.3 6.2-1.5-4.6 4.4z"/><path class="st3" d="m267.7 228-23.5-26.3h-53.5"/><path d="m268.2 226.1 2.9 5.6-5.3-3.4z"/><path class="st3" d="m278.3 317.1 10.8-10.7h71.5"/><path d="m280.3 317.5-5.5 3.2 3.1-5.5z"/><path class="st2" d="M496 118.6v25.2M49.2 118.2v25.7m0 115.8V279"/><path class="st3" d="M491 141.6H54.2"/><path d="m489.9 139.9 6.1 1.7-6.1 1.6zm-434.5 0-6.2 1.7 6.2 1.6z"/><path class="st2" d="M272.5 232.9v46.8M81.1 233v46.8"/><path class="st3" d="M76.1 277.5h-22"/><path d="m75 275.8 6.1 1.7-6.1 1.6zm-19.7 0-6.2 1.7 6.2 1.6z"/><path class="st3" d="M267.7 277.5H86.1"/><path d="m266.6 275.8 6.2 1.7-6.2 1.6zm-179.3 0-6.2 1.7 6.2 1.6z"/><path class="st2" d="M463.8 233v46.8"/><path class="st3" d="M277.2 277.5h181.6"/><path d="m278.3 279.1-6.1-1.6 6.1-1.7zm179.4 0 6.1-1.6-6.1-1.7z"/><path class="st2" d="M49 416.5v34.8m223.1-34.7v34.6M59.6 416.6v34.7"/><path class="st3" d="M43.6 449h-7.3"/><path d="m42.5 447.3 6.2 1.7-6.2 1.6z"/><path class="st2" d="M33.1 416.6v11m26.8-.1H30.8"/><path class="st3" d="M33.1 432.6v7.3"/><path d="m31.5 433.7 1.6-6.1 1.6 6.1z"/><path class="st3" d="M267.1 449H64.9"/><path d="m266 447.3 6.1 1.7-6.1 1.6zm-200 0-6.2 1.7 6.2 1.6z"/><path class="st2" d="M484.6 416.6v34.7"/><path class="st3" d="M277.2 449h202.2"/><path d="m278.3 450.6-6.1-1.6 6.1-1.7zm200 0 6.1-1.6-6.1-1.7z"/><path class="st2" d="M81.1 233.3H33.3m16 26.4H15.9"/><path class="st3" d="M33.7 254.6v-16.2"/><path d="m35.4 253.5-1.7 6.2-1.6-6.2zm0-14-1.7-6.2-1.6 6.2z"/><path class="st2" d="M79 174H15.9m33.4 36.8h-16"/><path class="st3" d="M33.7 205.7v-26.6"/><path d="m35.4 204.6-1.7 6.2-1.6-6.2zm0-24.3-1.7-6.2-1.6 6.2z"/><path class="st3" d="M16.7 254.3v-75.2"/><path d="m18.4 253.2-1.7 6.1-1.6-6.1zm0-72.9-1.7-6.2-1.6 6.2z"/><path class="st2" d="M49.2 211v-45.8m42.6 16v-16"/><path class="st3" d="M86.6 166H54.4"/><path d="m85.5 164.4 6.1 1.6-6.1 1.7zm-30 0-6.2 1.6 6.2 1.7z"/></g><g id="Middle_Lines"><path class="st3" d="M91.8 181.2v4.2"/><path class="st4" d="M91.8 188.7v2.3"/><path class="st5" d="M91.8 192.7v15.4"/><path class="st3" d="M91.8 209.8v4.2"/><path class="st6" d="M81 233.3v-6.1"/><path class="st3" d="M90.6 233.3h-4.3"/><path style="fill:none;stroke:#000;stroke-width:.2835;stroke-linecap:round;stroke-linejoin:round;stroke-dasharray:.1009,.5046" d="M85.8 233.3h-.3"/><path class="st3" d="M85.2 233.3H81"/><path class="st8" d="M272.3 233.3v-4.4"/><path class="st9" d="M268.3 233.3h8.1"/><path class="st8" d="M463.7 233.3v-4.4"/><path class="st9" d="M459.7 233.3h8.2"/><path class="st6" d="M59.3 323h6.1"/><path class="st3" d="M59.3 329.1v-4.3"/><path class="st10" d="M59.3 323.1V322"/><path class="st3" d="M59.3 321.1v-4.2m212.8 12.2v-4.3"/><path class="st10" d="M272.1 323.1V322"/><path class="st3" d="M272.1 321.1v-4.2m6.8 6.1h-4.2"/><path class="st11" d="M272.7 323h-1.4"/><path class="st3" d="M270.3 323H266"/><path style="fill:none;stroke:#000;stroke-width:.2835;stroke-linecap:round;stroke-linejoin:round;stroke-dasharray:6.1652" d="M272.1 416.6v-6.2"/><path class="st3" d="M278.9 416.5h-4.2"/><path class="st11" d="M272.7 416.5h-1.4"/><path class="st3" d="M270.3 416.5H266"/><path class="st6" d="M59.6 416.6h6.1"/><path class="st13" d="M59.6 416.6v-6.4"/><path class="st6" d="M485.7 323h-6.1"/><path class="st3" d="M485.7 329.1v-4.3"/><path class="st10" d="M485.7 323.1V322"/><path class="st3" d="M485.7 321.1v-4.2"/><path class="st6" d="M485.4 416.6h-6.1"/><path class="st13" d="M485.4 416.6v-6.4"/><path class="st3" d="M618.5 39.4v-4.3"/><path class="st10" d="M618.5 33.5v-1.2"/><path class="st3" d="M618.5 31.5v-4.3"/><path style="fill:none;stroke:#000;stroke-width:.2835;stroke-linecap:round;stroke-linejoin:round;stroke-dasharray:6.0826" d="M618.5 33.3h-6.1"/><path style="fill:none;stroke:#000;stroke-width:.2835;stroke-linecap:round;stroke-linejoin:round;stroke-dasharray:6.0897" d="M618.5 109.8v-6"/><path style="fill:none;stroke:#000;stroke-width:.2835;stroke-linecap:round;stroke-linejoin:round;stroke-dasharray:6.0205" d="M618.5 109.8h-6.1"/><path class="st3" d="M570.5 71.5h4.3"/><path class="st4" d="M578 71.5h2.3"/><path class="st5" d="M582 71.5h15.5"/><path class="st3" d="M599.1 71.5h4.3"/></g><g id="Text_1_"><text transform="rotate(-90 325.728 -224.09)" class="st17 st18">27</text><text transform="rotate(-90 392.796 -270.973)" class="st17 st18">9</text><text transform="rotate(-90 370.136 -293.634)" class="st17 st18">36</text><text transform="translate(628.415 142.869)" class="st17 st18">14</text><text transform="translate(619.92 160.43)" class="st17 st18">23</text><text transform="rotate(-90 51.724 22.891)" class="st17 st18">54</text><text transform="translate(256.337 174.597)" class="st17 st18">45 x 200 (Luminous area)</text><text transform="translate(191.36 198.194)" class="st17 st18">6 × M2.5, 5 deep</text><text transform="translate(528.632 42.546)" class="st17 st18">4 × M4, 8 deep</text><text transform="translate(290.849 302.745)" class="st17 st18">6 × M4, 7.3 deep</text><text transform="translate(170.487 275.286)" class="st17 st18">90</text><text transform="translate(367.575 275.286)" class="st17 st18">90</text><text transform="translate(59.779 275.286)" class="st17 st18">15</text><text transform="translate(264.28 139.622)" class="st17 st18">210</text><text transform="translate(65.367 162.161)" class="st17 st18">20</text><text transform="rotate(-90 113.243 84.127)" class="st17 st18">17</text><text transform="rotate(-90 120.278 108.6)" class="st17 st18">(40.3)</text><text transform="rotate(-90 142.145 113.03)" class="st17 st18">12.5</text><text transform="rotate(-90 202.397 172.43)" class="st17 st18">44</text><text transform="rotate(-90 227.15 197.183)" class="st17 st18">5</text><text transform="translate(51.839 445.134)" class="st17 st18">5</text><text transform="translate(147.708 445.134)" class="st17 st18">100</text><text transform="translate(377.762 445.134)" class="st17 st18">100</text><text transform="translate(545.837 429.663)" class="st17 st19">Not to scale</text><text transform="translate(545.837 447.663)" class="st17 st19">Dimensions in mm</text></g></svg>