<svg xmlns="http://www.w3.org/2000/svg" viewBox="0 0 2154.3 510.2" style="enable-background:new 0 0 2154.3 510.2;background-color:#fff" xml:space="preserve"><style>.st0{stroke-width:.4252;stroke-miterlimit:10}.st0,.st1,.st2,.st3,.st4,.st5,.st6,.st7,.st8{fill:none;stroke:#000;stroke-linecap:round;stroke-linejoin:round}.st1{stroke-width:.283;stroke-miterlimit:10}.st2,.st3,.st4,.st5,.st6,.st7,.st8{stroke-width:.2835}.st3{stroke-dasharray:.5536,2.7678}.st4{stroke-dasharray:8.3033,2.7678,.5536,2.7678}.st5{stroke-dasharray:.7015,3.5074}.st6{stroke-dasharray:.6469,3.2347}.st7{stroke-dasharray:9.704,3.2347,.6469,3.2347}.st8{stroke-dasharray:.7587,3.7937}.st9{font-family:Helvetica,Arial,sans-serif}.st10{font-size:14px}.st11{font-size:14.9998px}</style><g id="BCLB"><path class="st0" d="M71.8 76.6V122v-.1c0 13.2 10.7 23.8 23.8 23.9h1700.9c13.2 0 23.7-10.6 23.7-23.8V76.6c0-13.2-10.6-23.8-23.8-23.8H95.8c-13.2.1-24 10.6-24 23.8"/><path class="st0" d="M1796.5 48.2H95.8c-15.7 0-28.4 12.7-28.4 28.3V122v-.1c0 15.7 12.7 28.3 28.3 28.4h1700.9c15.7 0 28.3-12.7 28.4-28.3v.1-45.6c-.1-15.6-12.8-28.3-28.5-28.3h0z"/><path class="st0" d="M1802.2 68.2H90v62.2h1712.2V68.2m231.5 8.4V48.2h-113.4v28.4m113.4 0h-113.4m0 0v73.6m113.4-28.2v28.2M1920.3 122h113.4m0 28.2h-113.4m113.4-73.6V122m-56.6-31.3c-4.7 0-8.5 3.8-8.5 8.5s3.8 8.5 8.5 8.5 8.5-3.8 8.5-8.5-3.8-8.5-8.5-8.5"/><path class="st0" d="M1977.1 110.6c6.3 0 11.3-5.1 11.3-11.3 0-6.3-5.1-11.3-11.3-11.3m0-.1c-6.3 0-11.3 5.1-11.3 11.3M95.8 280.5v113.2m1621.5-51c0-3.2-2.6-5.9-5.8-5.9-3.2 0-5.9 2.6-5.9 5.8s2.6 5.9 5.8 5.9 5.9-2.6 5.9-5.8m-1020.4 0c0-3.2-2.6-5.9-5.8-5.9-3.2 0-5.9 2.6-5.9 5.8 0 3.2 2.6 5.9 5.8 5.9 3.3 0 5.9-2.6 5.9-5.8m-510.2 0c0-3.2-2.6-5.9-5.8-5.9s-5.9 2.6-5.9 5.8 2.6 5.9 5.8 5.9 5.9-2.6 5.9-5.8m1020.4 0c0-3.2-2.6-5.9-5.8-5.9s-5.9 2.6-5.9 5.8 2.6 5.9 5.8 5.9 5.9-2.6 5.9-5.8m589.4 51V280.5"/><path class="st0" d="M67.3 281.2h1757.6v113.2H67.3zm116.4-1.5h0V270m-13 0 6.5-.7 6.5.7m-13 0v10.5m-5.1 0V270h5.1m-31.4 0 13.4-.7 12.9.7m-26.3 0v10.5m0-10.5h-5v10.5m-13-10.5 6.5-.7 6.5.7m-13 0h0v9.7m48.7-45h-35m37.1 7.2h-39.3m38.2 4.3h-37.1M171 252h-37.1m41.5 4H130m45.4 5.7H130m41 4.3h-37.1m49.8 14.5V270m-62.4 10.5V270m49.7-34.3c-.1-.6-.6-1-1.2-1m-34.6 0c-.6 0-1.1.4-1.2 1m37 .1 1.1 6.1m-38.2-6.1-1.1 6.1v2.9m39.3 0v-2.9m-38.2 4.3-1.1-1.4m38.2 1.4 1.1-1.4m-38.2 7.2v-5.8m41.5 9.8-4.4-4v-5.8m-37.1 5.8-3.9 4v5.7m45.4 0V256m-41.5 10-3.9-4.3m41 4.3 4.4-4.3m-4.4 6.2V266"/><path class="st0" d="M171 267.9c0 .7.6 1.3 1.3 1.3l4.9.2m-43.3-3.4v1.8c0 .7-.6 1.3-1.3 1.3l-4.9.2M1919.6 68h0-9.8m0 13-.7-6.5.7-6.5m0 13h10.5m0 5.1h-10.5V81m0 31.4-.7-13.4.7-12.9m0 26.3h10.5m-10.5 0v5h10.5m-10.5 13-.7-6.5.7-6.5m0 13h9.8m-45.1-48.7v35m7.2-37.1v39.3m4.4-38.3v37.2m5.7-37.2v37.2m4-41.5v45.4m5.8-45.4v45.4m4.3-41.1v37.2m14.4-49.8h-10.5m10.5 62.4h-10.5m-34.2-49.7c-.6.1-1 .6-1 1.2m-.1 34.6c0 .6.4 1.1 1 1.2m.1-37.1 6.1-1m-6.1 38.2 6.1 1.1h2.9m0-39.3h-2.9m4.4 38.2-1.5 1.1m1.5-38.3-1.5-1m7.2 38.2h-5.7m9.7-41.5-4 4.3h-5.7m5.7 37.2 4 3.9h5.8m0-45.4h-5.8m10.1 41.5-4.3 3.9m4.3-41.1-4.3-4.3m6.1 4.3h-1.8"/><path class="st0" d="M1907.7 80.6c.7 0 1.3-.6 1.3-1.3l.2-4.9m-3.3 43.4h1.8c.7 0 1.3.6 1.3 1.3l.2 4.9"/></g><g id="Dimensions"><path class="st1" d="M2033.7 150.2h37.3m-93.9-51h93.9m-93.9.1v85.2"/><path class="st2" d="M2026.2 223.9h-144.1"/><path d="m2024.5 221.4 9.2 2.5-9.2 2.4zm-140.8 0-9.2 2.5 9.2 2.4z"/><path class="st2" d="M2026.2 181.3h-41.6"/><path d="m2024.5 178.9 9.2 2.4-9.2 2.5zm-38.2 0-9.2 2.4 9.2 2.5z"/><path class="st2" d="M2067.6 106.7v36"/><path d="m2065.2 108.4 2.4-9.2 2.5 9.2zm0 32.6 2.4 9.2 2.5-9.2z"/><path class="st1" d="M1874.5 116.5V228m159.2-77.8V228M67.4 394.3H16.9m50.5-113.8H16.9"/><path class="st2" d="M23.1 386.3V288"/><path d="m25.5 384.6-2.4 9.2-2.5-9.2zm0-94.9-2.4-9.2-2.5 9.2z"/><path class="st2" d="M23.1 228v-29.7"/><path d="m25.5 226.3-2.4 9.2-2.5-9.2z"/><path class="st1" d="M23.1 279.9v-44.4m110.9-.7H17.5M930.3 177l31.7-70.2"/><path class="st2" d="m1982.3 93.7 53.8-57.2h99"/><path d="m1985.2 94.2-8.1 5 4.5-8.4z"/><path class="st1" d="M92.3 149.9H16.9M95.7 48.4H16.9"/><path class="st2" d="M23.1 141.8V55.9"/><path d="m25.5 140.1-2.4 9.2-2.5-9.2zm0-82.5-2.4-9.2-2.5 9.2z"/><path class="st1" d="M1824.9 393.4v81.7M67.3 393.7v81.7"/><path class="st2" d="M1817.4 469.2H74.9"/><path d="m1815.7 466.7 9.2 2.5-9.2 2.5zm-1739.1 0-9.3 2.5 9.3 2.5z"/><path class="st1" d="M691 342.4v104.4M67.3 365.3V447"/><path class="st2" d="M1193.7 440.8H698.6"/><path d="m1192 438.4 9.2 2.4-9.2 2.5zm-491.8 0-9.2 2.4 9.2 2.5z"/><path class="st2" d="M682.3 440.8H189.2"/><path d="m680.6 438.4 9.2 2.4-9.2 2.5zm-489.7 0-9.3 2.4 9.3 2.5z"/><path class="st1" d="M67.4 280.5V201m85 33.7V201"/><path class="st2" d="M75.2 207.2h69.7"/><path d="m76.9 209.7-9.2-2.5 9.2-2.5zm66.3 0 9.2-2.5-9.2-2.5z"/><path class="st1" d="M180.8 342.4v104.4m1020.4-104.4v104.4m510.2-104.4v104.4"/><path class="st2" d="M1703.9 440.8h-495.1"/><path d="m1702.2 438.4 9.3 2.4-9.3 2.5zm-491.7 0-9.2 2.4 9.2 2.5z"/><path class="st1" d="M95.8 379.5V447"/><path class="st2" d="M173.3 440.8h-69.9"/><path d="m171.6 438.4 9.2 2.4-9.2 2.5zm-66.5 0-9.3 2.4 9.3 2.5z"/><path class="st2" d="m186.1 338.1 80-82.9h123.8"/><path d="m189 338.6-8.2 4.9 4.7-8.3z"/><path class="st1" d="M180.7 342.6H45.2"/><path class="st2" d="M51.4 385.7v-34.8"/><path d="m53.9 384.1-2.5 9.2-2.5-9.2zm0-31.5-2.5-9.2-2.5 9.2z"/></g><g id="Middle_Lines"><path class="st2" d="M152.5 229v4.2"/><path class="st3" d="M152.5 236v1.9"/><path class="st4" d="M152.5 239.3v41.8"/><path class="st2" d="M152.5 282.5v4.3m44.5 55.8h-4.2"/><path class="st5" d="M189.3 342.6h-2.5"/><path class="st2" d="M185.1 342.6h-4.3m1546.8 0h-4.2"/><path class="st6" d="M1720.1 342.6h-2.2"/><path class="st7" d="M1716.3 342.6h-15.2"/><path class="st2" d="M1699.4 342.6h-4.2m-1004.2.6V339"/><path class="st8" d="M691 335.2v-2.7"/><path class="st2" d="M691 330.6v-4.2m16.2 16.2H703"/><path class="st6" d="M699.8 342.6h-2.3"/><path class="st7" d="M695.9 342.6h-15.2"/><path class="st2" d="M679.1 342.6h-4.3m542.6 0h-4.2"/><path class="st6" d="M1209.9 342.6h-2.2"/><path class="st7" d="M1206.1 342.6h-15.2"/><path class="st2" d="M1189.2 342.6h-4.2m677.5-243.5h4.3"/><path class="st3" d="M1869.5 99.1h2"/><path class="st4" d="M1872.9 99.1h41.8"/><path class="st2" d="M1916 99.1h4.3m56.8.1V95"/><path class="st5" d="M1977.1 91.5V89"/><path class="st2" d="M1977.1 87.2V83m0 16.2h-4.3"/><path class="st5" d="M1969.3 99.2h-2.4"/><path class="st2" d="M1965.1 99.2h-4.2m-1780.1 244V339"/><path class="st8" d="M180.8 335.2v-2.7"/><path class="st2" d="M180.8 330.6v-4.2m1020.4 16.8V339"/><path class="st8" d="M1201.2 335.2v-2.7"/><path class="st2" d="M1201.2 330.6v-4.2m510.2 16.8V339"/><path class="st8" d="M1711.4 335.2v-2.7"/><path class="st2" d="M1711.4 330.6v-4.2"/></g><g id="Text_1_"><text transform="translate(1941.665 218.94)" class="st9 st10">(28)</text><text transform="translate(1996.702 176.165)" class="st9 st10">10</text><text transform="rotate(-90 1093.304 -966.91)" class="st9 st10">9</text><text transform="rotate(-90 139.627 122.013)" class="st9 st10">8</text><text transform="rotate(-90 180.952 163.338)" class="st9 st10">20</text><text transform="rotate(-90 211.637 166.42)" class="st9 st10">9.1</text><text transform="rotate(-90 61.898 44.284)" class="st9 st10">18</text><text transform="translate(853.664 201.935)" class="st9 st10">10 x 300 (Luminous area)</text><text transform="translate(2041.831 31.862)" class="st9 st10">2 × M4, 5 deep</text><text transform="translate(1954.113 381.435)" class="st9 st10">M 2:1</text><text transform="translate(934.44 463.745)" class="st9 st10">310</text><text transform="translate(938.333 435.399)" class="st9 st10">90</text><text transform="translate(426.961 435.399)" class="st9 st10">90</text><text transform="translate(102.259 201.768)" class="st9 st10">15</text><text transform="translate(1448.564 435.399)" class="st9 st10">90</text><text transform="translate(130.553 435.399)" class="st9 st10">15</text><text transform="translate(271.777 250.502)" class="st9 st10">8 × M2.5, 3.5 deep</text><text transform="translate(2005.4 475.38)" class="st9 st11">Not to scale</text><text transform="translate(2005.4 493.38)" class="st9 st11">Dimensions in mm</text></g></svg>