<svg xmlns="http://www.w3.org/2000/svg" viewBox="0 0 538.6 300.5" style="enable-background:new 0 0 538.6 300.5;background-color:#fff" xml:space="preserve"><style>.st4{fill:#5a5a5a}.st5{font-family:Helvetica,Arial,sans-serif}.st6{font-size:10.1575px}</style><g id="Lines"><path d="M42.6 240.9h473.3M42.6 215.3h473.3M42.6 189.8h473.3M42.6 164.3h473.3M42.6 138.8h473.3M42.6 113.2h473.3M42.6 87.7h473.3M42.6 62.2h473.3M42.6 36.7h473.3M42.6 11.2h473.3" style="stroke:#d9d9d9;stroke-linejoin:round;fill:none;stroke-width:.4252;stroke-miterlimit:10" id="Lines_H"/><g id="Lines_V"><path d="M135.4 10.5v255.9m92.8-255.9v255.9M321 10.5v255.9m92.9-255.9v255.9m92.9-255.9v255.9" style="fill-rule:evenodd;clip-rule:evenodd;stroke:#c6c6c6;fill:none;stroke-width:.4252;stroke-miterlimit:10"/><path style="fill:none;stroke:#9d9d9c;stroke-width:.4252;stroke-linejoin:round;stroke-miterlimit:10" d="M42.6 266.4h473.3"/><path style="fill-rule:evenodd;clip-rule:evenodd;fill:none;stroke:#9d9d9c;stroke-width:.4252;stroke-miterlimit:10" d="M42.5 10.5v255.9"/></g></g><g id="Text"><text transform="translate(28.128 269.555)" class="st4 st5 st6">0</text><text transform="translate(11.23 244.037)" class="st4 st5 st6">5,000</text><text transform="translate(5.594 218.512)" class="st4 st5 st6">10,000</text><text transform="translate(5.594 192.982)" class="st4 st5 st6">15,000</text><text transform="translate(5.594 167.457)" class="st4 st5 st6">20,000</text><text transform="translate(5.594 141.933)" class="st4 st5 st6">25,000</text><text transform="translate(5.594 116.408)" class="st4 st5 st6">30,000</text><text transform="translate(5.594 90.883)" class="st4 st5 st6">35,000</text><text transform="translate(5.594 65.359)" class="st4 st5 st6">40,000</text><text transform="translate(5.594 39.829)" class="st4 st5 st6">45,000</text><text transform="translate(5.594 14.31)" class="st4 st5 st6">50,000</text><text transform="translate(39.597 281.623)" class="st4 st5 st6">0</text><text transform="translate(129.661 281.623)" class="st4 st5 st6">50</text><text transform="translate(219.67 281.623)" class="st4 st5 st6">100</text><text transform="translate(231.773 298.826)" class="st4 st5 st6">107</text><text transform="translate(312.494 281.623)" class="st4 st5 st6">150</text><text transform="translate(405.317 281.623)" class="st4 st5 st6">200</text><text transform="translate(498.24 281.623)" class="st4 st5 st6">250</text><text transform="translate(507.432 298.826)" class="st4 st5 st6">255</text></g><path d="M42.3 265.5h1v.1l-1-.1zm2 0h.9v.1l-.9-.1zm1.8-.1h1v.2h-1v-.2zm1.8-.2h1v.4h-1v-.4zm1.9-.2h.9v.6h-.9v-.6zm1.8-.3h1v1h-1v-1zm1.9-.3h1v1.2h-1v-1.2zm1.9-.3h1v1.5h-1v-1.5zm1.8-.2h1v1.7h-1v-1.7zm1.9-.4h.9v2.1h-.9v-2.1zm1.8-.3h1v2.4h-1v-2.4zm1.8-1.5h1v3.9h-1v-3.9zm2-1.4h.9v5.3h-.9v-5.3zm1.8-1.5h1v6.9h-1v-6.9zm1.9-1.5h.9v8.3h-.9v-8.3zm1.8-2.7h1v11h-1v-11zM72 252h1v13.6h-1V252zm1.9-5.6h.9v19.2h-.9v-19.2zm1.9-5.4h1v24.7h-1V241zm1.8-9.8h1v34.5h-1v-34.5zm1.9-9.9h1v44.3h-1v-44.3zm1.8-9.2h1v53.6h-1v-53.6zm1.9-9.4h.9v62.9h-.9v-62.9zm1.9-21.5h1v84.5h-1v-84.5zm1.8-21.6h1v106h-1v-106zm1.9-9.2h.9v115.2h-.9V150.4zm1.8-9.2h1v124.4h-1V141.2zm1.9-2.1h.9v126.5h-.9V139.1zm1.8-2h1v128.5h-1V137.1zm1.9-3.4h1v131.9h-1V133.7zm1.9-3.3h.9v135.3h-.9V130.4zm1.8-11.4h1v146.6h-1V119zm1.8-11.3h1v157.9h-1V107.7zm1.9 17.7h1v140.2h-1V125.4zm1.9 17.6h1v122.6h-1V143zm1.9 1.2h.9v121.5h-.9V144.2zm1.8 1.1h1v120.3h-1V145.3zm1.8-2.7h1v123h-1v-123zm1.9-2.6h.9v125.6h-.9V140zm1.9-6.5h1v132.1h-1V133.5zm1.9-6.4h.9v138.6h-.9V127.1zm1.8-20.1h1v158.6h-1V107zm1.8-20h1v178.6h-1V87zm1.9 8.1h.9v170.5h-.9V95.1zm1.8 8h1v162.5h-1V103.1zm1.9-8.4h1v170.9h-1V94.7zm1.9-8.5h1v179.4h-1V86.2zm1.8-.2h1v179.6h-1V86zm1.9-.1h.9v179.7h-.9V85.9zm1.8 8.9h1v170.9h-1V94.8zm1.9 8.9h1v161.9h-1V103.7zm1.9-6.3h.9v168.2h-.9V97.4zm1.8-6.4h1v174.6h-1V91zm1.9-25.1h.9v199.7h-.9V65.9zm1.8-25h1v224.7h-1V40.9zm1.8 24.2h1v200.5h-1V65.1zm2 24.1h.9v176.4h-.9V89.2zm1.8-.2h1v176.6h-1V89zm1.8 0h1v176.7h-1V89zm1.9 9.2h1v167.5h-1V98.2zm1.8 9.2h1v158.3h-1V107.4zm1.9 17h.9v141.2h-.9V124.4zm1.9 16.9h1v124.3h-1V141.3zm1.8 12.1h1v112.3h-1V153.4zm1.9 12h.9v100.2h-.9V165.4zm1.8 18.1h1v82.1h-1v-82.1zm1.9 18h.9v64.2h-.9v-64.2zm1.9 13.6h1v50.5h-1v-50.5zm1.8 13.6h1v36.9h-1v-36.9zm1.9 9.2h.9v27.7h-.9v-27.7zm1.8 9.1h1v18.6h-1V247zm1.8 4h1v14.6h-1V251zm1.9 4h1v10.6h-1V255zm1.9 1.9h1v8.8h-1v-8.8zm1.9 1.9h.9v6.9h-.9v-6.9zm1.8.8h1v6h-1v-6zm1.8 1h1v5h-1v-5zm1.9.2h.9v4.9h-.9v-4.9zm1.9 0h1v4.8h-1v-4.8zm1.8.2h1v4.6h-1V261zm1.9.2h1v4.4h-1v-4.4zm1.8.1h1v4.3h-1v-4.3zm1.9 0h.9v4.3h-.9v-4.3zm1.8-.2h1v4.5h-1v-4.5zm1.9-.3h1v4.8h-1v-4.8zm1.9.3h.9v4.5h-.9v-4.5zm1.8.2h1v4.3h-1v-4.3zm1.9-.2h.9v4.5h-.9v-4.5zm1.8-.2h1v4.7h-1v-4.7zm1.9-.3h1v5h-1v-5zm1.9-.4h.9v5.4h-.9v-5.4zm1.8.2h1v5.2h-1v-5.2zm1.8.3h1v4.9h-1v-4.9zm1.9-.1h1v5h-1v-5zm1.8-.2h1v5.2h-1v-5.2zm2 .2h.9v5h-.9v-5zm1.8.1h1v4.9h-1v-4.9zm1.8.1h1v4.8h-1v-4.8zm1.9.2h.9v4.6h-.9V261zm1.8-.1h1v4.7h-1v-4.7zm1.9-.1h.9v4.8h-.9v-4.8zm1.9-.2h1v5h-1v-5zm1.8-.4h1v5.4h-1v-5.4zm1.9.2h.9v5.2h-.9v-5.2zm1.8.2h1v5h-1v-5zm1.8-.4h1v5.4h-1v-5.4zm2-.2h1v5.6h-1V260zm1.8-.3h1v5.9h-1v-5.9zm1.9-.2h.9v6.2h-.9v-6.2zm1.8-.2h1v6.3h-1v-6.3zm1.8-.2h1v6.5h-1v-6.5zm1.9-.8h.9v7.3h-.9v-7.3zm1.9-.8h1v8.1h-1v-8.1zm1.9-.5h.9v8.6h-.9V257zm1.8-.6h1v9.2h-1v-9.2zm1.8-1.1h1v10.3h-1v-10.3zm1.9-1.1h.9v11.5h-.9v-11.5zm1.9-1.7h1v13.1h-1v-13.1zm1.8-1.6h1v14.8h-1v-14.8zm1.9-2.5h1v17.2h-1v-17.2zm1.8-2.4h1v19.6h-1V246zm1.9-1.9h.9v21.5h-.9v-21.5zm1.8-1.9h1v23.4h-1v-23.4zm1.9-3.1h1v26.5h-1v-26.5zm1.9-3h.9v29.5h-.9v-29.5zm1.8-.4h1v30h-1v-30zm1.9-.5h.9v30.4h-.9v-30.4zm1.8-1.3h1v31.7h-1v-31.7zm1.9-1.3h1v33h-1v-33zm1.9-2.2h.9v35.2h-.9v-35.2zm1.8-2.3h1v37.5h-1v-37.5zm1.8-.3h1v37.9h-1v-37.9zm1.9-.3h1v38.1h-1v-38.1zm1.9-.1h1v38.2h-1v-38.2zm1.9-.1h.9v38.3h-.9v-38.3zm1.8 2.3h1v36h-1v-36zm1.8 2.3h1v33.7h-1v-33.7zm1.9 0h.9v33.7h-.9v-33.7zm1.8 0h1v33.7h-1v-33.7zm2 .5h.9v33.3h-.9v-33.3zm1.8.4h1v32.8h-1v-32.8zm1.8.2h1v32.6h-1V233zm1.9.2h.9v32.5h-.9v-32.5zm1.8.5h1v31.9h-1v-31.9zm1.9.5h1v31.4h-1v-31.4zm1.9.6h1v30.8h-1v-30.8zm1.8.6h1v30.2h-1v-30.2zm1.9.4h.9v29.8h-.9v-29.8zm1.8.5h1v29.3h-1v-29.3zm1.8 0h1v29.3h-1v-29.3zm2 .1h.9v29.3h-.9v-29.3zm1.8.8h1v28.4h-1v-28.4zm1.9.8h.9v27.6h-.9V238zm1.8.1h1v27.5h-1v-27.5zm1.8.1h1v27.4h-1v-27.4zm1.9.2h.9v27.3h-.9v-27.3zm1.9 0h1v27.2h-1v-27.2zm1.8-.6h1v27.8h-1v-27.8zm1.9-.5h1v28.3h-1v-28.3zm1.8.3h1v28h-1v-28zm1.9.3h.9v27.7h-.9v-27.7zm1.9-.5h1v28.2h-1v-28.2zm1.8-.6h1v28.8h-1v-28.8zm1.9-1.9h.9v30.7h-.9v-30.7zm1.8-1.9h1v32.6h-1V233zm1.9-.3h.9v32.9h-.9v-32.9zm1.8-.2h1v33.1h-1v-33.1zm1.9-1h1v34.1h-1v-34.1zm1.9-1h.9v35.1h-.9v-35.1zm1.8-2.8h1v37.9h-1v-37.9zm1.8-2.9h1v40.8h-1v-40.8zm1.9-2h1v42.8h-1v-42.8zm1.9-2h1v44.8h-1v-44.8zm1.9-2.3h.9v47.1h-.9v-47.1zm1.8-2.4h1v49.5h-1v-49.5zm1.8-3.5h1v53h-1v-53zm1.9-3.7h.9v56.7h-.9v-56.7zm1.8 2.5h1v54.2h-1v-54.2zm2 2.6h.9v51.7h-.9V214zm1.8.8h1v50.8h-1v-50.8zm1.8 1h1v49.8h-1v-49.8zm1.9 3.7h.9v46.1h-.9v-46.1zm1.8 3.8h1v42.3h-1v-42.3zm1.9 1.2h1v41.2h-1v-41.2zm1.9 1h1v40.1h-1v-40.1zm1.8 1.3h1v38.8h-1v-38.8zm1.9 1.2h.9v37.6h-.9V228zm1.8.3h1v37.3h-1v-37.3zm1.8.3h1v37.1h-1v-37.1zm2-2.7h.9v39.7h-.9v-39.7zm1.8-2.6h1v42.4h-1v-42.4zm1.9-.4h.9v42.7h-.9v-42.7zm1.8-.3h1v43.1h-1v-43.1zm1.8 4.5h1v38.5h-1v-38.5zm1.9 4.5h.9v34h-.9v-34zm1.9 2.4h1v31.6h-1V234zm1.8 2.5h1v29.2h-1v-29.2zm1.9 1.4h1v27.7h-1v-27.7zm1.8 1.4h1v26.3h-1v-26.3zm1.9 3.8h.9v22.5h-.9v-22.5zm1.9 3.9h1v18.7h-1V247zm1.8 3h1v15.6h-1V250zm1.9 3.1h.9v12.5h-.9v-12.5zm1.8 1.7h1v10.9h-1v-10.9zm1.9 1.6h.9v9.2h-.9v-9.2zm1.8 1.6h1v7.6h-1V258zm1.9 1.6h1v6h-1v-6zm1.9 1.2h.9v4.8h-.9v-4.8zm1.8 1.3h1v3.5h-1v-3.5zm1.8.7h1v2.8h-1v-2.8zm1.9.7h1v2.1h-1v-2.1zm1.9.5h1v1.6h-1V264zm1.9.5h.9v1.1h-.9v-1.1zm1.8.2h1v1h-1v-1zm1.8.2h1v.7h-1v-.7zm1.9.2h.9v.5h-.9v-.5zm1.8.2h1v.3h-1v-.3zm1.9.1h1v.3h-1v-.3zm1.9 0h1v.2h-1v-.2zm1.8 0h1v.2h-1v-.2zm1.9.1h.9v.1l-.9-.1zm1.8 0h1v.1l-1-.1zm1.9 0h1v.1l-1-.1zm1.9 0h.9v.1l-.9-.1zm1.8 0h1v.1l-1-.1zm1.9 0h.9v.1l-.9-.1zm1.8 0h1v.1l-1-.1zm1.9 0h1v.1l-1-.1z" style="fill:#00457c;stroke:#00457c;stroke-width:1.2756;stroke-miterlimit:10" id="Graphen_00000115500420143128663610000017394546589503380633_"/><path d="M241.2 288.3V11m274.7 277.3V11" style="fill:none;stroke:#f59d21;stroke-width:.4252;stroke-miterlimit:10" id="Schwellenwert"/></svg>