<svg version="1.1" id="Ebene_1" xmlns="http://www.w3.org/2000/svg" x="0" y="0" viewBox="0 0 291.8 127.1" style="enable-background:new 0 0 291.8 127.1;background-color:#fff" xml:space="preserve"><style>.st0{fill:none}.st1{fill:#020203}.st4{font-family:Helvetica,Arial,sans-serif}.st5{font-size:7px}.st10,.st11{fill:none;stroke-miterlimit:10}.st6{stroke:#414947;stroke-width:.6802}.st6,.st9{fill:none;stroke-miterlimit:10}.st10,.st11,.st9{stroke:#020203;stroke-width:.7799}.st10{stroke-dasharray:6.1868,6.1868}.st11{stroke-dasharray:6.4397,6.4397}</style><path class="st0" d="M-7.4-27.5h426.6v16H-7.4v-16z"/><path class="st1" d="m93.3 91.5-6.4-1.4 4.9-4.3 1.5 5.7z"/><path d="M157.5 43.5H190" style="fill:none;stroke:#020203;stroke-width:.68;stroke-miterlimit:10"/><path d="M158.3 75.4V13" style="fill:none;stroke:#414947;stroke-width:.788;stroke-miterlimit:10"/><path class="st0" d="M149.7 3.9H181v9.5h-31.3V3.9z"/><text transform="matrix(1.1336 0 0 1 149.664 8.886)" class="st1 st4 st5">24 VDC</text><path class="st0" d="M164.6 56h16.3v11.1h-16.3V56z"/><text transform="matrix(1.1336 0 0 1 164.606 61.025)" class="st1 st4 st5">2k2</text><path class="st6" d="m94.5 75.7-11.1 8.4m11.1 8.3-11.1-8.6"/><path class="st1" d="M154 50.6h8.6v16.7H154V50.6z"/><path d="M94.5 75.7h94.7" style="fill:none;stroke:#414947;stroke-width:.628;stroke-miterlimit:10"/><path class="st6" d="M117.6 121h13.9m-6.9-28.6v28.8"/><path d="M94.5 92.4h94.7" style="fill:none;stroke:#414947;stroke-width:.627;stroke-miterlimit:10"/><path class="st6" d="M83.7 90.1V77.9M51.2 84h32.5"/><path class="st9" d="M102.5 114.3v3h-3"/><path class="st10" d="M93.3 117.3H9.8"/><path class="st9" d="M6.7 117.3h-3v-3"/><path class="st11" d="M3.7 107.8V59.5"/><path class="st9" d="M3.7 56.3v-3h3"/><path class="st10" d="M12.9 53.3h83.5"/><path class="st9" d="M99.5 53.3h3v3"/><path class="st11" d="M102.5 62.7V111"/><path class="st0" d="M111.7 61.4h26.6v10.9h-26.6V61.4z"/><text transform="matrix(1.1336 0 0 1 111.69 66.414)" class="st1 st4 st5">10 mA</text><path class="st0" d="M131.6 70.7h-14"/><path d="M131.6 70.7h-10.9" style="fill:none;stroke:#414947;stroke-width:.728;stroke-miterlimit:10"/><path d="m121.4 68.5-3.8 2.2 3.8 2.2v-4.4z" style="fill:#414947"/><text transform="matrix(1.1336 0 0 1 7.827 62.384)" class="st1 st4 st5">From camera</text><path class="st1" d="M126.9 92.4c0 1.1-1 1.9-2.2 1.9s-2.2-.9-2.2-1.9c0-1.1 1-1.9 2.2-1.9 1.2-.1 2.2.8 2.2 1.9zm33.5-48.8c0 1.1-1 1.9-2.2 1.9s-2.2-.9-2.2-1.9c0-1.1 1-1.9 2.2-1.9 1.3 0 2.2.8 2.2 1.9zm.1-30.4c0 1.1-1 1.9-2.2 1.9s-2.2-.9-2.2-1.9c0-1.1 1-1.9 2.2-1.9s2.2.9 2.2 1.9z"/><path d="M189.2 36.6h98.9V98h-98.9V36.6z" style="fill:none;stroke:#414947;stroke-width:.704;stroke-miterlimit:10"/><path class="st1" d="M191.3 43.4c0 1.1-1 1.9-2.2 1.9s-2.2-.9-2.2-1.9c0-1.1 1-1.9 2.2-1.9 1.3-.1 2.2.8 2.2 1.9zm0 16.3c0 1.1-1 1.9-2.2 1.9s-2.2-.9-2.2-1.9c0-1.1 1-1.9 2.2-1.9 1.3-.1 2.2.8 2.2 1.9zm0 16c0 1.1-1 1.9-2.2 1.9s-2.2-.9-2.2-1.9c0-1.1 1-1.9 2.2-1.9 1.3-.1 2.2.8 2.2 1.9zm0 16.6c0 1.1-1 1.9-2.2 1.9s-2.2-.9-2.2-1.9c0-1.1 1-1.9 2.2-1.9 1.3 0 2.2.9 2.2 1.9z"/><path class="st0" d="M194.4 40.3h86.3V100h-86.3V40.3z"/><text transform="matrix(1.1336 0 0 1 194.342 45.285)" class="st1 st4 st5">1 Power</text><text transform="matrix(1.1336 0 0 1 194.342 61.385)" class="st1 st4 st5">2 LED (+)</text><text transform="matrix(1.1336 0 0 1 194.342 77.585)" class="st1 st4 st5">3 Trigger source</text><text transform="matrix(1.1336 0 0 1 194.342 93.685)" class="st1 st4 st5">4 Ground / LED (-)</text><path class="st1" d="M160.4 75.7c0 1.1-1 1.9-2.2 1.9s-2.2-.9-2.2-1.9c0-1.1 1-1.9 2.2-1.9 1.3-.1 2.2.8 2.2 1.9z"/><text transform="matrix(1.1336 0 0 1 253.273 43.396)" class="st1 st4 st5">Standard </text><text transform="matrix(1.1336 0 0 1 253.273 51.796)" class="st1 st4 st5">Light</text></svg>