<svg version="1.1" id="Ebene_1" xmlns="http://www.w3.org/2000/svg" xmlns:xlink="http://www.w3.org/1999/xlink" x="0" y="0" viewBox="0 0 637.8 595.3" style="background-color:#fff" xml:space="preserve"><style>.st0,.st1{fill:none;stroke:#000;stroke-width:.425;stroke-linecap:round;stroke-linejoin:round}.st0{stroke-miterlimit:10}.st1{clip-path:url(#SVGID_2_)}.st1,.st2{stroke-miterlimit:10}.st2,.st3,.st5,.st6,.st7,.st8,.st9{fill:none;stroke:#000;stroke-width:.283;stroke-linecap:round;stroke-linejoin:round}.st5{stroke-dasharray:.544,2.721}.st6{stroke-dasharray:8.162,2.721,.544,2.721}.st7{stroke-dasharray:.306,1.532}.st8{stroke-dasharray:4.597,1.532,.306,1.532}.st9{stroke-dasharray:.701,3.507}.st10{font-family:Helvetica,Arial,sans-serif}.st12{font-size:9.9998px}</style><path class="st0" d="M253.5 253.2v-207m-2.7 5v-5h2.7m-5.6 212.5h5.4m0 0h.2v-1.4m0 0v-4.1m-5.6-197.1h5.6m-5.6 202.6V56.1m-207-9.9v207m2.9-202v-5h-2.9m0 211.1v-4.1m0 4.1v1.1l.2.3m0 0h5.5m0-202.6v202.6M40.9 56.1h5.7m26.9 202.6H46.6m29.7-2.8V49m-2.8-2.8H49.3m195.7 0h-24.1M218 255.9V49m29.9 209.7h-27m27-202.6V49"/><defs><path id="SVGID_1_" d="M0 0h637.8v595.3H0z"/></defs><clipPath id="SVGID_2_"><use xlink:href="#SVGID_1_" overflow="visible"/></clipPath><path class="st1" d="M247.9 48.9c0-1.5-1.2-2.8-2.8-2.8m-24.1.1c-1.5 0-2.8 1.2-2.8 2.8m0 206.9c0 1.5 1.2 2.8 2.8 2.8M49.4 46.2c-1.5 0-2.8 1.2-2.8 2.8m0 0v7.1m26.9 202.6c1.5 0 2.8-1.2 2.8-2.8m0-207c0-1.5-1.2-2.8-2.8-2.8M43.8 49h-2.9m5.6 4.4c-1.5 0-2.8 1.2-2.8 2.8m2.8-5.7c-3.1 0-5.7 2.5-5.7 5.7M253.5 49h-2.7m-.2 7.1c0-1.5-1.2-2.7-2.8-2.7m5.7 2.7c0-3.1-2.4-5.7-5.6-5.7M72.2 53.3c0-1.6-1.3-3-3-3-1.6 0-3 1.3-3 3s1.3 3 3 3c1.7-.1 3-1.4 3-3m0 198.3c0-1.6-1.3-3-3-3-1.6 0-3 1.3-3 3 0 1.6 1.3 3 3 3s3-1.3 3-3m155.9 0c0-1.6-1.3-3-3-3-1.6 0-3 1.3-3 3 0 1.6 1.3 3 3 3 1.6 0 3-1.3 3-3m0-198.3c0-1.6-1.3-3-3-3-1.6 0-3 1.3-3 3s1.3 3 3 3c1.6-.1 3-1.4 3-3M73.5 46.2h147.4m0 212.5H73.5m-29-208.2v-4.3m205.5 0v4.3M44.5 46.2h2.1m201.3 0h2.1M46.6 50.5h-2.1m205.5 0h-2.1M46.6 48.1v-3m14.1 1.1v-1.1M46.6 49v-.9m0-3h14.1m173 1.1v-1.1m14.2 2.1v-2.1m0 3.9v-1.8m-14.2-2.1h14.2M46.6 335.6h201.3m-201.3 2.9h12.8m172.8 0h15.7m-188.5 0h2.7m188.7 177.1v-.7m2.7.7v-.7m0-143.1v143.1m0 27.7v-27m0-174.4v30.6m-2.7 143.1V368.2m0 143.8h2.7m0-140.2h-2.7m-3 176.4c3.1 0 5.7-2.5 5.7-5.7m-5.7 2.8c1.5 0 2.8-1.2 2.8-2.7m2.9-201.3c0-3.1-2.5-5.7-5.7-5.7m2.8 5.6c0-1.5-1.2-2.7-2.8-2.7m-204 29.7v.7m-2.9-.7v.7m0 146v-146m0-27.7v27m0 174.4v-27.7m2.9-146v146.7m-2.9-3.6h2.9m0-140.2h-2.9m0 170.7c0 3.1 2.6 5.7 5.8 5.7m-2.9-5.6c0 1.5 1.3 2.7 2.9 2.7m-.2-209.7c-3.1 0-5.7 2.5-5.7 5.7m5.8-2.8c-1.5 0-2.9 1.2-2.9 2.7m32.6 204.1v2.9m-2.8-2.9H49.3m0 0v2.9m24.2 0H49.3m24.2 0v-2.9m171.5 2.9h-24.1m24.1 0v-2.9m0 0h-24.1m0 0v2.9m-2.9 0v-2.9m27 2.9h2.9m-29.9 0h2.9m-174.3 0h2.7m24.2 0h2.8m168.7-2.9h2.9m-201.3 0h2.7m-2.7 2.9v-2.9m-5.7-204.1h5.7m-5.7 27h3.6m-3.6 147.4h3.6m-3.6 27h5.7m201.3-207v2.9m0 206.8v2.9m2.1-180h3.5m-5.6-27h5.6m-5.6 201.4h5.6m-3.5-27h3.5m-19.8-177.1v-2.9m-1.5 5.6v-5.6m-170.1 0v5.6m0 0h170.1m0 14.2v-14.2m-170.1 0v14.2h170.1m2.9-19.8v2.9m11.3 0v-2.9m-198.3 0v2.9m11.3 0v-2.9m174.3 16.9h-1.5m-170.1 0h-1.4m1.4 192.8v-16.9m7.2 16.9h155.9m0 0v-16.9m-155.9 0h155.9m-155.9 0v16.9m155.9-16.9h7v16.9M62.1 528.4h7.2m126.9 9v1.4m6.8-2.7c.3 0 .6-.3.6-.6s-.3-.6-.6-.6-.6.3-.6.6c-.1.3.2.6.6.6m0 5.4c.3 0 .6-.3.6-.6s-.3-.6-.6-.6-.6.3-.6.6c-.1.3.2.6.6.6m3.2-4.5c.3 0 .6-.3.6-.6s-.3-.6-.6-.6-.6.3-.6.6.3.6.6.6m0 3.4c.3 0 .6-.3.6-.6s-.3-.6-.6-.6-.6.3-.6.6c0 .4.3.6.6.6"/><path class="st1" d="M203.9 542.2c2.2 0 4-1.8 4.1-4 0-2.2-1.8-4-4.1-4.1-2.2 0-4.1 1.8-4.1 4 0 2.3 1.8 4.1 4.1 4.1"/><path class="st1" d="M198.9 538.2c0 2.7 2.2 5 4.9 5s5-2.2 5-4.9-2.2-5-4.9-5c-2.8-.1-5 2.2-5 4.9"/><path class="st1" d="M198.2 538.2c0 3.1 2.5 5.7 5.7 5.7 3.1 0 5.7-2.5 5.7-5.7 0-3.1-2.5-5.7-5.7-5.7s-5.7 2.6-5.7 5.7"/><path class="st1" d="M203.9 531.8c-3.5 0-6.4 2.9-6.4 6.4 0 3.5 2.9 6.4 6.4 6.4 3.5 0 6.4-2.9 6.4-6.4 0-3.5-2.9-6.4-6.4-6.4m-3.2 13.3h6.5m0 0c.4-.2.9-.4 1.3-.7m0 0 3.2-5.6m0 0v-1.4m-3.2-5.6 3.2 5.6m-3.2-5.6c-.4-.3-.9-.5-1.3-.7m-6.5 0h6.4m-6.4 0c-.4.2-.9.4-1.3.7m-3.2 5.6 3.3-5.6m-3.3 7 3.3 5.6m0 0c.4.3.8.5 1.3.7m32.9-188.3h-173m-16.2 2.9v164.4m16.2 2.8h173m16.3-2.8V359.7M44.5 524.1l2.1 2.1m201.3 0 2.1-2.1m0-164.4-2.1-2.1m-201.3 0-2.1 2.1m203.4-3.4V354m-14.2 7.2V354m14.2 0v-14.1M233.7 354v-1.1m12.7-14.4h-11.3m12.8 1.4c0-.7-.8-1.4-1.5-1.4m-11.4 0c-.7 0-1.4.6-1.4 1.4m.1 13v-13m14.2 14.1h-14.2m14.2 2.3h-14.2m12.7 6.3h-11.3m11.3 0c.7 0 1.4-.7 1.4-1.4m.1 0v-4.9m-14.2 4.9c0 .7.7 1.4 1.4 1.4m-174.4-6.3V354m-14.1 7.2V354m14.1 0v-14.1M46.6 354v-1.1m12.8-14.4H48.1m12.6 1.3c0-.7-.6-1.3-1.4-1.3m-11.3 0c-.7 0-1.4.6-1.4 1.4m0 13v-13M60.7 354H46.6m14.1 2.3H46.6m12.8 6.3H48.1m11.3 0c.7 0 1.3-.8 1.3-1.5m0 .1v-4.9m-14.1 4.8c0 .7.7 1.5 1.4 1.5m-1.4 167.2v-2.3m14.1 2.3v-7.2m-14.1 21.3v-14.1m14.1 1.1v-1.1m-14.1 14.1c0 .7.6 1.4 1.3 1.4m11.4 0c.7 0 1.3-.6 1.3-1.3m.1-13.1v13m-14.1-14.1h14.1m-14.1-2.3h14.1m-12.6-6.3h11.3m-11.3 0c-.7 0-1.4.8-1.4 1.5m-.1-.1v4.9m14.1-4.8c0-.7-.5-1.5-1.3-1.5m174.3 8.6v-2.3m14.2 2.3v-7.2m-14.2 21.3v-14.1m14.2 1.1v-1.1m-14.2 14.1c0 .7.6 1.4 1.3 1.4m11.3 0c.7 0 1.5-.7 1.5-1.4m.1-13v13m-14.2-13h14.2m-14.2-3.4h14.2m-12.9-6.1h11.4m-11.4 0c-.7 0-1.4.6-1.4 1.4m.1-.2v4.9m14.2-4.9c0-.7-.8-1.3-1.5-1.3m-198-174.5c0 2.9 2.4 5.3 5.3 5.3s5.3-2.4 5.3-5.3-2.4-5.3-5.3-5.3-5.3 2.4-5.3 5.3"/><path class="st1" d="m54.7 348.7.9-1.8-.9-1.8h-2.1l-.9 1.8.9 1.8h2.1m-3.2 188.2c0 1.2 1 2.3 2.3 2.3 1.2 0 2.3-1 2.3-2.2 0-1.2-1-2.3-2.3-2.3-1.3 0-2.3 1-2.3 2.2"/><path class="st1" d="M48.4 536.9c0 2.9 2.4 5.3 5.3 5.3s5.3-2.4 5.3-5.3-2.4-5.3-5.3-5.3-5.3 2.4-5.3 5.3"/><path class="st1" d="m54.7 538.6.9-1.8-.9-1.8h-2.1l-.9 1.8.9 1.8h2.1m180.9-.6c.6 2.9 3.4 4.7 6.3 4.1 2.9-.6 4.7-3.4 4.1-6.3-.6-2.9-3.4-4.7-6.3-4.1-2.9.6-4.7 3.4-4.1 6.3"/><path class="st1" d="m242.1 538.5.7-2-1.4-1.6-2 .5-.7 1.8 1.4 1.6 2-.3m-6.6-191.7c0 2.9 2.4 5.3 5.3 5.3s5.3-2.4 5.3-5.3-2.4-5.3-5.3-5.3c-3 0-5.3 2.4-5.3 5.3"/><path class="st1" d="m241.8 348.7 1-1.8-1-1.8h-2l-1.1 1.8 1.1 1.8h2m112.5-90V49.2m2.7 6.9v-6.9m3.6 204h-.8m27-197.1h.8M533.5 49v7.1m0-7.1c0-1.5-1.4-2.9-3-2.9m-140.2.1h140.4m-140.4 0c-1.5 0-2.8 1.2-2.8 2.8m.1 7.1V49m-27.8 204.2V56.1h27m-26.2 197.1h199.8m.7 0h-.7m.7 0V56.1h-26.8m-.8 0h.8M405.2 207.6l5.2-5 1.3 1.1-5.2 5.2-1.3-1.3m105.3-105.1 5.2-5.2 1.1 1.1-5.2 5.2-1.1-1.1m-36.4 58.3 1.1 1.3-5.2 5.2-1.1-1.3 5.2-5.2m87 96.5v-4.1m0 4.1.2.5.3.6.4.3h.5"/><path class="st1" d="M562.5 258.7h4.3V56.1h-5.7M354.3 258.7h4.1m0 0h.5l.6-.3.3-.6v-.5m0-4.1v4.1m-5.5-201.2h5.5M564 46.2h2.8v9.9m-2.8-9.9v9.9m-207-5.4h-2.7M566.8 49H564m-204.2 7.1v-5.6m27 5.6v-5.6m-29.1 0h18.5m-18.5 2.9h2.1m174.5 2.7v-5.6m26.8 5.6v-5.6h-16.2m18.3 0h-2.1m2.1 2.9h-2.1m-.7 199.8v5.5m-199.8-5.5v5.5h199.8m2.8-208.2v2.9m-205.5 0v-2.9m2.1-1.5v-2.8m.1 0c-2.1 0-4.1 1.1-5 3.1m4.9-.3h.4m10.8 0h1.3m1.2 0h.6v-2.5m-14.3-.3h3.5m4.5 0h5.2m-18.7 3h2.7m154.6 54.4-1.1-1.1M564 53.4h-.8m-15.1-7.2h5.1m4.5 0h6.3m-1.5 212.5h-2.1M547 50.5v-3.8m3.3-.5h-.7m13.5 0h.7m-188.3 4.3v-4.3m2.9 4.3h9.2m145.9 0h9.2v-4.3m-164.3 0h11.9m140.4 0h12m-164.3 0v4.3m167.2-4.3v4.3m-2.9-4.3h2.2m-168.7 0h2.2m166.5 4.3h-2.2m-164.3 0h-2.2m-1.2-5.4v1.1m-.1-1.1c-1.2 0-2.3 1-2.3 2.3m1.1-.2h-1.1m2.3-1c-.6 0-1.2.5-1.2 1.2m2.5-1.2H375m4.6 0v-1.1m0 0H375m-2.4 3h1.1m-2.2 1.3c.6 0 1.1-.6 1.1-1.3m-1.1 2.4v-1.3m-.1 1.3c1.2 0 2.3-1 2.3-2.3m-1.1-1v.9m1.1-.9v1m-2.2 2.3h-13.1m-1.4 0h.7m-.7-1.3h14.5m8.1-4.1h1.5v1.1m-22.7 3v1.3m189.9-3.3h-1.1m1.1.1c0-1.2-1-2.3-2.2-2.3m0 1.2v-1.1m1.1 2.2c0-.6-.5-1.2-1.2-1.2m2.3 1.1v.9m-1.1-.9v.9m0 0h1.1m1.3 1.1v1.3m-1.3-2.3c0 .6.5 1.2 1.2 1.2m-2.3-1.2c0 1.2 1 2.3 2.3 2.3m.1 0h12.9m0 0v-1.3m-12.9 0h12.9m.7 1.3h.8m-1.5-1.3h1.5m-24.2-3v-1.1h6.3m-1.2 1.1h1.2m-4.8-1.1v1.1m-178 0h4.5m-4.5 0c-1.7 0-3.2 1.4-3.2 3.1m10.9-.1c0-1.7-1.4-3.1-3.1-3.1m185.3.1h4.5m-4.5 0c-1.7 0-3.2 1.4-3.2 3.1m10.9 0c0-1.7-1.4-3.1-3.1-3.1m-346-.2v-2.5m-3.3 0 1.6-.1 1.7.1m-3.3 0v2.7m-1.3 0v-2.7h1.3m-7.8 0 3.3-.1 3.2.1m-6.5 0v2.7m0-2.7h-1.3v2.7m-3.2-2.7 1.6-.1 1.6.1m-3.2 0V46m12.1-11.3h-8.7m9.3 1.8H199m9.6 1.1h-9.3m9.3 1.4h-9.3m10.4 1h-11.4m11.4 1.5h-11.4m10.3 1.1h-9.3m12.5 3.6v-2.7m-15.6 2.7v-2.7m12.4-8.5c0-.1-.2-.3-.3-.3m-8.7 0c-.2 0-.3.1-.3.3m9.3 0 .3 1.5m-9.6-1.5-.3 1.5v.7m9.9 0v-.7m-9.6 1.1-.3-.4m9.6.4.3-.4m-9.6 1.8v-1.4m10.4 2.4-1.1-1v-1.4m-9.3 1.4-1 1v1.5m11.4 0V40m-10.4 2.6-1-1.1m10.3 1.1 1.1-1.1m-1.1 1.5v-.4m0 .4c0 .2.1.3.3.3h1.2m-10.8-.7v.4c0 .2-.1.3-.3.3h-1.2M564.6 46v-2.5m-3.3 0 1.6-.1 1.7.1m-3.3 0v2.7m-1.3 0v-2.7h1.3m-7.8 0 3.3-.1 3.2.1m-6.5 0v2.7m0-2.7h-1.3v2.7m-3.2-2.7 1.6-.1 1.6.1m-3.2 0V46m12.1-11.3h-8.7m9.3 1.8h-9.9m9.6 1.1h-9.3m9.3 1.4h-9.3m10.4 1h-11.4m11.4 1.5h-11.4m10.3 1.1h-9.3m12.5 3.6v-2.7M549 46.2v-2.7m12.4-8.5c0-.1-.2-.3-.3-.3m-8.7 0c-.2 0-.3.1-.3.3m9.3 0 .3 1.5m-9.6-1.5-.3 1.5v.7m9.9 0v-.7m-9.6 1.1-.3-.4m9.6.4.3-.4m-9.6 1.8v-1.4m10.4 2.4-1.1-1v-1.4m-9.3 1.4-1 1v1.5m11.4 0V40m-10.4 2.6-1-1.1m10.3 1.1 1.1-1.1m-1.1 1.5v-.4m0 .4c0 .2.1.3.3.3h1.2m-10.8-.7v.4c0 .2-.1.3-.3.3h-1.2m-10.8 201.3c0 1.6 1.3 2.8 2.8 2.8 1.6 0 2.8-1.3 2.8-2.8 0-1.6-1.3-2.8-2.8-2.8-1.5 0-2.8 1.2-2.8 2.8"/><path class="st1" d="M542.6 248.9c2.3 0 4.3-1.9 4.3-4.3 0-2.3-1.9-4.3-4.3-4.3-2.3 0-4.3 1.9-4.3 4.3m-162.8 0c0 1.6 1.3 2.8 2.8 2.8 1.6 0 2.8-1.3 2.8-2.8 0-1.6-1.3-2.8-2.8-2.8-1.6 0-2.8 1.2-2.8 2.8"/><path class="st1" d="M378.3 248.9c2.3 0 4.3-1.9 4.3-4.3 0-2.3-1.9-4.3-4.3-4.3-2.3 0-4.3 1.9-4.3 4.3"/><path class="st2" d="m202.3 466.1 75.3 34"/><path class="st3" d="m548.9 253 24.3 33.5h34.7"/><path d="m548 255.4-2.8-7.5 6.2 5z"/><path class="st2" d="M17.9 45.2V34.6M248 548.3h31m-74.8-10.2H279"/><path class="st3" d="M210.5 579.8h36.9"/><path d="m211.9 581.9-7.7-2.1 7.7-2zm34.1 0 7.7-2.1-7.7-2z"/><path class="st2" d="M253.7 542.6v39.8m-49.6-39.8v39.8"/><path class="st3" d="M17.7 342.1v200.2"/><path d="m15.6 343.5 2.1-7.7 2 7.7zm0 197.4 2.1 7.6 2-7.6z"/><path class="st2" d="M46.3 548.5H15.1m31.2-212.9H15.1"/><path class="st3" d="M17.9 51.5v201.1"/><path d="m15.9 52.9 2-7.7 2.1 7.7zm0 198.3 2 7.6 2.1-7.6z"/><path class="st2" d="M40.9 258.8H15.3M46.6 45H15.3"/><path class="st3" d="M17.9 28.7v-23"/><path d="M20 27.3 17.9 35l-2-7.7z"/><path class="st2" d="M199.6 34.8H15.3"/><path class="st3" d="M247.4 315.4H46.9"/><path d="m246 313.4 7.7 2-7.7 2.1zm-197.7 0-7.7 2 7.7 2.1z"/><path class="st2" d="M40.6 341.3v-28.5m213.3 28.5v-28.5m22.7 225.6v10.9"/><path class="st3" d="M276.6 509.1v22.3"/><path d="m274.5 530 2.1 7.7 2-7.7z"/><path class="st3" d="M276.6 555.6v21.6"/><path d="m274.5 557 2.1-7.7 2 7.7z"/><path class="st3" d="M360.9 286.9h11.2"/><path d="m362.3 288.9-7.7-2 7.7-2.1zm8.4 0 7.7-2-7.7-2.1z"/><path class="st3" d="M385.1 286.9h151.2"/><path d="m386.6 288.9-7.7-2 7.7-2.1zm148.3 0 7.7-2-7.7-2.1z"/><path class="st2" d="M354.4 258.6v30.9m24-44.9v44.9m164.2-44.9v44.9m-164.2-44.9h-54.9m31 14h-31m31 28.4h-19m-9.5-28.3v-15"/><path class="st3" d="M326 287.3V265"/><path d="m328 266.4-2-7.7-2.1 7.7z"/><path class="st3" d="M326 237.4v-21.6"/><path d="m328 236-2 7.7-2.1-7.7z"/><path class="st3" d="M204 31.7V36"/><path fill="none" stroke="#000" stroke-width=".283" stroke-linecap="round" stroke-linejoin="round" stroke-dasharray=".54,2.699" d="M204 38.7v1.9"/><path class="st3" d="M204 41.9v4.3m-60.6 487.5v-4.3"/><path class="st5" d="M143.4 526.7v-1.9"/><path class="st6" d="M143.4 523.4V355"/><path class="st3" d="M143.4 353.7v-4.3m92.1 92.1h-4.2"/><path class="st5" d="M228.5 441.5h-1.9"/><path class="st6" d="M225.3 441.5H56.9"/><path class="st3" d="M55.5 441.5h-4.2m152.8 106.6v-4.3"/><path class="st7" d="M204.1 542.3v-1.1"/><path class="st8" d="M204.1 540.5v-7.2"/><path class="st3" d="M204.1 532.5v-4.3m10 10h-4.3"/><path class="st7" d="M208.3 538.2h-1.1"/><path class="st8" d="M206.4 538.2h-7.2"/><path class="st3" d="M198.5 538.2h-4.3m348.4-285.5v-4.2"/><path class="st9" d="M542.6 245v-2.5"/><path class="st3" d="M542.6 240.8v-4.3m8.1 8.1h-4.2"/><path class="st9" d="M543 244.6h-2.5"/><path class="st3" d="M538.8 244.6h-4.3m-156.2 8.1v-4.2"/><path class="st9" d="M378.3 245v-2.5"/><path class="st3" d="M378.3 240.8v-4.3m8.1 8.1h-4.3"/><path class="st9" d="M378.6 244.6h-2.4"/><path class="st3" d="M374.4 244.6h-4.2"/><path class="st0" d="M72.5 370.7h141.7v141.7H72.5z"/><text transform="translate(287.945 505.47)" class="st10" font-size="10">100 x 100 (Luminous area)</text><text transform="translate(575.903 282.95)" class="st10 st12">2</text><text transform="translate(584.243 282.95)" class="st10 st12">× M4</text><text transform="translate(223.17 576.506)" class="st10 st12">35</text><text transform="rotate(-90 232.115 217.865)" class="st10 st12">150</text><text transform="rotate(-90 89.593 75.063)" class="st10 st12">150,8</text><text transform="rotate(-90 20.044 5.515)" class="st10 st12">7.2</text><text transform="rotate(-90 399.784 126.706)" class="st10 st12">7.1</text><text transform="translate(134.936 312.04)" class="st10 st12">150</text><text transform="translate(335.543 283.52)" class="st10 st12">17</text><text transform="translate(458.13 283.52)"><tspan x="0" y="0" class="st10 st12">1</tspan><tspan x="4.8" y="0" class="st10 st12">16</tspan></text><text transform="rotate(-90 289.93 -32.496)" class="st10 st12">10</text><text transform="translate(534.927 570.506)" class="st10 st12">Not to scale</text><text transform="translate(534.927 582.506)" class="st10 st12">Dimensions in mm</text></svg>