<svg xmlns="http://www.w3.org/2000/svg" viewBox="0 0 1757.5 354.3" style="enable-background:new 0 0 1757.5 354.3;background-color:#fff" xml:space="preserve"><style>.st0{stroke-width:.4252;stroke-miterlimit:10}.st0,.st1,.st2,.st4,.st5,.st6,.st8{fill:none;stroke:#000;stroke-linecap:round;stroke-linejoin:round}.st1{stroke-width:.283;stroke-miterlimit:10}.st2,.st4,.st5,.st6,.st8{stroke-width:.2835}.st4{stroke-dasharray:.5508,2.7542}.st5{stroke-dasharray:8.2627,2.7542,.5508,2.7542}.st6{stroke-dasharray:.7015,3.5074}.st8{stroke-dasharray:8.1102}.st9{font-family:Helvetica,Arial,sans-serif}.st10{font-size:10px}.st11{font-size:14.9998px}</style><g id="BCLB-10x100"><path class="st0" d="M92.4 37.8v22.7h0c0 6.6 5.3 11.9 11.9 11.9h1417.3c6.6 0 11.8-5.3 11.8-11.9V37.8c0-6.6-5.3-11.9-11.9-11.9H104.4c-6.6 0-12 5.2-12 11.9"/><path class="st0" d="M1521.6 23.5H104.4c-7.8 0-14.2 6.3-14.2 14.2h0v22.7h0c0 7.8 6.3 14.2 14.2 14.2h1417.3c7.8 0 14.2-6.3 14.2-14.2v0-22.6 0c-.1-7.9-6.4-14.3-14.3-14.3h0z"/><path class="st0" d="M1524.5 33.5h-1423v31.2h1423V33.5m115.7 4.3V23.5h-56.7v14.3m56.7 0h-56.7m0 0v36.8m56.7-14.2v14.2m-56.7-14.2h56.7m0 14.2h-56.7m56.7-36.8v22.6m-28.3-15.6c-2.3 0-4.3 1.9-4.3 4.3s1.9 4.3 4.3 4.3c2.3 0 4.3-1.9 4.3-4.3s-1.9-4.3-4.3-4.3"/><path class="st0" d="M1611.9 54.7c3.1 0 5.7-2.5 5.7-5.7 0-3.1-2.5-5.7-5.7-5.7m0 .1c-3.1 0-5.7 2.5-5.7 5.7M104.4 139.7v56.6m1417.2 0v-56.6m-1431.5 0h1445.7v56.6H90.1zm58.2-.4h0v-4.8m-6.5 0 3.3-.4 3.2.4m-6.5 0v5.2m-2.5 0v-5.2h2.5m-15.7 0 6.7-.4 6.5.4m-13.2 0v5.2m0-5.2h-2.5v5.2m-6.5-5.2 3.3-.4 3.2.4m-6.5 0h0v4.8m24.3-22.5H124m18.5 3.6h-19.6m19.1 2.2h-18.6m18.6 2.9h-18.6m20.8 1.9h-22.8m22.8 2.9h-22.8m20.6 2.2h-18.6m24.9 7.2v-5.2m-31.2 5.2v-5.2m24.9-17.2c-.1-.3-.3-.5-.6-.5m-17.3 0c-.3 0-.6.2-.6.5m18.5 0 .5 3.1m-19.1-3.1-.5 3.1v1.4m19.6 0v-1.4m-19.1 2.2-.5-.8m19.1.8.5-.8m-19.1 3.7v-2.9m20.8 4.8-2.2-1.9v-2.9m-18.6 2.9-2 1.9v2.9m22.8 0v-2.9m-20.8 5.1-2-2.2m20.6 2.2 2.2-2.2m-2.2 3.1v-.9m0 .9c0 .3.3.6.6.6l2.4.1m-21.6-1.6v.9c0 .3-.3.6-.6.6l-2.4.1M1583.2 33.5h0-4.9m0 6.5-.3-3.3.3-3.2m0 6.5h5.2m0 2.5h-5.2V40m0 15.6-.3-6.6.3-6.5m0 13.1h5.2m-5.2 0v2.6h5.2m-5.2 6.5-.3-3.3.3-3.2m0 6.5h4.9m-22.5-24.4v17.5m3.6-18.6v19.7m2.1-19.1v18.5m2.9-18.5v18.5m2-20.7v22.7m2.9-22.7v22.7m2.1-20.5v18.5m7.2-24.8h-5.2m5.2 31.2h-5.2m-17.1-24.9c-.3.1-.5.3-.5.6m0 17.3c0 .3.2.6.5.6m0-18.5 3.1-.6m-3.1 19.1 3.1.6h1.4m0-19.7h-1.4m2.1 19.1-.7.6m.7-19.1-.7-.6m3.6 19.1h-2.9m4.9-20.7-2 2.2h-2.9m2.9 18.5 2 2h2.9m0-22.7h-2.9m5 20.7-2.1 2m2.1-20.5-2.1-2.2m3 2.2h-.9m.9 0c.3 0 .6-.3.6-.6l.1-2.4m-1.6 21.5h.9c.3 0 .6.3.6.6l.1 2.4"/></g><g id="Dimensions"><path class="st1" d="M1640.3 74.6h18.6m-47-25.5h47m-47 0v42.6"/><path class="st2" d="M1634 111.4h-67.1"/><path d="m1632.6 109.3 7.7 2.1-7.7 2zm-64.3 0-7.6 2.1 7.6 2z"/><path class="st2" d="M1634 90.1h-15.8"/><path d="m1632.6 88.1 7.7 2-7.7 2.1zm-13 0-7.7 2 7.7 2.1z"/><path class="st2" d="M1657.2 55.3v13"/><path d="m1655.2 56.7 2-7.6 2.1 7.6zm0 10.2 2 7.7 2.1-7.7z"/><path class="st1" d="M1560.7 57.8v55.6m79.6-38.8v38.8M90.2 196.3H19.5m70.7-56.6H19.5m382.3 19.7H42.2m90.2 11H64.9"/><path class="st2" d="M22.6 189.5V146"/><path d="m24.7 188.1-2.1 7.7-2-7.7zm0-40.7-2.1-7.7-2 7.7z"/><path class="st2" d="M45.3 189.5v-23.8"/><path d="m47.4 188.1-2.1 7.7-2-7.7zm0-21-2.1-7.7-2 7.7z"/><path class="st2" d="M68 190v-13"/><path d="m70.1 188.6-2.1 7.7-2.1-7.7zm0-10.2-2.1-7.7-2.1 7.7z"/><path style="fill:none;stroke:#000;stroke-width:.2835;stroke-linecap:round;stroke-linejoin:round;stroke-miterlimit:10" d="M68 213v-16.8"/><path class="st2" d="M22.6 110.9V98.6"/><path d="m24.7 109.5-2.1 7.7-2-7.7z"/><path class="st1" d="M22.6 139.4v-22.2m100.9-.3H19.8M805.1 88l15.8-35.1"/><path class="st2" d="m1619.1 40.8 22.4-23.1h72.1"/><path d="m1621.6 41.2-6.9 4.1 3.9-6.9z"/><path class="st1" d="M102.6 74.4H64.9m39.4-50.8H64.9"/><path class="st2" d="M68 67.8V29.9"/><path d="M70.1 66.4 68 74.1l-2.1-7.7zm0-35.1L68 23.6l-2.1 7.7z"/><path class="st1" d="M401.8 230.6v27.8m0-98.7v60.5m184.3-49.6v60m453.7-60v60m-907.4-71.2v99m-28-62.1v33.8"/><path class="st2" d="M1217.9 255.3H408.1"/><path d="m1216.5 253.2 7.7 2.1-7.7 2.1zm-807 0-7.7 2.1 7.7 2.1z"/><path class="st2" d="M395.5 255.3H138.7"/><path d="m394.1 253.2 7.7 2.1-7.7 2.1zm-254 0-7.7 2.1 7.7 2.1z"/><path class="st2" d="M579.9 227H138.7"/><path d="m578.4 224.9 7.7 2.1-7.7 2zm-438.3 0-7.7 2.1 7.7 2z"/><path class="st2" d="M1033.5 227H592.3"/><path d="m1032.1 224.9 7.6 2.1-7.6 2zm-438.4 0-7.6 2.1 7.6 2z"/><path class="st1" d="M1493.6 170.6v60"/><path class="st2" d="M1487.2 227h-441.1"/><path d="m1485.8 224.9 7.7 2.1-7.7 2zm-438.3 0-7.7 2.1 7.7 2z"/><path class="st2" d="M110.7 227h15.5"/><path d="m112.1 229-7.7-2 7.7-2.1zm12.7 0 7.6-2-7.6-2.1z"/><path class="st1" d="M1535.8 196.3v92.6M90.1 196.3V289"/><path class="st2" d="M1529.6 285.9H96.4"/><path d="m1528.2 283.9 7.6 2-7.6 2.1zm-1430.4 0-7.7 2 7.7 2.1z"/><path class="st1" d="M90.1 139.7V100m42.6 16.8V100"/><path class="st2" d="M96.6 103.1h29.8"/><path d="m98 105.1-7.7-2L98 101zm27 0 7.7-2-7.7-2.1z"/><path class="st2" d="m410.7 149.9 22.3-23.1h45.1"/><path d="m413.1 150.3-6.8 4.1 3.9-6.9z"/><path class="st1" d="M1224.2 230.6v27.8m0-98.7v60.5"/><path class="st2" d="m138.8 163.6 34.9-36.8h90.1"/><path d="m141.3 164-6.8 4.2 3.8-7z"/></g><g id="Middle_Lines"><path class="st2" d="M132.7 114v4.2"/><path class="st4" d="M132.7 121v1.9"/><path class="st5" d="M132.7 124.3v12.9"/><path class="st2" d="M132.7 138.6v4.2m-.3 35.9v-4.3"/><path class="st6" d="M132.4 170.9v-2.5"/><path class="st2" d="M132.4 166.7v-4.3"/><path style="fill:none;stroke:#000;stroke-width:.2835;stroke-linecap:round;stroke-linejoin:round;stroke-dasharray:8.1108" d="M140.6 170.6h-8.2"/><path class="st8" d="M1493.5 170.6v-8.2"/><path class="st2" d="M1501.6 170.6h-4.2"/><path class="st6" d="M1493.8 170.6h-2.4"/><path class="st2" d="M1489.6 170.6h-4.2m-1083.6-3.1v-4.2"/><path class="st6" d="M401.8 159.7v-2.4"/><path class="st2" d="M401.8 155.5v-4.2m8.1 8.1h-4.3"/><path class="st6" d="M402.1 159.4h-2.4"/><path class="st2" d="M397.9 159.4h-4.2"/><path class="st8" d="M586.1 170.6v-8.2"/><path class="st2" d="M594.2 170.6H590"/><path class="st6" d="M586.5 170.6H584"/><path class="st2" d="M582.3 170.6H578M1554.7 49h4.2"/><path class="st4" d="M1561.7 49h1.9"/><path class="st5" d="M1565 49h12.9"/><path class="st2" d="M1579.3 49h4.2m28.4 8.2v-4.3"/><path class="st6" d="M1611.9 49.4V47"/><path class="st2" d="M1611.9 45.2V41m8.2 8.1h-4.3"/><path class="st6" d="M1612.3 49.1h-2.5"/><path class="st2" d="M1608.1 49.1h-4.3"/><path class="st8" d="M1039.8 170.6v-8.2"/><path class="st2" d="M1047.9 170.6h-4.2"/><path class="st6" d="M1040.2 170.6h-2.5"/><path class="st2" d="M1036 170.6h-4.3"/><path class="st8" d="M1224.2 159.4v-8.1"/><path class="st2" d="M1232.3 159.4h-4.3"/><path class="st6" d="M1224.5 159.4h-2.4"/><path class="st2" d="M1220.3 159.4h-4.2"/></g><g id="Text_1_"><text transform="translate(1591.561 108.846)" class="st9 st10">(28)</text><text transform="translate(1619.98 87.458)" class="st9 st10">10</text><text transform="rotate(-90 858.405 -794.999)" class="st9 st10">9</text><text transform="rotate(-90 75.433 55.596)" class="st9 st10">8</text><text transform="rotate(-90 96.513 76.675)" class="st9 st10">20</text><text transform="rotate(-90 112.798 70.283)" class="st9 st10">13</text><text transform="rotate(-90 139.004 73.813)" class="st9 st10">9.1</text><text transform="rotate(-90 59.663 -5.528)" class="st9 st10">18</text><text transform="translate(759.255 100.343)" class="st9 st10">10 x 500 (Luminous area)</text><text transform="translate(1644.213 14.173)" class="st9 st10">2 × M4, 5 deep</text><text transform="translate(804.559 248.538)" class="st9 st10">290</text><text transform="translate(237.505 248.538)" class="st9 st10">110</text><text transform="translate(350.946 220.191)" class="st9 st10">160</text><text transform="translate(804.558 220.191)" class="st9 st10">160</text><text transform="translate(1258.315 220.191)" class="st9 st10">160</text><text transform="translate(112.853 220.191)" class="st9 st10">15</text><text transform="translate(804.559 279.152)" class="st9 st10">510</text><text transform="translate(105.844 100.259)" class="st9 st10">15</text><text transform="translate(435.79 123.252)" class="st9 st10">2 × Ø 4.8</text><text transform="translate(183.79 123.252)" class="st9 st10">8 × M2.5 - 5 deep</text><text transform="translate(1626.097 325.323)" class="st9 st11">Not to scale</text><text transform="translate(1626.097 343.323)" class="st9 st11">Dimensions in mm</text></g><path class="st0" d="M408.4 159.4a6.7 6.7 0 1 0-6.7 6.7c3.8 0 6.7-3 6.7-6.7m1088.2 11.2c0-1.7-1.4-3.1-3.1-3.1-1.7 0-3.1 1.4-3.1 3.1 0 1.7 1.4 3.1 3.1 3.1 1.7-.1 3.1-1.5 3.1-3.1m-453.7 0c0-1.7-1.4-3.1-3.1-3.1-1.7 0-3.1 1.4-3.1 3.1 0 1.7 1.4 3.1 3.1 3.1 1.7-.1 3.1-1.5 3.1-3.1m-453.7 0c0-1.7-1.4-3.1-3.1-3.1-1.7 0-3.1 1.4-3.1 3.1 0 1.7 1.4 3.1 3.1 3.1 1.7-.1 3.1-1.5 3.1-3.1m-453.7 0c0-1.7-1.4-3.1-3.1-3.1-1.7 0-3.1 1.4-3.1 3.1 0 1.7 1.4 3.1 3.1 3.1 1.7-.1 3.1-1.5 3.1-3.1m1095.3-11.2a6.7 6.7 0 1 0-13.4 0 6.7 6.7 0 0 0 13.4 0" id="Ebene_1"/></svg>