<svg version="1.1" id="Ebene_1" xmlns="http://www.w3.org/2000/svg" xmlns:xlink="http://www.w3.org/1999/xlink" x="0" y="0" viewBox="0 0 333.3 233.1" style="enable-background:new 0 0 333.3 233.1;background-color:#fff" xml:space="preserve"><style>.st0{fill:none;stroke:#d9d9d9;stroke-width:.75;stroke-linejoin:round;stroke-miterlimit:10}.st2{fill:#595959}.st3{font-family:&apos;Calibri&apos;}.st4{font-size:9px}.st5{fill:#020203}.st6{font-family:Helvetica,Arial,sans-serif}.st7{font-size:9.96px}</style><path class="st0" d="M46.3 28.6h271.3M46.3 50.2h271.3M46.3 71.8h271.3M46.3 93.5h271.3M46.3 136.7h271.3M46.3 158.4h271.3M46.3 180h271.3M46.3 201.7h271.3m0-173.1v173.1M290.5 28.6v173.1M263.4 28.6v173.1M236.3 28.6v173.1M209.1 28.6v173.1M182 28.6v173.1M154.9 28.6v173.1M127.8 28.6v173.1M100.5 28.6v173.1M73.4 28.6v173.1M46.3 28.6v173.1m0-86.6h271.3"/><defs><path id="SVGID_1_" d="M46.3 28.5h272v173.9h-272z"/></defs><clipPath id="SVGID_00000023978933509945311100000011347412111952711562_"><use xlink:href="#SVGID_1_" style="overflow:visible"/></clipPath><path style="clip-path:url(#SVGID_00000023978933509945311100000011347412111952711562_);fill:none;stroke:#5c9bd4;stroke-width:2.25;stroke-linecap:round;stroke-linejoin:round;stroke-miterlimit:10" d="M46.3 115.1h27.1l27.1.1 27.3.1 27.1.3 27.1.2 27.1.4 27.2.3 27.1.4 27.1.4 27.1.3"/><text transform="translate(30.663 204.199)" class="st2 st3 st4">-1</text><text transform="translate(19.296 182.562)"><tspan x="0" y="0" class="st2 st3 st4">-0</tspan><tspan x="7.3" y="0" class="st2 st3 st4">,</tspan><tspan x="9.6" y="0" class="st2 st3 st4">75</tspan></text><text transform="translate(23.86 160.926)"><tspan x="0" y="0" class="st2 st3 st4">-0</tspan><tspan x="7.3" y="0" class="st2 st3 st4">,</tspan><tspan x="9.6" y="0" class="st2 st3 st4">5</tspan></text><text transform="translate(19.296 139.29)"><tspan x="0" y="0" class="st2 st3 st4">-0</tspan><tspan x="7.3" y="0" class="st2 st3 st4">,</tspan><tspan x="9.6" y="0" class="st2 st3 st4">25</tspan></text><text transform="translate(33.417 117.655)" class="st2 st3 st4">0</text><text transform="translate(22.05 96.018)"><tspan x="0" y="0" class="st2 st3 st4">0</tspan><tspan x="4.6" y="0" class="st2 st3 st4">,</tspan><tspan x="6.8" y="0" class="st2 st3 st4">25</tspan></text><text transform="translate(26.613 74.382)"><tspan x="0" y="0" class="st2 st3 st4">0</tspan><tspan x="4.6" y="0" class="st2 st3 st4">,</tspan><tspan x="6.8" y="0" class="st2 st3 st4">5</tspan></text><text transform="translate(22.05 52.747)"><tspan x="0" y="0" class="st2 st3 st4">0</tspan><tspan x="4.6" y="0" class="st2 st3 st4">,</tspan><tspan x="6.8" y="0" class="st2 st3 st4">75</tspan></text><text transform="translate(33.417 31.11)" class="st2 st3 st4">1</text><text transform="translate(44.046 129.373)" class="st2 st3 st4">0</text><text transform="translate(66.402 129.373)"><tspan x="0" y="0" class="st2 st3 st4">-1</tspan><tspan x="7.3" y="0" class="st2 st3 st4">,</tspan><tspan x="9.6" y="0" class="st2 st3 st4">6</tspan></text><text transform="translate(93.537 129.373)"><tspan x="0" y="0" class="st2 st3 st4">-3</tspan><tspan x="7.3" y="0" class="st2 st3 st4">,</tspan><tspan x="9.6" y="0" class="st2 st3 st4">2</tspan></text><text transform="translate(120.672 129.373)"><tspan x="0" y="0" class="st2 st3 st4">-4</tspan><tspan x="7.3" y="0" class="st2 st3 st4">,</tspan><tspan x="9.6" y="0" class="st2 st3 st4">8</tspan></text><text transform="translate(147.807 129.373)"><tspan x="0" y="0" class="st2 st3 st4">-6</tspan><tspan x="7.3" y="0" class="st2 st3 st4">,</tspan><tspan x="9.6" y="0" class="st2 st3 st4">4</tspan></text><text transform="translate(178.344 129.373)" class="st2 st3 st4">-8</text><text transform="translate(202.077 129.373)"><tspan x="0" y="0" class="st2 st3 st4">-9</tspan><tspan x="7.3" y="0" class="st2 st3 st4">,</tspan><tspan x="9.6" y="0" class="st2 st3 st4">6</tspan></text><text transform="translate(226.925 129.373)"><tspan x="0" y="0" class="st2 st3 st4">-11</tspan><tspan x="11.9" y="0" class="st2 st3 st4">,</tspan><tspan x="14.2" y="0" class="st2 st3 st4">2</tspan></text><text transform="translate(254.061 129.373)"><tspan x="0" y="0" class="st2 st3 st4">-12</tspan><tspan x="11.9" y="0" class="st2 st3 st4">,</tspan><tspan x="14.2" y="0" class="st2 st3 st4">8</tspan></text><text transform="translate(281.196 129.373)"><tspan x="0" y="0" class="st2 st3 st4">-14</tspan><tspan x="11.9" y="0" class="st2 st3 st4">,</tspan><tspan x="14.2" y="0" class="st2 st3 st4">4</tspan></text><text transform="translate(311.733 129.373)" class="st2 st3 st4">-16</text><path class="st0" d="M.4.4h332.5v232.4H.4z"/><text transform="translate(131.436 215.595)" class="st5 st6 st7">Image Height [mm]</text><text transform="rotate(-90.079 88.028 75.11)" class="st5 st6 st7">Optical Distortion [%]</text></svg>