<svg version="1.1" id="Layer_1" xmlns="http://www.w3.org/2000/svg" x="0" y="0" viewBox="0 0 1000 340" style="enable-background:new 0 0 1000 340;background-color:#fff" xml:space="preserve"><style>.st1{fill:none;stroke:#000;stroke-miterlimit:3.864}.st2{fill-rule:evenodd;clip-rule:evenodd}.st3,.st4{fill:none;stroke:#000;stroke-miterlimit:3.864}.st3{stroke-linejoin:round}.st4{stroke-width:.5}.st6{font-family:Helvetica,Arial,sans-serif}.st7{font-size:18.005px}.st13{enable-background:new}.st14{font-size:18px}</style><path id="path4" class="st1" d="M264.2 201.7h19.5"/><path id="path6" class="st2" d="M264.2 190.1h19.5l-9.8 9.7-9.7-9.7z"/><path id="path8" class="st3" d="M264.2 190.1h19.5l-9.8 9.7-9.7-9.7z"/><path id="path10" class="st2" d="M322.6 196.6v-6l15.1 6-15.1 6v-6z"/><path id="path12" class="st3" d="M298.3 203.9h20.6l-10.4-7.3h15.1"/><path id="path14" class="st3" d="M243.6 165.4H394v62.9H243.6v-62.9z"/><path id="path16" class="st1" d="M238.1 177.5H274l-.1-.4v39"/><path id="path18" class="st3" d="M522.6 258.5h39.9m-194.5-41h138.9m-152.2-34.9v29.8m.1-8.6 13.6 13.6m-132.9-1.2h38.7m246.8-12V177m2 82.4v-27.3m38.9 26.7v-52.3m-194-29.7h286.7"/><path id="path20" d="M516.4 178.2c0-2.7 2.2-4.9 4.9-4.9s4.9 2.2 4.9 4.9-2.2 4.9-4.9 4.9-4.9-2.2-4.9-4.9z"/><path id="path22" class="st4" d="M516.4 178.2c0-2.7 2.2-4.9 4.9-4.9s4.9 2.2 4.9 4.9-2.2 4.9-4.9 4.9-4.9-2.2-4.9-4.9z"/><path id="path24" class="st2" d="m358.4 214.2 6.9-6.9v6.9h-6.9z"/><path id="path26" class="st3" d="m358.4 214.2 6.9-6.9v6.9h-6.9zm-3.7-23.6 13.6-13.6M507 202.7v29.9m.1-15.2 13.6 13.6"/><path id="path28" d="m511.4 232.6 10.9-10.9v10.9h-10.9z" style="fill-rule:evenodd;clip-rule:evenodd;fill:#fff"/><path id="path30" class="st3" d="m511.4 232.6 10.9-10.9v10.9h-10.9zM507 217l13.6-13.6"/><text id="text32" transform="translate(473.639 207.646)" class="st6 st7">Q1</text><text transform="translate(652.778 59.619)" class="st6 st7">8-pin connector</text><path id="path40" class="st3" d="M654.8 68h32.5v182.6h-32.5V68z"/><text id="text48" transform="translate(664.593 183.004)" class="st6 st7">4</text><text id="text50" transform="translate(664.593 211.933)" class="st6 st7">5</text><path id="path54" d="M15.6 70.1h639.2v248.7H15.6V70.1z" style="fill:none;stroke:#000;stroke-width:.5;stroke-linejoin:round;stroke-miterlimit:3.864;stroke-dasharray:8,4"/><text id="text56" transform="translate(33.694 108.057)" style="font-size:21px;font-family:Helvetica,Arial,sans-serif;font-weight:700">Camera (blaze-101)</text><text id="text58" transform="translate(274.155 157.202)" class="st6 st7">Optocoupler</text><path id="path60" class="st3" d="M560.8 206.5h94.3"/><path id="path62" d="M135.7 216.1h99.8" style="fill:none;stroke:#000;stroke-width:.9;stroke-linejoin:round;stroke-miterlimit:3.864;stroke-dasharray:8,4"/><path id="path64" d="M135.7 177.4h102.6" style="fill:none;stroke:#000;stroke-linejoin:round;stroke-miterlimit:3.864;stroke-dasharray:8,4"/><text transform="translate(58.672 191.359)" class="st13"><tspan x="0" y="0" class="st6 st14">Further  </tspan><tspan x="0" y="21.6" class="st6 st14">circuitry</tspan></text><path id="path72" class="st1" d="M783 310V206"/><path id="path74" class="st3" d="M783.4 206.5h-96.1M792 310h-17.9m3.3 3.8h11.3m-8.8 3.9h6.3"/><path id="path76" class="st2" d="M851.3 176.8v-6l16.2 6-16.2 6v-6z"/><path id="path78" d="M852.4 176.8H687.3" style="fill:none;stroke:#000;stroke-width:1.001;stroke-linejoin:round;stroke-miterlimit:3.864"/><path id="path80" class="st1" d="M782.8 176.2V48.1"/><path id="path82" d="M773.6 95.2h19.5v58.5h-19.5V95.2z" style="fill:#fff"/><path id="path84" class="st1" d="M773.6 95.2h19.5v58.5h-19.5V95.2z"/><path id="path86" d="M778.1 176.9c0-2.7 2.2-4.9 4.9-4.9s4.9 2.2 4.9 4.9-2.2 4.9-4.9 4.9-4.9-2.2-4.9-4.9z"/><path id="path88" class="st4" d="M778.1 176.9c0-2.7 2.2-4.9 4.9-4.9s4.9 2.2 4.9 4.9-2.2 4.9-4.9 4.9-4.9-2.2-4.9-4.9z"/><text transform="translate(876.732 161.122)" class="st13"><tspan x="0" y="0" class="st6 st7">Voltage  </tspan><tspan x="0" y="21.6" class="st6 st7">output  </tspan><tspan x="0" y="43.2" class="st6 st7">signal</tspan></text><path id="path98" class="st3" d="M972.4 310h-17.9m3.3 3.8h11.3m-8.8 3.9h6.3"/><path id="path100" class="st1" d="M782.6 48.8V22.3h180.8V310"/><text id="text102" transform="translate(885.33 71.232)" class="st6 st7">3.3–24</text><text id="text104" transform="translate(896.33 90.532)" class="st6 st7">VDC</text><path id="path106" d="M975.7 73.2c0 7-5.7 12.6-12.6 12.6s-12.6-5.7-12.6-12.6c0-7 5.7-12.6 12.6-12.6s12.6 5.7 12.6 12.6z" style="fill-rule:evenodd;clip-rule:evenodd;fill:#fff;stroke:#000;stroke-linejoin:round;stroke-miterlimit:3.864"/><path id="path108" class="st3" d="M956.1 71.2H970m-13.9 4H970"/><text id="text110" transform="translate(966.086 58.392)" class="st6 st14">+</text><text id="text112" transform="translate(966.045 100.122)" class="st6 st14">-</text><path id="path114" class="st1" d="M601.4 176.8v29.7"/><path id="path116" class="st2" d="M611.1 197.8h-19.5l9.8-11.5 9.7 11.5z"/><path id="path118" d="M611.1 197.8h-19.5l9.8-11.5 9.7 11.5z" style="fill:none;stroke:#000;stroke-width:3.000000e-03;stroke-linejoin:round;stroke-miterlimit:3.864"/><path id="path120" d="M595.6 186.7H607m-.3-.1 3.4 3.4m-17.6-6.5 3.4 3.4" style="fill:none;stroke:#000;stroke-width:.85;stroke-miterlimit:3.864"/><path id="path122" d="M596.5 176.8c0-2.7 2.2-4.9 4.9-4.9s4.9 2.2 4.9 4.9-2.2 4.9-4.9 4.9-4.9-2.2-4.9-4.9z"/><path id="path124" class="st4" d="M596.5 176.8c0-2.7 2.2-4.9 4.9-4.9s4.9 2.2 4.9 4.9-2.2 4.9-4.9 4.9-4.9-2.2-4.9-4.9z"/><path id="path126" d="M596.4 206.5c0-2.7 2.2-4.9 4.9-4.9s4.9 2.2 4.9 4.9-2.2 4.9-4.9 4.9-4.9-2.2-4.9-4.9z"/><path id="path128" class="st4" d="M596.4 206.5c0-2.7 2.2-4.9 4.9-4.9s4.9 2.2 4.9 4.9-2.2 4.9-4.9 4.9-4.9-2.2-4.9-4.9z"/></svg>