<svg version="1.1" id="Ebene_1" xmlns="http://www.w3.org/2000/svg" x="0" y="0" viewBox="0 0 164.5 122.5" style="enable-background:new 0 0 164.5 122.5;background-color:#fff" xml:space="preserve"><style>.st0,.st1{fill:none}.st1{stroke:#414947;stroke-width:.7587;stroke-miterlimit:10}.st3{fill:#020203}.st4{font-family:Helvetica,Arial,sans-serif}.st5{font-size:7px}</style><path class="st1" d="M13.2 35.8h33.2"/><path d="M16.3 119.1h14.2" style="fill:none;stroke:#414947;stroke-width:.759;stroke-miterlimit:10"/><path class="st1" d="M23.5 90.1v29m-.4-28.7h23.4"/><path class="st0" d="M51 32.8h96.3v66.6H51V32.8z"/><text transform="matrix(1.1336 0 0 1 50.957 37.784)" class="st3 st4 st5">1 Power</text><text transform="matrix(1.1336 0 0 1 50.957 55.784)" class="st3 st4 st5">2 LED (+)</text><text transform="matrix(1.1336 0 0 1 50.957 73.784)" class="st3 st4 st5">3 Trigger source</text><text transform="matrix(1.1336 0 0 1 50.957 91.784)" class="st3 st4 st5">4 Ground / LED (-)</text><path class="st0" d="M6 4.8h30v5.7H6V4.8z"/><text transform="matrix(1.1336 0 0 1 5.984 9.844)" class="st3 st4 st5">24 VDC</text><path class="st1" d="M46.5 28.2h110.3v68.5H46.5V28.2z"/><text transform="matrix(1.1336 0 0 1 122.78 35.45)" class="st3 st4 st5">Standard </text><text transform="matrix(1.1336 0 0 1 122.78 43.85)" class="st3 st4 st5">Light</text><path class="st3" d="M15.8 15.5c0 1.2-1.1 2.2-2.5 2.2s-2.5-1-2.5-2.2 1.1-2.2 2.5-2.2 2.5 1 2.5 2.2zm33.1 20.3c0 1.2-1.1 2.2-2.5 2.2s-2.5-1-2.5-2.2 1.1-2.2 2.5-2.2 2.5 1 2.5 2.2zm0 18.1c0 1.2-1.1 2.2-2.5 2.2s-2.5-1-2.5-2.2 1.1-2.2 2.5-2.2c1.4.1 2.5 1 2.5 2.2zm0 17.9c0 1.2-1.1 2.2-2.5 2.2s-2.5-1-2.5-2.2 1.1-2.2 2.5-2.2 2.5 1 2.5 2.2zm0 18.6c0 1.2-1.1 2.2-2.5 2.2s-2.5-1-2.5-2.2 1.1-2.2 2.5-2.2 2.5 1 2.5 2.2z"/><path class="st1" d="M46.3 71.8h-33m.1-56.3-.1 56.7"/></svg>