<svg version="1.1" id="Ebene_1" xmlns="http://www.w3.org/2000/svg" xmlns:xlink="http://www.w3.org/1999/xlink" x="0" y="0" viewBox="0 0 343.4 247.8" style="enable-background:new 0 0 343.4 247.8;background-color:#fff" xml:space="preserve"><style>.st0{fill:none;stroke:#d9d9d9;stroke-width:.75;stroke-linejoin:round;stroke-miterlimit:10}.st2{fill:#595959}.st3{font-family:&apos;Calibri&apos;}.st4{font-size:9px}.st5{font-family:Helvetica,Arial,sans-serif}.st6{font-size:9.96px}</style><path class="st0" d="M47.7 30.3h279.6m-279.6 23h279.6m-279.6 23h279.6M47.7 99.4h279.6M47.7 145.3h279.6M47.7 168.4h279.6m-279.6 23h279.6m-279.6 23h279.6m0-184.1v184m-27.9-184v184m-27.9-184v184m-28-184v184m-28-184v184m-27.9-184v184m-28-184v184m-27.9-184v184m-28-184v184m-28-184v184m-28-184v184m0-92h279.6"/><defs><path id="SVGID_1_" d="M47.7 30.3H328v184.8H47.7z"/></defs><clipPath id="SVGID_00000122704280732224376160000011740263790133228202_"><use xlink:href="#SVGID_1_" style="overflow:visible"/></clipPath><path style="clip-path:url(#SVGID_00000122704280732224376160000011740263790133228202_);fill:none;stroke:#5c9bd4;stroke-width:2.25;stroke-linecap:round;stroke-linejoin:round;stroke-miterlimit:10" d="m47.7 122.3 28 1.4 28 3.9 28 6.1 27.9 7.9 28 9.1 27.9 9.4 28 8.8 28 7.5 27.9 5.3 27.9 2.5"/><text transform="translate(32.065 216.89)" class="st2 st3 st4">-2</text><text transform="translate(25.262 193.886)"><tspan x="0" y="0" class="st2 st3 st4">-1</tspan><tspan x="7.3" y="0" class="st2 st3 st4">,</tspan><tspan x="9.6" y="0" class="st2 st3 st4">5</tspan></text><text transform="translate(32.065 170.882)" class="st2 st3 st4">-1</text><text transform="translate(25.262 147.878)"><tspan x="0" y="0" class="st2 st3 st4">-0</tspan><tspan x="7.3" y="0" class="st2 st3 st4">,</tspan><tspan x="9.6" y="0" class="st2 st3 st4">5</tspan></text><text transform="translate(34.82 124.874)" class="st2 st3 st4">0</text><text transform="translate(28.015 101.87)"><tspan x="0" y="0" class="st2 st3 st4">0</tspan><tspan x="4.6" y="0" class="st2 st3 st4">,</tspan><tspan x="6.8" y="0" class="st2 st3 st4">5</tspan></text><text transform="translate(34.82 78.866)" class="st2 st3 st4">1</text><text transform="translate(28.015 55.862)"><tspan x="0" y="0" class="st2 st3 st4">1</tspan><tspan x="4.6" y="0" class="st2 st3 st4">,</tspan><tspan x="6.8" y="0" class="st2 st3 st4">5</tspan></text><text transform="translate(34.82 32.858)" class="st2 st3 st4">2</text><text transform="translate(45.449 136.574)" class="st2 st3 st4">0</text><text transform="translate(68.632 136.574)"><tspan x="0" y="0" class="st2 st3 st4">-1</tspan><tspan x="7.3" y="0" class="st2 st3 st4">,</tspan><tspan x="9.6" y="0" class="st2 st3 st4">6</tspan></text><text transform="translate(96.595 136.574)"><tspan x="0" y="0" class="st2 st3 st4">-3</tspan><tspan x="7.3" y="0" class="st2 st3 st4">,</tspan><tspan x="9.6" y="0" class="st2 st3 st4">2</tspan></text><text transform="translate(124.558 136.574)"><tspan x="0" y="0" class="st2 st3 st4">-4</tspan><tspan x="7.3" y="0" class="st2 st3 st4">,</tspan><tspan x="9.6" y="0" class="st2 st3 st4">8</tspan></text><text transform="translate(152.521 136.574)"><tspan x="0" y="0" class="st2 st3 st4">-6</tspan><tspan x="7.3" y="0" class="st2 st3 st4">,</tspan><tspan x="9.6" y="0" class="st2 st3 st4">4</tspan></text><text transform="translate(183.886 136.574)" class="st2 st3 st4">-8</text><text transform="translate(208.447 136.574)"><tspan x="0" y="0" class="st2 st3 st4">-9</tspan><tspan x="7.3" y="0" class="st2 st3 st4">,</tspan><tspan x="9.6" y="0" class="st2 st3 st4">6</tspan></text><text transform="translate(234.125 136.574)"><tspan x="0" y="0" class="st2 st3 st4">-11</tspan><tspan x="11.9" y="0" class="st2 st3 st4">,</tspan><tspan x="14.2" y="0" class="st2 st3 st4">2</tspan></text><text transform="translate(262.088 136.574)"><tspan x="0" y="0" class="st2 st3 st4">-12</tspan><tspan x="11.9" y="0" class="st2 st3 st4">,</tspan><tspan x="14.2" y="0" class="st2 st3 st4">8</tspan></text><text transform="translate(290.05 136.574)"><tspan x="0" y="0" class="st2 st3 st4">-14</tspan><tspan x="11.9" y="0" class="st2 st3 st4">,</tspan><tspan x="14.2" y="0" class="st2 st3 st4">4</tspan></text><text transform="translate(321.416 136.574)" class="st2 st3 st4">-16</text><path class="st0" d="M.4.4h342.7v247H.4z"/><text transform="translate(137.909 229.116)" class="st5 st6">Image Height [mm]</text><text transform="rotate(-90.079 91.043 77.068)" class="st5 st6">Optical Distortion [%]</text></svg>