<svg version="1.1" id="Ebene_1" xmlns="http://www.w3.org/2000/svg" xmlns:xlink="http://www.w3.org/1999/xlink" x="0" y="0" viewBox="0 0 360.8 207.5" style="enable-background:new 0 0 360.8 207.5;background-color:#fff" xml:space="preserve"><style>.st1{fill:none;stroke:#d9d9d9;stroke-width:.75;stroke-linejoin:round;stroke-miterlimit:10}.st4{fill:#595959}.st5{font-family:&apos;Calibri&apos;}.st6{font-size:9px}.st7{fill:#020203}.st8{font-family:Helvetica,Arial,sans-serif}.st9{font-size:9.96px}</style><path style="fill-rule:evenodd;clip-rule:evenodd;fill:#fff" d="M.4.4h360v206.8H.4z"/><path class="st1" d="M49.4 11.4h293.1M49.4 26.5h293.1M49.4 41.8h293.1M49.4 57h293.1M49.4 72.3h293.1M49.4 87.4h293.1M49.4 102.6h293.1M49.4 117.9h293.1M49.4 133.1h293.1M49.4 148.2h293.1m0-136.8v152.1M310 11.4v152.1M277.3 11.4v152.1M244.8 11.4v152.1M212.3 11.4v152.1M179.7 11.4v152.1M147.1 11.4v152.1M114.5 11.4v152.1M82 11.4v152.1"/><path d="M49.4 163.5V11.4m0 152.1h293.1" style="stroke:#bfbfbf;fill:none;stroke-width:.75;stroke-linejoin:round;stroke-miterlimit:10"/><defs><path id="SVGID_1_" d="M49.3 11.3h293.9v152.9H49.3z"/></defs><clipPath id="SVGID_00000162346903834338426320000015549576763706610085_"><use xlink:href="#SVGID_1_" style="overflow:visible"/></clipPath><path style="clip-path:url(#SVGID_00000162346903834338426320000015549576763706610085_);fill:none;stroke:#5c9bd4;stroke-width:1.5;stroke-linecap:round;stroke-linejoin:round;stroke-miterlimit:10" d="M49.4 88.2c.1-.2.2-.3.3-.5l.3-.6c.1-.2.2-.5.3-.7l.3-.9c.1-.3.2-.7.3-1l.3-.9.3-.9c.1-.3.2-.6.3-1l.3-.9.3-.9c.1-.3.2-.6.3-.8.1-.3.2-.5.3-.8.1-.3.2-.5.3-.8.1-.3.2-.5.3-.8.1-.3.2-.5.3-.8.1-.3.2-.5.3-.7.1-.2.2-.5.3-.7.1-.2.2-.5.3-.7.1-.2.2-.5.3-.8.1-.2.2-.5.3-.7.1-.2.2-.5.3-.8.1-.3.2-.6.3-.8.1-.3.2-.5.3-.7.1-.2.2-.5.3-.7.1-.2.2-.5.3-.7.1-.2.2-.5.3-.7.1-.2.2-.4.3-.7.1-.2.2-.5.3-.7.1-.2.2-.3.3-.4l.3-.6.3-.6.3-.6.3-.6c.1-.2.2-.3.3-.5.1-.2.2-.4.3-.5.1-.2.2-.3.3-.6.1-.2.2-.5.3-.7.1-.2.2-.3.3-.5.1-.2.2-.4.3-.5.1-.2.2-.3.3-.5.1-.2.2-.3.3-.5.1-.2.2-.3.3-.5.1-.2.2-.3.3-.5.1-.2.2-.3.3-.4.1-.2.2-.3.3-.5.1-.2.2-.3.3-.4.1-.1.2-.2.3-.4.1-.1.2-.3.3-.4.1-.1.2-.3.3-.4l.3-.3.3-.3.3-.3.3-.3.3-.3c.1-.1.2-.3.3-.4l.3-.3.3-.3.3-.3.3-.3.3-.3.3-.3.3-.3.3-.3.3-.3.3-.3.3-.3.3-.3.3-.3.3-.3.3-.3.3-.3.3-.3c.1-.1.2-.1.3-.2l.3-.3c.1-.1.2-.2.3-.2.1-.1.2-.2.3-.2l.3-.3.3-.3c.1-.1.2-.1.3-.2.1-.1.2-.1.3-.2l.3-.3.3-.3c.1-.1.2-.2.3-.2.1-.1.2-.2.3-.2.1-.1.2-.1.3-.2.1-.1.2-.1.3-.2.1-.1.2-.2.3-.2.1-.1.2-.1.3-.2.1-.1.2-.1.3-.2.1-.1.2-.1.3-.2.1-.1.2-.1.3-.2.1-.1.2-.1.3-.2.1-.1.2-.1.3-.2.1-.1.2-.1.3-.2.1-.1.2-.1.3-.2.1-.1.2-.1.3-.2.1-.1.2-.1.3-.2.1-.1.2-.1.3-.2.1-.1.2-.1.3-.2.1 0 .2-.1.3-.1.1 0 .2-.1.3-.1.1-.1.2-.1.3-.2.1-.1.2-.1.3-.2.1-.1.2-.1.3-.2.1-.1.2-.1.3-.2.1-.1.2-.1.3-.2.1-.1.2-.1.3-.2.1-.1.2-.1.3-.2.1-.1.2-.1.3-.2.1-.1.2-.1.3-.2.1 0 .2-.1.3-.1.1 0 .2-.1.3-.2.1-.1.2-.1.3-.2.1 0 .2-.1.3-.1.1 0 .2-.1.3-.1.1-.1.2-.1.3-.2.1-.1.2-.1.3-.2.1-.1.2-.1.3-.1.1-.1.2-.1.3-.2.1-.1.2-.1.3-.1.1 0 .2-.1.3-.2.1 0 .2-.1.3-.1.1 0 .2 0 .3-.1.1 0 .2-.1.3-.1.1 0 .2-.1.3-.1.1 0 .2-.1.3-.1.1 0 .2-.1.3-.1.1 0 .2 0 .3-.1h.6c.1 0 .2 0 .3-.1.1 0 .2 0 .3-.1.1 0 .2-.1.3-.1.1 0 .2 0 .3-.1.1 0 .2-.1.3-.1.1 0 .2-.1.3-.2.1-.1.2-.1.3-.2.1-.1.2-.1.3-.2.1-.1.2-.1.3-.1.1 0 .2-.1.3-.1.1 0 .2-.1.3-.1.1 0 .2-.1.3-.1.1-.1.2-.1.3-.2.1-.1.2-.1.3-.2.1-.1.2-.1.3-.2.1-.1.2-.1.3-.1.1-.1.2-.1.3-.2.1-.1.2-.1.3-.1.1 0 .2-.1.3-.1.1 0 .2-.1.3-.1.1 0 .2-.1.3-.1.1 0 .2-.1.3-.1.1 0 .2 0 .3-.1h.3c.1 0 .2 0 .3-.1.1 0 .2 0 .3-.1.1 0 .2-.1.3-.1.1 0 .2-.1.3-.1.1 0 .2 0 .3-.1h.3c.1 0 .2-.1.3-.1.1 0 .2-.1.3-.1.1 0 .2 0 .3-.1.1 0 .2 0 .3-.1.1 0 .2-.1.3-.1.1 0 .2-.1.3-.1.1 0 .2-.1.3-.1.1 0 .2-.1.3-.1.1 0 .2-.1.3-.1.1 0 .2 0 .3-.1.1 0 .2-.1.3-.1.1 0 .2-.1.3-.1.1 0 .2-.1.3-.1.1 0 .2 0 .3-.1.1 0 .2-.1.3-.1.1 0 .2-.1.3-.1.1 0 .2-.1.3-.1.1 0 .2-.1.3-.1.1 0 .2-.1.3-.1.1 0 .2-.1.3-.1.1 0 .2-.1.3-.1.1 0 .2-.1.3-.1.1 0 .2 0 .3-.1.1 0 .2 0 .3-.1.1 0 .2-.1.3-.1.1 0 .2-.1.3-.1.1 0 .2-.1.3-.1.1 0 .2-.1.3-.1.1 0 .2 0 .3-.1h.3c.1 0 .2-.1.3-.1.1 0 .2-.1.3-.1h.3c.1 0 .2-.1.3-.1.1 0 .2-.1.3-.1.1 0 .2-.1.3-.1.1 0 .2-.1.3-.1.1 0 .2-.1.3-.1.1 0 .2-.1.3-.1.1 0 .2-.1.3-.1.1 0 .2-.1.3-.1.1 0 .2-.1.3-.1h.3c.1 0 .2 0 .3-.1.1 0 .2-.1.3-.1.1 0 .2-.1.3-.1h.3c.1 0 .2-.1.3-.1.1 0 .2 0 .3-.1.1 0 .2 0 .3-.1.1 0 .2-.1.3-.1.1 0 .2-.1.3-.1h.3c.1 0 .2 0 .3-.1s.2-.1.3-.1c.1 0 .2 0 .3-.1.1 0 .2 0 .3-.1.1 0 .2-.1.3-.1h.6c.1 0 .2-.1.3-.1.1 0 .2 0 .3-.1h.3c.1 0 .2 0 .3-.1.1 0 .2-.1.3-.1.1 0 .2 0 .3-.1.1 0 .2-.1.3-.1.1 0 .2-.1.3-.1h.3c.1 0 .2 0 .3-.1.1 0 .2 0 .3-.1.1 0 .2-.1.3-.1.1 0 .2 0 .3-.1h.9c.1 0 .2-.1.3-.1.1 0 .2 0 .3-.1.1 0 .2-.1.3-.1h.3c.1 0 .2 0 .3-.1.1 0 .2-.1.3-.1.1 0 .2-.1.3-.1.1 0 .2-.1.3-.1.1 0 .2 0 .3-.1.1 0 .2 0 .3-.1h.3c.1 0 .2 0 .3-.1.1 0 .2-.1.3-.1h1.5c.1 0 .2 0 .3-.1.1 0 .2 0 .3-.1h.3c.1 0 .2 0 .3-.1.1 0 .2-.1.3-.1.1 0 .2-.1.3-.1.1 0 .2-.1.3-.1.1 0 .2-.1.3-.1h1.8c.1 0 .2.1.3.1h.3c.1 0 .2-.1.3-.1.1 0 .2-.1.3-.1.1 0 .2-.1.3-.1.1 0 .2-.1.3-.1h.6c.1 0 .2-.1.3-.1.1 0 .2 0 .3-.1.1 0 .2-.1.3-.1h5.1c.1 0 .2-.1.3-.1.1 0 .2 0 .3-.1h2.1c.1 0 .2 0 .3.1h4.8c.1 0 .2-.1.3-.1.1 0 .2 0 .3-.1h1.8c.1 0 .2.1.3.1h.6c.1 0 .2 0 .3.1h.3c.1 0 .2 0 .3.1H170c.1 0 .2 0 .3.1h4.8c.1 0 .2 0 .3-.1h6.3c.1 0 .2 0 .3-.1.1 0 .2 0 .3-.1h6c.1 0 .2 0 .3-.1.1 0 .2-.1.3-.1h1.8c.1 0 .2 0 .3.1h.6c.1 0 .2 0 .3-.1.1 0 .2-.1.3-.1.1 0 .2-.1.3-.1h2.7c.1 0 .2 0 .3-.1.1 0 .2-.1.3-.1h.3c.1 0 .2 0 .3-.1h.9c.1 0 .2 0 .3-.1h4.5c.1 0 .2-.1.3-.1.1 0 .2 0 .3-.1h.3c.1 0 .2 0 .3-.1.1 0 .2 0 .3-.1h.3c.1 0 .2 0 .3-.1h1.5c.1 0 .2.1.3.1h3c.1 0 .2 0 .3.1h2.1c.1 0 .2-.1.3-.1h2.1c.1 0 .2 0 .3.1.1 0 .2.1.3.1h1.2c.1 0 .2 0 .3.1h.3c.1 0 .2.1.3.1h3.3c.1 0 .2 0 .3.1.1 0 .2.1.3.1h.9c.1 0 .2 0 .3.1h.3c.1 0 .2 0 .3.1h.3c.1 0 .2 0 .3.1.1 0 .2.1.3.1.1 0 .2.1.3.1.1 0 .2 0 .3.1.1 0 .2 0 .3.1h.3c.1 0 .2 0 .3.1.1 0 .2.1.3.1.1 0 .2 0 .3.1.1 0 .2.1.3.1.1 0 .2.1.3.1.1 0 .2.1.3.1.1 0 .2.1.3.1.1 0 .2.1.3.1h1.2c.1 0 .2-.1.3-.1h.3c.1 0 .2 0 .3.1.1 0 .2.1.3.1.1 0 .2.1.3.2.1.1.2.1.3.2.1.1.2.1.3.1.1.1.2.1.3.2.1.1.2.1.3.2.1 0 .2.1.3.1.1 0 .2.1.3.1.1 0 .2 0 .3.1.1 0 .2.1.3.1.1 0 .2 0 .3.1.1 0 .2.1.3.1h.3c.1 0 .2.1.3.1.1 0 .2 0 .3.1.1 0 .2 0 .3.1.1 0 .2.1.3.1.1 0 .2.1.3.1.1 0 .2.1.3.1.1 0 .2.1.3.1.1.1.2.1.3.2.1 0 .2.1.3.1.1.1.2.1.3.2.1.1.2.1.3.2.1.1.2.1.3.2.1.1.2.1.3.2.1.1.2.1.3.2.1.1.2.1.3.2.1.1.2.1.3.2.1.1.2.1.3.2.1.1.2.1.3.2.1 0 .2.1.3.1.1 0 .2.1.3.1.1 0 .2.1.3.1.1 0 .2.1.3.1.1 0 .2.1.3.1.1 0 .2.1.3.1.1 0 .2.1.3.2.1.1.2.1.3.1.1 0 .2.1.3.1.1 0 .2.1.3.1.1.1.2.1.3.2.1.1.2.2.3.2.1.1.2.1.3.2.1.1.2.1.3.2l.3.3c.1.1.2.1.3.2.1.1.2.1.3.2.1.1.2.1.3.2.1.1.2.1.3.2.1 0 .2 0 .3.1.1 0 .2.1.3.2.1.1.2.2.3.2.1 0 .2 0 .3.1.1 0 .2.1.3.2.1.1.2.1.3.2.1.1.2.1.3.2.1.1.2.1.3.2.1.1.2.2.3.2.1.1.2.1.3.2.1.1.2.1.3.1.1.1.2.1.3.2.1.1.2.1.3.2.1.1.2.1.3.2s.2.1.3.2l.3.3c.1.1.2.1.3.2.1.1.2.2.3.2.1.1.2.2.3.2.1.1.2.1.3.2l.3.3.3.3.3.3c.1.1.2.1.3.2l.3.3c.1.1.2.1.3.2.1.1.2.1.3.2l.3.3c.1.1.2.1.3.1.1.1.2.1.3.2.1.1.2.2.3.2.1.1.2.2.3.2.1.1.2.1.3.2l.3.3.3.3.3.3.3.3.3.3c.1.1.2.1.3.1.1.1.2.1.3.2.1.1.2.1.3.2.1.1.2.1.3.2l.3.3.3.3c.1.1.2.1.3.2.1.1.2.1.3.2l.3.3c.1.1.2.2.3.2l.3.3.3.3c.1.1.2.1.3.2.1.1.2.1.3.2.1.1.2.3.3.4.1.1.2.1.3.2l.3.3.3.3c.1.1.2.2.3.4l.3.3.3.3.3.3c.1.1.2.1.3.2.1.1.2.3.3.4.1.1.2.1.3.2.1.1.2.2.3.2.1.1.2.1.3.2.1.1.2.2.3.2.1.1.2.1.3.2l.3.3.3.3.3.3c.1.1.2.3.3.4.1.1.2.2.3.2l.3.3c.1.1.2.3.3.4.1.1.2.3.3.5l.3.3c.1.1.2.1.3.2l.3.3c.1.1.2.1.3.2.1.1.2.1.3.2l.3.3c.1.1.2.1.3.2l.3.3c.1.1.2.1.3.2l.3.3.3.3.3.3c.1.1.2.3.3.4.1.1.2.3.3.4.1.1.2.3.3.4l.3.3.3.3c.1.1.2.2.3.4.1.1.2.2.3.4.1.1.2.3.3.4l.3.3.3.3c.1.1.2.1.3.2l.3.3.3.3c.1.1.2.2.3.2l.3.3.3.3.3.3c.1.1.2.3.3.4l.3.3c.1.1.2.2.3.4l.3.3.3.3.3.3.3.3c.1.1.2.1.3.2.1.1.2.1.3.2l.3.3.3.3.3.3.3.3c.1.1.2.1.3.2.1.1.2.2.3.4.1.1.2.3.3.4.1.1.2.2.3.4.1.1.2.3.3.4.1.1.2.1.3.2l.3.3c.1.1.2.3.3.4.1.1.2.3.3.4.1.1.2.3.3.4l.3.3c.1.1.2.1.3.2l.3.3.3.3c.1.1.2.1.3.2.1.1.2.1.3.2l.3.3.3.3c.1.1.2.2.3.4l.3.3.3.3c.1.1.2.3.3.4.1.1.2.3.3.4.1.2.2.4.3.5s.2.3.3.5l.3.3.3.3c.1.1.2.3.3.4.1.1.2.3.3.4.1.1.2.1.3.2.1.1.2.3.3.4.1.1.2.1.3.2.1.1.2.1.3.2l.3.3.3.3.3.3c.1.1.2.3.3.4.1.1.2.3.3.4l.3.3c.1.1.2.2.3.2l.3.3.3.3c.1.1.2.2.3.2.1.1.2.2.3.2.1.1.2.2.3.2.1.1.2.1.3.2l.3.3.3.3.3.3.3.3.3.3.3.3.3.3.3.3.3.3.3.3.3.3.3.3c.1.1.2.3.3.3.1.1.2.2.3.2.1.1.2.1.3.1l.3.3.3.3c.1.1.2.3.3.4.1.1.2.2.3.4.1.1.2.3.3.5.1.1.2.1.3.2.1.1.2.3.3.4.1.2.2.3.3.5.1.1.2.3.3.4.1.1.2.3.3.4.1.1.2.1.3.2.1.1.2.2.3.2.1.1.2.1.3.2.1.1.2.3.3.3.1.1.2 0 .3.1l.3.3c.1.1.2.1.3.2.1.1.2.1.3.2l.3.3.3.3.3.3.3.3.3.3c.1.1.2.2.3.2l.3.3c.1.1.2.3.3.3.1.1.2.1.3.1.1.1.2.1.3.2.1.1.2.2.3.4.1.1.2.2.3.4.1.1.2.3.3.4l.3.3c.1.1.2.3.3.4.1.1.2.1.3.2.1.1.2.3.3.4l.3.3c.1.1.2.2.3.2.1.1.2.1.3.2.1.1.2.1.3.2.1.1.2.1.3.2.1.1.2.2.3.2l.3.3c.1.1.2.1.3.2l.3.3.3.3c.1.1.2.3.3.5.1.1.2.3.3.4.1.1.2.3.3.4l.3.3.3.3c.1.1.2.3.3.4.1.1.2 0 .3.1.1.1.2.2.3.2h.3c.1 0 .2.1.3.2.1.1.2.1.3.2l.3.3c.1.1.2.2.3.2.1.1.2.1.3.2.1.1.2.3.3.4.1.1.2.1.3.2.1.1.2.1.3.2.1.1.2.2.3.4l.3.3c.1.1.2.2.3.4l.3.6c.1.1.2.1.3.2l.3.3.3.3c.1.1.2.3.3.3.1.1.2 0 .3.1.1 0 .2.1.3.1.1 0 .2-.1.3-.2.1-.1.2-.1.3-.2"/><text transform="translate(36.495 166.008)" class="st4 st5 st6">0</text><text transform="translate(31.932 150.798)" class="st4 st5 st6">10</text><text transform="translate(31.932 135.588)" class="st4 st5 st6">20</text><text transform="translate(31.932 120.378)" class="st4 st5 st6">30</text><text transform="translate(31.932 105.168)" class="st4 st5 st6">40</text><text transform="translate(31.932 89.958)" class="st4 st5 st6">50</text><text transform="translate(31.932 74.748)" class="st4 st5 st6">60</text><text transform="translate(31.932 59.538)" class="st4 st5 st6">70</text><text transform="translate(31.932 44.328)" class="st4 st5 st6">80</text><text transform="translate(31.932 29.117)" class="st4 st5 st6">90</text><text transform="translate(27.37 13.908)" class="st4 st5 st6">100</text><text transform="translate(42.561 177.708)" class="st4 st5 st6">400</text><text transform="translate(75.132 177.708)" class="st4 st5 st6">450</text><text transform="translate(107.703 177.708)" class="st4 st5 st6">500</text><text transform="translate(140.274 177.708)" class="st4 st5 st6">550</text><text transform="translate(172.845 177.708)" class="st4 st5 st6">600</text><text transform="translate(205.416 177.708)" class="st4 st5 st6">650</text><text transform="translate(237.987 177.708)" class="st4 st5 st6">700</text><text transform="translate(270.558 177.708)" class="st4 st5 st6">750</text><text transform="translate(303.129 177.708)" class="st4 st5 st6">800</text><text transform="translate(335.7 177.708)" class="st4 st5 st6">850</text><path class="st1" d="M.4.4h360v206.8H.4z"/><text transform="translate(142.224 193.54)" class="st7 st8 st9">Wavelength [nm]</text><text transform="rotate(-89.968 76.447 59.286)" class="st7 st8 st9">Transmittance [%]</text></svg>