<svg version="1.1" id="Layer_1" xmlns="http://www.w3.org/2000/svg" x="0" y="0" viewBox="0 0 578.5 351.5" style="enable-background:new 0 0 578.5 351.5;background-color:#fff" xml:space="preserve"><style>.st2{fill:#f5f5f5}.st3{font-family:Helvetica,Arial,sans-serif}.st4{font-size:12px}.st6{stroke-width:2}.st6,.st7{fill:none;stroke:#000;stroke-miterlimit:10}.st10{fill:#1a171b}</style><path d="M63.6 74.1h99.2v27.5H63.6V74.1z" style="fill:#14487e;stroke:#000;stroke-miterlimit:10"/><text transform="translate(74.154 91.085)" class="st2 st3 st4">Transfer buffer</text><text transform="translate(45.879 33.48)" class="st3 st4">Master</text><path d="M63.6 181.5h99.2V209H63.6v-27.5z" style="fill:#006f9f;stroke:#000;stroke-miterlimit:10"/><text transform="translate(105.255 198.422)" class="st2 st3 st4">I/O</text><path class="st6" d="M40.3 293.7h538.2"/><path class="st7" d="M93.3 218.2v75.2"/><path d="M40.3 20.2h144.3v206H40.3v-206z" style="stroke-dasharray:6.067,3;fill:none;stroke:#000;stroke-miterlimit:10"/><path class="st6" d="M40.3 337.3h538.2"/><text transform="translate(8.19 296.827)" class="st3 st4">SDA</text><text transform="translate(8.742 340.503)" class="st3 st4">SCL</text><path d="m90.4 219.7 2.9-10.8 2.9 10.8h-5.8zm5.8 62.3-2.9 10.8-2.9-10.8h5.8z"/><path class="st7" d="M132.2 208.9v117.6"/><path d="m135.1 325.4-2.9 10.8-2.9-10.8h5.8z"/><circle cx="93.3" cy="293.2" r="2.8"/><circle cx="132.2" cy="337.7" r="2.8"/><circle cx="308.1" cy="337.2" r="2.8"/><circle cx="269.3" cy="293.7" r="2.8"/><path d="m305.2 235.9 2.9-10.8 2.9 10.8h-5.8z"/><path d="M237.1 74.6h102v151.5h-102V74.6z" style="fill:#f99d33;stroke:#000;stroke-miterlimit:10"/><text transform="translate(247.744 150.349)" class="st10 st3 st4">External device</text><path class="st7" d="M269.3 233.6v59.8m38.8-67.2v110.7"/><text transform="translate(241.686 87.405)" class="st10 st3 st4">Slave 1</text><path d="m266.4 235.9 2.9-10.8 2.9 10.8h-5.8zm5.8 46.1-2.9 10.8-2.9-10.8h5.8zm153.9-46.1 2.9-10.8 2.9 10.8h-5.8z"/><path d="M355.8 74.6h102v151.5h-102V74.6z" style="fill:#fbc485;stroke:#000;stroke-miterlimit:10"/><text transform="translate(368.422 150.35)" class="st10 st3 st4">External device</text><path class="st7" d="M390 233.6v59.8m39-64.3v110.7"/><text transform="translate(362.363 87.405)" class="st10 st3 st4">Slave 2</text><path d="m387.1 235.9 2.9-10.8 2.9 10.8h-5.8zm5.8 46.1-2.9 10.8-2.9-10.8h5.8zm150.7-46.1 2.9-10.8 2.9 10.8h-5.8z"/><path d="M474.5 74.6h102v151.5h-102V74.6z" style="fill:#fde1c1;stroke:#000;stroke-miterlimit:10"/><text transform="translate(486.1 150.35)" class="st10 st3 st4">External device</text><path class="st7" d="M507.7 233.6v59.8m38.8-67.2v110.7"/><text transform="translate(480.041 87.405)" class="st10 st3 st4">Slave 3</text><path d="m504.8 235.9 2.9-10.8 2.9 10.8h-5.8zm5.8 46.1-2.9 10.8-2.9-10.8h5.8z"/><text transform="translate(89.809 57.85)" class="st3 st4">Camera</text><path class="st7" d="M132 109.7v23.9"/><path d="m129.1 111.7 2.9-10.9 2.9 10.9h-5.8z"/><path class="st7" d="M132.2 149.4v32M93.3 102v32"/><path d="m96.5 171-2.9 10.9-2.9-10.9h5.8z"/><path class="st7" d="M93.6 150.5v23.9"/><text transform="translate(80.65 144.473)" class="st3 st4">write</text><text transform="translate(120.974 144.29)" class="st3 st4">read</text><circle cx="390.2" cy="293.7" r="2.8"/><circle cx="507.7" cy="293.7" r="2.8"/><circle cx="429" cy="337.2" r="2.8"/><circle cx="546.5" cy="337.3" r="2.8"/></svg>