<svg version="1.1" id="Ebene_1" xmlns="http://www.w3.org/2000/svg" xmlns:xlink="http://www.w3.org/1999/xlink" x="0" y="0" viewBox="0 0 124.7 56.7" style="enable-background:new 0 0 124.7 56.7;background-color:#fff" xml:space="preserve"><style>.st2{fill:none;stroke:#000;stroke-width:.283;stroke-miterlimit:10}.st2,.st3,.st4{clip-path:url(#SVGID_2_)}.st3{fill:#fff}.st4{stroke:#000;stroke-width:.425}.st4,.st7,.st8{fill:none;stroke-miterlimit:10}.st7{clip-path:url(#SVGID_2_);stroke:#000;stroke-width:.283;stroke-dasharray:.631,3.155}.st8{stroke-dasharray:9.465,3.155,.631,3.155}.st8,.st9{clip-path:url(#SVGID_2_);stroke:#000;stroke-width:.283}.st10,.st9{fill:none;stroke-linecap:round}.st10{clip-path:url(#SVGID_2_);stroke:#000;stroke-width:.425}.st12{fill:#020203}.st13{font-family:Helvetica,Arial,sans-serif}.st14{font-size:10px}</style><path style="fill:none;stroke:#000;stroke-width:.283;stroke-linecap:round" d="M109.9 43.2V16.1"/><path style="fill:none;stroke:#000;stroke-width:.425;stroke-miterlimit:10" d="M47.5 19.6 29.8 9.3 12.1 19.6V40l17.7 10.3L47.5 40z"/><defs><path id="SVGID_1_" d="M0 0h124.7v56.7H0z"/></defs><clipPath id="SVGID_2_"><use xlink:href="#SVGID_1_" style="overflow:visible"/></clipPath><path class="st2" d="M45.1 38.7c-4.9 8.5-15.7 11.4-24.2 6.5S9.5 29.5 14.4 21s15.7-11.4 24.2-6.5c8.5 4.8 11.4 15.7 6.5 24.2z"/><path class="st2" d="M42.1 36.9c-3.9 6.8-12.6 9.1-19.4 5.2s-9.1-12.6-5.2-19.4 12.6-9.1 19.4-5.2 9.1 12.6 5.2 19.4z"/><path class="st2" d="M40.8 36.2c-3.5 6.1-11.3 8.2-17.4 4.7-6.1-3.5-8.2-11.3-4.7-17.4 3.5-6.1 11.3-8.2 17.4-4.7 6.2 3.5 8.3 11.3 4.7 17.4z"/><path class="st3" d="M25.2 28.5c-.6 1-1.9 1.4-2.9.8-1-.6-1.4-1.9-.8-2.9.6-1 1.9-1.4 2.9-.8 1 .5 1.4 1.8.8 2.9"/><path class="st4" d="M25.2 28.5c-.6 1-1.9 1.4-2.9.8-1-.6-1.4-1.9-.8-2.9.6-1 1.9-1.4 2.9-.8 1 .5 1.4 1.8.8 2.9z"/><path class="st3" d="M27 35.2c-.6 1-1.9 1.4-2.9.8-1-.6-1.4-1.9-.8-2.9.6-1 1.9-1.4 2.9-.8 1 .6 1.4 1.9.8 2.9"/><path class="st4" d="M27 35.2c-.6 1-1.9 1.4-2.9.8-1-.6-1.4-1.9-.8-2.9.6-1 1.9-1.4 2.9-.8 1 .6 1.4 1.9.8 2.9z"/><path class="st3" d="M34.4 28.5c.6 1 1.9 1.4 2.9.8 1-.6 1.4-1.9.8-2.9-.6-1-1.9-1.4-2.9-.8-1 .5-1.4 1.8-.8 2.9"/><path class="st4" d="M34.4 28.5c.6 1 1.9 1.4 2.9.8 1-.6 1.4-1.9.8-2.9-.6-1-1.9-1.4-2.9-.8-1 .5-1.4 1.8-.8 2.9z"/><path class="st3" d="M32.6 35.2c.6 1 1.9 1.4 2.9.8 1-.6 1.4-1.9.8-2.9-.6-1-1.9-1.4-2.9-.8-1 .6-1.4 1.9-.8 2.9"/><path class="st4" d="M32.6 35.2c.6 1 1.9 1.4 2.9.8 1-.6 1.4-1.9.8-2.9-.6-1-1.9-1.4-2.9-.8-1 .6-1.4 1.9-.8 2.9zm85.1-25.9v41"/><path class="st2" d="M85 29.8h4.3"/><path style="clip-path:url(#SVGID_2_);fill:none;stroke:#000;stroke-width:.283;stroke-miterlimit:10;stroke-dasharray:.446,2.231" d="M91.5 29.8H93"/><path style="clip-path:url(#SVGID_2_);fill:none;stroke:#000;stroke-width:.283;stroke-miterlimit:10;stroke-dasharray:6.693,2.231,.446,2.231" d="M94.2 29.8h22"/><path class="st2" d="M117.4 29.8h4.2m-115.9 0h4.2"/><path class="st7" d="M13.1 29.8h2.2"/><path class="st8" d="M16.9 29.8h31.2"/><path class="st2" d="M49.7 29.8h4.2M29.8 53.9v-4.2"/><path class="st7" d="M29.8 46.5v-2.2"/><path class="st8" d="M29.8 42.7V11.5"/><path class="st2" d="M29.8 9.9V5.7"/><path class="st4" d="M94.3 17h-5l-.7.8v24l.7.8h7.2"/><path class="st2" d="M111.8 19.6h5.9m-6 20.4h5.9"/><path class="st4" d="M111.7 9.3h5.9m-5.9 41h6"/><path class="st2" d="m96.1 15.7 2.2 28.2m1.4-28.2 2.2 28.2m1.3-28.2 2.2 28.2m1.4-28.2 2.2 28.2m-1.9-1.4-2.2-25.4m-1.3 25.4-2.2-25.4m8.5 16.4-1.4-16.4M100 42.5l-2.2-25.4"/><path class="st4" d="m98.3 43.9 1.7-1.4m0 0 1.9 1.4m-5.4-1.3 1.8 1.3m3.6 0 1.7-1.4m0 0 1.8 1.4m0 0 1.7-1.4m1.9 1.4.9-.7m-2.8-.7 1.9 1.4M96.1 15.7l1.7 1.4m0 0 1.9-1.4M94.3 17l1.8-1.3m3.6 0 1.7 1.4m0 0 1.8-1.4m0 0 1.7 1.4m0 0 1.9-1.4m0 0 1.7 1.4m0 0 1.4-1"/><path class="st2" d="m94.3 17 2.2 25.6"/><path class="st9" d="M111.7 50.2s-1.8-2.7-1.8-5.1c0-2.4 1.8-5.1 1.8-5.1"/><path class="st10" d="m109.9 47.5 1.8 2.7"/><path class="st9" d="M111.7 19.6s-1.8 5-1.8 10.2 1.8 10.2 1.8 10.2m0-30.6s-1.8 2.7-1.8 5.1c0 2.4 1.8 5.1 1.8 5.1"/><path class="st10" d="m109.9 12.1 1.8-2.7"/><path class="st4" d="M109.9 12.1v4m0 31.4v-4.3"/><path class="st2" d="M89.4 42.3V17"/><path d="m36 27.6 15.5-10.8M51 48.3l-16.1-14m-11.5-6.5L8.2 16m17.1 18.3L9.2 48.5" style="stroke:#020203;stroke-width:.5;stroke-linejoin:round;stroke-miterlimit:10;fill:none;stroke-linecap:round"/><text transform="translate(50.557 17.36)" class="st12 st13 st14">1</text><text transform="translate(51.538 51.57)" class="st12 st13 st14">2</text><text transform="translate(1.897 17.36)" class="st12 st13 st14">3</text><text transform="translate(1.385 51.569)" class="st12 st13 st14">4</text></svg>