<svg style="background-color:#fff" version="1.1" viewBox="0 0 416.9 80.6" xml:space="preserve" xmlns="http://www.w3.org/2000/svg"><style>.st2{fill:#1d1d1b}.st3{font-family:Helvetica,Arial,sans-serif}.st4{font-size:6px}.st5{fill:none;stroke:#1d1d1b;stroke-width:.2268;stroke-miterlimit:3.8637}.st6{fill:#231f20}</style><path d="M21.4 26.4v23.8m0 0h28.8m0 0V26.4m0 0H21.4m374.4 16.9l-1-3m0 0l2-3m0 0l-1-4M112 44.2V32.4m-54.9-6v23.8m0 0H87m0 0V26.4m0 0H57.1M112 43.3h283.7m0-10H112m-61.8 13h6.9m0-16h-6.9m36.8 0l25 2.1M34.3 50.2V26.4m11.9 23.8V26.4M112 44.2l-25 2.1" fill="none" stroke="#000" stroke-linecap="round" stroke-linejoin="round" stroke-miterlimit="10" stroke-width=".283"/><path d="M3.6 1.5h44.8v26H3.6v-26z" fill="none"/><text class="st2 st3 st4" transform="translate(3.545 7.733)">Hirose</text><text class="st2 st3 st4" transform="translate(3.545 14.733)">HR10A-10P-12S</text><path class="st5" d="m26.2 37.3v-20"/><path class="st5" d="M313.1 36.4V14.1"/><path d="m396.6 37.7 17-3m-18 5 17.5 2.5m-17.5-1 18 8m-17.5-13 16.5-9" fill="none" stroke="#1d1d1b" stroke-dasharray="72" stroke-miterlimit="3.864" stroke-width=".028"/><text class="st6 st3 st4" transform="translate(140.19 15.082)">Label with order number</text><path class="st5" d="M172.2 36.7V21.2"/><text class="st6 st3 st4" transform="translate(151.07 50.124)">Basler AG 2000...</text><path class="st5" d="m199.4 33.5c1.9 3.4 1.8 6.5 0 10m-51.7-10.1c1.9 3.4 1.8 6.5 0 10"/><path d="m147.9 43.5h51.6v9.4h-51.6v-9.4z" fill="none" stroke="#1d1d1b" stroke-miterlimit="3.864" stroke-width=".227"/><path class="st5" d="M21.4 57.2V78m392.5-20.7V78"/><path d="m24.5 67.7v1.4l-3.4-1.4 3.4-1.3v1.3zm386.2 0v-1.3l3.4 1.3-3.4 1.4v-1.4z" clip-rule="evenodd" fill="#1d1d1b" fill-rule="evenodd"/><path class="st5" d="m24.3 67.7h386.6"/><text class="st6 st3 st4" transform="translate(170.49 74.864)">Length depending on order number</text><text class="st6 st3 st4" transform="translate(385.82 23.531)">Open end</text><text x="217.87173" y="10.771492" fill="#000000" font-family="Arial" font-size="6px" font-weight="400" letter-spacing="0px" word-spacing="0px" style="line-height:125%" xml:space="preserve"><tspan x="217.87173" y="10.771492" font-size="6px"><tspan dx="0 0 0 0 0 0 0 0 0 0 0 0 0 0 0 0 0 0 0 0 0 0 0 0 0 0 0 0 0 0 0 0 0 0 0 0 0 0 0 0 0 0 0 0 0 0 0 0 0 0 0" dy="0 0 0 0 0 0 0 0 0 0 0 0 0 0 0 0 0 0 0 0 0 0 0 0 0 0 0 0 0 0 0 0 0 0 0 0 0 0 0 0 0 0 0 0 0 0 0 0 0 0 0" fill="#231f20" font-family="Arial" font-size="6px" font-weight="400">Unitronic LiYCY (TP) 6 x 2 x 0.14 mm² / close to AWG26, Lapp 0035 133</tspan></tspan></text></svg>
