<svg version="1.1" id="Ebene_1" xmlns="http://www.w3.org/2000/svg" xmlns:xlink="http://www.w3.org/1999/xlink" x="0" y="0" viewBox="0 0 822 283.5" style="background-color:#fff" xml:space="preserve"><style>.st1{fill:none;stroke:#000;stroke-linecap:round;stroke-linejoin:round;clip-path:url(#SVGID_2_);stroke-width:.425}.st1,.st3{stroke-miterlimit:10}.st18,.st19,.st20,.st3,.st4{fill:none;stroke:#000;stroke-width:.283;stroke-linecap:round;stroke-linejoin:round}.st18{stroke-dasharray:.258,1.288}.st19{stroke-dasharray:.383,1.915}.st20{stroke-dasharray:5.746,1.915,.383,1.915}.st27{font-family:Helvetica,Arial,sans-serif}.st28{font-size:14.9996px}.st29{font-size:14.9997px}.st30{font-size:14.9995px}.st31{font-size:10.6165px}</style><path d="M450.3 208.1V49.3m17.1 164.3V43.5m0 170.1h16.9V43.5h-16.9m0 164.6h-17.1m17.1-158.8h-17.1" stroke-width=".425" stroke-miterlimit="10" fill="none" stroke="#000" stroke-linecap="round" stroke-linejoin="round"/><defs><path id="SVGID_1_" d="M0 0h822v283.5H0z"/></defs><clipPath id="SVGID_2_"><use xlink:href="#SVGID_1_" overflow="visible"/></clipPath><path class="st1" d="M367.7 175.5c.5-.1.9-.4 1.1-.8m-57.9-9.8v-11.4m57.9-.1c-.2-.4-.6-.8-1.1-.8m39 4.9h-24.8m24.8 13.3h-24.8m-69.6-20.2c-.7 0-1.4.6-1.4 1.4m14.3 25.3v-3.8m-14.3 2.6c0 .7.6 1.4 1.3 1.4m38.3 0v-.2m0-3.8v-22.9m18.4 24.2v-21.3m8.6 22v-22.7m4.4 20.9v-19.3m-31.4 19.1 2.4.5 1.4.6.9.3.4.6-.4.3-.9.6-1.4.3-2.4.6m-25.3-3.8h25.3m0 3.8h-25.3m-14.3-4.3h-2.3m2.3-17.9h-2.3m16.6 22.2-1.7-.6-.5-.9.5-1 1.7-1.3m125.1-2.7h-26.5m26.5-13.3h-26.5m-41.9 16.2-4.4 1.8m4.4-21.1-4.4-1.6m0 21.4-8.6.6m8.6-20.9-8.6-.4m-1.1 22-17.3 2m17.3-24.9-17.3-2m0 26.9h-38.1m38.1-26.9h-38.1m-1.5 25.6v-11.3m0-11.4v-1.4m-2.3 23.4v-22.7m-7 24.1h4.8m0-10.2.6 2.1.3 2-.3 2-.6 2m0 0h-4.8m4.8-8.1v-4.5m-4.8-8.3h4.8m-4.8 12.8v-4.5h4.8m-4.8 12.6.7-2 .2-2-.2-2-.7-2.1m-.7 10.4.1.2v.5l-.1.2m.7-26.8h4.8m-5.5 24.8v1.1m-12.1-2.9h12.1m.1.4v.7l-.1.7m-12.1-3.4h12.1m0 5.8.1-.2m-12.2-7.9h12.1m.5 7.5-.5.6m0-.4.5-.2m-12.6-9.5h12.1m0-18.6.1.2h-.1m-12.1 15.7h12.1m-12.1 12.8v-28.7m12.1.2.5.6m0 0-.5-.2m-12.1 13.1h12.1m0-13.1.1.7-.1.4m-12.1 9.1h12.1m0-9.1.5.9m0 0-.5.1m-12.1 6.2h12.1m0-6.2.1 1.1-.1.7m-12.1 1.8h12.1m0-1.8.5 1.3m0 0-.5.5m-12.1-1.8h12.1m0 1.8.1 1.3-.1 1.3m-12.1-6.2h12.1m0 6.2.5 1m0 0-.5.9m-12.1-9.1h12.1m0 9.1.1 1.5-.1 1.4m-12.1-13.1h12.1m0 13.1.5 1.1-.5 1.1m0 0 .1 1.2-.1 1.5m0 0 .5.9m-12.6-19.5h12.1m.5 19.5-.5 1.1m0 8.1h-12.1m12.1-8.1.1 1-.1 1.3m0 0 .5.5m0 0-.5 1.1m-12.1 1.8h12.1m0-1.8.1.4m-12.2 2.5h12.1m.7-23.2v-2.7m4.8 2.7.6 2 .3 2.1-.3 2-.6 2.2m-4.8 0 .7-2.2.2-2-.2-2.1-.7-2m0 12.8h4.8m0 10.2h.6l.2-.2m-.8.2v-2.1m-4.8 2.1v-2.1m-12.8-.9h-1.4m1.4-19.7h-1.4m14.9 22.7-1.3 1.3m1.3-27-1.3-1.3m7.6 25.6-1.4 1.2m1.4-23.9-1.4-1.4-.8-.2v2.7m-19 20.1v-19.9m-.2 18.9-.2 1-1.1 1.5m0-22.7h-8.4"/><path class="st1" d="m285.9 170.3 1.1 1.4.2 1.3m-17.7.9v-19.7m8 16.1h8.4m-9.9 1v-17.8m0 17.8 1.5-1m0 0v-17.5m-1.5 21.6v-3.1m0 1.7h11.2m-1.3-2.7v-17.5m0 22.7h-8.4m-1.5-.9v-.2m1.5 1.1-1.5-1.1m0 .2 1.5.9m8.4-22.7h-8.4l-1.5.7m0 20.4h-6.5m6.5-19.7h-6.5m17.9 19.8-1.5 1.5h-8.4m9.9-21.4-1.5-1.3"/><path d="M406.7 179.8v-12.1l4.3-1.2-8.6-4.9 4.3-1.1v-12 12m17.1 19.3v-12.1l4.1-1.2-8.4-4.9 4.3-1.1v-12 12" stroke-miterlimit="10" stroke-width=".283" clip-path="url(#SVGID_2_)" fill="none" stroke="#000" stroke-linecap="round" stroke-linejoin="round"/><path class="st1" d="M185.3 128.6c0-47-38.1-85.1-85-85.1-47 0-85.1 38.1-85.1 85 0 47 38.1 85.1 85 85.1 47 0 85.1-38 85.1-85"/><path class="st1" d="M148.4 128.6c0-26.6-21.5-48.2-48.1-48.2s-48.2 21.5-48.2 48.1 21.5 48.2 48.1 48.2 48.2-21.5 48.2-48.1"/><path class="st1" d="M151.3 128.6c0-28.2-22.8-51-51-51s-51 22.8-51 51 22.8 51 51 51c28.1 0 51-22.8 51-51"/><path class="st1" d="M182.4 128.6c0-45.4-36.8-82.2-82.2-82.2-45.4 0-82.2 36.8-82.2 82.2s36.8 82.2 82.2 82.2c45.4 0 82.2-36.8 82.2-82.2"/><path class="st1" d="M175 128.6c0-41.3-33.5-74.8-74.8-74.8s-74.8 33.5-74.8 74.8 33.5 74.8 74.8 74.8 74.8-33.5 74.8-74.8m-.1 40.9v.2m-1.5 2.4.2-.4m1.1-2h.2m-1.7 2.5.2-.1m437.2.1c23.9 40.1 75.6 53.3 115.9 29.8 40.3-23.5 54.1-75.2 30.9-115.7-23.2-40.5-74.7-54.8-115.4-32-40.7 22.8-55.4 74.2-33 115.1"/><path class="st1" d="M627.9 185c28.2 27.9 72.8 30.6 104.2 6.4 31.4-24.3 40.1-68 20.2-102.4-19.8-34.4-62-48.8-98.8-33.7-36.7 15.1-56.6 55-46.6 93.4m0-.1 3.7 6.9m13.2 22.5 3.9 7"/><path class="st1" d="M746.7 128.6c0 2.7 2.2 5 4.9 5s5-2.2 5-4.9-2.2-5-4.9-5c-2.8-.1-5 2.1-5 4.9m-126.2 0c0-2.7-2.2-4.9-4.9-5-2.7 0-5 2.2-5 4.9s2.2 5 4.9 5c2.8 0 5-2.2 5-4.9m15 0c0 26.6 21.5 48.2 48.1 48.2s48.2-21.5 48.2-48.1-21.5-48.2-48.1-48.2c-26.7-.1-48.2 21.5-48.2 48.1m-7.9 56.2L624 187l-2.9-5m-15-26 2.4 4.2m10.1 17.6 2.5 4.2m-15-26-2.8-4.8 3.8-2.3m24.6 25.7.5-.4.4-1.1 1-.6m1.5-2.2c-.7.6-1.2 1.4-1.5 2.3m1.5-2.3v-1.1l.7-.9m.6-2.7c-.4.9-.6 1.8-.5 2.7m.5-2.7-.4-1.1.5-1.1m-.5-2.8c-.1.9 0 1.9.4 2.8m-.4-2.8-.7-1v-1m-1.3-2.5c.2.9.6 1.8 1.3 2.5M634 156l-1-.5-.4-1.2m-2.1-1.8c.5.8 1.3 1.4 2.1 1.9m-2.1-1.9-1.1-.2-.8-.9m-2.5-1.1c.8.6 1.6 1 2.5 1.1m-2.5-1.1-1.2.2-.9-.6m-2.7-.2c.9.2 1.8.4 2.7.2m-2.7-.2-1.1.8-1.1-.4-.5.4m-2.2.5c.8-.1 1.5-.2 2.1-.5m-2.1.5-1.1.5-.9.6m-1.8 1.4c.7-.4 1.3-.8 1.8-1.4m-1.8 1.4-.3.4-.4 1.1-1.3.5m-1.2 2.3c.7-.6 1-1.5 1.3-2.3m-1.3 2.3v1.1l-.9.9m-.6 2.7c.4-.9.6-1.8.5-2.7m-.5 2.7.4 1.3-.4 1.1m.4 2.7c.1-.9 0-1.8-.4-2.7m.4 2.7.7.9v1.2m1.3 2.4c-.2-.9-.6-1.6-1.3-2.3m1.3 2.3 1.1.5.3 1.2m2.2 1.9c-.5-.8-1.3-1.5-2.2-1.9m2.2 1.9 1.1.1.7.9m2.5 1.1c-.8-.6-1.6-1-2.5-1.1m2.5 1.1 1.3-.2m3.6.8 1-.6 1.3.2m-2.3.4c-.9-.2-1.7-.2-2.6 0m-1-.8.9.8m5-.4.4-.2m2.1-.7c-.8.1-1.5.4-2.1.7m2.1-.7 1.1-.5 1.1-.6m1.6-1.4c-.7.4-1.2.8-1.6 1.4m-17.3-18.1c-2.3 3.5-2.4 7.9-.5 11.5 2 3.6 5.8 5.9 9.9 5.9m.1 0 1.8-.9m-1.9-21.6-2 .9-2.9 1.4-4.5 2.8m18.9 12.3c2.3-3.5 2.4-7.9.5-11.5-2-3.6-5.8-5.9-9.9-5.9m7.6 18.5 1.8-1"/><path class="st1" d="M629.4 160.1c-2.2-4-7.1-5.4-11.1-3.3-4 2.2-5.4 7.1-3.3 11.1 2.2 4 7.1 5.4 11.1 3.3 4-2.1 5.5-7.1 3.3-11.1m-5.3 14.3 2.9-1.4 2.9-1.7"/><path class="st1" d="M626.3 161.6c.7-.4.9-1.2.5-1.8-.4-.7-1.2-.9-1.8-.5-.7.4-.9 1.2-.5 1.8.3.6 1.2.9 1.8.5m1.1 5.8c.7-.4.9-1.2.5-1.8-.4-.7-1.2-.9-1.8-.5-.7.4-.9 1.2-.5 1.8.3.6 1.1.8 1.8.5m-9.6-1.1c.7-.4.9-1.2.5-1.8-.4-.7-1.2-.9-1.8-.5-.7.4-.9 1.2-.5 1.8.4.6 1.2.9 1.8.5m4.4 4c.7-.4.9-1.2.5-1.8-.4-.7-1.2-.9-1.8-.5-.7.4-.9 1.2-.5 1.8.3.6 1.1.8 1.8.5m32.9 21.8c2.2 0 4-1.8 4-4s-1.8-4-4-4-4 1.8-4 4c0 2.3 1.8 4 4 4"/><path class="st1" d="M655.1 193.1c2.7 0 5-2.2 5-5 0-2.7-2.2-5-5-5-2.7 0-5 2.2-5 5m61.8 4c2.2 0 4-1.8 4-4s-1.8-4-4-4-4 1.8-4 4c0 2.3 1.8 4 4 4"/><path class="st1" d="M711.9 193.1c2.7 0 5-2.2 5-5 0-2.7-2.2-5-5-5-2.7 0-5 2.2-5 5M655.2 73.2c2.2 0 4-1.8 4-4s-1.8-4-4-4-4 1.8-4 4 1.8 4 4 4"/><path class="st1" d="M655.2 74.1c2.7 0 5-2.2 5-5 0-2.7-2.2-5-5-5-2.7 0-5 2.2-5 5m61.7 4.1c2.2 0 4-1.8 4-4s-1.8-4-4-4-4 1.8-4 4 1.8 4 4 4"/><path class="st1" d="M711.9 74.1c2.7 0 5-2.2 5-5 0-2.7-2.2-5-5-5-2.7 0-5 2.2-5 5"/><path class="st3" d="M145.6 241.6 120.7 188"/><path class="st4" d="M803 75.5v106.4"/><path d="m801 76.9 2-7.7 2.1 7.7zm0 103.6 2 7.7 2.1-7.7z"/><path class="st4" d="M621.9 30.4h55.4"/><path d="m623.3 32.4-7.7-2 7.7-2.1zm52.6 0 7.7-2-7.7-2.1z"/><path class="st3" d="M615.6 128.6V28.8m68 99.8V28.8m122.8 159.4h-94.5m94.5-119h-94.5"/><path class="st4" d="M568.9 157.9v-23.1"/><path d="m571 156.5-2.1 7.6-2.1-7.6zm0-20.2-2.1-7.7-2.1 7.7z"/><path class="st3" d="M565.6 128.6h33m-33 35.5h56.6m89.7 92v-67.9"/><path class="st4" d="M705.8 252.8h-44.4"/><path d="m704.4 250.7 7.7 2.1-7.7 2zm-41.6 0-7.7 2.1 7.7 2z"/><path class="st3" d="M655.1 256.1v-67.9"/><path class="st4" d="M456.3 23.7h22.1"/><path d="m457.7 25.7-7.6-2 7.6-2.1zm19.3 0 7.6-2-7.6-2.1z"/><path class="st3" d="M450.2 48.9V22.1m34.4 21.4V22.1"/><path class="st4" d="m647.9 197.5-20.8 26.7H507.7"/><path d="m644.9 197.3 7.7-5.8-3.8 8.8z"/><path class="st4" d="m61.7 142.2 78-28.3"/><path d="m63.7 143.7-7.9.7 6.5-4.6zm75.4-27.4 6.5-4.5-7.9.6z"/><path class="st4" d="m165.7 63.5 10.8-10.8h38.4"/><path d="m168.2 63.9-6.9 4 4-6.9z"/><path class="st4" d="M100.2 221.6v-4.2"/><path fill="none" stroke="#000" stroke-width=".283" stroke-linecap="round" stroke-linejoin="round" stroke-dasharray=".56,2.801" d="M100.2 214.6v-2"/><path fill="none" stroke="#000" stroke-width=".283" stroke-linecap="round" stroke-linejoin="round" stroke-dasharray="8.404,2.801,.56,2.801" d="M100.2 211.2v-71.4"/><path class="st4" d="M100.2 138.4v-4.3m94.6-5.5h-4.2"/><path fill="none" stroke="#000" stroke-width=".283" stroke-linecap="round" stroke-linejoin="round" stroke-dasharray=".561,2.806" d="M187.8 128.6h-2"/><path fill="none" stroke="#000" stroke-width=".283" stroke-linecap="round" stroke-linejoin="round" stroke-dasharray="8.418,2.806,.561,2.806" d="M184.4 128.6h-71.6"/><path class="st4" d="M111.4 128.6h-4.2m576.4 93v-4.2"/><path fill="none" stroke="#000" stroke-width=".283" stroke-linecap="round" stroke-linejoin="round" stroke-dasharray=".6,2.998" d="M683.6 214.4v-2.1"/><path fill="none" stroke="#000" stroke-width=".283" stroke-linecap="round" stroke-linejoin="round" stroke-dasharray="8.995,2.998,.6,2.998" d="M683.6 210.8v-76.5"/><path class="st4" d="M683.6 132.8v-4.2m94.6 0h-4.3"/><path fill="none" stroke="#000" stroke-width=".283" stroke-linecap="round" stroke-linejoin="round" stroke-dasharray=".576,2.881" d="M771.1 128.6H769"/><path fill="none" stroke="#000" stroke-width=".283" stroke-linecap="round" stroke-linejoin="round" stroke-dasharray="8.643,2.881,.576,2.881" d="M767.6 128.6H604.3"/><path class="st4" d="M602.8 128.6h-4.2m23.6 51.8v-4.3"/><path fill="none" stroke="#000" stroke-width=".283" stroke-linecap="round" stroke-linejoin="round" stroke-dasharray=".653,3.267" d="M622.2 172.9v-2.3"/><path fill="none" stroke="#000" stroke-width=".283" stroke-linecap="round" stroke-linejoin="round" stroke-dasharray="9.8,3.267,.653,3.267" d="M622.2 168.9v-15.3"/><path class="st4" d="M622.2 152v-4.3m15.6 16.3h-4.3"/><path fill="none" stroke="#000" stroke-width=".283" stroke-linecap="round" stroke-linejoin="round" stroke-dasharray=".648,3.238" d="M630.3 164H628"/><path class="st4" d="M626.4 164h-4.2M489 128.7h-4.2"/><path fill="none" stroke="#000" stroke-width=".283" stroke-linecap="round" stroke-linejoin="round" stroke-dasharray=".599,2.996" d="M481.8 128.7h-2.1"/><path fill="none" stroke="#000" stroke-width=".283" stroke-linecap="round" stroke-linejoin="round" stroke-dasharray="8.988,2.996,.599,2.996" d="M478.2 128.7h-29.7"/><path class="st4" d="M447 128.7h-4.2m212.4-53.8v-4.3"/><path class="st18" d="M655.2 69.3v-.9"/><path class="st4" d="M655.2 67.8v-4.3m5.7 5.7h-4.3"/><path class="st18" d="M655.3 69.2h-.9"/><path class="st4" d="M653.8 69.2h-4.3m62.4 5.7v-4.3"/><path class="st18" d="M711.9 69.3v-.9"/><path class="st4" d="M711.9 67.8v-4.3m5.7 5.7h-4.3"/><path class="st18" d="M712 69.2h-.9"/><path class="st4" d="M710.5 69.2h-4.3m45.5 70.7v-4.2"/><path class="st19" d="M751.7 133.8v-1.4"/><path class="st20" d="M751.7 131.5v-9"/><path class="st4" d="M751.7 121.5v-4.3m11.3 11.4h-4.2"/><path class="st19" d="M756.8 128.6h-1.3"/><path class="st20" d="M754.5 128.6h-9"/><path class="st4" d="M744.6 128.6h-4.3m-124.7 11.3v-4.2"/><path fill="none" stroke="#000" stroke-width=".283" stroke-linecap="round" stroke-linejoin="round" stroke-dasharray=".258,1.291" d="M615.6 134.4v-.9"/><path class="st4" d="M615.6 132.8v-4.2m11.3 0h-4.2"/><path class="st19" d="M620.8 128.6h-1.4"/><path class="st20" d="M618.5 128.6h-9"/><path class="st4" d="M608.5 128.6h-4.3m107.7 65.2v-4.2"/><path class="st18" d="M711.9 188.3v-.9"/><path class="st4" d="M711.9 186.7v-4.2"/><path d="M711.9 188.2h-5.7m-51 0v-5.7" stroke-dasharray="5.669,5.669" fill="none" stroke="#000" stroke-width=".283" stroke-linecap="round" stroke-linejoin="round"/><path class="st4" d="M660.9 188.2h-4.3"/><path class="st18" d="M655.3 188.2h-.9"/><path class="st4" d="M653.8 188.2h-4.3m-549.3-84.7v-4.3"/><path fill="none" stroke="#000" stroke-width=".283" stroke-linecap="round" stroke-linejoin="round" stroke-dasharray=".517,2.585" d="M100.2 96.7v-1.9"/><path fill="none" stroke="#000" stroke-width=".283" stroke-linecap="round" stroke-linejoin="round" stroke-dasharray="7.756,2.585,.517,2.585" d="M100.2 93.6V41.1"/><path class="st4" d="M100.2 39.8v-4.3m-23.3 93.1h-4.2"/><path fill="none" stroke="#000" stroke-width=".283" stroke-linecap="round" stroke-linejoin="round" stroke-dasharray=".546,2.729" d="M69.9 128.6H68"/><path fill="none" stroke="#000" stroke-width=".283" stroke-linecap="round" stroke-linejoin="round" stroke-dasharray="8.186,2.729,.546,2.729" d="M66.7 128.6H11.3"/><path class="st4" d="M9.9 128.6H5.7"/><text transform="translate(84.318 262.147)" class="st27 st28">Ø 36 - Ø 52 (Luminous area)</text><text transform="translate(634.911 23.691)" class="st27 st28">21.7</text><text transform="translate(459.01 18.546)" class="st27 st28">12</text><text transform="rotate(-90 359.33 -198.38)" class="st27 st28">12.5</text><text transform="rotate(-90 467.178 -330.768)" class="st27 st28">42</text><text transform="translate(675.28 246.017)" class="st27 st28">20</text><text transform="translate(511.134 218.457)" class="st27 st29">4</text><text transform="translate(523.644 218.457)" class="st27 st29">× Ø 2.5, 5 deep</text><text transform="translate(511.134 239.457)" class="st27 st29">M3-6H, 3.5 deep</text><text transform="translate(183.725 48.87)" class="st27 st28">Ø</text><text transform="translate(199.565 48.87)" class="st27 st28">60</text><text transform="rotate(-19.999 407.86 -171.707)" class="st27 st30">Ø</text><text transform="rotate(-19.999 399.939 -216.625)" class="st27 st30">34</text><text transform="matrix(1.1157 0 0 1 380.585 259.83)" class="st27 st31">Not to scale</text><text transform="matrix(1.1157 0 0 1 380.585 272.57)" class="st27 st31">Dimensions in mm</text></svg>