<svg version="1.1" id="Ebene_1" xmlns="http://www.w3.org/2000/svg" x="0" y="0" viewBox="0 0 542.1 218.1" style="enable-background:new 0 0 542.1 218.1;background-color:#fff" xml:space="preserve"><style>.st3{fill:none;stroke:#1a1a18;stroke-width:.3454;stroke-linecap:round;stroke-linejoin:round;stroke-miterlimit:10}.st5{font-family:Helvetica,Arial,sans-serif}.st6{font-size:14px}</style><path d="M193.6 197.1H20.2c-.4 0-.8-.3-1-.6-1.1-1.5-2.5-2.9-4-4-.3-.2-.4-.5-.4-.8V18.2c0-.4.1-.7.4-.9 1.5-1.1 2.9-2.5 4-4 .2-.3.6-.4 1-.4h173.4c.4 0 .8.1 1 .4 1.1 1.5 2.5 2.9 4 4 .3.2.4.6.4 1v173.4c0 .4-.1.6-.4.8-1.5 1.1-2.9 2.5-4 4-.2.4-.6.6-1 .6z" style="fill:#f6f6f6"/><path d="M193.6 197.1H20.2c-.4 0-.8-.3-1-.6-1.1-1.5-2.5-2.9-4-4-.3-.2-.4-.5-.4-.8V18.2c0-.4.1-.7.4-.9 1.5-1.1 2.9-2.5 4-4 .2-.3.6-.4 1-.4h173.4c.4 0 .8.1 1 .4 1.1 1.5 2.5 2.9 4 4 .3.2.4.6.4 1v173.4c0 .4-.1.6-.4.8-1.5 1.1-2.9 2.5-4 4-.2.4-.6.6-1 .6h0z" style="fill:none;stroke:#1a1a18;stroke-width:.5757;stroke-linecap:round;stroke-linejoin:round;stroke-miterlimit:10"/><path class="st3" d="M150.7 140.8c.7-1.9-.3-4.1-2.2-4.8s-4.1.3-4.8 2.2.3 4.1 2.2 4.8 4.1-.3 4.8-2.2m37.9 50.5c2.5 0 4.6-2.1 4.6-4.6m-172.7 0c0 2.5 2.1 4.6 4.6 4.6M193.2 23.2c0-2.5-2.1-4.6-4.6-4.6m-163.4 0c-2.5 0-4.6 2.1-4.6 4.6m172.6 163.6V23.3m-172.7 0v163.5M188.7 18.6H25.1m0 172.7h163.6m3.4-8c-.2-3.5-3.3-6.2-6.8-5.9-3.5.2-6.2 3.3-5.9 6.8.2 3.5 3.3 6.2 6.8 5.9 3.4-.2 6.1-3.3 5.9-6.8"/><path class="st3" d="m182.9 185.6-.2-3.4 2.8-1.7 2.9 1.4.2 3.2-2.7 1.9-3-1.4M24.4 21.1c-2.9 2-3.6 6-1.5 8.9 2 2.9 6 3.6 8.9 1.5 2.9-2 3.6-6 1.5-8.9-2-2.9-6-3.6-8.9-1.5"/><path class="st3" d="m31.2 27.7-2.8 1.9-3-1.5-.3-3.2 2.8-1.9 2.9 1.3.4 3.4m3.1 157.4c.7-3.4-1.5-6.8-4.9-7.5s-6.8 1.5-7.5 4.9 1.5 6.8 4.9 7.5 6.8-1.5 7.5-4.9"/><path class="st3" d="m24.9 184.7.8-3.2 3.2-1 2.3 2.2-.6 3.2-3.2 1.1-2.5-2.3M180.2 23.1c-1.8 3-.8 6.9 2.3 8.7 3 1.8 6.9.8 8.7-2.3s.8-6.9-2.3-8.7c-3-1.8-6.9-.8-8.7 2.3"/><path class="st3" d="m189 26.2-1.7 2.9H184l-1.7-2.9 1.7-2.9 3.4.1 1.6 2.8m-152.7.6v-8.3m-7.6 15.9c4.2 0 7.6-3.4 7.6-7.6m-15.6 7.6h8m7.6 148.7c0-4.2-3.5-7.6-7.6-7.6h-8.2m15.8 15.8v-8.2m-11.7 8.2h11.7M185.1 34.4h8.1m-15.7-7.6c0 4.2 3.5 7.6 7.7 7.6m-7.7-15.8v8.2m0 156.3v8.2m7.6-15.8c-4.2 0-7.6 3.4-7.6 7.6m15.6-7.6h-8m-63.3 15.8V160m13.9-13.8c-7.6 0-13.8 6.2-13.8 13.8m71.4-13.8h-57.6m-9.2 45.1V160"/><path class="st3" d="M135.7 150.9c-5.1 0-9.1 4.1-9.1 9.1m9.1-9.2h57.6M24.8 192.9H189m-169.9-5.8c0 3.2 2.6 5.8 5.8 5.8M19.1 22.8V187m5.8-169.9c-3.2 0-5.8 2.6-5.8 5.8M189 17.1H24.8m169.9 5.8c0-3.2-2.6-5.8-5.8-5.8m5.8 169.9V22.8m-5.8 170.1c3.2 0 5.8-2.6 5.8-5.8m-81.6-22c0-3.6-2.9-6.5-6.5-6.5s-6.5 2.9-6.5 6.5 2.9 6.5 6.5 6.5 6.5-2.9 6.5-6.5"/><path class="st3" d="M118 165.1c0-6.3-5.1-11.5-11.5-11.5-6.3 0-11.5 5.1-11.5 11.5s5.1 11.5 11.5 11.5c6.4-.1 11.5-5.2 11.5-11.5"/><path class="st3" d="M116.3 165.1c0-5.4-4.3-9.7-9.7-9.7-5.4 0-9.7 4.4-9.7 9.7s4.3 9.7 9.7 9.7 9.7-4.4 9.7-9.7"/><path class="st3" d="M98.6 165.1c0 4.4 3.6 8 8 8s8-3.6 8-8-3.6-8-8-8-8 3.6-8 8m3.9-2.7h-.7m.4-.5h-.4m.7-.1-.3.1m2.8-.1h-.7"/><path class="st3" d="m102.5 162.4.9.4.9-.4.7-.1m-2.5-.5.9-.5.9.5m-1.8 6-.1.3-.2.3m1.1-3v.3l-.2.5m-1.3 1.7v.3m.2-.7-.2.4m1-2.7-.3.7m.6.3.2.8-.8.8m-.5-.3-.2-.9.7-.7m4.9 4.1.3.1.2.3m-2-1.7-.2.2m.4-.3c-.1 0-.2.1-.2.2m1.5 1.7.1.3m-.4-.5.3.2m-1.9-1.7.3.3m.4-.5.9.3.3 1.1m-.3.3-1.1-.3-.2-.9m5.5-2.9h.3l.4-.2m-2.9 1.2.3-.2.3-.1m2.2-.3.3-.2m-.7.3.4-.1m-2.3 1 .2-.1m-.1-.6.6-.7h1m.2.5-.6.8h-1.1m-.4-6.3v-.3l.2-.4m.4.4v-.4m0 .7v-.3m0 2.8v-.8m-.6-1.7-.4.9.4.8.1.8m.5-2.5.4.9-.4.8m-3.7 1.4v-.8m.3 2.7c.1 0 .2 0 .3-.1"/><path class="st3" d="M106.4 166.1c.1 0 .2.1.3.1m.1-2.4v-.3m-.2.5c-.1 0-.2 0-.3.1m.6-.1c-.1 0-.2-.1-.3-.1m.3.4-.1-.5m0 2.5.1-.3m-.6 0-.4-.9.4-.8m.6 0 .5.8-.5.9m3.3-5.5c-.7-.2-1.5.1-1.9.8-.4.6-.3 1.5.2 2s1.3.7 2 .3 1-1.1.8-1.9"/><path class="st3" d="m110.1 160.6.8.3.4.9m-9.5 0c-.2.7.2 1.5.8 1.9.7.4 1.5.2 2-.3s.6-1.4.2-2-1.2-1-1.9-.8"/><path class="st3" d="m101.8 161.8.4-.8.8-.4m-1.4 7.6c.6.4 1.4.4 2 0 .6-.5.8-1.3.5-2s-1-1.1-1.8-1-1.3.7-1.4 1.4"/><path class="st3" d="m101.7 168.2-.6-.7-.2-.9m6.5 4.3c.7-.4 1-1.2.8-1.9s-.9-1.2-1.6-1.2c-.8 0-1.4.5-1.6 1.2s.1 1.5.8 1.9"/><path class="st3" d="m107.4 170.8-.8.3-.8-.3m6.5-4.2c-.1-.8-.7-1.3-1.4-1.4-.8-.1-1.5.3-1.8 1s-.1 1.5.5 2 1.4.5 2 0"/><path class="st3" d="m112.2 166.6-.2.9-.4.7m-3.4-3.1c0-.9-.8-1.7-1.7-1.7s-1.7.8-1.7 1.7.8 1.7 1.7 1.7c1-.1 1.7-.8 1.7-1.7m-2.8-5.9c.2.4.6.7 1.1.7s.9-.3 1.1-.7"/><path class="st3" d="M105.3 158.8v.2l.2.3m2.2 0 .1-.3v-.2"/><path class="st3" d="M105.3 158.7c-3.3.7-5.5 3.7-5.2 7s3.1 5.9 6.5 5.9c3.3 0 6.2-2.5 6.5-5.9.3-3.3-1.9-6.4-5.2-7m-.1 0c-.8-.2-1.7-.2-2.5 0m41.6 12.9c0 .3.2.5.5.5s.5-.2.5-.5-.2-.5-.5-.5-.5.2-.5.5"/><path class="st3" d="M142.1 171.6c0 2.9 2.4 5.3 5.3 5.3s5.3-2.4 5.3-5.3-2.4-5.3-5.3-5.3-5.3 2.4-5.3 5.3m3.8 6.4h.1l.3.1h2.1l.4-.1m0-12.8h0-.4l-.5-.1h-1.2l-.4.1h-.4m2.9 0v1.4m-2.9-1.4v1.4m2.9 10v1.4m-2.9-1.4v1.4m-3.5.7.4-.7m7-13.6.5-.9m-7.9 15.2c.6.4 1.3.8 2.1 1.1m.3-.8-.3.7m7.8-15.2-.4.9m.5-.9c-.6-.4-1.3-.8-2.1-1.1"/><path class="st3" d="M144.5 179.8c4.1 1.4 8.7-.4 10.6-4.2 2-3.9.8-8.6-2.8-11.1m-2-1.1c-4.1-1.4-8.7.4-10.6 4.2-2 3.9-.8 8.6 2.8 11.1"/><path class="st3" d="M145 178.9c3.6 1.2 7.5-.4 9.3-3.8 1.7-3.4.7-7.5-2.4-9.7m-2.1-1.1c-3.6-1.2-7.5.4-9.3 3.8-1.7 3.4-.7 7.5 2.4 9.7m28.4-37c.7-1.9-.3-4.1-2.2-4.8s-4.1.3-4.8 2.2.3 4.1 2.2 4.8c2 .7 4.1-.3 4.8-2.2m-3.7 30.8c0 .3.2.5.5.5s.5-.2.5-.5-.2-.5-.5-.5-.5.2-.5.5"/><path class="st3" d="M162.8 171.6c0 2.9 2.4 5.3 5.3 5.3s5.3-2.4 5.3-5.3-2.4-5.3-5.3-5.3-5.3 2.4-5.3 5.3m3.8 6.4h.1l.3.1h2l.5-.1m0-12.8h0-.5l-.4-.1h-1.2l-.4.1h-.4m2.9 0v1.4m-2.9-1.4v1.4m2.9 10v1.4m-2.9-1.4v1.4m-3.6.7.5-.7m7-13.6.4-.9m-7.8 15.2c.6.4 1.3.8 2.1 1.1m.3-.8-.3.7m7.8-15.2-.4.9m.5-.9c-.6-.4-1.3-.8-2.1-1.1"/><path class="st3" d="M165.2 179.8c4.1 1.4 8.7-.4 10.6-4.2 2-3.9.8-8.6-2.8-11.1m-2-1.1c-4.1-1.4-8.7.4-10.6 4.2-2 3.9-.8 8.6 2.8 11.1"/><path class="st3" d="M165.7 178.9c3.6 1.2 7.5-.4 9.3-3.8 1.7-3.4.7-7.5-2.4-9.7m-2.1-1.1c-3.6-1.2-7.5.4-9.3 3.8-1.7 3.4-.7 7.5 2.4 9.7m-17.5 11.6h2.8c.5 0 .9-.5.7-1l-1.6-4.2c-.3-.7-1.2-.6-1.4.1l-1.2 4.2c-.1.4.2.9.7.9z"/><path d="m148 138.8 117.1-66.2M108 165.2 265.1 123m-115.9 48.4 115.9.7" style="fill:none;stroke:#000;stroke-miterlimit:10"/><text transform="translate(273.902 118.977)" class="st5 st6">I/O connector</text><text transform="translate(273.902 135.777)" class="st5 st6">(M8 6-pin connector)</text><text transform="translate(273.23 75.722)" class="st5 st6">Status LED</text><text transform="translate(273.902 176.722)" style="enable-background:new"><tspan x="0" y="0" class="st5 st6">Micro-BNC (HD-BNC) connector  </tspan><tspan x="0" y="16.8" class="st5 st6">(master connector)</tspan></text><text transform="translate(46.904 214.317)" class="st5 st6">2x CXP-12 camera</text></svg>