<svg enable-background="new 0 0 292.5 168.6" style="background-color:#fff" version="1.1" viewBox="0 0 292.5 168.6" xml:space="preserve" xmlns="http://www.w3.org/2000/svg" xmlns:xlink="http://www.w3.org/1999/xlink"><style>.st2{fill:none;stroke:#000;stroke-width:.118;stroke-linecap:round;stroke-miterlimit:10}.st12{font-family:Helvetica,Arial,sans-serif}.st13{font-size:6px}.st15{stroke:#000;stroke-width:.355}.st15,.st16,.st17,.st18{fill:none;stroke-linecap:round;stroke-linejoin:round;stroke-miterlimit:10}.st16{stroke:#595757}.st16,.st17,.st18{stroke-width:.948}.st17{stroke:#b5b6b6}.st18{stroke:#dcdddd}.st19{fill:#fff}.st20,.st31{fill:none;stroke-width:.237;stroke-miterlimit:10}.st20{stroke:#040000;stroke-linecap:round;stroke-linejoin:round}.st31{stroke:#000}</style><defs><path id="ap" d="M8.6 15.5H273v140.1H8.6z"/></defs><clipPath id="ae"><use xlink:href="#ap"/></clipPath><path d="M220.8 66.5c0 2.1-1.2 3.7-2.6 3.7-1.4 0-2.6-1.7-2.6-3.7 0-2.1 1.2-3.7 2.6-3.7 1.4 0 2.6 1.7 2.6 3.7m-164.1-.8c0 1.2-1 2.2-2.2 2.2s-2.2-1-2.2-2.2 1-2.2 2.2-2.2c1.2-.1 2.2.9 2.2 2.2m7.7 0c0 1.2-1 2.2-2.2 2.2s-2.2-1-2.2-2.2 1-2.2 2.2-2.2 2.2 1 2.2 2.2m7.6 0c0 1.2-1 2.2-2.2 2.2s-2.2-1-2.2-2.2 1-2.2 2.2-2.2c1.2-.1 2.2.9 2.2 2.2m7.6 0c0 1.2-1 2.2-2.2 2.2s-2.2-1-2.2-2.2 1-2.2 2.2-2.2c1.2-.1 2.2.9 2.2 2.2m7.6 0c0 1.2-1 2.2-2.2 2.2s-2.2-1-2.2-2.2 1-2.2 2.2-2.2 2.2 1 2.2 2.2m7.6-.1c0 1.2-1 2.2-2.2 2.2s-2.2-1-2.2-2.2 1-2.2 2.2-2.2 2.2 1 2.2 2.2m131.6-17.4 2.7.5v.7l.9.2v1.2l1.8.3-.2 7.4-7.7-1.3v-7.3l1.6.2.1-1.2.7.1.1-.8z" clip-path="url(#ae)" fill="#dcdddd"/><path class="st2" d="M43.8 122.9h.8m0-.3-.3-.3m.3.6v-.3m1.9.5-.4.1m.6-.3-.2.2m.3-.6-.1.4m-.1-.7.2.3m-1 .4h-.4m.6-.1-.2.1m.4-.2-.2.1m.2-.3v.2m-.2-.5.2.3m-.8.7h.7m-2.4 0h1.7m-.3-.3h.3m-.3-.2v.2m-.2-.5.2.3m-.3-.5.1.2m-1.1 0v.5m0-.5h.6m-.6.5v-.5m.8.5h-.8m2.2-.7.2.3m.6 0-.2-.3m.2 0v.3m-.1.4.1-.4m-.3.6.2-.2m-.6.3.4-.1m-1.1.1h.7m.7-.7v-.3m-3.1 1h1.7m-.8-.6-.3-.3m.3.3v.3m.5-.2-.3-.5m.3 0v.5m0-.3v.5m0-.7v.2m0 .3v-.5m0 .7v-.2m.3.2h-.3v-.5h.3v.5m.4 0h-.4m.6-.1-.2.1m.4-.2-.2.1m.2-.3v.2m-.4-.3.2-.1m-.6.1h.4m-.4.5v-.5m-1.7.8 3.1.1m-2.8-.1h-.3m.7 0H44m1.1-1v.2m.3 0h-.3m.7 0h-.4m.6-.1-.2.1m.5.8.5.1m-1-.1h.5m-.9 0h.4m-.9 0h.5m-1 0h.5m-.5-.8h-.6m-1.3-3.2h6.7l-.9 1.3h-4.8l-1-1.3m.9 4.2-1 .4.1-4.6 1 1.3-.1 2.9m4.9-2.9.9-1.3-.1 4.6-.9-.5.1-2.8"/><path class="st2" d="m48.2 123.3.9.5h-6.7l1-.4 4.8-.1m.1-2.8-.1 2.8m-4.7-2.8h4.8m-4.6 1.7-.2-1.7m4.8 1.7h-4.6"/><defs><path id="t" d="M8.6 15.5H273v140.1H8.6z"/></defs><clipPath id="i"><use xlink:href="#t"/></clipPath><path d="m24.1 161.7-.6-.4-.3-.5-.1-.6 2.5-54 .1-.5.4-.4.5-.3.6-.2 89.9-.2.6.1" clip-path="url(#i)" fill="none" stroke="#000" stroke-linecap="round" stroke-miterlimit="10" stroke-width=".118"/><path class="st2" d="m104.7 150.7-56.8.2.5-24.2 55.6-.2.7 24.2"/><defs><path id="e" d="M8.6 15.5H273v140.1H8.6z"/></defs><clipPath id="d"><use xlink:href="#e"/></clipPath><path d="m117.7 104.7.5.3.4.5.1.5 2.5 53.9-.1.6" clip-path="url(#d)" fill="none" stroke="#000" stroke-linecap="round" stroke-miterlimit="10" stroke-width=".118"/><path class="st2" d="M49.1 123.8h-6.7l.1-4.6h6.7l-.1 4.6m-5.7-.4.1-2.9m.2 1.7-.2-1.7m.2 2.9v-1.2m4.5 1.1-4.8.1m5.2 5.4-.5 22.1m.7-22.1h-.2m55.8 21.9-.7-22.1"/><path class="st2" d="M43.7 123.4v-1.2h4.6m68.8-17.6-89.9.2"/><defs><path id="c" d="M8.6 15.5H273v140.1H8.6z"/></defs><clipPath id="b"><use xlink:href="#c"/></clipPath><path d="m25.6 106.2-2.5 54" clip-path="url(#b)" fill="none" stroke="#000" stroke-linecap="round" stroke-miterlimit="10" stroke-width=".118"/><path class="st2" d="m25.7 105.7-.1.5m.5-.9-.4.4m.9-.7-.5.3m1.1-.5-.6.1"/><defs><path id="a" d="M8.6 15.5H273v140.1H8.6z"/></defs><clipPath id="az"><use xlink:href="#a"/></clipPath><path d="m121.2 159.9-2.5-53.9" clip-path="url(#az)" fill="none" stroke="#000" stroke-linecap="round" stroke-miterlimit="10" stroke-width=".118"/><path class="st2" d="m117.7 104.7-.6-.1m1.1.4-.5-.3m.9.8-.4-.5m.5 1-.1-.5m-14.6 21 .7 24.2m-1-22.1.3-2.1m-.3 2.1.7 22.1m-.4-24.2-.3 2.1m-55.3-1.9 55.6-.2m-55.4 2.3-.2-2.1m.4 2.1h-.2m-.2-2.1.2 2.1m-.7 22.1.5-24.2m.2 2.1-.5 22.1m56.6-.2-56.8.2m73-2.1-.2.6m0-.6h.2m-.6-12.2h-.2m.1-1.4-.1.6m-.2-6.4-.1.7m-.5-15.5-.1.7m-.1-.7h.2m-.2-2.8-.1.7m.8 14.1-.1.6m.2.8h-.2m.5 5.7h-.2m.1-1.4-.1.6m-.1-.6h.2m.2 5.8-.1.6m.7 10.1-.5-9.3m.3 9.9.2-.6m-1-19.4V128m-.1 2.1.1-.7m-.1-2.8-.5-10.6m.4 11.2.1-.6m-.7-14.8-.1-3.4m0 4.1.1-.7m.2 2.8-.1-1.4m0 2.1.1-.7m.8 17.7-.1-1.5m0 2.1.1-.6m.2 5.8v-1.5m-.1 2.1.1-.6m-1.3-29.7-.2-.5m1.4 27.3v-1.5m-.1 2.1.1-.6m-96.7 13.9.4-9.3m.1-1.4.1-1.5m.1-1.4V134m.1-1.4.1-1.5m0-1.4.1-1.4m0-1.5.6-10.6m0-1.4.1-1.4m.2-4.8.1-.3m-.3 3.8.2-3.5m95.5 40.2h-.2m-.3-9.3.5 9.3m-.6-12.2v1.5m-.2-1.5h.2m-.1-2.9v1.5m-.2-1.5h.2m-.1-1.4-.1-1.5m-.1 1.5h.2m-.2-4.3v1.4m-.2-1.4h.2m-.9-19.6.1 3.4m-.3-3.9.2.5m.8 18.2-.5-10.6m-.2-1.4h.2m-.1-1.4.1 1.4m-95.7 34.8-.1-.3m.7-13.3v-.3m.3-5.5-.1-.3m.8-14.5-.1-.4m.2-2.4-.1-.3m-.6 15-.1-.3m-.1 6.1-.1-.3m-.2 6.1-.1-.3m-.5 10.7.1.3m.3-9.6-.4 9.3m.9-19.4.1.3m0-1.7-.1 1.4m.1-2.9.1.3m.5-10.9-.6 10.6m.7-14.7.1.3m.1-3.8-.2 3.5m-.1 2.7.1.4m0-1.8-.1 1.4m-.8 17.8.1.3m0-1.8-.1 1.5m-.3 5.8.1.3m0-1.8-.1 1.5m1.5-30.1-.1.3m-1.2 26.9v.3m0-1.8v1.5m24.7-8.8 54.6-.2M92.9 132h3.2l-.2 1.8V132m0 1.8h-3.1m3.1-1.8v1.8m-3.1 0 .1-1.8m3.7 3.6v2.8m-4.4-2.8h4.4m-1.5 3.4h-3.2m4.2-7h-3.2m3 1.8.2-1.8m-3.3 1.8h3.1m-3-1.8-.1 1.8m4.4-5.2h-4.9m4.3 7 .6-7m-5 7h4.4m-4.7 3.4.5-7-.1-3.4m4.9 3.4-.5 6.4m.5-9.8v3.4m-.6 3.6.6-7m-.6 9.8v-2.8m-43.4-3.4 3.1-.1.2 1.8h-3.2l.1-1.7m-.1 1.7-.1-1.7m.2 0-.1 1.7m-.6 1.8h4.4m-4.5 3.5.1-3.5m2.1 3.5h-2.2m.7-5.3-.1-1.7m3.3 1.7h-3.2m3-1.8.2 1.8m-3.3-1.7 3.1-.1m.6-3.4H52m.7 7h4.4m-5.1-7 .7 7m4.1-3.6.5 6.6m-.4-10-.1 3.4m40.4 14.8h-2.1m.1.4-.2-.1m.6.2-.4-.1m.8.2-.4-.1m.7 0-.3.1m1.4-2.7.2.3m-.2-.4v.1m.3 1.6-.2.3m.3-.6-.1.3m.1-.7v.4m0-.7v.3m-.2-.6.2.3m-.5 1.5.2-.2m-.5.5.3-.3m-.6.4.3-.1m-.7.2.4-.1m.5-.4h-2.1m-1-5.6.1 2.7m.7-2.7h-.8m-.1 1.3.1-1.3m0 2.8-.1-1.5m.2 1.4-.1-2.7m3.9 6.5-.1.1-.1.1m.6-1.8h1.6m-1.8 1.8.2-1.8m1.6 0-.1 1.8m-1.5-1.8-.2 1.8m.2-3.7v1.9M98 148l.4-3.7-.4 3.7m2.8-3.7h-2.4m1.1 0-.1-1.7m1.1-10.6.3 12.3m-1.4-1.7 1.1-10.6m-5.4 14.2v-1.9M95 148l.1-1.8m-1.6 0h1.6L95 148m-1.5 0v-1.8m6.6 1.8h-6.6m6.5-1.8.1 1.8m-.2 0 .1-1.8m-10.7.7h-2.4m.1.3-.1-.1m.4.2-.3-.1m.7.2-.4-.1m.8.2-.4-.1m.7 0-.3.1m1.5-2.7.2.3m-.3-.5.1.2m.2 1.6-.2.3m.3-.6-.1.3m.1-.7v.4m0-.7v.3m-.1-.6.1.3m-.5 1.6.2-.3m-.5.5.3-.2m-.6.3.3-.1m-.7.2.4-.1m.5-.4h-2.4m-.6-5.6.1 2.7m.5-2.7h-.6l.1 2.7m-.1-1.4v-1.3m0 2.7v-1.4M90 148l-.1.1m.3-1.9h1.6m-1.7 1.9.1-1.9m1.6 0-.1 1.8m-1.5-1.8-.1 1.9m.1-3.8v1.9m-.2 1.9.2-3.8-.2 3.8m5.1-3.8h-4.9m-3.3 2v-2m0 3.8v-1.8m-1.6 0h1.6v1.8m-1.6 0v-1.8m6.6 1.7-6.6.1m6.5-1.9.1 1.8m-.2 0 .1-1.8m-12.9.7v-2.3m2.5 2.3h-2.5m-.2-2.2.1-.1.1-.1m-.1 2.5-.1-.1m.4.3-.3-.2m.7.4-.4-.2m.7.3-.3-.1m.7.1h-.4m.8 0h-.4m1.5-2.7.2.3m-.4-.6.2.3m.2 1.6-.2.3m.2-1.6.1.2m-.5 1.7.2-.3m-.5.5.3-.2m-.6.4.3-.2m-.6.3.3-.1m-2-.5v-2.3m2.5 2.3h-2.5m-.4-5.5.1 2.6m.3-2.6h-.4m3.2 2.5v-2.6m-3.2.1.1 2.6m-.1-1.4v-1.2m0 2.6v-1.4m3.2 1.3v-2.6m.3 5h1.7m-1.7 1.8v-1.8m1.7 0-.1 1.8m-1.6-1.8v1.8m0-3.8v2m-.1 1.8.1-3.8-.1 3.8m5-3.8H82m-3.3 2v-2m0 3.8v-1.8m-1.6 0h1.6v1.8m-1.6 0v-1.8m6.6 1.8h-6.6m6.6-1.8v1.8m-.1 0 .1-1.8m-10.1.6-2.5.1m2.5-2.4v2.3m-2.8-2 .2-.3m-.4.5.2-.2m2.8-.4.1.1m-3 2.2-.1-.3m.4.5-.3-.2m.6.4-.3-.2m.6.4-.3-.2m.6.3-.3-.1m.7.1h-.4m.8 0h-.4m1.4-2.9.1.2m-.2 2.2.2-.2m-.4.4.2-.2m-.6.4.4-.2m-.7.3.3-.1m.6-.5-2.5.1m2.5-2.4v2.3m-2.8-5.5v2.6m3.1-2.6h-.4m.4 2.6v-2.6m-3.1 0v2.6m3.1-1.4v1.4m0-2.6v1.2m0 1.4v-2.6m-.1 4.9h1.7m-1.7 1.8v-1.8m1.7 0v1.8m-1.7-1.8v1.8m0-3.7v1.9m4.9-2-4.9.1m-3.3 1.9.1-1.9m0 3.7-.1-1.8m.1-1.9v3.7m-1.7-1.8h1.6m-1.5 1.8-.1-1.8m1.6 0 .1 1.8m-1.7 0v-1.8 1.8m6.6 0h-6.6m6.6-1.8v1.8-1.8m-9.8.7h-2.5m2.5 0h-2.5m1.2.6.4-.1m-.7 0 .3.1m-.7-.2.4.1m-.7-.2.3.1m-.6-.3.3.2m1.7.1-.3.1m.7-.2-.4.1m.6-.3-.2.2m-2.6-2.4.1-.2m-.3.5.2-.3m-.3.6.1-.3m-.1.6v-.3m0 .7v-.4m.1.7-.1-.3m.3.6-.2-.3m.4.6-.2-.3m.1-3.4v.6m3.1-2.6h-.5m.5 2.6v-2.6M63 144v-.6m3.2-.7-.1 1.4m0-2.7.1 1.3m-.1-1.3v2.6m-.5 2.3h1.7m-1.6 1.8-.1-1.8.1 1.8m-.1-3.7v1.9m5-1.9h-5m5 3.7v-3.7m-8.3 1.9.1-1.9m0 3.7-.1-1.8m.1-1.9.2 3.7m-1.8.1-.1-1.9m1.6 0 .1 1.8m-1.7-1.8h1.6m-1.6 1.9v-1.9 1.9m6.5-.1-6.5.1m6.6-1.9-.1 1.8m-9.7-1.1h-2.2m-.3-2.1.1-.1m-.3.4.2-.3m-.3.6.1-.3m-.1.7v-.4m0 .7v-.3m.1.6-.1-.3m.3.6-.2-.3m.4.6-.2-.3m.5.5-.3-.2m.6.4-.3-.2m.7.3-.4-.1m.7.1h-.3m.7 0h-.4m.8-.2.2-.1m-.6.3.4-.2m.2-.4h-2.2m3-5.6h-.7m.7 2.7v-2.7m.1 1.3v1.5m-.1-2.8.1 1.3m-.1-1.3v2.7m-3.7 4-.1-.1m.1.1.1.1m44.7-5.6.1 1.7m-1.9-1.7h1.8m-41.8 5.6-.2-1.8h1.7m-1.7 0 .2 1.8m-.2-3.8v2m5-2h-5m5.2 3.7-.2-3.7m32.5-3.1h-.8m5.3 1.3h-1.8m2.9-10.6-1.1 10.6m-7.5-3.6.5-7m2.7 7h-3.2m5.3-7-.5 6.4m3.8-6.4h-3.3m-10.9 10.6h-4.6m4.6-1.3v1.3m-7.8-1.2h.4m-.4 1.2v-1.2m-4.6 1.2v-1.2m4.6 1.2h-4.6m-15.5.1-.1-1.3m4.6 1.3h-4.5m7.7-1.3h-.5M53 142.7l-.4-3.5m2.3 3.5H53m5.3-1.3h-.7m8.6 1.3-.1-1.3m4.7 1.3h-4.6m7.7-1.3h-.4m-18.7-2.2h-2.2m4.2-7.1.5 6.6m35.1-6.7-35.6.1m30.1 9.2h-.6m7.7 1.3h-4.4m4.5-1.3-.1 1.3m-42-13.9.7 7m-1 8.7.3-15.7m1 14v1.7m-.4-5.2.4 3.5m-.3-7-.1 3.5m1.6 5.2h-2.5m2.8 3.8-.3-3.8m-.1 2 .1-2m.1 3.8-.2-1.8m.1-2 .3 3.8m-1.8 0-.2-1.8m1.6 0 .2 1.8m-1.8-1.8h1.6m-1.6 1.8v-1.8l.2 1.8m6.3 0h-6.5m6.6-1.8-.1 1.8m45.3 1.6-.2.9m-55.8-.7 56-.2m-56 .2.1.9m.5-24.2-.6 23.3.1.9m55.9-1.1-.2.9m.2-.9-.8-23.3"/><path class="st2" d="m48.3 150 56-.2-.8-23.3-54.6.2-.6 23.3"/><path class="st2" d="m62.3 146.3h-1.6v1.9m-6.6-1.8h-1.6v1.8"/><path class="st2" d="M57.4 146.4v-2h5l-.1 1.9m-4.9.1h1.7l-.1 1.8h-6.5m13.1-1.9h1.7l-.1 1.8-6.5.1m9.8-1.9h-1.6v1.8m-3.3-1.8v-1.9h5l-.1 1.9"/><path class="st2" d="M68.9 148.1h6.6v-1.8h-1.7v-1.9l4.9-.1v2h-1.6v1.8m18-1.9h-1.6v1.8m-39.4-1.6.1-2h-2.5l.3-15.7h4.9l-.1 3.4M82 146.3v-2h4.9v2"/><path class="st2" d="M82 146.3h1.7v1.8h-6.6m13.1-1.9v-1.9h4.9v1.9m-4.9 0h1.6l.1 1.8-6.6.1v-1.8h1.6m11.5-.1h1.6l.1 1.8h-6.6m4.9-1.8v-1.9h2.4l-.3-12.3h-3.3"/><path class="st2" d="m56.8 132.1 35.6-.1-.1-3.4h4.9v3.4m-39.9 15.4.2-.1m-.6.3.4-.2m-.8.2h.4m-2.2.6-.1-.1-.1-.1m.5-3.1.1-.1m-.3.4.2-.3m-.3.6.1-.3m-.1.7v-.4m0 .7v-.3m.1.6-.1-.3m.3.6-.2-.3m.4.6-.2-.3m.5.5-.3-.2m.6.4-.3-.2m.7.3-.4-.1m.7.1h-.3m2.4-3.3.1.1m-.9-.6.4.2m.4.3-.4-.3m-3.5.3.3-.2m-.8.8.1-.2m.4-.4-.4.4m11.2 2.6.2-.2m-.6.3.4-.1m-.7.2.3-.1m-.7.2.4-.1m-1.9-2.6.1-.2m-.3.5.2-.3m-.3.6.1-.3m-.1.6v-.3m0 .7v-.4m.1.7-.1-.3m.3.6-.2-.3m.4.6-.2-.3m.5.5-.3-.2m.6.3-.3-.1m.7.2-.4-.1m.7.2-.3-.1m2.3-3.2.1.1m-.8-.6.3.2m.4.3-.4-.3m-3.1 0 .1-.1m-.5.4.4-.3m-.4.3-.1.2m11.2 2.5.2-.2m-.4.4.2-.2m-.6.4.4-.2m-.7.3.3-.1m-.7.1h.4m1-2.9.1.2m-.2-.3.1.1m-2.9.3.2-.3m-.4.5.2-.2m-.1 1.9-.1-.3m.4.5-.3-.2m.6.4-.3-.2m.6.4-.3-.2m.6.3-.3-.1m.7.1h-.4m2.4-3.3.1.2m-.8-.6.3.1m.4.3-.4-.3m-3.1 0h.2m-.6.4.4-.4m-.4.4-.1.1m11.4 2.3.2-.3m-.4.6.2-.3m-.5.5.3-.2m-.6.4.3-.2m-.6.3.3-.1m-.7.1h.4m1.3-2.4.1.2m-.3-.5.2.3m-.4-.6.2.3m-2.9-.2.1-.1m-.2.2.1-.1m0 2.4-.1-.1m.4.3-.3-.2m.7.4-.4-.2m.7.3-.3-.1m.7.1h-.4m2.3-3.3.1.1m-.7-.5.2.1m.4.3-.4-.3m-3.1 0 .3-.1m-.7.4.4-.3m-.4.3-.1.1m11.8 1.4v-.3m0 .7v-.4m-.1.7.1-.3m-.3.6.2-.3m-.4.6.2-.3m-.5.5.3-.2m-.6.3.3-.1m-.7.2.4-.1m-.7.2.3-.1m1.6.6-.1.1m-.1-3 .1.3m-.3-.6.2.3m-.3-.5.1.2m-2.6 2.4-.1-.1m.4.2-.3-.1m.7.2-.4-.1m.8.2-.4-.1m2.2-3.2.3.2m-.3-.2-.4-.3m-3 0 .3-.2m-.7.5.4-.3m-.4.3-.1.1m8-1.7.1 1.5m-4.5-1.5H94m-7.7 0v1.4m-4.6-1.4h4.6m-7.8 0v1.4m-4.6-1.4h4.6m-4.6 1.4v-1.4m-7.7.1h4.6m-4.7 1.4.1-1.4m-7.8 0h4.5m-4.5 1.5v-1.5m-5.4 0v1.7m1.9-1.7H53m44.8 3v-.3m0 .7v-.4m-.1.7.1-.3m-.3.6.2-.3m-.4.5.2-.2m-.5.5.3-.3m-.6.4.3-.1m-.7.2.4-.1m-.7.2.3-.1m1.7.4-.1.1-.1.1m-.2-2.9.2.3m-.4-.6.2.3m-.2-.4v.1m-2.2 2.5-.2-.1m.6.2-.4-.1m.8.2-.4-.1m2.2-3.2.4.4m.1.2-.1-.2m-.4-.4-.3-.3m-3.2 0 .4-.2m-.8.5.4-.3m-.4.3-.1.1m3.3-4.7v-1.2l.6.2v2.4l-.6-1.4"/><path class="st2" d="M95.2 141h2.5l-.6-1.4m-1.9 1.4.6-1.4h1.3m.6-1-.6-.2m-1.3 0-.7.2m2-.2h-1.3"/><path class="st2" d="m95.1 138.6.7-.2v1.2l-.6 1.4-.1-2.4m2.6 2.4v-2.4m-.5 8.3.5-5.9m-2.6-2.4-.4 5.7m.5-3.3-.1-2.4m-.2 5.7.3-3.3h2.5m-2.8 3.3.3-3.3m2.5 0-.5 5.9m-2.1-8.3-.4 5.7m1.1-4.7v-1.2h1.3v1.2h-1.3m-6.8 0v-1.2l.6.3.1 2.3-.7-1.4m-1.9 1.4h2.6l-.7-1.4"/><path class="st2" d="m87.1 141 .7-1.4H89m.6-.9-.6-.3m-1.3 0-.7.3m2-.3h-1.3m-.7.3.7-.3.1 1.2-.7 1.4-.1-2.3m2.7 2.3-.1-2.3m-.3 8.2.4-5.9m-.4 6v-.1m-2.3-8.2-.2 5.6m.3-3.3-.1-2.3m-.1 5.8.2-3.5h2.6m-2.8 3.5.2-3.5m2.2 5.9v.1m.4-6-.4 5.9m-2.3-8.2-.2 5.6"/><path class="st2" d="m87.8 139.6-.1-1.2H89v1.2h-1.2m-6.9 0v-1.1l.7.2v2.3l-.7-1.4M79 141h2.6l-.7-1.4"/><path class="st2" d="m79 141 .7-1.4h1.2m.7-.9-.7-.2m-1.3 0-.6.2m1.9-.2h-1.3m-.6.2.6-.2.1 1.1-.7 1.4v-2.3m2.6 2.3v-2.3m-.2 8.2.2-5.9m-2.6-2.3-.1 5.9m.1-3.6v-2.3m-.1 8.2.1-5.9h2.6m-2.7 5.9.1-5.9m2.6 0-.2 5.9m-2.4-8.2-.1 5.9"/><path class="st2" d="m79.7 139.6-.1-1.1h1.3v1.1h-1.2m-6.9.1v-1.2l.7.2v2.4l-.7-1.4"/><path class="st2" d="m70.9 141 2.6.1-.7-1.4"/><path class="st2" d="m70.9 141 .7-1.3h1.2m.7-1-.7-.2m-1.2 0-.7.2m1.9-.2h-1.2"/><path class="st2" d="m70.9 138.7.7-.2v1.2l-.7 1.3v-2.3m2.6 0 .1 5.9m-.1-3.5v-2.4m.1 8.2-.1-5.8m-2.6-.1v-2.3m.2 8.3-.2-6 2.6.1m-2.4 5.9-.2-6m2.6.1.1 5.8m0-2.3-.1-5.9"/><path class="st2" d="M71.6 139.7v-1.2h1.2v1.2h-1.2m-6.9 0 .1-1.2.7.2-.1 2.4-.7-1.4"/><path class="st2" d="M62.9 141.1h2.5l-.7-1.4"/><path class="st2" d="m62.9 141.1.6-1.4h1.2m.8-1-.7-.2m-1.3 0-.6.2m1.9-.2h-1.3"/><path class="st2" d="m62.9 138.7.6-.2v1.2l-.6 1.4v-2.4m2.6 0 .2 5.7m-.3-3.3.1-2.4m.1 6.9-.2-4.5m-2.5 0v-2.4m.3 8.3-.3-5.9h2.5m-2.2 5.9-.3-5.9m2.5 0 .2 4.5m.1-1.2-.3-5.7m-1.9 1v-1.2h1.3l-.1 1.2h-1.2m-6.9 0 .1-1.2.7.3-.1 2.3-.7-1.4"/><path class="st2" d="M54.8 141.1h2.5l-.7-1.4"/><path class="st2" d="m54.8 141.1.6-1.4h1.2m.8-.9-.7-.3m-1.3 0-.6.3m1.9-.3h-1.3"/><path class="st2" d="m54.8 138.8.6-.3v1.2l-.6 1.4v-2.3m2.6 0 .4 5.6m-.5-3.3.1-2.3m.2 5.6-.3-3.3m-2.5 0v-2.3m.5 8.2-.5-5.9h2.5m-2 5.9-.5-5.9m2.5 0 .3 3.3m.2 0-.4-5.6m-2 .9v-1.2h1.3l-.1 1.2h-1.2m-6.6-10.4h-.2m0 0h.2m-.2 0h.2m0 0h-.2"/><path class="st2" d="M55.4 139.7v-1.2h1.3l-.1 1.2h-1.2m2.4 4.7-.4-5.6m-.1 2.3.3 3.3m-2.3 2.6-.5-5.9h2.5"/><path class="st2" d="m55.3 147-.5-5.9v-2.3m2.8 5.6-.3-3.3.1-2.3.4 5.6"/><path class="st2" d="m54.8 138.8.6-.3v1.2l-.6 1.4v-2.3"/><path class="st2" d="M56.7 138.5h-1.3l-.6.3m2.6 0-.7-.3m-1.9 2.6h2.5l-.7-1.4"/><path class="st2" d="m54.8 141.1.6-1.4h1.2l.1-1.2.7.3-.1 2.3-.7-1.4m6.9 0v-1.2h1.3l-.1 1.2h-1.2m2.2 4.7-.3-5.7m0 2.4.2 4.5m-2.4 1.4-.3-5.9h2.5"/><path class="st2" d="m63.2 147-.3-5.9v-2.4m2.7 6.9-.2-4.5.1-2.4.2 5.7"/><path class="st2" d="m62.9 138.7.6-.2v1.2l-.6 1.4v-2.4"/><path class="st2" d="M64.8 138.5h-1.3l-.6.2m2.6 0-.7-.2m-1.9 2.6h2.5l-.7-1.4"/><path class="st2" d="m62.9 141.1.6-1.4h1.2l.1-1.2.7.2-.1 2.4-.7-1.4m6.9 0v-1.2h1.2v1.2h-1.2m2 4.9-.1-5.9m0 2.4.1 5.8m-2.5.1-.2-5.9h2.6"/><path class="st2" d="m71.1 147-.2-5.9v-2.4m2.7 8.2-.1-5.8v-2.4l.1 5.9"/><path class="st2" d="m70.9 138.7.7-.2v1.2l-.7 1.3v-2.3"/><path class="st2" d="M72.8 138.5h-1.2l-.7.2m2.6 0-.7-.2m-1.9 2.6h2.6l-.7-1.4"/><path class="st2" d="m70.9 141.1.7-1.4h1.2v-1.2l.7.2v2.4l-.7-1.4m6.9-.1-.1-1.1h1.3v1.1h-1.2m-.7-.9-.1 5.9m2.7-3.6-.2 5.9m-2.5 0 .1-5.9h2.6"/><path class="st2" d="m78.9 146.9.1-5.9v-2.3l-.1 5.9m2.5 2.3.2-5.9v-2.3"/><path class="st2" d="m79 138.7.6-.2.1 1.1-.7 1.4v-2.3"/><path class="st2" d="M80.9 138.5h-1.3l-.6.2m2.6 0-.7-.2M79 141h2.6l-.7-1.4"/><path class="st2" d="m79 141 .7-1.4h1.2v-1.1l.7.2v2.3l-.7-1.4m6.9 0-.1-1.2H89v1.2h-1.2m-.8-.9-.2 5.6m2.9-3.3-.4 5.9v.1m-2.4-2.5.2-3.5h2.6"/><path class="st2" d="m86.9 144.5.2-3.5-.1-2.3-.2 5.6m2.5 2.7v-.1l.4-5.9-.1-2.3"/><path class="st2" d="m87 138.7.7-.3.1 1.2-.7 1.4-.1-2.3"/><path class="st2" d="M89 138.4h-1.3l-.7.3m2.6 0-.6-.3m-1.9 2.6h2.6l-.7-1.4"/><path class="st2" d="m87.1 141 .7-1.4H89v-1.2"/><path class="st2" d="m89 138.4.6.3.1 2.3-.7-1.4m6.8 0v-1.2h1.3v1.2h-1.3m-.7-1-.4 5.7m3-3.3-.5 5.9m-2.3-2.6.3-3.3h2.5"/><path class="st2" d="m94.9 144.3.3-3.3-.1-2.4-.4 5.7m2.5 2.6.5-5.9v-2.4"/><path class="st2" d="m95.1 138.6.7-.2v1.2l-.6 1.4-.1-2.4"/><path class="st2" d="M97.1 138.4h-1.3l-.7.2m2.6 0-.6-.2m-1.9 2.6h2.5l-.6-1.4"/><path class="st2" d="m95.2 141 .6-1.4h1.3v-1.2l.6.2v2.4l-.6-1.4m-3.2 4.6-.1.1m.1-.1.4-.3.4-.2m3.1.5-.3-.3m.8.9-.1-.2m-.4-.4.4.4m-2.2 2.9-.4-.1-.4-.1-.2-.1m2.4-2.5v.1l.2.3.2.3m.1 2.5-.1.1m.2-.2-.1.1m-1.9-.4.3-.1.4-.1.3-.1.3-.3.2-.2.2-.3.1-.3v-.7m-42.9-2.7H53v1.7m5.4-.2v-1.5h4.5m3.2 1.4.1-1.4h4.6m3.1 1.3v-1.4h4.6v1.4m3.2-1.4h4.6v1.4"/><path class="st2" d="M89.6 142.6H94l.1 1.5m-8 .1-.1.1m.1-.1.4-.3.3-.2m3.1.5-.4-.3m.4.3.3.2m-2.1 3.1-.4-.1-.4-.1-.3-.1-.1-.1m2.6-2.5.1.2.2.3.1.3m.1 2.6-.1.1m-1.8-.6.3-.1.4-.1.3-.1.3-.2.2-.3.2-.3.1-.3v-.7m-11.7-1.2-.1.1m.1-.1.4-.3.3-.1m3.2.4-.4-.3m-.2-.1.2.1m.4.3.1.1m-2 3.2h-.4l-.3-.1-.4-.2-.3-.2-.1-.1m0-2.2.1-.1.1-.1m2.6 0 .2.3.2.3.1.2m-1.8 2.2h.4l.3-.1.3-.2.3-.2.2-.3.2-.3m-11.5-2.1-.1.1m.1-.1.4-.4h.2m3.3.3-.4-.3m-.3-.1.3.1m.4.3.1.2m-2.1 3.1h-.4l-.3-.1-.3-.2-.3-.2-.3-.2-.1-.3m0-1.4.2-.2.2-.3m2.6-.1.1.1.1.2m-1.5 2.7h.4l.3-.1.4-.2.2-.2.2-.2m-11.3-2.5-.1.2m.1-.2.4-.3.1-.1m3.4.4-.4-.3m-.3-.2.3.2m.4.3.1.1m-2.1 3.2-.3-.1-.4-.1-.3-.1-.3-.2-.2-.3-.2-.3-.1-.3v-.7l.1-.3.2-.3.1-.2m1.4 2.9.4-.1.3-.1.4-.1.2-.2m-11-2.8-.4.4m-.1.2.1-.2m.4-.4.3-.2m3.6.2-.4-.3m-.4-.2.4.2m.4.3.1.1m-2.2 3.2h-.3l-.4-.1-.3-.2-.3-.2-.2-.3-.2-.3-.1-.3v-.7l.1-.3.2-.3.1-.1m-.5 3.3-.1-.1m.2.2-.1-.1m1.9-.5h.4l.4-.2.2-.1"/><path class="st2" d="m48.3 150 56-.2-.8-23.3-54.6.2-.6 23.3"/><path class="st2" d="m62.3 146.3h-1.6v1.9m-6.6-1.8h-1.6v1.8"/><path class="st2" d="M57.4 146.4v-2h5l-.1 1.9m-4.9.1h1.7l-.1 1.8h-6.5m13.1-1.9h1.7l-.1 1.8-6.5.1m9.8-1.9h-1.6v1.8m-3.3-1.8v-1.9m0 0h5l-.1 1.9"/><path class="st2" d="M68.9 148.1h6.6v-1.8h-1.7v-1.9l4.9-.1v2h-1.6v1.8m18-1.9h-1.6v1.8m-39.4-1.6.1-2h-2.5l.3-15.7h4.9l-.1 3.4M82 146.3v-2h4.9v2"/><path class="st2" d="M82 146.3h1.7v1.8h-6.6m13.1-1.9v-1.9h4.9v1.9m-4.9 0h1.6l.1 1.8-6.6.1v-1.8h1.6m11.5-.1h1.6l.1 1.8h-6.6m4.9-1.8v-1.9h2.4l-.3-12.3h-3.3"/><path class="st2" d="m56.8 132.1 35.6-.1-.1-3.4h4.9v3.4m7.1 17.8-.8-23.3m.8 23.3-.2.9m-55.8-.7.1.9m.5-24.2-.6 23.3.1.9"/><path class="st2" d="m48.3 150 56-.2-.2.9m-45-4.3-.1 1.8h-6.5m0-1.8.2 1.8"/><path class="st2" d="M52.5 148.2v-1.8h1.6l.2 1.8m-1.6 0-.2-1.8m1.7-2 .3 3.8"/><path class="st2" d="m54.3 148.2-.2-1.8.1-2"/><path class="st2" d="m54.5 148.2-.3-3.8h-2.5m1-8.7-.1 3.5.4 3.5v1.7"/><path class="st2" d="m51.7 144.4.3-15.7.7 7m41.4 5.6-.1 1.3h-4.4m-2.7-1.3h-.6m6.1-9.3-35.6.1.5 6.6m-2.5.5h-2.2m21.3 2.2h-.4m-2.7 1.3h-4.6l-.1-1.3m-7.8 0h-.7m-2.7 1.3H53l-.4-3.5m13.5 2.2h-.5m-2.7 1.3h-4.5l-.1-1.3m20.2 1.2h-4.6v-1.2m4.6 1.2v-1.2h.4m7.4-.1v1.3h-4.6m18.8-10.6h-3.3l-.5 6.4m-1.6.6h-3.2l.5-7m8.1 0-1.1 10.6h-1.8m-2.7-1.3h-.8m-31.5 6.8-.2-3.7h-5v2l.2 1.8m-.2-1.8h1.7m-1.5 1.8-.2-1.8m40.2-3.8h1.8l.1 1.7m-44.9 3.8.1.1m-.1-.1-.1-.1m3.8-6.6v2.7m0-2.7.1 1.3v1.5m-.1-.1v-2.7h-.7m-.1 5.6h-2.2m1.6.6.4-.2.2-.1m-.6.3h-.7l-.4-.1-.3-.2-.3-.2-.2-.3-.2-.3-.1-.3v-.7l.1-.3.2-.3.1-.1m2.4 2.2h-2.2"/><path class="st2" d="m67.3 146.3-.1 1.8-6.5.1m0-1.9.1 1.9"/><path class="st2" d="M60.7 148.2v-1.9h1.6l.1 1.8m-1.6.1-.1-1.9m1.7-1.9.2 3.7m-.2 0-.1-1.8.1-1.9m8.2 3.7v-3.7h-5v1.9l.1 1.8-.1-1.8h1.7m-1.2-4.9v2.6m0-2.6.1 1.3-.1 1.4M63 144v-.6m3.1.6v-2.6h-.5m-2.6 2v.6m.1 3.1-.2-.3-.2-.3-.1-.3v-.7l.1-.3.2-.3.1-.2"/><path class="st2" d="m65.7 147.1-.2.2-.4.1-.3.1m-1.7-.4.3.2.3.1.4.1.3.1.4-.1m.9-.5h-2.5m2.5 0h-2.5m12.3 1.1v-1.8 1.8h-6.6m0-1.8.1 1.8m-.1 0v-1.8m1.6 0 .1 1.8"/><path class="st2" d="m69 148.1-.1-1.8h1.6m.1-1.9v3.7m0 0-.1-1.8.1-1.9m8.1-.1-4.9.1v3.7m1.7-1.8v1.8"/><path class="st2" d="M73.8 148.1v-1.8h1.7m-1.6-2.3v-2.6 2.6m-3.1-2.6v2.6m3.1 0v-2.6h-.4m-2.6 0-.1 2.6m2.8.6v2.3l-2.5.1"/><path class="st2" d="m72.7 147.5.3-.1.4-.2.2-.2.2-.2m-.1-2.2.1.2m-1.1 2.7h-.8l-.3-.1-.3-.2-.3-.2-.3-.2-.1-.3m3-2 .1.1m-3.1.5.2-.2.2-.3"/><path class="st2" d="M73.6 144.6v2.3l-2.5.1m12.5 1.1.1-1.8-.1 1.8h-6.5v-1.8m1.6 0v1.8m-1.6-1.8h1.6m0 1.8v-3.8"/><path class="st2" d="M86.9 144.3H82l-.1 3.8.1-3.8v3.8m1.7-1.8-.1 1.8"/><path class="st2" d="M82 148.1v-1.8h1.7m-2-2.4v-2.6m-3.2 2.7v-2.6 2.6m3.2-.1v-2.6h-.1m-2.7.1h-.4l.1 2.6m2.8 2.9h-2.5v-2.3m1.7 2.9.3-.1.3-.2.3-.2.2-.3m.2-1.6.1.2m-.1 1.1-.2.3m-.2-2.2.2.3.2.3m-1.3 2.4h-.8l-.3-.1-.4-.2-.3-.2-.1-.1m.1-2.3.1-.1m-.2.2.1-.1"/><path class="st2" d="M81.4 146.9h-2.5v-2.3m12.8 3.4.1-1.8.1 1.8-6.6.1v-1.8m1.6 0v1.8m-1.6-1.8h1.6m0 1.8v-3.8"/><path class="st2" d="M95.1 144.3h-4.9l-.2 3.8.2-3.8v1.9l-.1 1.9m1.7-1.9-.1 1.8"/><path class="st2" d="m90.1 148.1.1-1.9h1.6M90 148l-.1.1m-3.6-4.1v-2.7 2.7m.6-2.7h-.6l.1 2.7m2.9 2.9h-2.4m1.5.5.4-.1.3-.1.3-.2.2-.3m.2-1.6.1.3v.7l-.1.3-.2.3m-.1-2.1.1.2.2.3m-1.4 2.3-.3.1-.4-.1-.4-.1-.3-.1-.1-.1m2.4-.2h-2.4m13 1.1.1-1.8.1 1.8h-6.6v-1.8m1.6 0L95 148m-1.5-1.8h1.6"/><path class="st2" d="m95 148 .1-1.8v-1.9m4.3-1.7 1.1-10.6.3 12.3m-1.3 0-.1-1.7m1.4 1.7h-2.4L98 148l.4-3.7v1.9l-.2 1.8m1.8-1.8-.1 1.8"/><path class="st2" d="m98.2 148 .2-1.8h1.6m-2.1 1.7-.1.1m.2-.2-.1.1m-3.7-3.9-.1-2.7m0 2.8-.1-1.5.1-1.3m.8 0h-.8l.1 2.7m3 2.9h-2.1m1.2.5.4-.1.3-.1.3-.3.2-.2m.1-1.6.2.3v.7l-.1.3-.2.3m-.1-2v.1l.2.3m-1.3 2.3-.3.1-.4-.1-.4-.1-.1-.1m2.1-.3h-2.1m-38.2-18.2-.1 3.4.5 6.6"/><path class="st2" d="m52 128.7.7 7h4.4m-.2-7H52"/><path class="st2" d="m53.2 132.2 3.1-.1.2 1.8h-3.2l-.1-1.7m1.6 7h-2.2l.1-3.5h4.4"/><path class="st2" d="m53.4 132.2-.1 1.7-.1-1.7m.1 1.7.1-1.7m3.1 1.7h-3.2m3-1.8.2 1.8m-3.3-1.7 3.1-.1m40.3 6.3v-2.8l.6-7v3.4l-.6 6.4m-4.2-6.4-.1-3.4m-.4 10.4.5-7"/><path class="st2" d="M92.2 135.6h4.4l.6-7h-4.9"/><path class="st2" d="m92.9 132-.1 1.8h3.1l.2-1.8h-3.2m2.2 7h-3.2m.3-3.4h4.4v2.8m-3.8-4.6.1-1.8"/><path class="st2" d="M95.9 132v1.8h-3.1m3.1 0V132m.2 0-.2 1.8m-3-1.8h3.2m-47.2-5.3 54.6-.2M24.2 134v1.8m1.3-27.5-.1.3m-1.3 28.3-.1 1.5.1.3m.3-7.6-.1 1.5.1.3m.8-19.5-.1 1.4.1.4m.2-6.6-.2 3.5.1.3m-.2 3.8-.6 10.6.1.3m-.1 1.2-.1 1.4.1.3m-.6 9.8-.4 9.3.1.3"/><path class="st2" d="m24.1 138.7-.1-.3h.1m.3-5.5-.1-.3h.1m.2-5.5-.1-.3h.1m.7-14.4-.1-.3h.1m-.1 3.1-.1-.4h.1m-.7 15.2-.1-.3h.1m-.3 6.1v-.3m-.6 13.9-.1-.3h.1m95.5-35.9.2 1.4m-.2 0h.2m.5 12-.5-10.6h-.1m-.4-8.2.2.6.1 3.4m.6 16.2h.2v1.4m0 2.9h.2l-.1-1.5h-.1m.1 2.9h.2v1.5m-.1 1.4h.2v1.5m0 1.4.6 9.3h-.2m-95.5-36.7.2-3.5.1-.3"/><path class="st2" d="M25.2 114.8v-1.4h.1m-.7 13.4.5-10.6m-.7 13.5.1-1.4h.1m-.3 4.3.1-1.5m-.2 4.4V134h.1m-.2 4.4v-1.5h.1m-.6 12.2.3-9.3h.1m96.1-4 .1-.6v-1.5m-1.2-25.3-.2-.5v-.1m1.4 30.9.1-.6v-1.5m-.3-3.7.1-.6-.1-1.5m-.8-15.5.1-.7-.1-1.4m-.2-.7.1-.7-.1-3.4m.7 18.8.1-.6-.5-10.6m.5 14.1.1-.7V128m.8 21.4.2-.6-.5-9.3h-.1"/><path class="st2" d="M120.2 138.1v.6m-.3-6.4h.2l-.1.6m.2.8h-.2m-.1-5.7h-.2m0-1.4v.6m-.7-15.4v.7m.1 2.1h.2l-.1.7m.6 14.1v.7m.3 5.1v.6m.2.8h-.2m.6 12.2h.2l-.2.6m-16 1.3-56.8.2m.7-22.1-.5 22.1m-.2 0 .5-24.2.2 2.1"/><path class="st2" d="M48.8 128.8h-.2l-.2-2.1 55.6-.2-.3 2.1.7 22.1"/><path class="st2" d="m103.7 128.6.3-2.1.7 24.2m14-44.7-.1-.5-.4-.5-.5-.3-.6-.1"/><defs><path id="ay" d="M8.6 15.5H273v140.1H8.6z"/></defs><clipPath id="ax"><use xlink:href="#ay"/></clipPath><path d="m121.2 159.9-2.5-53.9m-91.5-1.2-.6.1-.5.4-.4.4-.1.5-2.5 54" clip-path="url(#ax)" fill="none" stroke="#000" stroke-linecap="round" stroke-miterlimit="10" stroke-width=".118"/><path class="st2" d="m117.1 104.6-89.9.2m16.5 17.4h4.6m-4.6 1.2v-1.2m60.7 28.5-.7-22.1h-.1m-54.8.2h-.2l-.5 22.1m.1-27.6-4.8.1m.3 0v-1.2l-.2-1.7m-.1 2.9.1-2.9"/><defs><path id="aw" d="M8.6 15.5H273v140.1H8.6z"/></defs><clipPath id="av"><use xlink:href="#aw"/></clipPath><path d="m24.1 161.7-.6-.4-.3-.5-.1-.6 2.5-54 .1-.5.4-.4.5-.3.6-.2 89.9-.2.6.1" clip-path="url(#av)" fill="none" stroke="#000" stroke-linecap="round" stroke-miterlimit="10" stroke-width=".118"/><path class="st2" d="m104.7 150.7-56.8.2.5-24.2 55.6-.2.7 24.2"/><defs><path id="au" d="M8.6 15.5H273v140.1H8.6z"/></defs><clipPath id="at"><use xlink:href="#au"/></clipPath><path d="m117.7 104.7.5.3.4.5.1.5 2.5 53.9-.1.6" clip-path="url(#at)" fill="none" stroke="#000" stroke-linecap="round" stroke-miterlimit="10" stroke-width=".118"/><path class="st2" d="M49.1 123.8h-6.7l.1-4.6h6.7l-.1 4.6"/><path class="st2" d="M48.3 122.2h-4.6l-.2-1.7h4.8l-.1 2.8.9.5h-6.7l1-.4 4.8-.1"/><path class="st2" d="m48.3 120.5.9-1.3-.1 4.6-.9-.5.1-2.8m-4.9 2.9-1 .4.1-4.6m0 0 1 1.3-.1 2.9"/><path class="st2" d="M42.5 119.2h6.7l-.9 1.3h-4.8l-1-1.3m1.9 3.2h-.6l-.1-.1m.7.9h1.9l.5.1h.1v.1m-.9-1.1-.2.1h-.7m0-.2v.2m-.7.8h-.7"/><path class="st2" d="m43.7 123.2 3.1.1v.1m-1.4-.5v-.5h.4l.2-.1"/><path class="st2" d="M46.2 122.5v.2l-.2.1-.2.1h-.7v-.5h.3v.5m-.3 0v-.7.7m0-.7v.5l-.3-.5m-.2.4v.3m0-.3-.3-.3-.1-.1m-.5 1h1.7m1.4-.7v-.3m-1.4 1h.7l.4-.1.2-.2.1-.4m0-.3v.3l-.2-.3m-.6 0 .2.3m-1.6.4h-.8v-.5h.6m-.6 0v.5h-.1"/><path class="st2" d="m44.8 122.2.1.2.2.3v.2h.3m-1.7.3h2.4m-.1-1 .2.3v.2l-.2.1-.2.1h-.4m1.2-.7.2.3-.1.4-.2.2-.4.1m-1.5-.3v-.3l-.3-.3-.1-.1m-.5.7h.9"/><defs><path id="as" d="M8.6 15.5H273v140.1H8.6z"/></defs><clipPath id="ar"><use xlink:href="#as"/></clipPath><path d="M207.9 59h-4.1c-.3 0-.5-.2-.5-.5v-4.1c0-.3.2-.5.5-.5h4.1c.3 0 .5.2.5.5v4.1c0 .3-.2.5-.5.5" clip-path="url(#ar)"/><defs><path id="aq" d="M8.6 15.5H273v140.1H8.6z"/></defs><clipPath id="ao"><use xlink:href="#aq"/></clipPath><path d="M79.2 113.1V76.2h-9.4v36.9h-6.2l10.9 12.8 10.9-12.8h-6.2z" clip-path="url(#ao)" fill="#b5b6b6"/><text class="st12 st13" transform="translate(2.85 82.174)">24 VDC input</text><path d="M74.5 72.7H49.8m47.4 0H74.1m-24.3 0V36.8m1.7 31.4v-5m-.1-1.5h-1.6m39.5 0h-1.2m9.1 0h-1.5m0-1.2h-6.4m-37.9-.9h-1.6m39.5 0h-1.2m9.1 0h-1.5m-38.1 3.6v5m25.7-25.9v-1.6m12.4 16.2h-6.4m-37.9-3.4h-1.6m39.5 0h-1.2m9.1 0h-1.5m-9.1-12.9v1.6m2.7 19.5v-8.2m.2 14.7v-5m1.4-20.9v-1.6m3.3-.1v1.6m1.4 21v5m.1-6.5v-8.2m-9.1-11.2h-3.3m10.9 0h-3.3m6.3 30.4V36.8m-10.6 3.7h-3.3m10.9 0h-3.3m6.3-3.7H49.9m45.7 26.4-.6-.6-.6-.4-.7-.3-.8-.2h-.7l-.8.2-.7.3-.7.4-.5.6m0 5 .5.5.7.5.7.3.8.1h.7l.8-.1.7-.3.6-.5.6-.5m-38-5-.6-.6-.6-.4-.7-.3-.8-.2h-.8l-.7.2-.7.3-.6.4-.6.6m0 5 .6.5.6.5.7.3.7.1h.8l.8-.1.7-.3.6-.5.6-.5m32.7-2.5v.6l.3.5.3.5.5.4.5.2.6.1.6-.1.6-.2.5-.4.3-.5.2-.5.1-.6-.1-.6-.2-.5-.3-.5-.5-.4-.6-.2-.6-.1-.6.1-.5.2-.5.4-.3.5-.3.5v.6zm-38 0v.6l.3.5.3.5.5.4.6.2.5.1.6-.1.6-.2.5-.4.3-.5.2-.5.1-.6-.1-.6-.2-.5-.3-.5-.5-.4-.6-.2-.6-.1-.5.1-.6.2-.5.4-.3.5-.3.5v.6zm34.3-25.1-.1-.5-.2-.5-.4-.3-.4-.3-.6-.1-.5.1-.5.3-.3.3-.3.5v.5m10.9 0-.1-.5-.2-.5-.4-.3-.5-.3-.5-.1-.5.1-.4.3-.4.3-.2.5-.1.5m-9.2 21.1h-1.2m1.2-2.1h-1.2m1.2-6.1h-1.2m1.4 14.7v-5m6.1 0v5m0-5-.6-.6-.6-.4-.7-.3-.8-.2h-.8l-.7.2-.7.3-.7.4-.5.6m0 5 .5.5.7.5.7.3.7.1h.8l.8-.1.7-.3.6-.5.6-.5m-5.4-2.5.1.6.2.5.4.5.5.4.5.2.6.1.6-.1.6-.2.4-.4.4-.5.2-.5.1-.6-.1-.6-.2-.5-.4-.5-.4-.4-.6-.2-.6-.1-.6.1-.5.2-.5.4-.4.5-.2.5-.1.6zm-8.5-4h-1.2m1.2-2.1h-1.2m-4.8-17.3v-1.6m6 12.8h-1.2m-1.5-12.9v1.6m2.9 26v-5m6.1 0v5m-9-25.9h-3.3m3.3-1.8h-3.3m12.3 22.7-.6-.6-.6-.4-.7-.3-.8-.2h-.8l-.7.2-.7.3-.6.4-.6.6m0 5 .6.5.6.5.7.3.7.1h.8l.8-.1.7-.3.6-.5.6-.5m-5.3-2.5v.6l.3.5.3.5.5.4.6.2.5.1.6-.1.6-.2.4-.4.4-.5.2-.5.1-.6-.1-.6-.2-.5-.4-.5-.4-.4-.6-.2-.6-.1-.5.1-.6.2-.5.4-.3.5-.3.5v.6zm-3.7-25.1-.1-.5-.2-.5-.4-.3-.4-.3-.5-.1-.6.1-.4.3-.4.3-.2.5-.1.5m-1.5 21.1h-1.2m1.2-2.1h-1.2m-4.9-17.3v-1.6m6.1 12.8h-1.2m-1.6-12.9v1.6m2.9 26v-5m6.1 0v5m-9-25.9h-3.4m3.4-1.8h-3.3m6.2 22.7.5-.6.7-.4.7-.3.8-.2h.8l.4.1.8.3.7.5.7.6m-6.1 5 .6.6.7.4.7.3.8.1h.9l.7-.2.5-.3.5-.3.7-.6m-2.3-4.7.5.3.4.4.3.4.3.6v1l-.3.6-.3.4-.4.4-.6.2-.6.2-.6-.1-.6-.2-.4-.4-.4-.5-.2-.5-.1-.7.1-.6.2-.5.4-.5.5-.4.6-.2.6-.1.6.2zm-6.7-22.9-.1-.5-.2-.5-.4-.3-.4-.3-.6-.1-.5.1-.4.3-.4.3-.3.5v.5m-1.6 21.1h-1.2m1.2-2.1h-1.2m-4.8-17.3v-1.6m6 12.8h-1.2m-1.5-12.9v1.6m2.9 26v-5m6.1 0v5m-9-25.9h-3.3m3.3-1.8h-3.3m12.3 22.7-.5-.6-.7-.4-.7-.3-.8-.2h-.7l-.8.2-.7.3-.7.4-.5.6m0 5 .5.5.7.5.7.3.8.1h.7l.8-.1.7-.3.7-.5.5-.5m-5.3-2.5v.6l.3.5.3.5.5.4.5.2.6.1.7-.1.5-.2.4-.4.4-.5.3-.5v-1.2l-.3-.5-.4-.5-.4-.4-.5-.2-.7-.1-.6.1-.5.2-.5.4-.3.5-.3.5v.6zm-3.7-25.1-.1-.5-.2-.5-.4-.3-.4-.3-.6-.1-.5.1-.4.3-.4.3-.2.5-.1.5m36.6 19.8v-6.6h6.1m-7.5 6.7h-6.4m6.4-3.6h-6.4m0 4.8v-8.2m6.4 8.2v-8.2m1.3.2h6.4m-6.3 6.7h6.1m-6.1-.5h6.1m0-6.1v6.5M89.5 58h6.1m-1.5-4.3h0m-4.6 4.1h6.1M89.5 56h6.1m-6.1-.2h6.1M91 53.7h0m-9.1 6.7v-6.6H88m-17.1 6.7h-4.4m6.4 0h-2m1.8-3.6h-6.2m6.4 0h-.3m-6 4.8v-8.2m6.3 3.1v-3.1m0 8.2v-5.2m1.2-2.8h6.4m-6.2 6.7h6.1m-6.1-.5h6.1m0-6.1v6.5M74.3 58h6.1m-1.6-4.3h0m-4.5 4.1h6.1M74.3 56h6.1m-6.1-.2h6.1m-4.6-2.1h0m-1.5.1h6m-6 0v6.5m6.2.2h-6.4m6.4-3.6h-6.4m0 4.8v-8.2m6.4 8.2v-8.2m1.2.2h6.4m-6.2 6.7H88m-6.1-.5H88m0-6.1v6.5M81.9 58H88m-1.5-4.3h0m-4.6 4.1H88M81.9 56H88m-6.1-.2H88m-4.6-2.1h0m-16.7 6.7v-6.6h6.1m-7.5 6.7h-6.4m6.4-3.6h-6.4m0 4.8v-8.2m6.4 8.2v-8.2m1.3.2H73m-2.1 6.7h1.9m-6.1 0H71m.1-.5h1.7m-6.1 0h4.5m1.6-3.1v3.6m0-6.6v3M72 58h.7m-6 0h5.4m-.8-4.3h0m.9 4.1h.6m-6.1 0h5.5M66.7 56h6.1m-6.1-.2h6.1m-4.6-2.1h0m-9.1 6.7v-6.6h6.1m-7.5 6.7h-6.4m6.4-3.6h-6.4m.1 4.8v-8.2m6.3 8.2v-8.2m1.2.2h6.4m-6.2 6.7h6.1m-6.1-.5h6.1m0-6.1v6.5M59.1 58h6.1m-1.5-4.3h0m-4.6 4.1h6.1M59.1 56h6.1m-6.1-.2h6.1m-4.6-2.1h0m-9.1 6.7v-6.6h6.1m-6.2-.1h6.3m-6.2 6.7h6.1m-6.1-.5h6.1m0-6.1v6.6M51.5 58h6.1M56 53.7h0m-4.5 4.1h6.1M51.5 56h6.1m-6.1-.2h6.1M53 53.7h0m22.6-11.4v-1.7m3.3 0v1.7m0 0h-3.3m3.3-1.8h-3.3m3.3.1-.1-.5-.2-.5-.4-.3-.4-.3-.6-.1-.5.1-.5.3-.3.3-.3.5v.5" fill="none" stroke="#050000" stroke-linecap="round" stroke-linejoin="round" stroke-miterlimit="10" stroke-width=".237"/><text class="st12 st13" transform="translate(53.16 51)">1</text><text class="st12 st13" transform="translate(60.746 51)">2</text><text class="st12 st13" transform="translate(68.333 51)">3</text><text class="st12 st13" transform="translate(75.92 51)">4</text><text class="st12 st13" transform="translate(83.507 51)">5</text><text class="st12 st13" transform="translate(91.094 51)">6</text><text class="st12 st13" transform="translate(123.13 51.677)">Camera cable (sold separately)</text><text class="st12 st13" transform="translate(124.16 150.77)">Basler Camera Light controller</text><text class="st12 st13" x="64.299278" y="23.827" text-align="center" text-anchor="middle"><tspan x="64.299278" y="23.827">Terminal block connector</tspan><tspan x="64.299278" y="31.327">(included with the camera cable)</tspan></text><text class="st12 st13" transform="matrix(.95 0 0 1 28.91 33.984)"/><text class="st12 st13" transform="translate(252.47 35.867)">Camera</text><path class="st15" d="m100.9 54.1h3.4m-3.4 3.6h3.4m-3.4 3.6h3.4"/><path class="st16" d="m103.8 54h17.3v10.6h8.4"/><path class="st17" d="m103.8 57.7h16v8.2h9.7"/><path class="st18" d="m103.9 61.3h14.5v5.9h9.7"/><path class="st15" d="m100.9 78.1h3.4m-3.4-3.6h3.4m-3.4-3.7h3.4"/><path class="st16" d="M103.8 78.1h17.3V67.5h8.4"/><path class="st17" d="m103.8 74.4h16v-8.1h9.7"/><path class="st18" d="m103.9 70.9h14.5v-6h9.7"/><path class="st19" d="m211.3 69.9v-7.1 7.1z"/><path class="st20" d="m211.3 69.9v-7.2"/><path class="st19" d="M210.8 69.9h.5-.5z"/><path class="st20" d="M211.3 69.9h-.5"/><path class="st19" d="M210.8 62.7h.5-.5z"/><path class="st20" d="M211.3 62.7h-.5"/><path class="st19" d="m175.6 69.4v-6.2 6.2z"/><path class="st20" d="m175.6 69.4v-6.2"/><path class="st19" d="m200.6 72.2h5.1-5.1z"/><path class="st20" d="m205.7 72.2h-5.1"/><path class="st19" d="m200.6 60.4h5.1-5.1z"/><path class="st20" d="m205.7 60.4h-5.1"/><path class="st19" d="M210.8 71.6V60.9v10.7z"/><path class="st20" d="m210.8 60.9v10.7"/><path class="st19" d="m205.7 71.6h5.1-5.1z"/><path class="st20" d="m210.8 71.6h-5.1"/><path class="st19" d="m205.7 60.9h5.1-5.1z"/><text transform="matrix(.97 0 0 1 117.72 22.59)" enable-background="new"><tspan class="st12 st13" x="0" y="0">Insert the wires of the cable into the </tspan><tspan class="st12 st13" x="0" y="7.2">terminal block while pushing down the </tspan><tspan class="st12 st13" x="0" y="14.4">slits with a flat-head screwdriver.</tspan></text><path class="st20" d="m210.8 60.9h-5.1"/><path class="st19" d="M205.7 72.2V60.4v11.8z"/><path class="st20" d="m205.7 60.4v11.8"/><path class="st19" d="M200.6 72.2V60.4v11.8z"/><path class="st20" d="m200.6 60.4v11.8"/><path class="st19" d="M200.1 72.2V60.4v11.8z"/><path class="st20" d="m200.1 60.4v11.8"/><path class="st19" d="M198.6 72.2V60.4v11.8z"/><path class="st20" d="m198.6 60.4v11.8"/><path class="st19" d="m198.6 60.4h1.5-1.5z"/><path class="st20" d="m200.1 60.4h-1.5"/><path class="st19" d="m198.6 72.2h1.5-1.5z"/><path class="st20" d="m200.1 72.2h-1.5"/><path class="st19" d="M200.1 60.9h.5-.5z"/><path class="st20" d="M200.6 60.9h-.5"/><path class="st19" d="M200.1 71.6h.5-.5z"/><path class="st20" d="M200.6 71.6h-.5"/><path class="st19" d="M197.1 71.6V60.9v10.7z"/><path class="st20" d="m197.1 60.9v10.7"/><path class="st19" d="m197.1 60.9h1.5-1.5z"/><path class="st20" d="m198.6 60.9h-1.5"/><path class="st19" d="m197.1 71.6h1.5-1.5z"/><path class="st20" d="m198.6 71.6h-1.5"/><path class="st19" d="m195 70.9h2-2z"/><path class="st20" d="M197.1 70.9H195"/><path class="st19" d="m195 61.7h2-2z"/><path class="st20" d="M197.1 61.7H195"/><path class="st19" d="m195 71.3v-9.9 9.9z"/><path class="st20" d="m195 61.3v10"/><path class="st19" d="m186.9 71.6h6.1-6.1z"/><path class="st20" d="m193 71.6h-6.1"/><path class="st19" d="m186.9 60.9h6.1-6.1z"/><path class="st20" d="m193 60.9h-6.1"/><path class="st19" d="M186.9 71.6V60.9v10.7z"/><path class="st20" d="m186.9 60.9v10.7"/><path class="st19" d="M193 71.6V60.9v10.7z"/><path class="st20" d="m193 60.9v10.7"/><path class="st19" d="m195 61.3-2-.4 2 .4z"/><path class="st20" d="m193 60.9 2 .4"/><path class="st19" d="m193 71.6 2-.4-2 .4z"/><path class="st20" d="m193 71.6 2-.3"/><path class="st19" d="m186.9 61.4-10.8 1.3"/><path class="st20" d="m186.9 61.4-10.8 1.3"/><path class="st19" d="m176.1 69.9 10.8 1.2"/><path class="st20" d="m176.1 69.9 10.8 1.2"/><defs><path id="an" d="M8.6 15.5H273v140.1H8.6z"/></defs><clipPath id="am"><use xlink:href="#an"/></clipPath><path d="M176.1 62.7c-.3 0-.5.2-.5.5" clip-path="url(#am)" fill="#fff"/><defs><path id="al" d="M8.6 15.5H273v140.1H8.6z"/></defs><clipPath id="ak"><use xlink:href="#al"/></clipPath><path d="M176.1 62.7c-.3 0-.5.2-.5.5" clip-path="url(#ak)" fill="none" stroke="#040000" stroke-linecap="round" stroke-linejoin="round" stroke-miterlimit="10" stroke-width=".237"/><defs><path id="aj" d="M8.6 15.5H273v140.1H8.6z"/></defs><clipPath id="ai"><use xlink:href="#aj"/></clipPath><path d="M175.6 69.4c0 .3.2.5.5.5" clip-path="url(#ai)" fill="#fff"/><defs><path id="ah" d="M8.6 15.5H273v140.1H8.6z"/></defs><clipPath id="ag"><use xlink:href="#ah"/></clipPath><path d="M175.6 69.4c0 .3.2.5.5.5" clip-path="url(#ag)" fill="none" stroke="#040000" stroke-linecap="round" stroke-linejoin="round" stroke-miterlimit="10" stroke-width=".237"/><path class="st19" d="M175.6 63.9h-52.2l-.1 4.7h52.3"/><path class="st20" d="M175.6 63.9h-52.2l-.1 4.7h52.3"/><path class="st19" d="M205.1 72.2V60.4v11.8z"/><path class="st20" d="m205.1 60.4v11.8"/><path class="st19" d="M204.5 72.2V60.4v11.8z"/><path class="st20" d="m204.5 60.4v11.8"/><path class="st19" d="M203.8 72.2V60.4v11.8z"/><path class="st20" d="m203.8 60.4v11.8"/><path class="st19" d="M203.2 72.2V60.4v11.8z"/><path class="st20" d="m203.2 60.4v11.8"/><path class="st19" d="M202.5 72.2V60.4v11.8z"/><path class="st20" d="m202.5 60.4v11.8"/><path class="st19" d="M201.9 72.2V60.4v11.8z"/><path class="st20" d="m201.9 60.4v11.8"/><path class="st19" d="M201.3 72.2V60.4v11.8z"/><path class="st20" d="m201.3 60.4v11.8"/><path class="st19" d="m200.6 66.8h5.1-5.1z"/><path class="st20" d="m205.7 66.8h-5.1"/><path class="st19" d="m200.6 65.8h5.1-5.1z"/><path class="st20" d="m205.7 65.8h-5.1"/><path class="st19" d="m200.6 64.8h5.1-5.1z"/><path class="st20" d="m205.7 64.8h-5.1"/><path class="st19" d="m200.6 63.7h5.1-5.1z"/><path class="st20" d="m205.7 63.7h-5.1"/><path class="st19" d="m200.6 62.7h5.1-5.1z"/><path class="st20" d="m205.7 62.7h-5.1"/><path class="st19" d="m200.6 61.7h5.1-5.1z"/><path class="st20" d="m205.7 61.7h-5.1"/><path class="st19" d="m200.6 60.7h5.1-5.1z"/><path class="st20" d="m205.7 60.7h-5.1"/><path class="st19" d="m200.6 67.8h5.1-5.1z"/><path class="st20" d="m205.7 67.8h-5.1"/><path class="st19" d="m200.6 68.8h5.1-5.1z"/><path class="st20" d="m205.7 68.8h-5.1"/><path class="st19" d="m200.6 69.9h5.1-5.1z"/><path class="st20" d="m205.7 69.9h-5.1"/><path class="st19" d="m200.6 70.9h5.1-5.1z"/><path class="st20" d="m205.7 70.9h-5.1"/><path class="st19" d="m200.6 71.9h5.1-5.1z"/><path class="st20" d="m205.7 71.9h-5.1"/><path class="st19" d="M199.4 72.2V60.4v11.8z"/><path class="st20" d="m199.4 60.4v11.8"/><path class="st19" d="m198.6 60.7h1.5-1.5z"/><path class="st20" d="m200.1 60.7h-1.5"/><path class="st19" d="m198.6 61.7h1.5-1.5z"/><path class="st20" d="m200.1 61.7h-1.5"/><path class="st19" d="m198.6 62.7h1.5-1.5z"/><path class="st20" d="m200.1 62.7h-1.5"/><path class="st19" d="m198.6 63.7h1.5-1.5z"/><path class="st20" d="m200.1 63.7h-1.5"/><path class="st19" d="m198.6 64.8h1.5-1.5z"/><path class="st20" d="m200.1 64.8h-1.5"/><path class="st19" d="m198.6 65.8h1.5-1.5z"/><path class="st20" d="m200.1 65.8h-1.5"/><path class="st19" d="m198.6 71.9h1.5-1.5z"/><path class="st20" d="m200.1 71.9h-1.5"/><path class="st19" d="m198.6 70.9h1.5-1.5z"/><path class="st20" d="m200.1 70.9h-1.5"/><path class="st19" d="m198.6 69.9h1.5-1.5z"/><path class="st20" d="m200.1 69.9h-1.5"/><path class="st19" d="m198.6 68.8h1.5-1.5z"/><path class="st20" d="m200.1 68.8h-1.5"/><path class="st19" d="m198.6 67.8h1.5-1.5z"/><path class="st20" d="m200.1 67.8h-1.5"/><path class="st19" d="m198.6 66.8h1.5-1.5z"/><path class="st20" d="m200.1 66.8h-1.5"/><path d="m94 56.7 21.7-21.3" fill="none" stroke="#000" stroke-miterlimit="10" stroke-width=".474"/><defs><path id="af" d="M8.6 15.5H273v140.1H8.6z"/></defs><clipPath id="ad"><use xlink:href="#af"/></clipPath><path d="M239.3 48.3s.8.2.8.9l-.2 26.4s-.3.6-1 .5l-23.7-4.4s-.4-.3-.4-.6l.1-26.1s0-.1.1-.1l24.3 3.4z" clip-path="url(#ad)" fill="none" stroke="#000" stroke-miterlimit="10" stroke-width=".237"/><defs><path id="ac" d="M8.6 15.5H273v140.1H8.6z"/></defs><clipPath id="ab"><use xlink:href="#ac"/></clipPath><path d="m214.8 44.8 3.5-.5 24.1 3.5s.5.3.4.9l-.4 26.7s0 .2-.3.3l-3.2.4" clip-path="url(#ab)" fill="none" stroke="#000" stroke-miterlimit="10" stroke-width=".237"/><defs><path id="aa" d="M8.6 15.5H273v140.1H8.6z"/></defs><clipPath id="z"><use xlink:href="#aa"/></clipPath><path d="m218.6 44.3 23-3.1 22.5 3.3s.4.4.4.8l-.9 25.7-21.3 4.7" clip-path="url(#z)" fill="none" stroke="#000" stroke-miterlimit="10" stroke-width=".237"/><defs><path id="y" d="M8.6 15.5H273v140.1H8.6z"/></defs><clipPath id="x"><use xlink:href="#y"/></clipPath><path d="m241.7 41.2 4-.4L268 44s.3.2.3.8l-.6 25.3s0 .2-.1.2l-3.8.8m0-5.3c-.2 0-21.3 4.2-21.3 4.2m25.6-20.8s3.2 5.4-.3 12.9" clip-path="url(#x)" fill="none" stroke="#000" stroke-miterlimit="10" stroke-width=".237"/><path class="st31" d="M268.2 44.7 240 49.2m27.9-5.3-28.6 4.4m-10.2.3-2.7-.4v.8l-.8-.1v1.2l-1.7-.2v7.3l7.8 1.3.1-7.4-1.8-.3v-1.2l-1-.2.1-.8z"/><path class="st31" d="m222.9 58.2 9.7 1.5.3-10.8-10-1.4v10.7z"/><defs><path id="w" d="M8.6 15.5H273v140.1H8.6z"/></defs><clipPath id="v"><use xlink:href="#w"/></clipPath><path d="m215.7 66.7c0.2 2 1.4 3.5 2.8 3.4s2.4-1.8 2.2-3.7c-0.2-2-1.4-3.5-2.8-3.4-1.4 0-2.4 1.7-2.2 3.7z" clip-path="url(#v)" fill="none" stroke="#000" stroke-miterlimit="10" stroke-width=".237"/><defs><path id="u" d="M8.6 15.5H273v140.1H8.6z"/></defs><clipPath id="s"><use xlink:href="#u"/></clipPath><path d="m215.5 66.7c0.2 2.1 1.5 3.7 3 3.6s2.6-1.9 2.4-4-1.5-3.7-3-3.6c-1.6 0.1-2.6 1.9-2.4 4z" clip-path="url(#s)" fill="none" stroke="#000" stroke-miterlimit="10" stroke-width=".237"/><defs><path id="r" d="M8.6 15.5H273v140.1H8.6z"/></defs><clipPath id="q"><use xlink:href="#r"/></clipPath><path d="m217.7 62.7 3.7-.5c1.6.4 2.5 1.6 2.7 3.4.2 1.8-.6 3.5-2.3 4.1l-3.1.4m2.2-16.8c0 .6.2 1.2.6 1.2.4 0 .7-.5.7-1.1s-.3-1.2-.6-1.2c-.4-.1-.7.5-.7 1.1zm12.5 2c0 .6.3 1.2.7 1.2s.8-.5.8-1.1-.3-1.2-.7-1.2-.8.5-.8 1.1z" clip-path="url(#q)" fill="none" stroke="#000" stroke-miterlimit="10" stroke-width=".237"/><defs><path id="p" d="M8.6 15.5H273v140.1H8.6z"/></defs><clipPath id="o"><use xlink:href="#p"/></clipPath><path d="M219.3 70.1c.6.4 1.4.7 2.1.7 2.2 0 4-2.1 3.9-4.9-.1-2.7-1.9-4.8-4.1-4.7-1 0-2.1.6-2.8 1.4" clip-path="url(#o)" fill="none" stroke="#000" stroke-miterlimit="10" stroke-width=".237"/><defs><path id="n" d="M8.6 15.5H273v140.1H8.6z"/></defs><clipPath id="m"><use xlink:href="#n"/></clipPath><path d="M219.2 70.2c.7.5 1.6.9 2.5.9 2.4 0 4.3-2.3 4.2-5.2-.1-2.8-2-5.1-4.4-5-1.3 0-2.5.8-3.2 1.9" clip-path="url(#m)" fill="none" stroke="#000" stroke-miterlimit="10" stroke-width=".237"/><path class="st31" d="m223.9 57.2 7.8-2m-6.1-5.1 3.6-.7m-2.8-.4 2.3-.4"/><text class="st19 st12 st13" transform="translate(204.52 57.884)" rotate="0 0" font-size="4px">1</text><defs><path id="l" d="M8.6 15.5H273v140.1H8.6z"/></defs><clipPath id="k"><use xlink:href="#l"/></clipPath><path d="M111.3 52.2h-4.1c-.3 0-.5-.2-.5-.5v-4.1c0-.3.2-.5.5-.5h4.1c.3 0 .5.2.5.5v4.1c0 .3-.3.5-.5.5" clip-path="url(#k)"/><text class="st19 st12 st13" transform="translate(107.91 51.09)" font-size="4px">2</text><defs><path id="j" d="M8.6 15.5H273v140.1H8.6z"/></defs><clipPath id="h"><use xlink:href="#j"/></clipPath><path d="M94 91h-4.1c-.3 0-.5-.2-.5-.5v-4.1c0-.3.2-.5.5-.5H94c.3 0 .5.2.5.5v4.1c.1.2-.2.5-.5.5" clip-path="url(#h)"/><text class="st19 st12 st13" transform="translate(90.686,89.838)" font-size="4px">3</text><defs><path id="g" d="M8.6 15.5H273v140.1H8.6z"/></defs><clipPath id="f"><use xlink:href="#g"/></clipPath><path d="M88.7 123.8h-4.1c-.3 0-.5-.2-.5-.5v-4.1c0-.3.2-.5.5-.5h4.1c.3 0 .5.2.5.5v4.1c.1.3-.2.5-.5.5" clip-path="url(#f)"/><text class="st19 st12 st13" transform="translate(85.393 122.66)" font-size="4px">4</text><g fill="none" stroke-linecap="round" stroke-linejoin="round" stroke-miterlimit="10"><path d="m84.8 71.2v4.1m-7.6-4.2v4.1" stroke="#000" stroke-width=".948"/><path d="m84.8 75.4.2 14.4H48.8" stroke="#898989" stroke-width="2.37"/><path d="m77.3 75.4.2 4.8H49.2" stroke="#595757" stroke-width="2.37"/></g><text class="st12 st13" transform="translate(2.85 91.14)">GND (DC input)</text></svg>
