<svg version="1.1" id="Ebene_1" xmlns="http://www.w3.org/2000/svg" x="0" y="0" viewBox="0 0 404.5 457.6" style="enable-background:new 0 0 404.5 457.6;background-color:#fff" xml:space="preserve"><style>.st1{fill:#f6f6f6}.st2{fill:none;stroke:#1a171b;stroke-width:.6;stroke-linecap:round;stroke-linejoin:round;stroke-miterlimit:10}.st3{font-family:Helvetica,Arial,sans-serif}.st4{font-size:17.0079px}.st5,.st6{stroke-width:.3}.st5,.st6,.st8{fill:none;stroke:#000;stroke-linecap:round;stroke-linejoin:round}.st6,.st8{stroke-miterlimit:10}.st8{stroke-width:.228}</style><path class="st1" d="M311.2 321.7h-43.1l-1.8 1.6v36.4l-1.7 1.7h-18.4l-1.5-1.7-.2-21.6s0-2.6-2.6-2.6-2.8 2.6-2.8 2.6v21.6l-1.5 1.7h-30.3l-2.2-1.7v-31.4s.3-5.3-5.4-5.3c-5.2 0-5.3 5-5.3 5v18s0 1.7-1.2 1.7h-21.4s-1.7-.2-1.7-1.7v-21.6s.1-1.8-1.3-1.8h-51.4s-1.6-.2-1.6 1.4v22.2s.1 1.2-1.1 1.2H71.4V228.6h239.8v93.1z"/><path class="st2" d="M311.2 321.7h-43.1l-1.8 1.6v36.4l-1.7 1.7h-18.4l-1.5-1.7-.2-21.6s0-2.6-2.6-2.6-2.8 2.6-2.8 2.6v21.6l-1.5 1.7h-30.3l-2.2-1.7v-31.4s.3-5.3-5.4-5.3c-5.2 0-5.3 5-5.3 5v18s0 1.7-1.2 1.7h-21.4s-1.7-.2-1.7-1.7v-21.6s.1-1.8-1.3-1.8h-51.4s-1.6-.2-1.6 1.4v22.2s.1 1.2-1.1 1.2H71.4V228.6h239.8v93.1z"/><path class="st1" d="M71.8 270.6h46.6v49.3H71.8"/><path class="st2" d="M71.8 270.6h46.6v49.3H71.8"/><path d="M186.6 333.4h.5c0-2.8-2.3-5.1-5.1-5.1s-5.1 2.3-5.1 5.1h.5c0-2.6 2.1-4.6 4.6-4.6s4.6 2.1 4.6 4.6m-9.3 0h-.5c0 2.8 2.3 5.1 5.1 5.1s5.1-2.3 5.1-5.1h-.5c0 2.6-2.1 4.6-4.6 4.6-2.5.1-4.6-2-4.6-4.6"/><path class="st2" d="m72 180.6-.1-.3-.1.3h.2zm-.1-.3-.1-.1v.4l.1-.3zm-.1-.1-.3.1.3.3v-.4zm-.3.1v.3h.3l-.3-.3zm0 .3v.1l.3-.1h-.3zm0 .1.3.1v-.2l-.3.1zm.3.1.1-.1-.1-.1v.2z"/><path class="st2" d="m71.9 180.7.1-.1h-.2l.1.1zM66 345.3h4.6M28 46.6V44m.1 3.2h1.8m-1.9-.6h34.8m-34.7 0v.6m1.8 0 1.1-.6"/><path class="st1" d="m62.8 46.6.4.3.2.3v343.2-.2l-1.2 13.9h2.7l1.1-13.7v-53.1h4.6l.7-.3.6-.6.1-.7V70.6l-.1-.7-.6-.6-.7-.1H66V45.4l-.1-.7-.6-.5-.7-.2H28"/><path class="st2" d="m62.8 46.6.4.3.2.3v343.2-.2l-1.2 13.9h2.7l1.1-13.7v-53.1h4.6l.7-.3.6-.6.1-.7V70.6l-.1-.7-.6-.6-.7-.1H66V45.4l-.1-.7-.6-.5-.7-.2H28"/><text transform="translate(185.883 198.163)" class="st3 st4">80</text><text transform="rotate(-90 125.232 110.636)" class="st3 st4">120</text><text transform="rotate(-90 326.648 -15.83)" class="st3 st4">44.3</text><path class="st5" d="M80 203.6h223.5"/><path d="m81.8 206.2-9.8-2.6 9.8-2.6v5.2zm219.9 0 9.7-2.6-9.7-2.6v5.2z"/><text transform="translate(123.48 452.04)" class="st3 st4">46.1</text><path class="st5" d="M74 434h123.2"/><path d="M75.8 436.6 66 434l9.8-2.7v5.3zm119.6 0 9.7-2.6-9.7-2.7v5.3z"/><path class="st5" d="M22 395.7V51.5"/><path d="m24.6 393.9-2.6 9.7-2.7-9.7h5.3zm0-340.6L22 43.5l-2.7 9.8h5.3z"/><path class="st5" d="M323.4 353V236.7"/><path d="m326 351.2-2.6 9.8-2.6-9.8h5.2zm0-112.7-2.6-9.8-2.6 9.8h5.2z"/><path class="st6" d="M205.1 437.2v-83.3M66 441.6v-84.5"/><path d="M340.1 228.7H311m29.1 132.6h-73.8" style="fill:none;stroke:#000;stroke-width:.292;stroke-linecap:round;stroke-linejoin:round;stroke-miterlimit:10"/><path class="st8" d="M64.9 404.1H7.7"/><path d="M64.9 44H7.7" style="fill:none;stroke:#000;stroke-width:.274;stroke-linecap:round;stroke-linejoin:round;stroke-miterlimit:10"/><text transform="translate(158.713 14.596)" class="st3 st4">94.2</text><path d="M33 19.7h271.1" style="fill:none;stroke:#000;stroke-width:.228;stroke-linecap:round;stroke-linejoin:round"/><path d="m37.6 22.3-9.7-2.6 9.7-2.6v5.2zm264.1 0 9.7-2.6-9.7-2.6v5.2z"/><path class="st6" d="M27.4 45.2V13.6"/><path class="st8" d="M310.8 228.7V8.7"/><path d="M208 353.8v-.1m0 .1v-.1m25 .1v-.1m0 .1v-.1m-1-5.7h1.9v11.5H232V348h0zm34 5.8v-.1m0 .1v-.1m-6 .1v-.1m0 .1v-.1m-1-5.7h1.9v11.5H259V348h0zm-8 5.8v-.1m0 .1v-.1m-1-5.7h1.9v11.5H250V348h0zm7 5.8v-.1m0 .1v-.1m-1-5.7h1.9v11.5H256V348h0zm-29 5.8v-.1m0 .1v-.1m-1-5.7h1.9v11.5H226V348h0zm28 5.8v-.1m0 .1v-.1m-1-5.7h1.9v11.5H253V348h0zm-35 5.8v-.1m0 .1v-.1m-1-5.7h1.9v11.5H217V348h0zm31 5.8v-.1m0 .1v-.1m-1-5.7h1.9v11.5H247V348h0zm-11 5.8v-.1m0 .1v-.1m-1-5.7h1.9v11.5H235V348h0zm-5 5.8v-.1m0 .1v-.1m-1-5.7h1.9v11.5H229V348h0zm10 5.8v-.1m-24 .1v-.1m0 .1v-.1m-1-5.7h1.9v11.5H214V348h0zm-2 5.8v-.1m0 .1v-.1m-1-5.7h1.9v11.5H211V348h0zm13 5.8v-.1m0 .1v-.1m-1-5.7h1.9v11.5H223V348h0zm-15 0h1.9v11.5H208V348h0zm13 5.8v-.1m0 .1v-.1m-1-5.7h1.9v11.5H220V348h0zm43 5v-.2m0 .2v-.2m-1-4.6h1.9v9.5H262v-9.5zm-2 5.6v-.1m0 .1v-.1m3 .1v-.1m0 .1v-.1m-6 .1v-.1m0 .1v-.1m-9 .1v-.1m0 .1v-.1m-30 .1v-.1m0 .1v-.1m18 .1v-.1m0 .1v-.1m-3 .1v-.1m0 .1v-.1m21 .1v-.1m0 .1v-.1m-39 .1v-.1m0 .1v-.1m36 .1v-.1m0 .1v-.1m-24 .1v-.1m0 .1v-.1m-15 .1v-.1m0 .1v-.1m18 .1v-.1m0 .1v-.1m-9 .1v-.1m0 .1v-.1m3 .1v-.1m0 .1v-.1m-16-.7v-.2m0 .2v-.2" style="fill:none;stroke:#000;stroke-width:.1;stroke-linecap:round;stroke-linejoin:round;stroke-miterlimit:10"/><text transform="translate(265.37 425.283)" class="st3 st4">Not to scale</text><text transform="translate(264.67 447.684)" class="st3 st4">Dimensions in mm</text></svg>