<svg version="1.1" id="Ebene_1" xmlns="http://www.w3.org/2000/svg" xmlns:xlink="http://www.w3.org/1999/xlink" x="0" y="0" viewBox="0 0 359.5 204.3" style="enable-background:new 0 0 359.5 204.3;background-color:#fff" xml:space="preserve"><style>.st0{fill:none;stroke:#d9d9d9;stroke-width:.75;stroke-linejoin:round;stroke-miterlimit:10}.st3{fill:#595959}.st4{font-family:Helvetica,Arial,sans-serif}.st5{font-size:9px}.st6{font-family:&apos;Calibri&apos;}.st7{font-size:9.96px}</style><path class="st0" d="M50.1 11.4h291.1M50.1 26.3h291.1M50.1 41.2h291.1M50.1 56.1h291.1M50.1 70.9h291.1M50.1 85.8h291.1M50.1 100.7h291.1M50.1 115.6h291.1M50.1 130.5h291.1M50.1 145.3h291.1m0-133.9v148.9M308.9 11.4v148.9M276.5 11.4v148.9M244.2 11.4v148.9M211.8 11.4v148.9M179.5 11.4v148.9M147.1 11.4v148.9M114.9 11.4v148.9M82.5 11.4v148.9"/><path d="M50.1 160.2V11.4m0 148.8h291.1" style="stroke:#bfbfbf;fill:none;stroke-width:.75;stroke-linejoin:round;stroke-miterlimit:10"/><defs><path id="SVGID_1_" d="M50.1 11.3h291.8v149.6H50.1z"/></defs><clipPath id="SVGID_00000120551260619962725610000016989293660746419333_"><use xlink:href="#SVGID_1_" style="overflow:visible"/></clipPath><path style="clip-path:url(#SVGID_00000120551260619962725610000016989293660746419333_);fill:none;stroke:#5c9bd4;stroke-width:1.5;stroke-linecap:round;stroke-linejoin:round;stroke-miterlimit:10" d="m50.1 78.7.3-.6c.1-.2.2-.5.3-.8.1-.3.2-.6.3-1 .1-.3.2-.7.3-1.1l.3-1.2.3-1.2c.1-.4.2-.8.3-1.1.1-.4.2-.8.3-1.1.1-.4.2-.7.3-1.1s.2-.7.3-1l.3-.9.3-.9.3-.9c.1-.3.2-.5.3-.8.1-.3.2-.6.3-.8.1-.3.2-.5.3-.7.1-.2.2-.4.3-.7.1-.2.2-.4.3-.7.1-.2.2-.4.3-.7l.3-.6.3-.6c.1-.2.2-.4.3-.7l.3-.6.3-.6.3-.6.3-.6.3-.6.3-.6.3-.3c.1-.1.2-.3.3-.4.1-.1.2-.3.3-.5.1-.2.2-.3.3-.4l.3-.3.3-.3c.1-.1.2-.2.3-.2.1-.1.2-.1.3-.2.1-.1.2-.3.3-.4l.3-.3.3-.3c.1-.1.2-.1.3-.2.1-.1.2-.2.3-.2l.3-.3c.1-.1.2-.1.3-.2l.3-.3c.1-.1.2-.2.3-.2.1-.1.2-.1.3-.2.1-.1.2-.1.3-.2s.2-.2.3-.2c.1-.1.2-.1.3-.2.1 0 .2-.1.3-.1.1 0 .2-.1.3-.2.1-.1.2-.1.3-.1.1 0 .2-.1.3-.2.1-.1.2-.2.3-.2.1-.1.2-.1.3-.2.1-.1.2-.1.3-.1.1 0 .2-.1.3-.2.1-.1.2-.1.3-.2.1-.1.2-.1.3-.1.1-.1.2-.1.3-.2s.2-.1.3-.1c.1 0 .2 0 .3-.1.1 0 .2 0 .3-.1.1 0 .2-.1.3-.1.1 0 .2-.1.3-.1.1 0 .2-.1.3-.1s.2-.1.3-.1.2-.1.3-.1c.1 0 .2-.1.3-.1.1-.1.2-.1.3-.2.1-.1.2-.1.3-.2.1 0 .2-.1.3-.1.1 0 .2-.1.3-.1.1 0 .2-.1.3-.1.1 0 .2-.1.3-.1.1 0 .2-.1.3-.1.1 0 .2-.1.3-.1.1 0 .2-.1.3-.1s.2-.1.3-.1c.1 0 .2-.1.3-.1.1 0 .2-.1.3-.1.1 0 .2-.1.3-.1.1 0 .2-.1.3-.1.1 0 .2-.1.3-.1.1 0 .2-.1.3-.1s.2 0 .3-.1c.1 0 .2-.1.3-.1.1 0 .2-.1.3-.1.1 0 .2-.1.3-.1.1 0 .2-.1.3-.1.1 0 .2-.1.3-.1s.2-.1.3-.1c.1 0 .2-.1.3-.1.1 0 .2-.1.3-.1.1 0 .2-.1.3-.2s.2-.1.3-.1c.1 0 .2-.1.3-.2.1-.1.2-.1.3-.2s.2-.1.3-.2c.1 0 .2-.1.3-.2.1 0 .2-.1.3-.1.1 0 .2-.1.3-.1.1 0 .2-.1.3-.1.1 0 .2-.1.3-.1.1 0 .2-.1.3-.1.1 0 .2 0 .3-.1.1 0 .2-.1.3-.1.1 0 .2-.1.3-.1.1 0 .2-.1.3-.1s.2-.1.3-.1c.1 0 .2-.1.3-.1.1 0 .2-.1.3-.1.1 0 .2-.1.3-.1.1-.1.2-.1.3-.2.1-.1.2-.1.3-.2.1-.1.2-.1.3-.2.1-.1.2-.1.3-.2.1 0 .2-.1.3-.1.1 0 .2-.1.3-.2.1 0 .2-.1.3-.1.1 0 .2-.1.3-.1.1 0 .2-.1.3-.1s.2-.1.3-.1c.1 0 .2-.1.3-.1.1 0 .2-.1.3-.1.1 0 .2-.1.3-.1.1 0 .2-.1.3-.1.1 0 .2 0 .3-.1.1 0 .2-.1.3-.1s.2-.1.3-.1c.1 0 .2-.1.3-.1.1 0 .2-.1.3-.1.1 0 .2-.1.3-.1.1 0 .2-.1.3-.1.1 0 .2 0 .3-.1.1 0 .2-.1.3-.1s.2-.1.3-.1c.1 0 .2-.1.3-.1.1 0 .2-.1.3-.1.1 0 .2-.1.3-.1s.2-.1.3-.1c.1 0 .2-.1.3-.1.1 0 .2-.1.3-.2.1-.1.2-.1.3-.2.1-.1.2-.1.3-.2s.2-.1.3-.1c.1 0 .2-.1.3-.1.1 0 .2-.1.3-.1.1 0 .2-.1.3-.1.1 0 .2-.1.3-.1h.9c.1 0 .2-.1.3-.1.1 0 .2 0 .3-.1.1 0 .2 0 .3-.1.1 0 .2 0 .3-.1.1 0 .2 0 .3-.1s.2-.1.3-.1c.1 0 .2-.1.3-.1s.2-.1.3-.1c.1 0 .2 0 .3-.1.1 0 .2-.1.3-.1.1 0 .2 0 .3-.1.1 0 .2-.1.3-.1.1 0 .2-.1.3-.1.1 0 .2-.1.3-.1.1 0 .2-.1.3-.1.1 0 .2-.1.3-.1h.6c.1 0 .2 0 .3-.1.1 0 .2-.1.3-.1.1 0 .2 0 .3-.1.1 0 .2 0 .3-.1.1 0 .2 0 .3-.1.1 0 .2 0 .3-.1.1 0 .2-.1.3-.2.1 0 .2-.1.3-.1.1 0 .2 0 .3-.1.1 0 .2-.1.3-.1.1 0 .2-.1.3-.1.1 0 .2 0 .3-.1.1 0 .2-.1.3-.1.1 0 .2 0 .3-.1h.3c.1 0 .2-.1.3-.1.1 0 .2 0 .3-.1h.3c.1 0 .2 0 .3-.1h.9c.1 0 .2 0 .3-.1h.3c.1 0 .2 0 .3-.1s.2 0 .3 0h.9c.1 0 .2 0 .3-.1h1.5c.1 0 .2 0 .3-.1h.6c.1 0 .2 0 .3-.1.1 0 .2-.1.3-.1.1 0 .2-.1.3-.1.1 0 .2 0 .3-.1h.6c.1 0 .2 0 .3-.1.1 0 .2-.1.3-.1.1 0 .2-.1.3-.1.1 0 .2 0 .3-.1h.6c.1 0 .2 0 .3-.1s.2 0 .3-.1h1.2c.1 0 .2-.1.3-.1h2.1c.1 0 .2 0 .3-.1h.6c.1 0 .2 0 .3-.1.1 0 .2 0 .3-.1h.6c.1 0 .2 0 .3-.1h.9c.1 0 .2 0 .3-.1h.6c.1 0 .2 0 .3-.1h.6c.1 0 .2-.1.3-.1s.2-.1.3-.1h.6c.1 0 .2 0 .3-.1h.3c.1 0 .2 0 .3-.1h.6c.1 0 .2 0 .3-.1h.3c.1 0 .2-.1.3-.1h2.7c.1 0 .2 0 .3-.1h.6c.1 0 .2-.1.3-.1.1 0 .2-.1.3-.1h.6c.1 0 .2 0 .3-.1h3c.1 0 .2 0 .3-.1h.9c.1 0 .2 0 .3-.1s.2-.1.3-.1c.1 0 .2 0 .3-.1s.2-.1.3-.1h.9c.1 0 .2-.1.3-.1h.6c.1 0 .2 0 .3.1h3.9c.1 0 .2-.1.3-.1.1 0 .2 0 .3-.1h1.2c.1 0 .2-.1.3-.1h10.5c.1 0 .2-.1.3-.1h1.2c.1 0 .2 0 .3-.1h.3c.1 0 .2 0 .3.1h11.4c.1 0 .2 0 .3.1h1.8c.1 0 .2.1.3.1h1.5c.1 0 .2-.1.3-.1.1 0 .2 0 .3-.1s.2-.1.3-.1h.9c.1 0 .2 0 .3-.1h.9c.1 0 .2 0 .3.1s.2 0 .3 0h6.3c.1 0 .2-.1.3-.1h2.7c.1 0 .2 0 .3-.1.1 0 .2-.1.3-.1h1.5c.1 0 .2-.1.3-.1h3.9c.1 0 .2 0 .3-.1s.2 0 .3-.1h5.4c.1 0 .2.1.3.1h2.1c.1 0 .2-.1.3-.1h.9c.1 0 .2 0 .3-.1h.3c.1 0 .2 0 .3-.1h.6c.1 0 .2 0 .3-.1h.6c.1 0 .2 0 .3-.1.1 0 .2-.1.3-.1h.3c.1 0 .2.1.3.1h1.2c.1 0 .2 0 .3.1.1 0 .2.1.3.1h.9c.1 0 .2 0 .3.1h2.7c.1 0 .2 0 .3.1.1 0 .2.1.3.1s.2 0 .3.1h3.9c.1 0 .2 0 .3-.1.1 0 .2-.1.3-.1h1.5c.1 0 .2 0 .3.1.1 0 .2.1.3.1.1 0 .2.1.3.1h.3c.1 0 .2 0 .3.1.1 0 .2.1.3.1h.3c.1 0 .2.1.3.1.1 0 .2.1.3.1h.3c.1 0 .2 0 .3.1.1 0 .2 0 .3.1s.2 0 .3.1.2 0 .3 0c.1 0 .2.1.3.1h.6c.1 0 .2.1.3.1.1 0 .2.1.3.1.1 0 .2.1.3.1h.3c.1 0 .2 0 .3-.1h.6c.1 0 .2-.1.3-.1h.6c.1 0 .2 0 .3.1.1 0 .2.1.3.2.1.1.2.1.3.2.1 0 .2.1.3.1.1 0 .2.1.3.1.1 0 .2.1.3.1.1 0 .2.1.3.1.1 0 .2.1.3.1s.2 0 .3.1c.1 0 .2 0 .3.1s.2.1.3.1c.1 0 .2.1.3.1.1 0 .2 0 .3.1.1 0 .2.1.3.1.1 0 .2 0 .3.1.1 0 .2 0 .3.1.1 0 .2.1.3.2.1 0 .2.1.3.1.1 0 .2.1.3.1.1 0 .2.1.3.1h.3c.1 0 .2.1.3.1.1 0 .2.1.3.1s.2.1.3.1h.3c.1 0 .2 0 .3.1.1 0 .2.1.3.1.1 0 .2.1.3.1.1.1.2.2.3.2.1.1.2.1.3.2.1.1.2.1.3.2.1 0 .2.1.3.1s.2.1.3.1c.1.1.2.1.3.2.1 0 .2.1.3.1.1 0 .2.1.3.1.1 0 .2.1.3.1.1 0 .2.1.3.1.1 0 .2.1.3.1.1 0 .2.1.3.1.1 0 .2.1.3.1.1 0 .2.1.3.1.1 0 .2.1.3.1.1 0 .2.1.3.1.1 0 .2.1.3.1.1 0 .2.1.3.1.1 0 .2.1.3.1.1 0 .2.1.3.1s.2.1.3.1c.1 0 .2 0 .3.1.1 0 .2.1.3.1.1.1.2.1.3.2.1.1.2.1.3.1.1 0 .2.1.3.1.1 0 .2.1.3.1.1 0 .2.1.3.1.1 0 .2.1.3.2l.3.3c.1.1.2.1.3.2.1 0 .2.1.3.1.1 0 .2.1.3.2.1 0 .2.1.3.1.1 0 .2.1.3.1.1 0 .2.1.3.1.1 0 .2.1.3.1.1 0 .2.1.3.1.1 0 .2.1.3.1.1 0 .2.1.3.2s.2.1.3.2c.1.1.2.1.3.2.1.1.2.1.3.2l.3.3.3.3c.1.1.2.1.3.2.1.1.2.1.3.2s.2.1.3.2l.3.3c.1.1.2.1.3.2.1.1.2.2.3.2.1 0 .2 0 .3.1.1 0 .2.1.3.1.1.1.2.1.3.2.1 0 .2.1.3.1s.2.1.3.2.2.1.3.2c.1.1.2.1.3.2l.3.3.3.3.3.3.3.3.3.3c.1.1.2.2.3.2.1.1.2.1.3.2.1.1.2.1.3.2.1.1.2.1.3.2.1.1.2.1.3.2l.3.3c.1.1.2.1.3.2.1.1.2.1.3.2.1.1.2.1.3.2l.3.3c.1.1.2.2.3.2.1.1.2.2.3.2l.3.3c.1.1.2 0 .3.1l.3.3.3.3.3.3.3.3.3.3.3.3.3.3c.1.1.2.3.3.4l.3.3c.1.1.2.1.3.2s.2.2.3.2c.1.1.2.1.3.2l.3.3c.1.1.2.1.3.2l.3.3c.1.1.2.1.3.2s.2.1.3.2c.1.1.2.1.3.2s.2.3.3.4c.1.1.2.3.3.4l.3.3.3.3c.1.1.2.1.3.2l.3.3.3.3c.1.1.2.3.3.4l.3.3.3.3.3.3.3.3.3.3.3.3.3.3.3.3.3.3.3.3.3.3c.1.1.2.1.3.2l.3.3.3.3.3.3.3.3c.1.1.2.1.3.2l.3.3.3.3c.1.1.2.3.3.5.1.1.2.2.3.4.1.1.2.3.3.4.1.1.2.2.3.4l.3.3c.1.1.2.3.3.4.1.1.2.3.3.4s.2.2.3.4l.3.3c.1.1.2.2.3.2l.3.3.3.3.3.3.3.3c.1.1.2.1.3.2s.2.1.3.1c.1 0 .2 0 .3.1.1.1.2.2.3.2.1.1.2.2.3.2.1.1.2.1.3.2l.3.3c.1.1.2.1.3.2.1.1.2.2.3.4.1.1.2.3.3.4l.3.3.3.3c.1.1.2.3.3.4l.3.3.3.3c.1.1.2.3.3.4l.3.3.3.3c.1.1.2.3.3.4l.3.3c.1.1.2.1.3.2l.3.3c.1.1.2.3.3.4l.3.3.3.3.3.3.3.3.3.3c.1.1.2.2.3.4.1.1.2.3.3.4s.2.1.3.2c.1.1.2.3.3.4s.2.3.3.4l.3.3.3.3c.1.1.2.3.3.5l.3.3.3.3.3.3c.1.1.2.1.3.2l.3.3c.1.1.2.3.3.4l.3.3.3.3.3.3.3.3.3.3.3.3c.1.1.2.1.3.2.1.1.2.1.3.2.1.1.2.3.3.3.1.1.2.1.3.2l.3.3c.1.1.2.3.3.4l.3.3.3.3c.1.1.2.3.3.4.1.1.2.3.3.4.1.1.2.3.3.4l.3.3c.1.1.2.2.3.4l.3.3.3.3.3.3c.1.1.2.2.3.2.1.1.2.1.3.2s.2.1.3.2c.1.1.2.3.3.4.1.1.2.3.3.4l.3.3.3.3c.1.1.2.3.3.4s.2.3.3.4c.1.1.2.3.3.5l.3.3c.1.1.2.3.3.4l.3.3c.1.1.2.3.3.3.1.1.2.2.3.2.1.1.2.1.3.2l.3.3.3.3.3.3.3.3c.1.1.2.3.3.4l.3.3c.1.1.2.3.3.5l.3.3c.1.1.2.1.3.2l.3.3.3.3c.1.1.2.2.3.2l.3.3.3.3.3.3c.1.1.2.3.3.5.1.2.2.3.3.5l.3.3.3.3c.1.1.2.3.3.4.1.1.2.2.3.2.1.1.2.1.3.2s.2.3.3.4c.1.1.2.1.3.2l.3.3c.1.1.2.3.3.4l.3.3c.1.1.2.3.3.4.1.1.2.1.3.3.1.1.2.3.3.4s.2.1.3.1l.3.3c.1.1.2.2.3.2.1.1.2.1.3.2.1.1.2.1.3.2.1.1.2 0 .3.1.1.1.2.3.3.4.1.1.2.1.3.2.1.1.2.3.3.4.1.1.2.3.3.4.1.1.2.3.3.4s.2.3.3.4c.1.1.2.3.3.4.1.1.2.2.3.2.1.1.2.1.3.2l.3.3c.1.1.2.1.3.2l.3.3c.1.1.2.1.3.2.1.1.2.1.3.1s.2.1.3.2l.3.3c.1.1.2.1.3.2.1.1.2.1.3.1.1 0 .2-.1.3-.1.1 0 .2 0 .3.1.1 0 .2.1.3.1.1.1.2.1.3.2.1.1.2.1.3.2"/><text transform="translate(37.385 163.098)" class="st3 st4 st5">0</text><text transform="translate(32.381 148.212)"><tspan x="0" y="0" class="st3 st4 st5">1</tspan><tspan x="5" y="0" class="st3 st4 st5">0</tspan></text><text transform="translate(32.381 133.326)"><tspan x="0" y="0" class="st3 st4 st5">2</tspan><tspan x="5" y="0" class="st3 st4 st5">0</tspan></text><text transform="translate(32.381 118.44)"><tspan x="0" y="0" class="st3 st4 st5">3</tspan><tspan x="5" y="0" class="st3 st4 st5">0</tspan></text><text transform="translate(32.381 103.554)"><tspan x="0" y="0" class="st3 st4 st5">4</tspan><tspan x="5" y="0" class="st3 st4 st5">0</tspan></text><text transform="translate(32.381 88.668)"><tspan x="0" y="0" class="st3 st4 st5">5</tspan><tspan x="5" y="0" class="st3 st4 st5">0</tspan></text><text transform="translate(32.381 73.782)"><tspan x="0" y="0" class="st3 st4 st5">6</tspan><tspan x="5" y="0" class="st3 st4 st5">0</tspan></text><text transform="translate(32.381 58.896)"><tspan x="0" y="0" class="st3 st4 st5">7</tspan><tspan x="5" y="0" class="st3 st4 st5">0</tspan></text><text transform="translate(32.381 44.01)"><tspan x="0" y="0" class="st3 st4 st5">8</tspan><tspan x="5" y="0" class="st3 st4 st5">0</tspan></text><text transform="translate(32.381 29.124)"><tspan x="0" y="0" class="st3 st4 st5">9</tspan><tspan x="5" y="0" class="st3 st4 st5">0</tspan></text><text transform="translate(27.377 14.238)"><tspan x="0" y="0" class="st3 st4 st5">1</tspan><tspan x="5" y="0" class="st3 st4 st5">0</tspan><tspan x="10" y="0" class="st3 st4 st5">0</tspan></text><text transform="translate(43.29 174.456)" class="st3 st6 st5">400</text><text transform="translate(75.635 174.456)" class="st3 st6 st5">450</text><text transform="translate(107.981 174.456)" class="st3 st6 st5">500</text><text transform="translate(140.327 174.456)" class="st3 st6 st5">550</text><text transform="translate(172.673 174.456)" class="st3 st6 st5">600</text><text transform="translate(205.02 174.456)" class="st3 st6 st5">650</text><text transform="translate(237.366 174.456)" class="st3 st6 st5">700</text><text transform="translate(269.711 174.456)" class="st3 st6 st5">750</text><text transform="translate(302.057 174.456)" class="st3 st6 st5">800</text><text transform="translate(334.404 174.456)" class="st3 st6 st5">850</text><path class="st0" d="M.4.4h358.7v203.5H.4z"/><text transform="translate(142.059 189.65)" class="st4 st7">Wavelength [nm]</text><text transform="rotate(-89.968 74.559 58.68)" class="st4 st7">Transmittance [%]</text></svg>