<svg version="1.1" id="Ebene_1" xmlns="http://www.w3.org/2000/svg" xmlns:xlink="http://www.w3.org/1999/xlink" x="0" y="0" viewBox="0 0 1077.2 552.8" style="background-color:#fff" xml:space="preserve"><style>.st0{clip-path:url(#SVGID_2_);fill:none;stroke:#000;stroke-width:.425;stroke-linecap:round;stroke-linejoin:round}.st0,.st1{stroke-miterlimit:10}.st1,.st2,.st7,.st8{fill:none;stroke:#000;stroke-width:.283;stroke-linecap:round;stroke-linejoin:round}.st7{stroke-dasharray:.383,1.915}.st8{stroke-dasharray:5.746,1.915,.383,1.915}.st20{font-family:Helvetica,Arial,sans-serif}.st21{font-size:14.9998px}.st22{font-size:14.9996px}.st23{letter-spacing:-1}.st24{font-size:14.9997px}</style><defs><path id="SVGID_1_" d="M0 0h1077.2v552.8H0z"/></defs><clipPath id="SVGID_2_"><use xlink:href="#SVGID_1_" overflow="visible"/></clipPath><path class="st0" d="M964.7 114.8c0 .7.6 1.3 1.3 1.3.7 0 1.3-.6 1.3-1.3s-.6-1.3-1.3-1.3c-.8.1-1.3.6-1.3 1.3m-10.9 0c0 .7.6 1.3 1.3 1.3.7 0 1.3-.6 1.3-1.3 0-.7-.6-1.3-1.3-1.3-.7.1-1.3.6-1.3 1.3m9.1 6.6c0 .7.6 1.3 1.3 1.3.7 0 1.3-.6 1.3-1.3 0-.7-.6-1.3-1.3-1.3-.8 0-1.3.6-1.3 1.3m-6.9 0c0 .7.6 1.3 1.3 1.3.7 0 1.3-.6 1.3-1.3 0-.7-.6-1.3-1.3-1.3-.8 0-1.3.6-1.3 1.3"/><path class="st0" d="M960.5 106.7c-5.5 0-10 4.5-10 10s4.5 10 10 10 10-4.5 10-10c0-5.6-4.5-10-10-10"/><path class="st0" d="M973.4 116.7c0-7.1-5.8-12.9-12.9-12.9-7.1 0-12.9 5.8-12.9 12.9s5.8 12.9 12.9 12.9c7.1 0 12.9-5.8 12.9-12.9m-26.9-6.4v13.1m0 0c.4.9.9 1.7 1.5 2.5m0 0l11.2 6.6m0 0c1 .1 1.9.1 2.9 0m11.3-6.6l-11.3 6.6m11.3-6.6c.6-.8 1.1-1.8 1.5-2.7m0-12.9v12.9m0-12.9c-.4-.9-.9-1.7-1.5-2.5"/><path class="st0" d="M948 107.8l11.2-6.6h2.9l11.3 6.6m-25.4 0c-.6.8-1 1.6-1.5 2.5m-436.3-8.9h-4.9m0 6.5l-.3-3.2.3-3.3m0 6.5h5.2m0 2.5h-5.2v-2.5m0 15.5l-.3-6.6.3-6.4m0 13h5.2m-5.2 0v2.5h5.2m-5.2 6.4l-.3-3.2.3-3.2m0 6.4h4.9m-22.4-24.1v17.3m3.6-18.4v19.5m2.1-18.9v18.4m2.9-18.4v18.4m2-20.6V128m2.8-22.5V128m2.2-20.3v18.4m7.1-24.7h-5.2m5.2 30.9h-5.2m-17-24.6c-.3.1-.5.3-.5.6m0 17.2c0 .3.2.6.5.6m.1-18.4l3-.6m-3 19l3 .5h1.4m0-19.5h-1.4m2.1 19l-.7.5m.7-18.9l-.7-.6m3.6 19h-2.9m4.9-20.6l-2 2.2h-2.9m2.9 18.4l2 1.9h2.8m0-22.5h-2.8m5 20.6l-2.2 1.9m2.2-20.3l-2.2-2.2m3.1 2.2h-.9"/><path class="st0" d="M504.3 107.7c.3 0 .6-.3.6-.6l.1-2.4m-1.6 21.4h.9c.3 0 .6.3.6.6l.1 2.4M67.4 482.6h340.2M53.4 468.4c0 7.8 6.3 14.2 14.1 14.2M53.4 99.9v368.5m14-382.7c-7.8 0-14 6.5-14 14.3m368.5 0c0-7.8-6.4-14.3-14.2-14.3m-.1 0H67.4m170.2 159.2c-29.5 0-53.4 23.9-53.4 53.4s23.9 53.4 53.4 53.4 53.4-23.9 53.4-53.4-23.9-53.4-53.4-53.4"/><path class="st0" d="M237.6 247.2c-28.2 0-51 22.8-51 51s22.8 51 51 51 51-22.8 51-51c.1-28.1-22.8-51-51-51m184.3 221.2V99.9m-14.3 382.7c7.8 0 14.2-6.4 14.2-14.2M67.4 88.5c-6.2 0-11.3 5.1-11.3 11.3m0 .1v368.5m0 0c0 6.2 5.2 11.3 11.4 11.3m-.1 0h340.2m0 0c6.2 0 11.3-5.1 11.3-11.3m.1 0V99.9m0 .1c0-6.2-5.1-11.4-11.3-11.4m-.1-.1H67.4"/><path class="st0" d="M237.6 237.3c-33.7 0-60.9 27.3-60.9 60.9 0 33.7 27.3 60.9 60.9 60.9 33.6 0 60.9-27.3 60.9-60.9.1-33.6-27.2-60.9-60.9-60.9m307 231.1v14.2h-34m0-14.2h34m-34 0v14.2m34-382.7v368.5m0-368.5h-34m0 0v368.5m34-368.5V85.7h-34v14.2m492.7 382.7H663.1m340.3 0c7.8 0 14.1-6.3 14.1-14.1m0-368.6v368.5m0-368.4c0-7.8-6.3-14.1-14.1-14.1m-340.2-.2c-7.8 0-14.1 6.5-14.1 14.3m14.1-14.3h340.1m-170 161.5c-28.2 0-51 22.8-51 51s22.8 51 51 51 51-22.8 51-51c0-28.1-22.9-51-51-51M666 108.3c3.1 0 5.7-2.5 5.7-5.7 0-3.1-2.5-5.7-5.7-5.7-3.1 0-5.7 2.5-5.7 5.7.1 3.2 2.6 5.7 5.7 5.7"/><path class="st0" d="M666 109.7c3.9 0 7.1-3.2 7.1-7.1 0-3.9-3.2-7.1-7.1-7.1-3.9 0-7.1 3.2-7.1 7.1m7.1 105.1c3.1 0 5.7-2.5 5.7-5.7 0-3.1-2.5-5.7-5.7-5.7-3.1 0-5.7 2.5-5.7 5.7.1 3.2 2.6 5.7 5.7 5.7"/><path class="st0" d="M666 209.1c3.9 0 7.1-3.2 7.1-7.1 0-3.9-3.2-7.1-7.1-7.1s-7.1 3.2-7.1 7.1m133 140.5c1.6 0 2.8-1.3 2.8-2.8 0-1.6-1.3-2.8-2.8-2.8s-2.8 1.3-2.8 2.8c-.1 1.5 1.2 2.8 2.8 2.8"/><path class="st0" d="M791.9 343.9c2.3 0 4.3-1.9 4.3-4.3 0-2.3-1.9-4.3-4.3-4.3-2.3 0-4.3 1.9-4.3 4.3m87.1 2.9c1.6 0 2.8-1.3 2.8-2.8 0-1.6-1.3-2.8-2.8-2.8s-2.8 1.3-2.8 2.8 1.2 2.8 2.8 2.8"/><path class="st0" d="M874.7 343.9c2.3 0 4.3-1.9 4.3-4.3 0-2.3-1.9-4.3-4.3-4.3-2.3 0-4.3 1.9-4.3 4.3M649 468.4V99.9m0 368.6c0 7.8 6.3 14.1 14.1 14.1m128.8-222.9c1.6 0 2.8-1.3 2.8-2.8s-1.3-2.8-2.8-2.8c-1.6 0-2.8 1.3-2.8 2.8-.1 1.5 1.2 2.8 2.8 2.8"/><path class="st0" d="M791.9 261.1c2.3 0 4.3-1.9 4.3-4.3 0-2.3-1.9-4.3-4.3-4.3-2.3 0-4.3 1.9-4.3 4.3m87.1 2.9c1.6 0 2.8-1.3 2.8-2.8 0-1.6-1.3-2.8-2.8-2.8-1.6 0-2.8 1.3-2.8 2.8s1.2 2.8 2.8 2.8"/><path class="st0" d="M874.7 261.1c2.3 0 4.3-1.9 4.3-4.3 0-2.3-1.9-4.3-4.3-4.3-2.3 0-4.3 1.9-4.3 4.3m130.1-148.5c3.1 0 5.7-2.5 5.7-5.7 0-3.1-2.5-5.7-5.7-5.7-3.1 0-5.7 2.5-5.7 5.7s2.5 5.7 5.7 5.7"/><path class="st0" d="M1000.5 109.7c3.9 0 7.1-3.2 7.1-7.1 0-3.9-3.2-7.1-7.1-7.1-3.9 0-7.1 3.2-7.1 7.1m7.1 105.1c3.1 0 5.7-2.5 5.7-5.7 0-3.1-2.5-5.7-5.7-5.7-3.1 0-5.7 2.5-5.7 5.7s2.5 5.7 5.7 5.7"/><path class="st0" d="M1000.5 209.1c3.9 0 7.1-3.2 7.1-7.1 0-3.9-3.2-7.1-7.1-7.1s-7.1 3.2-7.1 7.1M96 156.5h283.4v283.4H96zM665.8 374c2.7 0 4.9-2.2 4.9-4.9s-2.2-4.9-4.9-4.9-4.9 2.2-4.9 4.9c0 2.8 2.2 4.9 4.9 4.9m334.5-141.9c2.7 0 4.9-2.2 4.9-4.9s-2.2-4.9-4.9-4.9-4.9 2.2-4.9 4.9c.1 2.8 2.2 4.9 4.9 4.9m-126 111c1.9 0 3.4-1.5 3.4-3.4s-1.5-3.4-3.4-3.4-3.4 1.5-3.4 3.4c0 1.8 1.5 3.4 3.4 3.4m0-82.9c1.9 0 3.4-1.5 3.4-3.4s-1.5-3.4-3.4-3.4-3.4 1.5-3.4 3.4 1.5 3.4 3.4 3.4m-82.5 82.9c1.9 0 3.4-1.5 3.4-3.4s-1.5-3.4-3.4-3.4-3.4 1.5-3.4 3.4c0 1.8 1.5 3.4 3.4 3.4m0-82.9c1.9 0 3.4-1.5 3.4-3.4s-1.5-3.4-3.4-3.4-3.4 1.5-3.4 3.4 1.5 3.4 3.4 3.4"/><path class="st0" d="M833.2 247.3c-28.1 0-51 22.8-51 50.9 0 28.1 22.8 51 50.9 51 28.1 0 51-22.8 51-50.9.1-28.2-22.7-51-50.9-51m-167.4-15.2c2.7 0 4.9-2.2 4.9-4.9s-2.2-4.9-4.9-4.9-4.9 2.2-4.9 4.9c0 2.8 2.2 4.9 4.9 4.9M1000.3 374c2.7 0 4.9-2.2 4.9-4.9s-2.2-4.9-4.9-4.9-4.9 2.2-4.9 4.9c.1 2.8 2.2 4.9 4.9 4.9"/><path class="st1" d="M285.2 522.9l30.8-169"/><path class="st2" d="M672.2 55.7h322"/><path d="M673.6 57.8l-7.6-2 7.6-2.1zm319.2 0l7.7-2-7.7-2.1z"/><path class="st2" d="M1054.5 263.1v70.3"/><path d="M1052.4 264.5l2.1-7.6 2 7.6zm0 67.5l2.1 7.7 2-7.7z"/><path class="st2" d="M244.1 64.2h171.6"/><path d="M245.5 66.3l-7.7-2.1 7.7-2.1zm168.8 0l7.6-2.1-7.6-2.1z"/><path class="st2" d="M60 35.8h355.7"/><path d="M61.4 37.9l-7.7-2.1 7.7-2zm352.9 0l7.6-2.1-7.6-2z"/><path class="st1" d="M421.9 31.5v69.9M53.4 31.5v69.9m184.4-41v237.9m387.4-195.6h32.2M625.2 202h32.2M625.2 86.1h35.9M649 97.8V52.4m17.1 50.5V54.2m334.4 48.7V54.2"/><path class="st2" d="M966.9 27.4h44.3"/><path d="M968.3 29.5l-7.7-2.1 7.7-2.1zm41.5 0l7.7-2.1-7.7-2.1z"/><path class="st1" d="M960.8 116.7V25.9m56.7 74v-74M666 55.7h-15.7m407.5 201.2H875.2m182.6 82.8H875.2"/><path class="st2" d="M1054.5 345.9v130.6"/><path d="M1052.4 347.3l2.1-7.6 2 7.6zm0 127.8l2.1 7.7 2-7.7z"/><path class="st1" d="M1057.8 482.8H875.2"/><path class="st2" d="M1011.2 518.4H880.8"/><path d="M1009.8 516.4l7.7 2-7.7 2.1zm-127.6 0l-7.7 2 7.7 2.1z"/><path class="st1" d="M1017.5 521.8v-53.3m-143 53.3V339.7"/><path class="st2" d="M868.2 518.4h-69.9"/><path d="M866.8 516.4l7.7 2-7.7 2.1zm-67.1 0l-7.7 2 7.7 2.1z"/><path class="st1" d="M791.9 521.8V339.7"/><path class="st2" d="M643.9 55.7h-24.3"/><path d="M642.5 53.7l7.7 2-7.7 2.1z"/><path class="st2" d="M516.3 55.7h22"/><path d="M517.7 57.8l-7.7-2 7.7-2.1zm19.2 0l7.7-2-7.7-2.1z"/><path class="st1" d="M488 108.8V52.4m22.2 50.5V54.2m334.4 48.7V54.2m-300 31.5V54.2M510 55.7h-21.9"/><path class="st2" d="M481.7 55.7h-23.1"/><path d="M480.3 53.7l7.7 2-7.7 2.1z"/><path class="st1" d="M628.5 86.9v15.9"/><path class="st2" d="M628.5 109v86.7"/><path d="M626.5 110.4l2-7.7 2.1 7.7zm0 83.9l2 7.7 2.1-7.7z"/><path class="st2" d="M628.5 80.2v-15"/><path d="M630.6 78.8l-2.1 7.7-2-7.7z"/><path class="st1" d="M1057.8 85.3h-57.7m57.7 31.6h-97m93.7-1.1V85.2"/><path class="st2" d="M1054.5 79V67.2"/><path d="M1056.5 77.6l-2 7.7-2.1-7.7z"/><path class="st2" d="M1054.5 122.5v15"/><path d="M1052.4 123.9l2.1-7.6 2 7.6z"/><path class="st2" d="M784.8 348.2L764 375H658.6"/><path d="M781.9 348l7.6-5.7-3.7 8.8z"/><path class="st2" d="M675.6 113l20.9 26.7h120.8"/><path d="M674.7 115.9l-3.7-8.8 7.6 5.7z"/><path class="st2" d="M453.7 476.3V305.4"/><path d="M455.7 474.9l-2 7.7-2.1-7.7zm0-168.1l-2-7.7-2.1 7.7z"/><path class="st1" d="M237.5 298.4h217.3m-47.2 184.2h47.2"/><path class="st2" d="M23.1 476.3V91.9"/><path d="M25.1 474.9l-2 7.7-2.1-7.7zm0-381.6l-2-7.6-2.1 7.6z"/><path class="st1" d="M18.5 85.7H67M18.5 482.6H67"/><path class="st2" d="M206 329.9l63.3-63.3"/><path d="M208.4 330.4l-6.8 4 3.9-6.9zm61.3-61.3l4-6.9-6.9 4z"/><path class="st1" d="M273.7 262.2l10.6-10.6h38.4"/><path class="st2" d="M833.3 493.3v-4.2"/><path fill="none" stroke="#000" stroke-width=".283" stroke-linecap="round" stroke-linejoin="round" stroke-dasharray=".567,2.836" d="M833.3 486.2v-1.9"/><path fill="none" stroke="#000" stroke-width=".283" stroke-linecap="round" stroke-linejoin="round" stroke-dasharray="8.507,2.836,.567,2.836" d="M833.3 482.8V86.1"/><path class="st2" d="M833.3 84.7v-4.3m191.8 217.9h-4.3"/><path fill="none" stroke="#000" stroke-width=".283" stroke-linecap="round" stroke-linejoin="round" stroke-dasharray=".573,2.867" d="M1018 298.3h-2"/><path fill="none" stroke="#000" stroke-width=".283" stroke-linecap="round" stroke-linejoin="round" stroke-dasharray="8.602,2.867,.573,2.867" d="M1014.5 298.3H643.2"/><path class="st2" d="M641.8 298.3h-4.3m28.5-14.1V280"/><path class="st7" d="M666 278.1v-1.4"/><path class="st8" d="M666 275.8v-9"/><path class="st2" d="M666 265.8v-4.3m11.4 11.4h-4.3"/><path class="st7" d="M671.2 272.9h-1.3"/><path class="st8" d="M668.9 272.9h-9"/><path class="st2" d="M658.9 272.9h-4.2M237.6 491.8v-4.3"/><path fill="none" stroke="#000" stroke-width=".283" stroke-linecap="round" stroke-linejoin="round" stroke-dasharray=".573,2.864" d="M237.6 484.7v-2"/><path fill="none" stroke="#000" stroke-width=".283" stroke-linecap="round" stroke-linejoin="round" stroke-dasharray="8.592,2.864,.573,2.864" d="M237.6 481.2V304"/><path class="st2" d="M237.6 302.5v-4.2m-.1 0h-4.2"/><path fill="none" stroke="#000" stroke-width=".283" stroke-linecap="round" stroke-linejoin="round" stroke-dasharray=".564,2.818" d="M230.5 298.3h-2"/><path fill="none" stroke="#000" stroke-width=".283" stroke-linecap="round" stroke-linejoin="round" stroke-dasharray="8.454,2.818,.564,2.818" d="M227.1 298.3H52.7"/><path class="st2" d="M51.3 298.3H47m953.5-14.1V280"/><path class="st7" d="M1000.5 278.1v-1.4"/><path class="st8" d="M1000.5 275.8v-9"/><path class="st2" d="M1000.5 265.8v-4.3m11.3 11.4h-4.2"/><path class="st7" d="M1005.6 272.9h-1.3"/><path class="st8" d="M1003.3 272.9h-9"/><path class="st2" d="M993.4 272.9h-4.3m11.4-158.9v-4.3"/><path fill="none" stroke="#000" stroke-width=".283" stroke-linecap="round" stroke-linejoin="round" stroke-dasharray=".233,1.164" d="M1000.5 108.6v-.8"/><path class="st2" d="M1000.5 107.2v-4.3m11.3-.2h-4.2"/><path class="st7" d="M1005.6 102.7h-1.3"/><path class="st8" d="M1003.3 102.7h-9"/><path class="st2" d="M993.4 102.7h-4.3M666 114v-4.3"/><path fill="none" stroke="#000" stroke-width=".283" stroke-linecap="round" stroke-linejoin="round" stroke-dasharray=".258,1.288" d="M666 108.5v-.9"/><path class="st2" d="M666 106.9v-4.2m11.4 0h-4.3"/><path class="st7" d="M671.2 102.7h-1.3"/><path class="st8" d="M668.9 102.7h-9"/><path class="st2" d="M658.9 102.7h-4.2m-139 14.2h-4.2"/><path fill="none" stroke="#000" stroke-width=".283" stroke-linecap="round" stroke-linejoin="round" stroke-dasharray=".637,3.186" d="M508.3 116.9h-2.2"/><path fill="none" stroke="#000" stroke-width=".283" stroke-linecap="round" stroke-linejoin="round" stroke-dasharray="9.559,3.186,.637,3.186" d="M504.5 116.9h-15"/><path class="st2" d="M487.9 116.9h-4.3m308.3 151.3V264"/><path class="st7" d="M791.9 262v-1.3"/><path class="st8" d="M791.9 259.7v-9"/><path class="st2" d="M791.9 249.8v-4.3m11.3 11.4h-4.3"/><path class="st7" d="M797 256.9h-1.3"/><path class="st8" d="M794.7 256.9h-9"/><path class="st2" d="M784.8 256.9h-4.3m94.2 11.3V264"/><path class="st7" d="M874.7 262v-1.3"/><path class="st8" d="M874.7 259.7v-9"/><path class="st2" d="M874.7 249.8v-4.3m11.3 11.4h-4.3"/><path class="st7" d="M879.8 256.9h-1.3"/><path class="st8" d="M877.5 256.9h-9"/><path class="st2" d="M867.6 256.9h-4.3m11.4 94.1v-4.2"/><path class="st7" d="M874.7 344.8v-1.3"/><path class="st8" d="M874.7 342.5v-9"/><path class="st2" d="M874.7 332.6v-4.3m11.3 11.4h-4.3"/><path class="st7" d="M879.8 339.7h-1.3"/><path class="st8" d="M877.5 339.7h-9"/><path class="st2" d="M867.6 339.7h-4.3M791.9 351v-4.2"/><path class="st7" d="M791.9 344.8v-1.3"/><path class="st8" d="M791.9 342.5v-9"/><path class="st2" d="M791.9 332.6v-4.3m11.3 11.4h-4.3"/><path class="st7" d="M797 339.7h-1.3"/><path class="st8" d="M794.7 339.7h-9"/><path class="st2" d="M784.8 339.7h-4.3m180.2-205.8v-4.3"/><path fill="none" stroke="#000" stroke-width=".283" stroke-linecap="round" stroke-linejoin="round" stroke-dasharray=".69,3.448" d="M960.7 126.2v-2.4"/><path fill="none" stroke="#000" stroke-width=".283" stroke-linecap="round" stroke-linejoin="round" stroke-dasharray="10.343,3.448,.69,3.448" d="M960.7 122.1v-16.3"/><path class="st2" d="M960.7 104.1v-4.2m.1 17h-4.3"/><path fill="none" stroke="#000" stroke-width=".283" stroke-linecap="round" stroke-linejoin="round" stroke-dasharray=".78,3.898" d="M952.6 116.9h-2.7"/><path class="st2" d="M947.9 116.9h-4.2"/><text transform="translate(218.091 538.272)" class="st20 st21">100 × 100 (Luminous area)</text><text transform="translate(314.4 59.655)" class="st20 st22">65</text><text transform="translate(225.317 31.306)" class="st20 st22">130</text><text transform="translate(821.296 46.876)"><tspan x="0" y="0" class="st20 st22 st23">1</tspan><tspan x="7.2" y="0" class="st20 st22">18</tspan></text><text transform="translate(980.787 18.526)" class="st20 st22">20</text><text transform="rotate(-90 360.101 -261.069)" class="st20 st22">6</text><text transform="rotate(-90 426.37 -194.8)" class="st20 st22">35</text><text transform="rotate(-90 578.445 -470.172)"><tspan x="0" y="0" class="st20 st22 st23">1</tspan><tspan x="7.2" y="0" class="st20 st22">1</tspan></text><text transform="rotate(-90 680.817 -367.8)" class="st20 st22">29.2</text><text transform="rotate(-90 754.945 -293.671)" class="st20 st22">50.4</text><text transform="translate(929.09 512.594)" class="st20 st22">50.4</text><text transform="translate(818.663 512.594)" class="st20 st22">29.2</text><text transform="rotate(-90 154.418 135.877)" class="st20 st22">140</text><text transform="rotate(-90 424.186 -24.964)" class="st20 st22">65</text><text transform="translate(653.185 50.374)" class="st20 st22">6</text><text transform="translate(494.293 50.374)" class="st20 st22">8</text><text transform="translate(519.583 50.374)" class="st20 st22">12</text><text transform="translate(661.731 368.492)" class="st20 st24">4</text><text transform="translate(674.241 368.492)" class="st20 st24">× M3, 5 deep</text><text transform="translate(702.815 133.07)" class="st20 st24">4</text><text transform="translate(715.325 133.07)" class="st20 st24">× M4, 7.5 deep</text><text transform="translate(288.903 246.146)" class="st20 st22">Ø</text><text transform="translate(304.743 246.146)" class="st20 st22">36</text><text transform="translate(10.585 524.756)" class="st20 st21">Not to scale</text><text transform="translate(10.585 542.756)" class="st20 st21">Dimensions in mm</text></svg>