<svg version="1.1" id="Ebene_1" xmlns="http://www.w3.org/2000/svg" xmlns:xlink="http://www.w3.org/1999/xlink" x="0" y="0" viewBox="0 0 1403.2 566.9" style="background-color:#fff" xml:space="preserve"><style>.st1{fill:none;stroke:#000;stroke-width:.425;stroke-linecap:round;stroke-linejoin:round;clip-path:url(#SVGID_4_)}.st1,.st2{stroke-miterlimit:10}.st12,.st13,.st2,.st3,.st4,.st5,.st6,.st7,.st8,.st9{fill:none;stroke:#000;stroke-width:.283;stroke-linecap:round;stroke-linejoin:round}.st4{stroke-dasharray:.575,2.873}.st5{stroke-dasharray:8.619,2.873,.575,2.873}.st6{stroke-dasharray:.69,3.448}.st7{stroke-dasharray:10.343,3.448,.69,3.448}.st8{stroke-dasharray:.557,2.786}.st9{stroke-dasharray:8.359,2.786,.557,2.786}.st12{stroke-dasharray:.573,2.867}.st13{stroke-dasharray:8.602,2.867,.573,2.867}.st15{font-family:Helvetica,Arial,sans-serif}.st17{font-size:14.9997px}.st18{font-size:14.9998px}</style><defs><path id="SVGID_1_" d="M0 0h1403.2v566.9H0z"/></defs><clipPath id="SVGID_2_"><use xlink:href="#SVGID_1_" overflow="visible"/></clipPath><path d="M637.2 81.1h33.9m-33.9 14.4v396.4m33.9-396.4v396.4m0 0v14.4h-33.9m33.9-410.8V81.1m-33.9 425.2v-14.4m0-396.4V81.1m38.2 412.3V94.1m173 243.5v-87.8" stroke-miterlimit="10" fill="none" stroke="#000" stroke-width=".425" stroke-linecap="round" stroke-linejoin="round"/><defs><path id="SVGID_3_" d="M0 0h1403.2v566.9H0z"/></defs><clipPath id="SVGID_4_"><use xlink:href="#SVGID_3_" overflow="visible"/></clipPath><path class="st1" d="M675.4 93.9c0-2.5-1.7-4.8-4.2-5.4m0 410.5c2.5-.6 4.2-2.9 4.2-5.4m0-383.9c0 3 2.4 5.5 5.4 5.6m0 356.9c-3 .1-5.4 2.6-5.4 5.6m5.3-5.4c79.6-2.4 148-57.4 167.6-134.6m0-87.8c-19.6-77.2-88-132.2-167.6-134.6m281.4-14.1c3.3 0 5.9-2.7 5.9-5.9 0-3.3-2.7-5.9-5.9-5.9-3.3 0-5.9 2.7-5.9 5.9s2.6 5.9 5.9 5.9m0 396.8c3.3 0 5.9-2.7 5.9-5.9 0-3.3-2.7-5.9-5.9-5.9-3.3 0-5.9 2.7-5.9 5.9s2.6 5.9 5.9 5.9m396.8 0c3.3 0 5.9-2.7 5.9-5.9 0-3.3-2.7-5.9-5.9-5.9-3.3 0-5.9 2.7-5.9 5.9-.1 3.2 2.6 5.9 5.9 5.9m0-396.8c3.3 0 5.9-2.7 5.9-5.9 0-3.3-2.7-5.9-5.9-5.9-3.3 0-5.9 2.7-5.9 5.9-.1 3.2 2.6 5.9 5.9 5.9m-198.6 334.2c78.2 0 141.6-63.3 141.6-141.5s-63.3-141.6-141.5-141.6-141.6 63.3-141.6 141.5c-.1 78.2 63.3 141.5 141.5 141.6m-198-354.4h396.4m14 14.4v396.4m-14 14.4H962.3m-14.4-14.4V95.5m410.8 410.8c7.8 0 14-6.5 14-14.4m0-396.4c0-7.8-6.2-14.4-14-14.4m-396.4 0c-7.8 0-14.4 6.5-14.4 14.4m0 396.4c0 7.8 6.5 14.4 14.4 14.4m408.3-38.5V261m-36 220.1h22.7"/><path class="st1" d="M1165.3 251.6c-23.4-2.8-44.6 13.9-47.4 37.3-2.8 23.4 13.9 44.6 37.3 47.4 23.4 2.8 44.6-13.9 47.4-37.3 2.8-23.4-13.9-44.6-37.3-47.4m192.1 229.5c7.3 0 13.1-5.9 13.1-13.1m-48.8 0c0 7.3 5.9 13.1 13.1 13.1m-13.1-13.3V261m13.1-13c-7.3 0-13.1 5.9-13.1 13.1m12.9-13.1h22.7m13.3 13.2c0-7.3-5.9-13.1-13.1-13.1M50 106.7c6.3 0 11.3-5.1 11.3-11.3S56.2 84 50 84c-6.3 0-11.3 5.1-11.3 11.3 0 6.3 5 11.4 11.3 11.4m0 396.8c6.3 0 11.3-5.1 11.3-11.3 0-6.3-5.1-11.3-11.3-11.3-6.3 0-11.3 5.1-11.3 11.3 0 6.2 5 11.3 11.3 11.3m396.4 0c6.3 0 11.3-5.1 11.3-11.3 0-6.3-5.1-11.3-11.3-11.3-6.3 0-11.3 5.1-11.3 11.3 0 6.2 5 11.3 11.3 11.3m0-396.8c6.3 0 11.3-5.1 11.3-11.3 0-6.3-5.1-11.3-11.3-11.3-6.3 0-11.3 5.1-11.3 11.3 0 6.2 5 11.3 11.3 11.3M248.2 500.6c114.1 0 206.7-92.5 206.7-206.6S362.4 87.3 248.3 87.3 41.6 179.8 41.6 293.9C41.5 408 134 500.6 248.2 500.6"/><path class="st1" d="M446.4 101.3c3.3 0 5.9-2.7 5.9-5.9 0-3.3-2.7-5.9-5.9-5.9-3.3 0-5.9 2.7-5.9 5.9s2.6 5.9 5.9 5.9m0 396.8c3.3 0 5.9-2.7 5.9-5.9 0-3.3-2.7-5.9-5.9-5.9-3.3 0-5.9 2.7-5.9 5.9s2.6 5.9 5.9 5.9m-396.4 0c3.3 0 5.9-2.7 5.9-5.9 0-3.3-2.7-5.9-5.9-5.9-3.3 0-5.9 2.7-5.9 5.9-.1 3.2 2.6 5.9 5.9 5.9m0-396.8c3.3 0 5.9-2.7 5.9-5.9 0-3.3-2.7-5.9-5.9-5.9-3.3 0-5.9 2.7-5.9 5.9-.1 3.2 2.6 5.9 5.9 5.9m396.6-20.2H49.8m-14 14.4v396.4m14 14.4h396.8m14-14.4V95.5M35.8 492.1c0 7.8 6.4 14.2 14.2 14.2m396.4 0c7.8 0 14.2-6.4 14.2-14.2m0-396.8c0-7.8-6.4-14.2-14.2-14.2M50 81.1c-7.8 0-14.2 6.4-14.2 14.2m207.4 156.3c-23.4 2.8-40.1 24-37.3 47.3 2.8 23.4 24 40.1 47.3 37.3 23.4-2.8 40.1-24 37.3-47.3-2.7-23.4-23.9-40.1-47.3-37.3"/><path class="st1" d="M243.1 250.5c-24 2.8-41.1 24.6-38.3 48.5 2.8 24 24.6 41.1 48.5 38.3 24-2.8 41.1-24.6 38.3-48.5-2.8-24-24.6-41.1-48.5-38.3m428-155V293m-12.9 171.1c0 .7.6 1.3 1.3 1.3.7 0 1.3-.6 1.3-1.3 0-.7-.6-1.3-1.3-1.3-.7.1-1.3.6-1.3 1.3m-10.8 0c0 .7.6 1.3 1.3 1.3.7 0 1.3-.6 1.3-1.3 0-.7-.6-1.3-1.3-1.3-.7.1-1.3.6-1.3 1.3m9 6.5c0 .7.6 1.3 1.3 1.3.7 0 1.3-.6 1.3-1.3 0-.7-.6-1.3-1.3-1.3-.7.1-1.3.6-1.3 1.3m-6.9 0c0 .7.6 1.3 1.3 1.3.7 0 1.3-.6 1.3-1.3 0-.7-.6-1.3-1.3-1.3-.7.1-1.3.6-1.3 1.3"/><path class="st1" d="M654 456c-5.5 0-9.9 4.4-9.9 9.9s4.4 9.9 9.9 9.9 9.9-4.4 9.9-9.9c0-5.4-4.4-9.9-9.9-9.9"/><path class="st1" d="M666.8 465.9c0-7.1-5.7-12.8-12.8-12.8-7.1 0-12.8 5.7-12.8 12.8 0 7.1 5.7 12.8 12.8 12.8 7.1 0 12.8-5.7 12.8-12.8m-26.6-6.3v13m0 0c.4.9.9 1.7 1.4 2.5m0 0l11.2 6.5m0 0c1 .1 1.9.1 2.9 0m11.1-6.5l-11.1 6.5m11.1-6.5c.6-.8 1-1.8 1.5-2.7m0-12.8v12.9m0-12.9c-.4-.9-.9-1.7-1.4-2.5"/><path class="st1" d="M641.6 457.1l11.2-6.5h2.9l11.1 6.5m-25.2 0c-.6.8-1 1.6-1.4 2.5M35.5 451h-4.9m0 6.5l-.3-3.3.3-3.2m0 6.5h5.3m0 2.5h-5.3v-2.5m0 15.7l-.3-6.7.3-6.5m0 13.2h5.3m-5.3 0v2.5h5.3m-5.3 6.5l-.3-3.3.3-3.2m0 6.5h4.9M13 457.8v17.5m3.6-18.5v19.6m2.1-19.1v18.6m2.9-18.6v18.6m2-20.8v22.7m2.9-22.7v22.7m2.2-20.5v18.6m7.2-24.9h-5.3m5.3 31.2h-5.3m-17.1-24.9c-.3.1-.5.3-.5.6m0 17.3c0 .3.2.6.5.6m0-18.5l3.1-.5m-3.1 19.1l3.1.5H18m0-19.6h-1.4m2.1 19.1l-.7.5m.7-19.1l-.7-.5m3.6 19.1h-2.9m4.9-20.8l-2 2.2h-2.9m2.9 18.6l2 1.9h2.9m0-22.7h-2.9m5.1 20.8l-2.2 1.9m2.2-20.5l-2.2-2.2m3.1 2.2h-.9m.9 0c.3 0 .6-.3.6-.6l.1-2.4m-1.6 21.6h.9c.3 0 .6.3.6.6l.1 2.4m1342.7 3.3h4.8m0-6.5l.4 3.2-.4 3.3m0-6.5h-5.2m0-2.5h5.2v2.5m0-15.7l.4 6.7-.4 6.5m0-13.2h-5.2m5.2 0v-2.5h-5.2m5.2-6.5l.4 3.2-.4 3.3m0-6.5h-4.8m22.5 24.3v-17.5m-3.6 18.6v-19.6m-2.2 19.1v-18.6m-2.8 18.6v-18.6m-2 20.7v-22.7M1382 478v-22.7m-2.2 20.6v-18.6m-7.2 24.9h5.2m-5.2-31.2h5.2m17.2 24.9c.3-.1.5-.3.5-.6m0-17.4c0-.3-.2-.6-.5-.6m0 18.6l-3.1.5m3.1-19.1l-3.1-.5h-1.4m0 19.6h1.4m-2.2-19.1l.8-.5m-.8 19.1l.8.5m-3.6-19.1h2.8m-4.8 20.7l2-2.1h2.8m-2.8-18.6l-2-2h-2.9m0 22.7h2.9m-5.1-20.7l2.2-2m-2.2 20.6l2.2 2.1m-3.1-2.1h.9m-.9 0c-.3 0-.6.3-.6.6l-.1 2.4m1.6-21.6h-.9c-.3 0-.6-.3-.6-.6l-.1-2.4"/><defs><path id="SVGID_5_" d="M0 0h1403.2v566.9H0z"/></defs><clipPath id="SVGID_6_"><use xlink:href="#SVGID_5_" overflow="visible"/></clipPath><path class="st2" d="M1075.7 547.9l39.3-154.8"/><path class="st3" d="M42.2 562.3h412.9"/><path d="M43.6 564.3l-7.7-2 7.7-2.1zm410.1 0l7.7-2-7.7-2.1z"/><path class="st2" d="M461 492.2v74"/><path class="st3" d="M677.6 561.7h164.7"/><path d="M679 563.8l-7.7-2.1 7.7-2zm161.9 0l7.7-2.1-7.7-2z"/><path class="st2" d="M848.2 337.6v228M35.6 492.2v74"/><path class="st3" d="M56.4 536.8h384.5"/><path d="M57.8 538.8l-7.7-2 7.7-2.1zm381.7 0l7.7-2-7.7-2.1z"/><path class="st3" d="M19 536.8h10.6"/><path d="M20.4 538.8l-7.7-2 7.7-2.1zm7.8 0l7.7-2-7.7-2.1z"/><path class="st2" d="M446.9 492.2v48.5M49.8 492.3v48.4m-36.9-65.2v65.2"/><path class="st3" d="M615.6 499.2v-26.7"/><path d="M617.7 497.8l-2.1 7.7-2-7.7zm0-23.9l-2.1-7.7-2 7.7z"/><path class="st2" d="M613.3 465.9h24.2m-24.2 39.9h24.2m33.7 31.9v27.9m0-59.2v25.3m-34-25.9v59.8m17.1-99.4v71.5m16.7 24h-33.7"/><path class="st3" d="M631.2 561.7h-35.6"/><path d="M629.8 559.7l7.7 2-7.7 2.1z"/><path class="st2" d="M653.8 536.2h-15.6"/><path class="st3" d="M632 536.2h-35.6"/><path d="M630.6 534.1l7.7 2.1-7.7 2.1z"/><path class="st3" d="M660.6 536.2H691"/><path d="M662 538.3l-7.7-2.1 7.7-2.1z"/><path class="st3" d="M53.8 82.3l14.7-57.4H122"/><path d="M56.6 81.3l-4.7 8.3-.1-9.5z"/><path class="st3" d="M64.6 82.9l27.3-27.3h133.4"/><path d="M67.5 83.5l-8.2 4.7L64 80z"/><path class="st2" d="M446.1 536.8h15"/><path class="st3" d="M467.2 536.8h14.4"/><path d="M468.6 538.8l-7.6-2 7.6-2.1z"/><path class="st3" d="M516.2 500.1V88.3"/><path d="M518.2 498.7l-2 7.7-2.1-7.7zm0-409l-2-7.6-2.1 7.6z"/><path class="st2" d="M443.3 81.4h74m-71.2 425.3h74"/><path class="st3" d="M490.7 485.9V102.2"/><path d="M492.7 484.5l-2 7.7-2.1-7.7zm0-380.9l-2-7.6-2.1 7.6z"/><path class="st2" d="M443.3 95.4h48.5m-45.6 397.1h48.4m-3.9-.4v15"/><path class="st3" d="M490.7 513.2v14.4"/><path d="M488.6 514.6l2.1-7.7 2 7.7z"/><path class="st3" d="M222.5 319.6l51.4-51.4"/><path d="M224.9 320.1l-6.8 3.9 3.9-6.8zm49.5-49.4l3.9-6.9-6.9 4z"/><path class="st2" d="M278.3 263.8l10.6-10.6h38.5"/><path class="st3" d="M444 110.2v-4.3"/><path class="st4" d="M444 103.1v-2"/><path class="st5" d="M444 99.6V86.1"/><path class="st3" d="M444 84.7v-4.3m14.9 14.9h-4.2"/><path class="st4" d="M451.8 95.3h-2"/><path class="st5" d="M448.3 95.3h-13.5"/><path class="st3" d="M433.4 95.3h-4.3m-379.2 414V505"/><path class="st6" d="M49.9 501.6v-2.4"/><path class="st7" d="M49.9 497.5v-16.2"/><path class="st3" d="M49.9 479.5v-4.2m17 17h-4.3"/><path class="st6" d="M59.2 492.3h-2.4"/><path class="st7" d="M55.1 492.3H38.9"/><path class="st3" d="M37.1 492.3h-4.2m1127.4-38.9v-4.3"/><path class="st8" d="M1160.3 446.3v-1.9"/><path class="st9" d="M1160.3 443V140.1"/><path class="st3" d="M1160.3 138.7v-4.2m159.5 159.4h-4.3"/><path class="st8" d="M1312.7 293.9h-1.9"/><path class="st9" d="M1309.4 293.9h-302.9"/><path class="st3" d="M1005.1 293.9h-4.2m-106.3 0h-4.3"/><path class="st8" d="M887.5 293.9h-1.9"/><path class="st9" d="M884.2 293.9H581.3"/><path class="st3" d="M579.9 293.9h-4.2m783.2-181.6v-4.2"/><path class="st6" d="M1358.9 104.6v-2.4"/><path class="st7" d="M1358.9 100.5V84.3"/><path class="st3" d="M1358.9 82.6v-4.3m17 17h-4.3"/><path class="st6" d="M1368.2 95.3h-2.4"/><path class="st7" d="M1364.1 95.3h-16.2"/><path class="st3" d="M1346.1 95.3h-4.2m-1292 17v-4.2"/><path class="st6" d="M49.9 104.6v-2.4"/><path class="st7" d="M49.9 100.5V84.3"/><path class="st3" d="M49.9 82.6v-4.3m17 17h-4.3"/><path class="st6" d="M59.2 95.3h-2.4"/><path class="st7" d="M55.1 95.3H38.9"/><path class="st3" d="M37.1 95.3h-4.2m414 414V505"/><path class="st6" d="M446.9 501.6v-2.4"/><path class="st7" d="M446.9 497.5v-16.2"/><path class="st3" d="M446.9 479.5v-4.2m17 17h-4.3"/><path class="st6" d="M456.2 492.3h-2.4"/><path class="st7" d="M452 492.3h-16.2"/><path class="st3" d="M434.1 492.3h-4.2m532.2-380v-4.2"/><path class="st6" d="M962.1 104.6v-2.4"/><path class="st7" d="M962.1 100.5V84.3"/><path class="st3" d="M962.1 82.6v-4.3m17 17h-4.2"/><path class="st6" d="M971.4 95.3H969"/><path class="st7" d="M967.3 95.3h-16.2"/><path class="st3" d="M949.3 95.3h-4.2m413.8 413.8v-4.2"/><path class="st6" d="M1358.9 501.4V499"/><path class="st7" d="M1358.9 497.3v-16.2"/><path class="st3" d="M1358.9 479.4v-4.3m17 17h-4.3"/><path class="st6" d="M1368.2 492.1h-2.4"/><path class="st7" d="M1364.1 492.1h-16.2"/><path class="st3" d="M1346.1 492.1h-4.2m-379.8 17v-4.2"/><path class="st6" d="M962.1 501.4V499"/><path class="st7" d="M962.1 497.3v-16.2"/><path class="st3" d="M962.1 479.4v-4.3m17 17h-4.2"/><path class="st6" d="M971.4 492.1H969"/><path class="st7" d="M967.3 492.1h-16.2"/><path class="st3" d="M949.3 492.1h-4.2m-696.9-10.4v-4.2"/><path fill="none" stroke="#000" stroke-width=".283" stroke-linecap="round" stroke-linejoin="round" stroke-dasharray=".593,2.965" d="M248.2 474.5v-2.1"/><path fill="none" stroke="#000" stroke-width=".283" stroke-linecap="round" stroke-linejoin="round" stroke-dasharray="8.896,2.965,.593,2.965" d="M248.2 470.9v-75.6"/><path class="st3" d="M248.2 393.8v-4.2m406 93.6v-4.3"/><path class="st6" d="M654.2 475.5v-2.4"/><path class="st7" d="M654.2 471.3v-16.2"/><path class="st3" d="M654.2 453.4v-4.3m17 17.1H667"/><path class="st6" d="M663.5 466.2h-2.4"/><path class="st7" d="M659.4 466.2h-16.2"/><path class="st3" d="M641.5 466.2h-4.3m763.9.4h-4.3"/><path class="st6" d="M1393.4 466.6h-2.4"/><path class="st7" d="M1389.2 466.6H1373"/><path class="st3" d="M1371.3 466.6h-4.2m-1327.4 0h-4.3"/><path class="st6" d="M32 466.6h-2.4"/><path class="st7" d="M27.8 466.6H11.6"/><path class="st3" d="M9.9 466.6H5.7m242.5 43.5v-4.3"/><path class="st12" d="M248.2 502.9v-2"/><path class="st13" d="M248.2 499.5v-416"/><path class="st3" d="M248.2 82v-4.2m216.1 216.1h-4.2"/><path class="st12" d="M457.2 293.9h-2"/><path class="st13" d="M453.8 293.9H37.7"/><path class="st3" d="M36.3 293.9h-4.2"/><defs><path id="SVGID_7_" d="M0 0h1403.2v566.9H0z"/></defs><clipPath id="SVGID_8_"><use xlink:href="#SVGID_7_" overflow="visible"/></clipPath><g clip-path="url(#SVGID_8_)"><text transform="translate(1008.164 561.715)" class="st15" font-size="15">Ø 100 (Luminous area)</text></g><text transform="translate(236.147 532.301)" class="st15 st17">140</text><text transform="translate(20.886 532.301)" class="st15 st17">8</text><text transform="translate(236.147 557.816)" class="st15 st17">150</text><text transform="translate(756.186 557.245)" class="st15 st17">63</text><text transform="rotate(-90 552.38 -58.196)" class="st15 st17">14</text><text transform="translate(450.11 532.298)" class="st15 st17">5</text><text transform="rotate(-90 396.397 -89.813)" class="st15 st17">140</text><text transform="rotate(-90 409.155 -102.57)" class="st15 st17">150</text><text transform="rotate(-90 494.841 8.631)" class="st15 st17">5</text><text transform="translate(644.448 556.955)" class="st15 st17">12</text><text transform="translate(641.853 531.71)" class="st15 st17">6</text><text transform="translate(101.191 49.195)" class="st15 st18">4</text><text transform="translate(113.701 49.195)" class="st15 st18">× Ø 8, 4.4 deep</text><text transform="translate(72.902 18.55)" class="st15 st18">4</text><text transform="translate(85.412 18.55)" class="st15 st18">× M5</text><defs><path id="SVGID_9_" d="M0 0h1403.2v566.9H0z"/></defs><clipPath id="SVGID_10_"><use xlink:href="#SVGID_9_" overflow="visible"/></clipPath><text transform="translate(1265.584 542.68)" class="st15 st18">Not to scale</text><text transform="translate(1265.584 560.68)" class="st15 st18">Dimensions in mm</text><text transform="translate(293.446 247.848)" class="st15 st17">Ø</text><text transform="translate(309.286 247.848)" class="st15 st17">30</text></svg>