<svg version="1.1" id="Ebene_1" xmlns="http://www.w3.org/2000/svg" xmlns:xlink="http://www.w3.org/1999/xlink" x="0" y="0" viewBox="0 0 360.8 207.1" style="enable-background:new 0 0 360.8 207.1;background-color:#fff" xml:space="preserve"><style>.st0{fill:none;stroke:#d9d9d9;stroke-width:.75;stroke-linejoin:round;stroke-miterlimit:10}.st3{fill:#595959}.st4{font-family:&apos;Calibri&apos;}.st5{font-size:9px}.st6{fill:#020203}.st7{font-family:Helvetica,Arial,sans-serif}.st8{font-size:9.96px}</style><path class="st0" d="M49.4 11.4h293.1M49.4 26.5h293.1M49.4 41.8h293.1M49.4 56.9h293.1M49.4 72h293.1M49.4 87.3h293.1M49.4 102.4h293.1M49.4 117.6h293.1M49.4 132.7h293.1M49.4 147.9h293.1m0-136.5v151.7M310 11.4v151.7M277.5 11.4v151.7M244.8 11.4v151.7M212.3 11.4v151.7M179.7 11.4v151.7M147.1 11.4v151.7M114.5 11.4v151.7M82 11.4v151.7"/><path d="M49.4 163.1V11.4m0 151.7h293.1" style="stroke:#bfbfbf;fill:none;stroke-width:.75;stroke-linejoin:round;stroke-miterlimit:10"/><defs><path id="SVGID_1_" d="M49.3 11.3h293.9v152.5H49.3z"/></defs><clipPath id="SVGID_00000078758505319840152310000009809636358129218475_"><use xlink:href="#SVGID_1_" style="overflow:visible"/></clipPath><path style="clip-path:url(#SVGID_00000078758505319840152310000009809636358129218475_);fill:none;stroke:#5c9bd4;stroke-width:1.5;stroke-linecap:round;stroke-linejoin:round;stroke-miterlimit:10" d="m49.4 89.7.3-.6c.1-.2.2-.5.3-.7l.3-.9c.1-.3.2-.7.3-1 .1-.4.2-.8.3-1.1.1-.4.2-.7.3-1.1.1-.3.2-.7.3-1 .1-.3.2-.6.3-1 .1-.3.2-.6.3-1 .1-.3.2-.7.3-1l.3-.9.3-.9c.1-.3.2-.6.3-.8.1-.3.2-.5.3-.8.1-.3.2-.6.3-.8.1-.3.2-.5.3-.8.1-.3.2-.5.3-.8.1-.3.2-.5.3-.8.1-.3.2-.5.3-.8.1-.3.2-.5.3-.8s.2-.5.3-.8c.1-.3.2-.5.3-.8.1-.3.2-.5.3-.8.1-.3.2-.6.3-.8.1-.3.2-.5.3-.7.1-.2.2-.5.3-.7.1-.2.2-.5.3-.7.1-.2.2-.5.3-.6.1-.2.2-.3.3-.5.1-.2.2-.4.3-.7l.3-.6.3-.6.3-.6.3-.6.3-.6.3-.6c.1-.2.2-.5.3-.7.1-.2.2-.3.3-.5.1-.2.2-.4.3-.5.1-.2.2-.3.3-.5.1-.2.2-.3.3-.5.1-.2.2-.3.3-.5.1-.2.2-.3.3-.5.1-.2.2-.3.3-.5.1-.2.2-.3.3-.4.1-.2.2-.3.3-.5.1-.2.2-.3.3-.5.1-.2.2-.3.3-.5.1-.2.2-.3.3-.5.1-.1.2-.3.3-.4.1-.1.2-.3.3-.4l.3-.3c.1-.1.2-.3.3-.4.1-.1.2-.3.3-.4.1-.1.2-.2.3-.4.1-.1.2-.2.3-.4.1-.1.2-.3.3-.4.1-.1.2-.2.3-.4.1-.1.2-.3.3-.4.1-.1.2-.3.3-.4.1-.1.2-.3.3-.4l.3-.3c.1-.1.2-.2.3-.4l.3-.3.3-.3.3-.3.3-.3.3-.3.3-.3.3-.3.3-.3.3-.3.3-.3.3-.3.3-.3.3-.3.3-.3.3-.3.3-.3.3-.3.3-.3.3-.3.3-.3.3-.3c.1-.1.2-.1.3-.2.1-.1.2-.1.3-.2.1-.1.2-.1.3-.2.1-.1.2-.2.3-.2.1-.1.2-.2.3-.2.1-.1.2-.1.3-.2.1-.1.2-.2.3-.2.1-.1.2-.1.3-.2.1-.1.2-.1.3-.2.1-.1.2-.2.3-.2l.3-.3.3-.3c.1-.1.2-.2.3-.2.1-.1.2-.2.3-.2.1-.1.2-.1.3-.2.1-.1.2-.1.3-.2.1-.1.2-.2.3-.2.1-.1.2-.2.3-.2.1-.1.2-.1.3-.2.1 0 .2-.1.3-.1.1 0 .2-.1.3-.1.1 0 .2-.1.3-.2.1-.1.2-.1.3-.2.1-.1.2-.1.3-.2.1-.1.2-.1.3-.2.1 0 .2-.1.3-.1.1-.1.2-.1.3-.2.1-.1.2-.1.3-.2.1-.1.2-.1.3-.2.1-.1.2-.1.3-.2.1-.1.2-.1.3-.2.1-.1.2-.2.3-.2.1-.1.2-.1.3-.2.1-.1.2-.1.3-.2.1-.1.2-.1.3-.1.1 0 .2-.1.3-.1.1 0 .2-.1.3-.1.1 0 .2-.1.3-.1.1 0 .2-.1.3-.1.1 0 .2-.1.3-.1.1 0 .2-.1.3-.1.1 0 .2-.1.3-.1.1 0 .2 0 .3-.1.1 0 .2-.1.3-.1.1 0 .2-.1.3-.1.1 0 .2 0 .3-.1.1 0 .2 0 .3-.1.1 0 .2 0 .3-.1.1 0 .2 0 .3-.1.1 0 .2 0 .3-.1.1 0 .2-.1.3-.1.1 0 .2-.1.3-.1.1 0 .2-.1.3-.1.1 0 .2-.1.3-.1.1 0 .2 0 .3-.1.1 0 .2 0 .3-.1.1 0 .2-.1.3-.1.1 0 .2-.1.3-.2.1 0 .2-.1.3-.1.1 0 .2-.1.3-.1.1 0 .2-.1.3-.1.1 0 .2-.1.3-.1.1 0 .2-.1.3-.1.1 0 .2-.1.3-.1.1 0 .2-.1.3-.1.1 0 .2-.1.3-.1.1 0 .2-.1.3-.1.1 0 .2-.1.3-.1.1 0 .2-.1.3-.1.1 0 .2 0 .3-.1.1 0 .2 0 .3-.1.1 0 .2 0 .3-.1h.3c.1 0 .2 0 .3-.1h.3c.1 0 .2 0 .3-.1.1 0 .2 0 .3-.1.1 0 .2-.1.3-.1h.6c.1 0 .2 0 .3-.1.1 0 .2 0 .3-.1.1 0 .2-.1.3-.1.1 0 .2-.1.3-.1.1 0 .2-.1.3-.1.1 0 .2 0 .3-.1.1 0 .2 0 .3-.1.1 0 .2-.1.3-.1.1 0 .2 0 .3-.1.1 0 .2 0 .3-.1.1 0 .2 0 .3-.1.1 0 .2 0 .3-.1.1 0 .2-.1.3-.1.1 0 .2-.1.3-.2.1-.1.2-.1.3-.1.1 0 .2-.1.3-.1.1 0 .2-.1.3-.1h.3c.1 0 .2 0 .3-.1.1 0 .2 0 .3-.1.1 0 .2 0 .3-.1h.3c.1 0 .2 0 .3-.1.1 0 .2 0 .3-.1h.3c.1 0 .2-.1.3-.1h.3c.1 0 .2-.1.3-.1.1 0 .2-.1.3-.1h.3c.1 0 .2-.1.3-.1.1 0 .2-.1.3-.1.1 0 .2-.1.3-.1.1 0 .2-.1.3-.1.1 0 .2-.1.3-.1h.3c.1 0 .2 0 .3-.1.1 0 .2-.1.3-.1h1.5c.1 0 .2 0 .3-.1h.6c.1 0 .2-.1.3-.1.1 0 .2-.1.3-.1.1 0 .2-.1.3-.1.1 0 .2-.1.3-.1h.3c.1 0 .2 0 .3-.1.1 0 .2 0 .3-.1.1 0 .2-.1.3-.1.1 0 .2-.1.3-.1.1 0 .2-.1.3-.1.1 0 .2-.1.3-.1.1 0 .2-.1.3-.1.1 0 .2-.1.3-.1.1 0 .2-.1.3-.1.1 0 .2 0 .3-.1.1 0 .2 0 .3-.1.1 0 .2-.1.3-.1h.9c.1 0 .2 0 .3-.1h.6c.1 0 .2 0 .3-.1.1 0 .2 0 .3-.1.1 0 .2 0 .3-.1.1 0 .2-.1.3-.1.1 0 .2-.1.3-.1.1 0 .2-.1.3-.1.1 0 .2-.1.3-.1.1 0 .2-.1.3-.1.1 0 .2-.1.3-.1.1 0 .2-.1.3-.1h.9c.1 0 .2 0 .3-.1.1 0 .2 0 .3-.1.1 0 .2-.1.3-.1h.6c.1 0 .2 0 .3-.1.1 0 .2 0 .3-.1.1 0 .2 0 .3-.1.1 0 .2-.1.3-.1.1 0 .2-.1.3-.1.1 0 .2 0 .3-.1.1 0 .2 0 .3-.1.1 0 .2-.1.3-.1.1 0 .2-.1.3-.1.1 0 .2-.1.3-.1.1 0 .2-.1.3-.1h1.8c.1 0 .2.1.3.1h.6c.1 0 .2-.1.3-.1.1 0 .2-.1.3-.1.1 0 .2-.1.3-.1.1 0 .2-.1.3-.1.1 0 .2 0 .3-.1.1 0 .2-.1.3-.2.1 0 .2-.1.3-.1h.3c.1 0 .2 0 .3-.1h.3c.1 0 .2 0 .3-.1h3.3c.1 0 .2 0 .3-.1.1 0 .2 0 .3-.1.1 0 .2 0 .3-.1.1 0 .2-.1.3-.1.1 0 .2-.1.3-.1.1 0 .2 0 .3-.1.1 0 .2 0 .3-.1h.6c.1 0 .2 0 .3-.1h3c.1 0 .2 0 .3-.1.1 0 .2 0 .3-.1.1 0 .2 0 .3-.1h.3c.1 0 .2-.1.3-.1.1 0 .2-.1.3-.1.1 0 .2-.1.3-.1.1 0 .2-.1.3-.1h5.7c.1 0 .2-.1.3-.1h2.4c.1 0 .2 0 .3-.1h.6c.1 0 .2 0 .3-.1h1.5c.1 0 .2 0 .3.1h10.8c.1 0 .2.1.3.1h.3c.1 0 .2 0 .3.1h.6c.1 0 .2 0 .3.1.1 0 .2.1.3.1.1 0 .2.1.3.1h2.7c.1 0 .2 0 .3.1h1.8c.1 0 .2 0 .3-.1.1 0 .2-.1.3-.1.1 0 .2 0 .3-.1h9.3c.1 0 .2 0 .3-.1h2.7c.1 0 .2 0 .3-.1h1.5c.1 0 .2 0 .3-.1.1 0 .2 0 .3-.1h3.6c.1 0 .2-.1.3-.1h.6c.1 0 .2-.1.3-.1h1.5c.1 0 .2 0 .3-.1.1 0 .2-.1.3-.1h.9c.1 0 .2 0 .3-.1s.2 0 .3-.1h2.4c.1 0 .2-.1.3-.1.1 0 .2 0 .3-.1h2.1c.1 0 .2 0 .3-.1h.3c.1 0 .2 0 .3-.1h.3c.1 0 .2 0 .3-.1h.6c.1 0 .2 0 .3-.1h2.7c.1 0 .2 0 .3-.1h.3c.1 0 .2 0 .3-.1h.3c.1 0 .2-.1.3-.1.1 0 .2 0 .3-.1h5.7c.1 0 .2 0 .3-.1.1 0 .2 0 .3-.1.1 0 .2-.1.3-.1h.3c.1 0 .2 0 .3-.1h.3c.1 0 .2-.1.3-.1h2.4c.1 0 .2-.1.3-.1h2.7c.1 0 .2.1.3.1.1 0 .2 0 .3-.1h1.8c.1 0 .2-.1.3-.1.1 0 .2 0 .3-.1h.6c.1 0 .2-.1.3-.1h.9c.1 0 .2.1.3.1h.6c.1 0 .2.1.3.1h.6c.1 0 .2 0 .3.1.1 0 .2.1.3.1h.6c.1 0 .2.1.3.1h.3c.1 0 .2.1.3.1h.9c.1 0 .2 0 .3.1.1 0 .2.1.3.1h1.5c.1 0 .2.1.3.1h.3c.1 0 .2-.1.3-.1h.9c.1 0 .2 0 .3.1.1 0 .2.1.3.1h.6c.1 0 .2 0 .3.1.1 0 .2.1.3.1h1.8c.1 0 .2 0 .3.1.1 0 .2 0 .3.1.1 0 .2.1.3.1.1 0 .2.1.3.1h.3c.1 0 .2 0 .3.1h.6c.1 0 .2 0 .3.1.1 0 .2.1.3.1h.6c.1 0 .2.1.3.1.1 0 .2.1.3.1.1 0 .2.1.3.2.1.1.2.1.3.2h.6c.1 0 .2.1.3.1.1 0 .2.1.3.1h.3c.1 0 .2.1.3.1.1 0 .2.1.3.1h.3c.1 0 .2.1.3.1h.3c.1 0 .2.1.3.1.1 0 .2 0 .3.1.1 0 .2.1.3.2.1.1.2.2.3.2.1.1.2.1.3.1.1.1.2.2.3.2.1.1.2.1.3.1.1 0 .2.1.3.1h.3c.1 0 .2.1.3.2.1.1.2.1.3.1.1.1.2.1.3.2.1 0 .2.1.3.1h.3c.1 0 .2.1.3.2.1.1.2.1.3.2.1 0 .2.1.3.1.1 0 .2 0 .3.1.1 0 .2.1.3.1h.3c.1 0 .2 0 .3.1.1.1.2.2.3.2.1.1.2.1.3.2.1 0 .2 0 .3.1l.3.3.3.3c.1.1.2.1.3.2.1.1.2.1.3.2.1.1.2.2.3.2.1.1.2.1.3.1.1 0 .2.1.3.2.1.1.2.1.3.2.1 0 .2 0 .3.1.1 0 .2.1.3.1.1 0 .2.1.3.1.1 0 .2.1.3.2.1 0 .2.1.3.1.1.1.2.1.3.2.1.1.2.1.3.2.1.1.2.2.3.2l.3.3c.1.1.2.1.3.1.1 0 .2.1.3.2.1 0 .2.1.3.1.1 0 .2.1.3.1.1 0 .2.1.3.1.1 0 .2.1.3.2h.3c.1 0 .2 0 .3.1.1.1.2.1.3.2l.3.3c.1.1.2.1.3.2.1 0 .2 0 .3.1.1 0 .2.1.3.1.1 0 .2 0 .3.1.1 0 .2.1.3.2s.2.1.3.2c.1.1.2.1.3.2.1.1.2.1.3.1.1 0 .2 0 .3.1l.3.3c.1.1.2.1.3.2l.3.3.3.3c.1.1.2.1.3.2l.3.3c.1.1.2.1.3.3.1.1.2.3.3.4l.3.3.3.3.3.3c.1.1.2.1.3.2l.3.3c.1.1.2.1.3.1.1 0 .2 0 .3.1h.3c.1 0 .2.1.3.1.1.1.2.1.3.2.1 0 .2 0 .3.1l.3.3c.1.1.2.1.3.1.1.1.2.1.3.3.1.1.2.3.3.4l.3.3.3.3.3.3.3.3c.1.1.2.1.3.2.1.1.2.3.3.4l.3.3.3.3c.1.1.2.1.3.2.1.1.2.1.3.2.1.1.2.2.3.2.1.1.2.1.3.2l.3.3c.1.1.2.1.3.1.1 0 .2.1.3.1.1 0 .2.1.3.1.1.1.2.1.3.2.1.1.2.1.3.1l.3.3.3.3c.1.1.2.2.3.2.1.1.2.1.3.2l.3.3.3.3c.1.1.2.3.3.4.1.1.2.3.3.4l.3.3c.1.1.2.2.3.2.1.1.2.2.3.2l.3.3.3.3c.1.1.2.2.3.2h.3c.1 0 .2.1.3.1.1.1.2.1.3.2l.3.3.3.3c.1.1.2.3.3.4.1.1.2.2.3.2.1.1.2.1.3.3s.2.3.3.5c.1.1.2.3.3.4.1.1.2.2.3.4l.3.3.3.3.3.3c.1.1.2.3.3.4.1.1.2.2.3.2.1.1.2.1.3.2.1.1.2.1.3.2.1.1.2.2.3.4l.3.3.3.3.3.3c.1.1.2.3.3.4l.3.3.3.3c.1.1.2.3.3.4.1.1.2.1.3.2.1.1.2.1.3.2.1.1.2.2.3.2.1.1.2.1.3.1.1 0 .2.1.3.1.1.1.2.1.3.2.1.1.2.1.3.2l.3.3c.1.1.2.3.3.4.1.1.2.3.3.4l.3.3c.1.1.2.3.3.4.1.1.2.3.3.4.1.2.2.3.3.5.1.2.2.3.3.4.1.1.2.2.3.2.1.1.2 0 .3.1l.3.3.3.3c.1.1.2.3.3.4.1.1.2.1.3.3.1.1.2.3.3.4l.3.3.3.3c.1.1.2.3.3.4.1.1.2.1.3.2.1.1.2.3.3.4l.3.3c.1.1.2.3.3.4.1.1.2.1.3.2.1.1.2.1.3.2.1.1.2.3.3.4l.3.3c.1.1.2.2.3.2h.3c.1 0 .2.2.3.2.1.1.2.1.3.2l.3.3c.1.1.2.3.3.4.1.1.2.1.3.2l.3.3c.1.1.2.3.3.5.1.2.2.4.3.5l.3.3c.1.1.2.3.3.5.1.2.2.3.3.5l.3.3c.1.1.2.3.3.4.1.1.2.4.3.5.1.1.2.1.3.2.1.1.2.2.3.4.1.1.2.3.3.4.1.1.2.1.3.1.1 0 .2.1.3.2.1.1.2.1.3.2l.3.3c.1.1.2.1.3.2.1.1.2.3.3.4.1.1.2.1.3.2.1.1.2.1.3.2.1.1.2.3.3.4.1.1.2.2.3.4.1.1.2.2.3.4l.3.3.3.3c.1.1.2.1.3.1.1.1.2.2.3.2.1.1.2.1.3.2l.3.3c.1.1.2.2.3.4.1.1.2.3.3.4.1.1.2.2.3.4.1.1.2.2.3.4.1.2.2.5.3.7l.3.6.3.3.3.3c.1.1.2.3.3.4.1.1.2.1.3.1.1 0 .2.1.3.2.1.1.2.1.3.2.1.1.2.1.3.2.1.1.2.1.3.3.1.1.2.4.3.5l.3.3c.1.1.2.1.3.2l.3.3c.1.1.2.1.3.1h.3c.1 0 .2-.1.3-.1.1 0 .2-.1.3-.1.1-.1.2-.1.3-.2h.3"/><text transform="translate(36.495 165.608)" class="st3 st4 st5">0</text><text transform="translate(31.932 150.434)" class="st3 st4 st5">10</text><text transform="translate(31.932 135.26)" class="st3 st4 st5">20</text><text transform="translate(31.932 120.086)" class="st3 st4 st5">30</text><text transform="translate(31.932 104.912)" class="st3 st4 st5">40</text><text transform="translate(31.932 89.738)" class="st3 st4 st5">50</text><text transform="translate(31.932 74.564)" class="st3 st4 st5">60</text><text transform="translate(31.932 59.39)" class="st3 st4 st5">70</text><text transform="translate(31.932 44.216)" class="st3 st4 st5">80</text><text transform="translate(31.932 29.042)" class="st3 st4 st5">90</text><text transform="translate(27.369 13.868)" class="st3 st4 st5">100</text><text transform="translate(42.561 177.272)" class="st3 st4 st5">400</text><text transform="translate(75.132 177.272)" class="st3 st4 st5">450</text><text transform="translate(107.703 177.272)" class="st3 st4 st5">500</text><text transform="translate(140.274 177.272)" class="st3 st4 st5">550</text><text transform="translate(172.845 177.272)" class="st3 st4 st5">600</text><text transform="translate(205.416 177.272)" class="st3 st4 st5">650</text><text transform="translate(237.987 177.272)" class="st3 st4 st5">700</text><text transform="translate(270.558 177.272)" class="st3 st4 st5">750</text><text transform="translate(303.13 177.272)" class="st3 st4 st5">800</text><text transform="translate(335.7 177.272)" class="st3 st4 st5">850</text><path class="st0" d="M.4.4h360v206.4H.4z"/><text transform="translate(143.491 193.287)" class="st6 st7 st8">Wavelength [nm]</text><text transform="rotate(-89.968 74.291 59.13)" class="st6 st7 st8">Transmittance [%]</text></svg>