<svg version="1.1" id="Ebene_1" xmlns="http://www.w3.org/2000/svg" xmlns:xlink="http://www.w3.org/1999/xlink" x="0" y="0" viewBox="0 0 1006.3 326" style="background-color:#fff" xml:space="preserve"><style>.st0{clip-path:url(#SVGID_2_);fill:none;stroke:#000;stroke-width:.425;stroke-linecap:round;stroke-linejoin:round}.st0,.st1{stroke-miterlimit:10}.st1,.st2,.st8{fill:none;stroke:#000;stroke-width:.283;stroke-linecap:round;stroke-linejoin:round}.st8{stroke-dasharray:.258,1.288}.st18{font-family:Helvetica,Arial,sans-serif}.st19{font-size:14.9998px}.st20{font-size:14.9996px}.st21{letter-spacing:-1}.st22{font-size:14.9997px}</style><defs><path id="SVGID_1_" d="M0 0h1006.3v326H0z"/></defs><clipPath id="SVGID_2_"><use xlink:href="#SVGID_1_" overflow="visible"/></clipPath><path class="st0" d="M938.1 85.2c0 .4.3.6.6.6s.6-.3.6-.6c0-.4-.3-.6-.6-.6-.3-.1-.6.2-.6.6m-5.4 0c0 .4.3.6.6.6s.6-.3.6-.6c0-.4-.3-.6-.6-.6-.3-.1-.6.2-.6.6m4.5 3.2c0 .4.3.6.6.6s.6-.3.6-.6c0-.4-.3-.6-.6-.6s-.6.3-.6.6m-3.4 0c0 .4.3.6.6.6.4 0 .6-.3.6-.6 0-.4-.3-.6-.6-.6s-.6.3-.6.6"/><path class="st0" d="M936.1 81.1c-2.8 0-5 2.2-5 5s2.2 5 5 5 5-2.2 5-5c-.1-2.8-2.3-5-5-5"/><path class="st0" d="M942.5 86.1c0-3.6-2.9-6.4-6.4-6.4-3.6 0-6.4 2.9-6.5 6.4 0 3.6 2.9 6.4 6.4 6.4 3.6 0 6.5-2.9 6.5-6.4m-13.4-3.2v6.5m0 0c.2.4.4.9.7 1.3m0 0l5.6 3.3m0 0h1.5m5.6-3.3l-5.6 3.3m5.6-3.3c.3-.4.5-.9.7-1.3m0-6.5v6.5m0-6.5c-.2-.4-.4-.9-.7-1.3"/><path class="st0" d="M929.8 81.6l5.6-3.2h1.5l5.6 3.2m-12.7 0c-.3.4-.5.8-.7 1.3m-446.9-10h-2.4m0 3.2l-.2-1.6.2-1.6m0 3.2h2.6m0 1.3h-2.6v-1.3m0 7.8l-.2-3.3.2-3.2m0 6.5h2.6m-2.6 0v1.3h2.6m-2.6 3.2l-.2-1.6.2-1.6m0 3.2h2.4M471 76.3V85m1.8-9.2v9.7m1.1-9.4v9.2m1.4-9.2v9.2m1-10.3v11.2m1.4-11.2v11.2m1.1-10.1v9.2m3.6-12.4h-2.6m2.6 15.5h-2.6m-8.5-12.3c-.1 0-.3.2-.3.3m0 8.5c0 .2.1.3.3.3m0-9.1l1.5-.3m-1.5 9.5l1.5.2h.7m0-9.7h-.7m1.1 9.5l-.4.2m.4-9.4l-.4-.3m1.8 9.5h-1.4m2.4-10.3l-1 1.1h-1.4m1.4 9.2l1 .9h1.4m0-11.2h-1.4m2.5 10.3l-1.1.9m1.1-10.1l-1.1-1.1m1.5 1.1h-.4m.4 0c.2 0 .3-.1.3-.3v-1.2m-.7 10.7h.4c.2 0 .3.1.3.3v1.2m-273.6 63.5c-14.7 0-26.7 11.9-26.7 26.7 0 14.7 11.9 26.7 26.7 26.7 14.7 0 26.7-11.9 26.7-26.7 0-14.8-12-26.7-26.7-26.7"/><path class="st0" d="M205.9 151.4c-14.1 0-25.5 11.4-25.5 25.5s11.4 25.5 25.5 25.5 25.5-11.4 25.5-25.5c0-14-11.4-25.5-25.5-25.5"/><path class="st0" d="M205.9 146.5c-16.8 0-30.5 13.6-30.5 30.5 0 16.8 13.6 30.5 30.5 30.5 16.8 0 30.5-13.6 30.5-30.5s-13.7-30.5-30.5-30.5m595.6 4.9c-14.1 0-25.5 11.4-25.5 25.5s11.4 25.5 25.5 25.5S827 191 827 176.9c0-14-11.4-25.5-25.5-25.5M647.1 82c1.6 0 2.8-1.3 2.8-2.8 0-1.6-1.3-2.8-2.8-2.8-1.6 0-2.8 1.3-2.8 2.8-.1 1.5 1.2 2.8 2.8 2.8"/><path class="st0" d="M647.1 82.7c2 0 3.5-1.6 3.5-3.5 0-2-1.6-3.5-3.5-3.5-2 0-3.5 1.6-3.5 3.5m3.5 65.1c1.6 0 2.8-1.3 2.8-2.8 0-1.6-1.3-2.8-2.8-2.8-1.6 0-2.8 1.3-2.8 2.8-.1 1.5 1.2 2.8 2.8 2.8"/><path class="st0" d="M647.1 145c2 0 3.5-1.6 3.5-3.5 0-2-1.6-3.5-3.5-3.5-2 0-3.5 1.6-3.5 3.5m137.2 57.6c.8 0 1.4-.6 1.4-1.4 0-.8-.6-1.4-1.4-1.4-.8 0-1.4.6-1.4 1.4 0 .7.6 1.4 1.4 1.4"/><path class="st0" d="M780.8 199.8c1.2 0 2.1-1 2.1-2.1 0-1.2-1-2.1-2.1-2.1-1.2 0-2.1 1-2.1 2.1m43.5 1.4c.8 0 1.4-.6 1.4-1.4 0-.8-.6-1.4-1.4-1.4-.8 0-1.4.6-1.4 1.4 0 .7.6 1.4 1.4 1.4"/><path class="st0" d="M822.2 199.8c1.2 0 2.1-1 2.1-2.1 0-1.2-1-2.1-2.1-2.1s-2.1 1-2.1 2.1m-39.3-40c.8 0 1.4-.6 1.4-1.4 0-.8-.6-1.4-1.4-1.4-.8 0-1.4.6-1.4 1.4 0 .7.6 1.4 1.4 1.4"/><path class="st0" d="M780.8 158.4c1.2 0 2.1-1 2.1-2.1 0-1.2-1-2.1-2.1-2.1-1.2 0-2.1 1-2.1 2.1m43.5 1.4c.8 0 1.4-.6 1.4-1.4 0-.8-.6-1.4-1.4-1.4-.8 0-1.4.6-1.4 1.4 0 .7.6 1.4 1.4 1.4"/><path class="st0" d="M822.2 158.4c1.2 0 2.1-1 2.1-2.1 0-1.2-1-2.1-2.1-2.1s-2.1 1-2.1 2.1M955.9 82c1.6 0 2.8-1.3 2.8-2.8 0-1.6-1.3-2.8-2.8-2.8-1.6 0-2.8 1.3-2.8 2.8 0 1.5 1.3 2.8 2.8 2.8"/><path class="st0" d="M955.9 82.7c2 0 3.5-1.6 3.5-3.5s-1.6-3.5-3.5-3.5c-2 0-3.5 1.6-3.5 3.5m3.5 65.1c1.6 0 2.8-1.3 2.8-2.8 0-1.6-1.3-2.8-2.8-2.8s-2.8 1.3-2.8 2.8 1.3 2.8 2.8 2.8"/><path class="st0" d="M955.9 145c2 0 3.5-1.6 3.5-3.5 0-2-1.6-3.5-3.5-3.5-2 0-3.5 1.6-3.5 3.5M361.7 269c3.9 0 7.1-3.2 7.1-7.1M50.1 269h311.7m-318.9-7.1c0 3.9 3.2 7.1 7.1 7.1M42.9 77.6V262m7.2-191.4c-3.9 0-7.2 3.2-7.2 7.1m318.9-7.1H50.1M368.8 262V77.6M50.1 267.9h311.7M44.1 262c0 3.3 2.5 5.9 5.8 5.9M44.1 77.6V262m6-190.3c-3.3 0-5.9 2.6-5.9 5.9m317.6-5.9H50.1m317.7 6c0-3.3-2.6-6-5.9-6m5.9 190.3V77.6m-6.1 190.3c3.3 0 6-2.7 6-6m1.1-184.2c0-3.9-3.1-7.1-7-7.1M64.1 106.1h283.5v141.7H64.1zm435.2 150.3v7h-16.9m0-7h16.9m-16.9 7v-7m16.9-184.3v184.3m0-184.3h-16.9m0 0v184.3m16.9-184.3v-7h-16.9v7m164.7 142.7c1.3 0 2.4-1.1 2.4-2.4 0-1.3-1.1-2.4-2.4-2.4-1.3 0-2.4 1.1-2.4 2.4-.1 1.3 1 2.4 2.4 2.4m-8.6 47.1c0 3.9 3.2 7.1 7.1 7.1m311.9 0h-312m311.9 0c3.9 0 7.1-3.2 7.1-7.1m0-184.3V262m0-184.3c0-3.9-3.2-7.1-7.1-7.1m-311.9 0h312m-1.6 110.7c1.6 0 3-1.3 3-3 0-1.6-1.3-3-3-3s-3 1.3-3 3c.1 1.7 1.4 3 3 3m-308.8 0c1.6 0 3-1.3 3-3 0-1.6-1.3-3-3-3-1.6 0-3 1.3-3 3s1.3 3 3 3m308.8 33.5c1.3 0 2.4-1.1 2.4-2.4 0-1.3-1.1-2.4-2.4-2.4-1.3 0-2.4 1.1-2.4 2.4 0 1.3 1.1 2.4 2.4 2.4M645.6 70.6c-3.9 0-7.1 3.2-7.1 7.1m0 184.3V77.6"/><path class="st1" d="M253.5 300.9l30.8-98.1"/><path class="st2" d="M653.3 48.1h296.3"/><path d="M654.7 50.1l-7.7-2 7.7-2.1zm293.5 0l7.7-2-7.7-2.1z"/><path class="st2" d="M1000 162.5v28.9"/><path d="M997.9 163.9l2.1-7.6 2 7.6zm0 26.1l2.1 7.7 2-7.7z"/><path class="st2" d="M212.4 52h150.3"/><path d="M213.8 54.1l-7.7-2.1 7.7-2.1zm147.5 0l7.6-2.1-7.6-2.1z"/><path class="st2" d="M49.5 23.6h313.2"/><path d="M50.9 25.7l-7.7-2.1 7.7-2zm310.4 0l7.6-2.1-7.6-2z"/><path class="st1" d="M368.9 19.3v58.6m-326-58.6v58.6m163.2-29.7v128.5m408.6-97.2h32.2m-32.2 62.1h32.2m-32.2-71.1h30.8m-7 8.8V44.6m8.4 34.6V44.6m309 33.1V46.6"/><path class="st2" d="M942.2 28.2h16"/><path d="M943.6 30.3l-7.7-2.1 7.7-2zm13.2 0l7.7-2.1-7.7-2z"/><path class="st1" d="M936.1 86.3V26.7m28.4 50.9V26.7M647.3 48h-7.5m361.8 108.3H822.5m179.1 41.4H822.5"/><path class="st2" d="M1000 203.9v58.8"/><path d="M997.9 205.3l2.1-7.6 2 7.6zm0 56l2.1 7.7 2-7.7z"/><path class="st1" d="M1001.6 269h-44.1"/><path class="st2" d="M958.2 314H828.4"/><path d="M956.8 311.9l7.7 2.1-7.7 2zm-127 0l-7.7 2.1 7.7 2z"/><path class="st1" d="M964.5 315.6v-53.7m-142.4 53.7V197.7"/><path class="st2" d="M815.8 314h-28.6"/><path d="M814.4 311.9l7.7 2.1-7.7 2zm-25.8 0l-7.7 2.1 7.7 2z"/><path class="st1" d="M780.8 315.6V197.7"/><path class="st2" d="M633.4 48h-13.2"/><path d="M632 45.9l7.7 2.1-7.7 2z"/><path class="st1" d="M471 76.4V37.3m11.1 27.8V39.2m17.3 25.9V39.2m0 1.5H471"/><path class="st2" d="M464.6 40.7h-23.1"/><path d="M463.2 38.7l7.7 2-7.7 2.1z"/><path class="st2" d="M505.7 40.7h23.1"/><path d="M507.1 42.8l-7.7-2.1 7.7-2z"/><path class="st1" d="M618 70.7v8.6"/><path class="st2" d="M618 85.4v50"/><path d="M616 86.8l2-7.6 2.1 7.6zm0 47.1l2 7.7 2.1-7.7z"/><path class="st2" d="M618 64V49.6"/><path d="M620.1 62.6l-2.1 7.7-2-7.7z"/><path class="st1" d="M1004.6 70.6h-48.7m48.7 15.9h-68.5m65.1-1v-15"/><path class="st2" d="M1001.2 64.3V40.9"/><path d="M1003.3 62.9l-2.1 7.7-2-7.7z"/><path class="st2" d="M1001.2 92.2v14.9"/><path d="M999.2 93.6l2-7.7 2.1 7.7z"/><path class="st2" d="M775 204.9l-8.1 10.4h-69.7"/><path d="M772 204.7l7.6-5.7-3.7 8.8z"/><path class="st2" d="M654.1 87.8l20.8 26.7h120.9"/><path d="M653.2 90.6l-3.8-8.8 7.7 5.8z"/><path class="st2" d="M396.4 262.9v-78.8"/><path d="M398.5 261.5l-2.1 7.7-2-7.7zm0-76l-2.1-7.7-2 7.7z"/><path class="st1" d="M205.8 177h191.7m-35.8 92.2h35.8"/><path class="st2" d="M23.9 262.9v-186"/><path d="M26 261.5l-2.1 7.7-2-7.7zm0-183.2l-2.1-7.7-2 7.7z"/><path class="st1" d="M19.3 70.6h30.8M19.3 269.2h30.8"/><path class="st2" d="M192.5 190.6l27.2-27.2"/><path d="M194.9 191l-6.9 4 4-6.9zm25.3-25.2l3.9-6.9-6.9 4z"/><path class="st1" d="M224.1 159l10.6-10.6h38.5"/><defs><path id="SVGID_3_" d="M0 0h1006.3v326H0z"/></defs><clipPath id="SVGID_4_"><use xlink:href="#SVGID_3_" overflow="visible"/></clipPath><path d="M483.6 40.7c0 .8-.6 1.4-1.4 1.4-.8 0-1.4-.6-1.4-1.4 0-.8.6-1.4 1.4-1.4.7 0 1.4.6 1.4 1.4" clip-path="url(#SVGID_4_)"/><path class="st2" d="M801.4 275.9v-4.3"/><path fill="none" stroke="#000" stroke-width=".283" stroke-linecap="round" stroke-linejoin="round" stroke-dasharray=".583,2.917" d="M801.4 268.7v-2.1"/><path fill="none" stroke="#000" stroke-width=".283" stroke-linecap="round" stroke-linejoin="round" stroke-dasharray="8.751,2.917,.583,2.917" d="M801.4 265.2V69.5"/><path class="st2" d="M801.4 68v-4.3M835 176.9h-4.3"/><path fill="none" stroke="#000" stroke-width=".283" stroke-linecap="round" stroke-linejoin="round" stroke-dasharray=".551,2.756" d="M828 176.9h-1.9"/><path fill="none" stroke="#000" stroke-width=".283" stroke-linecap="round" stroke-linejoin="round" stroke-dasharray="8.269,2.756,.551,2.756" d="M824.7 176.9h-56"/><path class="st2" d="M767.3 176.9h-4.2M647 147.2V143"/><path class="st8" d="M647 141.7v-.9"/><path class="st2" d="M647 140.1v-4.2m5.6 5.6h-4.2"/><path class="st8" d="M647.1 141.5h-.9"/><path class="st2" d="M645.5 141.5h-4.2M205.8 177h-4.3"/><path fill="none" stroke="#000" stroke-width=".283" stroke-linecap="round" stroke-linejoin="round" stroke-dasharray=".62,3.098" d="M198.4 177h-2.1"/><path fill="none" stroke="#000" stroke-width=".283" stroke-linecap="round" stroke-linejoin="round" stroke-dasharray="9.296,3.098,.62,3.098" d="M194.7 177h-30.6"/><path class="st2" d="M162.5 177h-4.2m47.6-47.7v4.3"/><path fill="none" stroke="#000" stroke-width=".283" stroke-linecap="round" stroke-linejoin="round" stroke-dasharray=".615,3.077" d="M205.9 136.6v2.2"/><path fill="none" stroke="#000" stroke-width=".283" stroke-linecap="round" stroke-linejoin="round" stroke-dasharray="9.23,3.077,.615,3.077" d="M205.9 140.3v78.5"/><path class="st2" d="M205.9 220.3v4.3m750-77.4V143"/><path class="st8" d="M955.9 141.7v-.9"/><path class="st2" d="M955.9 140.1v-4.2m5.7 5.6h-4.3"/><path class="st8" d="M956 141.5h-.9"/><path class="st2" d="M954.5 141.5h-4.3"/><path fill="none" stroke="#000" stroke-width=".283" stroke-linecap="round" stroke-linejoin="round" stroke-dasharray="5.532,5.532" d="M955.9 85.1v-5.6"/><path class="st2" d="M961.6 79.4h-4.3"/><path class="st8" d="M956 79.4h-.9"/><path class="st2" d="M954.5 79.4h-4.3"/><path fill="none" stroke="#000" stroke-width=".283" stroke-linecap="round" stroke-linejoin="round" stroke-dasharray="5.669,5.669" d="M647 85.1v-5.7"/><path class="st2" d="M652.6 79.4h-4.2"/><path class="st8" d="M647.1 79.4h-.9"/><path class="st2" d="M645.5 79.4h-4.2m-157.4 1.4h-4.2"/><path fill="none" stroke="#000" stroke-width=".283" stroke-linecap="round" stroke-linejoin="round" stroke-dasharray=".685,3.426" d="M476.3 80.8h-2.4"/><path class="st2" d="M472.1 80.8h-4.2m312.8 81.1v-4.3"/><path class="st8" d="M780.7 156.3v-.9"/><path class="st2" d="M780.7 154.8v-4.3m5.7 5.7h-4.2"/><path class="st8" d="M780.9 156.2h-.9"/><path class="st2" d="M779.3 156.2h-4.2m47 5.7v-4.3"/><path class="st8" d="M822.1 156.3v-.9"/><path class="st2" d="M822.1 154.8v-4.3m5.7 5.7h-4.2"/><path class="st8" d="M822.3 156.2h-.9"/><path class="st2" d="M820.7 156.2h-4.2m5.6 47.1V199"/><path class="st8" d="M822.1 197.7v-.9"/><path class="st2" d="M822.1 196.2v-4.3m5.7 5.7h-4.2"/><path class="st8" d="M822.3 197.6h-.9"/><path class="st2" d="M820.7 197.6h-4.2m-35.7 5.7V199"/><path class="st8" d="M780.8 197.7v-.9"/><path class="st2" d="M780.8 196.2v-4.3m5.6 5.7h-4.2"/><path class="st8" d="M780.9 197.6h-.9"/><path class="st2" d="M779.3 197.6h-4.2M936 95v-4.2"/><path fill="none" stroke="#000" stroke-width=".283" stroke-linecap="round" stroke-linejoin="round" stroke-dasharray=".773,3.865" d="M936 86.9v-2.7"/><path class="st2" d="M936 82.2V78m.1 8.5h-4.3"/><path fill="none" stroke="#000" stroke-width=".283" stroke-linecap="round" stroke-linejoin="round" stroke-dasharray="0,1.600000e-02" d="M931.8 86.5h0"/><path class="st2" d="M931.8 86.5h-4.3"/><text transform="translate(188.046 318.303)" class="st18 st19">100 × 200 (Luminous area)</text><text transform="translate(279.049 46.879)"><tspan x="0" y="0" class="st18 st20 st21">1</tspan><tspan x="7.2" y="0" class="st18 st20">15</tspan></text><text transform="translate(193.581 18.53)" class="st18 st20">230</text><text transform="translate(789.56 43.174)"><tspan x="0" y="0" class="st18 st20 st21">2</tspan><tspan x="7.2" y="0" class="st18 st20">18</tspan></text><text transform="translate(941.911 19.354)" class="st18 st20">20</text><text transform="rotate(-90 344.881 -265.795)" class="st18 st20">6</text><text transform="rotate(-90 364.702 -245.974)" class="st18 st20">44</text><text transform="rotate(-90 528.148 -467.81)"><tspan x="0" y="0" class="st18 st20 st21">1</tspan><tspan x="7.2" y="0" class="st18 st20">1</tspan></text><text transform="rotate(-90 593.838 -400.906)" class="st18 st20">29.2</text><text transform="rotate(-90 621.28 -373.375)" class="st18 st20">50.4</text><text transform="translate(874.543 309.477)" class="st18 st20">100.4</text><text transform="translate(786.915 309.298)" class="st18 st20">29.2</text><text transform="rotate(-90 95.199 76.666)" class="st18 st20">140</text><text transform="rotate(-90 311.57 -79.75)" class="st18 st20">65</text><text transform="translate(638.21 43.5)" class="st18 st20">6</text><text transform="translate(445.991 35.325)" class="st18 st20">8</text><text transform="translate(509.484 35.325)" class="st18 st20">12</text><text transform="translate(697.153 211.064)" class="st18 st22">4</text><text transform="translate(709.663 211.064)" class="st18 st22">× M3,</text><text transform="translate(697.153 229.064)" class="st18 st22">5 deep</text><text transform="translate(681.269 107.82)" class="st18 st22">4</text><text transform="translate(693.778 107.82)" class="st18 st22">× M4, 7.5 deep</text><text transform="translate(239.325 142.925)" class="st18 st20">Ø</text><text transform="translate(255.165 142.925)" class="st18 st20">36</text><text transform="translate(10.585 300.297)" class="st18 st19">Not to scale</text><text transform="translate(10.585 318.297)" class="st18 st19">Dimensions in mm</text></svg>