<svg xmlns="http://www.w3.org/2000/svg" viewBox="0 0 1054.5 297.6" style="enable-background:new 0 0 1054.5 297.6;background-color:#fff" xml:space="preserve"><style>.st2{stroke-width:.7087}.st2,.st3,.st4{fill:none;stroke-miterlimit:10;stroke:#020203}.st3{stroke-width:1.4173}.st4{stroke-width:.7087;stroke-linecap:square;stroke-dasharray:12,12}.st5{fill:#020203}.st7{font-family:Helvetica,Arial,sans-serif}.st8{font-size:29.9999px}.st9{font-size:28px}</style><g id="blaze"><path style="fill:none;stroke:#000;stroke-width:.7087;stroke-miterlimit:10" d="M1050.4 232h-46.8v20.9l-1 1.1H859.4l-1.3-1.2V26.6l1.1-1.1h143.2l1.2 1.2v21h46.8z"/><path d="M858.5 249.2h82.9m0-218.8h-82.9m145.1 201.4v2.9M950.1 35.4h53.5v2.9m-62.2 9.4h62.2v2.9m0 193.5h-53.9m53.9-12.5h-62.1m62.1.2v-184m-62.2-.1V31.3m.1 217.1v-16.8m-.6 22.4h-22.7m22.7-228.5h-22.7m12.4 201.3c2.5 0 4.6 2.1 4.6 4.6 0 2.5-2.1 4.6-4.6 4.6-2.5 0-4.6-2.1-4.6-4.6 0-2.5 2.1-4.6 4.6-4.6m0-183.1c2.5 0 4.6 2.1 4.6 4.6 0 2.5-2.1 4.6-4.6 4.6-2.5 0-4.6-2.1-4.6-4.6.1-2.6 2.1-4.6 4.6-4.6M917 185v69m0-228.5v97.7m24.5 125.2v5.6m-.1-228.5v5.8m8.7-2.7v13.8m-.1-.1c0 .5-.4 1-1 1m.1-15.6c.5 0 1 .4 1 1m-.9-1h-7.8m7.8 15.6h-7.8m8.2 193.9v13.9m-.1-.1c0 .5-.4 1-1 1m.1-15.7c.5 0 1 .4 1 1m-.9-1h-7.2m7.2 15.7h-7.2" style="stroke:#000;stroke-width:.4252;stroke-linecap:round;stroke-linejoin:round;fill:none;stroke-miterlimit:10"/></g><g id="Lines"><path class="st2" d="M5.7 5.7h462v287.6H5.7V5.7z"/><path class="st2" d="M5.7 51.4h116.7v210.7H5.7V51.4zm201 15.8h177.8V245H206.7z"/><path class="st3" d="M71.7 99.8h135"/><path class="st2" d="M18.9 88.8h52.9v20.4H18.9V88.8z"/><path class="st3" d="M384.4 115.7h473.8m-473.8 44.2h117.8m314.2 0h41.8"/><path class="st4" d="M502.2 160.4h312"/><path class="st5" d="M418.7 166.3c3.3 0 5.9-2.6 5.9-5.9 0-3.3-2.6-5.9-5.9-5.9s-5.9 2.6-5.9 5.9c0 3.3 2.6 5.9 5.9 5.9"/><path class="st3" d="M71.7 159h134.9"/><path class="st2" d="M18.9 148h52.9v20.4H18.9V148z"/><path class="st3" d="M71.7 218.4h134.9"/><path class="st2" d="M18.9 207.3h52.9v20.4H18.9v-20.4zM384.4 67.2 206.7 244.9"/><path d="M168.4 218.4v58.8h250.9V160.4" style="fill:none;stroke:#020203;stroke-width:1.4173;stroke-linecap:square;stroke-miterlimit:10"/><path class="st5" d="M162.5 218.4c0-3.3 2.6-5.9 5.9-5.9 3.3 0 5.9 2.6 5.9 5.9 0 3.3-2.6 5.9-5.9 5.9-3.3-.1-5.9-2.7-5.9-5.9"/><ellipse class="st4" cx="502.2" cy="99.8" rx="9.8" ry="60.6"/><ellipse class="st4" cx="814.2" cy="99.8" rx="9.8" ry="60.6"/><path class="st4" d="M502.2 39.2h312"/></g><g id="Text"><text id="text294" transform="translate(203.241 39.736)" class="st5 st7 st8">Power supply</text><text id="text294-4" transform="translate(577.904 207.27)" class="st5 st7 st8">Cable shield</text><text id="text294-4-1" transform="translate(242.98 129.872)" class="st5 st7 st8">AC</text><text id="text294-4-1-1" transform="translate(310.854 206.958)" class="st5 st7 st8">DC</text><text id="text294-4-1-1-1" transform="translate(386.507 110.665)" class="st5 st7 st9">+VCC</text><text id="text294-4-1-1-1-9" transform="translate(395.821 146.808)" class="st5 st7 st9">GND</text><text id="text294-4-1-4" transform="translate(87.456 92.165)" class="st5 st7 st9">L</text><text id="text294-4-1-4-4" transform="translate(85.795 152.411)" class="st5 st7 st9">N</text><text id="text294-4-1-4-4-3" transform="translate(77.647 212.165)" class="st5 st7 st9">PE</text><text id="text294-4-1-5" transform="translate(879.27 164.554)" class="st5 st7 st8">Camera</text></g></svg>