<?xml version="1.0" encoding="utf-8" standalone="no"?>
<!DOCTYPE svg PUBLIC "-//W3C//DTD SVG 1.1//EN"
  "http://www.w3.org/Graphics/SVG/1.1/DTD/svg11.dtd">
<!-- Created with matplotlib (https://matplotlib.org/) -->
<svg height="345.6pt" version="1.1" viewBox="0 0 460.8 345.6" width="460.8pt" xmlns="http://www.w3.org/2000/svg" xmlns:xlink="http://www.w3.org/1999/xlink">
 <defs>
  <style type="text/css">
*{stroke-linecap:butt;stroke-linejoin:round;}
  </style>
 </defs>
 <g id="figure_1">
  <g id="patch_1">
   <path d="M 0 345.6 
L 460.8 345.6 
L 460.8 0 
L 0 0 
z
" style="fill:#ffffff;"/>
  </g>
  <g id="axes_1">
   <g id="patch_2">
    <path d="M 57.6 307.584 
L 414.72 307.584 
L 414.72 41.472 
L 57.6 41.472 
z
" style="fill:#ffffff;"/>
   </g>
   <g id="matplotlib.axis_1">
    <g id="xtick_1">
     <g id="line2d_1">
      <path clip-path="url(#pdff89bfa18)" d="M 73.832727 307.584 
L 73.832727 41.472 
" style="fill:none;stroke:#b0b0b0;stroke-linecap:square;stroke-width:0.8;"/>
     </g>
     <g id="line2d_2">
      <defs>
       <path d="M 0 0 
L 0 3.5 
" id="md5189fe421" style="stroke:#000000;stroke-width:0.8;"/>
      </defs>
      <g>
       <use style="stroke:#000000;stroke-width:0.8;" x="73.832727" xlink:href="#md5189fe421" y="307.584"/>
      </g>
     </g>
     <g id="text_1">
      <!-- 400 -->
      <defs>
       <path d="M 37.796875 64.3125 
L 12.890625 25.390625 
L 37.796875 25.390625 
z
M 35.203125 72.90625 
L 47.609375 72.90625 
L 47.609375 25.390625 
L 58.015625 25.390625 
L 58.015625 17.1875 
L 47.609375 17.1875 
L 47.609375 0 
L 37.796875 0 
L 37.796875 17.1875 
L 4.890625 17.1875 
L 4.890625 26.703125 
z
" id="DejaVuSans-52"/>
       <path d="M 31.78125 66.40625 
Q 24.171875 66.40625 20.328125 58.90625 
Q 16.5 51.421875 16.5 36.375 
Q 16.5 21.390625 20.328125 13.890625 
Q 24.171875 6.390625 31.78125 6.390625 
Q 39.453125 6.390625 43.28125 13.890625 
Q 47.125 21.390625 47.125 36.375 
Q 47.125 51.421875 43.28125 58.90625 
Q 39.453125 66.40625 31.78125 66.40625 
z
M 31.78125 74.21875 
Q 44.046875 74.21875 50.515625 64.515625 
Q 56.984375 54.828125 56.984375 36.375 
Q 56.984375 17.96875 50.515625 8.265625 
Q 44.046875 -1.421875 31.78125 -1.421875 
Q 19.53125 -1.421875 13.0625 8.265625 
Q 6.59375 17.96875 6.59375 36.375 
Q 6.59375 54.828125 13.0625 64.515625 
Q 19.53125 74.21875 31.78125 74.21875 
z
" id="DejaVuSans-48"/>
      </defs>
      <g transform="translate(64.288977 322.182437)scale(0.1 -0.1)">
       <use xlink:href="#DejaVuSans-52"/>
       <use x="63.623047" xlink:href="#DejaVuSans-48"/>
       <use x="127.246094" xlink:href="#DejaVuSans-48"/>
      </g>
     </g>
    </g>
    <g id="xtick_2">
     <g id="line2d_3">
      <path clip-path="url(#pdff89bfa18)" d="M 128.213723 307.584 
L 128.213723 41.472 
" style="fill:none;stroke:#b0b0b0;stroke-linecap:square;stroke-width:0.8;"/>
     </g>
     <g id="line2d_4">
      <g>
       <use style="stroke:#000000;stroke-width:0.8;" x="128.213723" xlink:href="#md5189fe421" y="307.584"/>
      </g>
     </g>
     <g id="text_2">
      <!-- 500 -->
      <defs>
       <path d="M 10.796875 72.90625 
L 49.515625 72.90625 
L 49.515625 64.59375 
L 19.828125 64.59375 
L 19.828125 46.734375 
Q 21.96875 47.46875 24.109375 47.828125 
Q 26.265625 48.1875 28.421875 48.1875 
Q 40.625 48.1875 47.75 41.5 
Q 54.890625 34.8125 54.890625 23.390625 
Q 54.890625 11.625 47.5625 5.09375 
Q 40.234375 -1.421875 26.90625 -1.421875 
Q 22.3125 -1.421875 17.546875 -0.640625 
Q 12.796875 0.140625 7.71875 1.703125 
L 7.71875 11.625 
Q 12.109375 9.234375 16.796875 8.0625 
Q 21.484375 6.890625 26.703125 6.890625 
Q 35.15625 6.890625 40.078125 11.328125 
Q 45.015625 15.765625 45.015625 23.390625 
Q 45.015625 31 40.078125 35.4375 
Q 35.15625 39.890625 26.703125 39.890625 
Q 22.75 39.890625 18.8125 39.015625 
Q 14.890625 38.140625 10.796875 36.28125 
z
" id="DejaVuSans-53"/>
      </defs>
      <g transform="translate(118.669973 322.182437)scale(0.1 -0.1)">
       <use xlink:href="#DejaVuSans-53"/>
       <use x="63.623047" xlink:href="#DejaVuSans-48"/>
       <use x="127.246094" xlink:href="#DejaVuSans-48"/>
      </g>
     </g>
    </g>
    <g id="xtick_3">
     <g id="line2d_5">
      <path clip-path="url(#pdff89bfa18)" d="M 182.594719 307.584 
L 182.594719 41.472 
" style="fill:none;stroke:#b0b0b0;stroke-linecap:square;stroke-width:0.8;"/>
     </g>
     <g id="line2d_6">
      <g>
       <use style="stroke:#000000;stroke-width:0.8;" x="182.594719" xlink:href="#md5189fe421" y="307.584"/>
      </g>
     </g>
     <g id="text_3">
      <!-- 600 -->
      <defs>
       <path d="M 33.015625 40.375 
Q 26.375 40.375 22.484375 35.828125 
Q 18.609375 31.296875 18.609375 23.390625 
Q 18.609375 15.53125 22.484375 10.953125 
Q 26.375 6.390625 33.015625 6.390625 
Q 39.65625 6.390625 43.53125 10.953125 
Q 47.40625 15.53125 47.40625 23.390625 
Q 47.40625 31.296875 43.53125 35.828125 
Q 39.65625 40.375 33.015625 40.375 
z
M 52.59375 71.296875 
L 52.59375 62.3125 
Q 48.875 64.0625 45.09375 64.984375 
Q 41.3125 65.921875 37.59375 65.921875 
Q 27.828125 65.921875 22.671875 59.328125 
Q 17.53125 52.734375 16.796875 39.40625 
Q 19.671875 43.65625 24.015625 45.921875 
Q 28.375 48.1875 33.59375 48.1875 
Q 44.578125 48.1875 50.953125 41.515625 
Q 57.328125 34.859375 57.328125 23.390625 
Q 57.328125 12.15625 50.6875 5.359375 
Q 44.046875 -1.421875 33.015625 -1.421875 
Q 20.359375 -1.421875 13.671875 8.265625 
Q 6.984375 17.96875 6.984375 36.375 
Q 6.984375 53.65625 15.1875 63.9375 
Q 23.390625 74.21875 37.203125 74.21875 
Q 40.921875 74.21875 44.703125 73.484375 
Q 48.484375 72.75 52.59375 71.296875 
z
" id="DejaVuSans-54"/>
      </defs>
      <g transform="translate(173.050969 322.182437)scale(0.1 -0.1)">
       <use xlink:href="#DejaVuSans-54"/>
       <use x="63.623047" xlink:href="#DejaVuSans-48"/>
       <use x="127.246094" xlink:href="#DejaVuSans-48"/>
      </g>
     </g>
    </g>
    <g id="xtick_4">
     <g id="line2d_7">
      <path clip-path="url(#pdff89bfa18)" d="M 236.975715 307.584 
L 236.975715 41.472 
" style="fill:none;stroke:#b0b0b0;stroke-linecap:square;stroke-width:0.8;"/>
     </g>
     <g id="line2d_8">
      <g>
       <use style="stroke:#000000;stroke-width:0.8;" x="236.975715" xlink:href="#md5189fe421" y="307.584"/>
      </g>
     </g>
     <g id="text_4">
      <!-- 700 -->
      <defs>
       <path d="M 8.203125 72.90625 
L 55.078125 72.90625 
L 55.078125 68.703125 
L 28.609375 0 
L 18.3125 0 
L 43.21875 64.59375 
L 8.203125 64.59375 
z
" id="DejaVuSans-55"/>
      </defs>
      <g transform="translate(227.431965 322.182437)scale(0.1 -0.1)">
       <use xlink:href="#DejaVuSans-55"/>
       <use x="63.623047" xlink:href="#DejaVuSans-48"/>
       <use x="127.246094" xlink:href="#DejaVuSans-48"/>
      </g>
     </g>
    </g>
    <g id="xtick_5">
     <g id="line2d_9">
      <path clip-path="url(#pdff89bfa18)" d="M 291.356711 307.584 
L 291.356711 41.472 
" style="fill:none;stroke:#b0b0b0;stroke-linecap:square;stroke-width:0.8;"/>
     </g>
     <g id="line2d_10">
      <g>
       <use style="stroke:#000000;stroke-width:0.8;" x="291.356711" xlink:href="#md5189fe421" y="307.584"/>
      </g>
     </g>
     <g id="text_5">
      <!-- 800 -->
      <defs>
       <path d="M 31.78125 34.625 
Q 24.75 34.625 20.71875 30.859375 
Q 16.703125 27.09375 16.703125 20.515625 
Q 16.703125 13.921875 20.71875 10.15625 
Q 24.75 6.390625 31.78125 6.390625 
Q 38.8125 6.390625 42.859375 10.171875 
Q 46.921875 13.96875 46.921875 20.515625 
Q 46.921875 27.09375 42.890625 30.859375 
Q 38.875 34.625 31.78125 34.625 
z
M 21.921875 38.8125 
Q 15.578125 40.375 12.03125 44.71875 
Q 8.5 49.078125 8.5 55.328125 
Q 8.5 64.0625 14.71875 69.140625 
Q 20.953125 74.21875 31.78125 74.21875 
Q 42.671875 74.21875 48.875 69.140625 
Q 55.078125 64.0625 55.078125 55.328125 
Q 55.078125 49.078125 51.53125 44.71875 
Q 48 40.375 41.703125 38.8125 
Q 48.828125 37.15625 52.796875 32.3125 
Q 56.78125 27.484375 56.78125 20.515625 
Q 56.78125 9.90625 50.3125 4.234375 
Q 43.84375 -1.421875 31.78125 -1.421875 
Q 19.734375 -1.421875 13.25 4.234375 
Q 6.78125 9.90625 6.78125 20.515625 
Q 6.78125 27.484375 10.78125 32.3125 
Q 14.796875 37.15625 21.921875 38.8125 
z
M 18.3125 54.390625 
Q 18.3125 48.734375 21.84375 45.5625 
Q 25.390625 42.390625 31.78125 42.390625 
Q 38.140625 42.390625 41.71875 45.5625 
Q 45.3125 48.734375 45.3125 54.390625 
Q 45.3125 60.0625 41.71875 63.234375 
Q 38.140625 66.40625 31.78125 66.40625 
Q 25.390625 66.40625 21.84375 63.234375 
Q 18.3125 60.0625 18.3125 54.390625 
z
" id="DejaVuSans-56"/>
      </defs>
      <g transform="translate(281.812961 322.182437)scale(0.1 -0.1)">
       <use xlink:href="#DejaVuSans-56"/>
       <use x="63.623047" xlink:href="#DejaVuSans-48"/>
       <use x="127.246094" xlink:href="#DejaVuSans-48"/>
      </g>
     </g>
    </g>
    <g id="xtick_6">
     <g id="line2d_11">
      <path clip-path="url(#pdff89bfa18)" d="M 345.737707 307.584 
L 345.737707 41.472 
" style="fill:none;stroke:#b0b0b0;stroke-linecap:square;stroke-width:0.8;"/>
     </g>
     <g id="line2d_12">
      <g>
       <use style="stroke:#000000;stroke-width:0.8;" x="345.737707" xlink:href="#md5189fe421" y="307.584"/>
      </g>
     </g>
     <g id="text_6">
      <!-- 900 -->
      <defs>
       <path d="M 10.984375 1.515625 
L 10.984375 10.5 
Q 14.703125 8.734375 18.5 7.8125 
Q 22.3125 6.890625 25.984375 6.890625 
Q 35.75 6.890625 40.890625 13.453125 
Q 46.046875 20.015625 46.78125 33.40625 
Q 43.953125 29.203125 39.59375 26.953125 
Q 35.25 24.703125 29.984375 24.703125 
Q 19.046875 24.703125 12.671875 31.3125 
Q 6.296875 37.9375 6.296875 49.421875 
Q 6.296875 60.640625 12.9375 67.421875 
Q 19.578125 74.21875 30.609375 74.21875 
Q 43.265625 74.21875 49.921875 64.515625 
Q 56.59375 54.828125 56.59375 36.375 
Q 56.59375 19.140625 48.40625 8.859375 
Q 40.234375 -1.421875 26.421875 -1.421875 
Q 22.703125 -1.421875 18.890625 -0.6875 
Q 15.09375 0.046875 10.984375 1.515625 
z
M 30.609375 32.421875 
Q 37.25 32.421875 41.125 36.953125 
Q 45.015625 41.5 45.015625 49.421875 
Q 45.015625 57.28125 41.125 61.84375 
Q 37.25 66.40625 30.609375 66.40625 
Q 23.96875 66.40625 20.09375 61.84375 
Q 16.21875 57.28125 16.21875 49.421875 
Q 16.21875 41.5 20.09375 36.953125 
Q 23.96875 32.421875 30.609375 32.421875 
z
" id="DejaVuSans-57"/>
      </defs>
      <g transform="translate(336.193957 322.182437)scale(0.1 -0.1)">
       <use xlink:href="#DejaVuSans-57"/>
       <use x="63.623047" xlink:href="#DejaVuSans-48"/>
       <use x="127.246094" xlink:href="#DejaVuSans-48"/>
      </g>
     </g>
    </g>
    <g id="xtick_7">
     <g id="line2d_13">
      <path clip-path="url(#pdff89bfa18)" d="M 400.118703 307.584 
L 400.118703 41.472 
" style="fill:none;stroke:#b0b0b0;stroke-linecap:square;stroke-width:0.8;"/>
     </g>
     <g id="line2d_14">
      <g>
       <use style="stroke:#000000;stroke-width:0.8;" x="400.118703" xlink:href="#md5189fe421" y="307.584"/>
      </g>
     </g>
     <g id="text_7">
      <!-- 1000 -->
      <defs>
       <path d="M 12.40625 8.296875 
L 28.515625 8.296875 
L 28.515625 63.921875 
L 10.984375 60.40625 
L 10.984375 69.390625 
L 28.421875 72.90625 
L 38.28125 72.90625 
L 38.28125 8.296875 
L 54.390625 8.296875 
L 54.390625 0 
L 12.40625 0 
z
" id="DejaVuSans-49"/>
      </defs>
      <g transform="translate(387.393703 322.182437)scale(0.1 -0.1)">
       <use xlink:href="#DejaVuSans-49"/>
       <use x="63.623047" xlink:href="#DejaVuSans-48"/>
       <use x="127.246094" xlink:href="#DejaVuSans-48"/>
       <use x="190.869141" xlink:href="#DejaVuSans-48"/>
      </g>
     </g>
    </g>
    <g id="text_8">
     <!-- Wavelength $\lambda$ [nm] -->
     <defs>
      <path d="M 3.328125 72.90625 
L 13.28125 72.90625 
L 28.609375 11.28125 
L 43.890625 72.90625 
L 54.984375 72.90625 
L 70.3125 11.28125 
L 85.59375 72.90625 
L 95.609375 72.90625 
L 77.296875 0 
L 64.890625 0 
L 49.515625 63.28125 
L 33.984375 0 
L 21.578125 0 
z
" id="DejaVuSans-87"/>
      <path d="M 34.28125 27.484375 
Q 23.390625 27.484375 19.1875 25 
Q 14.984375 22.515625 14.984375 16.5 
Q 14.984375 11.71875 18.140625 8.90625 
Q 21.296875 6.109375 26.703125 6.109375 
Q 34.1875 6.109375 38.703125 11.40625 
Q 43.21875 16.703125 43.21875 25.484375 
L 43.21875 27.484375 
z
M 52.203125 31.203125 
L 52.203125 0 
L 43.21875 0 
L 43.21875 8.296875 
Q 40.140625 3.328125 35.546875 0.953125 
Q 30.953125 -1.421875 24.3125 -1.421875 
Q 15.921875 -1.421875 10.953125 3.296875 
Q 6 8.015625 6 15.921875 
Q 6 25.140625 12.171875 29.828125 
Q 18.359375 34.515625 30.609375 34.515625 
L 43.21875 34.515625 
L 43.21875 35.40625 
Q 43.21875 41.609375 39.140625 45 
Q 35.0625 48.390625 27.6875 48.390625 
Q 23 48.390625 18.546875 47.265625 
Q 14.109375 46.140625 10.015625 43.890625 
L 10.015625 52.203125 
Q 14.9375 54.109375 19.578125 55.046875 
Q 24.21875 56 28.609375 56 
Q 40.484375 56 46.34375 49.84375 
Q 52.203125 43.703125 52.203125 31.203125 
z
" id="DejaVuSans-97"/>
      <path d="M 2.984375 54.6875 
L 12.5 54.6875 
L 29.59375 8.796875 
L 46.6875 54.6875 
L 56.203125 54.6875 
L 35.6875 0 
L 23.484375 0 
z
" id="DejaVuSans-118"/>
      <path d="M 56.203125 29.59375 
L 56.203125 25.203125 
L 14.890625 25.203125 
Q 15.484375 15.921875 20.484375 11.0625 
Q 25.484375 6.203125 34.421875 6.203125 
Q 39.59375 6.203125 44.453125 7.46875 
Q 49.3125 8.734375 54.109375 11.28125 
L 54.109375 2.78125 
Q 49.265625 0.734375 44.1875 -0.34375 
Q 39.109375 -1.421875 33.890625 -1.421875 
Q 20.796875 -1.421875 13.15625 6.1875 
Q 5.515625 13.8125 5.515625 26.8125 
Q 5.515625 40.234375 12.765625 48.109375 
Q 20.015625 56 32.328125 56 
Q 43.359375 56 49.78125 48.890625 
Q 56.203125 41.796875 56.203125 29.59375 
z
M 47.21875 32.234375 
Q 47.125 39.59375 43.09375 43.984375 
Q 39.0625 48.390625 32.421875 48.390625 
Q 24.90625 48.390625 20.390625 44.140625 
Q 15.875 39.890625 15.1875 32.171875 
z
" id="DejaVuSans-101"/>
      <path d="M 9.421875 75.984375 
L 18.40625 75.984375 
L 18.40625 0 
L 9.421875 0 
z
" id="DejaVuSans-108"/>
      <path d="M 54.890625 33.015625 
L 54.890625 0 
L 45.90625 0 
L 45.90625 32.71875 
Q 45.90625 40.484375 42.875 44.328125 
Q 39.84375 48.1875 33.796875 48.1875 
Q 26.515625 48.1875 22.3125 43.546875 
Q 18.109375 38.921875 18.109375 30.90625 
L 18.109375 0 
L 9.078125 0 
L 9.078125 54.6875 
L 18.109375 54.6875 
L 18.109375 46.1875 
Q 21.34375 51.125 25.703125 53.5625 
Q 30.078125 56 35.796875 56 
Q 45.21875 56 50.046875 50.171875 
Q 54.890625 44.34375 54.890625 33.015625 
z
" id="DejaVuSans-110"/>
      <path d="M 45.40625 27.984375 
Q 45.40625 37.75 41.375 43.109375 
Q 37.359375 48.484375 30.078125 48.484375 
Q 22.859375 48.484375 18.828125 43.109375 
Q 14.796875 37.75 14.796875 27.984375 
Q 14.796875 18.265625 18.828125 12.890625 
Q 22.859375 7.515625 30.078125 7.515625 
Q 37.359375 7.515625 41.375 12.890625 
Q 45.40625 18.265625 45.40625 27.984375 
z
M 54.390625 6.78125 
Q 54.390625 -7.171875 48.1875 -13.984375 
Q 42 -20.796875 29.203125 -20.796875 
Q 24.46875 -20.796875 20.265625 -20.09375 
Q 16.0625 -19.390625 12.109375 -17.921875 
L 12.109375 -9.1875 
Q 16.0625 -11.328125 19.921875 -12.34375 
Q 23.78125 -13.375 27.78125 -13.375 
Q 36.625 -13.375 41.015625 -8.765625 
Q 45.40625 -4.15625 45.40625 5.171875 
L 45.40625 9.625 
Q 42.625 4.78125 38.28125 2.390625 
Q 33.9375 0 27.875 0 
Q 17.828125 0 11.671875 7.65625 
Q 5.515625 15.328125 5.515625 27.984375 
Q 5.515625 40.671875 11.671875 48.328125 
Q 17.828125 56 27.875 56 
Q 33.9375 56 38.28125 53.609375 
Q 42.625 51.21875 45.40625 46.390625 
L 45.40625 54.6875 
L 54.390625 54.6875 
z
" id="DejaVuSans-103"/>
      <path d="M 18.3125 70.21875 
L 18.3125 54.6875 
L 36.8125 54.6875 
L 36.8125 47.703125 
L 18.3125 47.703125 
L 18.3125 18.015625 
Q 18.3125 11.328125 20.140625 9.421875 
Q 21.96875 7.515625 27.59375 7.515625 
L 36.8125 7.515625 
L 36.8125 0 
L 27.59375 0 
Q 17.1875 0 13.234375 3.875 
Q 9.28125 7.765625 9.28125 18.015625 
L 9.28125 47.703125 
L 2.6875 47.703125 
L 2.6875 54.6875 
L 9.28125 54.6875 
L 9.28125 70.21875 
z
" id="DejaVuSans-116"/>
      <path d="M 54.890625 33.015625 
L 54.890625 0 
L 45.90625 0 
L 45.90625 32.71875 
Q 45.90625 40.484375 42.875 44.328125 
Q 39.84375 48.1875 33.796875 48.1875 
Q 26.515625 48.1875 22.3125 43.546875 
Q 18.109375 38.921875 18.109375 30.90625 
L 18.109375 0 
L 9.078125 0 
L 9.078125 75.984375 
L 18.109375 75.984375 
L 18.109375 46.1875 
Q 21.34375 51.125 25.703125 53.5625 
Q 30.078125 56 35.796875 56 
Q 45.21875 56 50.046875 50.171875 
Q 54.890625 44.34375 54.890625 33.015625 
z
" id="DejaVuSans-104"/>
      <path id="DejaVuSans-32"/>
      <path d="M 36.71875 67.4375 
L 48.828125 0 
L 39.3125 0 
L 31.84375 40.4375 
L 5.125 0 
L -4.390625 0 
L 29.734375 52.4375 
L 28.03125 62.109375 
Q 26.953125 68.265625 21.734375 68.265625 
L 17.046875 68.265625 
L 18.5 75.984375 
L 24.21875 75.875 
Q 35.203125 75.734375 36.71875 67.4375 
z
" id="DejaVuSans-Oblique-955"/>
      <path d="M 8.59375 75.984375 
L 29.296875 75.984375 
L 29.296875 69 
L 17.578125 69 
L 17.578125 -6.203125 
L 29.296875 -6.203125 
L 29.296875 -13.1875 
L 8.59375 -13.1875 
z
" id="DejaVuSans-91"/>
      <path d="M 52 44.1875 
Q 55.375 50.25 60.0625 53.125 
Q 64.75 56 71.09375 56 
Q 79.640625 56 84.28125 50.015625 
Q 88.921875 44.046875 88.921875 33.015625 
L 88.921875 0 
L 79.890625 0 
L 79.890625 32.71875 
Q 79.890625 40.578125 77.09375 44.375 
Q 74.3125 48.1875 68.609375 48.1875 
Q 61.625 48.1875 57.5625 43.546875 
Q 53.515625 38.921875 53.515625 30.90625 
L 53.515625 0 
L 44.484375 0 
L 44.484375 32.71875 
Q 44.484375 40.625 41.703125 44.40625 
Q 38.921875 48.1875 33.109375 48.1875 
Q 26.21875 48.1875 22.15625 43.53125 
Q 18.109375 38.875 18.109375 30.90625 
L 18.109375 0 
L 9.078125 0 
L 9.078125 54.6875 
L 18.109375 54.6875 
L 18.109375 46.1875 
Q 21.1875 51.21875 25.484375 53.609375 
Q 29.78125 56 35.6875 56 
Q 41.65625 56 45.828125 52.96875 
Q 50 49.953125 52 44.1875 
z
" id="DejaVuSans-109"/>
      <path d="M 30.421875 75.984375 
L 30.421875 -13.1875 
L 9.71875 -13.1875 
L 9.71875 -6.203125 
L 21.390625 -6.203125 
L 21.390625 69 
L 9.71875 69 
L 9.71875 75.984375 
z
" id="DejaVuSans-93"/>
     </defs>
     <g transform="translate(188.06 335.862125)scale(0.1 -0.1)">
      <use transform="translate(0 0.015625)" xlink:href="#DejaVuSans-87"/>
      <use transform="translate(98.876953 0.015625)" xlink:href="#DejaVuSans-97"/>
      <use transform="translate(160.15625 0.015625)" xlink:href="#DejaVuSans-118"/>
      <use transform="translate(219.335938 0.015625)" xlink:href="#DejaVuSans-101"/>
      <use transform="translate(280.859375 0.015625)" xlink:href="#DejaVuSans-108"/>
      <use transform="translate(308.642578 0.015625)" xlink:href="#DejaVuSans-101"/>
      <use transform="translate(370.166016 0.015625)" xlink:href="#DejaVuSans-110"/>
      <use transform="translate(433.544922 0.015625)" xlink:href="#DejaVuSans-103"/>
      <use transform="translate(497.021484 0.015625)" xlink:href="#DejaVuSans-116"/>
      <use transform="translate(536.230469 0.015625)" xlink:href="#DejaVuSans-104"/>
      <use transform="translate(599.609375 0.015625)" xlink:href="#DejaVuSans-32"/>
      <use transform="translate(631.396484 0.015625)" xlink:href="#DejaVuSans-Oblique-955"/>
      <use transform="translate(690.576172 0.015625)" xlink:href="#DejaVuSans-32"/>
      <use transform="translate(722.363281 0.015625)" xlink:href="#DejaVuSans-91"/>
      <use transform="translate(761.376953 0.015625)" xlink:href="#DejaVuSans-110"/>
      <use transform="translate(824.755859 0.015625)" xlink:href="#DejaVuSans-109"/>
      <use transform="translate(922.167969 0.015625)" xlink:href="#DejaVuSans-93"/>
     </g>
    </g>
   </g>
   <g id="matplotlib.axis_2">
    <g id="ytick_1">
     <g id="line2d_15">
      <path clip-path="url(#pdff89bfa18)" d="M 57.6 306.811063 
L 414.72 306.811063 
" style="fill:none;stroke:#b0b0b0;stroke-linecap:square;stroke-width:0.8;"/>
     </g>
     <g id="line2d_16">
      <defs>
       <path d="M 0 0 
L -3.5 0 
" id="m0037ed7d7c" style="stroke:#000000;stroke-width:0.8;"/>
      </defs>
      <g>
       <use style="stroke:#000000;stroke-width:0.8;" x="57.6" xlink:href="#m0037ed7d7c" y="306.811063"/>
      </g>
     </g>
     <g id="text_9">
      <!-- 0.0 -->
      <defs>
       <path d="M 10.6875 12.40625 
L 21 12.40625 
L 21 0 
L 10.6875 0 
z
" id="DejaVuSans-46"/>
      </defs>
      <g transform="translate(34.696875 310.610282)scale(0.1 -0.1)">
       <use xlink:href="#DejaVuSans-48"/>
       <use x="63.623047" xlink:href="#DejaVuSans-46"/>
       <use x="95.410156" xlink:href="#DejaVuSans-48"/>
      </g>
     </g>
    </g>
    <g id="ytick_2">
     <g id="line2d_17">
      <path clip-path="url(#pdff89bfa18)" d="M 57.6 256.16245 
L 414.72 256.16245 
" style="fill:none;stroke:#b0b0b0;stroke-linecap:square;stroke-width:0.8;"/>
     </g>
     <g id="line2d_18">
      <g>
       <use style="stroke:#000000;stroke-width:0.8;" x="57.6" xlink:href="#m0037ed7d7c" y="256.16245"/>
      </g>
     </g>
     <g id="text_10">
      <!-- 0.2 -->
      <defs>
       <path d="M 19.1875 8.296875 
L 53.609375 8.296875 
L 53.609375 0 
L 7.328125 0 
L 7.328125 8.296875 
Q 12.9375 14.109375 22.625 23.890625 
Q 32.328125 33.6875 34.8125 36.53125 
Q 39.546875 41.84375 41.421875 45.53125 
Q 43.3125 49.21875 43.3125 52.78125 
Q 43.3125 58.59375 39.234375 62.25 
Q 35.15625 65.921875 28.609375 65.921875 
Q 23.96875 65.921875 18.8125 64.3125 
Q 13.671875 62.703125 7.8125 59.421875 
L 7.8125 69.390625 
Q 13.765625 71.78125 18.9375 73 
Q 24.125 74.21875 28.421875 74.21875 
Q 39.75 74.21875 46.484375 68.546875 
Q 53.21875 62.890625 53.21875 53.421875 
Q 53.21875 48.921875 51.53125 44.890625 
Q 49.859375 40.875 45.40625 35.40625 
Q 44.1875 33.984375 37.640625 27.21875 
Q 31.109375 20.453125 19.1875 8.296875 
z
" id="DejaVuSans-50"/>
      </defs>
      <g transform="translate(34.696875 259.961669)scale(0.1 -0.1)">
       <use xlink:href="#DejaVuSans-48"/>
       <use x="63.623047" xlink:href="#DejaVuSans-46"/>
       <use x="95.410156" xlink:href="#DejaVuSans-50"/>
      </g>
     </g>
    </g>
    <g id="ytick_3">
     <g id="line2d_19">
      <path clip-path="url(#pdff89bfa18)" d="M 57.6 205.513838 
L 414.72 205.513838 
" style="fill:none;stroke:#b0b0b0;stroke-linecap:square;stroke-width:0.8;"/>
     </g>
     <g id="line2d_20">
      <g>
       <use style="stroke:#000000;stroke-width:0.8;" x="57.6" xlink:href="#m0037ed7d7c" y="205.513838"/>
      </g>
     </g>
     <g id="text_11">
      <!-- 0.4 -->
      <g transform="translate(34.696875 209.313056)scale(0.1 -0.1)">
       <use xlink:href="#DejaVuSans-48"/>
       <use x="63.623047" xlink:href="#DejaVuSans-46"/>
       <use x="95.410156" xlink:href="#DejaVuSans-52"/>
      </g>
     </g>
    </g>
    <g id="ytick_4">
     <g id="line2d_21">
      <path clip-path="url(#pdff89bfa18)" d="M 57.6 154.865225 
L 414.72 154.865225 
" style="fill:none;stroke:#b0b0b0;stroke-linecap:square;stroke-width:0.8;"/>
     </g>
     <g id="line2d_22">
      <g>
       <use style="stroke:#000000;stroke-width:0.8;" x="57.6" xlink:href="#m0037ed7d7c" y="154.865225"/>
      </g>
     </g>
     <g id="text_12">
      <!-- 0.6 -->
      <g transform="translate(34.696875 158.664444)scale(0.1 -0.1)">
       <use xlink:href="#DejaVuSans-48"/>
       <use x="63.623047" xlink:href="#DejaVuSans-46"/>
       <use x="95.410156" xlink:href="#DejaVuSans-54"/>
      </g>
     </g>
    </g>
    <g id="ytick_5">
     <g id="line2d_23">
      <path clip-path="url(#pdff89bfa18)" d="M 57.6 104.216613 
L 414.72 104.216613 
" style="fill:none;stroke:#b0b0b0;stroke-linecap:square;stroke-width:0.8;"/>
     </g>
     <g id="line2d_24">
      <g>
       <use style="stroke:#000000;stroke-width:0.8;" x="57.6" xlink:href="#m0037ed7d7c" y="104.216613"/>
      </g>
     </g>
     <g id="text_13">
      <!-- 0.8 -->
      <g transform="translate(34.696875 108.015831)scale(0.1 -0.1)">
       <use xlink:href="#DejaVuSans-48"/>
       <use x="63.623047" xlink:href="#DejaVuSans-46"/>
       <use x="95.410156" xlink:href="#DejaVuSans-56"/>
      </g>
     </g>
    </g>
    <g id="ytick_6">
     <g id="line2d_25">
      <path clip-path="url(#pdff89bfa18)" d="M 57.6 53.568 
L 414.72 53.568 
" style="fill:none;stroke:#b0b0b0;stroke-linecap:square;stroke-width:0.8;"/>
     </g>
     <g id="line2d_26">
      <g>
       <use style="stroke:#000000;stroke-width:0.8;" x="57.6" xlink:href="#m0037ed7d7c" y="53.568"/>
      </g>
     </g>
     <g id="text_14">
      <!-- 1.0 -->
      <g transform="translate(34.696875 57.367219)scale(0.1 -0.1)">
       <use xlink:href="#DejaVuSans-49"/>
       <use x="63.623047" xlink:href="#DejaVuSans-46"/>
       <use x="95.410156" xlink:href="#DejaVuSans-48"/>
      </g>
     </g>
    </g>
    <g id="text_15">
     <!-- Relative Response -->
     <defs>
      <path d="M 44.390625 34.1875 
Q 47.5625 33.109375 50.5625 29.59375 
Q 53.5625 26.078125 56.59375 19.921875 
L 66.609375 0 
L 56 0 
L 46.6875 18.703125 
Q 43.0625 26.03125 39.671875 28.421875 
Q 36.28125 30.8125 30.421875 30.8125 
L 19.671875 30.8125 
L 19.671875 0 
L 9.8125 0 
L 9.8125 72.90625 
L 32.078125 72.90625 
Q 44.578125 72.90625 50.734375 67.671875 
Q 56.890625 62.453125 56.890625 51.90625 
Q 56.890625 45.015625 53.6875 40.46875 
Q 50.484375 35.9375 44.390625 34.1875 
z
M 19.671875 64.796875 
L 19.671875 38.921875 
L 32.078125 38.921875 
Q 39.203125 38.921875 42.84375 42.21875 
Q 46.484375 45.515625 46.484375 51.90625 
Q 46.484375 58.296875 42.84375 61.546875 
Q 39.203125 64.796875 32.078125 64.796875 
z
" id="DejaVuSans-82"/>
      <path d="M 9.421875 54.6875 
L 18.40625 54.6875 
L 18.40625 0 
L 9.421875 0 
z
M 9.421875 75.984375 
L 18.40625 75.984375 
L 18.40625 64.59375 
L 9.421875 64.59375 
z
" id="DejaVuSans-105"/>
      <path d="M 44.28125 53.078125 
L 44.28125 44.578125 
Q 40.484375 46.53125 36.375 47.5 
Q 32.28125 48.484375 27.875 48.484375 
Q 21.1875 48.484375 17.84375 46.4375 
Q 14.5 44.390625 14.5 40.28125 
Q 14.5 37.15625 16.890625 35.375 
Q 19.28125 33.59375 26.515625 31.984375 
L 29.59375 31.296875 
Q 39.15625 29.25 43.1875 25.515625 
Q 47.21875 21.78125 47.21875 15.09375 
Q 47.21875 7.46875 41.1875 3.015625 
Q 35.15625 -1.421875 24.609375 -1.421875 
Q 20.21875 -1.421875 15.453125 -0.5625 
Q 10.6875 0.296875 5.421875 2 
L 5.421875 11.28125 
Q 10.40625 8.6875 15.234375 7.390625 
Q 20.0625 6.109375 24.8125 6.109375 
Q 31.15625 6.109375 34.5625 8.28125 
Q 37.984375 10.453125 37.984375 14.40625 
Q 37.984375 18.0625 35.515625 20.015625 
Q 33.0625 21.96875 24.703125 23.78125 
L 21.578125 24.515625 
Q 13.234375 26.265625 9.515625 29.90625 
Q 5.8125 33.546875 5.8125 39.890625 
Q 5.8125 47.609375 11.28125 51.796875 
Q 16.75 56 26.8125 56 
Q 31.78125 56 36.171875 55.265625 
Q 40.578125 54.546875 44.28125 53.078125 
z
" id="DejaVuSans-115"/>
      <path d="M 18.109375 8.203125 
L 18.109375 -20.796875 
L 9.078125 -20.796875 
L 9.078125 54.6875 
L 18.109375 54.6875 
L 18.109375 46.390625 
Q 20.953125 51.265625 25.265625 53.625 
Q 29.59375 56 35.59375 56 
Q 45.5625 56 51.78125 48.09375 
Q 58.015625 40.1875 58.015625 27.296875 
Q 58.015625 14.40625 51.78125 6.484375 
Q 45.5625 -1.421875 35.59375 -1.421875 
Q 29.59375 -1.421875 25.265625 0.953125 
Q 20.953125 3.328125 18.109375 8.203125 
z
M 48.6875 27.296875 
Q 48.6875 37.203125 44.609375 42.84375 
Q 40.53125 48.484375 33.40625 48.484375 
Q 26.265625 48.484375 22.1875 42.84375 
Q 18.109375 37.203125 18.109375 27.296875 
Q 18.109375 17.390625 22.1875 11.75 
Q 26.265625 6.109375 33.40625 6.109375 
Q 40.53125 6.109375 44.609375 11.75 
Q 48.6875 17.390625 48.6875 27.296875 
z
" id="DejaVuSans-112"/>
      <path d="M 30.609375 48.390625 
Q 23.390625 48.390625 19.1875 42.75 
Q 14.984375 37.109375 14.984375 27.296875 
Q 14.984375 17.484375 19.15625 11.84375 
Q 23.34375 6.203125 30.609375 6.203125 
Q 37.796875 6.203125 41.984375 11.859375 
Q 46.1875 17.53125 46.1875 27.296875 
Q 46.1875 37.015625 41.984375 42.703125 
Q 37.796875 48.390625 30.609375 48.390625 
z
M 30.609375 56 
Q 42.328125 56 49.015625 48.375 
Q 55.71875 40.765625 55.71875 27.296875 
Q 55.71875 13.875 49.015625 6.21875 
Q 42.328125 -1.421875 30.609375 -1.421875 
Q 18.84375 -1.421875 12.171875 6.21875 
Q 5.515625 13.875 5.515625 27.296875 
Q 5.515625 40.765625 12.171875 48.375 
Q 18.84375 56 30.609375 56 
z
" id="DejaVuSans-111"/>
     </defs>
     <g transform="translate(28.617187 220.738937)rotate(-90)scale(0.1 -0.1)">
      <use xlink:href="#DejaVuSans-82"/>
      <use x="69.419922" xlink:href="#DejaVuSans-101"/>
      <use x="130.943359" xlink:href="#DejaVuSans-108"/>
      <use x="158.726562" xlink:href="#DejaVuSans-97"/>
      <use x="220.005859" xlink:href="#DejaVuSans-116"/>
      <use x="259.214844" xlink:href="#DejaVuSans-105"/>
      <use x="286.998047" xlink:href="#DejaVuSans-118"/>
      <use x="346.177734" xlink:href="#DejaVuSans-101"/>
      <use x="407.701172" xlink:href="#DejaVuSans-32"/>
      <use x="439.488281" xlink:href="#DejaVuSans-82"/>
      <use x="508.908203" xlink:href="#DejaVuSans-101"/>
      <use x="570.431641" xlink:href="#DejaVuSans-115"/>
      <use x="622.53125" xlink:href="#DejaVuSans-112"/>
      <use x="686.007812" xlink:href="#DejaVuSans-111"/>
      <use x="747.189453" xlink:href="#DejaVuSans-110"/>
      <use x="810.568359" xlink:href="#DejaVuSans-115"/>
      <use x="862.667969" xlink:href="#DejaVuSans-101"/>
     </g>
    </g>
   </g>
   <g id="line2d_27">
    <path clip-path="url(#pdff89bfa18)" d="M 73.832727 237.535963 
L 75.464157 246.412759 
L 77.095587 252.969162 
L 78.727017 256.702279 
L 80.358447 214.054421 
L 81.989877 221.002778 
L 83.621307 224.565653 
L 85.252736 215.011511 
L 86.884166 213.781257 
L 88.515596 210.756303 
L 90.147026 201.657916 
L 91.778456 198.567135 
L 93.409886 195.061503 
L 95.041316 194.291918 
L 96.672746 181.590474 
L 98.304175 179.446976 
L 99.935605 177.520077 
L 101.567035 172.164067 
L 103.198465 170.868714 
L 104.829895 170.887321 
L 106.461325 166.925198 
L 108.092755 168.462075 
L 109.724185 170.416055 
L 111.355614 171.35478 
L 112.987044 168.118325 
L 114.618474 168.236004 
L 116.249904 175.445483 
L 117.881334 175.8614 
L 119.512764 183.539451 
L 121.144194 188.223842 
L 122.775624 198.154863 
L 124.407053 203.293311 
L 126.038483 215.490163 
L 127.669913 223.693558 
L 129.301343 228.153925 
L 130.932773 235.27185 
L 132.564203 244.33162 
L 134.195633 250.6952 
L 135.827063 259.202855 
L 137.458492 265.522523 
L 139.089922 268.995044 
L 140.721352 273.33546 
L 143.984212 279.97964 
L 145.615642 281.777533 
L 147.247072 283.863227 
L 150.509931 285.553459 
L 153.772791 288.511565 
L 155.404221 289.575738 
L 158.667081 292.200591 
L 160.298511 293.134741 
L 163.56137 293.627475 
L 165.1928 294.00762 
L 168.45566 293.874988 
L 171.71852 293.269043 
L 173.34995 292.316641 
L 176.61281 291.558661 
L 178.244239 291.800928 
L 179.875669 291.801292 
L 181.507099 292.010648 
L 189.664249 294.726889 
L 191.295678 295.076736 
L 194.558538 295.488 
L 197.821398 295.164961 
L 201.084258 294.963488 
L 202.715688 294.458732 
L 205.978547 293.963332 
L 207.609977 293.21438 
L 209.241407 292.292151 
L 210.872837 291.648219 
L 215.767127 289.186424 
L 217.398556 288.743138 
L 219.029986 288.74586 
L 220.661416 288.117937 
L 222.292846 287.958482 
L 225.555706 287.271222 
L 227.187136 285.984567 
L 228.818566 285.148938 
L 230.449995 284.178725 
L 232.081425 282.850823 
L 235.344285 281.801215 
L 236.975715 281.527127 
L 240.238575 281.436696 
L 241.870005 281.685991 
L 243.501434 281.752988 
L 245.132864 282.096059 
L 246.764294 282.200758 
L 248.395724 282.484663 
L 250.027154 282.585808 
L 253.290014 282.960536 
L 254.921444 282.934497 
L 258.184303 283.101587 
L 261.447163 282.358573 
L 263.078593 281.804858 
L 264.710023 281.055762 
L 266.341453 280.430714 
L 267.972883 279.128318 
L 269.604312 277.657458 
L 271.235742 276.578582 
L 272.867172 275.079365 
L 274.498602 272.655955 
L 277.761462 268.31639 
L 281.024322 262.189666 
L 282.655751 252.925706 
L 284.287181 241.641044 
L 285.918611 232.223654 
L 287.550041 219.096025 
L 289.181471 208.129177 
L 290.812901 192.306909 
L 292.444331 181.145474 
L 294.075761 171.029553 
L 295.70719 164.786185 
L 297.33862 156.680885 
L 298.97005 153.716571 
L 300.60148 152.674476 
L 302.23291 152.045115 
L 303.86434 153.256329 
L 305.49577 155.349717 
L 307.1272 158.986761 
L 308.75863 163.561909 
L 310.390059 165.576247 
L 312.021489 168.434642 
L 313.652919 169.80486 
L 315.284349 171.717383 
L 316.915779 172.570456 
L 318.547209 175.289068 
L 320.178639 175.382025 
L 321.810069 176.490259 
L 323.441498 178.346649 
L 325.072928 179.306443 
L 326.704358 180.548217 
L 328.335788 180.547886 
L 329.967218 182.282172 
L 331.598648 182.992655 
L 333.230078 187.253824 
L 336.492937 193.532591 
L 338.124367 200.539822 
L 339.755797 204.591105 
L 341.387227 211.199592 
L 343.018657 213.240575 
L 344.650087 216.212437 
L 347.912947 219.314424 
L 349.544376 222.088838 
L 351.175806 221.820569 
L 352.807236 224.297587 
L 356.070096 230.065586 
L 357.701526 229.401596 
L 359.332956 233.105386 
L 360.964386 234.80395 
L 362.595815 238.052126 
L 364.227245 239.478948 
L 365.858675 241.927269 
L 367.490105 243.357075 
L 369.121535 247.137189 
L 370.752965 249.650373 
L 372.384395 252.717443 
L 374.015825 255.188393 
L 377.278684 259.241642 
L 378.910114 261.638409 
L 382.172974 265.238306 
L 383.804404 267.635859 
L 387.067264 270.59543 
L 388.698693 271.777136 
L 390.330123 273.53423 
L 393.592983 275.702509 
L 395.224413 277.578044 
L 398.487273 279.143813 
L 398.487273 279.143813 
" style="fill:none;stroke:#0000ff;stroke-dasharray:9.6,2.4,1.5,2.4;stroke-dashoffset:0;stroke-width:1.5;"/>
   </g>
   <g id="line2d_28">
    <path clip-path="url(#pdff89bfa18)" d="M 73.832727 288.282544 
L 75.464157 291.117895 
L 77.095587 293.643989 
L 78.727017 295.278806 
L 80.358447 286.099742 
L 81.989877 288.382571 
L 83.621307 289.69213 
L 85.252736 288.297294 
L 86.884166 289.427795 
L 88.515596 290.351821 
L 90.147026 290.1672 
L 93.409886 290.893322 
L 95.041316 290.926779 
L 96.672746 290.682718 
L 98.304175 290.701252 
L 99.935605 291.158857 
L 101.567035 290.799267 
L 103.198465 290.693721 
L 104.829895 290.393437 
L 106.461325 288.392876 
L 108.092755 287.400617 
L 109.724185 284.662369 
L 111.355614 281.060694 
L 112.987044 276.040067 
L 114.618474 273.725601 
L 116.249904 270.229265 
L 117.881334 267.858863 
L 119.512764 267.011405 
L 121.144194 266.553217 
L 122.775624 262.924477 
L 124.407053 261.518351 
L 126.038483 255.967277 
L 127.669913 248.368369 
L 129.301343 236.363584 
L 130.932773 221.917575 
L 134.195633 189.830719 
L 135.827063 175.501374 
L 137.458492 159.217122 
L 139.089922 140.982075 
L 140.721352 126.053595 
L 143.984212 108.021159 
L 145.615642 101.401566 
L 147.247072 100.125765 
L 148.878502 97.740224 
L 150.509931 90.279756 
L 152.141361 85.389371 
L 153.772791 88.54916 
L 155.404221 87.948139 
L 157.035651 92.683496 
L 158.667081 96.456979 
L 160.298511 101.513619 
L 161.929941 99.849134 
L 163.56137 102.73048 
L 165.1928 108.89026 
L 166.82423 111.421557 
L 168.45566 119.256956 
L 170.08709 125.185572 
L 171.71852 130.610342 
L 173.34995 131.74231 
L 174.98138 133.839952 
L 176.61281 141.384408 
L 179.875669 162.425654 
L 181.507099 171.252864 
L 183.138529 184.391935 
L 184.769959 199.715638 
L 188.032819 221.44836 
L 189.664249 231.017244 
L 191.295678 239.429406 
L 194.558538 254.135496 
L 199.452828 264.832676 
L 202.715688 269.427371 
L 204.347117 271.487526 
L 210.872837 273.999788 
L 212.504267 273.999718 
L 214.135697 274.2567 
L 215.767127 274.313454 
L 219.029986 274.820145 
L 220.661416 273.75441 
L 222.292846 273.097069 
L 223.924276 271.119875 
L 225.555706 269.359779 
L 227.187136 265.168595 
L 230.449995 257.396155 
L 232.081425 252.239675 
L 233.712855 250.096047 
L 235.344285 246.727344 
L 238.607145 243.620683 
L 240.238575 241.874977 
L 241.870005 241.328756 
L 243.501434 240.344154 
L 246.764294 239.200845 
L 248.395724 238.799151 
L 251.658584 238.90035 
L 253.290014 239.879956 
L 256.552873 242.770121 
L 258.184303 243.445295 
L 259.815733 243.416874 
L 261.447163 242.721494 
L 263.078593 240.906414 
L 266.341453 233.365199 
L 267.972883 227.453049 
L 269.604312 222.577609 
L 272.867172 216.10014 
L 274.498602 210.427837 
L 276.130032 206.590869 
L 277.761462 203.748934 
L 279.392892 200.480345 
L 281.024322 199.527303 
L 282.655751 198.070915 
L 284.287181 197.401862 
L 285.918611 196.236076 
L 289.181471 191.574457 
L 290.812901 186.684626 
L 292.444331 182.737474 
L 294.075761 179.114653 
L 295.70719 176.410056 
L 297.33862 174.156356 
L 298.97005 173.565461 
L 300.60148 175.327365 
L 302.23291 176.465696 
L 303.86434 177.307899 
L 305.49577 178.535604 
L 307.1272 178.877734 
L 308.75863 179.630256 
L 310.390059 180.210568 
L 312.021489 181.554653 
L 313.652919 183.507106 
L 315.284349 185.805093 
L 316.915779 187.796468 
L 318.547209 190.705169 
L 320.178639 190.808048 
L 321.810069 191.63097 
L 323.441498 191.531225 
L 325.072928 192.149072 
L 326.704358 191.722381 
L 328.335788 191.600533 
L 329.967218 193.7691 
L 331.598648 195.064326 
L 333.230078 200.746805 
L 334.861508 204.0257 
L 336.492937 206.929364 
L 338.124367 211.852433 
L 339.755797 213.968247 
L 341.387227 217.856385 
L 343.018657 218.678651 
L 344.650087 220.117304 
L 347.912947 222.363393 
L 349.544376 225.458439 
L 351.175806 225.35323 
L 352.807236 228.220852 
L 354.438666 231.559537 
L 356.070096 234.234289 
L 357.701526 233.652869 
L 359.332956 236.893169 
L 360.964386 238.309048 
L 362.595815 240.780838 
L 364.227245 241.967792 
L 365.858675 244.022195 
L 367.490105 245.351323 
L 369.121535 249.220185 
L 370.752965 252.224635 
L 372.384395 255.840901 
L 374.015825 258.78124 
L 375.647254 261.177596 
L 377.278684 263.332593 
L 378.910114 265.672808 
L 382.172974 268.573322 
L 383.804404 270.403694 
L 385.435834 271.261495 
L 387.067264 272.269156 
L 388.698693 273.004045 
L 390.330123 274.333548 
L 393.592983 276.230901 
L 395.224413 278.15446 
L 398.487273 280.191575 
L 398.487273 280.191575 
" style="fill:none;stroke:#008000;stroke-dasharray:1.5,2.475;stroke-dashoffset:0;stroke-width:1.5;"/>
   </g>
   <g id="line2d_29">
    <path clip-path="url(#pdff89bfa18)" d="M 73.832727 276.127996 
L 75.464157 280.936723 
L 77.095587 285.34538 
L 78.727017 288.220416 
L 80.358447 273.346563 
L 81.989877 277.347669 
L 83.621307 279.618264 
L 85.252736 277.643264 
L 88.515596 282.051319 
L 90.147026 282.589028 
L 93.409886 285.629049 
L 95.041316 285.974031 
L 96.672746 287.781051 
L 98.304175 288.139885 
L 99.935605 289.747236 
L 101.567035 290.244144 
L 103.198465 291.013509 
L 104.829895 291.929214 
L 106.461325 292.455182 
L 108.092755 292.835869 
L 109.724185 293.349159 
L 111.355614 293.640874 
L 112.987044 293.448769 
L 114.618474 293.461051 
L 116.249904 293.805671 
L 117.881334 293.587464 
L 119.512764 294.095132 
L 124.407053 294.738058 
L 126.038483 295.159025 
L 127.669913 295.354893 
L 129.301343 295.07363 
L 132.564203 294.737351 
L 135.827063 293.298454 
L 137.458492 291.877736 
L 140.721352 288.162044 
L 142.352782 287.023003 
L 143.984212 286.561499 
L 145.615642 286.802845 
L 147.247072 288.23312 
L 148.878502 289.201512 
L 152.141361 291.736152 
L 153.772791 292.460737 
L 157.035651 292.561345 
L 160.298511 291.870209 
L 161.929941 290.64074 
L 163.56137 289.630189 
L 165.1928 288.053119 
L 166.82423 283.95664 
L 168.45566 269.876047 
L 170.08709 239.133587 
L 171.71852 204.758201 
L 173.34995 143.41614 
L 174.98138 111.981064 
L 176.61281 82.988399 
L 178.244239 74.806932 
L 179.875669 59.816278 
L 181.507099 53.568 
L 183.138529 57.661894 
L 184.769959 60.877885 
L 186.401389 62.988844 
L 188.032819 64.696695 
L 189.664249 66.189863 
L 191.295678 66.456495 
L 192.927108 65.498277 
L 194.558538 66.171905 
L 196.189968 61.899972 
L 197.821398 63.675776 
L 199.452828 70.07465 
L 201.084258 75.452138 
L 202.715688 76.005622 
L 204.347117 79.000591 
L 205.978547 78.171442 
L 207.609977 74.119182 
L 209.241407 75.969588 
L 210.872837 80.141552 
L 212.504267 79.526056 
L 215.767127 80.701685 
L 217.398556 88.280195 
L 219.029986 94.985562 
L 220.661416 99.971868 
L 222.292846 108.049741 
L 223.924276 114.153707 
L 225.555706 115.534791 
L 227.187136 109.256595 
L 228.818566 108.727463 
L 230.449995 108.949305 
L 232.081425 108.381793 
L 233.712855 108.992446 
L 235.344285 111.892246 
L 236.975715 115.965656 
L 238.607145 118.5769 
L 240.238575 120.407432 
L 241.870005 123.992506 
L 243.501434 126.053715 
L 245.132864 128.862991 
L 246.764294 129.416047 
L 248.395724 129.649373 
L 250.027154 129.464651 
L 251.658584 129.73075 
L 253.290014 132.422503 
L 254.921444 137.79824 
L 256.552873 142.350919 
L 258.184303 144.635204 
L 261.447163 146.492849 
L 263.078593 144.451127 
L 264.710023 139.654251 
L 266.341453 135.551848 
L 267.972883 133.120997 
L 269.604312 130.240051 
L 271.235742 132.043147 
L 272.867172 131.656145 
L 276.130032 128.395723 
L 277.761462 127.400607 
L 279.392892 125.572299 
L 281.024322 127.180974 
L 282.655751 132.567959 
L 284.287181 139.15774 
L 285.918611 142.648776 
L 287.550041 145.674671 
L 289.181471 146.940324 
L 290.812901 146.098147 
L 294.075761 142.98935 
L 295.70719 141.20215 
L 297.33862 141.037638 
L 298.97005 141.534323 
L 300.60148 145.463331 
L 302.23291 148.631956 
L 303.86434 152.85392 
L 305.49577 155.050077 
L 307.1272 157.878401 
L 308.75863 161.651805 
L 310.390059 163.719388 
L 312.021489 167.379102 
L 313.652919 170.707853 
L 315.284349 173.544152 
L 316.915779 175.665956 
L 318.547209 178.830018 
L 320.178639 179.063277 
L 321.810069 179.743659 
L 323.441498 179.74418 
L 325.072928 180.505364 
L 326.704358 180.745543 
L 328.335788 180.691027 
L 329.967218 183.677137 
L 331.598648 185.392055 
L 333.230078 192.691565 
L 334.861508 196.778248 
L 336.492937 200.35045 
L 338.124367 206.477221 
L 339.755797 209.082366 
L 341.387227 213.19623 
L 343.018657 213.979057 
L 344.650087 215.357826 
L 346.281517 216.233314 
L 347.912947 217.32084 
L 349.544376 220.359449 
L 351.175806 220.240976 
L 352.807236 223.481401 
L 354.438666 227.234106 
L 356.070096 230.248437 
L 357.701526 229.72068 
L 359.332956 233.434493 
L 360.964386 235.076083 
L 362.595815 237.93133 
L 364.227245 239.163061 
L 365.858675 241.343626 
L 367.490105 242.631883 
L 369.121535 246.501443 
L 370.752965 249.38399 
L 372.384395 252.835535 
L 374.015825 255.672282 
L 378.910114 262.478729 
L 380.541544 264.001919 
L 382.172974 265.684048 
L 383.804404 267.78381 
L 387.067264 270.180748 
L 388.698693 271.067058 
L 390.330123 272.549343 
L 393.592983 274.340672 
L 395.224413 276.159454 
L 398.487273 277.764549 
L 398.487273 277.764549 
" style="fill:none;stroke:#ff0000;stroke-linecap:square;stroke-width:1.5;"/>
   </g>
   <g id="patch_3">
    <path d="M 57.6 307.584 
L 57.6 41.472 
" style="fill:none;stroke:#000000;stroke-linecap:square;stroke-linejoin:miter;stroke-width:0.8;"/>
   </g>
   <g id="patch_4">
    <path d="M 414.72 307.584 
L 414.72 41.472 
" style="fill:none;stroke:#000000;stroke-linecap:square;stroke-linejoin:miter;stroke-width:0.8;"/>
   </g>
   <g id="patch_5">
    <path d="M 57.6 307.584 
L 414.72 307.584 
" style="fill:none;stroke:#000000;stroke-linecap:square;stroke-linejoin:miter;stroke-width:0.8;"/>
   </g>
   <g id="patch_6">
    <path d="M 57.6 41.472 
L 414.72 41.472 
" style="fill:none;stroke:#000000;stroke-linecap:square;stroke-linejoin:miter;stroke-width:0.8;"/>
   </g>
   <g id="legend_1">
    <g id="patch_7">
     <path d="M 345.22 93.506375 
L 407.72 93.506375 
Q 409.72 93.506375 409.72 91.506375 
L 409.72 48.472 
Q 409.72 46.472 407.72 46.472 
L 345.22 46.472 
Q 343.22 46.472 343.22 48.472 
L 343.22 91.506375 
Q 343.22 93.506375 345.22 93.506375 
z
" style="fill:#ffffff;opacity:0.8;stroke:#cccccc;stroke-linejoin:miter;"/>
    </g>
    <g id="line2d_30">
     <path d="M 347.22 54.570438 
L 367.22 54.570438 
" style="fill:none;stroke:#0000ff;stroke-dasharray:9.6,2.4,1.5,2.4;stroke-dashoffset:0;stroke-width:1.5;"/>
    </g>
    <g id="line2d_31"/>
    <g id="text_16">
     <!-- Blue -->
     <defs>
      <path d="M 19.671875 34.8125 
L 19.671875 8.109375 
L 35.5 8.109375 
Q 43.453125 8.109375 47.28125 11.40625 
Q 51.125 14.703125 51.125 21.484375 
Q 51.125 28.328125 47.28125 31.5625 
Q 43.453125 34.8125 35.5 34.8125 
z
M 19.671875 64.796875 
L 19.671875 42.828125 
L 34.28125 42.828125 
Q 41.5 42.828125 45.03125 45.53125 
Q 48.578125 48.25 48.578125 53.8125 
Q 48.578125 59.328125 45.03125 62.0625 
Q 41.5 64.796875 34.28125 64.796875 
z
M 9.8125 72.90625 
L 35.015625 72.90625 
Q 46.296875 72.90625 52.390625 68.21875 
Q 58.5 63.53125 58.5 54.890625 
Q 58.5 48.1875 55.375 44.234375 
Q 52.25 40.28125 46.1875 39.3125 
Q 53.46875 37.75 57.5 32.78125 
Q 61.53125 27.828125 61.53125 20.40625 
Q 61.53125 10.640625 54.890625 5.3125 
Q 48.25 0 35.984375 0 
L 9.8125 0 
z
" id="DejaVuSans-66"/>
      <path d="M 8.5 21.578125 
L 8.5 54.6875 
L 17.484375 54.6875 
L 17.484375 21.921875 
Q 17.484375 14.15625 20.5 10.265625 
Q 23.53125 6.390625 29.59375 6.390625 
Q 36.859375 6.390625 41.078125 11.03125 
Q 45.3125 15.671875 45.3125 23.6875 
L 45.3125 54.6875 
L 54.296875 54.6875 
L 54.296875 0 
L 45.3125 0 
L 45.3125 8.40625 
Q 42.046875 3.421875 37.71875 1 
Q 33.40625 -1.421875 27.6875 -1.421875 
Q 18.265625 -1.421875 13.375 4.4375 
Q 8.5 10.296875 8.5 21.578125 
z
M 31.109375 56 
z
" id="DejaVuSans-117"/>
     </defs>
     <g transform="translate(375.22 58.070438)scale(0.1 -0.1)">
      <use xlink:href="#DejaVuSans-66"/>
      <use x="68.603516" xlink:href="#DejaVuSans-108"/>
      <use x="96.386719" xlink:href="#DejaVuSans-117"/>
      <use x="159.765625" xlink:href="#DejaVuSans-101"/>
     </g>
    </g>
    <g id="line2d_32">
     <path d="M 347.22 69.248563 
L 367.22 69.248563 
" style="fill:none;stroke:#008000;stroke-dasharray:1.5,2.475;stroke-dashoffset:0;stroke-width:1.5;"/>
    </g>
    <g id="line2d_33"/>
    <g id="text_17">
     <!-- Green -->
     <defs>
      <path d="M 59.515625 10.40625 
L 59.515625 29.984375 
L 43.40625 29.984375 
L 43.40625 38.09375 
L 69.28125 38.09375 
L 69.28125 6.78125 
Q 63.578125 2.734375 56.6875 0.65625 
Q 49.8125 -1.421875 42 -1.421875 
Q 24.90625 -1.421875 15.25 8.5625 
Q 5.609375 18.5625 5.609375 36.375 
Q 5.609375 54.25 15.25 64.234375 
Q 24.90625 74.21875 42 74.21875 
Q 49.125 74.21875 55.546875 72.453125 
Q 61.96875 70.703125 67.390625 67.28125 
L 67.390625 56.78125 
Q 61.921875 61.421875 55.765625 63.765625 
Q 49.609375 66.109375 42.828125 66.109375 
Q 29.4375 66.109375 22.71875 58.640625 
Q 16.015625 51.171875 16.015625 36.375 
Q 16.015625 21.625 22.71875 14.15625 
Q 29.4375 6.6875 42.828125 6.6875 
Q 48.046875 6.6875 52.140625 7.59375 
Q 56.25 8.5 59.515625 10.40625 
z
" id="DejaVuSans-71"/>
      <path d="M 41.109375 46.296875 
Q 39.59375 47.171875 37.8125 47.578125 
Q 36.03125 48 33.890625 48 
Q 26.265625 48 22.1875 43.046875 
Q 18.109375 38.09375 18.109375 28.8125 
L 18.109375 0 
L 9.078125 0 
L 9.078125 54.6875 
L 18.109375 54.6875 
L 18.109375 46.1875 
Q 20.953125 51.171875 25.484375 53.578125 
Q 30.03125 56 36.53125 56 
Q 37.453125 56 38.578125 55.875 
Q 39.703125 55.765625 41.0625 55.515625 
z
" id="DejaVuSans-114"/>
     </defs>
     <g transform="translate(375.22 72.748563)scale(0.1 -0.1)">
      <use xlink:href="#DejaVuSans-71"/>
      <use x="77.490234" xlink:href="#DejaVuSans-114"/>
      <use x="118.572266" xlink:href="#DejaVuSans-101"/>
      <use x="180.095703" xlink:href="#DejaVuSans-101"/>
      <use x="241.619141" xlink:href="#DejaVuSans-110"/>
     </g>
    </g>
    <g id="line2d_34">
     <path d="M 347.22 83.926688 
L 367.22 83.926688 
" style="fill:none;stroke:#ff0000;stroke-linecap:square;stroke-width:1.5;"/>
    </g>
    <g id="line2d_35"/>
    <g id="text_18">
     <!-- Red -->
     <defs>
      <path d="M 45.40625 46.390625 
L 45.40625 75.984375 
L 54.390625 75.984375 
L 54.390625 0 
L 45.40625 0 
L 45.40625 8.203125 
Q 42.578125 3.328125 38.25 0.953125 
Q 33.9375 -1.421875 27.875 -1.421875 
Q 17.96875 -1.421875 11.734375 6.484375 
Q 5.515625 14.40625 5.515625 27.296875 
Q 5.515625 40.1875 11.734375 48.09375 
Q 17.96875 56 27.875 56 
Q 33.9375 56 38.25 53.625 
Q 42.578125 51.265625 45.40625 46.390625 
z
M 14.796875 27.296875 
Q 14.796875 17.390625 18.875 11.75 
Q 22.953125 6.109375 30.078125 6.109375 
Q 37.203125 6.109375 41.296875 11.75 
Q 45.40625 17.390625 45.40625 27.296875 
Q 45.40625 37.203125 41.296875 42.84375 
Q 37.203125 48.484375 30.078125 48.484375 
Q 22.953125 48.484375 18.875 42.84375 
Q 14.796875 37.203125 14.796875 27.296875 
z
" id="DejaVuSans-100"/>
     </defs>
     <g transform="translate(375.22 87.426688)scale(0.1 -0.1)">
      <use xlink:href="#DejaVuSans-82"/>
      <use x="69.419922" xlink:href="#DejaVuSans-101"/>
      <use x="130.943359" xlink:href="#DejaVuSans-100"/>
     </g>
    </g>
   </g>
  </g>
 </g>
 <defs>
  <clipPath id="pdff89bfa18">
   <rect height="266.112" width="357.12" x="57.6" y="41.472"/>
  </clipPath>
 </defs>
</svg>
