<svg version="1.1" id="Ebene_1" xmlns="http://www.w3.org/2000/svg" xmlns:xlink="http://www.w3.org/1999/xlink" x="0" y="0" viewBox="0 0 1063 411" style="background-color:#fff" xml:space="preserve"><style>.st0{clip-path:url(#SVGID_2_);fill:none;stroke:#000;stroke-width:.425;stroke-linecap:round;stroke-linejoin:round}.st0,.st1{stroke-miterlimit:10}.st1,.st2,.st7,.st8{fill:none;stroke:#000;stroke-width:.283;stroke-linecap:round;stroke-linejoin:round}.st7{stroke-dasharray:.383,1.915}.st8{stroke-dasharray:5.746,1.915,.383,1.915}.st20{font-family:Helvetica,Arial,sans-serif}.st21{font-size:14.9998px}.st22{font-size:14.9996px}.st23{letter-spacing:-1}.st24{font-size:14.9997px}</style><defs><path id="SVGID_1_" d="M0 0h1063v411H0z"/></defs><clipPath id="SVGID_2_"><use xlink:href="#SVGID_1_" overflow="visible"/></clipPath><path class="st0" d="M964.7 106.3c0 .7.6 1.3 1.3 1.3.7 0 1.3-.6 1.3-1.3s-.6-1.3-1.3-1.3c-.8.1-1.3.6-1.3 1.3m-10.9 0c0 .7.6 1.3 1.3 1.3.7 0 1.3-.6 1.3-1.3s-.6-1.3-1.3-1.3-1.3.6-1.3 1.3m9.1 6.6c0 .7.6 1.3 1.3 1.3.7 0 1.3-.6 1.3-1.3 0-.7-.6-1.3-1.3-1.3-.8 0-1.3.6-1.3 1.3m-6.9 0c0 .7.6 1.3 1.3 1.3.7 0 1.3-.6 1.3-1.3 0-.7-.6-1.3-1.3-1.3-.8 0-1.3.6-1.3 1.3"/><path class="st0" d="M960.5 98.2c-5.5 0-10 4.5-10 10s4.5 10 10 10 10-4.5 10-10c0-5.6-4.5-10-10-10"/><path class="st0" d="M973.4 108.2c0-7.1-5.8-12.9-12.9-12.9-7.1 0-12.9 5.8-12.9 12.9 0 7.1 5.8 12.9 12.9 12.9 7.1 0 12.9-5.8 12.9-12.9m-26.9-6.4v13.1m0 0c.4.9.9 1.7 1.5 2.5m0 0l11.2 6.6m0 0c1 .1 1.9.1 2.9 0m11.3-6.6l-11.3 6.6m11.3-6.6c.6-.8 1.1-1.8 1.5-2.7m0-12.9v12.9m0-12.9c-.4-.9-.9-1.7-1.5-2.5"/><path class="st0" d="M948 99.3l11.2-6.6h2.9l11.3 6.6m-25.4 0c-.6.8-1 1.6-1.5 2.5m-436.3-8.9h-4.9m0 6.5l-.3-3.3.3-3.2m0 6.5h5.2m0 2.5h-5.2v-2.5m0 15.5l-.3-6.6.3-6.4m0 13h5.2m-5.2 0v2.5h5.2m-5.2 6.4l-.3-3.2.3-3.2m0 6.4h4.9m-22.4-24.1V117m3.6-18.4v19.5m2.1-18.9v18.4m2.9-18.4v18.4m2-20.6v22.5m2.8-22.5v22.5m2.2-20.3v18.4m7.1-24.7h-5.2m5.2 30.9h-5.2m-17-24.6c-.3.1-.5.3-.5.6m0 17.1c0 .3.2.6.5.6m.1-18.3l3-.6m-3 19l3 .5h1.4m0-19.5h-1.4m2.1 19l-.7.5m.7-18.9l-.7-.6m3.6 19h-2.9m4.9-20.6l-2 2.2h-2.9m2.9 18.4l2 1.9h2.8m0-22.5h-2.8m5 20.6l-2.2 1.9m2.2-20.3l-2.2-2.2m3.1 2.2h-.9m.9 0c.3 0 .6-.3.6-.6l.1-2.4m-1.6 21.4h.9c.3 0 .6.3.6.6l.1 2.4M67.4 332.4h340.2M53.4 318.2c0 7.8 6.3 14.2 14.1 14.2m-14.1-241v226.8m14-241.1c-7.8 0-14 6.5-14 14.3m368.5.1c0-7.8-6.4-14.3-14.2-14.3m-.1-.1H67.4m170.2 88.4c-29.5 0-53.4 23.9-53.4 53.4s23.9 53.4 53.4 53.4 53.4-23.9 53.4-53.4-23.9-53.4-53.4-53.4"/><path class="st0" d="M237.6 167.9c-28.2 0-51 22.8-51 51s22.8 51 51 51 51-22.8 51-51c.1-28.2-22.8-51-51-51m184.3 150.3V91.4m-14.3 241c7.8 0 14.2-6.4 14.2-14.2"/><path class="st0" d="M95.9 148.1h283.5v141.8H95.9zM67.4 80c-6.2 0-11.3 5.1-11.3 11.3m0 .1v226.8m0 0c0 6.2 5.2 11.3 11.4 11.3m-.1 0h340.2m0 0c6.2 0 11.3-5.1 11.3-11.3m.1 0V91.4m0 .1c0-6.2-5.1-11.4-11.3-11.4m-.1-.1H67.4"/><path class="st0" d="M237.6 158c-33.7 0-60.9 27.3-60.9 60.9 0 33.7 27.3 60.9 60.9 60.9 33.6 0 60.9-27.3 60.9-60.9.1-33.6-27.2-60.9-60.9-60.9m307 160.2v14.2h-34m0-14.2h34m-34 0v14.2m34-241v226.8m0-226.8h-34m0 0v226.8m34-226.8V77.1h-34v14.3m492.7 241H663.1m340.3 0c7.8 0 14.1-6.3 14.1-14.1m0-226.9v226.8m0-226.7c0-7.8-6.3-14.1-14.1-14.1m-340.2-.3c-7.8 0-14.1 6.5-14.1 14.3m14.1-14.3h340.1m-170 90.8c-28.2 0-51 22.8-51 51s22.8 51 51 51 51-22.8 51-51-22.9-51-51-51M666 99.8c3.1 0 5.7-2.5 5.7-5.7 0-3.1-2.5-5.7-5.7-5.7-3.1 0-5.7 2.5-5.7 5.7.1 3.2 2.6 5.7 5.7 5.7"/><path class="st0" d="M666 101.2c3.9 0 7.1-3.2 7.1-7.1 0-3.9-3.2-7.1-7.1-7.1-3.9 0-7.1 3.2-7.1 7.1m7.1 105.1c3.1 0 5.7-2.5 5.7-5.7 0-3.1-2.5-5.7-5.7-5.7-3.1 0-5.7 2.5-5.7 5.7.1 3.1 2.6 5.7 5.7 5.7"/><path class="st0" d="M666 200.6c3.9 0 7.1-3.2 7.1-7.1 0-3.9-3.2-7.1-7.1-7.1-3.9 0-7.1 3.2-7.1 7.1m133 69.6c1.6 0 2.8-1.3 2.8-2.8s-1.3-2.8-2.8-2.8-2.8 1.3-2.8 2.8c-.1 1.6 1.2 2.8 2.8 2.8"/><path class="st0" d="M791.9 264.6c2.3 0 4.3-1.9 4.3-4.3 0-2.3-1.9-4.3-4.3-4.3-2.3 0-4.3 1.9-4.3 4.3m87.1 2.8c1.6 0 2.8-1.3 2.8-2.8s-1.3-2.8-2.8-2.8-2.8 1.3-2.8 2.8c-.1 1.6 1.2 2.8 2.8 2.8"/><path class="st0" d="M874.7 264.6c2.3 0 4.3-1.9 4.3-4.3 0-2.3-1.9-4.3-4.3-4.3-2.3 0-4.3 1.9-4.3 4.3M666 223.8c2.7 0 4.9-2.2 5-4.9 0-2.7-2.2-4.9-4.9-5-2.7 0-5 2.2-5 4.9 0 2.8 2.2 5 4.9 5m334.5-9.9c-2.7 0-5 2.2-5 4.9s2.2 4.9 4.9 5c2.7 0 5-2.2 5-4.9s-2.2-5-4.9-5M649 318.2V91.4m0 226.9c0 7.8 6.3 14.1 14.1 14.1m128.8-152.1c1.6 0 2.8-1.3 2.8-2.8 0-1.6-1.3-2.8-2.8-2.8s-2.8 1.3-2.8 2.8c-.1 1.6 1.2 2.8 2.8 2.8"/><path class="st0" d="M791.9 181.8c2.3 0 4.3-1.9 4.3-4.3 0-2.3-1.9-4.3-4.3-4.3-2.3 0-4.3 1.9-4.3 4.3m87.1 2.8c1.6 0 2.8-1.3 2.8-2.8 0-1.6-1.3-2.8-2.8-2.8s-2.8 1.3-2.8 2.8c-.1 1.6 1.2 2.8 2.8 2.8"/><path class="st0" d="M874.7 181.8c2.3 0 4.3-1.9 4.3-4.3 0-2.3-1.9-4.3-4.3-4.3-2.3 0-4.3 1.9-4.3 4.3m130.1-77.7c3.1 0 5.7-2.5 5.7-5.7 0-3.1-2.5-5.7-5.7-5.7-3.1 0-5.7 2.5-5.7 5.7s2.5 5.7 5.7 5.7"/><path class="st0" d="M1000.5 101.2c3.9 0 7.1-3.2 7.1-7.1 0-3.9-3.2-7.1-7.1-7.1-3.9 0-7.1 3.2-7.1 7.1m7.1 105.1c3.1 0 5.7-2.5 5.7-5.7 0-3.1-2.5-5.7-5.7-5.7-3.1 0-5.7 2.5-5.7 5.7 0 3.1 2.5 5.7 5.7 5.7"/><path class="st0" d="M1000.5 200.6c3.9 0 7.1-3.2 7.1-7.1 0-3.9-3.2-7.1-7.1-7.1-3.9 0-7.1 3.2-7.1 7.1"/><path class="st1" d="M285.2 372.6l30.8-98.1"/><path class="st2" d="M672.2 47.2h322"/><path d="M673.6 49.3l-7.6-2.1 7.6-2zm319.2 0l7.7-2.1-7.7-2z"/><path class="st2" d="M1054.5 183.8V254"/><path d="M1052.4 185.2l2.1-7.7 2 7.7zm0 67.4l2.1 7.7 2-7.7z"/><path class="st2" d="M244.1 55.7h171.6"/><path d="M245.5 57.8l-7.7-2.1 7.7-2.1zm168.8 0l7.6-2.1-7.6-2.1z"/><path class="st2" d="M60 27.3h355.7"/><path d="M61.4 29.4l-7.7-2.1 7.7-2zm352.9 0l7.6-2.1-7.6-2z"/><path class="st1" d="M421.9 23v69.9M53.4 23v69.9m184.4-41v167M625.2 94.2h32.2m-32.2 99.3h32.2M625.2 77.6h35.9M649 89.3V43.9m17.1 50.5V45.7m334.4 48.7V45.7"/><path class="st2" d="M966.9 27.4h44.3"/><path d="M968.3 29.5l-7.7-2.1 7.7-2.1zm41.5 0l7.7-2.1-7.7-2.1z"/><path class="st1" d="M960.8 108.2V25.9m56.7 65.5V25.9M666 47.2h-15.7m407.5 130.3H875.2m182.6 82.8H875.2"/><path class="st2" d="M1054.5 266.6v59.7"/><path d="M1052.4 268l2.1-7.7 2 7.7zm0 56.9l2.1 7.7 2-7.7z"/><path class="st1" d="M1057.8 332.6H875.2"/><path class="st2" d="M1011.2 368.2H880.8"/><path d="M1009.8 366.1l7.7 2.1-7.7 2.1zm-127.6 0l-7.7 2.1 7.7 2.1z"/><path class="st1" d="M1017.5 371.5v-53.2m-143 53.2V260.3"/><path class="st2" d="M868.2 368.2h-69.9"/><path d="M866.8 366.1l7.7 2.1-7.7 2.1zm-67.1 0l-7.7 2.1 7.7 2.1z"/><path class="st1" d="M791.9 371.5V260.3"/><path class="st2" d="M643.9 47.2h-24.3"/><path d="M642.5 45.2l7.7 2-7.7 2.1z"/><path class="st2" d="M516.3 47.2h22"/><path d="M517.7 49.3l-7.7-2.1 7.7-2zm19.2 0l7.7-2.1-7.7-2z"/><path class="st1" d="M488 100.3V43.9m22.2 50.5V45.7m334.4 48.7V45.7m-300 31.4V45.7M510 47.2h-21.9"/><path class="st2" d="M481.7 47.2h-23.1"/><path d="M480.3 45.2l7.7 2-7.7 2.1z"/><path class="st1" d="M628.5 78.4v15.9"/><path class="st2" d="M628.5 100.5v86.7"/><path d="M626.5 101.9l2-7.7 2.1 7.7zm0 83.9l2 7.7 2.1-7.7z"/><path class="st2" d="M628.5 71.7v-15"/><path d="M630.6 70.3l-2.1 7.7-2-7.7z"/><path class="st1" d="M1057.8 76.8h-57.7m57.7 31.6h-97m93.7-1.1V76.7"/><path class="st2" d="M1054.5 70.5V58.7"/><path d="M1056.5 69.1l-2 7.7-2.1-7.7z"/><path class="st2" d="M1054.5 114v15"/><path d="M1052.4 115.4l2.1-7.6 2 7.6z"/><path class="st2" d="M784.8 268.9L764 295.6H658.6"/><path d="M781.9 268.7l7.6-5.8-3.7 8.8z"/><path class="st2" d="M675.6 104.5l20.9 26.7h120.8"/><path d="M674.7 107.4l-3.7-8.8 7.6 5.7z"/><path class="st2" d="M453.7 326.1V226"/><path d="M455.7 324.7l-2 7.7-2.1-7.7zm0-97.3l-2-7.6-2.1 7.6z"/><path class="st1" d="M237.5 219.1h217.3m-47.2 113.3h47.2"/><path class="st2" d="M23.1 326.1V83.4"/><path d="M25.1 324.7l-2 7.7-2.1-7.7zm0-239.9l-2-7.7-2.1 7.7z"/><path class="st1" d="M18.5 77.1H67M18.5 332.4H67"/><path class="st2" d="M206 250.5l63.3-63.2"/><path d="M208.4 251l-6.8 4 3.9-6.9zm61.3-61.3l4-6.9-6.9 4z"/><path class="st1" d="M273.7 182.8l10.6-10.6h38.4"/><path class="st2" d="M833.3 343.1v-4.3"/><path fill="none" stroke="#000" stroke-width=".283" stroke-linecap="round" stroke-linejoin="round" stroke-dasharray=".58,2.899" d="M833.3 335.9v-2"/><path fill="none" stroke="#000" stroke-width=".283" stroke-linecap="round" stroke-linejoin="round" stroke-dasharray="8.697,2.899,.58,2.899" d="M833.3 332.5V77.6"/><path class="st2" d="M833.3 76.2v-4.3m191.8 147h-4.3"/><path fill="none" stroke="#000" stroke-width=".283" stroke-linecap="round" stroke-linejoin="round" stroke-dasharray=".573,2.867" d="M1018 218.9h-2"/><path fill="none" stroke="#000" stroke-width=".283" stroke-linecap="round" stroke-linejoin="round" stroke-dasharray="8.602,2.867,.573,2.867" d="M1014.5 218.9H643.2"/><path class="st2" d="M641.8 218.9h-4.3m28.5-14v-4.3"/><path class="st7" d="M666 198.7v-1.4"/><path class="st8" d="M666 196.4v-9"/><path class="st2" d="M666 186.4v-4.2m11.4 11.3h-4.3"/><path class="st7" d="M671.2 193.5h-1.3"/><path class="st8" d="M668.9 193.5h-9"/><path class="st2" d="M658.9 193.5h-4.2M237.6 341.6v-4.3"/><path fill="none" stroke="#000" stroke-width=".283" stroke-linecap="round" stroke-linejoin="round" stroke-dasharray=".591,2.957" d="M237.6 334.3v-2"/><path fill="none" stroke="#000" stroke-width=".283" stroke-linecap="round" stroke-linejoin="round" stroke-dasharray="8.872,2.957,.591,2.957" d="M237.6 330.8V224.6"/><path class="st2" d="M237.6 223.2v-4.3m-.1 0h-4.2"/><path fill="none" stroke="#000" stroke-width=".283" stroke-linecap="round" stroke-linejoin="round" stroke-dasharray=".564,2.818" d="M230.5 218.9h-2"/><path fill="none" stroke="#000" stroke-width=".283" stroke-linecap="round" stroke-linejoin="round" stroke-dasharray="8.454,2.818,.564,2.818" d="M227.1 218.9H52.7"/><path class="st2" d="M51.3 218.9H47m953.5-14v-4.3"/><path class="st7" d="M1000.5 198.7v-1.4"/><path class="st8" d="M1000.5 196.4v-9"/><path class="st2" d="M1000.5 186.4v-4.2m11.3 11.3h-4.2"/><path class="st7" d="M1005.6 193.5h-1.3"/><path class="st8" d="M1003.3 193.5h-9"/><path class="st2" d="M993.4 193.5h-4.3m11.4-88v-4.3"/><path fill="none" stroke="#000" stroke-width=".283" stroke-linecap="round" stroke-linejoin="round" stroke-dasharray=".233,1.164" d="M1000.5 100.1v-.8"/><path class="st2" d="M1000.5 98.7v-4.3m11.3-.2h-4.2"/><path class="st7" d="M1005.6 94.2h-1.3"/><path class="st8" d="M1003.3 94.2h-9"/><path class="st2" d="M993.4 94.2h-4.3M666 105.5v-4.3"/><path fill="none" stroke="#000" stroke-width=".283" stroke-linecap="round" stroke-linejoin="round" stroke-dasharray=".258,1.288" d="M666 100v-.9"/><path class="st2" d="M666 98.4v-4.2m11.4 0h-4.3"/><path class="st7" d="M671.2 94.2h-1.3"/><path class="st8" d="M668.9 94.2h-9"/><path class="st2" d="M658.9 94.2h-4.2m-139 14.2h-4.2"/><path fill="none" stroke="#000" stroke-width=".283" stroke-linecap="round" stroke-linejoin="round" stroke-dasharray=".637,3.186" d="M508.3 108.4h-2.2"/><path fill="none" stroke="#000" stroke-width=".283" stroke-linecap="round" stroke-linejoin="round" stroke-dasharray="9.559,3.186,.637,3.186" d="M504.5 108.4h-15"/><path class="st2" d="M487.9 108.4h-4.3m308.3 80.4v-4.2"/><path class="st7" d="M791.9 182.7v-1.4"/><path class="st8" d="M791.9 180.4v-9"/><path class="st2" d="M791.9 170.4v-4.2m11.3 11.3h-4.3"/><path class="st7" d="M797 177.5h-1.3"/><path class="st8" d="M794.7 177.5h-9"/><path class="st2" d="M784.8 177.5h-4.3m94.2 11.3v-4.2"/><path class="st7" d="M874.7 182.7v-1.4"/><path class="st8" d="M874.7 180.4v-9"/><path class="st2" d="M874.7 170.4v-4.2m11.3 11.3h-4.3"/><path class="st7" d="M879.8 177.5h-1.3"/><path class="st8" d="M877.5 177.5h-9"/><path class="st2" d="M867.6 177.5h-4.3m11.4 94.1v-4.2"/><path class="st7" d="M874.7 265.5v-1.4"/><path class="st8" d="M874.7 263.2v-9"/><path class="st2" d="M874.7 253.2V249m11.3 11.3h-4.3"/><path class="st7" d="M879.8 260.3h-1.3"/><path class="st8" d="M877.5 260.3h-9"/><path class="st2" d="M867.6 260.3h-4.3m-71.4 11.3v-4.2"/><path class="st7" d="M791.9 265.5v-1.4"/><path class="st8" d="M791.9 263.2v-9"/><path class="st2" d="M791.9 253.2V249m11.3 11.3h-4.3"/><path class="st7" d="M797 260.3h-1.3"/><path class="st8" d="M794.7 260.3h-9"/><path class="st2" d="M784.8 260.3h-4.3m180.2-134.9v-4.3"/><path fill="none" stroke="#000" stroke-width=".283" stroke-linecap="round" stroke-linejoin="round" stroke-dasharray=".69,3.448" d="M960.7 117.7v-2.4"/><path fill="none" stroke="#000" stroke-width=".283" stroke-linecap="round" stroke-linejoin="round" stroke-dasharray="10.343,3.448,.69,3.448" d="M960.7 113.6V97.3"/><path class="st2" d="M960.7 95.6v-4.2m.1 17h-4.3"/><path fill="none" stroke="#000" stroke-width=".283" stroke-linecap="round" stroke-linejoin="round" stroke-dasharray=".78,3.898" d="M952.6 108.4h-2.7"/><path class="st2" d="M947.9 108.4h-4.2"/><text transform="translate(227.093 388.047)" class="st20 st21">50 × 100 (Luminous area)</text><text transform="translate(314.39 51.163)" class="st20 st22">65</text><text transform="translate(225.307 22.814)" class="st20 st22">130</text><text transform="translate(821.286 38.398)"><tspan x="0" y="0" class="st20 st22 st23">1</tspan><tspan x="7.2" y="0" class="st20 st22">18</tspan></text><text transform="translate(980.777 18.553)" class="st20 st22">20</text><text transform="rotate(-90 355.86 -265.32)" class="st20 st22">6</text><text transform="rotate(-90 386.692 -234.487)" class="st20 st22">35</text><text transform="rotate(-90 574.203 -474.423)"><tspan x="0" y="0" class="st20 st22 st23">1</tspan><tspan x="7.2" y="0" class="st20 st22">1</tspan></text><text transform="rotate(-90 641.139 -407.488)" class="st20 st22">29.2</text><text transform="rotate(-90 679.831 -368.795)" class="st20 st22">25.4</text><text transform="translate(929.081 362.372)" class="st20 st22">50.4</text><text transform="translate(818.653 362.372)" class="st20 st22">29.2</text><text transform="rotate(-90 112.658 94.108)" class="st20 st22">90</text><text transform="rotate(-90 368.673 -80.49)" class="st20 st22">40</text><text transform="translate(653.195 41.882)" class="st20 st22">6</text><text transform="translate(494.304 41.882)" class="st20 st22">8</text><text transform="translate(519.593 41.882)" class="st20 st22">12</text><text transform="translate(661.742 289.134)" class="st20 st24">4</text><text transform="translate(674.252 289.134)" class="st20 st24">× M3, 5 deep</text><text transform="translate(702.827 124.587)" class="st20 st24">4</text><text transform="translate(715.337 124.587)" class="st20 st24">× M4, 7.5 deep</text><text transform="translate(288.893 166.788)" class="st20 st22">Ø</text><text transform="translate(304.733 166.788)" class="st20 st22">36</text><text transform="translate(9.585 379.058)" class="st20 st21">Not to scale</text><text transform="translate(9.585 397.058)" class="st20 st21">Dimensions in mm</text></svg>