<svg version="1.1" id="Layer_1" xmlns="http://www.w3.org/2000/svg" x="0" y="0" viewBox="0 0 1000 450" style="enable-background:new 0 0 1000 450;background-color:#fff" xml:space="preserve"><style>.st2{fill:none;stroke:#000;stroke-miterlimit:3.864}.st3{fill-rule:evenodd;clip-rule:evenodd}.st4{fill:none;stroke:#000;stroke-linejoin:round;stroke-miterlimit:3.864}.st5{font-family:Helvetica,Arial,sans-serif}.st6{font-size:18px}.st15{fill:none;stroke:#000;stroke-width:.5;stroke-miterlimit:3.864}</style><path id="path153" d="M19.7 35.7h766v383.2h-766V35.7z" style="fill:none;stroke:#000;stroke-width:.51;stroke-linejoin:round;stroke-miterlimit:3.864;stroke-dasharray:8,4"/><path id="path155" class="st2" d="M379 366.4v-40.8m10.2 25.7h-20.4"/><path id="path157" class="st3" d="M389.2 339.2h-20.4l10.2 10.2 10.2-10.2z"/><path id="path159" class="st4" d="M389.2 339.2h-20.4l10.2 10.2 10.2-10.2zM378 325.6h96.7m-97 40.8h21.7"/><path id="path161" class="st3" d="M328.1 346v6.3l-15.7-6.3 15.7-6.3v6.3z"/><path id="path163" class="st4" d="M353.6 353.6H332l10.8-7.6h-15.7"/><path id="path165" class="st4" d="M253.5 313.4h157.2v65.7H253.5v-65.7zM446 277.6h57.3m-103.9 88.8h276.2m-381-35v31.1m-.1-9-14.2 14.2m165.6-90v-92.8m230.4 181.6V209.7m-174 68.1V185m-56.2.3h55.7m-28.6-.5v-64.5"/><path id="path167" class="st3" d="m290.8 364.4-7.2-7.2v7.2h7.2z"/><path id="path169" class="st4" d="m290.8 364.4-7.2-7.2v7.2h7.2zm3.8-24.7-14.2-14.1m-25.6.1h26.4m-28.3 41.9h26.4"/><path id="path171" class="st2" d="M474.8 326.3v-49"/><path id="path173" class="st4" d="M473.2 120.3h311.7"/><text transform="translate(795.11 56.744)" class="st5 st6">8-pin connector</text><path id="path181" class="st4" d="M785.7 66.3h34.9V257h-34.9V66.3z"/><text id="text185" transform="translate(795.91 125.99)" class="st5 st6">6</text><text id="text191" transform="translate(795.91 216.652)" class="st5 st6">5</text><text id="text195" transform="translate(52.25 79.816)" style="font-size:21px;font-family:Helvetica,Arial,sans-serif;font-weight:700">Camera (blaze-101)</text><path id="path197" class="st4" d="M927.7 120.5H820.6"/><path id="path199" d="M927.2 120.8c0-2.8 2.3-5.1 5.1-5.1s5.1 2.3 5.1 5.1-2.3 5.1-5.1 5.1-5.1-2.3-5.1-5.1z" style="fill:#fff"/><path id="path201" d="M927.2 120.8c0-2.8 2.3-5.1 5.1-5.1s5.1 2.3 5.1 5.1-2.3 5.1-5.1 5.1-5.1-2.3-5.1-5.1z" style="fill:none;stroke:#000;stroke-width:1.001;stroke-miterlimit:3.864"/><path id="path203" d="M960.9 143.4V97.7l-22.8 22.9 22.8 22.8z" style="fill-rule:evenodd;clip-rule:evenodd;fill:#fff"/><path id="path205" d="M960.9 143.4V97.7l-22.8 22.9 22.8 22.8z" style="fill:none;stroke:#000;stroke-width:1.001;stroke-linejoin:round;stroke-miterlimit:3.864"/><text id="text207" transform="translate(894.026 87.557)" class="st5 st6">Logic gate</text><text transform="rotate(-90 366.648 -102.521)" class="st5 st6">Current</text><text transform="rotate(-90 374.848 -117.021)" class="st5 st6">limiter</text><path id="path215" class="st4" d="M932.1 210H821.3"/><path id="path217" class="st2" d="M932 410.8V209.7"/><path id="path219" class="st4" d="M676.3 210h109.6m155.5 200.8h-18.8m3.5 4.1h11.8m-9.2 4h6.6"/><text id="text221" transform="translate(279.282 304.281)" class="st5 st6">Optocoupler</text><path id="path223" class="st2" d="M740.8 120.3v89.2"/><path id="path225" class="st3" d="M749 170.9h-16.4l8.2-9.7 8.2 9.7z"/><path id="path227" d="M749 170.9h-16.4l8.2-9.7 8.2 9.7z" style="fill:none;stroke:#000;stroke-width:3.000000e-03;stroke-linejoin:round;stroke-miterlimit:3.864"/><path id="path229" d="M736 161.6h9.5m-.3-.1 2.9 2.8m-14.7-5.4 2.8 2.9" style="fill:none;stroke:#000;stroke-width:.85;stroke-miterlimit:3.864"/><path id="path231" d="M736.7 120.3c0-2.3 1.8-4.1 4.1-4.1s4.1 1.8 4.1 4.1-1.8 4.1-4.1 4.1-4.1-1.8-4.1-4.1z"/><path id="path233" class="st15" d="M736.7 120.3c0-2.3 1.8-4.1 4.1-4.1s4.1 1.8 4.1 4.1-1.8 4.1-4.1 4.1-4.1-1.8-4.1-4.1z"/><path id="path235" d="M736.7 210c0-2.3 1.8-4.1 4.1-4.1s4.1 1.8 4.1 4.1-1.8 4.1-4.1 4.1-4.1-1.9-4.1-4.1z"/><path id="path237" class="st15" d="M736.7 210c0-2.3 1.8-4.1 4.1-4.1s4.1 1.8 4.1 4.1-1.8 4.1-4.1 4.1-4.1-1.9-4.1-4.1z"/><path id="path239" d="M146 367.6h107.5" style="fill:none;stroke:#000;stroke-width:.9;stroke-linejoin:round;stroke-miterlimit:3.864;stroke-dasharray:8,4"/><path id="path241" d="M146 325.7h107.5" style="fill:none;stroke:#000;stroke-linejoin:round;stroke-miterlimit:3.864;stroke-dasharray:8,4"/><text transform="translate(69.862 338.497)" class="st5 st6">Further </text><text transform="translate(69.862 362.397)" class="st5 st6">circuitry</text></svg>