<svg version="1.1" id="svg108" xmlns="http://www.w3.org/2000/svg" x="0" y="0" viewBox="0 0 881.3 259" style="enable-background:new 0 0 881.3 259;background-color:#fff" xml:space="preserve"><style>.st0,.st1{fill:none;stroke:#000;stroke-width:2;stroke-miterlimit:3.86}.st1{stroke-width:.75}.st3{font-family:Helvetica,Arial,sans-serif}.st4{font-size:14px}</style><g id="square_waves"><path id="polyline6" class="st0" d="M568.8 156.3h-87.5V34.4h-50v121.9H280.8V34.4h-49.5v121.9h-200"/><path id="polyline8" class="st0" d="M826.6 156.3h-95.3V34.4h-50v121.9h-50"/><path id="line10" class="st1" d="M280.8 203.1h-49.1"/><path id="rect12" d="M280.4 200.2h.9v5.9h-.9z"/><path id="rect14" d="M231.3 200.2h.9v5.9h-.9z"/><path id="line16" class="st1" d="M180.8 165.6h-49.1"/><path id="rect18" d="M180.4 162.7h.9v5.9h-.9z"/><path id="rect20" d="M131.3 162.7h.9v5.9h-.9z"/><path id="line22" class="st1" d="M380.8 165.6h-99.1"/><path id="rect24" d="M380.4 162.7h.9v5.9h-.9z"/><path id="rect26" d="M281.3 162.7h.9v5.9h-.9z"/><path id="line28" class="st1" d="M480.8 203.1h-49.1"/><path id="rect30" d="M480.4 200.2h.9v5.9h-.9z"/><path id="rect32" d="M431.3 200.2h.9v5.9h-.9z"/><path id="line34" class="st1" d="M568.3 165.6h-86.6"/><path id="rect36" d="M567.8 162.7h.9v5.9h-.9z"/><path id="rect38" d="M481.3 162.7h.9v5.9h-.9z"/><path id="line40" class="st1" d="M730.8 203.1h-49.1"/><path id="rect42" d="M730.3 200.2h.9v5.9h-.9z"/><path id="rect44" d="M681.3 200.2h.9v5.9h-.9z"/><path id="line46" class="st1" d="M680.8 178.1h-49.1"/><path id="rect48" d="M680.3 175.2h.9v5.9h-.9z"/><path id="rect50" d="M631.3 175.2h.9v5.9h-.9z"/><path id="line52" class="st1" d="M818.3 165.6h-86.6"/><path id="rect54" d="M817.8 162.7h.9v5.9h-.9z"/><path id="rect56" d="M731.3 162.7h.9v5.9h-.9z"/><path id="line58" style="fill:none;stroke:#000;stroke-width:2;stroke-miterlimit:3.86;stroke-dasharray:7.27,4.36" d="M568.8 156.3h62.5"/></g><g id="text"><text transform="translate(110.507 104.876)" class="st3 st4">T</text><text transform="translate(118.537 104.876)" class="st3 st4">rigger</text><path id="line67" style="fill:none;stroke:#000;stroke-width:1.44;stroke-miterlimit:3.86;stroke-dasharray:7.27,4.36" d="M131.3 112.5v42.1"/><text id="text69" transform="translate(131.8 182.232)" class="st3 st4">Startup</text><path id="line71" class="st1" d="M230.8 181.3h-49.1"/><path id="rect73" d="M230.4 178.3h.9v5.9h-.9z"/><path id="rect75" d="M181.3 178.3h.9v5.9h-.9z"/><text id="text77" transform="translate(187.5 196.87)" class="st3 st4">Reset</text><text id="text79" transform="translate(250 84.38)" class="st3 st4">1</text><text id="text81" transform="translate(453.13 84.38)" class="st3 st4">2</text><text id="text83" transform="translate(703.13 84.38)" class="st3 st4">8</text><text id="text85" transform="translate(303.13 181.9)" class="st3 st4">Readout</text><text id="text87" transform="translate(228.13 221.88)" class="st3 st4">Exposure</text><text id="text87-6" transform="translate(408.865 251.007)" class="st3 st4">Frame duration</text><path id="line89" class="st1" d="M430.8 178.1h-49.1"/><path id="rect91" d="M430.4 175.2h.9v5.9h-.9z"/><path id="rect93" d="M381.3 175.2h.9v5.9h-.9z"/><text id="text95" transform="translate(387.183 192.078)" class="st3 st4">Reset</text><text id="text97" transform="translate(493.75 181.9)" class="st3 st4">Readout</text><text id="text99" transform="translate(428.13 221.88)" class="st3 st4">Exposure</text><text id="text101" transform="translate(637.879 191.039)" class="st3 st4">Reset</text><text id="text103" transform="translate(746.41 180.734)" class="st3 st4">Readout</text><text id="text105" transform="translate(678.13 221.88)" class="st3 st4">Exposure</text><path id="rect295" d="M130.4 230.3h.9v5.9h-.9z"/><path id="rect297" d="M818.4 230.6h.9v5.9h-.9z"/><path id="line71-1" class="st1" d="M818.9 233.5H130.3"/></g></svg>