<svg version="1.1" id="Ebene_1" xmlns="http://www.w3.org/2000/svg" xmlns:xlink="http://www.w3.org/1999/xlink" x="0" y="0" viewBox="0 0 800 320" style="enable-background:new 0 0 800 320;background-color:#fff" xml:space="preserve"><style>.st21{fill:#020203}.st22{font-family:Helvetica,Arial,sans-serif}</style><path d="M181.3 37v-1.4m4.5 0h-4.5m186.8 14.3V35.6h-4.5m.1 83.9h4.4V98.1m-186.8 21.4h0v-1.4m0 1.4h4.5M181.3 37v81.1m4.5-4h177.8m0-73.1H185.8m0-6v1.5m177.8 0V35m0 0H185.8m0 4.1v-2.6m177.8 0v2.6m-177.8 1.8v-1.8m177.8 0v1.8m-177.8 73.4v1.7m177.8 0v-1.7M185.8 116v2.7m177.8 0V116m0 4.1h0v-1.4m-177.8 0v1.4m0 0h177.8m5.4-22V49.9m-.9 48.2h.9m-.9-48.2h.9" style="fill:none;stroke:#020203;stroke-width:.425;stroke-linecap:round;stroke-linejoin:round;stroke-miterlimit:10"/><defs><path id="SVGID_1_" d="M0 0h800v320H0z"/></defs><clipPath id="SVGID_2_"><use xlink:href="#SVGID_1_" style="overflow:visible"/></clipPath><circle cx="47.4" cy="171.4" r="3.1" style="clip-path:url(#SVGID_2_);fill:none;stroke:#020203;stroke-width:.425;stroke-linecap:round;stroke-linejoin:round;stroke-miterlimit:10"/><defs><path id="SVGID_3_" d="M0 0h800v320H0z"/></defs><clipPath id="SVGID_4_"><use xlink:href="#SVGID_3_" style="overflow:visible"/></clipPath><path d="M43.2 172.4c-.1-.3-.1-.7-.1-1.1 0-2.4 2-4.3 4.4-4.3s4.4 1.9 4.4 4.3-2 4.3-4.4 4.3c-.4 0-.7 0-1.1-.1" style="clip-path:url(#SVGID_4_);fill:none;stroke:#020203;stroke-width:.283;stroke-linecap:round;stroke-linejoin:round;stroke-miterlimit:10"/><defs><path id="SVGID_5_" d="M0 0h800v320H0z"/></defs><clipPath id="SVGID_6_"><use xlink:href="#SVGID_5_" style="overflow:visible"/></clipPath><circle cx="47.5" cy="251.9" r="3.1" style="clip-path:url(#SVGID_6_);fill:none;stroke:#020203;stroke-width:.425;stroke-linecap:round;stroke-linejoin:round;stroke-miterlimit:10"/><defs><path id="SVGID_7_" d="M0 0h800v320H0z"/></defs><clipPath id="SVGID_8_"><use xlink:href="#SVGID_7_" style="overflow:visible"/></clipPath><path d="M43.3 252.9c-.1-.3-.1-.7-.1-1.1 0-2.4 2-4.3 4.4-4.3s4.4 1.9 4.4 4.3-2 4.3-4.4 4.3c-.4 0-.7 0-1.1-.1" style="clip-path:url(#SVGID_8_);fill:none;stroke:#020203;stroke-width:.283;stroke-linecap:round;stroke-linejoin:round;stroke-miterlimit:10"/><defs><path id="SVGID_9_" d="M0 0h800v320H0z"/></defs><clipPath id="SVGID_10_"><use xlink:href="#SVGID_9_" style="overflow:visible"/></clipPath><circle cx="127.6" cy="251.9" r="3.1" style="clip-path:url(#SVGID_10_);fill:none;stroke:#020203;stroke-width:.425;stroke-linecap:round;stroke-linejoin:round;stroke-miterlimit:10"/><defs><path id="SVGID_11_" d="M0 0h800v320H0z"/></defs><clipPath id="SVGID_12_"><use xlink:href="#SVGID_11_" style="overflow:visible"/></clipPath><path d="M123.3 252.9c-.1-.3-.1-.7-.1-1.1 0-2.4 1.9-4.3 4.4-4.3 2.4 0 4.4 1.9 4.4 4.3s-1.9 4.3-4.4 4.3c-.4 0-.7 0-1.1-.1" style="clip-path:url(#SVGID_12_);fill:none;stroke:#020203;stroke-width:.283;stroke-linecap:round;stroke-linejoin:round;stroke-miterlimit:10"/><defs><path id="SVGID_13_" d="M0 0h800v320H0z"/></defs><clipPath id="SVGID_14_"><use xlink:href="#SVGID_13_" style="overflow:visible"/></clipPath><circle cx="127.6" cy="171.6" r="3.1" style="clip-path:url(#SVGID_14_);fill:none;stroke:#020203;stroke-width:.425;stroke-linecap:round;stroke-linejoin:round;stroke-miterlimit:10"/><defs><path id="SVGID_15_" d="M0 0h800v320H0z"/></defs><clipPath id="SVGID_16_"><use xlink:href="#SVGID_15_" style="overflow:visible"/></clipPath><path d="M123.3 172.6c-.1-.3-.1-.7-.1-1.1 0-2.4 1.9-4.3 4.4-4.3 2.4 0 4.4 1.9 4.4 4.3s-1.9 4.3-4.4 4.3c-.4 0-.7 0-1.1-.1" style="clip-path:url(#SVGID_16_);fill:none;stroke:#020203;stroke-width:.283;stroke-linecap:round;stroke-linejoin:round;stroke-miterlimit:10"/><defs><path id="SVGID_17_" d="M0 0h800v320H0z"/></defs><clipPath id="SVGID_18_"><use xlink:href="#SVGID_17_" style="overflow:visible"/></clipPath><path d="M115.7 63.5v-10M92.3 86.8h-9.9M162 57.7l.6 1.5.3 1.3v2.3l-.2.6m-.9-9.8h0l-.1.2-.2.9v1.2l.3 1.3.2.5m-2.9 5.7.2-.2.1-.7v-1.2l-.1-1.2-.3-.9m0 0-.6-1.4-.3-1.5v-2.2l.1-.5m23.6-.1h-20m.9 10h19.1m-23.6-10h-42.5m0 10h43.4m-43.4-10-3.7.3-3.8.6-3.6 1-3.4 1.4-3.3 1.8-3 2.2-2.8 2.4-2.5 2.9-2.1 3-1.8 3.3-1.5 3.4-1.1 3.6-.6 3.8-.1 3.6m9.9 0 .1-3 .6-3 1.1-2.9 1.4-2.8 1.6-2.4 2-2.4 2.4-2 2.5-1.8 2.7-1.3 2.9-.9 3-.6 3.1-.2M82.4 86.8V141m9.9 0V86.8M57 275.9l-.1-.1-.4-.2-.6-.4-.9-.4-.9-.6-1.1-.6-1.2-.7-1.1-.6-1-.7-1-.5-.7-.4-.5-.3-.3-.1v-.1m.1-.2-.1.2m9.8 5.7.1-.2" style="clip-path:url(#SVGID_18_);fill:none;stroke:#020203;stroke-width:.425;stroke-linecap:round;stroke-linejoin:round;stroke-miterlimit:10"/><defs><path id="SVGID_19_" d="M0 0h800v320H0z"/></defs><clipPath id="SVGID_20_"><use xlink:href="#SVGID_19_" style="overflow:visible"/></clipPath><circle cx="87.5" cy="211.7" r="70.9" style="clip-path:url(#SVGID_20_);fill:none;stroke:#1e1e1c;stroke-width:.709;stroke-miterlimit:10"/><defs><path id="SVGID_21_" d="M0 0h800v320H0z"/></defs><clipPath id="SVGID_22_"><use xlink:href="#SVGID_21_" style="overflow:visible"/></clipPath><circle cx="87.5" cy="211.7" r="39.7" style="clip-path:url(#SVGID_22_);fill:none;stroke:#1e1e1c;stroke-width:.425;stroke-miterlimit:10"/><path d="M87.4 212v81.8M8.1 211.6h158.5" style="fill:none;stroke:#020203;stroke-width:.283;stroke-linecap:round;stroke-linejoin:round;stroke-miterlimit:10;stroke-dasharray:14.173,5.669,2.835,5.669"/><defs><path id="SVGID_23_" d="M0 0h800v320H0z"/></defs><clipPath id="SVGID_24_"><use xlink:href="#SVGID_23_" style="overflow:visible"/></clipPath><circle cx="87.5" cy="211.7" r="56.7" style="clip-path:url(#SVGID_24_);fill:none;stroke:#1e1e1c;stroke-width:.283;stroke-miterlimit:10;stroke-dasharray:14.173,5.669,2.835,5.669"/><defs><path id="SVGID_25_" d="M0 0h800v320H0z"/></defs><clipPath id="SVGID_26_"><use xlink:href="#SVGID_25_" style="overflow:visible"/></clipPath><path d="m126.2 173 2.9-2.9m-2.3 80.7 1.9 1.9" style="clip-path:url(#SVGID_26_);fill:none;stroke:#020203;stroke-width:.283;stroke-linecap:round;stroke-linejoin:round;stroke-miterlimit:10;stroke-dasharray:43.2,3.6,3.6,3.6"/><defs><path id="SVGID_27_" d="M0 0h800v320H0z"/></defs><clipPath id="SVGID_28_"><use xlink:href="#SVGID_27_" style="overflow:visible"/></clipPath><path d="m46.5 252.8 2-2" style="clip-path:url(#SVGID_28_);fill:none;stroke:#020203;stroke-width:.283;stroke-linecap:round;stroke-linejoin:round;stroke-miterlimit:10"/><path d="M87.4 212V89.1" style="fill:none;stroke:#020203;stroke-width:.283;stroke-linecap:round;stroke-linejoin:round;stroke-miterlimit:10"/><defs><path id="SVGID_29_" d="M0 0h800v320H0z"/></defs><clipPath id="SVGID_30_"><use xlink:href="#SVGID_29_" style="overflow:visible"/></clipPath><path d="M8 121.4C27.4 104 52.3 93.3 80 91.6" style="clip-path:url(#SVGID_30_);fill:none;stroke:#1e1e1c;stroke-width:.283;stroke-miterlimit:10"/><defs><path id="SVGID_31_" d="M0 0h800v320H0z"/></defs><clipPath id="SVGID_32_"><use xlink:href="#SVGID_31_" style="overflow:visible"/></clipPath><path d="m11 122.1-8.4 4.5 5-8.1 3.4 3.6zm67.4-27.9 9.1-2.8-9.3-2.1.2 4.9z" style="clip-path:url(#SVGID_32_);fill:#1e1e1c"/><defs><path id="SVGID_33_" d="M0 0h800v320H0z"/></defs><clipPath id="SVGID_34_"><use xlink:href="#SVGID_33_" style="overflow:visible"/></clipPath><path d="m2 126.1 85.5 85.5" style="clip-path:url(#SVGID_34_);fill:none;stroke:#020203;stroke-width:.283;stroke-linecap:round;stroke-linejoin:round;stroke-miterlimit:10"/><text transform="rotate(-23.36 257.476 -24.592)" class="st21 st22" style="font-size:14.0001px">45°</text><text transform="translate(174.085 230.67)" class="st21 st22" style="font-size:14px">4 x M3</text><path d="m134.7 249 39.5-14.3h45.5" style="fill:none;stroke:#020203;stroke-width:.283;stroke-miterlimit:10"/><path class="st21" d="m137.1 250.8-9.5.8 7.9-5.5 1.6 4.7z"/></svg>