<svg version="1.1" id="Ebene_1" xmlns="http://www.w3.org/2000/svg" x="0" y="0" viewBox="0 0 424 115" style="enable-background:new 0 0 424 115;background-color:#fff" xml:space="preserve"><style>.st1{font-family:Helvetica,Arial,sans-serif}.st2{font-size:8px}.st3{fill:none;stroke:#000;stroke-width:.7;stroke-miterlimit:10}</style><text transform="translate(369.058 16.579)" class="st1 st2">Micro BNC</text><text transform="translate(369.058 28.579)" class="st1 st2">(HD-BNC)</text><text transform="translate(7.132 16.579)" class="st1 st2">Micro BNC</text><text transform="translate(7.132 28.579)" class="st1 st2">(HD-BNC)</text><path d="m14.9 104.2-6.4-1.8 6.4-1.8v3.6zm382.2 0 6.4-1.8-6.4-1.8v3.6z"/><path class="st3" d="M46 41.8h67.4v16H46v-16zm67.4 3.5h60.8m-60.8 8.8h59.3m4.8-4.4.9-5.4c.9-5.4 2.7-6.8 4.1-8.6m-9.9 28c1.3-1.8 3.2-3.2 4-8.6s.9-5.4.9-5.4m-4 0 .9-5.4c.9-5.4 2.7-6.8 4-8.6m-9.8 28c1.3-1.8 3.1-3.2 4-8.6l.9-5.4m4.8-4.4h119.9m-121.3 8.8h121.3m.4-12.3H366v16h-67.4v-16zm-256.3-.4H46v16.7h-3.7V41.4zm-18.4 1.4h18.4v13.9H23.9V42.8zm-10.5.3h10.4v13.3H13.4V43.1z"/><path class="st3" d="M8.4 41.7h5.1v16.1H8.4V41.7zm357.6-.3h3.7v16.7H366V41.4zm3.7 1.4h18.4v13.9h-18.4V42.8zm18.4.3h10.4v13.3h-10.4V43.1zm10.4-1.4h5.1v16.1h-5.1V41.7z"/><path d="M8.4 57.8v47.4m2.6-2.8h390m2.6-44.6v47.4" style="fill:none;stroke:#000;stroke-width:.3;stroke-miterlimit:10"/><text transform="translate(130.387 95.965)" class="st1 st2">Length (in m) depending on order number</text></svg>