<svg version="1.1" id="Ebene_1" xmlns="http://www.w3.org/2000/svg" x="0" y="0" viewBox="0 0 529 245" style="enable-background:new 0 0 529 245;background-color:#fff" xml:space="preserve"><style>.st1{fill:none;stroke:#030304;stroke-miterlimit:10}.st3{fill:#030304}.st7{font-size:12px}.st8{fill:none;stroke:#030304;stroke-miterlimit:10;stroke-dasharray:8,5}.st11{enable-background:new}.st12{fill:#020203}.st13{font-family:Helvetica,Arial,sans-serif}.st15{fill:#f6f6f6}.st16{fill:#1c191d}.st17{font-size:10px}</style><path class="st1" d="M80.2 123.4h1.5"/><path d="M83.6 123.4H121" style="fill:none;stroke:#030304;stroke-miterlimit:10;stroke-dasharray:2.8767,1.9178"/><path class="st1" d="M122 123.4h1.5"/><path class="st3" d="m117.6 126.6-.4-1 6.2-2.2-6.2-2.2.4-1 8.7 3.2-8.7 3.2z"/><ellipse cx="60.9" cy="123" rx="25.2" ry="17.9" style="fill:#fde1c1;stroke:#000;stroke-miterlimit:10"/><path d="M0 0h529v245H0V0z" style="fill:none"/><path d="M214 181.3V66.1h60v115.3l-60-.1z" style="fill:#bde3f6;stroke:#030304;stroke-miterlimit:10"/><text transform="translate(111.368 36.03)" class="st3 st7" style="font-family:Helvetica,Arial,sans-serif;font-weight:700">Camera</text><path class="st8" d="M104.6 222.8V21.2h280.6v201.6H104.6z"/><path d="M186.3 66.1v115.3h-60V66.1h60z" style="fill:#1a4a7e;stroke:#030304;stroke-miterlimit:10"/><path d="M362.7 66.1v115.3h-60V66.1h60z" style="fill:#1271a1;stroke:#030304;stroke-miterlimit:10"/><text transform="translate(413.192 120.86)" class="st11"><tspan x="0" y="0" class="st12 st13 st7">Image data </tspan><tspan x="0" y="14.4" class="st12 st13 st7">output</tspan></text><text transform="translate(136.805 126.02)" class="st13 st7" style="fill:#f5f5f5">Sensor</text><text transform="translate(315.542 120.745)" class="st11"><tspan x="0" y="0" class="st15 st13 st7">Pixel </tspan><tspan x="0" y="14.4" class="st15 st13 st7">format </tspan></text><text transform="translate(47.641 126.332)" class="st12 st13 st7">Light</text><path class="st3" d="m398.2 126.3 10.8-2.9-10.8-2.9v5.8zm-194.5-.1 10.8-2.9-10.8-2.9v5.8z"/><path class="st1" d="M273 123.4h29.7"/><text transform="translate(219.988 114.517)" class="st11"><tspan x="0" y="0" class="st16 st13 st17">Internal </tspan><tspan x="0" y="12" class="st16 st13 st17">image </tspan><tspan x="0" y="24" class="st16 st13 st17">processing </tspan></text><path class="st1" d="M186.3 123.4h25.3m151.1 0H399"/><path class="st3" d="m292.6 126.2 10.8-2.9-10.8-2.9v5.8z"/><text transform="translate(151.712 209.336)" class="st12 st13" style="font-size:11px">Transfer bit depth</text><path class="st8" d="M195.2 123.4v71.5"/><path class="st3" d="m192 135 2.9-10.9 2.9 10.9H192z"/><path class="st1" d="M147.7 196.7h94.7v18.8h-94.7v-18.8zm-66.8-63.2 1.3.7"/><path d="m85.8 135.2 36.1 20.8" style="fill:none;stroke:#030304;stroke-miterlimit:10;stroke-dasharray:2.8375,1.8916"/><path class="st1" d="m122.7 156.4 1.3.8"/><path class="st3" d="m117.3 157 .1-1 6.5 1.1-4.2-5 .7-.6 6 7.1-9.1-1.6z"/><path class="st1" d="m83 112.8 1.3-.7"/><path d="m86.1 111 35.4-20.4" style="fill:none;stroke:#030304;stroke-miterlimit:10;stroke-dasharray:3.1399,2.0933"/><path class="st1" d="m122.4 90.1 1.3-.8"/><path class="st3" d="m120.1 95-.7-.6 4.2-5-6.5 1.1-.2-1 9.2-1.6-6 7.1z"/></svg>