<svg xmlns="http://www.w3.org/2000/svg" viewBox="0 0 1474 623.6" style="enable-background:new 0 0 1474 623.6;background-color:#fff" xml:space="preserve"><style>.st3{fill:none;stroke:#000;stroke-width:.4252;stroke-linecap:round;stroke-linejoin:round;stroke-miterlimit:10}.st4,.st5{stroke-width:.2835}.st4{fill:none;stroke:#000;stroke-linecap:round;stroke-linejoin:round}.st5{stroke-dasharray:.5751,2.8754}.st5,.st6,.st9{fill:none;stroke:#000;stroke-linecap:round;stroke-linejoin:round}.st6{stroke-width:.2835;stroke-dasharray:8.6262,2.8754,.5751,2.8754}.st9{stroke-dasharray:.6895,3.4476}.st10,.st17,.st9{stroke-width:.2835}.st10{fill:none;stroke:#000;stroke-linecap:round;stroke-linejoin:round;stroke-dasharray:10.3427,3.4476,.6895,3.4476}.st17{stroke-dasharray:.4663,2.3317}.st17,.st18,.st24,.st25{fill:none;stroke:#000;stroke-linecap:round;stroke-linejoin:round}.st18{stroke-width:.2835;stroke-dasharray:6.995,2.3317,.4663,2.3317}.st24,.st25{stroke-width:.283;stroke-miterlimit:10}.st25{stroke-width:.2835}.st26{font-family:Helvetica,Arial,sans-serif}.st27{font-size:15px}.st28{font-size:14.9999px}.st29{font-size:14.9998px}.st30{fill:none;stroke:#000;stroke-width:.4252;stroke-linecap:round;stroke-linejoin:round}</style><g id="Middle_Lines"><path class="st4" d="M1230.1 542.6v-4.3"/><path class="st5" d="M1230.1 535.4v-2"/><path class="st6" d="M1230.1 532V69.9"/><path class="st4" d="M1230.1 68.5v-4.3m239.2 239.2h-4.3"/><path class="st5" d="M1462.1 303.4h-2"/><path class="st6" d="M1458.7 303.4H996.6"/><path class="st4" d="M995.2 303.4h-4.3m-74.8.2h-4.3"/><path style="fill:none;stroke:#000;stroke-width:.2835;stroke-linecap:round;stroke-linejoin:round;stroke-dasharray:.5608,2.8042" d="M909 303.6h-2"/><path style="fill:none;stroke:#000;stroke-width:.2835;stroke-linecap:round;stroke-linejoin:round;stroke-dasharray:8.4125,2.8042,.5608,2.8042" d="M905.6 303.6H673.7"/><path class="st4" d="M672.3 303.6h-4.2m349 229.8v-4.2"/><path class="st9" d="M1017.1 525.7v-2.4"/><path class="st10" d="M1017.1 521.6v-16.2"/><path class="st4" d="M1017.1 503.7v-4.3m17 17h-4.3"/><path class="st9" d="M1026.4 516.4h-2.4"/><path class="st10" d="M1022.2 516.4H1006"/><path class="st4" d="M1004.3 516.4h-4.2M47.4 488.5h-4.2"/><path style="fill:none;stroke:#000;stroke-width:.2835;stroke-linecap:round;stroke-linejoin:round;stroke-dasharray:.5896,2.9482" d="M40.2 488.5h-2.1"/><path style="fill:none;stroke:#000;stroke-width:.2835;stroke-linecap:round;stroke-linejoin:round;stroke-dasharray:8.8446,2.9482,.5896,2.9482" d="M36.7 488.5H22.8"/><path class="st4" d="M21.3 488.5h-4.2M270 538.8v-4.3"/><path style="fill:none;stroke:#000;stroke-width:.2835;stroke-linecap:round;stroke-linejoin:round;stroke-dasharray:.5681,2.8407" d="M270 531.7v-2"/><path style="fill:none;stroke:#000;stroke-width:.2835;stroke-linecap:round;stroke-linejoin:round;stroke-dasharray:8.522,2.8407,.5681,2.8407" d="M270 528.3V71.8"/><path class="st4" d="M270 70.4v-4.3m228.9 237.3h-4.3"/><path style="fill:none;stroke:#000;stroke-width:.2835;stroke-linecap:round;stroke-linejoin:round;stroke-dasharray:.5678,2.8391" d="M491.8 303.4h-2"/><path style="fill:none;stroke:#000;stroke-width:.2835;stroke-linecap:round;stroke-linejoin:round;stroke-dasharray:8.5173,2.8391,.5678,2.8391" d="M488.4 303.4H32.1"/><path class="st4" d="M30.7 303.4h-4.2M280.1 280l-1.7 3.9"/><path class="st17" d="m277.5 286-.6 1.5"/><path class="st18" d="m276.4 288.6-4.3 10.1"/><path class="st4" d="m271.7 299.7-1.7 4m11.6-5.2-3.9 1.6"/><path style="fill:none;stroke:#000;stroke-width:.2835;stroke-linecap:round;stroke-linejoin:round;stroke-dasharray:.3642,1.8209" d="m276 300.8-1.1.5"/><path class="st4" d="m274 301.6-3.9 1.7m1173 230.1v-4.2"/><path class="st9" d="M1443.1 525.7v-2.4"/><path class="st10" d="M1443.1 521.6v-16.2"/><path class="st4" d="M1443.1 503.7v-4.3m17 17h-4.2"/><path class="st9" d="M1452.4 516.4h-2.4"/><path class="st10" d="M1448.3 516.4h-16.2"/><path class="st4" d="M1430.4 516.4h-4.3m17-409v-4.3"/><path class="st9" d="M1443.1 99.7v-2.4"/><path class="st10" d="M1443.1 95.5V79.3"/><path class="st4" d="M1443.1 77.6v-4.2m17 17h-4.2"/><path class="st9" d="M1452.4 90.4h-2.4"/><path class="st10" d="M1448.3 90.4h-16.2"/><path class="st4" d="M1430.4 90.4h-4.3m-409 17v-4.3"/><path class="st9" d="M1017.1 99.7v-2.4"/><path class="st10" d="M1017.1 95.5V79.3"/><path class="st4" d="M1017.1 77.6v-4.2m17 17h-4.3"/><path class="st9" d="M1026.4 90.4h-2.4"/><path class="st10" d="M1022.2 90.4H1006"/><path class="st4" d="M1004.3 90.4h-4.2M56.9 516.5v-4.3"/><path style="fill:none;stroke:#000;stroke-width:.2835;stroke-linecap:round;stroke-linejoin:round;stroke-dasharray:.7768,3.8842" d="M56.9 508.3v-2.7"/><path class="st4" d="M56.9 503.7v-4.3m17 17h-4.2"/><path class="st9" d="M66.2 516.4h-2.4"/><path class="st10" d="M62.1 516.4H45.9"/><path class="st4" d="M44.2 516.4h-4.3m443.1-.1V512"/><path style="fill:none;stroke:#000;stroke-width:.2835;stroke-linecap:round;stroke-linejoin:round;stroke-dasharray:.7617,3.8084" d="M483 508.2v-2.6"/><path class="st4" d="M483 503.7v-4.3m-.3 17h-4.3"/><path style="fill:none;stroke:#000;stroke-width:.2835;stroke-linecap:round;stroke-linejoin:round;stroke-dasharray:.7455,3.7275" d="M474.7 516.4h-2.6"/><path class="st4" d="M470.2 516.4H466m17-409v-4.3"/><path class="st9" d="M483 99.7v-2.4"/><path class="st10" d="M483 95.5V79.3"/><path class="st4" d="M483 77.6v-4.2m.1 17h-4.2"/><path style="fill:none;stroke:#000;stroke-width:.2835;stroke-linecap:round;stroke-linejoin:round;stroke-dasharray:.7861,3.9307" d="M474.9 90.4h-2.7"/><path class="st4" d="M470.2 90.4H466m-409.1 17v-4.3"/><path class="st9" d="M56.9 99.7v-2.4"/><path class="st10" d="M56.9 95.5V79.3"/><path class="st4" d="M56.9 77.6v-4.2m17 17h-4.2"/><path class="st9" d="M66.2 90.4h-2.4"/><path class="st10" d="M62.1 90.4H45.9"/><path class="st4" d="M44.2 90.4h-4.3"/></g><g id="Dimensions"><path class="st24" d="m1131.6 589.4 39.3-154.9"/><path class="st4" d="M53.6 603.6h433.8"/><path d="m55 605.7-7.7-2.1 7.7-2.1zm431 0 7.7-2.1-7.7-2.1z"/><path class="st24" d="M493.5 520.1v87.4"/><path class="st4" d="M699.7 608.2h198.4"/><path d="m701.1 610.3-7.6-2.1 7.6-2zm195.6 0 7.7-2.1-7.7-2z"/><path class="st24" d="m905.1 329.5-.2 282.6M47 522v85.5"/><path class="st4" d="M63.5 569.6h413.6"/><path d="m64.9 571.6-7.6-2 7.6-2.1zm410.8 0 7.7-2-7.7-2.1z"/><path class="st24" d="M483 516.3v57.2M56.9 516.6v56.9m-20.2-81v95.2m616.1-99.6H685m-32.2 38.7h24.1m16.5 37.6v47.7m1.1-85.4v23.2m-17.9-23.1v85.3m8.8-124v70.6"/><path class="st25" d="M693.2 608.2h-16.4"/><path class="st4" d="M670.7 608.2h-24.3"/><path d="m669.3 606.2 7.6 2-7.6 2.1z"/><path class="st25" d="M685.1 557.2h-7.4M47.3 583.8H36.6"/><path class="st4" d="M671.5 557.2h-24.2"/><path d="m670.1 555.1 7.7 2.1-7.7 2z"/><path class="st4" d="M30.4 583.8H5.3"/><path d="m29 581.7 7.7 2-7.7 2.1z"/><path class="st4" d="M53.6 583.8h24.6"/><path d="m55 585.8-7.7-2 7.7-2.1z"/><path class="st4" d="M691.8 557.2h29.9"/><path d="m693.2 559.2-7.7-2 7.7-2.1z"/><path class="st25" d="M656.1 526.7V488"/><path class="st4" d="M656.1 481.8v-12.5"/><path d="m658.2 480.4-2.1 7.7-2-7.7z"/><path class="st4" d="M656.1 533.4v14.3"/><path d="m654.1 534.8 2-7.6 2.1 7.6z"/><path class="st4" d="m63.3 83.4 25.6-57.8h54.6"/><path d="m66.2 82.9-6 7.4 1.5-9.4z"/><path class="st4" d="m69.8 85.7 36.2-28h123.9"/><path d="m72.7 86.7-8.8 3.7 5.7-7.6z"/><path class="st25" d="M482.3 569.6h8.5"/><path class="st4" d="M497 569.6h14.3"/><path d="m498.4 571.6-7.7-2 7.7-2.1z"/><path class="st4" d="M552.6 520.4V87.3"/><path d="m554.7 519-2 7.7-2.1-7.7zm0-430.3-2-7.6-2.1 7.6z"/><path class="st24" d="M483.1 80.4h70.6M482.6 527h74"/><path class="st4" d="M527.1 510.2V96.7"/><path d="m529.2 508.8-2.1 7.7-2-7.7zm0-410.7-2.1-7.6-2 7.6z"/><path class="st24" d="M479.7 90.2h48.5m-45.5 426.2H531"/><path class="st25" d="M527.1 516.4v11"/><path class="st4" d="M527.1 533.6v14.3"/><path d="m525.1 535 2-7.7 2.1 7.7z"/></g><g id="Text_1_"><text transform="translate(1074.6 604.769)" class="st26 st27">Ø 300 (Luminous area)</text><text transform="translate(257.442 565.04)" class="st26 st28">334</text><text transform="translate(11.23 578.362)" class="st26 st28">8</text><text transform="translate(257.442 599.055)" class="st26 st28">350</text><text transform="translate(781.937 601.86)" class="st26 st28">179</text><text transform="rotate(-90 583.144 -67.68)" class="st26 st28">30</text><text transform="translate(501.297 565.037)" class="st26 st28">8</text><text transform="rotate(-90 419.498 -103.106)" class="st26 st28">334</text><text transform="rotate(-90 432.254 -115.861)" class="st26 st28">350</text><text transform="rotate(-90 534.926 11.324)" class="st26 st28">8</text><text transform="translate(648.042 601.563)" class="st26 st28">14</text><text transform="translate(703.13 551.471)" class="st26 st28">7</text><text transform="translate(110.126 52.078)" class="st26 st27">4 × Ø 8, 4.4 deep</text><text transform="translate(91.727 19.158)" class="st26 st27">4 × M5</text><path class="st4" d="m288.6 295.7 30.7-11.9h36.3"/><path d="m291.1 297.4-9.5 1.1 7.7-5.7z"/><path class="st4" d="m283.1 272.5 7.4-17.3h37"/><path d="m286 272-5.9 7.5 1.4-9.5z"/><text transform="translate(294.28 249.615)" class="st26 st27">Ø 41</text><path class="st4" d="m1248.6 285.3-3.1 3"/><path class="st17" d="m1243.9 289.9-1.2 1.1"/><path class="st18" d="m1241.9 291.9-7.9 7.6"/><path class="st4" d="m1233.2 300.3-3 3M1254 280l8.4-8.2h37"/><path d="m1256.9 280.6-8.3 4.7 4.8-8.2z"/><text transform="translate(1266.194 266.236)" class="st26 st27">Ø 33</text><text transform="translate(321.616 278.448)" class="st26 st27">Ø 20</text><text transform="translate(1338.856 596.411)" class="st26 st29">Not to scale</text><text transform="translate(1338.856 614.411)" class="st26 st29">Dimensions in mm</text></g><g id="Dome"><path class="st3" d="M270 277.3c-14.4 0-26.1 11.7-26.1 26.1 0 14.4 11.7 26.1 26.1 26.1 14.4 0 26.1-11.7 26.1-26.1s-11.7-26.1-26.1-26.1"/><path class="st3" d="M270 290.6c-7 0-12.8 5.7-12.8 12.8 0 7 5.7 12.8 12.8 12.8 7 0 12.8-5.7 12.8-12.8-.1-7.1-5.8-12.8-12.8-12.8m213 232.9c3.9 0 7.1-3.2 7.1-7.1 0-3.9-3.2-7.1-7.1-7.1-3.9 0-7.1 3.2-7.1 7.1 0 3.9 3.2 7.1 7.1 7.1"/><path class="st3" d="M483 519.9c1.9 0 3.4-1.5 3.4-3.4s-1.5-3.4-3.4-3.4-3.4 1.5-3.4 3.4c-.1 1.8 1.5 3.4 3.4 3.4m-426.1 3.6c3.9 0 7.1-3.2 7.1-7.1 0-3.9-3.2-7.1-7.1-7.1-3.9 0-7.1 3.2-7.1 7.1 0 3.9 3.2 7.1 7.1 7.1"/><path class="st3" d="M56.9 519.9c1.9 0 3.4-1.5 3.4-3.4s-1.5-3.4-3.4-3.4-3.4 1.5-3.4 3.4c0 1.8 1.5 3.4 3.4 3.4M483 97.4c3.9 0 7.1-3.2 7.1-7.1 0-3.9-3.2-7.1-7.1-7.1-3.9 0-7.1 3.2-7.1 7.1 0 4 3.2 7.1 7.1 7.1"/><path class="st3" d="M483 93.8c1.9 0 3.4-1.5 3.4-3.4S484.9 87 483 87s-3.4 1.5-3.4 3.4c-.1 1.9 1.5 3.4 3.4 3.4M56.9 97.4c3.9 0 7.1-3.2 7.1-7.1 0-3.9-3.2-7.1-7.1-7.1-3.9 0-7.1 3.2-7.1 7.1 0 4 3.2 7.1 7.1 7.1"/><path class="st3" d="M56.9 93.8c1.9 0 3.4-1.5 3.4-3.4S58.8 87 56.9 87s-3.4 1.5-3.4 3.4 1.5 3.4 3.4 3.4m429.9-13.4H53.1M47 86.5v434m6.3 6.2h433.5m6.5-6.4V86.5M47 520.5c0 3.5 2.8 6.3 6.3 6.3m433.7-.1c3.5 0 6.3-2.8 6.3-6.3m0-433.7c0-3.5-3-6.3-6.5-6.3m-433.5 0c-3.5 0-6.3 2.8-6.3 6.3m71.7 377.2c87.7 82.7 225.4 79.6 309.4-6.8s83-224.3-2.2-309.6-223.1-86.3-309.6-2.3-89.5 221.8-6.8 309.5l.2.3-2.8 2.4"/><path class="st3" d="m148.3 499.2-32.4-32.4 2.8-2.9m17.6 55.2c2 0 3.9-.8 5.3-2.2l6.9-6.9c2.9-2.9 2.7-7.8-.2-10.8m-64.8 19.9h52.8m-61.8-94c-2.9-2.9-7.8-2.8-10.8.2l-6.9 6.9c-1.4 1.4-2.2 3.5-2.2 5.5v52.4c0 1.9.7 3.7 2.1 5L78 516.9c1.4 1.4 3.5 2.2 5.5 2.2m23.4-61.6-32.4-32.4m-27.6 56.3h0-2.3m0 3-.1-1.5.1-1.5m0 3H47m0 1.1h-2.4v-1.1m0 7.1-.1-3 .1-3m0 6H47m-2.4 0v1.2H47m-2.4 2.9-.1-1.4.1-1.5m0 2.9h2.3m-10.3-11v7.9m1.6-8.4v8.9m1-8.7v8.5m1.3-8.5v8.5m.9-9.5v10.4m1.4-10.4v10.4m.9-9.4v8.5m3.3-11.4h-2.4m2.4 14.2h-2.4m-7.8-11.3c-.1 0-.2.1-.2.3m0 7.9c0 .1.1.3.2.3m0-8.5 1.4-.2m-1.4 8.7 1.4.2h.7m0-8.9h-.7m1 8.7-.3.2m.3-8.7-.3-.2m1.6 8.7h-1.3m2.2-9.5-.9 1h-1.3m1.3 8.5.9.9h1.4m0-10.4h-1.4m2.3 9.5-.9.9m.9-9.4-.9-1m1.3 1h-.4m.4 0c.2 0 .3-.1.3-.3v-1.1m-.7 9.9h.4c.2 0 .3.1.3.3v1.1m860.7-164.7v-52.2m0 52.2h-4.5v-52.2h4.5M698.5 519.9V87.3m-21.9-6.9h17.9m-17.9 6.1v433.8m17.9-433.8v433.8m0 0v6.4h-17.9m17.9-440.2v-6.1m-17.9 446.3v-6.4m0-433.8v-6.1m23.1 430.9C802.5 508.8 888 431.6 901 329.6m0-52.4C888 175.2 802.5 98 699.7 95.5m-1.2-8.4c0-2.1-1.7-3.8-3.8-3.8m0 440.2c2.1 0 3.8-1.7 3.8-3.8m1.2-8.4c-.8 0-1.2.7-1.2 1.5m-.4-418.4c0 .8.6 1.4 1.4 1.4m-12.4 391.6c0 .3.2.5.5.5s.5-.2.5-.5-.2-.5-.5-.5-.5.2-.5.5m-4.6 0c0 .3.2.5.5.5s.5-.2.5-.5-.2-.5-.5-.5-.5.2-.5.5m3.8 2.7c0 .3.2.5.5.5s.5-.2.5-.5-.2-.5-.5-.5c-.2 0-.5.2-.5.5m-2.9 0c0 .3.2.5.5.5s.5-.2.5-.5-.2-.5-.5-.5c-.2 0-.5.2-.5.5"/><path class="st3" d="M685.4 483.9c-2.3 0-4.2 1.9-4.2 4.2 0 2.3 1.9 4.2 4.2 4.2 2.3 0 4.2-1.9 4.2-4.2 0-2.3-1.9-4.2-4.2-4.2"/><path class="st3" d="M690.8 488.1c0-3-2.4-5.4-5.4-5.4-3 0-5.4 2.4-5.4 5.4 0 3 2.4 5.4 5.4 5.4 3 .1 5.4-2.4 5.4-5.4m-11.3-2.6v5.5m0 0c.2.4.4.7.6 1.1m0-.1 4.7 2.8m0 0h1.2m4.8-2.8-4.8 2.8m4.8-2.8c.2-.3.4-.8.6-1.1m0-5.4v5.4m0-5.4c-.2-.4-.4-.7-.6-1.1"/><path class="st3" d="m680.1 484.4 4.7-2.8h1.2l4.8 2.8m-10.7 0c-.2.3-.4.7-.6 1.1"/><path class="st30" d="M685.4 488.2V484"/><path style="fill:none;stroke:#000;stroke-width:.4252;stroke-linecap:round;stroke-linejoin:round;stroke-dasharray:.5297,2.6483" d="M685.4 481.3v-1.8"/><path class="st30" d="M685.4 478.1v-4.2m14.4 14.3h-4.3"/><path style="fill:none;stroke:#000;stroke-width:.4252;stroke-linecap:round;stroke-linejoin:round;stroke-dasharray:.529,2.6449" d="M692.9 488.2H691"/><path class="st30" d="M689.7 488.2h-4.2"/><path class="st3" d="M1230.1 282.5c-11.5 0-20.9 9.3-20.9 20.9 0 11.5 9.3 20.9 20.9 20.9 11.5 0 20.9-9.3 20.9-20.9 0-11.5-9.4-20.9-20.9-20.9"/><path class="st3" d="M1230.1 290.6c-7 0-12.8 5.7-12.8 12.8 0 7 5.7 12.8 12.8 12.8 7 0 12.8-5.7 12.8-12.8 0-7.1-5.8-12.8-12.8-12.8m223.4 205h0m0-10.2v-1.2m0-2.8v2.8m0-2.8h0m-18.5-45.8c.8 0 1.4-.6 1.4-1.4 0-.8-.6-1.4-1.4-1.4-.8 0-1.4.6-1.4 1.4 0 .8.6 1.4 1.4 1.4m-417.9 84.3c1.9 0 3.4-1.5 3.4-3.4s-1.5-3.4-3.4-3.4-3.4 1.5-3.4 3.4c-.1 1.8 1.5 3.4 3.4 3.4m426 0c1.9 0 3.4-1.5 3.4-3.4s-1.5-3.4-3.4-3.4-3.4 1.5-3.4 3.4c0 1.8 1.5 3.4 3.4 3.4m-426-426.1c1.9 0 3.4-1.5 3.4-3.4s-1.5-3.4-3.4-3.4-3.4 1.5-3.4 3.4c-.1 1.9 1.5 3.4 3.4 3.4m426 0c1.9 0 3.4-1.5 3.4-3.4s-1.5-3.4-3.4-3.4-3.4 1.5-3.4 3.4 1.5 3.4 3.4 3.4"/><path class="st3" d="M1230.1 494.8c105.7 0 191.4-85.7 191.4-191.4S1335.8 112 1230.1 112s-191.4 85.7-191.4 191.4 85.7 191.4 191.4 191.4M1013.2 80.4h434m6.3 6.1v433.8m-6.5 6.4h-433.8m-6.5-6.4V86.5m440.5 440.2c3.5 0 6.3-2.8 6.3-6.3m0-433.7c0-3.5-2.8-6.3-6.3-6.3m-433.8 0c-3.5 0-6.7 2.6-6.7 6.1m0 433.8c0 3.5 3.2 6.5 6.7 6.5m87.3-37.7h-55.1m57.1 1.8c0-1-.8-1.8-1.8-1.8m1.8 25.5v-23.9m-1.8 25.9c1 0 1.8-.8 1.8-1.8m-57.1 1.8h55.1m-56.7-1.8c0 1 .8 1.8 1.8 1.8m-1.8-25.9v23.9m1.8-25.5c-1 0-1.8.8-1.8 1.8m409.5-8.3v-1.2m.2 14.3h2.2m0-3 .2 1.5-.2 1.5m0-3h-2.4"/><path class="st3" d="M1453.5 491.6h2.4v1.1m0-7.1.2 3-.2 3m0-6h-2.4m2.4 0v-1.2h-2.4m2.4-2.9.2 1.5-.2 1.4m0-2.9h0-2.2m10.3 11.1v-8m-1.7 8.5v-9m-1 8.7v-8.4m-1.3 8.4v-8.4m-.9 9.4v-10.3m-1.3 10.3v-10.3m-1 9.3v-8.4m-3.3 11.3h2.4m-2.4-14.2h2.4m7.8 11.3c.1 0 .2-.1.2-.3m.1-7.8c0-.1-.1-.3-.2-.3m-.1 8.4-1.4.3m1.4-8.7-1.4-.3h-.6m0 9h.6m-1-8.7.4-.3m-.4 8.7.4.3m-1.7-8.7h1.3m-2.2 9.4.9-1h1.3m-1.3-8.4-.9-.9h-1.3m0 10.3h1.3m-2.3-9.4 1-.9m-1 9.3 1 1m-1.4-1h.4m-.4 0c-.2 0-.3.1-.3.3v1.1"/><path class="st3" d="M1456.8 484.4h-.4c-.2 0-.3-.1-.3-.3V483"/><path class="st30" d="M1449.1 488.6h4.2"/><path style="fill:none;stroke:#000;stroke-width:.4252;stroke-linecap:round;stroke-linejoin:round;stroke-dasharray:.9167,4.5836" d="M1457.9 488.6h3.2"/><path class="st30" d="M1463.4 488.6h4.2"/></g></svg>