<svg version="1.1" id="Ebene_1" xmlns="http://www.w3.org/2000/svg" xmlns:xlink="http://www.w3.org/1999/xlink" x="0" y="0" viewBox="0 0 595.3 453" style="enable-background:new 0 0 595.3 453;background-color:#fff" xml:space="preserve"><style>.st1{fill:#fff}.st2{stroke-width:4}.st2,.st3,.st4,.st5,.st6{fill:none;stroke:#000;stroke-miterlimit:10}.st3{stroke-width:2}.st4,.st5,.st6{stroke-width:2.955}.st5{stroke-dasharray:8.409,8.409}.st6{stroke-dasharray:9.142,9.142}.st18{font-family:Helvetica,Arial,sans-serif}.st19{font-size:36px}</style><path d="M406.5 86.2h146v135h-146v-135z" style="fill:#ececed"/><path class="st1" d="M251.7 100.2h181V139h-181v-38.8z"/><path class="st2" d="M251.7 100.2h181V139h-181v-38.8z"/><path class="st1" d="M493.2 156v-12.8l-59.7-30V126l59.7 30z"/><path class="st3" d="M493.2 156v-12.8l-59.7-30V126l59.7 30z"/><path class="st1" d="M493.2 163.2v-12.8l-59.7 30v12.8l59.7-30z"/><path class="st3" d="M493.2 163.2v-12.8l-59.7 30v12.8l59.7-30z"/><path class="st1" d="M251.7 167.4h181v38.8h-181v-38.8z"/><path class="st2" d="M251.7 167.4h181v38.8h-181v-38.8z"/><path class="st4" d="M412.1 221.2h-4.4v-4.4"/><path class="st5" d="M407.7 208.4V94.9"/><path class="st4" d="M407.7 90.7v-4.5h4.4"/><path class="st6" d="M421.2 86.2h123.5"/><path class="st4" d="M549.2 86.2h4.5v4.5"/><path class="st5" d="M553.7 99.1v113.5"/><path class="st4" d="M553.7 216.8v4.4h-4.5"/><path class="st6" d="M540.1 221.2H416.7"/><defs><path id="SVGID_1_" d="M0 0h595.3v453H0z"/></defs><clipPath id="SVGID_2_"><use xlink:href="#SVGID_1_" style="overflow:visible"/></clipPath><path d="M493.2 167.1c-7.6 0-13.7-6.1-13.7-13.7s6.1-13.7 13.7-13.7 13.7 6.1 13.7 13.7-6.1 13.7-13.7 13.7" style="clip-path:url(#SVGID_2_)"/><defs><path id="SVGID_3_" d="M0 0h595.3v453H0z"/></defs><clipPath id="SVGID_4_"><use xlink:href="#SVGID_3_" style="overflow:visible"/></clipPath><path d="M251.7 261.7h302v26.6h-302v-26.6z" style="clip-path:url(#SVGID_4_);fill:#fff"/><defs><path id="SVGID_5_" d="M0 0h595.3v453H0z"/></defs><clipPath id="SVGID_6_"><use xlink:href="#SVGID_5_" style="overflow:visible"/></clipPath><path d="M251.7 261.7h302v26.6h-302v-26.6z" style="clip-path:url(#SVGID_6_);fill:none;stroke:#000;stroke-width:3.836;stroke-miterlimit:10"/><defs><path id="SVGID_7_" d="M0 0h595.3v453H0z"/></defs><clipPath id="SVGID_8_"><use xlink:href="#SVGID_7_" style="overflow:visible"/></clipPath><path d="M251.7 302.9h302v26.6h-302v-26.6z" style="clip-path:url(#SVGID_8_);fill:#fff"/><defs><path id="SVGID_9_" d="M0 0h595.3v453H0z"/></defs><clipPath id="SVGID_10_"><use xlink:href="#SVGID_9_" style="overflow:visible"/></clipPath><path d="M251.7 302.9h302v26.6h-302v-26.6z" style="clip-path:url(#SVGID_10_);fill:none;stroke:#000;stroke-width:3.836;stroke-miterlimit:10"/><defs><path id="SVGID_11_" d="M0 0h595.3v453H0z"/></defs><clipPath id="SVGID_12_"><use xlink:href="#SVGID_11_" style="overflow:visible"/></clipPath><path d="M251.7 343h302v26.6h-302V343z" style="clip-path:url(#SVGID_12_);fill:#fff"/><defs><path id="SVGID_13_" d="M0 0h595.3v453H0z"/></defs><clipPath id="SVGID_14_"><use xlink:href="#SVGID_13_" style="overflow:visible"/></clipPath><path d="M251.7 343h302v26.6h-302V343z" style="clip-path:url(#SVGID_14_);fill:none;stroke:#000;stroke-width:3.836;stroke-miterlimit:10"/><defs><path id="SVGID_15_" d="M0 0h595.3v453H0z"/></defs><clipPath id="SVGID_16_"><use xlink:href="#SVGID_15_" style="overflow:visible"/></clipPath><path d="M-39 66.5h290.7v349H-39v-349z" style="clip-path:url(#SVGID_16_);fill:none;stroke:#000;stroke-width:7.795;stroke-miterlimit:10"/><defs><path id="SVGID_17_" d="M0 0h595.3v453H0z"/></defs><clipPath id="SVGID_18_"><use xlink:href="#SVGID_17_" style="overflow:visible"/></clipPath><path d="M257.7 382.7h296v26.6h-296v-26.6z" style="clip-path:url(#SVGID_18_);fill:#fff"/><defs><path id="SVGID_19_" d="M0 0h595.3v453H0z"/></defs><clipPath id="SVGID_20_"><use xlink:href="#SVGID_19_" style="overflow:visible"/></clipPath><path d="M251.7 382.7h302v26.6h-302v-26.6z" style="clip-path:url(#SVGID_20_);fill:none;stroke:#000;stroke-width:3.836;stroke-miterlimit:10"/><defs><path id="SVGID_21_" d="M0 0h595.3v453H0z"/></defs><clipPath id="SVGID_22_"><use xlink:href="#SVGID_21_" style="overflow:visible"/></clipPath><path d="M-39 66.5h290.7v349H-39v-349z" style="clip-path:url(#SVGID_22_);fill:#fff"/><text transform="translate(197.131 129.661)" class="st18 st19">br</text><text transform="translate(410.726 61.677)" class="st18 st19">Insulation</text><text transform="translate(195.063 195.177)" class="st18 st19">wt</text></svg>