<svg version="1.1" id="Layer_1" xmlns="http://www.w3.org/2000/svg" xmlns:xlink="http://www.w3.org/1999/xlink" x="0" y="0" viewBox="0 0 752.7 448.4" style="enable-background:new 0 0 752.7 448.4;background-color:#fff" xml:space="preserve"><style>.st0{fill:#f6f6f6}.st1{stroke-width:.572}.st1,.st2,.st3{fill:none;stroke:#000;stroke-linecap:round}.st2{stroke-width:.286}.st3{stroke-width:.667}.st4,.st48{stroke-width:.213}.st4,.st48,.st49{fill:none;stroke:#000}.st4{stroke-linecap:round;stroke-linejoin:round}.st48,.st49{stroke-miterlimit:10}.st49{stroke-width:.425}.st56{fill:#f6f5f6}.st57,.st58,.st59{stroke:#000}.st57,.st58,.st59,.st63{fill:none;stroke-linecap:round}.st57{stroke-width:.213;stroke-linejoin:round;stroke-dasharray:1.883,5.65}.st58{stroke-width:.425}.st59{stroke-width:.213}.st63{stroke:#010202;stroke-width:.2835;stroke-linejoin:round;stroke-miterlimit:10}.st65{fill-rule:evenodd;clip-rule:evenodd;fill:#010202}.st66{font-family:Helvetica,Arial,sans-serif}.st67{font-size:12px}.st68{enable-background:new}</style><path class="st0" d="m718.7 59.2-4.9 2.6c-.8.4-1.3 1.5-1.1 2.9l-6.1 3.4c-.9.4-.9 2.2.2 3.8.9 1.6 2.5 2.5 3.5 1.9l6.1-3.4c1.1.7 2.4 1 3.1.6l4.9-2.6c1.6-.9 1.4-3.5-.2-6-1.4-2.6-3.9-4.1-5.5-3.2"/><path class="st1" d="m715 63.5-8.2 4.6m11.8 1.3-8.3 4.4"/><path class="st2" d="M714 61.7c1.6-.9 3.9.6 5.5 3.1s1.6 5.3.2 6"/><path class="st2" d="M715 63.5c.9-.4 2.5.4 3.5 1.9.9 1.6 1.1 3.2.2 3.8M706.8 68c.9-.4 2.5.4 3.5 1.9.9 1.6 1.1 3.2.2 3.8"/><path class="st2" d="M707.9 67.3c.9-.4 2.5.4 3.5 1.9.9 1.6 1.1 3.2.2 3.8"/><path class="st2" d="M709.2 66.7c.9-.4 2.5.4 3.5 1.9.9 1.6 1.1 3.2.2 3.8"/><path class="st2" d="M710.3 66.1c.9-.4 2.5.4 3.5 1.9.9 1.6.9 3.2.2 3.8m.2-5.4c.3.3.5.6.8.9.9 1.6 1.1 3.2.2 3.8"/><path class="st3" d="M722.5 69.5h0"/><path class="st1" d="m718.7 59.2-4.9 2.6c-.8.4-1.3 1.5-1.1 2.9h0l-6.1 3.4c-.9.4-.9 2.2.2 3.8.9 1.6 2.5 2.5 3.5 1.9l6.1-3.4h0c1.1.7 2.4 1 3.1.6l4.9-2.6c1.6-.9 1.4-3.5-.2-6-1.4-2.6-3.9-4.1-5.5-3.2z"/><path class="st4" d="m708.5 70.8-5.8 3.1"/><path d="m699.6 75.5-2.7 1.3" style="fill:none;stroke:#000;stroke-width:.213;stroke-linecap:round;stroke-linejoin:round;stroke-dasharray:.766,2.298"/><path d="M695.3 77.7 683.2 84" style="fill:none;stroke:#000;stroke-width:.213;stroke-linecap:round;stroke-linejoin:round;stroke-dasharray:4.596,2.298,.766,2.298"/><path class="st4" d="m681.6 84.9-5.8 2.9"/><path class="st0" d="m721.9 108.3-4.9 2.6c-.8.4-1.3 1.5-1.1 2.9l-6.1 3.4c-.9.4-.9 2.2.2 3.8.9 1.6 2.5 2.5 3.5 1.9l6.1-3.4c1.1.7 2.4 1 3.1.6l4.9-2.6c1.6-.9 1.4-3.5-.2-6-1.4-2.6-3.9-3.9-5.5-3.2"/><path class="st1" d="m718.1 112.7-8.2 4.4m11.8 1.3-8.3 4.4"/><path class="st2" d="M717.2 110.9c1.6-.9 3.9.6 5.5 3.1s1.6 5.3.2 6"/><path class="st2" d="M718.1 112.7c.9-.4 2.5.4 3.5 1.9.9 1.6 1.1 3.2.2 3.8m-11.9-1.3c.9-.4 2.5.4 3.5 1.9.9 1.6 1.1 3.2.2 3.8"/><path class="st2" d="M711 116.5c.9-.4 2.5.4 3.5 1.9.9 1.6 1.1 3.2.2 3.8"/><path class="st2" d="M712.3 115.8c.9-.4 2.5.4 3.5 1.9.9 1.6 1.1 3.2.2 3.8"/><path class="st2" d="M713.4 115.2c.9-.4 2.5.4 3.5 1.9.9 1.6.9 3.2.2 3.8m.2-5.3c.3.3.5.6.8.9.9 1.6 1.1 3.2.2 3.8"/><path class="st3" d="M725.7 118.6h0"/><path class="st1" d="m721.9 108.3-4.9 2.6c-.8.4-1.3 1.5-1.1 2.9h0l-6.1 3.4c-.9.4-.9 2.2.2 3.8.9 1.6 2.5 2.5 3.5 1.9l6.1-3.4h0c1.1.7 2.4 1 3.1.6l4.9-2.6c1.6-.9 1.4-3.5-.2-6-1.4-2.6-3.9-3.9-5.5-3.2z"/><path class="st4" d="m711.4 120.3-5.8 2.9"/><path d="m697.8 127.4-6.4 3.5" style="fill:none;stroke:#000;stroke-width:.213;stroke-linecap:round;stroke-linejoin:round;stroke-dasharray:1.889,5.666"/><path class="st4" d="m687.5 133-5.8 3.1"/><g style="opacity:.35"><defs><path id="SVGID_1_" d="M508.6 113.4h120.8v145.5H508.6z"/></defs><clipPath id="SVGID_2_"><use xlink:href="#SVGID_1_" style="overflow:visible"/></clipPath><path d="m620.3 142.7 8.8 4.7v47.2l-6.9 3.7v12.6l-2.8 1.6 1.7.9c.5.3.6.7.8 1.5.2 1.6-1.1 3.7-2.5 4.6-.6.4-1.3.6-1.7.4-.2 0-.2.1-.3.1-.5.3-.9.3-1.3.1l-.3-.1v2.1l-10.9 5.7v7.5l-43.7 23.4-9-4.8c-.2.4-.3.7-.6 1.2-1.1 1.8-2.8 2.6-3.8 2.2l-3.3-1.8c-.2-.1-.2-.1-.3-.1l-.9.4-6.1-3.2-1.9 1v.3l-.3.1-25.5-13.7-.3-.6v-81.4c0-.1 0-.3.2-.6.6-.9 1.3-1.9 1.7-2.8l.5-.4 75.3-40.7c.2-.1.3-.1.5 0 .5.4 23.3 12.5 23.3 12.6.5.4 1.1.7 1.7.9.2 0 .2.1.2.3v4.6l5.2 2.8c.3.1.6.6.6 1.2l2.7 1.5c1.1.6.9 2.4-.2 4.1-.3.3-.5.6-.6.9" style="clip-path:url(#SVGID_2_);fill:#f6f6f6"/><defs><path id="SVGID_3_" d="M508.6 113.4h120.8v145.5H508.6z"/></defs><clipPath id="SVGID_4_"><use xlink:href="#SVGID_3_" style="overflow:visible"/></clipPath><path d="m553.9 254.2-10.9-5.9m.1 7.4v-7.3m10.8-60.5L543 182m-6.7 69.7v-78.3m-15.3 5.1c-1.1-.6-2.2-2.2-2.2-3.4 0-1.3.9-1.8 2.2-1.2 1.1.6 2.2 2.2 2.2 3.4.1 1.4-.9 2-2.2 1.2m0 54.1c-1.1-.6-2.2-2.2-2.2-3.4 0-1.3.9-1.8 2.2-1.2 1.1.6 2.2 2.2 2.2 3.4s-.9 1.8-2.2 1.2m64.2-104.2c1.1.6 3.1.6 4.2 0s1.1-1.6 0-2.4c-1.1-.6-3.1-.6-4.2 0-1.1.8-1.1 1.8 0 2.4m-50 27.1c1.1.6 3.1.6 4.2 0s1.1-1.6 0-2.4c-1.1-.6-3.1-.6-4.2 0-1.1.8-1.1 1.8 0 2.4" style="clip-path:url(#SVGID_4_);fill:none;stroke:#1c1c1a;stroke-width:.213;stroke-linecap:round;stroke-linejoin:round;stroke-miterlimit:10"/><defs><path id="SVGID_5_" d="M508.6 113.4h120.8v145.5H508.6z"/></defs><clipPath id="SVGID_6_"><use xlink:href="#SVGID_5_" style="overflow:visible"/></clipPath><path d="M521 232c-.9-.4-1.6-1.6-1.6-2.6s.8-1.3 1.6-.9c.9.4 1.6 1.6 1.6 2.6 0 1.1-.6 1.4-1.6.9m0-53.9c-.9-.4-1.6-1.6-1.6-2.6s.8-1.3 1.6-.9c.9.4 1.6 1.6 1.6 2.6 0 .9-.6 1.3-1.6.9m32.9 62.3v-10.9m0-32.6v-5" style="clip-path:url(#SVGID_6_);fill:none;stroke:#1c1c1a;stroke-width:.213;stroke-linecap:round;stroke-linejoin:round;stroke-miterlimit:10"/><defs><path id="SVGID_7_" d="M508.6 113.4h120.8v145.5H508.6z"/></defs><clipPath id="SVGID_8_"><use xlink:href="#SVGID_7_" style="overflow:visible"/></clipPath><path d="M610.5 126.5c0-.1-22.8-12.2-23.3-12.6-.2-.1-.3 0-.5 0l-75.3 40.6-.5.4c-.5 1-1.1 1.9-1.7 2.8-.2.1-.2.3-.2.6v81.4l.3.6 25.5 13.7.3-.1v-2.4l.9.4.2-.1.6.3.2.3 6.1 3.2" style="clip-path:url(#SVGID_8_);fill:none;stroke:#1c1c1a;stroke-width:.213;stroke-linecap:round;stroke-linejoin:round;stroke-miterlimit:10"/><defs><path id="SVGID_9_" d="M508.6 113.4h120.8v145.5H508.6z"/></defs><clipPath id="SVGID_10_"><use xlink:href="#SVGID_9_" style="overflow:visible"/></clipPath><path d="m536.9 252.3-2.4 1.3c-.2.1-.3 0-.5 0-.5-.4-1.1-.7-1.7-.9-.2 0-.2-.1-.2-.3v-81.6c0-.1 0-.3.2-.6.6-.9 1.3-1.9 1.7-2.8l.5-.4 75.3-40.7h0c.2-.1.3-.1.5 0 .5.4 1.1.7 1.7.9.2 0 .2.1.2.3v4.6m7 74.4c.3-1-.2-1.9-.9-1.8-.8.1-1.7 1-2 2.2-.3 1 .2 1.9.9 1.8.7-.2 1.7-1.2 2-2.2m-1-70.3c0-1.2-.9-1.6-2-1m12.9 59.4v-47.2m-75.2 40.5V254m68.3-110.3-61.3 33.1m-.1 3.8v-3.8" style="clip-path:url(#SVGID_10_);fill:none;stroke:#1c1c1a;stroke-width:.213;stroke-linecap:round;stroke-linejoin:round;stroke-miterlimit:10"/><defs><path id="SVGID_11_" d="M508.6 113.4h120.8v145.5H508.6z"/></defs><clipPath id="SVGID_12_"><use xlink:href="#SVGID_11_" style="overflow:visible"/></clipPath><path d="M557.5 186c1.7-1 3.3-3.4 3.3-5.3m-6.7 7.2 3.5-1.9m-12.5-12.5c-.8.7-1.6 2.1-2 3.2m-4.9-6.5c-.8.7-1.6 2.1-2 3.2m6.9 3.5v5.1m6.9-11-4.9 2.6m71.1-38.4-4.9 2.6M550 174.3V171m-6.8 11.1 2.7-1.5m14.9 73.3c0-1.9-1.6-2.8-3.3-1.8l-3.6 1.9m6.9 4.6v-4.7m64.7-104.6 3.6-1.9m-6.9.1c0 1.9 1.6 2.8 3.3 1.8m-3.3-5.6v3.8m-6.8 72.3v2.1m6.8-11-3.5 1.9m-14.1 22.3v-20.9m5.9-9.7c-3.3 1.8-6 6.2-6 9.7m24.6-19.6-18.6 10m-26.1 12.3s-1.1-.6-2-1.2c-.9-.4-2-.4-3.5.3-2.8 1.5-5 5.1-5 8.1 0 1.5.5 2.5 1.4 2.9.9.4 1.9 1 1.9 1" style="clip-path:url(#SVGID_12_);fill:none;stroke:#1c1c1a;stroke-width:.213;stroke-linecap:round;stroke-linejoin:round;stroke-miterlimit:10"/><defs><path id="SVGID_13_" d="M508.6 113.4h120.8v145.5H508.6z"/></defs><clipPath id="SVGID_14_"><use xlink:href="#SVGID_13_" style="overflow:visible"/></clipPath><path d="M585.8 219.8c0-2.9-2.2-4.1-5-2.6-2.8 1.5-5 5.1-5 8.1s2.2 4.1 5 2.6c2.7-1.5 5-5.1 5-8.1" style="clip-path:url(#SVGID_14_);fill:none;stroke:#1c1c1a;stroke-width:.213;stroke-linecap:round;stroke-linejoin:round;stroke-miterlimit:10"/><defs><path id="SVGID_15_" d="M508.6 113.4h120.8v145.5H508.6z"/></defs><clipPath id="SVGID_16_"><use xlink:href="#SVGID_15_" style="overflow:visible"/></clipPath><path d="M585.1 220.3c0-2.5-1.9-3.5-4.2-2.4-2.4 1.3-4.2 4.3-4.2 6.9 0 2.5 1.9 3.5 4.2 2.4 2.3-1.3 4.2-4.4 4.2-6.9m-24.3 38.3 43.7-23.5" style="clip-path:url(#SVGID_16_);fill:none;stroke:#1c1c1a;stroke-width:.213;stroke-linecap:round;stroke-linejoin:round;stroke-miterlimit:10"/><defs><path id="SVGID_17_" d="M508.6 113.4h120.8v145.5H508.6z"/></defs><clipPath id="SVGID_18_"><use xlink:href="#SVGID_17_" style="overflow:visible"/></clipPath><path d="M579.6 223.8c0-.4-.3-.6-.8-.4-.5.1-.8.7-.8 1.2 0 .4.3.6.8.4.4-.3.8-.8.8-1.2m.4-2.5c0-.4-.3-.6-.8-.4-.5.1-.8.7-.8 1.2s.3.6.8.4c.5-.2.8-.8.8-1.2m2.7-1.5c0-.4-.3-.6-.8-.4-.5.1-.8.7-.8 1.2 0 .4.3.6.8.4.5-.1.8-.7.8-1.2m.5 2.1c0-.4-.3-.6-.8-.4-.5.1-.8.7-.8 1.2s.3.6.8.4c.3-.3.8-.8.8-1.2m-1.9 2.2c0-.4-.3-.6-.8-.4s-.8.7-.8 1.2.3.6.8.4c.5-.3.8-.8.8-1.2" style="clip-path:url(#SVGID_18_);fill:none;stroke:#1c1c1a;stroke-width:.213;stroke-linecap:round;stroke-linejoin:round;stroke-miterlimit:10"/><defs><path id="SVGID_19_" d="M508.6 113.4h120.8v145.5H508.6z"/></defs><clipPath id="SVGID_20_"><use xlink:href="#SVGID_19_" style="overflow:visible"/></clipPath><path d="M581.3 222c0-.4-.3-.6-.8-.4-.5.1-.8.7-.8 1.2 0 .4.3.6.8.4.5-.3.8-.7.8-1.2" style="clip-path:url(#SVGID_20_);fill:none;stroke:#1c1c1a;stroke-width:.213;stroke-linecap:round;stroke-linejoin:round;stroke-miterlimit:10"/><defs><path id="SVGID_21_" d="M508.6 113.4h120.8v145.5H508.6z"/></defs><clipPath id="SVGID_22_"><use xlink:href="#SVGID_21_" style="overflow:visible"/></clipPath><path d="M581.1 219.1c1.4-.4 2.4.4 2.2 2.1-.2 1.6-1.4 3.5-2.8 4.3-1.4.7-2.7.3-2.8-1.2-.2-1.5.8-3.4 2.2-4.6v.1c.2.1.3.1.5 0s.3-.3.5-.6l.2-.1h0zm-20.3-42.3L550 171m33.2 48.8v-.6" style="clip-path:url(#SVGID_22_);fill:none;stroke:#1c1c1a;stroke-width:.213;stroke-linecap:round;stroke-linejoin:round;stroke-miterlimit:10"/><defs><path id="SVGID_23_" d="M508.6 113.4h120.8v145.5H508.6z"/></defs><clipPath id="SVGID_24_"><use xlink:href="#SVGID_23_" style="overflow:visible"/></clipPath><path d="M580.5 218.1c.2 0 .3.1.5.1.5.3 1.3.6 1.7 1m-4.1 6.5s-1.1-.6-1.6-.9c-.2-.1-.3-.1-.5-.3m.5 2.1c.6 0 1.3-.1 2-.6.2-.1.3-.1.5-.3m3.7-6.5c0-.7-.2-1.3-.5-1.8" style="clip-path:url(#SVGID_24_);fill:none;stroke:#1c1c1a;stroke-width:.213;stroke-linecap:round;stroke-linejoin:round;stroke-miterlimit:10"/><defs><path id="SVGID_25_" d="M508.6 113.4h120.8v145.5H508.6z"/></defs><clipPath id="SVGID_26_"><use xlink:href="#SVGID_25_" style="overflow:visible"/></clipPath><path d="m580 219.7-.9-.4m2-.2-1.3-.6" style="clip-path:url(#SVGID_26_);fill:none;stroke:#1c1c1a;stroke-width:.213;stroke-miterlimit:10"/><defs><path id="SVGID_27_" d="M508.6 113.4h120.8v145.5H508.6z"/></defs><clipPath id="SVGID_28_"><use xlink:href="#SVGID_27_" style="overflow:visible"/></clipPath><path d="m551.9 253.8 9 4.8m-46.5-102.7 17.9 9.6m-20.2-5.9 17.9 9.7m80.4-38.1 7.2 3.8m-79.4 35.2 72.2-38.9m.9 6.5 17.8 9.6" style="clip-path:url(#SVGID_28_);fill:none;stroke:#1c1c1a;stroke-width:.213;stroke-linecap:round;stroke-linejoin:round;stroke-miterlimit:10"/><defs><path id="SVGID_29_" d="M508.6 113.4h120.8v145.5H508.6z"/></defs><clipPath id="SVGID_30_"><use xlink:href="#SVGID_29_" style="overflow:visible"/></clipPath><path d="M548.3 173.4c-.9-.6-2.7.4-3.8 2.2-1.1 1.8-1.1 3.7-.2 4.1" style="clip-path:url(#SVGID_30_);fill:none;stroke:#000;stroke-width:.213;stroke-linecap:round"/><defs><path id="SVGID_31_" d="M508.6 113.4h120.8v145.5H508.6z"/></defs><clipPath id="SVGID_32_"><use xlink:href="#SVGID_31_" style="overflow:visible"/></clipPath><path d="m548.3 173.4 3.3 1.8c1.1.6.9 2.4-.2 4.1-1.1 1.8-2.8 2.6-3.8 2.2l-3.3-1.8" style="clip-path:url(#SVGID_32_);fill:none;stroke:#000;stroke-width:.213;stroke-miterlimit:10"/><defs><path id="SVGID_33_" d="M508.6 113.4h120.8v145.5H508.6z"/></defs><clipPath id="SVGID_34_"><use xlink:href="#SVGID_33_" style="overflow:visible"/></clipPath><path d="M551.4 175.2c-1.1-.6-2.7.4-3.8 2.2-1.1 1.8-1.1 3.7-.2 4.1" style="clip-path:url(#SVGID_34_);fill:none;stroke:#000;stroke-width:.213;stroke-linecap:round"/><defs><path id="SVGID_35_" d="M508.6 113.4h120.8v145.5H508.6z"/></defs><clipPath id="SVGID_36_"><use xlink:href="#SVGID_35_" style="overflow:visible"/></clipPath><path d="m550.6 176.5-1.6.3-1.1 1.9.5 1.5m0 0 1.4-.4 1.1-1.9-.3-1.3m.3 1.2-1.9-1m.8 2.9-1.9-1m69.7-42.8c-1.1-.6-2.7.4-3.8 2.2l-.5.9" style="clip-path:url(#SVGID_36_);fill:none;stroke:#000;stroke-width:.213;stroke-linecap:round"/><defs><path id="SVGID_37_" d="M508.6 113.4h120.8v145.5H508.6z"/></defs><clipPath id="SVGID_38_"><use xlink:href="#SVGID_37_" style="overflow:visible"/></clipPath><path d="m617.6 135.9 3.3 1.8c1.1.6.9 2.4-.2 4.1-.2.3-.3.6-.5.7" style="clip-path:url(#SVGID_38_);fill:#f5f4f5"/><defs><path id="SVGID_39_" d="M508.6 113.4h120.8v145.5H508.6z"/></defs><clipPath id="SVGID_40_"><use xlink:href="#SVGID_39_" style="overflow:visible"/></clipPath><path d="M620.9 137.7c-.9-.6-2.7.4-3.8 2.2l-.5.9m3.5-1.8-1.6.4-1.1 1.8m1.9.9 1.1-1.6-.3-1.5m.3 1.5-1.9-1m-72.9 110.2c-.5.4-.9.9-1.3 1.5-1.1 1.8-1.1 3.7-.2 4.1" style="clip-path:url(#SVGID_40_);fill:none;stroke:#000;stroke-width:.213;stroke-linecap:round"/><defs><path id="SVGID_41_" d="M508.6 113.4h120.8v145.5H508.6z"/></defs><clipPath id="SVGID_42_"><use xlink:href="#SVGID_41_" style="overflow:visible"/></clipPath><path d="M552.2 253.2c-.2.6-.3 1.2-.8 1.8-1.1 1.8-2.8 2.6-3.8 2.2l-3.3-1.8" style="clip-path:url(#SVGID_42_);fill:#f5f4f5"/><defs><path id="SVGID_43_" d="M508.6 113.4h120.8v145.5H508.6z"/></defs><clipPath id="SVGID_44_"><use xlink:href="#SVGID_43_" style="overflow:visible"/></clipPath><path d="M548.9 251.4c-.5.4-.9.9-1.3 1.5-1.1 1.8-1.1 3.7-.2 4.1" style="clip-path:url(#SVGID_44_);fill:none;stroke:#000;stroke-width:.213;stroke-linecap:round"/><defs><path id="SVGID_45_" d="M508.6 113.4h120.8v145.5H508.6z"/></defs><clipPath id="SVGID_46_"><use xlink:href="#SVGID_45_" style="overflow:visible"/></clipPath><path d="m550.3 252.2-1.3.3-1.1 1.9.5 1.3" style="clip-path:url(#SVGID_46_);fill:none;stroke:#000;stroke-width:.213;stroke-linecap:round"/><defs><path id="SVGID_47_" d="M508.6 113.4h120.8v145.5H508.6z"/></defs><clipPath id="SVGID_48_"><use xlink:href="#SVGID_47_" style="overflow:visible"/></clipPath><path d="m548.4 255.7 1.4-.4 1.1-1.8-.2-1m.2 1-1.9-1m.8 2.7-1.9-.9" style="clip-path:url(#SVGID_48_);fill:none;stroke:#000;stroke-width:.213;stroke-linecap:round"/><defs><path id="SVGID_49_" d="M508.6 113.4h120.8v145.5H508.6z"/></defs><clipPath id="SVGID_50_"><use xlink:href="#SVGID_49_" style="overflow:visible"/></clipPath><path d="m543.1 255.7.9-.6" style="clip-path:url(#SVGID_50_);fill:none;stroke:#1c1c1a;stroke-width:.213;stroke-linecap:round;stroke-linejoin:round;stroke-miterlimit:10"/><defs><path id="SVGID_51_" d="M508.6 113.4h120.8v145.5H508.6z"/></defs><clipPath id="SVGID_52_"><use xlink:href="#SVGID_51_" style="overflow:visible"/></clipPath><path d="M622.2 198.2v12.6" style="clip-path:url(#SVGID_52_);fill:none;stroke:#1c1c1a;stroke-width:.213;stroke-miterlimit:10"/><defs><path id="SVGID_53_" d="M508.6 113.4h120.8v145.5H508.6z"/></defs><clipPath id="SVGID_54_"><use xlink:href="#SVGID_53_" style="overflow:visible"/></clipPath><path d="m619.3 212.3 1.7 1m-16.4 14.3 10.9-5.7m1.8-2.2c.5.1 1.1 0 1.7-.4 1.6-.9 2.7-2.9 2.5-4.6" style="clip-path:url(#SVGID_54_);fill:none;stroke:#1c1c1a;stroke-width:.213;stroke-linecap:round;stroke-linejoin:round;stroke-miterlimit:10"/><defs><path id="SVGID_55_" d="M508.6 113.4h120.8v145.5H508.6z"/></defs><clipPath id="SVGID_56_"><use xlink:href="#SVGID_55_" style="overflow:visible"/></clipPath><path d="M621.7 214.7c-.2-1.6-1.4-2.1-3-1.2-.6.4-1.3.9-1.6 1.6m1.6-2.3c-.8.4-1.6 1.2-2.2 2.2m1.7.7.6-.7h1.3v1.5L619 218h-.3" style="clip-path:url(#SVGID_56_);fill:none;stroke:#1c1c1a;stroke-width:.213;stroke-linecap:round;stroke-linejoin:round;stroke-miterlimit:10"/><defs><path id="SVGID_57_" d="M508.6 113.4h120.8v145.5H508.6z"/></defs><clipPath id="SVGID_58_"><use xlink:href="#SVGID_57_" style="overflow:visible"/></clipPath><path d="m525.3 202.2-2.4-1.3c-.2-.1-.2.1-.2.1v.6l3.5 1.9v-2.9s0-.3-.3-.4l-.5-.3v2.1c.2.5-.1.2-.1.2m.2 10.1c.2.1.2.3.2.4v2.1l-.8-.4v-1.8c0-.4.2-.6.2-.6h.3c-.1.2.1.2.1.3m-1.9 1.4c-.2-.1-.2-.3-.2-.4v-1.9h.3l.2.1c.2.1.2.3.2.6v1.8c-.1-.1-.5-.2-.5-.2zm.8-2.4c0-.1 0-.1 0 0-.2-.3-.5-.4-.6-.6-.3-.1-.6-.1-.8 0-.3.1-.3.6-.3.7v2.2c0 .3.3.6.3.6l3.3 1.8v-2.8c0-.4 0-.7-.2-1-.2-.3-.5-.6-.8-.9-.5-.3-.8-.3-.9 0m.4-12.8V196c0-.1-.2-.3-.2-.3l-.5-.3v2.6l-.3-.1c-.2-.1-.2-.3-.2-.4v-2.4s0-.1-.2-.3l-.5-.3v3.2c0 .4.3.4.3.4l3.3 1.8v-3.5s0-.1-.2-.3l-.5-.3v2.9c.3.1-1-.2-1-.2zm.8 8.4v-1.6c0-.3 0-1-.3-1.2-.2 0-.3-.1-.5.9 0 .6 0 .9-.2 1.2-.2.3-.5.4-.8.1-.6-.3-.9-1.2-1.1-2.2v-1.9l.5.3c.3.1.2.4.2.4v1.6c0 .3 0 .9.3 1 .2 0 .2 0 .3-.9 0-.6.2-1 .3-1.3s.5-.4.9-.1c.3.3.9.7.9 2.2v1.6l-.5-.1c.2.3 0 .3 0 0m-4.1-19.1c-.3.1-.3.6-.3.6.3 1 .9 2.2.9 2.2s-.6-1.6-.3-2.9c0 .1-.1.1-.3.1" style="clip-path:url(#SVGID_58_);fill:#9d9c9d"/><defs><path id="SVGID_59_" d="M508.6 113.4h120.8v145.5H508.6z"/></defs><clipPath id="SVGID_60_"><use xlink:href="#SVGID_59_" style="overflow:visible"/></clipPath><path d="M521.2 185.9c-.6.1-.3 1.3-.2 2.1 0-.1.2-1.2 1.7 0 .9.7 2 2.1 2 2.1s-2.5-4.4-3.5-4.2m3 8.2-.6-.3s-.2-.1-.2-.3V192c0-.1 0-.3.2-.4h.3c.2 0 .2.1.3.3.2.1.2.4.2.7l-.2 1.5zm.6-1.9c0-.1-.2-.4-.2-.6 0-.1-.2-.3-.3-.4-.2-.1-.3-.3-.6-.4s-.8-.1-.9 0-.2.6-.2.7v2.2c0 .3.2.4.2.4l3.3 1.8v-.6s0-.1-.2-.3l-1.1-.6v-1.2l1.1-.4h.2s.2 0 .2-.3v-.7c-.1 0-1.5.4-1.5.4zm-2 15.4v.3c0 .3 0 .4.3.6.5.4 1.1 1.3 1.9 2.1-.2-.3-.3-.7-.3-1.2l-.8-.9h1.1v1.2c0 .7.3 1.2.5 1.3.5.6.8.9.8.9s.2.1.2 0v-.7l-.5-.6s-.3-.3-.3-.6v-1.5h.6c.2 0 .2 0 .2-.1v-.7h-3.7zm-4.9 3.9c-2-1-3.1-.1-3.1 1.3 0 1 .5 1.9 1.1 2.8l-3.3-1.8v1.5l3.9 1.9c.3-.1.9-.4 1.4-.7-1.1-.6-1.9-1.9-1.9-2.8 0-1 .8-1.5 1.9-.7 1.1.6 1.9 1.9 1.9 2.8 0 .3-.2.6-.3.9-.5.4-1.3 1-1.9 1.3l3.3 1.8v-1.5l-.9-.4c.6-.1 1.1-.6 1.1-1.6-.1-1.8-1.2-3.8-3.2-4.8m0-.5c-1.7-.9-3.1-3.1-3.1-5.1 0-1.9 1.4-2.6 3.1-1.8 1.7.9 3.1 3.1 3.1 5.1 0 2-1.4 2.7-3.1 1.8m0-5.3c-1.1-.6-1.9-.3-1.9.9s.8 2.4 1.9 2.9c1.1.6 1.9.1 1.9-.9 0-1.1-.8-2.4-1.9-2.9m0-1.9c-1.7-.9-3.1-3.1-3.1-5.1 0-2.1 1.4-2.6 3.1-1.8 1.7.9 3.1 3.1 3.1 5.1 0 2-1.4 2.7-3.1 1.8m0-5.3c-1.1-.6-1.9-.3-1.9.9s.8 2.4 1.9 2.9c1.1.6 1.9.1 1.9-.9 0-1.1-.8-2.4-1.9-2.9m2.2-.4-.9-1.2c.5-.4.8-1 .8-1.8 0-.6-.3-1.2-.6-1.3-.5-.3-.6.3-.8 1-.3.9-.6 1.6-1.7 1-1.1-.6-1.7-1.9-1.7-3.2 0-.7.3-1.5.6-2.1l.9 1.2c-.3.4-.6 1-.6 1.5 0 .6.3 1 .6 1.2.5.3.6-.3.8-1 .3-.7.6-1.6 1.7-1 1.3.7 1.9 2.1 1.9 3.4-.2 1-.4 1.8-1 2.3m-.9-6.6-3.1-1.6v.9l-1.1-.6v-.9l-1.6-.9v-1.5l1.6.9V186l1.1.6v1.8l3 1.6c.5.3.8.1.8-.4 0-.3 0-.6-.2-1l1.1.6c.2.4.3.9.3 1.5-.2.9-.5 1.5-1.9.8" style="clip-path:url(#SVGID_60_);fill:#9d9c9d"/><defs><path id="SVGID_61_" d="M508.6 113.4h120.8v145.5H508.6z"/></defs><clipPath id="SVGID_62_"><use xlink:href="#SVGID_61_" style="overflow:visible"/></clipPath><path d="m620.3 142.7 8.8 4.7v47.2l-6.9 3.7v12.6h0l-2.8 1.6 1.7.9c.5.3.6.7.8 1.5.2 1.6-1.1 3.7-2.5 4.6-.6.4-1.3.6-1.7.4h0c-.2 0-.2.1-.3.1-.5.3-.9.3-1.3.1l-.3-.1v2.1l-10.9 5.7v7.5l-43.7 23.4-9-4.8c-.2.4-.3.7-.6 1.2-1.1 1.8-2.8 2.6-3.8 2.2l-3.3-1.8h0c-.2-.1-.2-.1-.3-.1l-.9.4h0l-6.1-3.2-1.9 1v.3l-.3.1-25.5-13.7-.3-.6v-81.4c0-.1 0-.3.2-.6.6-.9 1.3-1.9 1.7-2.8l.5-.4 75.3-40.7c.2-.1.3-.1.5 0 .5.4 23.3 12.5 23.3 12.6.5.4 1.1.7 1.7.9.2 0 .2.1.2.3v4.6l5.2 2.8h0c.3.1.6.6.6 1.2l2.7 1.5c1.1.6.9 2.4-.2 4.1-.3.3-.5.6-.6.9" style="clip-path:url(#SVGID_62_);fill:none;stroke:#1c1c1a;stroke-width:.425;stroke-linecap:round;stroke-linejoin:round;stroke-miterlimit:10"/><defs><path id="SVGID_63_" d="M508.6 113.4h120.8v145.5H508.6z"/></defs><clipPath id="SVGID_64_"><use xlink:href="#SVGID_63_" style="overflow:visible"/></clipPath><path d="M611.6 217.9c-.2-.4 0-.7.3-.7s.6.4.8.9c.2.4 0 .7-.3.7s-.8-.4-.8-.9m5.2.2c0 .1.2.1.2.1.2 0 .2-.3.2-.3 0-.1-.2-.1-.2-.1s-.2.1-.2.3" style="clip-path:url(#SVGID_64_);fill:none;stroke:#1c1c1a;stroke-width:.213;stroke-linecap:round;stroke-linejoin:round;stroke-miterlimit:10"/><defs><path id="SVGID_65_" d="M508.6 113.4h120.8v145.5H508.6z"/></defs><clipPath id="SVGID_66_"><use xlink:href="#SVGID_65_" style="overflow:visible"/></clipPath><path d="M615.3 218.9c0 1 .8 1.5 1.9 1 .9-.6 1.9-1.9 1.9-2.9s-.8-1.5-1.9-1c-1.2.6-1.9 1.8-1.9 2.9" style="clip-path:url(#SVGID_66_);fill:none;stroke:#1c1c1a;stroke-width:.213;stroke-linecap:round;stroke-linejoin:round;stroke-miterlimit:10"/><defs><path id="SVGID_67_" d="M508.6 113.4h120.8v145.5H508.6z"/></defs><clipPath id="SVGID_68_"><use xlink:href="#SVGID_67_" style="overflow:visible"/></clipPath><path d="M618.4 215.9s-1.6-.9-1.9-1c-.3-.1-.8-.1-1.3.1-.9.6-1.9 1.9-1.9 2.9m.2 0c0 .4.2.9.5 1 .3.1 1.9 1 1.9 1m-4.7-10.5-.2.4h.9l.2-.4m3.3 4.8s-3.6-1.9-3.9-2.1-.8-.1-1.3.1c-.9.6-1.9 1.9-1.9 2.9" style="clip-path:url(#SVGID_68_);fill:none;stroke:#1c1c1a;stroke-width:.213;stroke-linecap:round;stroke-linejoin:round;stroke-miterlimit:10"/><defs><path id="SVGID_69_" d="M508.6 113.4h120.8v145.5H508.6z"/></defs><clipPath id="SVGID_70_"><use xlink:href="#SVGID_69_" style="overflow:visible"/></clipPath><path d="M608.3 215.1c0 .6.2.9.5 1s2.8 1.5 2.8 1.5m1.9-4.4c.2-.6.2-1 .2-1.6" style="clip-path:url(#SVGID_70_);fill:none;stroke:#1c1c1a;stroke-width:.213;stroke-linecap:round;stroke-linejoin:round;stroke-miterlimit:10"/><defs><path id="SVGID_71_" d="M508.6 113.4h120.8v145.5H508.6z"/></defs><clipPath id="SVGID_72_"><use xlink:href="#SVGID_71_" style="overflow:visible"/></clipPath><path d="M607.1 218.4s-.6-.4-1.4-.9c-.5-.4-.9-1-.9-1.9-.2-2.2 1.4-5 3.6-6.3 1.1-.6 2-.7 2.8-.4s1.7 1.2 1.7 1.2" style="clip-path:url(#SVGID_72_);fill:none;stroke:#1c1c1a;stroke-width:.213;stroke-linecap:round;stroke-linejoin:round;stroke-miterlimit:10"/><defs><path id="SVGID_73_" d="M508.6 113.4h120.8v145.5H508.6z"/></defs><clipPath id="SVGID_74_"><use xlink:href="#SVGID_73_" style="overflow:visible"/></clipPath><path d="M612.1 212.5c-.2-1.2-1.1-1.6-2.4-1-1.3.7-2.4 2.4-2.4 3.8m.3 0c0 1.3.9 1.9 2 1.5" style="clip-path:url(#SVGID_74_);fill:none;stroke:#1c1c1a;stroke-width:.213;stroke-linecap:round;stroke-linejoin:round;stroke-miterlimit:10"/><defs><path id="SVGID_75_" d="M508.6 113.4h120.8v145.5H508.6z"/></defs><clipPath id="SVGID_76_"><use xlink:href="#SVGID_75_" style="overflow:visible"/></clipPath><path d="M610.9 217.5c-.3.1-.5.4-.8.6-.5.3-.9.4-1.4.6h0l.2-.4h-.9l-.2.4h0c-.9-.1-1.6-1-1.7-2.2-.2-2.2 1.4-5 3.6-6.3.6-.3 1.1-.6 1.6-.6l-.8-.4c.3-.1.8 0 .8 0l.8.4c.9.1 1.4 1 1.6 2.2m3.6 5.8-1.4-.6m1.1 1.2-1.4-.6m-6.9.9-.8-.3m4.1-8.2-.8-.4m1.4 9.2.9-.4m-1.7-1.1 1.1-.6m.3 1.8h.3m2.4-3.7c-.2-.7-.9-.9-1.7-.4-.9.4-1.7 1.6-1.7 2.6m.4-.3c.3-.1.8.1.8.4" style="clip-path:url(#SVGID_76_);fill:none;stroke:#1c1c1a;stroke-width:.213;stroke-linecap:round;stroke-linejoin:round;stroke-miterlimit:10"/></g><path class="st4" d="m520.6 229.8-5.8 3.1"/><path d="m509.7 235.7-4.2 2.4" style="fill:none;stroke:#000;stroke-width:.213;stroke-linecap:round;stroke-linejoin:round;stroke-dasharray:1.25,3.751"/><path class="st4" d="m503 239.4-5.8 3.2"/><path class="st0" d="M703.3 96.5c0-.1-.2-.3-.3-.4-.5-.3-1.3-.3-1.7 0l-5.2 2.6v-6.2c0-.1-.2-.3-.3-.4-.5-.3-1.3-.3-1.7 0l-6 3.2v-6.9c0-.1 0-.4-.3-.6-.5-.3-1.3-.3-1.7 0l-5.2 2.8v-6.2c0-.1-.2-.3-.3-.4-.5-.3-1.3-.3-1.7 0l-5.7 2.9v-6.6c0-.1-.2-.4-.3-.4-.5-.3-1.3-.3-1.7 0l-5.2 2.8v-6.2c0-.1-.2-.4-.3-.4-.5-.3-1.3-.3-1.7 0l-31 16.6v71l39 21 31.5-16.9-.2-71.3z"/><path class="st48" d="M703.3 96.5c0 .1-.2.3-.3.4l-31 16.8-39.2-21"/><path class="st48" d="m632.9 92.7 31-16.8c.5-.3 1.3-.3 1.7 0 .5.3.5.7 0 .9 0 0-23 12.5-23.1 12.6-.3.1.2.4.2.4l4.4 2.4h.8l23.4-12.5c.5-.3 1.3-.3 1.7 0s.5.6 0 .9l-23.1 12.6v.4l4.9 2.6h.8L679 83.9c.5-.3 1.3-.3 1.7 0s.5.7 0 .9l-23.1 12.6v.4l4.6 2.5h.8l23.3-12.5c.5-.3 1.3-.3 1.7 0 .5.3.5.7 0 .9l-23.1 12.6v.4l5.2 2.8h.8L694.2 92c.5-.3 1.3-.3 1.7 0 .5.3.5.7 0 .9l-23.1 12.6v.4l4.4 2.4s.5.1.8.1c.3-.1 23.4-12.5 23.4-12.5.5-.3 1.3-.3 1.7 0 .2.1.3.3.3.4M672 113.7v70.7"/><path class="st49" d="M703.3 96.5c0-.1-.2-.3-.3-.4-.5-.3-1.3-.3-1.7 0l-5.2 2.6v-6.2c0-.1-.2-.3-.3-.4-.5-.3-1.3-.3-1.7 0l-6 3.2v-6.9c0-.1 0-.4-.3-.6-.5-.3-1.3-.3-1.7 0l-5.2 2.8v-6.2c0-.1-.2-.3-.3-.4-.5-.3-1.3-.3-1.7 0l-5.7 2.9v-6.6c0-.1-.2-.4-.3-.4-.5-.3-1.3-.3-1.7 0l-5.2 2.8v-6.2c0-.1-.2-.4-.3-.4-.5-.3-1.3-.3-1.7 0l-31 16.6v71l39 21 31.5-16.9-.2-71.3z"/><path d="M640 155.2c1.4.7 2.5 2.5 2.5 4s-1.1 2.1-2.5 1.3c-1.4-.7-2.5-2.5-2.5-4-.1-1.5 1-2.1 2.5-1.3m0-50.7c1.4.7 2.5 2.5 2.5 4s-1.1 2.1-2.5 1.3c-1.4-.7-2.5-2.5-2.5-4s1-2.1 2.5-1.3" style="fill:none;stroke:#000;stroke-width:.213;stroke-linecap:round;stroke-linejoin:round;stroke-miterlimit:10"/><path class="st4" d="m519.5 176.9-5.8 3.2"/><path d="m508.2 183.2-4.7 2.5" style="fill:none;stroke:#000;stroke-width:.213;stroke-linecap:round;stroke-linejoin:round;stroke-dasharray:1.378,4.135"/><path d="M500.6 187.2 479.1 199" style="fill:none;stroke:#000;stroke-width:.213;stroke-linecap:round;stroke-linejoin:round;stroke-dasharray:8.271,4.135,1.378,4.135"/><path class="st4" d="m476.2 200.6-5.8 3.1m171.3-97.5-5.8 3.1"/><path d="m632.6 111.2-2.8 1.5" style="fill:none;stroke:#000;stroke-width:.213;stroke-linecap:round;stroke-linejoin:round;stroke-dasharray:.824,2.471"/><path d="m628 113.6-12.9 7.1" style="fill:none;stroke:#000;stroke-width:.213;stroke-linecap:round;stroke-linejoin:round;stroke-dasharray:4.941,2.471,.824,2.471"/><path class="st4" d="m613.5 121.5-5.8 3.1m34.1 32.5-5.8 3.1"/><path d="m635.5 160.5-.5.1" style="fill:none;stroke:#000;stroke-width:.213;stroke-linecap:round;stroke-linejoin:round;stroke-dasharray:.112,.337"/><path class="st4" d="m634.9 160.8-5.8 3.1"/><path class="st56" d="M501.4 276.4 470.6 293c-.5.3-1.3.3-1.7 0-.2-.1-.3-.3-.3-.4v-6.2l-5.2 2.8c-.5.3-1.3.3-1.7 0-.2-.1-.3-.3-.3-.4v-6.6l-5.5 2.9c-.5.3-1.3.3-1.7 0-.2-.1-.3-.3-.3-.4v-6.2l-5.2 2.8c-.5.3-1.3.3-1.7 0-.2-.1-.3-.3-.3-.4V274l-5.8 3.1c-.5.3-1.3.3-1.7 0-.2-.1-.3-.3-.3-.4v-6.2l-5.2 2.8c-.5.3-1.3.3-1.7 0-.2-.1-.3-.3-.3-.4l-.3-70.4c0-.1.2-.3.3-.4l30.8-16.6 38.8 20.9.1 70z"/><path class="st48" d="M446.2 215.3v-5m.3 55.8-.3-44.2m55-15.9-30.8 16.6c-.5.3-1.3.3-1.7 0-.5-.3-.5-.6 0-.9 0 0 22.8-12.5 23.1-12.6.3-.1-.2-.4-.2-.4l-4.4-2.4h-.8L463 218.8c-.5.3-1.3.3-1.7 0-.5-.3-.5-.6 0-.9l23-12.5v-.4l-4.9-2.6h-.8l-23.3 12.3c-.5.3-1.3.3-1.7 0-.5-.3-.5-.6 0-.9l23.1-12.5v-.4l-4.6-2.4h-.8L448 210.8c-.5.3-1.3.3-1.7 0-.5-.3-.5-.6 0-.9l23-12.5v-.4l-5.2-2.8h-.8L440 206.5c-.5.3-1.3.3-1.7 0-.5-.3-.5-.6 0-.9l23-12.5v-.4l-4.4-2.4s-.5-.1-.8-.1c-.3.1-23.4 12.5-23.4 12.5-.5.3-1.3.3-1.7 0-.2-.1-.3-.3-.3-.4m39.9 90.7-.3-70.4m-7 66.6-.3-70.4m-7.2 66.3-.3-70.4m-7 66.6-.3-70.5m-7.8 1.5-.2-5.9m.3 56.3-.2-44.2m.2 58.3v-7.3m-2 6.9-.3-70.4m-4.9 67-.2-70.4m53.2 9.4v-5.3m-7.6 1.7v-5.7m-7.2 1.4v-5.3m-8 .7v-5m-7.2 1.4v-5.3m-15.8 78.9 6-3.2m-6-3.6 5.8-3.2m-5.8 3.2c-.8.4-1.4 1.3-1.4 2.6s.5 2.8 1.4 4.1m6 2.9c.6-.4 1.1-1.3 1.1-2.5s-.5-2.5-1.1-3.7m-.3-44.2c.8-.4 1.3-1.3 1.3-2.6s-.5-2.8-1.4-4.1m-5.7-2.9c-.8.4-1.1 1.3-1.1 2.5s.5 2.5 1.1 3.8m0-.1 6-3.2m-6-3 23.6-12.8"/><path class="st48" d="M464 199.5c-.5.3-.9.7-1.1 1.5"/><path class="st49" d="M501.4 276.4 470.6 293c-.5.3-1.3.3-1.7 0-.2-.1-.3-.3-.3-.4v-6.2l-5.2 2.8c-.5.3-1.3.3-1.7 0-.2-.1-.3-.3-.3-.4v-6.6l-5.5 2.9c-.5.3-1.3.3-1.7 0-.2-.1-.3-.3-.3-.4v-6.2l-5.2 2.8c-.5.3-1.3.3-1.7 0-.2-.1-.3-.3-.3-.4V274l-5.8 3.1c-.5.3-1.3.3-1.7 0-.2-.1-.3-.3-.3-.4v-6.2l-5.2 2.8c-.5.3-1.3.3-1.7 0-.2-.1-.3-.3-.3-.4l-.3-70.4c0-.1.2-.3.3-.4l30.8-16.6 38.8 20.9.1 70z"/><path class="st48" d="M446.5 273.8v-1.5m7.2 6.2-.3-64.2m7.9 67.8-.3-63.8m7.5 68.1-.3-64.2"/><path class="st4" d="m445.7 217.5-5.8 3.1"/><path class="st57" d="m432.2 224.7-6.3 3.5"/><path class="st4" d="m422 230.3-5.7 3.2m29.4 37-5.8 3.2"/><path class="st57" d="m432.2 277.9-6.3 3.5"/><path class="st4" d="m422 283.5-5.7 3.2"/><path class="st56" d="m403.9 246.3 5-2.8c.8-.4 1.3-1.5 1.1-2.9l6.4-3.5c.9-.6.9-2.2 0-3.8-.9-1.6-2.7-2.5-3.6-1.9l-6.4 3.5c-1.3-.7-2.4-1-3.3-.6l-5 2.8c-1.6.9-1.6 3.7 0 6.2 1.5 2.4 4.2 3.7 5.8 3"/><path class="st58" d="m403.9 246.3 5-2.8c.8-.4 1.3-1.5 1.1-2.9h0l6.4-3.5c.9-.6.9-2.2 0-3.8-.9-1.6-2.7-2.5-3.6-1.9l-6.4 3.5h0c-1.3-.7-2.4-1-3.3-.6l-5 2.8c-1.6.9-1.6 3.7 0 6.2 1.5 2.4 4.2 3.7 5.8 3z"/><path class="st59" d="M398.2 236.9c1.6-.9 4.1.6 5.8 3.1 1.6 2.5 1.6 5.3 0 6.2"/><path class="st59" d="m399.3 238.8 2.4.6 1.7 2.8-.6 2.1m0-.1-2.4-.6-1.7-2.6.6-2.2m-.6 2.2 3-1.6m-1.3 4.2 3-1.5"/><path class="st58" d="M403.2 234.2c1.6-.9 4.1.6 5.8 3.1 1.6 2.5 1.6 5.3 0 6.2"/><path class="st59" d="M406.9 234.5c.9-.6 2.7.3 3.6 1.9.2.3.3.7.5 1"/><path class="st59" d="M408.1 233.8c.9-.6 2.7.3 3.6 1.9s.9 3.4 0 3.8"/><path class="st59" d="M409.4 233.2c.9-.6 2.7.3 3.6 1.9.9 1.6.9 3.4 0 3.8"/><path class="st59" d="M410.6 232.5c.9-.6 2.7.3 3.6 1.9.9 1.6.9 3.4 0 3.8"/><path class="st59" d="M411.9 231.9c.9-.6 2.7.3 3.6 1.9.9 1.6.9 3.4 0 3.8"/><path class="st56" d="m403.9 299.5 5-2.8c.8-.4 1.3-1.5 1.1-2.9l6.4-3.5c.9-.6.9-2.2 0-3.8-.9-1.6-2.7-2.5-3.6-1.9l-6.4 3.5c-1.3-.7-2.4-1-3.3-.6l-5 2.8c-1.6.9-1.6 3.7 0 6.2 1.5 2.4 4.2 3.9 5.8 3"/><path class="st58" d="m403.9 299.5 5-2.8c.8-.4 1.3-1.5 1.1-2.9h0l6.4-3.5c.9-.6.9-2.2 0-3.8-.9-1.6-2.7-2.5-3.6-1.9l-6.4 3.5h0c-1.3-.7-2.4-1-3.3-.6l-5 2.8c-1.6.9-1.6 3.7 0 6.2 1.5 2.4 4.2 3.9 5.8 3z"/><path class="st59" d="M398.2 290.2c1.6-.9 4.1.6 5.8 3.1 1.6 2.5 1.6 5.3 0 6.2"/><path class="st59" d="m399.3 292.1 2.4.6 1.7 2.6-.6 2.2"/><path class="st59" d="m402.8 297.6-2.4-.6-1.7-2.8.6-2.1m-.6 2.1 3-1.5m-1.3 4.3 3-1.6"/><path class="st58" d="M403.2 287.4c1.6-.9 4.1.6 5.8 3.1 1.6 2.5 1.6 5.3 0 6.2"/><path class="st59" d="M406.9 287.7c.9-.6 2.7.3 3.6 1.9.2.3.3.7.5 1"/><path class="st59" d="M408.1 287.1c.9-.6 2.7.3 3.6 1.9.9 1.6.9 3.4 0 3.8"/><path class="st59" d="M409.4 286.4c.9-.6 2.7.3 3.6 1.9.9 1.6.9 3.4 0 3.8"/><path class="st59" d="M410.6 285.8c.9-.6 2.7.3 3.6 1.9.9 1.6.9 3.4 0 3.8"/><path class="st59" d="M411.9 285.1c.9-.6 2.7.3 3.6 1.9.9 1.6.9 3.4 0 3.8"/><g id="Ebene_1"><path d="m188.2 236.6-.1.8m0 0-.2.9m.1 0-.3.9m-.1 0-.5.7m0 0-.6.6m.1 0-.6.5m0 0-.7.5m-.1 0-.7.3m0 0-.9.1m0 0-.9.1m0 0-.8-.1m-.1 0-.7-.3m0 0-.8-.3m0 0-.7-.5m0 0-.6-.6m0 0-.5-.8m0 0-.4-.8m0 .1-.3-.8m0 0-.1-.9m0 0v-.9m0 0 .1-.9m0 .1.3-.9m0 0 .4-.8m0 .1.5-.6m0 0 .6-.7m0 0 .7-.5m0 0 .8-.3m0-.1.7-.3m0 .1.8-.1m.1 0h.9m0 0 .9.1m0 0 .7.4m0 0 .7.4m.1 0 .6.6m0 0 .6.6m-.1 0 .5.8m0 0 .3.8m.1-.1.2.9m-.1 0 .1.9m0 120.8-.1.8m0-.1-.2.9m.1.1-.3.8m-.1 0-.5.8m0-.1-.6.6m.1 0-.6.7m0 0-.7.3m-.1 0-.7.3m0 .1-.9.2m0-.1h-.9m0 0-.8-.1m-.1.1-.7-.2m0 0-.8-.4m0 0-.7-.5m0 0-.6-.6m0 0-.5-.8m0 0-.4-.7m0 0-.3-.9m0 0-.1-.8m0 0v-.8m0 0 .1-.9m0-.1.3-.8m0 0 .4-.8m0 .1.5-.8m0 0 .6-.7m0 0 .7-.3m0 0 .8-.4m0 0 .7-.3m0 0 .8-.2m.1 0 .9.1m0 0 .9.3m0 0 .7.3m0-.1.7.4m.1.1.6.5m0 0 .6.7m-.1 0 .5.8m0-.1.3.8m.1 0 .2.9m-.1-.1.1.9m-8.9-110.4-.2-.3m0 0-.3-.1m0 0h0m-.1 0h-.2m0 0h0m0-.1h0m-4.8-4.4h0m0-.1h0m0 0-.1-.2m0 0-.2-.3m0 0-.1-.3m0 0-.2-.7m0 0-.2-.6m1.1 2.5h0m0 0h-.2m.1 0h0m0 0h0m0 0v-.2m0 0h0m-.1 0h0m0-.1h0m4.4 4.4h0m0 0-.2-.2m0 0-.2-.2m0 0-.2-.1m-.1 0-.4-.3m0 0-.4-.3m0 0-.4-.3m0 0-.2-.3m-.1-.1-.4-.3m0 .1-.4-.3m0-.1-.3-.4m0 0-.2-.3m-.1 0-.2-.3m0-.1-.2-.3m0 0-.2-.1m0 0h0m0-.1h0m4.5 4h-.2m.1 0h0m0 0h0m-.1 0h0m.2-19.7h0m0 0h0m0 0h.2m0 0h0m.1-.1.3-.1m0 0 .2-.1m-1.1.5.1-.2m0 .1h0m.1 0h0m0-.1h.2m-4.6 4.1h0m0-.1h0m0 0 .2-.2m0 0 .2-.3m0 0 .2-.3m0-.1.2-.3m.1 0 .3-.3m0-.1.4-.4m0 0 .4-.3m0 .1.2-.3m.1-.1.4-.3m0 0 .4-.3m0 0 .4-.3m0 .1.2-.2m.1 0 .2-.1m0 0 .2-.1m0 0h0m-4.5 4.3h0m.1-.1h0m0 0h0m.1-.1h0m0 0v-.2m0 0h0m0 0 .2-.1m-.1.1h0m-1.2 2.5.2-.6m.1 0 .2-.6m0 0 .1-.3m0 0 .2-.3m0 0 .1-.3m0 .1h0m0-.1h0m18.2-.4.2.5m.1 0 .2.5m0 0 .1.3m0 0 .2.3m0 0 .1.2m0-.1h0m0 .1h0m0 7.9h0m0 0h0m0 .1-.1.3m0-.1-.2.3m0 0-.1.3m0-.1-.2.6m0 0-.2.4m1-2.5h0m0 0h0m0 .1h0m0 0h0m0 .1h0m0 0h0m0 0h0m0 0h0m-.1 0v.2m0 0h0m0 0h0m0 .1h-.2m.1 0h0m0 .1h0m0 0h0m0 0h0m.2-7.1h0m0 .1.1.2m0 0h0m0 .1v.2m0-.1.2.4m0 .1v.4m0 0 .2.5m-.1 0v.4m0 0 .1.5m0 0v.5m0 0v.3m0 .1-.1.5m0 0v.5m0 0-.2.4m.1 0v.5m0 0-.2.3m0 .1v.2m0-.1h0m0 .1-.1.3m0 0h0m-.2-7.1h0m0 0h0m0 0h0m0 .1h0m0 0h.2m-.1 0h0m0 .1v.2m0 0h0m0 0h0m.1 0h0m0 0h0m0 0h0m0 0h0m0 .1h0m0 .1h0m0 0h0m-13.7 134.3-.2-.1m0 0-.3-.2m0 0h0m-.1 0-.2-.1m0 0h0m0 0h0m-4.8-4.5h0m0 0h0m0 0-.1-.2m0 0-.2-.3m0 0-.1-.3m0 0-.2-.7m0 0-.2-.7m1.1 2.7h0m0-.1h-.2m.1 0h0m0-.1h0m0 0h0m0-.1h0m-.1 0v-.2m0 0h0m4.4 4.4h0m0 0-.2-.1m0 0-.2-.3m0 .1-.2-.2m-.1 0-.4-.3m0 0-.4-.2m0 .1-.4-.3m0-.1-.2-.3m-.1.1-.4-.4m0-.1-.4-.4m0 0-.3-.3m0 .1-.2-.3m-.1-.1-.2-.4m0 0-.2-.2m0 0-.2-.3m0 0h0m0 0h0m4.5 4h-.2m.1 0h0m0 0h0m-.1-.1h0m.2-19.7h0m0 0h0m0 0h.2m0 0h0m.1-.1.3-.1m0 0 .2-.1m-1.1.5h0m.1 0h0m.1 0h0m0 0 .2-.2m-4.6 4.1h0m0 0h0m0-.1.2-.2m0 0 .2-.3m0 0 .2-.3m0 0 .2-.3m.1 0 .3-.4m0 0 .4-.3m0 0 .4-.4m0 0 .2-.3m.1 0 .4-.3m0 0 .4-.3m0 0 .4-.3m0 .1.2-.3m.1 0 .2-.1m0 .1.2-.1m0 0h0m-4.5 4.2h0m.1-.1h0m0 0h0m.1 0h0m0 0h0m0-.1h0m0 0 .2-.2m-.1 0h0m-1.2 2.7.2-.8m.1.1.2-.7m0 0 .1-.3m0-.1.2-.2m0 .1.1-.3m0 0h0m0-.1h0m18.2-.4.2.5m.1 0 .2.7m0 0 .1.2m0 0 .2.2m0-.1.1.3m0 .1h0m0 0h0m0 7.8h0m0 0v.2m0 0-.1.2m0 0-.2.3m0 0-.1.2m0 0-.2.5m0 0-.2.6m1-2.7h0m0 .1h0m0 0h0m0 0h0m0 .1h0m0 0h0m0 0v.2m0 0h0m-.1.1h0m0 0h0m0 0h0m0 0h-.2m.1 0h0m0 0h0m0 .1h0m0 .1h0m.2-7h0m0 0h0m.1.1h0m0 .1v.2m0 0 .2.4m0 0v.4m0 0 .2.5m-.1 0v.4m0 .1.1.5m0 0v.5m0 0v.5m0 0-.1.4m0 0v.5m0 0-.2.3m.1.1v.5m0 0-.2.4m0 0h0m0 .1v.3m0-.1h0m-.1.1h0m-.2-7.1h0m0 .1h0m0 0h0m0 0h0m0 0 .2.2m-.1 0h0m0 0h0m0 0h0m0 .1h0m.1.1h0m0 0h0m0 0h0m0 .1h0m0 0h0m0 0h0m0 .1v.2m0-114.5v114.4m0 6.3v21m4.2 0h0m-.1 0h-.1m0 0h-.3m0 0h-.2m-.1 0h-.5m0 0h-.5m0 0h-.5m0 0h-.5m0 0h-.4m0 0h-.4m0 0h-.3m0 0h-.2m0 0h0m4.1-169.1v169.1M193 212.4h0m.1 0h.2m0 0h.3m0 0h.4m0 0h.4m0 0h.5m0 0h.5m0 0h.5m0 0h.5m0 0h.2m.1 0h.3m0 0h.2m-.1 0h0m-4.1 0v20.9m0 148.2h-.2m-.9-18.3v18.3m.9 0h0m-.1 0h0m-.1 0h-.2m0 0h-.3m0 0h-.2m0-139.2v109.2m-12.6 30h-.2m0 0h-.2m0 0h-.2m0 0h-.2m0 0h0m.8-13.9v13.9m0-134.6v100.3m-1.1 19.9v14.4m.3 0h-.3m0-135.1v101.2m-4.2 15.6v18.3m4.2 0h0m0 0h-.2m0 0h-.3m0 0h-.4m0 0h-.4m0 0h-.5m0 0h-.6m0 0h-.4m0 0h-.5m0 0h-.3m-.1 0h-.3m0 0h-.2m0 0h0m0 0h-.3m0 0h0m0 0h0m-.1 0h-.2m0 0h-.2m-.1 0h-.3m0-141.7v114.4m25.7-141.8h12.3m0 0h.2m.1 0h.3m0 0h.2m0 0h0m0 0h.2m0 0h.2m0 0h0m.1 0h.2m0 0h.2m0 0h.3m.1 0h.5m0 0h.5m0 0h.5m0 0h.5m0 0h.5m0 0h.4m0 0h.2m0 0h0m.1 0h.2m0 0h.2m-.1 0h0m.1 0h0m.1 0h.2m.1 0h.2m0 0h.3m0 0h12.4m.1 0h.3m0 0h.2m0 0h.2m.1 0h0m.1 0h0m0 0h.2m0 0h0m0 0h.2m.1 0h.2m0 0h.4m0 0h.5m0 0h.4m0 0h.6m0 0h.5m0 0h.4m0 0h.4m0 0h.2m.1 0h.2m0 0h0m0 0h.2m.1 0h0m0 0h.2m-.1 0h.2m0 0h.3m0 0h.2m.1 0h11.3m0 0h.4m0 0h.2m0 0h.2m.1 0h0m0 0h.4m.1 0h0m0 0h.2m0 0h.3m0 0h.4m.1 0h.3m0 0h.5m0 0h.5m0 0h.5m0 0h.5m0 0h.4m0 0h.3m0 0h0m.1 0h0m-97.3 0h0m.1 0h.2m0 0h.2m.1 0h.3m0 0h.5m0 0h.5m0 0h.5m0 0h.5m0 0h.5m0 0h.3m0 0h.2m.1 0h.2m0 0h0m.1 0h.5m0 0h0m0 0h.2m.1 0h.3m0 0h.3m0 0h11.2m0 0h.3m0 0h.2m.1 0h.2m0 0h0m.1 0h0m0 0h.3m0 0h0m0 0h.2m0 0h.3m0 0h.3m.1 0h.5m0 0h.4m0 0h.6m0 0h.5m0 0h.4m0 0h.4m0 0h.3m0 0h.2m0 0h0m0 0h.3m0 0h0m0 0h.2m0 0h.2m0 0h.2m0 0h.2m0 0h12.6m0 0h.2m0 0h.3m0 0h.2m0 0h0m.1 0h0m.1 0h.2m4.2 0h.2m.1 0h0m.1 0h0m0 0h.2m.1 0h.2m0 0h.3m12.4 169.1V212.4m1 169.1h-.2m0 0h0m0 0h-.2m0 0h-.3m0 0h-.2m1.1 0h-.2m.2-169.1v169.1m4.3 0h-.2m0 0h0m-.1 0h-.2m0 0h-.4m0 0h-.5m0 0h-.5m0 0h-.5m0 0h-.5m0 0h-.5m0 0h-.3m-.1 0h-.2m0 0h-.2m0 0h0m4.2-169.1v169.1m.1 0h-.2m1.2 0h-.3m0 0h-.2m0 0h-.2m-.1 0h0m-.1 0h0m.9-169.1v169.1m12.5 0h-12.4m12.4-169.1v169.1m.9 0h0m0 0h0m-.1 0h-.2m-.1 0h-.2m0 0h-.3m1.1 0h-.2m.2-169.1v169.1m4.2 0h0m0 0h-.2m0 0h-.2m-.1 0h-.4m0 0h-.4m0 0h-.5m0 0h-.6m0 0h-.4m0 0h-.5m0 0h-.4m0 0h-.2m0 0h-.3m0 0h0m4.2-169.1v169.1m.3 0h-.2m1.1 0h-.2m-.1 0h-.3m0 0h-.2m0 0h-.2m.1 0h0m.9-169.1v169.1m11.3 0h-11.3m11.3-169.1v169.1m.9 0h0m0 0h-.2m-.1 0h-.2m0 0h-.4m1.4 0h-.4m.4-169.1v169.1m4.2 0h0m-.1 0h0m-.1 0h-.3m0 0h-.4m0 0h-.5m0 0h-.5m0 0h-.5m0 0h-.5m0 0h-.3m0 0h-.4m-.1 0h-.3m0 0h-.2m0 0h0m4.2-169.1v169.1m-97.4-169.1v169.1m4.3 0h0m-.1 0h-.2m0 0h-.2m-.1 0h-.3m0 0h-.5m0 0h-.5m0 0h-.5m0 0h-.5m0 0h-.5m0 0h-.3m0 0h-.2m-.1 0h-.2m0 0h0m4.2-169.1v169.1m.5 0h-.5m1.4 0h-.3m0 0h-.3m0 0h-.2m-.1 0h0m.9-169.1v169.1m12.1-169.1v18.7m-.9-18.7v20.9m5.4-20.9v14.5m1.1-14.5v14m-6.5 155.1h-11.2m30.3 0h-12.6m12.6-169.1v18.3m5.6 150.8h-.2m1.2 0h-.3m-.1 0h-.2m0 0h-.2m-.1 0h0m0 0h0m.9-169.1v169.1m12.3 0h-12.3m-18.9-13.8-1.2-.5m0 0-1.1-.6m0 0-.9-.8m0 0-.8-.8m-.1 0-.8-.9m0 0-.7-.9m0 0-.7-1.1m.1 0-.3-1.1m0 0-.4-1.1m-.1 0-.2-1.3m0 0v-1.2m0 0v-1.3m0 0 .2-1.2m0 0 .4-1.2m.1 0 .3-1m0 0 .7-1.2m4.1-3.9 1.1-.4m0 0 1.2-.3m0-.1 1.2-.3m0 .1h1.2m-.1 0h1.2m.1 0 1.1.2m-.1-.1 1.1.3m0 .1 1.2.3m.1 0 1 .7m0 0 1 .7m-.1 0 .8.9m.1-.1.8.8m0 0 .7 1m0 0 .7 1m-.1 0 .3 1.1m13.5-256.2v1.1M177.6 96h-7.5m7.5-19.4V96m-11-19.4h11m15.2-18 1.2.2m0 0 1.1.3m0 0 1.2.3m-.1-.1 1.2.3M170.1 96l-.5-1.1m0-.1-.7-1m0 0-.3-1.1m0 0-.4-1.3m0 0-.4-1.1m0 0-.3-1.1m-.1 0-.2-1.3m0 0-.3-1.2m-.1.1-.1-1.2m.1 0-.2-1.4m0 0-.2-1.2m0 0-.1-1.4m0 0v-1.2m0 0v-1.3m0 .1.1-1.3m0 0 .2-1.3m38.5 0 .3 1.6m0 0 .2 1.5m0 .1.3 1.4m0 0 .1 1.4m0 .1.1 1.4m0-.1.1 1.3m0 0 .2 1.3m-.1 0v1.2m0 0V89m0 0v1.2m0 0-.2 1m.1 1.1-.1.9m0 0-.1 1m0 .1-.2.9m0-.1-.2.9m-7.1-19.4h6.6m-7.6-.9.1.3m0 0 .1.3m-.1.1.2.1m.1-.1.2.2m0 0h.3m-.9-16.9v16m-4 .9V58.7m-5.3 17.9h5.3M188.2 96V76.6M205.6 96h-17.4m-14.4-34 1-.8m0 .1 1.2-.7m0 0 1.2-.6m0 0 1.2-.5m-.8 17.1h0m.1 0h.2m0 0h.3m0 0h.5m0 0h.5m0 0h.7m-.1 0h.7m.1 0h.7m0 0h.7m.1 0h.9m0 0h.7m0 0h.8m.1 0h.7m0 0h.7m.1 0h.7m-.1 0h.5m0 0h.4m0 0h.3m.1 0h.2m-.1 0h0m.1 19.4h0m-.1 0h-.1m0 0h-.3m-.1 0h-.4m0 0h-.5m0 0h-.7m.1 0h-.7m-.1 0h-.7m0 0h-.8m-.1 0h-.7m0 0h-.9m0 0h-.7m-.1 0h-.7m0 0h-.7m-.1 0h-.7m.1 0h-.5m0 0h-.5m0 0h-.3m0 0h-.2m0 0h0m-11.1-19.4h-5M193 16l-.2 42.6m-31.2 18h-.3m0 0-.3-.3m0 .1-.2-.3m-.1-.1v-.3m0 0-.5-59.7m0 0-.1-.5m0 0-.2-.5m0 0-.2-.4m-.1 0-.3-.3m0-.1-.5-.2m0 .1-.5-.3m0 0h-.5m0 0-.5.3m0 0-.5.2m0-.1-.3.3m0 .1-.2.4m-.1 0-.2.5m0 0-.1.5m0 0v80m0 0h14.2m27.4-36.3-.3-43.7m0 0-.1-.5m0 0-.1-.5m0 0-.3-.4m0 0-.2-.3m-.1-.1-.5-.2m0 .1-.5-.3m0 0h-.5m0 0-.5.3m0 0-.4.2m0-.1-.4.3m0 .1-.3.4m0 0-.2.5m0 0-.1.5m12.6 80h47.7m0 0V16m0 0-.1-.5m0 0-.1-.5m0 0-.3-.4m0 0-.4-.3m0-.1-.5-.2m0 .1-.5-.3m0 0h-.5m0 0-.5.3m0 0-.3.2m0-.1-.4.3m-.1.1-.3.4m0 0-.2.5m0 0-.1.5m.1 0-.4 59.6m-.1.1-.1.3m.1 0-.2.3m-.1.1-.2.3m0-.1h-.4m0 0h-11.3m0 0h-.2m-.1 0-.3-.2m0 0-.2-.1m0 .1-.2-.3m.1-.1v-.3m0 0-.3-59.7m0 0v-.5m0 0-.2-.5m0 0-.2-.4m-.1 0-.4-.3m0-.1-.4-.2m0 .1-.5-.3m0 0h-.6m0 0-.4.3m0 0-.5.2m0-.1-.4.3m0 .1-.2.4m0 0-.2.5m-.1 0v.5m0 0-.2 59.6m0 .1v.3m0 0-.1.3m0 .1-.2.1m-.1-.1-.2.2m0 0h-.3m0 0h-12.4m-.1 0h-.3m0 0-.2-.2m0 0-.2-.1m-.1.1-.1-.3m0-.1-.1-.3m0 0-.1-59.7m0 0-.2-.5m0 0-.1-.5m0 0-.2-.4m0 0-.4-.3m0-.1-.5-.2m0 .1-.5-.3m0 0h-.5m0 0-.5.3m0 0-.5.2m0-.1-.3.3m-.1.1-.2.4m0 0-.2.5m0 0-.1.5m0 0-.2 59.6m0 .1-.2.3m0 0-.1.3m.1.1-.2.1m0-.1-.3.2m0 0h-.2m-.1 0h-5.7M178.2 16v-.5m0 0-.2-.5m0 0-.3-.4m0 0-.4-.3m0-.1-.4-.2m0 .1-.5-.3m0 0h-.6m0 0-.4.3m0 0-.5.2m0-.1-.3.3m-.1.1-.3.4m0 0-.2.5m0 0v.5m4.4 43.5-.2-43.5m-4.2 0-.2 46m19 13.7v-4.3m0 0v-4.3m0 .1v-4.3m0-.1v-4.2m-.9 18h.2m.1 0 .2-.2m0 0h0m.1 0 .2-.3m0 0h0m.1-.1v-.2m0 0v-.2m-14.3.1v.2m0-.1v.3m0 0 .2.1m0 0 .1.3m0-.1.3.2m0 0h.2m-.9-17.1.2 16.2m-4.9 0 .1-6.7m0-.1V62m-1 14.6h.2m.1 0 .2-.1m0 0h0m.1-.1.2-.3m0 .1.1-.2m0 0v-.2m0 0v-.2m1.6 20.4 2.3-2.5m-9.3-1.2 9.3-9.6m-11.2.6 6.6-6.7M196.4 96l9.8-10.1m-18 7.6 16.3-16.9m-16.3 6.1 9.3-9.5m-4-6.8 4-4.1M183 76.6v7.7m0 1.9v.3m0 1.9V96m0-25.4v2m0 2v2m0 19.4v2m0 2v2m-23.5-6h55.3" style="fill:none;stroke:#010202;stroke-width:.4252;stroke-linecap:round;stroke-linejoin:round;stroke-miterlimit:10"/><path d="M18.4 164h98.9" style="fill:none;stroke:#000;stroke-width:.7087;stroke-miterlimit:10"/><path d="M22.5 167.6 9.7 164l12.8-3.5v7.1z"/></g><g id="Dimensions"><path class="st63" d="M156.5 96h-32.4m34.5-82.2h-34.4m37.6 97.9h87.6m3.9-15.7v20.5M155.9 81v35.5m-27.1-96.6v73.4m55.8 138.2 12.6-38.5m0 0h51.5"/><path d="m226.6 102.8 4.1 23.8h79.9" style="fill:none;stroke:#000;stroke-width:.2835;stroke-miterlimit:10"/><path class="st63" d="M128.8 230.6v-12.2m0 132.9V242.6m33.1-45.8h15.2m96.5 21.6v157m-94.3-163H124m50.1 24.2H124m50.1 120.8H124m50.1-120.8H124m31.9-24.2v-20.5m27.1 35.6v-35.6m-7.5 173.2-27.3 28.7m0 0h-42m123.7-12.3h48.4m-48.4-169.1h48.4m-149.5 18.2v6"/><path class="st65" d="m127.6 230.6 1.2 6 1.2-6"/><path class="st63" d="m127.6 230.6 1.2 6 1.2-6h-2.4zm0 0 1.2 6m0 0 1.2-6m0 0h-2.4m1.2-12.2v-6"/><path class="st65" d="m130 218.4-1.2-6-1.2 6"/><path class="st63" d="m130 218.4-1.2-6-1.2 6h2.4zm0 0-1.2-6m0 0-1.2 6m0 0h2.4m-1.2 132.9v6"/><path class="st65" d="m127.6 351.3 1.2 6 1.2-6"/><path class="st63" d="m127.6 351.3 1.2 6 1.2-6h-2.4zm0 0 1.2 6m0 .1 1.2-6m0-.1h-2.4m1.2-108.7v-6"/><path class="st65" d="m130 242.6-1.2-6-1.2 6"/><path class="st63" d="m130 242.6-1.2-6-1.2 6h2.4zm0 0-1.2-6m0 0-1.2 6m0 0h2.4m31.9-45.8h-6"/><path class="st65" d="m161.9 195.5-6 1.3 6 1.1"/><path class="st63" d="m161.9 195.5-6 1.3 6 1.1v-2.4zm0 0-6 1.3m0 0 6 1.1m0 0v-2.4m15.2 1.3h5.9"/><path class="st65" d="m177.1 197.9 5.9-1.1-5.9-1.3"/><path class="st63" d="m177.1 197.9 5.9-1.1-5.9-1.3v2.4zm0 0 5.9-1.1m0 0-5.9-1.3m0 0v2.4m96.5 20.5v-6"/><path class="st65" d="m274.7 218.4-1.2-6-1.2 6"/><path class="st63" d="m274.7 218.4-1.2-6-1.2 6h2.4zm0 0-1.2-6m.1 0-1.2 6m0 0h2.3m-1.1 157v6"/><path class="st65" d="m272.4 375.4 1.2 6 1.2-6"/><path class="st63" d="m272.4 375.4 1.2 6 1.2-6h-2.4zm0 0 1.2 6m0 .1 1.2-6m-.1-.1h-2.3M128.8 13.8l-1.2 6"/><path class="st65" d="m129.9 19.9-1.1-6-1.2 6"/><path class="st63" d="m129.9 19.9-1.1-6-1.2 6h2.3zm0 0-1.1-6m-1.2 6h2.3m-1.1 0v-6m0 82.1 1.1-6.1"/><path class="st65" d="m127.6 89.8 1.2 6.1 1.1-6.1"/><path class="st63" d="m127.6 89.8 1.2 6.1 1.1-6.1h-2.3zm0 0 1.2 6.1m1.1-6.1h-2.3m34.2 21.9h-5.9"/><path class="st65" d="m161.8 110.6-5.9 1.1 5.9 1.2"/><path class="st63" d="m161.8 110.6-5.9 1.1 5.9 1.2v-2.3zm0 0-5.9 1.1m0 0 5.9 1.2m0 0v-2.3m91.5 1.1-6-1.1"/><path class="st65" d="m247.3 112.9 6-1.2-6-1.1"/><path class="st63" d="m247.3 112.9 6-1.2-6-1.1v2.3zm0 0 6-1.2m-6-1.1v2.3"/><path d="m225.1 104.1.6-6.6 2.7 6-3.3.6z"/><path class="st63" d="m179.7 360.7-4.1 4.4"/><path class="st65" d="m175.5 365.1 5-3.5m-1.7-1.6-3.2 5.1"/><path class="st63" d="m175.5 365.1 5-3.5m-1.7-1.6-3.2 5.1m3.2-5.1-3.2 5.1m-.1 0 5-3.5m5.7-7.7 4.1-4.3"/><path class="st65" d="m190.3 349.6-5 3.4m1.7 1.7 3.2-5.1"/><path class="st63" d="m190.3 349.6-5 3.4m1.7 1.7 3.2-5.1m-3.2 5.1 3.2-5.1m.1 0-5 3.4m-5.6 7.7 6.5-6.8m-5.7 7.7-1.7-1.6m6.5-7 1.7 1.7m-1.7-129.3-.7 6.1 3-5.5-2.3-.6h0zm0 0-.7 6.1m0 0 3-5.5m0 .1-2.3-.7m-6 22.1 1.8-5.7m-.6 6.1.7-6.1-3 5.3 2.3.8zm0 0 .7-6.1m0-.1-3 5.3m0 0 2.3.9m-1.2-.4-1.8 5.7"/><path class="st65" d="m185.3 225.4-.7 6.1 3-5.5m-7.1 21.9.7-6.1-3 5.3"/><path class="st63" d="M183 236.6h2.8m3 0h3m-8.8 0h-3m-2.9 0h-3m8.9 0v-3.1m0-2.9v-3.1m0 9.1v2.9m0 3.1v3m0 111.8h2.8m3 0h3m-8.8 0h-3m-2.9 0h-3m8.9 0v-3.1m0-3v-3.1m0 9.2v3m0 3v3.1"/></g><text transform="matrix(.9717 0 0 1 110.284 389.436)" class="st66 st67">2 × Ø9</text><text transform="matrix(.9717 0 0 1 204.51 188.003)" class="st66 st67">2 × Ø4.5</text><text transform="matrix(.9717 0 0 1 159.666 190.409)" class="st66 st67">11.5</text><text transform="matrix(0 -1.0292 1 0 124.046 231.673)" class="st66 st67">10</text><text transform="matrix(0 -1.0292 1 0 124.046 299.148)" class="st66 st67">50</text><text transform="matrix(0 -1.0292 1 0 269.708 306.917)" class="st66 st67">70</text><text transform="matrix(0 -1.0292 1 0 122.685 61.7)" class="st66 st67">34</text><text transform="matrix(.9717 0 0 1 192.167 125.293)" class="st66 st67">41.5</text><text transform="matrix(.9717 0 0 1 230.811 140.525)" class="st68"><tspan x="0" y="0" class="st66 st67">Heat sink side facing </tspan><tspan x="0" y="14.4" class="st66 st67">the camera</tspan></text><text transform="matrix(.9717 0 0 1 30.492 144.489)" class="st68"><tspan x="0" y="0" class="st66 st67">Camera‘s direction </tspan><tspan x="0" y="14.4" class="st66 st67">of view</tspan></text><path d="M281.4 387.3h82.4v21.9h-82.4v-21.9z" style="fill:none"/><text transform="translate(265.886 417.779)" class="st68"><tspan x="0" y="0" class="st66 st67">Not to scale</tspan><tspan x="0" y="14.4" class="st66 st67">Dimensions in mm</tspan></text></svg>