<?xml version="1.0" encoding="utf-8" standalone="no"?>
<!DOCTYPE svg PUBLIC "-//W3C//DTD SVG 1.1//EN"
  "http://www.w3.org/Graphics/SVG/1.1/DTD/svg11.dtd">
<!-- Created with matplotlib (https://matplotlib.org/) -->
<svg height="345.6pt" version="1.1" viewBox="0 0 460.8 345.6" width="460.8pt" xmlns="http://www.w3.org/2000/svg" xmlns:xlink="http://www.w3.org/1999/xlink">
 <defs>
  <style type="text/css">
*{stroke-linecap:butt;stroke-linejoin:round;}
  </style>
 </defs>
 <g id="figure_1">
  <g id="patch_1">
   <path d="M 0 345.6 
L 460.8 345.6 
L 460.8 0 
L 0 0 
z
" style="fill:#ffffff;"/>
  </g>
  <g id="axes_1">
   <g id="patch_2">
    <path d="M 57.6 307.584 
L 414.72 307.584 
L 414.72 41.472 
L 57.6 41.472 
z
" style="fill:#ffffff;"/>
   </g>
   <g id="matplotlib.axis_1">
    <g id="xtick_1">
     <g id="line2d_1">
      <path clip-path="url(#pcfbca0f480)" d="M 73.832727 307.584 
L 73.832727 41.472 
" style="fill:none;stroke:#b0b0b0;stroke-linecap:square;stroke-width:0.8;"/>
     </g>
     <g id="line2d_2">
      <defs>
       <path d="M 0 0 
L 0 3.5 
" id="m77766d86aa" style="stroke:#000000;stroke-width:0.8;"/>
      </defs>
      <g>
       <use style="stroke:#000000;stroke-width:0.8;" x="73.832727" xlink:href="#m77766d86aa" y="307.584"/>
      </g>
     </g>
     <g id="text_1">
      <!-- 400 -->
      <defs>
       <path d="M 37.796875 64.3125 
L 12.890625 25.390625 
L 37.796875 25.390625 
z
M 35.203125 72.90625 
L 47.609375 72.90625 
L 47.609375 25.390625 
L 58.015625 25.390625 
L 58.015625 17.1875 
L 47.609375 17.1875 
L 47.609375 0 
L 37.796875 0 
L 37.796875 17.1875 
L 4.890625 17.1875 
L 4.890625 26.703125 
z
" id="DejaVuSans-52"/>
       <path d="M 31.78125 66.40625 
Q 24.171875 66.40625 20.328125 58.90625 
Q 16.5 51.421875 16.5 36.375 
Q 16.5 21.390625 20.328125 13.890625 
Q 24.171875 6.390625 31.78125 6.390625 
Q 39.453125 6.390625 43.28125 13.890625 
Q 47.125 21.390625 47.125 36.375 
Q 47.125 51.421875 43.28125 58.90625 
Q 39.453125 66.40625 31.78125 66.40625 
z
M 31.78125 74.21875 
Q 44.046875 74.21875 50.515625 64.515625 
Q 56.984375 54.828125 56.984375 36.375 
Q 56.984375 17.96875 50.515625 8.265625 
Q 44.046875 -1.421875 31.78125 -1.421875 
Q 19.53125 -1.421875 13.0625 8.265625 
Q 6.59375 17.96875 6.59375 36.375 
Q 6.59375 54.828125 13.0625 64.515625 
Q 19.53125 74.21875 31.78125 74.21875 
z
" id="DejaVuSans-48"/>
      </defs>
      <g transform="translate(64.288977 322.182437)scale(0.1 -0.1)">
       <use xlink:href="#DejaVuSans-52"/>
       <use x="63.623047" xlink:href="#DejaVuSans-48"/>
       <use x="127.246094" xlink:href="#DejaVuSans-48"/>
      </g>
     </g>
    </g>
    <g id="xtick_2">
     <g id="line2d_3">
      <path clip-path="url(#pcfbca0f480)" d="M 128.213723 307.584 
L 128.213723 41.472 
" style="fill:none;stroke:#b0b0b0;stroke-linecap:square;stroke-width:0.8;"/>
     </g>
     <g id="line2d_4">
      <g>
       <use style="stroke:#000000;stroke-width:0.8;" x="128.213723" xlink:href="#m77766d86aa" y="307.584"/>
      </g>
     </g>
     <g id="text_2">
      <!-- 500 -->
      <defs>
       <path d="M 10.796875 72.90625 
L 49.515625 72.90625 
L 49.515625 64.59375 
L 19.828125 64.59375 
L 19.828125 46.734375 
Q 21.96875 47.46875 24.109375 47.828125 
Q 26.265625 48.1875 28.421875 48.1875 
Q 40.625 48.1875 47.75 41.5 
Q 54.890625 34.8125 54.890625 23.390625 
Q 54.890625 11.625 47.5625 5.09375 
Q 40.234375 -1.421875 26.90625 -1.421875 
Q 22.3125 -1.421875 17.546875 -0.640625 
Q 12.796875 0.140625 7.71875 1.703125 
L 7.71875 11.625 
Q 12.109375 9.234375 16.796875 8.0625 
Q 21.484375 6.890625 26.703125 6.890625 
Q 35.15625 6.890625 40.078125 11.328125 
Q 45.015625 15.765625 45.015625 23.390625 
Q 45.015625 31 40.078125 35.4375 
Q 35.15625 39.890625 26.703125 39.890625 
Q 22.75 39.890625 18.8125 39.015625 
Q 14.890625 38.140625 10.796875 36.28125 
z
" id="DejaVuSans-53"/>
      </defs>
      <g transform="translate(118.669973 322.182437)scale(0.1 -0.1)">
       <use xlink:href="#DejaVuSans-53"/>
       <use x="63.623047" xlink:href="#DejaVuSans-48"/>
       <use x="127.246094" xlink:href="#DejaVuSans-48"/>
      </g>
     </g>
    </g>
    <g id="xtick_3">
     <g id="line2d_5">
      <path clip-path="url(#pcfbca0f480)" d="M 182.594719 307.584 
L 182.594719 41.472 
" style="fill:none;stroke:#b0b0b0;stroke-linecap:square;stroke-width:0.8;"/>
     </g>
     <g id="line2d_6">
      <g>
       <use style="stroke:#000000;stroke-width:0.8;" x="182.594719" xlink:href="#m77766d86aa" y="307.584"/>
      </g>
     </g>
     <g id="text_3">
      <!-- 600 -->
      <defs>
       <path d="M 33.015625 40.375 
Q 26.375 40.375 22.484375 35.828125 
Q 18.609375 31.296875 18.609375 23.390625 
Q 18.609375 15.53125 22.484375 10.953125 
Q 26.375 6.390625 33.015625 6.390625 
Q 39.65625 6.390625 43.53125 10.953125 
Q 47.40625 15.53125 47.40625 23.390625 
Q 47.40625 31.296875 43.53125 35.828125 
Q 39.65625 40.375 33.015625 40.375 
z
M 52.59375 71.296875 
L 52.59375 62.3125 
Q 48.875 64.0625 45.09375 64.984375 
Q 41.3125 65.921875 37.59375 65.921875 
Q 27.828125 65.921875 22.671875 59.328125 
Q 17.53125 52.734375 16.796875 39.40625 
Q 19.671875 43.65625 24.015625 45.921875 
Q 28.375 48.1875 33.59375 48.1875 
Q 44.578125 48.1875 50.953125 41.515625 
Q 57.328125 34.859375 57.328125 23.390625 
Q 57.328125 12.15625 50.6875 5.359375 
Q 44.046875 -1.421875 33.015625 -1.421875 
Q 20.359375 -1.421875 13.671875 8.265625 
Q 6.984375 17.96875 6.984375 36.375 
Q 6.984375 53.65625 15.1875 63.9375 
Q 23.390625 74.21875 37.203125 74.21875 
Q 40.921875 74.21875 44.703125 73.484375 
Q 48.484375 72.75 52.59375 71.296875 
z
" id="DejaVuSans-54"/>
      </defs>
      <g transform="translate(173.050969 322.182437)scale(0.1 -0.1)">
       <use xlink:href="#DejaVuSans-54"/>
       <use x="63.623047" xlink:href="#DejaVuSans-48"/>
       <use x="127.246094" xlink:href="#DejaVuSans-48"/>
      </g>
     </g>
    </g>
    <g id="xtick_4">
     <g id="line2d_7">
      <path clip-path="url(#pcfbca0f480)" d="M 236.975715 307.584 
L 236.975715 41.472 
" style="fill:none;stroke:#b0b0b0;stroke-linecap:square;stroke-width:0.8;"/>
     </g>
     <g id="line2d_8">
      <g>
       <use style="stroke:#000000;stroke-width:0.8;" x="236.975715" xlink:href="#m77766d86aa" y="307.584"/>
      </g>
     </g>
     <g id="text_4">
      <!-- 700 -->
      <defs>
       <path d="M 8.203125 72.90625 
L 55.078125 72.90625 
L 55.078125 68.703125 
L 28.609375 0 
L 18.3125 0 
L 43.21875 64.59375 
L 8.203125 64.59375 
z
" id="DejaVuSans-55"/>
      </defs>
      <g transform="translate(227.431965 322.182437)scale(0.1 -0.1)">
       <use xlink:href="#DejaVuSans-55"/>
       <use x="63.623047" xlink:href="#DejaVuSans-48"/>
       <use x="127.246094" xlink:href="#DejaVuSans-48"/>
      </g>
     </g>
    </g>
    <g id="xtick_5">
     <g id="line2d_9">
      <path clip-path="url(#pcfbca0f480)" d="M 291.356711 307.584 
L 291.356711 41.472 
" style="fill:none;stroke:#b0b0b0;stroke-linecap:square;stroke-width:0.8;"/>
     </g>
     <g id="line2d_10">
      <g>
       <use style="stroke:#000000;stroke-width:0.8;" x="291.356711" xlink:href="#m77766d86aa" y="307.584"/>
      </g>
     </g>
     <g id="text_5">
      <!-- 800 -->
      <defs>
       <path d="M 31.78125 34.625 
Q 24.75 34.625 20.71875 30.859375 
Q 16.703125 27.09375 16.703125 20.515625 
Q 16.703125 13.921875 20.71875 10.15625 
Q 24.75 6.390625 31.78125 6.390625 
Q 38.8125 6.390625 42.859375 10.171875 
Q 46.921875 13.96875 46.921875 20.515625 
Q 46.921875 27.09375 42.890625 30.859375 
Q 38.875 34.625 31.78125 34.625 
z
M 21.921875 38.8125 
Q 15.578125 40.375 12.03125 44.71875 
Q 8.5 49.078125 8.5 55.328125 
Q 8.5 64.0625 14.71875 69.140625 
Q 20.953125 74.21875 31.78125 74.21875 
Q 42.671875 74.21875 48.875 69.140625 
Q 55.078125 64.0625 55.078125 55.328125 
Q 55.078125 49.078125 51.53125 44.71875 
Q 48 40.375 41.703125 38.8125 
Q 48.828125 37.15625 52.796875 32.3125 
Q 56.78125 27.484375 56.78125 20.515625 
Q 56.78125 9.90625 50.3125 4.234375 
Q 43.84375 -1.421875 31.78125 -1.421875 
Q 19.734375 -1.421875 13.25 4.234375 
Q 6.78125 9.90625 6.78125 20.515625 
Q 6.78125 27.484375 10.78125 32.3125 
Q 14.796875 37.15625 21.921875 38.8125 
z
M 18.3125 54.390625 
Q 18.3125 48.734375 21.84375 45.5625 
Q 25.390625 42.390625 31.78125 42.390625 
Q 38.140625 42.390625 41.71875 45.5625 
Q 45.3125 48.734375 45.3125 54.390625 
Q 45.3125 60.0625 41.71875 63.234375 
Q 38.140625 66.40625 31.78125 66.40625 
Q 25.390625 66.40625 21.84375 63.234375 
Q 18.3125 60.0625 18.3125 54.390625 
z
" id="DejaVuSans-56"/>
      </defs>
      <g transform="translate(281.812961 322.182437)scale(0.1 -0.1)">
       <use xlink:href="#DejaVuSans-56"/>
       <use x="63.623047" xlink:href="#DejaVuSans-48"/>
       <use x="127.246094" xlink:href="#DejaVuSans-48"/>
      </g>
     </g>
    </g>
    <g id="xtick_6">
     <g id="line2d_11">
      <path clip-path="url(#pcfbca0f480)" d="M 345.737707 307.584 
L 345.737707 41.472 
" style="fill:none;stroke:#b0b0b0;stroke-linecap:square;stroke-width:0.8;"/>
     </g>
     <g id="line2d_12">
      <g>
       <use style="stroke:#000000;stroke-width:0.8;" x="345.737707" xlink:href="#m77766d86aa" y="307.584"/>
      </g>
     </g>
     <g id="text_6">
      <!-- 900 -->
      <defs>
       <path d="M 10.984375 1.515625 
L 10.984375 10.5 
Q 14.703125 8.734375 18.5 7.8125 
Q 22.3125 6.890625 25.984375 6.890625 
Q 35.75 6.890625 40.890625 13.453125 
Q 46.046875 20.015625 46.78125 33.40625 
Q 43.953125 29.203125 39.59375 26.953125 
Q 35.25 24.703125 29.984375 24.703125 
Q 19.046875 24.703125 12.671875 31.3125 
Q 6.296875 37.9375 6.296875 49.421875 
Q 6.296875 60.640625 12.9375 67.421875 
Q 19.578125 74.21875 30.609375 74.21875 
Q 43.265625 74.21875 49.921875 64.515625 
Q 56.59375 54.828125 56.59375 36.375 
Q 56.59375 19.140625 48.40625 8.859375 
Q 40.234375 -1.421875 26.421875 -1.421875 
Q 22.703125 -1.421875 18.890625 -0.6875 
Q 15.09375 0.046875 10.984375 1.515625 
z
M 30.609375 32.421875 
Q 37.25 32.421875 41.125 36.953125 
Q 45.015625 41.5 45.015625 49.421875 
Q 45.015625 57.28125 41.125 61.84375 
Q 37.25 66.40625 30.609375 66.40625 
Q 23.96875 66.40625 20.09375 61.84375 
Q 16.21875 57.28125 16.21875 49.421875 
Q 16.21875 41.5 20.09375 36.953125 
Q 23.96875 32.421875 30.609375 32.421875 
z
" id="DejaVuSans-57"/>
      </defs>
      <g transform="translate(336.193957 322.182437)scale(0.1 -0.1)">
       <use xlink:href="#DejaVuSans-57"/>
       <use x="63.623047" xlink:href="#DejaVuSans-48"/>
       <use x="127.246094" xlink:href="#DejaVuSans-48"/>
      </g>
     </g>
    </g>
    <g id="xtick_7">
     <g id="line2d_13">
      <path clip-path="url(#pcfbca0f480)" d="M 400.118703 307.584 
L 400.118703 41.472 
" style="fill:none;stroke:#b0b0b0;stroke-linecap:square;stroke-width:0.8;"/>
     </g>
     <g id="line2d_14">
      <g>
       <use style="stroke:#000000;stroke-width:0.8;" x="400.118703" xlink:href="#m77766d86aa" y="307.584"/>
      </g>
     </g>
     <g id="text_7">
      <!-- 1000 -->
      <defs>
       <path d="M 12.40625 8.296875 
L 28.515625 8.296875 
L 28.515625 63.921875 
L 10.984375 60.40625 
L 10.984375 69.390625 
L 28.421875 72.90625 
L 38.28125 72.90625 
L 38.28125 8.296875 
L 54.390625 8.296875 
L 54.390625 0 
L 12.40625 0 
z
" id="DejaVuSans-49"/>
      </defs>
      <g transform="translate(387.393703 322.182437)scale(0.1 -0.1)">
       <use xlink:href="#DejaVuSans-49"/>
       <use x="63.623047" xlink:href="#DejaVuSans-48"/>
       <use x="127.246094" xlink:href="#DejaVuSans-48"/>
       <use x="190.869141" xlink:href="#DejaVuSans-48"/>
      </g>
     </g>
    </g>
    <g id="text_8">
     <!-- Wavelength $\lambda$ [nm] -->
     <defs>
      <path d="M 3.328125 72.90625 
L 13.28125 72.90625 
L 28.609375 11.28125 
L 43.890625 72.90625 
L 54.984375 72.90625 
L 70.3125 11.28125 
L 85.59375 72.90625 
L 95.609375 72.90625 
L 77.296875 0 
L 64.890625 0 
L 49.515625 63.28125 
L 33.984375 0 
L 21.578125 0 
z
" id="DejaVuSans-87"/>
      <path d="M 34.28125 27.484375 
Q 23.390625 27.484375 19.1875 25 
Q 14.984375 22.515625 14.984375 16.5 
Q 14.984375 11.71875 18.140625 8.90625 
Q 21.296875 6.109375 26.703125 6.109375 
Q 34.1875 6.109375 38.703125 11.40625 
Q 43.21875 16.703125 43.21875 25.484375 
L 43.21875 27.484375 
z
M 52.203125 31.203125 
L 52.203125 0 
L 43.21875 0 
L 43.21875 8.296875 
Q 40.140625 3.328125 35.546875 0.953125 
Q 30.953125 -1.421875 24.3125 -1.421875 
Q 15.921875 -1.421875 10.953125 3.296875 
Q 6 8.015625 6 15.921875 
Q 6 25.140625 12.171875 29.828125 
Q 18.359375 34.515625 30.609375 34.515625 
L 43.21875 34.515625 
L 43.21875 35.40625 
Q 43.21875 41.609375 39.140625 45 
Q 35.0625 48.390625 27.6875 48.390625 
Q 23 48.390625 18.546875 47.265625 
Q 14.109375 46.140625 10.015625 43.890625 
L 10.015625 52.203125 
Q 14.9375 54.109375 19.578125 55.046875 
Q 24.21875 56 28.609375 56 
Q 40.484375 56 46.34375 49.84375 
Q 52.203125 43.703125 52.203125 31.203125 
z
" id="DejaVuSans-97"/>
      <path d="M 2.984375 54.6875 
L 12.5 54.6875 
L 29.59375 8.796875 
L 46.6875 54.6875 
L 56.203125 54.6875 
L 35.6875 0 
L 23.484375 0 
z
" id="DejaVuSans-118"/>
      <path d="M 56.203125 29.59375 
L 56.203125 25.203125 
L 14.890625 25.203125 
Q 15.484375 15.921875 20.484375 11.0625 
Q 25.484375 6.203125 34.421875 6.203125 
Q 39.59375 6.203125 44.453125 7.46875 
Q 49.3125 8.734375 54.109375 11.28125 
L 54.109375 2.78125 
Q 49.265625 0.734375 44.1875 -0.34375 
Q 39.109375 -1.421875 33.890625 -1.421875 
Q 20.796875 -1.421875 13.15625 6.1875 
Q 5.515625 13.8125 5.515625 26.8125 
Q 5.515625 40.234375 12.765625 48.109375 
Q 20.015625 56 32.328125 56 
Q 43.359375 56 49.78125 48.890625 
Q 56.203125 41.796875 56.203125 29.59375 
z
M 47.21875 32.234375 
Q 47.125 39.59375 43.09375 43.984375 
Q 39.0625 48.390625 32.421875 48.390625 
Q 24.90625 48.390625 20.390625 44.140625 
Q 15.875 39.890625 15.1875 32.171875 
z
" id="DejaVuSans-101"/>
      <path d="M 9.421875 75.984375 
L 18.40625 75.984375 
L 18.40625 0 
L 9.421875 0 
z
" id="DejaVuSans-108"/>
      <path d="M 54.890625 33.015625 
L 54.890625 0 
L 45.90625 0 
L 45.90625 32.71875 
Q 45.90625 40.484375 42.875 44.328125 
Q 39.84375 48.1875 33.796875 48.1875 
Q 26.515625 48.1875 22.3125 43.546875 
Q 18.109375 38.921875 18.109375 30.90625 
L 18.109375 0 
L 9.078125 0 
L 9.078125 54.6875 
L 18.109375 54.6875 
L 18.109375 46.1875 
Q 21.34375 51.125 25.703125 53.5625 
Q 30.078125 56 35.796875 56 
Q 45.21875 56 50.046875 50.171875 
Q 54.890625 44.34375 54.890625 33.015625 
z
" id="DejaVuSans-110"/>
      <path d="M 45.40625 27.984375 
Q 45.40625 37.75 41.375 43.109375 
Q 37.359375 48.484375 30.078125 48.484375 
Q 22.859375 48.484375 18.828125 43.109375 
Q 14.796875 37.75 14.796875 27.984375 
Q 14.796875 18.265625 18.828125 12.890625 
Q 22.859375 7.515625 30.078125 7.515625 
Q 37.359375 7.515625 41.375 12.890625 
Q 45.40625 18.265625 45.40625 27.984375 
z
M 54.390625 6.78125 
Q 54.390625 -7.171875 48.1875 -13.984375 
Q 42 -20.796875 29.203125 -20.796875 
Q 24.46875 -20.796875 20.265625 -20.09375 
Q 16.0625 -19.390625 12.109375 -17.921875 
L 12.109375 -9.1875 
Q 16.0625 -11.328125 19.921875 -12.34375 
Q 23.78125 -13.375 27.78125 -13.375 
Q 36.625 -13.375 41.015625 -8.765625 
Q 45.40625 -4.15625 45.40625 5.171875 
L 45.40625 9.625 
Q 42.625 4.78125 38.28125 2.390625 
Q 33.9375 0 27.875 0 
Q 17.828125 0 11.671875 7.65625 
Q 5.515625 15.328125 5.515625 27.984375 
Q 5.515625 40.671875 11.671875 48.328125 
Q 17.828125 56 27.875 56 
Q 33.9375 56 38.28125 53.609375 
Q 42.625 51.21875 45.40625 46.390625 
L 45.40625 54.6875 
L 54.390625 54.6875 
z
" id="DejaVuSans-103"/>
      <path d="M 18.3125 70.21875 
L 18.3125 54.6875 
L 36.8125 54.6875 
L 36.8125 47.703125 
L 18.3125 47.703125 
L 18.3125 18.015625 
Q 18.3125 11.328125 20.140625 9.421875 
Q 21.96875 7.515625 27.59375 7.515625 
L 36.8125 7.515625 
L 36.8125 0 
L 27.59375 0 
Q 17.1875 0 13.234375 3.875 
Q 9.28125 7.765625 9.28125 18.015625 
L 9.28125 47.703125 
L 2.6875 47.703125 
L 2.6875 54.6875 
L 9.28125 54.6875 
L 9.28125 70.21875 
z
" id="DejaVuSans-116"/>
      <path d="M 54.890625 33.015625 
L 54.890625 0 
L 45.90625 0 
L 45.90625 32.71875 
Q 45.90625 40.484375 42.875 44.328125 
Q 39.84375 48.1875 33.796875 48.1875 
Q 26.515625 48.1875 22.3125 43.546875 
Q 18.109375 38.921875 18.109375 30.90625 
L 18.109375 0 
L 9.078125 0 
L 9.078125 75.984375 
L 18.109375 75.984375 
L 18.109375 46.1875 
Q 21.34375 51.125 25.703125 53.5625 
Q 30.078125 56 35.796875 56 
Q 45.21875 56 50.046875 50.171875 
Q 54.890625 44.34375 54.890625 33.015625 
z
" id="DejaVuSans-104"/>
      <path id="DejaVuSans-32"/>
      <path d="M 36.71875 67.4375 
L 48.828125 0 
L 39.3125 0 
L 31.84375 40.4375 
L 5.125 0 
L -4.390625 0 
L 29.734375 52.4375 
L 28.03125 62.109375 
Q 26.953125 68.265625 21.734375 68.265625 
L 17.046875 68.265625 
L 18.5 75.984375 
L 24.21875 75.875 
Q 35.203125 75.734375 36.71875 67.4375 
z
" id="DejaVuSans-Oblique-955"/>
      <path d="M 8.59375 75.984375 
L 29.296875 75.984375 
L 29.296875 69 
L 17.578125 69 
L 17.578125 -6.203125 
L 29.296875 -6.203125 
L 29.296875 -13.1875 
L 8.59375 -13.1875 
z
" id="DejaVuSans-91"/>
      <path d="M 52 44.1875 
Q 55.375 50.25 60.0625 53.125 
Q 64.75 56 71.09375 56 
Q 79.640625 56 84.28125 50.015625 
Q 88.921875 44.046875 88.921875 33.015625 
L 88.921875 0 
L 79.890625 0 
L 79.890625 32.71875 
Q 79.890625 40.578125 77.09375 44.375 
Q 74.3125 48.1875 68.609375 48.1875 
Q 61.625 48.1875 57.5625 43.546875 
Q 53.515625 38.921875 53.515625 30.90625 
L 53.515625 0 
L 44.484375 0 
L 44.484375 32.71875 
Q 44.484375 40.625 41.703125 44.40625 
Q 38.921875 48.1875 33.109375 48.1875 
Q 26.21875 48.1875 22.15625 43.53125 
Q 18.109375 38.875 18.109375 30.90625 
L 18.109375 0 
L 9.078125 0 
L 9.078125 54.6875 
L 18.109375 54.6875 
L 18.109375 46.1875 
Q 21.1875 51.21875 25.484375 53.609375 
Q 29.78125 56 35.6875 56 
Q 41.65625 56 45.828125 52.96875 
Q 50 49.953125 52 44.1875 
z
" id="DejaVuSans-109"/>
      <path d="M 30.421875 75.984375 
L 30.421875 -13.1875 
L 9.71875 -13.1875 
L 9.71875 -6.203125 
L 21.390625 -6.203125 
L 21.390625 69 
L 9.71875 69 
L 9.71875 75.984375 
z
" id="DejaVuSans-93"/>
     </defs>
     <g transform="translate(188.06 335.862125)scale(0.1 -0.1)">
      <use transform="translate(0 0.015625)" xlink:href="#DejaVuSans-87"/>
      <use transform="translate(98.876953 0.015625)" xlink:href="#DejaVuSans-97"/>
      <use transform="translate(160.15625 0.015625)" xlink:href="#DejaVuSans-118"/>
      <use transform="translate(219.335938 0.015625)" xlink:href="#DejaVuSans-101"/>
      <use transform="translate(280.859375 0.015625)" xlink:href="#DejaVuSans-108"/>
      <use transform="translate(308.642578 0.015625)" xlink:href="#DejaVuSans-101"/>
      <use transform="translate(370.166016 0.015625)" xlink:href="#DejaVuSans-110"/>
      <use transform="translate(433.544922 0.015625)" xlink:href="#DejaVuSans-103"/>
      <use transform="translate(497.021484 0.015625)" xlink:href="#DejaVuSans-116"/>
      <use transform="translate(536.230469 0.015625)" xlink:href="#DejaVuSans-104"/>
      <use transform="translate(599.609375 0.015625)" xlink:href="#DejaVuSans-32"/>
      <use transform="translate(631.396484 0.015625)" xlink:href="#DejaVuSans-Oblique-955"/>
      <use transform="translate(690.576172 0.015625)" xlink:href="#DejaVuSans-32"/>
      <use transform="translate(722.363281 0.015625)" xlink:href="#DejaVuSans-91"/>
      <use transform="translate(761.376953 0.015625)" xlink:href="#DejaVuSans-110"/>
      <use transform="translate(824.755859 0.015625)" xlink:href="#DejaVuSans-109"/>
      <use transform="translate(922.167969 0.015625)" xlink:href="#DejaVuSans-93"/>
     </g>
    </g>
   </g>
   <g id="matplotlib.axis_2">
    <g id="ytick_1">
     <g id="line2d_15">
      <path clip-path="url(#pcfbca0f480)" d="M 57.6 302.260462 
L 414.72 302.260462 
" style="fill:none;stroke:#b0b0b0;stroke-linecap:square;stroke-width:0.8;"/>
     </g>
     <g id="line2d_16">
      <defs>
       <path d="M 0 0 
L -3.5 0 
" id="mb7c11eedb2" style="stroke:#000000;stroke-width:0.8;"/>
      </defs>
      <g>
       <use style="stroke:#000000;stroke-width:0.8;" x="57.6" xlink:href="#mb7c11eedb2" y="302.260462"/>
      </g>
     </g>
     <g id="text_9">
      <!-- 0.0 -->
      <defs>
       <path d="M 10.6875 12.40625 
L 21 12.40625 
L 21 0 
L 10.6875 0 
z
" id="DejaVuSans-46"/>
      </defs>
      <g transform="translate(34.696875 306.059681)scale(0.1 -0.1)">
       <use xlink:href="#DejaVuSans-48"/>
       <use x="63.623047" xlink:href="#DejaVuSans-46"/>
       <use x="95.410156" xlink:href="#DejaVuSans-48"/>
      </g>
     </g>
    </g>
    <g id="ytick_2">
     <g id="line2d_17">
      <path clip-path="url(#pcfbca0f480)" d="M 57.6 252.52197 
L 414.72 252.52197 
" style="fill:none;stroke:#b0b0b0;stroke-linecap:square;stroke-width:0.8;"/>
     </g>
     <g id="line2d_18">
      <g>
       <use style="stroke:#000000;stroke-width:0.8;" x="57.6" xlink:href="#mb7c11eedb2" y="252.52197"/>
      </g>
     </g>
     <g id="text_10">
      <!-- 0.2 -->
      <defs>
       <path d="M 19.1875 8.296875 
L 53.609375 8.296875 
L 53.609375 0 
L 7.328125 0 
L 7.328125 8.296875 
Q 12.9375 14.109375 22.625 23.890625 
Q 32.328125 33.6875 34.8125 36.53125 
Q 39.546875 41.84375 41.421875 45.53125 
Q 43.3125 49.21875 43.3125 52.78125 
Q 43.3125 58.59375 39.234375 62.25 
Q 35.15625 65.921875 28.609375 65.921875 
Q 23.96875 65.921875 18.8125 64.3125 
Q 13.671875 62.703125 7.8125 59.421875 
L 7.8125 69.390625 
Q 13.765625 71.78125 18.9375 73 
Q 24.125 74.21875 28.421875 74.21875 
Q 39.75 74.21875 46.484375 68.546875 
Q 53.21875 62.890625 53.21875 53.421875 
Q 53.21875 48.921875 51.53125 44.890625 
Q 49.859375 40.875 45.40625 35.40625 
Q 44.1875 33.984375 37.640625 27.21875 
Q 31.109375 20.453125 19.1875 8.296875 
z
" id="DejaVuSans-50"/>
      </defs>
      <g transform="translate(34.696875 256.321188)scale(0.1 -0.1)">
       <use xlink:href="#DejaVuSans-48"/>
       <use x="63.623047" xlink:href="#DejaVuSans-46"/>
       <use x="95.410156" xlink:href="#DejaVuSans-50"/>
      </g>
     </g>
    </g>
    <g id="ytick_3">
     <g id="line2d_19">
      <path clip-path="url(#pcfbca0f480)" d="M 57.6 202.783477 
L 414.72 202.783477 
" style="fill:none;stroke:#b0b0b0;stroke-linecap:square;stroke-width:0.8;"/>
     </g>
     <g id="line2d_20">
      <g>
       <use style="stroke:#000000;stroke-width:0.8;" x="57.6" xlink:href="#mb7c11eedb2" y="202.783477"/>
      </g>
     </g>
     <g id="text_11">
      <!-- 0.4 -->
      <g transform="translate(34.696875 206.582696)scale(0.1 -0.1)">
       <use xlink:href="#DejaVuSans-48"/>
       <use x="63.623047" xlink:href="#DejaVuSans-46"/>
       <use x="95.410156" xlink:href="#DejaVuSans-52"/>
      </g>
     </g>
    </g>
    <g id="ytick_4">
     <g id="line2d_21">
      <path clip-path="url(#pcfbca0f480)" d="M 57.6 153.044985 
L 414.72 153.044985 
" style="fill:none;stroke:#b0b0b0;stroke-linecap:square;stroke-width:0.8;"/>
     </g>
     <g id="line2d_22">
      <g>
       <use style="stroke:#000000;stroke-width:0.8;" x="57.6" xlink:href="#mb7c11eedb2" y="153.044985"/>
      </g>
     </g>
     <g id="text_12">
      <!-- 0.6 -->
      <g transform="translate(34.696875 156.844204)scale(0.1 -0.1)">
       <use xlink:href="#DejaVuSans-48"/>
       <use x="63.623047" xlink:href="#DejaVuSans-46"/>
       <use x="95.410156" xlink:href="#DejaVuSans-54"/>
      </g>
     </g>
    </g>
    <g id="ytick_5">
     <g id="line2d_23">
      <path clip-path="url(#pcfbca0f480)" d="M 57.6 103.306492 
L 414.72 103.306492 
" style="fill:none;stroke:#b0b0b0;stroke-linecap:square;stroke-width:0.8;"/>
     </g>
     <g id="line2d_24">
      <g>
       <use style="stroke:#000000;stroke-width:0.8;" x="57.6" xlink:href="#mb7c11eedb2" y="103.306492"/>
      </g>
     </g>
     <g id="text_13">
      <!-- 0.8 -->
      <g transform="translate(34.696875 107.105711)scale(0.1 -0.1)">
       <use xlink:href="#DejaVuSans-48"/>
       <use x="63.623047" xlink:href="#DejaVuSans-46"/>
       <use x="95.410156" xlink:href="#DejaVuSans-56"/>
      </g>
     </g>
    </g>
    <g id="ytick_6">
     <g id="line2d_25">
      <path clip-path="url(#pcfbca0f480)" d="M 57.6 53.568 
L 414.72 53.568 
" style="fill:none;stroke:#b0b0b0;stroke-linecap:square;stroke-width:0.8;"/>
     </g>
     <g id="line2d_26">
      <g>
       <use style="stroke:#000000;stroke-width:0.8;" x="57.6" xlink:href="#mb7c11eedb2" y="53.568"/>
      </g>
     </g>
     <g id="text_14">
      <!-- 1.0 -->
      <g transform="translate(34.696875 57.367219)scale(0.1 -0.1)">
       <use xlink:href="#DejaVuSans-49"/>
       <use x="63.623047" xlink:href="#DejaVuSans-46"/>
       <use x="95.410156" xlink:href="#DejaVuSans-48"/>
      </g>
     </g>
    </g>
    <g id="text_15">
     <!-- Relative Response -->
     <defs>
      <path d="M 44.390625 34.1875 
Q 47.5625 33.109375 50.5625 29.59375 
Q 53.5625 26.078125 56.59375 19.921875 
L 66.609375 0 
L 56 0 
L 46.6875 18.703125 
Q 43.0625 26.03125 39.671875 28.421875 
Q 36.28125 30.8125 30.421875 30.8125 
L 19.671875 30.8125 
L 19.671875 0 
L 9.8125 0 
L 9.8125 72.90625 
L 32.078125 72.90625 
Q 44.578125 72.90625 50.734375 67.671875 
Q 56.890625 62.453125 56.890625 51.90625 
Q 56.890625 45.015625 53.6875 40.46875 
Q 50.484375 35.9375 44.390625 34.1875 
z
M 19.671875 64.796875 
L 19.671875 38.921875 
L 32.078125 38.921875 
Q 39.203125 38.921875 42.84375 42.21875 
Q 46.484375 45.515625 46.484375 51.90625 
Q 46.484375 58.296875 42.84375 61.546875 
Q 39.203125 64.796875 32.078125 64.796875 
z
" id="DejaVuSans-82"/>
      <path d="M 9.421875 54.6875 
L 18.40625 54.6875 
L 18.40625 0 
L 9.421875 0 
z
M 9.421875 75.984375 
L 18.40625 75.984375 
L 18.40625 64.59375 
L 9.421875 64.59375 
z
" id="DejaVuSans-105"/>
      <path d="M 44.28125 53.078125 
L 44.28125 44.578125 
Q 40.484375 46.53125 36.375 47.5 
Q 32.28125 48.484375 27.875 48.484375 
Q 21.1875 48.484375 17.84375 46.4375 
Q 14.5 44.390625 14.5 40.28125 
Q 14.5 37.15625 16.890625 35.375 
Q 19.28125 33.59375 26.515625 31.984375 
L 29.59375 31.296875 
Q 39.15625 29.25 43.1875 25.515625 
Q 47.21875 21.78125 47.21875 15.09375 
Q 47.21875 7.46875 41.1875 3.015625 
Q 35.15625 -1.421875 24.609375 -1.421875 
Q 20.21875 -1.421875 15.453125 -0.5625 
Q 10.6875 0.296875 5.421875 2 
L 5.421875 11.28125 
Q 10.40625 8.6875 15.234375 7.390625 
Q 20.0625 6.109375 24.8125 6.109375 
Q 31.15625 6.109375 34.5625 8.28125 
Q 37.984375 10.453125 37.984375 14.40625 
Q 37.984375 18.0625 35.515625 20.015625 
Q 33.0625 21.96875 24.703125 23.78125 
L 21.578125 24.515625 
Q 13.234375 26.265625 9.515625 29.90625 
Q 5.8125 33.546875 5.8125 39.890625 
Q 5.8125 47.609375 11.28125 51.796875 
Q 16.75 56 26.8125 56 
Q 31.78125 56 36.171875 55.265625 
Q 40.578125 54.546875 44.28125 53.078125 
z
" id="DejaVuSans-115"/>
      <path d="M 18.109375 8.203125 
L 18.109375 -20.796875 
L 9.078125 -20.796875 
L 9.078125 54.6875 
L 18.109375 54.6875 
L 18.109375 46.390625 
Q 20.953125 51.265625 25.265625 53.625 
Q 29.59375 56 35.59375 56 
Q 45.5625 56 51.78125 48.09375 
Q 58.015625 40.1875 58.015625 27.296875 
Q 58.015625 14.40625 51.78125 6.484375 
Q 45.5625 -1.421875 35.59375 -1.421875 
Q 29.59375 -1.421875 25.265625 0.953125 
Q 20.953125 3.328125 18.109375 8.203125 
z
M 48.6875 27.296875 
Q 48.6875 37.203125 44.609375 42.84375 
Q 40.53125 48.484375 33.40625 48.484375 
Q 26.265625 48.484375 22.1875 42.84375 
Q 18.109375 37.203125 18.109375 27.296875 
Q 18.109375 17.390625 22.1875 11.75 
Q 26.265625 6.109375 33.40625 6.109375 
Q 40.53125 6.109375 44.609375 11.75 
Q 48.6875 17.390625 48.6875 27.296875 
z
" id="DejaVuSans-112"/>
      <path d="M 30.609375 48.390625 
Q 23.390625 48.390625 19.1875 42.75 
Q 14.984375 37.109375 14.984375 27.296875 
Q 14.984375 17.484375 19.15625 11.84375 
Q 23.34375 6.203125 30.609375 6.203125 
Q 37.796875 6.203125 41.984375 11.859375 
Q 46.1875 17.53125 46.1875 27.296875 
Q 46.1875 37.015625 41.984375 42.703125 
Q 37.796875 48.390625 30.609375 48.390625 
z
M 30.609375 56 
Q 42.328125 56 49.015625 48.375 
Q 55.71875 40.765625 55.71875 27.296875 
Q 55.71875 13.875 49.015625 6.21875 
Q 42.328125 -1.421875 30.609375 -1.421875 
Q 18.84375 -1.421875 12.171875 6.21875 
Q 5.515625 13.875 5.515625 27.296875 
Q 5.515625 40.765625 12.171875 48.375 
Q 18.84375 56 30.609375 56 
z
" id="DejaVuSans-111"/>
     </defs>
     <g transform="translate(28.617187 220.738937)rotate(-90)scale(0.1 -0.1)">
      <use xlink:href="#DejaVuSans-82"/>
      <use x="69.419922" xlink:href="#DejaVuSans-101"/>
      <use x="130.943359" xlink:href="#DejaVuSans-108"/>
      <use x="158.726562" xlink:href="#DejaVuSans-97"/>
      <use x="220.005859" xlink:href="#DejaVuSans-116"/>
      <use x="259.214844" xlink:href="#DejaVuSans-105"/>
      <use x="286.998047" xlink:href="#DejaVuSans-118"/>
      <use x="346.177734" xlink:href="#DejaVuSans-101"/>
      <use x="407.701172" xlink:href="#DejaVuSans-32"/>
      <use x="439.488281" xlink:href="#DejaVuSans-82"/>
      <use x="508.908203" xlink:href="#DejaVuSans-101"/>
      <use x="570.431641" xlink:href="#DejaVuSans-115"/>
      <use x="622.53125" xlink:href="#DejaVuSans-112"/>
      <use x="686.007812" xlink:href="#DejaVuSans-111"/>
      <use x="747.189453" xlink:href="#DejaVuSans-110"/>
      <use x="810.568359" xlink:href="#DejaVuSans-115"/>
      <use x="862.667969" xlink:href="#DejaVuSans-101"/>
     </g>
    </g>
   </g>
   <g id="line2d_27">
    <path clip-path="url(#pcfbca0f480)" d="M 73.832727 218.665355 
L 75.464157 226.838226 
L 77.095587 230.578056 
L 78.727017 236.547202 
L 80.358447 182.633958 
L 81.989877 191.431245 
L 83.621307 198.24214 
L 85.252736 182.168677 
L 86.884166 179.214653 
L 88.515596 176.596875 
L 90.147026 165.790313 
L 91.778456 158.979555 
L 93.409886 156.466874 
L 95.041316 151.968937 
L 96.672746 142.046916 
L 98.304175 139.282221 
L 99.935605 139.423456 
L 101.567035 131.951173 
L 103.198465 133.955136 
L 104.829895 133.127475 
L 106.461325 126.820069 
L 108.092755 126.709015 
L 109.724185 128.909348 
L 111.355614 132.085243 
L 112.987044 128.349058 
L 114.618474 128.288531 
L 116.249904 131.010667 
L 117.881334 128.53754 
L 119.512764 136.528302 
L 121.144194 147.099389 
L 122.775624 152.496492 
L 124.407053 157.160702 
L 126.038483 166.070524 
L 127.669913 176.017025 
L 129.301343 181.004749 
L 130.932773 191.822653 
L 132.564203 203.769818 
L 134.195633 210.839865 
L 135.827063 219.192943 
L 137.458492 229.827767 
L 139.089922 233.990159 
L 140.721352 242.663235 
L 142.352782 248.333568 
L 143.984212 253.313438 
L 145.615642 256.166245 
L 147.247072 259.478724 
L 148.878502 262.205953 
L 150.509931 265.845624 
L 152.141361 269.813167 
L 153.772791 272.565994 
L 155.404221 274.170361 
L 157.035651 278.099361 
L 160.298511 282.972481 
L 161.929941 284.524984 
L 163.56137 286.504452 
L 165.1928 287.858905 
L 166.82423 288.83153 
L 173.34995 291.207951 
L 176.61281 291.772694 
L 178.244239 292.415168 
L 183.138529 293.818502 
L 184.769959 294.462063 
L 188.032819 294.986119 
L 191.295678 295.488 
L 192.927108 295.414565 
L 197.821398 294.864083 
L 199.452828 294.359337 
L 201.084258 293.576358 
L 202.715688 293.008488 
L 204.347117 292.760068 
L 207.609977 290.560702 
L 209.241407 289.715985 
L 212.504267 288.386584 
L 214.135697 286.651009 
L 215.767127 285.285758 
L 217.398556 284.928515 
L 219.029986 284.843 
L 223.924276 281.762582 
L 225.555706 281.980273 
L 227.187136 282.019502 
L 228.818566 281.926037 
L 230.449995 281.162677 
L 232.081425 279.292898 
L 233.712855 279.313084 
L 236.975715 280.905901 
L 238.607145 280.906345 
L 240.238575 280.548245 
L 241.870005 280.883659 
L 243.501434 281.397971 
L 245.132864 283.684306 
L 246.764294 285.417903 
L 248.395724 286.109828 
L 251.658584 286.397528 
L 253.290014 287.461706 
L 254.921444 287.901146 
L 256.552873 288.73495 
L 258.184303 288.815577 
L 259.815733 288.009833 
L 261.447163 286.739769 
L 263.078593 286.695115 
L 264.710023 287.853935 
L 266.341453 289.176366 
L 267.972883 290.090257 
L 269.604312 289.796639 
L 271.235742 287.905244 
L 272.867172 286.212415 
L 274.498602 284.946458 
L 276.130032 285.013271 
L 277.761462 285.420099 
L 279.392892 285.424095 
L 281.024322 283.979823 
L 282.655751 264.242099 
L 284.287181 263.390826 
L 285.918611 247.58383 
L 287.550041 243.555109 
L 289.181471 244.478305 
L 290.812901 245.936666 
L 292.444331 239.296815 
L 294.075761 229.896593 
L 295.70719 211.399794 
L 297.33862 188.398075 
L 298.97005 185.438887 
L 300.60148 200.945438 
L 302.23291 211.469227 
L 303.86434 227.976799 
L 305.49577 230.05646 
L 307.1272 221.595675 
L 308.75863 203.25039 
L 310.390059 192.36578 
L 312.021489 187.335593 
L 313.652919 195.861199 
L 315.284349 214.786806 
L 316.915779 217.44854 
L 318.547209 222.11884 
L 320.178639 222.545349 
L 321.810069 217.784568 
L 325.072928 197.598836 
L 326.704358 193.840362 
L 328.335788 195.825098 
L 329.967218 208.207965 
L 331.598648 214.556286 
L 333.230078 233.306779 
L 334.861508 239.192334 
L 336.492937 237.830738 
L 338.124367 233.668705 
L 339.755797 228.084959 
L 341.387227 219.522318 
L 343.018657 217.301239 
L 344.650087 222.535029 
L 346.281517 232.75758 
L 347.912947 236.332894 
L 349.544376 248.924081 
L 351.175806 251.611711 
L 352.807236 253.502541 
L 354.438666 251.065114 
L 356.070096 247.225679 
L 357.701526 241.416838 
L 359.332956 236.596042 
L 360.964386 235.53413 
L 362.595815 240.404884 
L 365.858675 259.053069 
L 367.490105 265.912401 
L 369.121535 269.600354 
L 370.752965 270.735026 
L 372.384395 270.169794 
L 374.015825 268.121664 
L 377.278684 261.201829 
L 378.910114 260.070984 
L 380.541544 261.970366 
L 382.172974 266.574084 
L 383.804404 272.669517 
L 385.435834 276.920851 
L 387.067264 279.421065 
L 388.698693 280.449018 
L 390.330123 280.721345 
L 393.592983 279.633386 
L 395.224413 279.723714 
L 396.855843 278.946481 
L 398.487273 277.724681 
L 398.487273 277.724681 
" style="fill:none;stroke:#0000ff;stroke-dasharray:9.6,2.4,1.5,2.4;stroke-dashoffset:0;stroke-width:1.5;"/>
   </g>
   <g id="line2d_28">
    <path clip-path="url(#pcfbca0f480)" d="M 73.832727 262.676834 
L 75.464157 267.491819 
L 78.727017 275.377884 
L 80.358447 254.622515 
L 81.989877 259.505909 
L 83.621307 263.404603 
L 85.252736 259.440771 
L 86.884166 262.104656 
L 88.515596 265.086402 
L 91.778456 264.05054 
L 93.409886 263.706622 
L 95.041316 262.38191 
L 96.672746 259.828604 
L 98.304175 259.787869 
L 99.935605 261.231071 
L 101.567035 261.197579 
L 103.198465 263.061656 
L 104.829895 262.686647 
L 106.461325 258.517729 
L 108.092755 252.234041 
L 109.724185 242.232129 
L 111.355614 227.982478 
L 112.987044 209.159911 
L 114.618474 198.86027 
L 116.249904 170.570961 
L 119.512764 131.78541 
L 121.144194 119.551396 
L 122.775624 106.040866 
L 124.407053 104.823084 
L 126.038483 101.790099 
L 127.669913 92.580206 
L 129.301343 78.685532 
L 130.932773 76.63186 
L 132.564203 73.717513 
L 134.195633 70.014076 
L 135.827063 68.64624 
L 137.458492 67.795785 
L 139.089922 58.059621 
L 140.721352 54.54418 
L 142.352782 53.568 
L 143.984212 56.471361 
L 145.615642 55.304309 
L 148.878502 61.849612 
L 150.509931 57.206588 
L 152.141361 58.290631 
L 153.772791 62.216259 
L 155.404221 58.160521 
L 157.035651 67.283963 
L 160.298511 75.319434 
L 161.929941 71.494293 
L 163.56137 74.844952 
L 165.1928 76.959033 
L 166.82423 77.12787 
L 168.45566 78.691904 
L 171.71852 86.992601 
L 173.34995 92.574223 
L 174.98138 94.978772 
L 176.61281 97.719848 
L 178.244239 107.968235 
L 179.875669 113.887123 
L 181.507099 121.30206 
L 183.138529 130.417195 
L 184.769959 144.049499 
L 186.401389 150.419366 
L 188.032819 159.50801 
L 189.664249 170.828213 
L 191.295678 181.313938 
L 194.558538 192.161622 
L 196.189968 196.282305 
L 197.821398 201.88066 
L 199.452828 206.011906 
L 201.084258 206.431452 
L 202.715688 209.869471 
L 204.347117 214.205609 
L 205.978547 216.471253 
L 207.609977 216.373395 
L 209.241407 216.874679 
L 210.872837 222.377234 
L 212.504267 225.040994 
L 214.135697 223.363074 
L 215.767127 220.28118 
L 217.398556 220.556357 
L 219.029986 222.082471 
L 220.661416 219.192536 
L 222.292846 214.154159 
L 223.924276 207.255181 
L 227.187136 204.87089 
L 228.818566 203.345246 
L 230.449995 197.992972 
L 232.081425 184.538697 
L 233.712855 183.976527 
L 235.344285 186.389425 
L 236.975715 190.852701 
L 238.607145 188.711125 
L 240.238575 178.541904 
L 241.870005 174.252869 
L 243.501434 173.688381 
L 245.132864 182.751694 
L 246.764294 189.765072 
L 248.395724 188.793129 
L 251.658584 174.969388 
L 253.290014 182.537349 
L 254.921444 187.679338 
L 256.552873 197.688683 
L 258.184303 200.541618 
L 259.815733 195.731725 
L 261.447163 184.549242 
L 263.078593 183.54594 
L 264.710023 189.304915 
L 266.341453 198.001661 
L 267.972883 204.502613 
L 269.604312 203.251106 
L 271.235742 189.61765 
L 272.867172 178.379344 
L 274.498602 175.179462 
L 276.130032 180.16941 
L 277.761462 195.464441 
L 279.392892 201.879739 
L 281.024322 200.573281 
L 282.655751 177.693962 
L 284.287181 177.379023 
L 285.918611 167.262456 
L 287.550041 174.073467 
L 289.181471 186.803682 
L 290.812901 207.19534 
L 292.444331 215.536841 
L 294.075761 211.600546 
L 295.70719 197.889023 
L 297.33862 178.120772 
L 298.97005 176.096168 
L 300.60148 191.169244 
L 302.23291 201.139255 
L 303.86434 215.970236 
L 305.49577 217.33221 
L 307.1272 209.419136 
L 308.75863 194.138258 
L 310.390059 183.990813 
L 312.021489 176.298923 
L 313.652919 180.137198 
L 315.284349 204.332937 
L 316.915779 209.9241 
L 318.547209 226.156726 
L 320.178639 226.376935 
L 321.810069 225.523146 
L 325.072928 199.888814 
L 326.704358 196.934401 
L 328.335788 201.305273 
L 329.967218 216.057819 
L 331.598648 222.593919 
L 333.230078 238.225723 
L 334.861508 240.9552 
L 336.492937 235.787978 
L 338.124367 230.03408 
L 339.755797 223.79993 
L 341.387227 215.994269 
L 343.018657 214.07365 
L 344.650087 218.766774 
L 346.281517 228.508593 
L 347.912947 232.055319 
L 349.544376 244.777123 
L 351.175806 247.548346 
L 352.807236 249.754561 
L 354.438666 248.026112 
L 356.070096 245.161871 
L 357.701526 240.819413 
L 359.332956 237.562597 
L 360.964386 237.44627 
L 362.595815 242.223452 
L 365.858675 258.743076 
L 367.490105 264.699622 
L 369.121535 267.871004 
L 370.752965 268.702524 
L 372.384395 267.954035 
L 374.015825 265.912824 
L 375.647254 262.842222 
L 377.278684 259.475973 
L 378.910114 257.723503 
L 380.541544 258.199449 
L 382.172974 261.325896 
L 383.804404 266.805646 
L 385.435834 271.139105 
L 387.067264 274.319898 
L 388.698693 276.342337 
L 390.330123 277.804027 
L 391.961553 278.361507 
L 393.592983 278.679219 
L 395.224413 279.345249 
L 396.855843 278.731667 
L 398.487273 277.05379 
L 398.487273 277.05379 
" style="fill:none;stroke:#008000;stroke-dasharray:1.5,2.475;stroke-dashoffset:0;stroke-width:1.5;"/>
   </g>
   <g id="line2d_29">
    <path clip-path="url(#pcfbca0f480)" d="M 73.832727 273.182693 
L 75.464157 276.965958 
L 77.095587 280.261969 
L 78.727017 283.307277 
L 80.358447 268.892927 
L 81.989877 272.456154 
L 83.621307 275.252506 
L 85.252736 272.638397 
L 86.884166 274.696771 
L 88.515596 277.069008 
L 90.147026 277.553073 
L 91.778456 278.769724 
L 93.409886 280.547452 
L 95.041316 281.769735 
L 96.672746 282.252883 
L 98.304175 283.576637 
L 99.935605 285.099614 
L 101.567035 285.618259 
L 103.198465 286.936413 
L 104.829895 287.768227 
L 106.461325 287.910458 
L 108.092755 288.239439 
L 109.724185 288.44925 
L 111.355614 288.445723 
L 112.987044 287.889445 
L 116.249904 287.621075 
L 117.881334 287.181613 
L 119.512764 287.466039 
L 121.144194 287.904584 
L 122.775624 287.827403 
L 124.407053 288.019351 
L 126.038483 288.35678 
L 127.669913 288.476918 
L 129.301343 288.01011 
L 130.932773 288.051024 
L 132.564203 287.47384 
L 135.827063 285.325803 
L 137.458492 283.788986 
L 140.721352 279.914848 
L 142.352782 278.742576 
L 143.984212 278.622397 
L 145.615642 279.173978 
L 148.878502 282.747622 
L 150.509931 285.543894 
L 152.141361 287.78443 
L 153.772791 288.953783 
L 155.404221 289.269892 
L 157.035651 290.063117 
L 158.667081 290.283369 
L 160.298511 290.342283 
L 163.56137 289.425479 
L 165.1928 288.07214 
L 166.82423 283.520116 
L 168.45566 274.245223 
L 170.08709 253.697924 
L 171.71852 212.105311 
L 173.34995 162.778199 
L 174.98138 138.552801 
L 176.61281 110.256805 
L 178.244239 103.284781 
L 179.875669 95.800358 
L 181.507099 90.829257 
L 183.138529 90.141513 
L 184.769959 90.832439 
L 186.401389 88.131099 
L 188.032819 85.023001 
L 189.664249 85.975171 
L 191.295678 86.52446 
L 192.927108 82.891157 
L 194.558538 79.932051 
L 196.189968 81.231083 
L 197.821398 84.054942 
L 199.452828 84.774723 
L 201.084258 79.971205 
L 202.715688 83.243558 
L 204.347117 89.628875 
L 205.978547 86.959878 
L 207.609977 81.155798 
L 209.241407 79.108273 
L 210.872837 90.088557 
L 212.504267 95.002273 
L 214.135697 91.424619 
L 215.767127 90.366227 
L 217.398556 98.591889 
L 219.029986 108.920224 
L 220.661416 111.355243 
L 222.292846 111.224757 
L 223.924276 109.710419 
L 227.187136 121.154081 
L 228.818566 128.282246 
L 230.449995 127.281079 
L 232.081425 117.69973 
L 233.712855 118.500438 
L 235.344285 127.036536 
L 236.975715 137.987623 
L 238.607145 142.718886 
L 241.870005 131.174156 
L 243.501434 128.670565 
L 245.132864 138.55565 
L 246.764294 150.664704 
L 248.395724 151.477686 
L 250.027154 137.345044 
L 251.658584 116.100041 
L 253.290014 121.191462 
L 254.921444 129.543472 
L 256.552873 147.97151 
L 258.184303 153.961169 
L 259.815733 146.805275 
L 261.447163 130.599521 
L 263.078593 130.319821 
L 264.710023 146.311878 
L 266.341453 163.965297 
L 267.972883 177.162292 
L 269.604312 177.974647 
L 271.235742 159.982319 
L 272.867172 145.599365 
L 274.498602 146.407354 
L 276.130032 155.460938 
L 277.761462 176.805553 
L 279.392892 183.31222 
L 281.024322 179.885224 
L 282.655751 143.955701 
L 284.287181 143.812576 
L 285.918611 137.865571 
L 287.550041 149.481682 
L 289.181471 164.573104 
L 290.812901 185.557811 
L 292.444331 194.202617 
L 294.075761 191.098699 
L 295.70719 178.980685 
L 297.33862 161.945358 
L 298.97005 162.06302 
L 300.60148 179.905173 
L 302.23291 190.789173 
L 303.86434 206.919574 
L 305.49577 208.648022 
L 307.1272 200.826964 
L 308.75863 186.002803 
L 310.390059 177.385885 
L 312.021489 171.650101 
L 313.652919 175.94715 
L 315.284349 196.085761 
L 316.915779 200.881541 
L 318.547209 217.145674 
L 320.178639 217.371567 
L 321.810069 219.823745 
L 323.441498 211.207295 
L 325.072928 198.724138 
L 326.704358 193.986719 
L 328.335788 196.423509 
L 329.967218 210.667431 
L 331.598648 217.771079 
L 333.230078 236.615225 
L 334.861508 241.087144 
L 336.492937 237.689915 
L 338.124367 232.611423 
L 339.755797 226.39262 
L 341.387227 217.113399 
L 343.018657 214.122297 
L 344.650087 218.690159 
L 346.281517 229.063529 
L 347.912947 232.909531 
L 349.544376 246.550026 
L 351.175806 249.492427 
L 352.807236 251.718789 
L 354.438666 249.72372 
L 356.070096 246.231906 
L 357.701526 240.924907 
L 359.332956 236.636741 
L 360.964386 236.051479 
L 362.595815 241.461361 
L 365.858675 260.00653 
L 367.490105 266.439896 
L 369.121535 269.627558 
L 370.752965 270.237746 
L 372.384395 269.257904 
L 374.015825 266.975542 
L 377.278684 260.059248 
L 378.910114 258.7162 
L 380.541544 260.1518 
L 382.172974 264.176175 
L 383.804404 269.863219 
L 385.435834 273.790795 
L 387.067264 276.165343 
L 388.698693 277.329841 
L 390.330123 278.099227 
L 393.592983 278.190865 
L 395.224413 278.613794 
L 396.855843 277.837294 
L 398.487273 276.262694 
L 398.487273 276.262694 
" style="fill:none;stroke:#ff0000;stroke-linecap:square;stroke-width:1.5;"/>
   </g>
   <g id="patch_3">
    <path d="M 57.6 307.584 
L 57.6 41.472 
" style="fill:none;stroke:#000000;stroke-linecap:square;stroke-linejoin:miter;stroke-width:0.8;"/>
   </g>
   <g id="patch_4">
    <path d="M 414.72 307.584 
L 414.72 41.472 
" style="fill:none;stroke:#000000;stroke-linecap:square;stroke-linejoin:miter;stroke-width:0.8;"/>
   </g>
   <g id="patch_5">
    <path d="M 57.6 307.584 
L 414.72 307.584 
" style="fill:none;stroke:#000000;stroke-linecap:square;stroke-linejoin:miter;stroke-width:0.8;"/>
   </g>
   <g id="patch_6">
    <path d="M 57.6 41.472 
L 414.72 41.472 
" style="fill:none;stroke:#000000;stroke-linecap:square;stroke-linejoin:miter;stroke-width:0.8;"/>
   </g>
   <g id="legend_1">
    <g id="patch_7">
     <path d="M 345.22 93.506375 
L 407.72 93.506375 
Q 409.72 93.506375 409.72 91.506375 
L 409.72 48.472 
Q 409.72 46.472 407.72 46.472 
L 345.22 46.472 
Q 343.22 46.472 343.22 48.472 
L 343.22 91.506375 
Q 343.22 93.506375 345.22 93.506375 
z
" style="fill:#ffffff;opacity:0.8;stroke:#cccccc;stroke-linejoin:miter;"/>
    </g>
    <g id="line2d_30">
     <path d="M 347.22 54.570438 
L 367.22 54.570438 
" style="fill:none;stroke:#0000ff;stroke-dasharray:9.6,2.4,1.5,2.4;stroke-dashoffset:0;stroke-width:1.5;"/>
    </g>
    <g id="line2d_31"/>
    <g id="text_16">
     <!-- Blue -->
     <defs>
      <path d="M 19.671875 34.8125 
L 19.671875 8.109375 
L 35.5 8.109375 
Q 43.453125 8.109375 47.28125 11.40625 
Q 51.125 14.703125 51.125 21.484375 
Q 51.125 28.328125 47.28125 31.5625 
Q 43.453125 34.8125 35.5 34.8125 
z
M 19.671875 64.796875 
L 19.671875 42.828125 
L 34.28125 42.828125 
Q 41.5 42.828125 45.03125 45.53125 
Q 48.578125 48.25 48.578125 53.8125 
Q 48.578125 59.328125 45.03125 62.0625 
Q 41.5 64.796875 34.28125 64.796875 
z
M 9.8125 72.90625 
L 35.015625 72.90625 
Q 46.296875 72.90625 52.390625 68.21875 
Q 58.5 63.53125 58.5 54.890625 
Q 58.5 48.1875 55.375 44.234375 
Q 52.25 40.28125 46.1875 39.3125 
Q 53.46875 37.75 57.5 32.78125 
Q 61.53125 27.828125 61.53125 20.40625 
Q 61.53125 10.640625 54.890625 5.3125 
Q 48.25 0 35.984375 0 
L 9.8125 0 
z
" id="DejaVuSans-66"/>
      <path d="M 8.5 21.578125 
L 8.5 54.6875 
L 17.484375 54.6875 
L 17.484375 21.921875 
Q 17.484375 14.15625 20.5 10.265625 
Q 23.53125 6.390625 29.59375 6.390625 
Q 36.859375 6.390625 41.078125 11.03125 
Q 45.3125 15.671875 45.3125 23.6875 
L 45.3125 54.6875 
L 54.296875 54.6875 
L 54.296875 0 
L 45.3125 0 
L 45.3125 8.40625 
Q 42.046875 3.421875 37.71875 1 
Q 33.40625 -1.421875 27.6875 -1.421875 
Q 18.265625 -1.421875 13.375 4.4375 
Q 8.5 10.296875 8.5 21.578125 
z
M 31.109375 56 
z
" id="DejaVuSans-117"/>
     </defs>
     <g transform="translate(375.22 58.070438)scale(0.1 -0.1)">
      <use xlink:href="#DejaVuSans-66"/>
      <use x="68.603516" xlink:href="#DejaVuSans-108"/>
      <use x="96.386719" xlink:href="#DejaVuSans-117"/>
      <use x="159.765625" xlink:href="#DejaVuSans-101"/>
     </g>
    </g>
    <g id="line2d_32">
     <path d="M 347.22 69.248563 
L 367.22 69.248563 
" style="fill:none;stroke:#008000;stroke-dasharray:1.5,2.475;stroke-dashoffset:0;stroke-width:1.5;"/>
    </g>
    <g id="line2d_33"/>
    <g id="text_17">
     <!-- Green -->
     <defs>
      <path d="M 59.515625 10.40625 
L 59.515625 29.984375 
L 43.40625 29.984375 
L 43.40625 38.09375 
L 69.28125 38.09375 
L 69.28125 6.78125 
Q 63.578125 2.734375 56.6875 0.65625 
Q 49.8125 -1.421875 42 -1.421875 
Q 24.90625 -1.421875 15.25 8.5625 
Q 5.609375 18.5625 5.609375 36.375 
Q 5.609375 54.25 15.25 64.234375 
Q 24.90625 74.21875 42 74.21875 
Q 49.125 74.21875 55.546875 72.453125 
Q 61.96875 70.703125 67.390625 67.28125 
L 67.390625 56.78125 
Q 61.921875 61.421875 55.765625 63.765625 
Q 49.609375 66.109375 42.828125 66.109375 
Q 29.4375 66.109375 22.71875 58.640625 
Q 16.015625 51.171875 16.015625 36.375 
Q 16.015625 21.625 22.71875 14.15625 
Q 29.4375 6.6875 42.828125 6.6875 
Q 48.046875 6.6875 52.140625 7.59375 
Q 56.25 8.5 59.515625 10.40625 
z
" id="DejaVuSans-71"/>
      <path d="M 41.109375 46.296875 
Q 39.59375 47.171875 37.8125 47.578125 
Q 36.03125 48 33.890625 48 
Q 26.265625 48 22.1875 43.046875 
Q 18.109375 38.09375 18.109375 28.8125 
L 18.109375 0 
L 9.078125 0 
L 9.078125 54.6875 
L 18.109375 54.6875 
L 18.109375 46.1875 
Q 20.953125 51.171875 25.484375 53.578125 
Q 30.03125 56 36.53125 56 
Q 37.453125 56 38.578125 55.875 
Q 39.703125 55.765625 41.0625 55.515625 
z
" id="DejaVuSans-114"/>
     </defs>
     <g transform="translate(375.22 72.748563)scale(0.1 -0.1)">
      <use xlink:href="#DejaVuSans-71"/>
      <use x="77.490234" xlink:href="#DejaVuSans-114"/>
      <use x="118.572266" xlink:href="#DejaVuSans-101"/>
      <use x="180.095703" xlink:href="#DejaVuSans-101"/>
      <use x="241.619141" xlink:href="#DejaVuSans-110"/>
     </g>
    </g>
    <g id="line2d_34">
     <path d="M 347.22 83.926688 
L 367.22 83.926688 
" style="fill:none;stroke:#ff0000;stroke-linecap:square;stroke-width:1.5;"/>
    </g>
    <g id="line2d_35"/>
    <g id="text_18">
     <!-- Red -->
     <defs>
      <path d="M 45.40625 46.390625 
L 45.40625 75.984375 
L 54.390625 75.984375 
L 54.390625 0 
L 45.40625 0 
L 45.40625 8.203125 
Q 42.578125 3.328125 38.25 0.953125 
Q 33.9375 -1.421875 27.875 -1.421875 
Q 17.96875 -1.421875 11.734375 6.484375 
Q 5.515625 14.40625 5.515625 27.296875 
Q 5.515625 40.1875 11.734375 48.09375 
Q 17.96875 56 27.875 56 
Q 33.9375 56 38.25 53.625 
Q 42.578125 51.265625 45.40625 46.390625 
z
M 14.796875 27.296875 
Q 14.796875 17.390625 18.875 11.75 
Q 22.953125 6.109375 30.078125 6.109375 
Q 37.203125 6.109375 41.296875 11.75 
Q 45.40625 17.390625 45.40625 27.296875 
Q 45.40625 37.203125 41.296875 42.84375 
Q 37.203125 48.484375 30.078125 48.484375 
Q 22.953125 48.484375 18.875 42.84375 
Q 14.796875 37.203125 14.796875 27.296875 
z
" id="DejaVuSans-100"/>
     </defs>
     <g transform="translate(375.22 87.426688)scale(0.1 -0.1)">
      <use xlink:href="#DejaVuSans-82"/>
      <use x="69.419922" xlink:href="#DejaVuSans-101"/>
      <use x="130.943359" xlink:href="#DejaVuSans-100"/>
     </g>
    </g>
   </g>
  </g>
 </g>
 <defs>
  <clipPath id="pcfbca0f480">
   <rect height="266.112" width="357.12" x="57.6" y="41.472"/>
  </clipPath>
 </defs>
</svg>
