<svg xmlns="http://www.w3.org/2000/svg" viewBox="0 0 1289.8 467.7" style="enable-background:new 0 0 1289.8 467.7;background-color:#fff" xml:space="preserve"><style>.st0{fill:none;stroke-width:.4252;stroke-miterlimit:10}.st0,.st1,.st2{stroke:#000;stroke-linecap:round;stroke-linejoin:round}.st1{fill:none;stroke-width:.283;stroke-miterlimit:10}.st11,.st2{stroke-width:.2835;fill:none}.st11{stroke:#000;stroke-linecap:round;stroke-linejoin:round}.st4{stroke-dasharray:.5536,2.7678}.st4,.st5,.st7,.st8,.st9{fill:none;stroke:#000;stroke-width:.2835;stroke-linecap:round;stroke-linejoin:round}.st5{stroke-dasharray:8.3033,2.7678,.5536,2.7678}.st7{stroke-dasharray:.6469,3.2347}.st8{stroke-dasharray:9.704,3.2347,.6469,3.2347}.st9{stroke-dasharray:.7074,3.537}.st11{stroke-dasharray:9.7041,3.2347,.6469,3.2347}.st12{font-family:Helvetica,Arial,sans-serif}.st13{font-size:14px}.st14{font-size:14.9998px}</style><g id="BCLB-10x100"><path class="st0" d="M71.9 62.4v45.4-.1c0 13.2 10.7 23.8 23.8 23.9h850.5c13.2 0 23.7-10.6 23.7-23.8V62.4c0-13.2-10.6-23.8-23.8-23.8H95.8c-13.1.1-23.9 10.6-23.9 23.8"/><path class="st0" d="M946.1 34H95.8c-15.7 0-28.4 12.7-28.4 28.3v45.5-.1c0 15.7 12.7 28.3 28.3 28.4h850.5c15.7 0 28.3-12.7 28.4-28.3v.1-45.6c0-15.6-12.7-28.3-28.5-28.3h0z"/><path class="st0" d="M951.9 54H90.1v62.3h861.8V54m231.5 8.4V34H1070v28.4m113.4 0H1070m0 0v73.7m113.4-28.3v28.3M1070 107.8h113.4m0 28.3H1070m113.4-73.7v45.4m-56.6-31.3c-4.7 0-8.5 3.8-8.5 8.5s3.8 8.5 8.5 8.5 8.5-3.8 8.5-8.5-3.8-8.5-8.5-8.5"/><path class="st0" d="M1126.8 96.4c6.3 0 11.3-5.1 11.3-11.3s-5.1-11.3-11.3-11.3m0-.1c-6.3 0-11.3 5.1-11.3 11.3M95.8 266.3v113.2m771.1-51c0-3.2-2.6-5.9-5.8-5.9-3.2 0-5.9 2.6-5.9 5.8 0 3.2 2.6 5.9 5.8 5.9 3.3 0 5.9-2.6 5.9-5.8m-337.2 0c0-3.2-2.6-5.9-5.8-5.9-3.2 0-5.9 2.6-5.9 5.8 0 3.2 2.6 5.9 5.8 5.9 3.3 0 5.9-2.6 5.9-5.8m-343 0c0-3.2-2.6-5.9-5.8-5.9-3.2 0-5.9 2.6-5.9 5.8s2.6 5.9 5.8 5.9c3.3 0 5.9-2.6 5.9-5.8m759.4 51V266.3"/><path class="st0" d="M67.4 266.3h907.2v113.2H67.4zm116.3-.7h0v-9.8m-12.9 0 6.4-.7 6.5.7m-12.9 0v10.5m-5.1 0v-10.5h5.1m-31.4 0 13.3-.7 13 .7m-26.3 0v10.5m0-10.5h-5.1v10.5m-12.9-10.5 6.5-.7 6.4.7m-12.9 0h0v9.8m48.6-45.1h-34.9m37.1 7.2h-39.3m38.2 4.3H134m37.1 5.8H134m41.4 4H130m45.4 5.7H130m41.1 4.4H134m49.7 14.4v-10.5m-62.3 10.5v-10.5m49.7-34.3c-.1-.6-.6-1-1.2-1m-34.7 0c-.6 0-1.1.4-1.2 1m37.1.1 1.1 6.1m-38.2-6.1-1.1 6.1v2.9m39.3 0v-2.9M134 232l-1.1-1.4m38.2 1.4 1.1-1.4m-38.2 7.2V232m41.4 9.8-4.3-4V232m-37.1 5.8-4 4v5.7m45.4 0v-5.7M134 251.9l-4-4.4m41.1 4.4 4.3-4.4m-4.3 6.2v-1.8"/><path class="st0" d="M171.1 253.7c0 .7.6 1.3 1.3 1.3l4.9.2m-43.3-3.3v1.8c0 .7-.6 1.3-1.3 1.3l-4.9.2m941.5-201.3h0-9.8m0 12.9-.7-6.5.7-6.4m0 12.9h10.5m0 5.1h-10.5v-5.1m0 31.4-.7-13.3.7-13m0 26.3h10.5m-10.5 0v5h10.5m-10.5 13-.7-6.5.7-6.5m0 13h9.8m-45.1-48.6v34.9m7.2-37.1v39.3m4.3-38.2v37.1m5.8-37.1v37.1m4-41.5v45.5m5.7-45.5v45.5m4.4-41.1v37.1m14.4-49.7h-10.5m10.5 62.3h-10.5m-34.3-49.7c-.6.1-1 .6-1 1.2m0 34.6c0 .6.4 1.1 1 1.2m.1-37 6.1-1.1m-6.1 38.2 6.1 1.1h2.9m0-39.3h-2.9m4.3 38.2-1.4 1.1m1.4-38.2-1.4-1.1m7.2 38.2h-5.8m9.8-41.5-4 4.4h-5.8m5.8 37.1 4 4h5.7m0-45.5h-5.7m10.1 41.5-4.4 4m4.4-41.1-4.4-4.4m6.2 4.4h-1.8"/><path class="st0" d="M1057.4 66.5c.7 0 1.3-.6 1.3-1.3l.2-4.9m-3.3 43.3h1.8c.7 0 1.3.6 1.3 1.3l.2 4.9"/></g><g id="Dimensions"><path class="st1" d="M1183.4 136h35.2m-91.8-51h91.8m-91.8.1v87.2"/><path class="st2" d="M1175.8 209.7h-144.1"/><path d="m1174.2 207.2 9.2 2.5-9.2 2.4zm-140.8 0-9.2 2.5 9.2 2.4z"/><path class="st2" d="M1175.8 167.2h-41.5"/><path d="m1174.2 164.7 9.2 2.5-9.2 2.4zm-38.2 0-9.2 2.5 9.2 2.4z"/><path class="st2" d="M1217.3 92.6v35.9"/><path d="m1214.8 94.3 2.5-9.3 2.5 9.3zm0 32.5 2.5 9.2 2.5-9.2z"/><path class="st1" d="M1024.2 102.5v113m159.2-79.5v79.5"/><path class="st2" d="m1137.8 73.4 48-51h98.9"/><path d="m1140.7 73.8-8.1 5.1 4.5-8.5z"/><path class="st1" d="M92.4 135.3H16.9M95.8 33.8H16.9"/><path class="st2" d="M23.1 127.2V41.4"/><path d="m25.6 125.5-2.5 9.2-2.4-9.2zm0-82.4-2.5-9.3-2.4 9.3z"/><path class="st1" d="M974.6 379.3v81.6M67.4 379.5v81.7"/><path class="st2" d="M967 455H74.9"/><path d="m965.4 452.5 9.2 2.5-9.2 2.5zm-888.8 0-9.2 2.5 9.2 2.5z"/><path class="st1" d="m505.2 162.8 31.6-70.2M67.2 266.3v-79.5m85.3 33.7v-33.7"/><path class="st2" d="m190.6 319.2 75.5-78.2h127.6"/><path d="m193.5 319.8-8.2 4.9 4.7-8.4z"/><path class="st1" d="M67.3 380.4v73.2m456.4-125.1V425m-342.9-95.4v95.6m-85-46v46"/><path class="st2" d="M173.3 419h-69.9"/><path d="m171.6 416.5 9.2 2.5-9.2 2.5zm-66.5 0-9.3 2.5 9.3 2.5z"/><path class="st2" d="M516.2 419H188.3"/><path d="m514.5 416.5 9.2 2.5-9.2 2.5zm-324.6 0-9.2 2.5 9.2 2.5z"/><path class="st1" d="M861 328.5V425"/><path class="st2" d="M853.5 419H531.3"/><path d="m851.8 416.5 9.2 2.5-9.2 2.5zm-318.9 0-9.2 2.5 9.2 2.5z"/><path class="st1" d="M67.4 379.2H16.9M67.4 266H16.9"/><path class="st2" d="M23.1 370.7v-97.2"/><path d="m25.5 369-2.4 9.2-2.5-9.2zm0-93.8-2.4-9.2-2.5 9.2z"/><path class="st1" d="M180.7 328.1H45.2"/><path class="st2" d="M51.4 370.7v-34.8"/><path d="m53.9 369-2.5 9.2-2.5-9.2zm0-31.4-2.5-9.2-2.5 9.2z"/><path class="st2" d="M23.1 213.5v-29.6"/><path d="m25.5 211.8-2.4 9.2-2.5-9.2z"/><path class="st1" d="M23.1 265.4V221m110.9-.6H17.5"/><path class="st2" d="M75.2 193h69.7"/><path d="m76.9 195.5-9.2-2.5 9.2-2.4zm66.3 0 9.2-2.5-9.2-2.4z"/></g><g id="Middle_Lines"><path class="st2" d="M152.5 214.8v4.3"/><path class="st4" d="M152.5 221.8v2"/><path class="st5" d="M152.5 225.2v41.7"/><path class="st2" d="M152.5 268.3v4.3m44.6 55.8h-4.2"/><path style="fill:none;stroke:#000;stroke-width:.2835;stroke-linecap:round;stroke-linejoin:round;stroke-dasharray:.7217,3.6085" d="M189.3 328.4h-2.6"/><path class="st2" d="M184.9 328.4h-4.2M1012.2 85h4.3"/><path class="st4" d="M1019.2 85h2"/><path class="st5" d="M1022.5 85h41.8"/><path class="st2" d="M1065.7 85h4.3m56.8 16.3V97"/><path class="st7" d="M1126.8 93.8v-2.3"/><path class="st8" d="M1126.8 89.9V74.7"/><path class="st2" d="M1126.8 73.1v-4.3M1143 85h-4.3"/><path class="st7" d="M1135.5 85h-2.3"/><path class="st8" d="M1131.6 85h-15.2"/><path class="st2" d="M1114.8 85h-4.3m-958 129.8v4.3"/><path class="st4" d="M152.5 221.8v2"/><path class="st5" d="M152.5 225.2v41.7"/><path class="st2" d="M152.5 268.3v4.3m28.4 55.9v-4.3"/><path class="st9" d="M180.9 320.7v-2.5"/><path class="st2" d="M180.9 316.4v-4.2m680.2 16v-4.3"/><path style="fill:none;stroke:#000;stroke-width:.2835;stroke-linecap:round;stroke-linejoin:round;stroke-dasharray:.6814,3.4072" d="M861.1 320.5v-2.3"/><path class="st2" d="M861.1 316.4v-4.2m16.2 16.2H873"/><path class="st7" d="M869.8 328.4h-2.2"/><path class="st11" d="M865.9 328.4h-15.2"/><path class="st2" d="M849.1 328.4h-4.2m-321.1.1v-4.3"/><path class="st9" d="M523.8 320.7v-2.5"/><path class="st2" d="M523.8 316.4v-4.2m16.2 16.2h-4.2"/><path class="st7" d="M532.6 328.4h-2.3"/><path class="st11" d="M528.7 328.4h-15.2"/><path class="st2" d="M511.9 328.4h-4.3"/></g><g id="Text_1_"><text transform="translate(1091.34 204.69)" class="st12 st13">(28)</text><text transform="translate(1146.302 161.916)" class="st12 st13">10</text><text transform="rotate(-90 661.06 -548.836)" class="st12 st13">9</text><text transform="rotate(-90 54.85 37.16)" class="st12 st13">18</text><text transform="translate(1191.43 17.614)" class="st12 st13">2 × M4, 5 deep</text><text transform="translate(512.077 449.494)" class="st12 st13">210</text><text transform="translate(445.815 187.688)" class="st12 st13">10 x 200 (Luminous area)</text><text transform="translate(271.777 236.33)" class="st12 st13">6 × M2.5, 3.5 deep</text><text transform="translate(371.408 413.572)" class="st12 st13">90</text><text transform="translate(754.087 413.572)" class="st12 st13">90</text><text transform="translate(120.002 413.572)" class="st12 st13">10</text><text transform="rotate(-90 132.399 114.784)" class="st12 st13">8</text><text transform="rotate(-90 173.724 156.11)" class="st12 st13">20</text><text transform="matrix(0 -.777 1 0 45.961 359.997)" class="st12 st13">9.1</text><text transform="translate(102.259 187.594)" class="st12 st13">15</text><text transform="translate(1138.1 440.661)" class="st12 st14">Not to scale</text><text transform="translate(1138.1 458.661)" class="st12 st14">Dimensions in mm</text></g></svg>