<svg xmlns="http://www.w3.org/2000/svg" viewBox="0 0 578.3 255.1" style="enable-background:new 0 0 578.3 255.1;background-color:#fff" xml:space="preserve"><style>.st9{font-family:Helvetica,Arial,sans-serif}.st10{font-size:9px}.st11{fill:#575756}.st13{font-size:8.7485px}.st14{font-size:6.5549px}</style><g id="Lines"><path d="M35.1 209.1V10.9m532.7 198.2H35.1" style="stroke-linecap:round;stroke-linejoin:round;fill:none;stroke:#dadada;stroke-width:.7087;stroke-miterlimit:10"/><path d="M567.8 10.9H35.1m532.7 39.6H35.1m532.7 39.7H35.1m532.7 39.6H35.1m532.7 39.6H35.1m342-158.5v198.2m38.2-198.2v198.2m38.1-198.2v198.2m38.2-198.2v198.2m38.1-198.2v198.2m38.1-198.2v198.2M301 10.9v198.2M263 10.9v198.2M225.1 10.9v198.2m-38-198.2v198.2m-38-198.2v198.2m-38-198.2v198.2" style="fill:none;stroke:#dadada;stroke-width:.2835;stroke-miterlimit:10;stroke-linecap:round;stroke-linejoin:round"/><path d="M339.2 209.2V11m-266 198.2V11" style="fill:none;stroke:#dadada;stroke-width:.2835;stroke-miterlimit:10"/></g><g id="Graphen_00000115500420143128663610000017394546589503380633_"><path d="M263 209.1c13.9 0 33.4 0 41.3-13.1 17.3-32 14.8-185.1 20.6-185.1 6 0 0 119.6 10.7 176.8 3.5 21.5 20 21.2 38 21.4h3.5" style="fill:none;stroke:#f59d23;stroke-width:.7087;stroke-miterlimit:10"/><path d="M377.1 209.1c11.2 0 58.8.9 71.2-13.3 12.4-14.2 17.3-37.3 17.8-41.3.4-4 6.7-14.2 8.4-16.4 8.9-10.4 14-127.1 17-127.1s6.6 120.9 8.3 133.3c1.8 12.4.4 27.7 7.6 52.9 2.6 7.2 5.2 12.1 22.3 12l36 .1" style="fill:none;stroke:#178ecf;stroke-width:.7087;stroke-miterlimit:10"/><path d="M453.4 209.1c-43.1-6.1-89.7 8.3-118.7-93.4s-31.3-99.8-31.3-99.8-1.2-2.9-2.3-2.5c-1 .4-2.7-2.3-3.2-2.4s-3.5.3-4.3 1.5-2.7 4.3-4.4 4.5c-1.6.2-2 7.5-3.8 10.3-1.8 2.8-5.2 15.5-5.7 18.2S273.5 65 273.5 65s-4 15.3-4.3 17.2c-.3 1.8-3.3 10.8-4.3 13.5-1 2.7-10.5 25.7-21 35.7s-18.7 39-21.7 44.5-8.8 12.8-11.5 12.8c-2.7 0-7.8-9-9.7-18.3-1.8-9.3-4.5-16.2-5.3-18.3-.8-2.2-4.7-40.5-4.7-43.3 0-2.8-.4-25-2.2-25-1.8 0-5.5 40-5.7 43.9-.2 3.9-3 41.8-5.5 49.9s-4.3 19.2-7 22.7-11.4 9.2-15.5 9.1c-4.1-.2-34.5-.2-34.5-.2" style="fill:none;stroke:#b2b2b2;stroke-width:.7087;stroke-miterlimit:10"/><path d="M133.7 209.1c31.8 0 38.8.6 43.7-6.4 7-11.8 11.3-28.7 13.3-65.7 4.3-79.3 6.3-125.6 8.7-126 2.3-.4 5.7 91 11 126.3 3.8 25.2 6.3 57.5 20.3 65.8 6.8 5.1 19 5.9 32.4 5.9" style="fill:none;stroke:#0a457c;stroke-width:.7087;stroke-miterlimit:10"/></g><g id="Text"><text transform="matrix(1 0 0 1.0029 27.353 221.129)" class="st11 st9 st10">250</text><text transform="matrix(1 0 0 1.0029 65.32 221.129)" class="st11 st9 st10">300</text><text transform="matrix(1 0 0 1.0029 103.65 221.129)" class="st11 st9 st10">350</text><text transform="matrix(1 0 0 1.0029 141.617 221.129)" class="st11 st9 st10">400</text><text transform="matrix(1 0 0 1.0029 179.584 221.129)" class="st11 st9 st10">450</text><text transform="matrix(1 0 0 1.0029 217.555 221.129)"><tspan x="0" y="0" class="st11 st9 st10">5</tspan><tspan x="5" y="0" class="st11 st9 st10">00</tspan></text><text transform="matrix(1 0 0 1.0029 255.522 221.129)"><tspan x="0" y="0" class="st11 st9 st10">5</tspan><tspan x="5" y="0" class="st11 st9 st10">50</tspan></text><text transform="matrix(1 0 0 1.0029 293.489 221.129)"><tspan x="0" y="0" class="st11 st9 st10">6</tspan><tspan x="5" y="0" class="st11 st9 st10">00</tspan></text><text transform="matrix(1 0 0 1.0029 331.457 221.129)"><tspan x="0" y="0" class="st11 st9 st10">6</tspan><tspan x="5" y="0" class="st11 st9 st10">50</tspan></text><text transform="matrix(1 0 0 1.0029 369.423 221.129)"><tspan x="0" y="0" class="st11 st9 st10">7</tspan><tspan x="5" y="0" class="st11 st9 st10">00</tspan></text><text transform="matrix(1 0 0 1.0029 407.39 221.129)"><tspan x="0" y="0" class="st11 st9 st10">7</tspan><tspan x="5" y="0" class="st11 st9 st10">50</tspan></text><text transform="matrix(1 0 0 1.0029 445.357 221.129)"><tspan x="0" y="0" class="st11 st9 st10">8</tspan><tspan x="5" y="0" class="st11 st9 st10">00</tspan></text><text transform="matrix(1 0 0 1.0029 483.088 221.129)"><tspan x="0" y="0" class="st11 st9 st10">8</tspan><tspan x="5" y="0" class="st11 st9 st10">50</tspan></text><text transform="matrix(1 0 0 1.0029 521.054 221.129)"><tspan x="0" y="0" class="st11 st9 st10">9</tspan><tspan x="5" y="0" class="st11 st9 st10">00</tspan></text><text transform="matrix(1 0 0 1.0029 559.02 221.129)"><tspan x="0" y="0" class="st11 st9 st10">9</tspan><tspan x="5" y="0" class="st11 st9 st10">50</tspan></text><text transform="matrix(.8877 0 0 1.0029 48.426 246.348)" class="st11 st9 st10">blue</text><text transform="matrix(1 0 0 1.0029 176.79 246.348)" class="st11 st9 st10">infrared</text><text transform="matrix(1 0 0 1.0029 19.576 211.552)" class="st11 st9 st10">0.0</text><text transform="matrix(1 0 0 1.0029 19.576 171.971)" class="st11 st9 st10">0.2</text><text transform="matrix(1 0 0 1.0029 19.576 132.27)" class="st11 st9 st10">0.4</text><text transform="matrix(1 0 0 1.0029 19.576 92.69)" class="st11 st9 st10">0.6</text><text transform="matrix(1 0 0 1.0029 19.576 53.108)" class="st11 st9 st10">0.8</text><text transform="matrix(1 0 0 1.0029 19.576 13.407)" class="st11 st9 st10">1.0</text><text transform="matrix(.9465 0 -.3237 .9492 537.954 234.583)" class="st11 st9" style="font-size:8.9633px">λ</text><text transform="matrix(1 0 0 1.0029 544.944 234.566)"><tspan x="0" y="0" class="st11 st9 st13">[</tspan><tspan x="2.5" y="0" class="st11 st9 st13">nm</tspan><tspan x="14.7" y="0" class="st11 st9 st13">]</tspan></text><text transform="matrix(1 0 0 1.0029 5.661 18.9)" class="st11 st9 st10">I</text><text transform="matrix(1 0 0 1.0029 8.65 20.574)"><tspan x="0" y="0" class="st11 st9 st14">r</tspan><tspan x="2.2" y="0" class="st11 st9 st14">el</tspan></text><text transform="matrix(1 0 0 1.0029 131.004 246.348)" class="st11 st9 st10">white</text><text transform="matrix(1 0 0 1.0029 94.041 246.348)" class="st11 st9 st10">red</text><path style="fill:#f59d23" d="M81.9 238.6h8.5v8.5h-8.5z"/><path style="fill:#b2b2b2" d="M119.6 238.8h8.5v8.5h-8.5z"/><path style="fill:#178ecf" d="M165.5 238.6h8.5v8.5h-8.5z"/><path style="fill:#0a457c" d="M35.9 238.8h8.5v8.5h-8.5z"/></g></svg>