<svg xmlns="http://www.w3.org/2000/svg" viewBox="0 0 892.9 453.5" style="enable-background:new 0 0 892.9 453.5;background-color:#fff" xml:space="preserve"><style>.st0,.st1{stroke-miterlimit:10}.st0{fill:none;stroke:#000;stroke-width:.4252;stroke-linecap:round;stroke-linejoin:round}.st1{stroke-width:.2835}.st1,.st10,.st11,.st2,.st3,.st4,.st5,.st6,.st8,.st9{fill:none;stroke:#000;stroke-linecap:round;stroke-linejoin:round}.st2{stroke-width:.283;stroke-miterlimit:10}.st10,.st11,.st3,.st4,.st5,.st6,.st8,.st9{stroke-width:.2835}.st4{stroke-dasharray:.658,3.2902}.st5{stroke-dasharray:9.8707,3.2902,.658,3.2902}.st6{stroke-dasharray:6.1062}.st8{stroke-dasharray:4.3487}.st9{stroke-dasharray:8.1539}.st10{stroke-dasharray:.3328,1.6642}.st11{stroke-dasharray:6.4397}.st15{font-family:Helvetica,Arial,sans-serif}.st16{font-size:9px}.st17{font-size:14.9998px}</style><g id="BCLB-10x100"><path class="st0" d="M59.1 24.8v93.5h0c0 4.9 4 8.9 8.9 8.9h637.9c4.9 0 8.9-4 8.9-8.9V24.8c0-4.9-4-8.9-8.9-8.9H68c-4.9 0-8.9 4-8.9 8.9"/><path class="st0" d="M705.9 14.2H68c-5.9 0-10.7 4.8-10.7 10.6h0v93.5h0c0 5.9 4.8 10.6 10.6 10.6h637.9c5.9 0 10.6-4.8 10.6-10.6v0-93.5 0c.2-5.9-4.6-10.6-10.5-10.6h0z"/><path class="st0" d="M708.1 21.7H65.9v99.9h642.2V21.7M68 210.9v48.8m-10.6-48.8v48.8H68m11.8-58v9.2m36 0v-9.2h4.3v9.2m-15.9 0v-9.2h11.6m-20.2 9.2v-9.2h8.6m-20.1 9.2v-9.2h11.5m-15.8 0h4.3m3.1-27.6h25.5m-25.5 21.2h25.5m-5.8 6.4-1.9-1.4-1.7-1-1.8-.6-1.6-.1-1.6.1-1.6.6-1.8 1-1.9 1.4m19.7-27.6v21.2m-25.5-21.2v21.2m25.5 0 3.1 6.4m-28.6-6.4-3.2 6.4M67.8 313.9c-1.9 0-3.4 1.5-3.4 3.4s1.5 3.4 3.4 3.4 3.4-1.5 3.4-3.4c.1-1.8-1.5-3.4-3.4-3.4m0 93.6c-1.9 0-3.4 1.5-3.4 3.4s1.5 3.4 3.4 3.4 3.4-1.5 3.4-3.4c.1-1.9-1.5-3.4-3.4-3.4M387 313.9c1.9 0 3.4 1.5 3.4 3.4s-1.5 3.4-3.4 3.4-3.4-1.5-3.4-3.4c-.1-1.8 1.5-3.4 3.4-3.4m0 93.6c1.9 0 3.4 1.5 3.4 3.4s-1.5 3.4-3.4 3.4-3.4-1.5-3.4-3.4 1.5-3.4 3.4-3.4m318.9 14.2c5.9 0 10.7-4.8 10.7-10.7m-.1 0v-93.5m0-.1c0-5.9-4.7-10.6-10.6-10.6m-.5 0H67.7m0 0c-5.9 0-10.7 4.8-10.7 10.7m.1 0V411m.1-.1c0 5.9 4.7 10.6 10.6 10.6m-.1.2h637.7m-416.1-88.2c0-4.6-4.5-8.3-9-8.3m0 78.1c4.6 0 9-3.7 9-8.3M67.8 325.2c-4.6 0-8.3 3.7-8.3 8.3m0 61.6v-61.7m0 61.6c0 4.6 3.7 8.3 8.3 8.3m212.6 0H67.7m221.6-69.9v61.7M67.7 325.2h212.7M79.5 357.6v13.3m40.4-13.3c-.9-2.8-2.4-5.3-4.3-7.5l-11.5-6.6c-2.9-.6-5.8-.6-8.7 0l-11.5 6.6c-2 2.2-3.4 4.7-4.4 7.5m40.4 13.3v-13.3m-40.4 13.3c.9 2.8 2.4 5.3 4.3 7.5l11.5 6.6c2.9.6 5.8.6 8.7 0l11.5-6.6c2-2.2 3.4-4.7 4.4-7.5"/><path class="st0" d="M99.7 353.6c-5.9 0-10.6 4.7-10.6 10.6 0 5.9 4.7 10.6 10.6 10.6 5.9 0 10.6-4.7 10.6-10.6 0-5.8-4.8-10.6-10.6-10.6"/><path class="st0" d="M86.9 364.2c0 7 5.7 12.8 12.8 12.8 7 0 12.8-5.7 12.8-12.8s-5.7-12.8-12.8-12.8c-7.1.1-12.8 5.8-12.8 12.8m5.8-14.3h13.9"/><path class="st0" d="M92.7 349.8c-5.5 2.7-9 8.3-9 14.4s3.5 11.7 9 14.4m0 0h13.9m0 0c5.5-2.7 9-8.3 9-14.4s-3.5-11.7-9-14.4"/><path class="st0" d="M92.2 363.2c-.6 0-1 .5-1 1 0 .6.5 1 1 1 .6 0 1-.5 1-1 .1-.5-.4-1-1-1m7.5 7.4c-.6 0-1 .5-1 1 0 .6.5 1 1 1 .6 0 1-.5 1-1s-.5-1-1-1m7.4-7.4c-.6 0-1 .5-1 1 0 .6.5 1 1 1 .6 0 1-.5 1-1s-.4-1-1-1m-7.4 0c-.6 0-1 .5-1 1 0 .6.5 1 1 1 .6 0 1-.5 1-1s-.5-1-1-1m0-7.4c-.6 0-1 .5-1 1 0 .6.5 1 1 1 .6 0 1-.5 1-1s-.5-1-1-1M820.1 129V14.2H869v10.5m0 0h-48.9"/><path class="st0" d="M839.2 29.9c-1.9 0-3.4 1.5-3.4 3.4s1.5 3.4 3.4 3.4 3.4-1.5 3.4-3.4c.1-1.9-1.5-3.4-3.4-3.4m0 76.5c-1.9 0-3.4 1.5-3.4 3.4s1.5 3.4 3.4 3.4 3.4-1.5 3.4-3.4c.1-1.9-1.5-3.4-3.4-3.4M869 24.7v93.6m-48.9 0H869M820.1 129H869v-10.7m-48.9-40.1h-9.2V65h9.2m0 20.8h-9.2v-7.6m0 14.2v-6.6m0 7v-.4m9.2-35h-9.2v-7.2m0 14.8v-7.6m-27.6 26.9V58.8m21.3 25.5V58.8m3.1 27.1h3.2m-3.2-28.6h3.2m0 35.5h9.2m-9.2-42.6h9.2m-36.8 8.6h21.3m-21.3 25.5h21.3m0-25.5 3.1-1.5m-3.1 27 3.1 1.6"/></g><g id="eingefügt"><path class="st1" d="M57.4 210.9h10.5m637.8 48.8h10.6v-48.8h-21.8m11.2 48.8v-48.8m0 48.8H67.9m0-48.8h231.7v12.7m0 0h4.3v-12.7h4.3v12.7h4.3v-12.7h4.1v12.7h4.3v-12.7h4.3v12.7h4.3v-12.7h4.1v12.7h4.3v-12.7h4.3v12.7h4.3v-12.7h4.1v12.7h4.3v-12.7h4.3v12.7h4.4v-12.7h4v12.7h4.3v-12.7h4.3v12.7h4.4v-12.7h12.7v12.7h4.3v-12.7h4v12.7h4.3v-12.7h4.4v12.7h4.3v-12.7h4v12.7h4.4v-12.7h4.3v12.7h4v-12.7h4.3v12.7h4.4v-12.7h4.3v12.7h4v-12.7h4.4v12.7h4.3v-12.7h4.3v12.7h4v-12.7h4.4v12.7h4.3m10.9 9.5c0-1.3-1-2.3-2.3-2.3-1.3 0-2.3 1-2.3 2.3 0 1.3 1 2.3 2.3 2.3 1.3 0 2.3-1 2.3-2.3m-191.4 0c0-1.3-1-2.3-2.3-2.3-1.3 0-2.3 1-2.3 2.3 0 1.3 1 2.3 2.3 2.3 1.2 0 2.3-1 2.3-2.3m378.2 0c0-1.3 1-2.3 2.3-2.3 1.3 0 2.3 1 2.3 2.3 0 1.3-1 2.3-2.3 2.3-1.3 0-2.3-1-2.3-2.3m-569.7 0c0-1.3-1-2.3-2.3-2.3-1.3 0-2.3 1-2.3 2.3 0 1.3 1 2.3 2.3 2.3 1.3 0 2.3-1 2.3-2.3m372-9.5v-12.7h4.3m0 0v12.7h4.1v-12.7h4.4v12.7h4.1v-12.7h4.4v12.7h4.1v-12.7h3.8v12.7h4v-12.7m183 0H686v12.7m0 0h-4.3v-12.7h-4.4v12.7H673v-12.7h-4v12.7h-4.4v-12.7h-4.3v12.7H656v-12.7h-4v12.7h-4.4v-12.7h-4.3v12.7H639v-12.7h-4.1v12.7h-4.3v-12.7h-4.3v12.7H622v-12.7h-4.1v12.7h-4.3v-12.7h-4.3v12.7H605v-12.7h-4.1v12.7h-4.3v-12.7h-4.3v12.7H588v-12.7h-4.1v12.7h-4.3v-12.7h-4.3v12.7H571v-12.7h-4.1v12.7h-4.3v-12.7h-4.3v12.7h-4.1v-12.7h-4.3v12.7h-4.3v-12.7h-4.3v12.7h-4.1v-12.7h-4.3v12.7h-4.3v-12.7h-4.4v12.7h-4v-12.7h-4.3v12.7h-4.3m0 0v-12.7h-4.4"/><path class="st0" d="M478.6 306.9v114.7m4 0V306.9m-182.8 0v114.7m170.1-114.7v114.7m-4.3-114.7v114.7m-4.1-114.7v114.7m-4.3-114.7v114.7m-4.3-114.7v114.7m-4.3-114.7v114.7m-4.1-114.7v114.7m-4.3-114.7v114.7m-4.3-114.7v114.7m-4.3-114.7v114.7m-4.1-114.7v114.7m-4.3-114.7v114.7m-4.3-114.7v114.7m-4.1-114.7v114.7m-4.3-114.7v114.7m-4.3-114.7v114.7m-4.3-114.7v114.7m-4.1-114.7v114.7m-4.3-114.7v114.7m-12.7-114.7v114.7m-4.3-114.7v114.7m-4.3-114.7v114.7m-4.3-114.7v114.7m-4.1-114.7v114.7m-4.3-114.7v114.7m-4.3-114.7v114.7m-4.4-114.7v114.7m-4-114.7v114.7m-4.3-114.7v114.7m-4.3-114.7v114.7m-4.4-114.7v114.7m-4-114.7v114.7m-4.3-114.7v114.7m-4.4-114.7v114.7m-4.3-114.7v114.7m-4-114.7v114.7m-4.3-114.7v114.7m-4.4-114.7v114.7m170.1-114.7v114.7m12.5-114.7v114.7m8.6-114.7v114.7m4.3-114.7v114.7M491 306.9v114.7m16-114.7v114.7m-4 0V306.9m182.8 0v114.7M515.7 306.9v114.7m4.3-114.7v114.7m4-114.7v114.7m4.4-114.7v114.7m4.3-114.7v114.7m4.3-114.7v114.7m4-114.7v114.7m4.4-114.7v114.7m4.3-114.7v114.7m4.3-114.7v114.7m4.1-114.7v114.7m4.3-114.7v114.7m4.3-114.7v114.7m4-114.7v114.7m4.4-114.7v114.7m4.3-114.7v114.7m4.3-114.7v114.7m4.1-114.7v114.7m4.3-114.7v114.7m4.3-114.7v114.7m4.3-114.7v114.7m4.1-114.7v114.7m4.3-114.7v114.7m4.3-114.7v114.7m4.3-114.7v114.7m4.1-114.7v114.7m4.3-114.7v114.7m4.3-114.7v114.7m4.3-114.7v114.7m4.1-114.7v114.7m4.3-114.7v114.7m4.3-114.7v114.7m4.3-114.7v114.7m4.1-114.7v114.7m4.3-114.7v114.7m4.3-114.7v114.7m4.4-114.7v114.7m4-114.7v114.7m4.3-114.7v114.7m4.3-114.7v114.7m13-114.7v114.7m-4.3-114.7v114.7M511.3 306.9v114.7"/><path class="st1" d="M694.5 210.9v12.7m0 0h-4.3v-12.7"/></g><g id="Dimensions"><path class="st2" d="M869.1 129H888m-48.7-19.1H888m-48.7-76.6H888m-48.7 76.6v34.5"/><path class="st3" d="M864.1 159.8h-38.9"/><path d="m862.9 158.2 6.2 1.6-6.2 1.7zm-36.6 0-6.1 1.6 6.1 1.7z"/><path class="st3" d="M864.1 142.4h-19.6"/><path d="m862.9 140.8 6.2 1.6-6.2 1.7zm-17.3 0-6.1 1.6 6.1 1.7z"/><path class="st3" d="M887.5 114.9v9"/><path d="m885.8 116 1.7-6.1 1.6 6.1zm0 6.8 1.7 6.2 1.6-6.2z"/><path class="st3" d="M887.5 38.3v66.5"/><path d="m885.8 39.5 1.7-6.2 1.6 6.2zm0 64.2 1.7 6.1 1.6-6.1z"/><path class="st2" d="M773.4 129h46.8m-46.8-57.5h18"/><path class="st3" d="M775 76.5V124"/><path d="m773.3 77.7 1.7-6.2 1.6 6.2zm0 45.1 1.7 6.2 1.6-6.2z"/><path class="st2" d="M820.2 123.7V162m48.9-38.3V162M68.5 129H38.9"/><path class="st3" d="M41.9 123.9V19.2"/><path d="m43.6 122.8-1.7 6.1-1.6-6.1zm0-102.4-1.7-6.2-1.6 6.2z"/><path class="st2" d="M67.8 410.9H38.9m28.9 35.2h-11m10.7-128.7H38.9"/><path class="st3" d="M41.2 406.2v-83.9"/><path d="m42.9 405-1.7 6.2-1.6-6.2zm0-81.5-1.7-6.2-1.6 6.2z"/><path class="st2" d="M68 14.2H39.1m221.6 155.3-45.3-66.8"/><path class="st3" d="m831.6 37.2-15.5 8.2h-64.3"/><path d="m829.8 36.3 6.2-1.5-4.6 4.4z"/><path class="st3" d="M286.5 228 263 201.7h-67.7"/><path d="m287 226.1 2.9 5.6-5.3-3.4z"/><path class="st3" d="m393.3 311.5 10.8-10.8h71.6"/><path d="m395.3 311.8-5.5 3.2 3.2-5.5z"/><path class="st2" d="M716.8 118.6v30M57.4 118.2v30.5m0 111V279"/><path class="st3" d="M711.8 146.4H62.4"/><path d="m710.6 144.7 6.2 1.7-6.2 1.6zm-647.1 0-6.1 1.7 6.1 1.6z"/><path class="st2" d="M291.3 232.9v46.8M99.9 233v46.8"/><path class="st3" d="M94.9 277.5H62.3"/><path d="m93.8 275.8 6.1 1.7-6.1 1.6zm-30.4 0-6.1 1.7 6.1 1.6z"/><path class="st3" d="M286.5 277.5H104.9"/><path d="m285.4 275.8 6.1 1.7-6.1 1.6zm-179.4 0-6.1 1.7 6.1 1.6z"/><path class="st2" d="M482.6 233v46.8"/><path class="st3" d="M296 277.5h171"/><path d="m297.1 279.1-6.1-1.6 6.1-1.7zm168.7 0 6.2-1.6-6.2-1.7z"/><path class="st2" d="M673.9 232.9v46.8"/><path class="st3" d="M669.2 277.5H476.9"/><path d="m668 275.8 6.2 1.7-6.2 1.6zm-190 0-6.1 1.7 6.1 1.6z"/><path class="st2" d="M57.2 410.9v37.6M387 410.9v37.5M67.8 410.9v37.5"/><path class="st3" d="M51.8 446.1h-7.3"/><path d="m50.7 444.5 6.1 1.6-6.1 1.7z"/><path class="st2" d="M41.3 410.9v11m26.7-.1H38.9"/><path class="st3" d="M41.3 426.9v7.3"/><path d="m39.6 428.1 1.7-6.2 1.6 6.2z"/><path class="st3" d="M382 446.1H73"/><path d="m380.9 444.5 6.1 1.6-6.1 1.7zm-306.7 0-6.2 1.6 6.2 1.7z"/><path class="st2" d="M99.9 233.3H41.4m16 26.4H24.1"/><path class="st3" d="M41.9 254.6v-16.2"/><path d="m43.6 253.5-1.7 6.2-1.6-6.2zm0-14-1.7-6.2-1.6 6.2z"/><path class="st2" d="M87.2 174H24.1m33.3 36.8h-16"/><path class="st3" d="M41.9 205.7v-26.6"/><path d="m43.6 204.6-1.7 6.2-1.6-6.2zm0-24.3-1.7-6.2-1.6 6.2z"/><path class="st3" d="M24.9 254.3v-75.2"/><path d="m26.6 253.2-1.7 6.1-1.6-6.1zm0-72.9-1.7-6.2-1.6 6.2z"/><path class="st2" d="M57.4 211v-45.8m42.6 16v-16"/><path class="st3" d="M94.8 166H62.5"/><path d="m93.7 164.4 6.1 1.6-6.1 1.7zm-30.1 0-6.1 1.6 6.1 1.7z"/><path class="st3" d="M392 446.1h308.2"/><path d="m393.2 447.8-6.2-1.7 6.2-1.6zm305.8 0 6.2-1.7-6.2-1.6z"/></g><g id="Middle_Lines"><path class="st3" d="M100 181.2v4.2"/><path class="st4" d="M100 188.7v2.3"/><path class="st5" d="M100 192.7v15.4"/><path class="st3" d="M100 209.8v4.2"/><path class="st6" d="M99.8 233.3v-6.1"/><path class="st3" d="M109.4 233.3h-4.3"/><path style="fill:none;stroke:#000;stroke-width:.2835;stroke-linecap:round;stroke-linejoin:round;stroke-dasharray:.1009,.5046" d="M104.6 233.3h-.4"/><path class="st3" d="M104 233.3h-4.3"/><path class="st8" d="M291.1 233.3v-4.4"/><path class="st9" d="M287.1 233.3h8.1"/><path class="st8" d="M674 233.3v-4.4"/><path class="st9" d="M678.1 233.3h-8.2"/><path class="st8" d="M482.5 233.3v-4.4"/><path class="st9" d="M478.5 233.3h8.2"/><path class="st6" d="M67.5 317.3h6.1"/><path class="st3" d="M67.5 323.4v-4.3"/><path class="st10" d="M67.5 317.5v-1.2"/><path class="st3" d="M67.5 315.5v-4.3"/><path class="st6" d="M67.7 410.9h6.1"/><path class="st11" d="M67.7 410.9v-6.4"/><path class="st6" d="M389.2 317.3H383"/><path class="st3" d="M387.3 323.4v-4.3"/><path class="st10" d="M387.3 317.5v-1.2"/><path class="st3" d="M387.3 315.5v-4.3"/><path class="st6" d="M389.6 410.9h-6.1"/><path class="st11" d="M387 410.9v-6.4"/><path class="st0" d="M706.1 313.9c1.9 0 3.4 1.5 3.4 3.4s-1.5 3.4-3.4 3.4-3.4-1.5-3.4-3.4c0-1.8 1.5-3.4 3.4-3.4m0 93.6c1.9 0 3.4 1.5 3.4 3.4s-1.5 3.4-3.4 3.4-3.4-1.5-3.4-3.4 1.5-3.4 3.4-3.4"/><path class="st2" d="M705.4 410.9v37.5"/><path class="st6" d="M706.5 317.3h-6.2"/><path class="st3" d="M706.4 323.4v-4.3"/><path class="st10" d="M706.4 317.5v-1.2"/><path class="st3" d="M706.4 315.5v-4.3"/><path class="st6" d="M706.2 410.9h-6.1"/><path class="st11" d="M706.2 410.9v-6.4"/><path class="st3" d="M839.2 39.4v-4.3"/><path class="st10" d="M839.2 33.5v-1.2"/><path class="st3" d="M839.2 31.5v-4.3"/><path style="fill:none;stroke:#000;stroke-width:.2835;stroke-linecap:round;stroke-linejoin:round;stroke-dasharray:6.0826" d="M839.2 33.3h-6.1"/><path style="fill:none;stroke:#000;stroke-width:.2835;stroke-linecap:round;stroke-linejoin:round;stroke-dasharray:6.0897" d="M839.3 109.9v-6.1"/><path style="fill:none;stroke:#000;stroke-width:.2835;stroke-linecap:round;stroke-linejoin:round;stroke-dasharray:6.0205" d="M839.2 109.8h-6"/><path class="st3" d="M791.3 71.5h4.2"/><path class="st4" d="M798.8 71.5h2.3"/><path class="st5" d="M802.8 71.5h15.4"/><path class="st3" d="M819.9 71.5h4.2"/></g><g id="Text_1_"><text transform="rotate(-90 436.176 -334.47)" class="st15 st16">27</text><text transform="rotate(-90 503.245 -381.353)" class="st15 st16">9</text><text transform="rotate(-90 480.584 -404.014)" class="st15 st16">36</text><text transform="translate(849.243 140.102)" class="st15 st16">14</text><text transform="translate(840.75 157.665)" class="st15 st16">23</text><text transform="rotate(-90 57.287 17.396)" class="st15 st16">54</text><text transform="translate(264.564 174.667)" class="st15 st16">45 x 300 (Luminous area)</text><text transform="translate(196.041 198.263)" class="st15 st16">8 × M2.5, 5 deep</text><text transform="translate(752.294 42.614)" class="st15 st16">4 × M4, 8 deep</text><text transform="translate(406.226 297.146)" class="st15 st16">6 × M4, 7.3 deep</text><text transform="translate(178.713 275.355)" class="st15 st16">90</text><text transform="translate(375.803 275.355)" class="st15 st16">90</text><text transform="translate(565.726 275.355)" class="st15 st16">90</text><text transform="translate(73.319 275.355)" class="st15 st16">20</text><text transform="translate(379.564 142.808)" class="st15 st16">310</text><text transform="translate(73.592 162.23)" class="st15 st16">20</text><text transform="rotate(-90 118.24 79.198)" class="st15 st16">17</text><text transform="rotate(-90 125.416 103.53)" class="st15 st16">(40.3)</text><text transform="rotate(-90 147.142 108.101)" class="st15 st16">12.5</text><text transform="rotate(-90 203.71 165.519)" class="st15 st16">44</text><text transform="rotate(-90 228.604 190.13)" class="st15 st16">5</text><text transform="translate(60.064 443.221)" class="st15 st16">5</text><text transform="translate(209.083 443.505)" class="st15 st16">150</text><text transform="translate(531.365 443.505)" class="st15 st16">150</text><text transform="translate(759.037 428.034)" class="st15 st17">Not to scale</text><text transform="translate(759.037 446.034)" class="st15 st17">Dimensions in mm</text></g></svg>