<svg xmlns="http://www.w3.org/2000/svg" viewBox="0 0 1374.8 467.7" style="enable-background:new 0 0 1374.8 467.7;background-color:#fff" xml:space="preserve"><style>.st0{fill:none;stroke-width:.4252;stroke-miterlimit:10}.st0,.st1,.st2{stroke:#000;stroke-linecap:round;stroke-linejoin:round}.st1{fill:none;stroke-width:.283;stroke-miterlimit:10}.st10,.st2{stroke-width:.2835;fill:none}.st10{stroke:#000;stroke-linecap:round;stroke-linejoin:round}.st4{stroke-dasharray:.5536,2.7678}.st4,.st5,.st6,.st9{fill:none;stroke:#000;stroke-width:.2835;stroke-linecap:round;stroke-linejoin:round}.st5{stroke-dasharray:8.3033,2.7678,.5536,2.7678}.st6{stroke-dasharray:.7074,3.537}.st9{stroke-dasharray:.6469,3.2347}.st10{stroke-dasharray:9.7041,3.2347,.6469,3.2347}.st11{font-family:Helvetica,Arial,sans-serif}.st12{font-size:14px}.st13{font-size:14.9998px}</style><g id="BCLB-10x100"><path class="st0" d="M71.9 62.4v45.4-.1c0 13.2 10.7 23.8 23.8 23.9h935.5c13.2 0 23.7-10.6 23.7-23.8V62.4c0-13.2-10.6-23.8-23.8-23.8H95.8c-13.1.1-23.9 10.6-23.9 23.8"/><path class="st0" d="M1031.2 34H95.8c-15.7 0-28.4 12.7-28.4 28.3v45.5-.1c0 15.7 12.7 28.3 28.3 28.4h935.5c15.7 0 28.3-12.7 28.4-28.3v.1-45.6c0-15.6-12.7-28.3-28.4-28.3h0z"/><path class="st0" d="M1036.9 54H90.1v62.3h946.8V54m231.5 8.4V34H1155v28.4m113.4 0H1155m0 0v73.7m113.4-28.3v28.3M1155 107.8h113.4m0 28.3H1155m113.4-73.7v45.4m-56.6-31.3c-4.7 0-8.5 3.8-8.5 8.5s3.8 8.5 8.5 8.5 8.5-3.8 8.5-8.5-3.8-8.5-8.5-8.5"/><path class="st0" d="M1211.8 96.4c6.3 0 11.3-5.1 11.3-11.3s-5.1-11.3-11.3-11.3m0-.1c-6.3 0-11.3 5.1-11.3 11.3M95.8 266.3v113.2m856.2-51c0-3.2-2.6-5.9-5.8-5.9-3.2 0-5.9 2.6-5.9 5.8 0 3.2 2.6 5.9 5.8 5.9 3.3 0 5.9-2.6 5.9-5.8m-382.6 0c0-3.2-2.6-5.9-5.8-5.9-3.2 0-5.9 2.6-5.9 5.8 0 3.2 2.6 5.9 5.8 5.9 3.2 0 5.9-2.6 5.9-5.8m-382.7 0c0-3.2-2.6-5.9-5.8-5.9-3.2 0-5.9 2.6-5.9 5.8s2.6 5.9 5.8 5.9c3.3 0 5.9-2.6 5.9-5.8m844.5 51V266.3"/><path class="st0" d="M67.4 266.3h992.2v113.2H67.4zm116.3-.7h0v-9.8m-12.9 0 6.4-.7 6.5.7m-12.9 0v10.5m-5.1 0v-10.5h5.1m-31.4 0 13.3-.7 13 .7m-26.3 0v10.5m0-10.5h-5.1v10.5m-12.9-10.5 6.5-.7 6.4.7m-12.9 0h0v9.8m48.6-45.1h-34.9m37.1 7.2h-39.3m38.2 4.3H134m37.1 5.8H134m41.4 4H130m45.4 5.7H130m41.1 4.4H134m49.7 14.4v-10.5m-62.3 10.5v-10.5m49.7-34.3c-.1-.6-.6-1-1.2-1m-34.7 0c-.6 0-1.1.4-1.2 1m37.1.1 1.1 6.1m-38.2-6.1-1.1 6.1v2.9m39.3 0v-2.9M134 232l-1.1-1.4m38.2 1.4 1.1-1.4m-38.2 7.2V232m41.4 9.8-4.3-4V232m-37.1 5.8-4 4v5.7m45.4 0v-5.7M134 251.9l-4-4.4m41.1 4.4 4.3-4.4m-4.3 6.2v-1.8"/><path class="st0" d="M171.1 253.7c0 .7.6 1.3 1.3 1.3l4.9.2m-43.3-3.3v1.8c0 .7-.6 1.3-1.3 1.3l-4.9.2M1154.3 53.9h0-9.7m0 12.9-.8-6.5.8-6.4m0 12.9h10.4m0 5.1h-10.4v-5.1m0 31.4-.8-13.3.8-13m0 26.3h10.4m-10.4 0v5h10.4m-10.4 13-.8-6.5.8-6.5m0 13h9.7m-45.1-48.6v34.9m7.2-37.1v39.3m4.4-38.2v37.1m5.7-37.1v37.1m4-41.5v45.5m5.8-45.5v45.5m4.3-41.1v37.1m14.4-49.7h-10.4m10.4 62.3h-10.4m-34.3-49.7c-.6.1-1 .6-1 1.2m-.1 34.6c0 .6.4 1.1 1 1.2m.1-37 6.1-1.1m-6.1 38.2 6.1 1.1h2.9m0-39.3h-2.9m4.4 38.2-1.5 1.1m1.5-38.2-1.5-1.1m7.2 38.2h-5.7m9.7-41.5-4 4.4h-5.7m5.7 37.1 4 4h5.8m0-45.5h-5.8m10.1 41.5-4.3 4m4.3-41.1-4.3-4.4m6.1 4.4h-1.8"/><path class="st0" d="M1142.4 66.5c.7 0 1.3-.6 1.3-1.3l.2-4.9m-3.3 43.3h1.8c.7 0 1.3.6 1.3 1.3l.2 4.9"/></g><g id="Dimensions"><path class="st1" d="M1268.4 136h35.3m-91.9-51h91.9m-91.9.1v87.2"/><path class="st2" d="M1260.9 209.7h-144.1"/><path d="m1259.2 207.2 9.2 2.5-9.2 2.4zm-140.7 0-9.3 2.5 9.3 2.4z"/><path class="st2" d="M1260.9 167.2h-41.6"/><path d="m1259.2 164.7 9.2 2.5-9.2 2.4zm-38.2 0-9.2 2.5 9.2 2.4z"/><path class="st2" d="M1302.3 92.6v35.9"/><path d="m1299.9 94.3 2.4-9.3 2.5 9.3zm0 32.5 2.4 9.2 2.5-9.2z"/><path class="st1" d="M1109.2 102.5v113m159.2-79.5v79.5"/><path class="st2" d="m1222.3 73.9 48.5-51.5h99"/><path d="m1225.3 74.3-8.2 5.1 4.6-8.4z"/><path class="st1" d="M92.4 135.3H16.9M95.8 33.8H16.9"/><path class="st2" d="M23.1 127.2V41.4"/><path d="m25.6 125.5-2.5 9.2-2.4-9.2zm0-82.4-2.5-9.3-2.4 9.3z"/><path class="st1" d="M1059.6 379.3v78.8"/><path class="st2" d="M1052.1 452.2H74.9"/><path d="m1050.4 449.7 9.2 2.5-9.2 2.4zm-973.8 0-9.2 2.5 9.2 2.4z"/><path class="st1" d="M67.2 266.3v-79.5m85.3 33.7v-33.7"/><path class="st2" d="M75.3 193H145"/><path d="m77 195.5-9.3-2.5 9.3-2.4zm66.3 0 9.2-2.5-9.2-2.4z"/><path class="st1" d="m547.7 162.8 31.6-70.2"/><path class="st2" d="m190.6 319.2 75.5-78.2h125.3"/><path d="m193.5 319.8-8.2 4.9 4.7-8.4z"/><path class="st1" d="M67.3 380.4v78.8m496.1-130.7V425m-382.6-95.4v95.6m-85-45.7v45.7"/><path class="st2" d="M173.3 419h-69.9"/><path d="m171.6 416.5 9.2 2.5-9.2 2.5zm-66.5 0-9.3 2.5 9.3 2.5z"/><path class="st2" d="M555.8 419H188.3"/><path d="m554.2 416.5 9.2 2.5-9.2 2.5zm-364.3 0-9.2 2.5 9.2 2.5z"/><path class="st1" d="M946.1 328.5V425"/><path class="st2" d="M938.5 419H570.9"/><path d="m936.8 416.5 9.3 2.5-9.3 2.5zm-364.2 0-9.2 2.5 9.2 2.5z"/><path class="st1" d="M67.4 379.2H16.9M67.4 266H16.9"/><path class="st2" d="M23.1 370.7v-97.2"/><path d="m25.5 369-2.4 9.2-2.5-9.2zm0-93.8-2.4-9.2-2.5 9.2z"/><path class="st1" d="M180.7 328.1H45.2"/><path class="st2" d="M51.4 370.7v-34.8"/><path d="m53.9 369-2.5 9.2-2.5-9.2zm0-31.4-2.5-9.2-2.5 9.2z"/><path class="st2" d="M23.1 213.5v-29.6"/><path d="m25.5 211.8-2.4 9.2-2.5-9.2z"/><path class="st1" d="M23.1 265.4V221m110.9-.6H17.5"/></g><g id="Middle_Lines"><path class="st2" d="M152.5 214.8v4.3"/><path class="st4" d="M152.5 221.8v2"/><path class="st5" d="M152.5 225.2v41.7"/><path class="st2" d="M152.5 268.3v4.3m28.4 55.9v-4.3"/><path class="st6" d="M180.9 320.7v-2.5"/><path class="st2" d="M180.9 316.4v-4.2m16.2 16.2h-4.2"/><path style="fill:none;stroke:#000;stroke-width:.2835;stroke-linecap:round;stroke-linejoin:round;stroke-dasharray:.7077,3.5387" d="M189.3 328.4h-2.5"/><path class="st2" d="M185.1 328.4h-4.3m765.3-.2v-4.3"/><path style="fill:none;stroke:#000;stroke-width:.2835;stroke-linecap:round;stroke-linejoin:round;stroke-dasharray:.6814,3.4072" d="M946.1 320.5v-2.3"/><path class="st2" d="M946.1 316.4v-4.2m16.2 16.2h-4.2"/><path class="st9" d="M954.9 328.4h-2.3"/><path class="st10" d="M951 328.4h-15.2"/><path class="st2" d="M934.2 328.4h-4.3m-366.4.1v-4.3"/><path class="st6" d="M563.5 320.7v-2.5"/><path class="st2" d="M563.5 316.4v-4.2m16.2 16.2h-4.2"/><path class="st9" d="M572.2 328.4H570"/><path class="st10" d="M568.4 328.4h-15.2"/><path class="st2" d="M551.5 328.4h-4.2M1097.2 85h4.3"/><path class="st4" d="M1104.3 85h1.9"/><path class="st5" d="M1107.6 85h41.8"/><path class="st2" d="M1150.8 85h4.2m56.8 16.3V97"/><path class="st9" d="M1211.8 93.8v-2.3"/><path class="st10" d="M1211.8 89.9V74.7"/><path class="st2" d="M1211.8 73.1v-4.3M1228 85h-4.2"/><path class="st9" d="M1220.5 85h-2.2"/><path class="st10" d="M1216.7 85h-15.2"/><path class="st2" d="M1199.8 85h-4.2"/></g><g id="Text_1_"><text transform="translate(1180.213 204.757)" class="st11 st12">(28)</text><text transform="translate(1231.412 161.982)" class="st11 st12">10</text><text transform="rotate(-90 703.567 -591.357)" class="st11 st12">9</text><text transform="rotate(-90 54.838 37.16)" class="st11 st12">18</text><text transform="translate(1276.54 17.678)" class="st11 st12">2 × M4, 5 deep</text><text transform="translate(551.826 446.727)" class="st11 st12">175</text><text transform="translate(102.333 187.584)" class="st11 st12">15</text><text transform="translate(488.4 187.752)" class="st11 st12">10 x 165 (Luminous area)</text><text transform="translate(271.777 236.33)" class="st11 st12">6 × M2.5, 3.5 deep</text><text transform="translate(371.408 413.572)" class="st11 st12">70</text><text transform="translate(754.087 413.572)" class="st11 st12">70</text><text transform="translate(124.716 413.572)" class="st11 st12">12.5</text><text transform="rotate(-90 132.399 114.784)" class="st11 st12">8</text><text transform="rotate(-90 173.724 156.11)" class="st11 st12">20</text><text transform="rotate(-90 204.55 159.334)" class="st11 st12">9.1</text><text transform="translate(1228.023 437.895)" class="st11 st13">Not to scale</text><text transform="translate(1228.023 455.895)" class="st11 st13">Dimensions in mm</text></g></svg>