<svg version="1.1" id="Ebene_1" xmlns="http://www.w3.org/2000/svg" xmlns:xlink="http://www.w3.org/1999/xlink" x="0" y="0" viewBox="0 0 1133.9 595.3" style="background-color:#fff" xml:space="preserve"><style>.st1{fill:none;stroke:#000;stroke-width:.425;stroke-linecap:round;stroke-linejoin:round;clip-path:url(#SVGID_2_)}.st1,.st2{stroke-miterlimit:10}.st2,.st3,.st4,.st5,.st6,.st7{fill:none;stroke:#000;stroke-width:.283;stroke-linecap:round;stroke-linejoin:round}.st4{stroke-dasharray:.383,1.915}.st5{stroke-dasharray:5.746,1.915,.383,1.915}.st6{stroke-dasharray:.544,2.72}.st7{stroke-dasharray:8.159,2.72,.544,2.72}.st16{font-family:Helvetica,Arial,sans-serif}.st17{font-size:19.9998px}.st18{font-size:19.9994px}.st20{font-size:19.9996px}</style><path d="M566.2 70.8h34m-34 14.2v340m0 0h34m0-340v340m0-340h-34m34 354.2h-34m34-354.2V70.8m0 368.4V425m-34 14.2V425m0-340V70.8" stroke-miterlimit="10" fill="none" stroke="#000" stroke-width=".425" stroke-linecap="round" stroke-linejoin="round"/><defs><path id="SVGID_1_" d="M0 0h1133.9v595.3H0z"/></defs><clipPath id="SVGID_2_"><use xlink:href="#SVGID_1_" overflow="visible"/></clipPath><path class="st1" d="M231.8 422.5c-2.3-1.1-5-1-7.3.1s-4 3.2-4.6 5.7m-113-.4c3.1 0 5.7-2.5 5.7-5.7 0-3.1-2.5-5.7-5.7-5.7-3.1 0-5.7 2.5-5.7 5.7 0 3.1 2.6 5.7 5.7 5.7m0-333c3.9 0 7.1-3.2 7.1-7.1 0-3.9-3.2-7.1-7.1-7.1-3.9 0-7.1 3.2-7.1 7.1m106.3 7.1c3.9 0 7.1-3.2 7.1-7.1 0-3.9-3.2-7.1-7.1-7.1-3.9 0-7.1 3.2-7.1 7.1"/><path class="st1" d="M106.9 93.4c3.1 0 5.7-2.5 5.7-5.7 0-3.1-2.5-5.7-5.7-5.7-3.1 0-5.7 2.5-5.7 5.7s2.6 5.7 5.7 5.7m99.2 0c3.1 0 5.7-2.5 5.7-5.7 0-3.1-2.5-5.7-5.7-5.7-3.1 0-5.7 2.5-5.7 5.7s2.5 5.7 5.7 5.7m0 334.5c3.1 0 5.7-2.5 5.7-5.7 0-3.1-2.5-5.7-5.7-5.7-3.1 0-5.7 2.5-5.7 5.7 0 3.1 2.5 5.7 5.7 5.7m25.6-5.3c77.3 35.3 168.8 13.1 221.3-53.7s52.6-160.9 0-227.7c-52.5-66.8-143.9-89.1-221.3-53.8m-25.5-16.6H107M92.8 85v340m14.2 14.2h99.2"/><path class="st1" d="M219.9 81.7c.6 2.5 2.3 4.6 4.6 5.7 2.3 1.1 5 1.2 7.3.1m-12-5.9c-1.5-6.4-7.2-10.8-13.7-10.8m-99.2 0c-7.8 0-14.1 6.3-14.1 14.1m0 340.2c0 7.8 6.3 14.1 14.1 14.1m99.2 0c6.5 0 12.2-4.5 13.7-10.8M379 255c0-39.1-31.7-70.8-70.8-70.8-39.1 0-70.8 31.7-70.8 70.8 0 39.1 31.7 70.8 70.8 70.8S379 294.1 379 255"/><path class="st1" d="M201.3 401.5c75.1 54.7 179.3 43.9 241.5-25.1 62.2-69 62.2-173.8 0-242.8s-166.5-79.9-241.5-25.2M95.6 386.2c0 7.5 6.1 13.6 13.6 13.6m-.1 0h86.8m5.5 1.7c-1.6-1.1-3.4-1.7-5.4-1.7m0-289.6c1.9 0 3.8-.6 5.4-1.7m-5.5 1.7h-86.7m0 0c-7.5 0-13.6 6.1-13.6 13.6m0-.1v262.6m833 42c-.6-2.5-2.3-4.6-4.6-5.7-2.3-1.1-5.1-1.1-7.4 0"/><path class="st1" d="M916.7 87.4c-77.3-35.3-168.8-13.1-221.3 53.7s-52.5 160.9 0 227.7c52.5 66.8 143.9 89 221.3 53.8"/><path class="st1" d="M840.2 325.8c39.1 0 70.8-31.7 70.8-70.8 0-39.1-31.7-70.8-70.8-70.8-39.1 0-70.8 31.7-70.8 70.8 0 39.1 31.7 70.8 70.8 70.8m102.2-255h99.2m14.2 14.2v340m-14.3 14.2h-99.1m-.1-368.4c-6.5 0-12.2 4.5-13.7 10.8m-11.8 5.8c2.3 1.1 5 1 7.3-.1s4-3.2 4.6-5.7m-.1 346.7c1.5 6.4 7.2 10.9 13.7 10.9m99.2 0c7.8 0 14.3-6.4 14.3-14.2m0-340c0-7.8-6.5-14.2-14.3-14.2M106.9 429.3c3.9 0 7.1-3.2 7.1-7.1s-3.2-7.1-7.1-7.1c-3.9 0-7.1 3.2-7.1 7.1m106.3 7.1c3.9 0 7.1-3.2 7.1-7.1 0-3.9-3.2-7.1-7.1-7.1-3.9 0-7.1 3.2-7.1 7.1m743.3 5.7c3.1 0 5.7-2.5 5.7-5.7 0-3.1-2.5-5.7-5.7-5.7-3.1 0-5.7 2.5-5.7 5.7s2.6 5.7 5.7 5.7m0-333c3.9 0 7.1-3.2 7.1-7.1 0-3.9-3.2-7.1-7.1-7.1-3.9 0-7.1 3.2-7.1 7.1m106.3 7.1c3.9 0 7.1-3.2 7.1-7.1 0-3.9-3.2-7.1-7.1-7.1-3.9 0-7.1 3.2-7.1 7.1"/><path class="st1" d="M942.3 93.5c3.1 0 5.7-2.5 5.7-5.7 0-3.1-2.5-5.7-5.7-5.7-3.1 0-5.7 2.5-5.7 5.7s2.6 5.7 5.7 5.7m99.2 0c3.1 0 5.7-2.5 5.7-5.7 0-3.1-2.5-5.7-5.7-5.7-3.1 0-5.7 2.5-5.7 5.7 0 3.1 2.6 5.7 5.7 5.7m0 334.4c3.1 0 5.7-2.5 5.7-5.7 0-3.1-2.5-5.7-5.7-5.7-3.1 0-5.7 2.5-5.7 5.7s2.6 5.7 5.7 5.7m-99.2 1.4c3.9 0 7.1-3.2 7.1-7.1 0-3.9-3.2-7.1-7.1-7.1-3.9 0-7.1 3.2-7.1 7.1"/><path class="st1" d="M1041.5 429.3c3.9 0 7.1-3.2 7.1-7.1 0-3.9-3.2-7.1-7.1-7.1-3.9 0-7.1 3.2-7.1 7.1m-3.1-50.3c0 .7.6 1.3 1.3 1.3.7 0 1.3-.6 1.3-1.3 0-.7-.6-1.3-1.3-1.3-.7.1-1.3.6-1.3 1.3m-10.9 0c0 .7.6 1.3 1.3 1.3.7 0 1.3-.6 1.3-1.3 0-.7-.6-1.3-1.3-1.3-.7.1-1.3.6-1.3 1.3m9.1 6.6c0 .7.6 1.3 1.3 1.3.7 0 1.3-.6 1.3-1.3 0-.7-.6-1.3-1.3-1.3-.7 0-1.3.6-1.3 1.3m-6.9 0c0 .7.6 1.3 1.3 1.3.7 0 1.3-.6 1.3-1.3s-.6-1.3-1.3-1.3c-.7 0-1.3.6-1.3 1.3"/><path class="st1" d="M1027.2 363.8c-5.5 0-10 4.5-10 10s4.5 10 10 10 10-4.5 10-10c-.1-5.6-4.5-10-10-10"/><path class="st1" d="M1040 373.8c0-7.1-5.8-12.9-12.9-12.9-7.1 0-12.9 5.8-12.9 12.9 0 7.1 5.8 12.9 12.9 12.9 7.2-.1 12.9-5.8 12.9-12.9m-26.8-6.4v13.1m0 0c.4.9.9 1.7 1.5 2.5m-.1 0l11.3 6.6m0 0c1 .1 1.9.1 2.9 0m11.2-6.6l-11.2 6.6m11.2-6.6c.6-.8 1.1-1.8 1.5-2.7m0-12.9v12.9m0-12.9c-.4-.9-.9-1.7-1.5-2.5"/><path class="st1" d="M1014.6 364.9l11.3-6.6h2.9l11.2 6.6m-25.4 0c-.6.8-1 1.6-1.5 2.5m-447.3-8.9H561m0 6.4l-.4-3.2.4-3.2m0 6.4h5.2m0 2.5H561v-2.5m0 15.6l-.4-6.6.4-6.5m0 13.1h5.2m-5.2 0v2.5h5.2m-5.2 6.4l-.4-3.2.4-3.2m0 6.4h4.8m-22.3-24.1v17.3m3.6-18.4v19.5m2.1-18.9v18.4m2.9-18.4v18.4m1.9-20.6v22.5m2.9-22.5v22.5m2.1-20.3v18.4m7.2-24.7H561m5.2 30.9H561m-17-24.6c-.3.1-.5.3-.5.6m0 17.1c0 .3.2.6.5.6m0-18.3l3.1-.6m-3.1 19l3.1.5h1.4m0-19.5h-1.4m2.1 19l-.7.5m.7-18.9l-.7-.6m3.6 19h-2.9m4.8-20.6l-1.9 2.2h-2.9m2.9 18.4l1.9 1.9h2.9m0-22.5H554m5 20.6l-2.1 1.9m2.1-20.3l-2.1-2.2m3 2.2h-.9m.9 0c.3 0 .6-.3.6-.6l.1-2.4m-1.6 21.4h.9c.3 0 .6.3.6.6l.1 2.4"/><path class="st2" d="M332.5 321.5l12.9 176.4"/><path class="st3" d="M29.7 81.1v348.7"/><path d="M26.4 83.3l3.3-12.2 3.2 12.2zm0 344.3l3.3 12.3 3.2-12.3z"/><path class="st2" d="M104 439.3H24.4M107 70.6H24.4"/><path class="st3" d="M63.7 98.1v309"/><path d="M60.4 100.4l3.3-12.3 3.3 12.3zm0 304.5l3.3 12.3 3.3-12.3z"/><path class="st2" d="M115.4 422.1H58.5m48.4-334.5H58.5"/><path class="st3" d="M102.7 529.1h195.1"/><path d="M105 532.4l-12.3-3.3 12.3-3.3zm190.6 0l12.3-3.3-12.3-3.3z"/><path class="st2" d="M308 255v279.3"/><path class="st3" d="M102.7 571.6h379.4"/><path d="M105 574.9l-12.3-3.3 12.3-3.3zm374.8 0l12.3-3.3-12.3-3.3z"/><path class="st2" d="M492.1 255.5v248.7m0 32.3v40.3"/><path class="st3" d="M116.3 76.5l32.5-43.4h75.6"/><path d="M119.3 76.6l-7.5 5.9 3.5-8.8z"/><path class="st2" d="M63.7 415.8v23.7"/><path class="st3" d="M63.7 449.4v54.2"/><path d="M60.4 451.6l3.3-12.3 3.3 12.3z"/><path class="st2" d="M107 421.8v70.6m99.2-69.9v69.9M92.8 415.6v161.2m13.4-89.6H91m-29.9 0H33.7"/><path class="st3" d="M82.8 487.2H66.2"/><path d="M80.6 483.9l12.3 3.3-12.3 3.3z"/><path class="st3" d="M116.8 487.2h79.3"/><path d="M119.1 490.5l-12.3-3.3 12.3-3.3zm74.8 0l12.3-3.3-12.3-3.3z"/><path class="st2" d="M566.2 421.8v70.6m34-52.9v52.9m-56.7-110.8v110.8m21.9-5.2h-23.7m98.7 0h-39.7"/><path class="st3" d="M533.5 487.2h-16.6"/><path d="M531.3 483.9l12.3 3.3-12.3 3.3z"/><path class="st3" d="M576 487.2h14.2"/><path d="M578.3 490.5l-12.3-3.3 12.3-3.3zm9.6 0l12.3-3.3-12.3-3.3z"/><path class="st2" d="M1055.7 425v67.4m-28.5-118.5v118.5"/><path class="st3" d="M992.1 487.2h24.2"/><path d="M1014.1 490.5l12.2-3.3-12.2-3.3z"/><path class="st3" d="M1065.8 487.2h24.2"/><path d="M1068 490.5l-12.3-3.3 12.3-3.3z"/><path class="st2" d="M1027.1 487.2h28.6M1027.1 374h84.5m-118.5 65.3h118.5"/><path class="st3" d="M1106.4 473.4v-24.1"/><path d="M1109.7 451.5l-3.3-12.3-3.3 12.3z"/><path class="st3" d="M1106.4 363.6v-24.1"/><path d="M1109.7 361.4l-3.3 12.3-3.3-12.3z"/><path class="st2" d="M1106.4 439.5v-65.8"/><path class="st3" d="M445.4 117.5l14-13.9h62.1"/><path d="M449.4 118.3l-11.1 6.4 6.4-11.1z"/><path class="st3" d="M106.9 99.1v-4.2"/><path class="st4" d="M106.9 92.9v-1.3"/><path class="st5" d="M106.9 90.6v-9"/><path class="st3" d="M106.9 80.7v-4.3m11.3 11.4H114"/><path class="st4" d="M112.1 87.8h-1.4"/><path class="st5" d="M109.8 87.8h-9"/><path class="st3" d="M99.8 87.8h-4.2m744.6 245.1v-4.2"/><path class="st6" d="M840.2 326v-1.9"/><path class="st7" d="M840.2 322.7V182.6"/><path class="st3" d="M840.2 181.3V177m78 78h-4.3"/><path class="st6" d="M911.2 255h-1.9"/><path class="st7" d="M907.9 255h-140"/><path class="st3" d="M766.5 255h-4.2M206.1 99.1v-4.2"/><path class="st4" d="M206.1 92.9v-1.3"/><path class="st5" d="M206.1 90.6v-9"/><path class="st3" d="M206.1 80.7v-4.3m11.3 11.4h-4.2"/><path class="st4" d="M211.3 87.8h-1.4"/><path class="st5" d="M209 87.8h-9"/><path class="st3" d="M199 87.8h-4.3m-87.8 345.7v-4.2"/><path class="st4" d="M106.9 427.4V426"/><path class="st5" d="M106.9 425.1v-9"/><path class="st3" d="M106.9 415.1v-4.2m11.3 11.3H114"/><path class="st4" d="M112.1 422.2h-1.4"/><path class="st5" d="M109.8 422.2h-9"/><path class="st3" d="M99.8 422.2h-4.2m110.5 11.3v-4.2"/><path class="st4" d="M206.1 427.4V426"/><path class="st5" d="M206.1 425.1v-9"/><path class="st3" d="M206.1 415.1v-4.2m11.3 11.3h-4.2"/><path class="st4" d="M211.3 422.2h-1.4"/><path class="st5" d="M209 422.2h-9"/><path class="st3" d="M199 422.2h-4.3m113.4-89.3v-4.2"/><path class="st6" d="M308.1 326v-1.9"/><path class="st7" d="M308.1 322.7V182.6"/><path class="st3" d="M308.1 181.3V177m78 78h-4.3"/><path class="st6" d="M379.1 255h-1.9"/><path class="st7" d="M375.9 255H235.8"/><path class="st3" d="M234.4 255h-4.2M942.3 99.1v-4.2"/><path class="st4" d="M942.3 93v-1.4"/><path class="st5" d="M942.3 90.7v-9"/><path class="st3" d="M942.3 80.7v-4.2m11.3 11.3h-4.2"/><path class="st4" d="M947.5 87.8h-1.4"/><path class="st5" d="M945.2 87.8h-9"/><path class="st3" d="M935.2 87.8H931m110.5 11.3v-4.2"/><path class="st4" d="M1041.5 93v-1.4"/><path class="st5" d="M1041.5 90.7v-9"/><path class="st3" d="M1041.5 80.7v-4.2m11.3 11.3h-4.2"/><path class="st4" d="M1046.7 87.8h-1.4"/><path class="st5" d="M1044.4 87.8h-9"/><path class="st3" d="M1034.4 87.8h-4.2m-87.9 345.8v-4.3"/><path class="st4" d="M942.3 427.4v-1.3"/><path class="st5" d="M942.3 425.1v-9"/><path class="st3" d="M942.3 415.2v-4.3m11.3 11.3h-4.2"/><path class="st4" d="M947.5 422.2h-1.4"/><path class="st5" d="M945.2 422.2h-9"/><path class="st3" d="M935.2 422.2H931m110.5 11.4v-4.3"/><path class="st4" d="M1041.5 427.4v-1.3"/><path class="st5" d="M1041.5 425.1v-9"/><path class="st3" d="M1041.5 415.2v-4.3m11.3 11.3h-4.2"/><path class="st4" d="M1046.7 422.2h-1.4"/><path class="st5" d="M1044.4 422.2h-9"/><path class="st3" d="M1034.4 422.2h-4.2m-3-28.4v-4.2"/><path fill="none" stroke="#000" stroke-width=".283" stroke-linecap="round" stroke-linejoin="round" stroke-dasharray=".45,2.25" d="M1027.2 387.3v-1.6"/><path fill="none" stroke="#000" stroke-width=".283" stroke-linecap="round" stroke-linejoin="round" stroke-dasharray="6.749,2.25,.45,2.25" d="M1027.2 384.6v-22.3"/><path class="st3" d="M1027.2 361.2V357m20 17h-4.3"/><path fill="none" stroke="#000" stroke-width=".283" stroke-linecap="round" stroke-linejoin="round" stroke-dasharray=".495,2.475" d="M1040.5 374h-1.8"/><path fill="none" stroke="#000" stroke-width=".283" stroke-linecap="round" stroke-linejoin="round" stroke-dasharray="7.424,2.475,.495,2.475" d="M1037.5 374H1013"/><path class="st3" d="M1011.8 374h-4.3m-435.7 0h-4.2"/><path fill="none" stroke="#000" stroke-width=".283" stroke-linecap="round" stroke-linejoin="round" stroke-dasharray=".733,3.664" d="M563.9 374h-2.6"/><path fill="none" stroke="#000" stroke-width=".283" stroke-linecap="round" stroke-linejoin="round" stroke-dasharray="10.992,3.664,.733,3.664" d="M559.5 374h-17.2"/><path class="st3" d="M540.5 374h-4.3M308 255l3-3"/><path fill="none" stroke="#000" stroke-width=".283" stroke-linecap="round" stroke-linejoin="round" stroke-dasharray=".544,2.722" d="M312.9 250.1l1.4-1.4"/><path fill="none" stroke="#000" stroke-width=".283" stroke-linecap="round" stroke-linejoin="round" stroke-dasharray="8.165,2.722,.544,2.722" d="M315.2 247.7l119.2-119.1"/><path class="st3" d="M435.3 127.7l3-3.1"/><text transform="translate(353.866 524.474)" class="st16 st17">Ø 50 (Luminous area)</text><text transform="rotate(-90 147.404 124.648)" class="st16 st18">130</text><text transform="rotate(-90 164.044 107.268)"><tspan x="0" y="0" class="st16 st18" letter-spacing="-1">1</tspan><tspan x="9.6" y="0" class="st16 st18">18</tspan></text><text transform="translate(189.08 521.635)" class="st16 st18">76</text><text transform="translate(275.637 564.155)" class="st16 st18">141</text><text transform="translate(71.063 481.476)" class="st16 st18">5</text><text transform="translate(141.3 481.476)" class="st16 st18">35</text><text transform="translate(549.849 481.476)" class="st16 st18">8</text><text transform="translate(611.407 481.476)" class="st16 st18">12</text><text transform="translate(1028.814 481.476)" class="st16 st18">10</text><text transform="rotate(-90 759.231 -341.456)" class="st16 st18">23</text><text transform="rotate(-90 245.02 188.254)" class="st16 st18">6</text><text transform="translate(155.556 22.745)" class="st16 st20">4</text><text transform="translate(172.235 22.745)" class="st16 st20">× M5</text><text transform="translate(468.97 93.344)" class="st16 st20">Ø</text><text transform="translate(484.53 93.344)" class="st16 st20">130</text><defs><path id="SVGID_3_" d="M-1 0h1133.9v595.3H-1z"/></defs><clipPath id="SVGID_4_"><use xlink:href="#SVGID_3_" overflow="visible"/></clipPath><g clip-path="url(#SVGID_4_)"><text transform="translate(953.65 556.624)"><tspan x="0" y="0" class="st16 st17">Not to scale </tspan><tspan x="0" y="24" class="st16 st17">Dimensions in mm</tspan></text></g></svg>