<svg xmlns="http://www.w3.org/2000/svg" viewBox="0 0 524.4 198.4" style="enable-background:new 0 0 524.4 198.4;background-color:#fff" xml:space="preserve"><style>.st0{stroke-miterlimit:10}.st0,.st1,.st2,.st3{fill:none;stroke:#000;stroke-width:.2835;stroke-linecap:round;stroke-linejoin:round}.st2{stroke-dasharray:.5243,5.243}.st3{stroke-dasharray:26.215,5.243,.5243,5.243}.st6{font-family:Helvetica,Arial,sans-serif}.st7{font-size:8.9176px}.st8{font-size:8.9175px}.st9{font-size:9.1477px}</style><g id="lens"><path class="st0" d="M55.1 111.8h0m7.2 0-7.2-7.2m14.5 7.2L55.2 97.4M77 111.8 55.2 90m29 21.8-28.9-29m36.2 29L55.3 75.6m43.6 36.2L55.4 68.4m50.7 43.4L53.3 59.1m.6-1.9-.6-.5m60.1 55.1L53.2 51.6m-.8-.7-2.2-2.3m70.6 63.2L57.5 48.6m70.5 63.2L64.8 48.6m70.5 63.2L75.7 52.2m67 59.6L83 52.2m66.9 59.6L90.3 52.2m66.9 59.6L97.6 52.2M155.5 81l-29.6-29.6m60.4 60.4-20.1-20.2m27.5 20.2-60.6-60.4m67.9 60.4-60.5-60.4m67.7 60.4-60.4-60.4m67.8 60.4L155 51.4m67.9 60.4-59.6-59.6m66.8 59.6-59.5-59.6m66.9 59.6-59.6-59.6m66.8 59.6-59.5-59.5m66.8 59.5-59.6-59.6m67 59.6-59.6-59.6m66.8 59.6-51.4-51.5m-.3-.2-2.4-2.4m57.4 50.1-32.1-32.1m-.4-.5-14.9-14.9m47.1 39.9-24.4-24.5m-3.7-3.7-1.9-1.7m-6.3-6.3-3.5-3.7m39.2 32-16.6-16.6M268 84l-8.3-8.3m11.6 4.4-4.2-4.4m-102.7 36.1-38.3-38.4m0 0-21.2-21.2m66.9 59.6-41.1-41m0 0-18.5-18.6m39 31.8-13.1-13.1m41 40.9L160.2 93m-22.1-22.2-18.6-18.6m-64.4 64 2.5-4.4m-2.4 14.6 8.3-14.6m-8.3 24.8 14.3-24.8m-14.2 34.9 20.2-34.9M53.6 160l.8-1.4m1-1.7 26-45.1M50.8 175l1.4-2.2m1-1.8 34.2-59.2M56.8 175l36.6-63.2M62.7 175l36.6-63.2m-28.4 59.6 34.4-59.6m-28.5 59.6 34.4-59.6m-28.5 59.6 34.5-59.6m-28.5 59.6 34.4-59.6m-28.5 59.6 34.4-59.6m-10.5 59.6 34.4-59.6M124 172.4l34.8-60.6m-2.4 14.6 8.4-14.6m-34.9 60.6 19.3-33.6m13.2-12.4 8.3-14.6m-34.8 60.6 19.8-34.4m12.6-11.6 8.4-14.6m-34.8 60.6 19.3-33.6m-13.4 33.6 34.9-60.6m-29 60.6 34.9-60.6m-28.4 59.6 34.4-59.6m-28.4 59.6 34.4-59.6m-28.5 59.6 34.4-59.6m-28.4 59.6 34.4-59.6M180 171.4l.8-1.2m2.9 1.8 34.7-60.2m-33.3 68.1 2.6-4.6m2.5-4.3 34.2-59.2M196 171.4l34.4-59.6m-31.9 65.5 1.1-2m.7-1.1 36-62.4M203 179.9l2.7-4.6m5.3-9.5 31.3-54m-23.7 51.5 29.7-51.5M225 162.5v-.2m.6-.8 7.5-13.1m.2-.5 20.9-36.1m-23.8 51.5 2.7-4.7m4.4-7.5 1.5-2.7m.3-.5 20.9-36.1m-14.9 36.1 20.8-36.1m-14.9 36.1 20.9-36.1m-14.9 36.1 19.4-33.6m-13.4 33.6 12.9-22.4m-7 22.4 5.8-9.9m-1.9 9.9 2.9-4.8m1.1 4.8 2.3-4m-178.7 27.5 21.4-37m0 0 13-22.6m-28.5 59.6 21.5-37m0 0 12.9-22.6m-28.4 59.6 21.4-37m0 0 13-22.6M238 71.9l-.3-.2h-.9l-.5.2"/><path class="st0" d="m238 71.9.2.6h-1.9v-.6"/><path class="st0" d="M239.2 71v1.6H235v-3.2h-.8l-.3.2"/><path class="st0" d="m268.2 80.8 4.7-1.1v-1.5l.3-.3v-1.3l-.9-.9h-40.9v-1.5l1 1h8.5l.6-.5v-3.6l-.4-.1m-7.8-1.5c0 .2 0 .3.2.3.1.1.3-.1.4-.2m-.6-7.1v-1.6l-.5-.6h-6.3l-.9 1v1h-.6v-1l-.8-1h-9.3v-2.1l-.5-.5h-7.1v-4.9l-.6-.6h-16l-.5.6v1.4h-.2v-1.4l-.6-.6h-1.2v.1h-5.4v-.1h-1.3l-.5.6v1.4h-.2v-1.4l-.5-.6H158l-.9-.8h-36.6l-.9.8h-8.7l-.6.6v1.4h-.1v-1.4l-.6-.6H68.7L65 48.6H47.8l-.9 1v2.1l.5.5h3.4l.6-.5v-.8h1.8v4.9l.1.2v1.2h1.5V59h-1.5v1.2l.3.3v1h1.2v1.7h-1.2v1l1.2 1.3h.6m0 0-.3 23.2v23.1m214.9.1c0-10.4-.8-20.8-2.4-31.1m-.1 0h.7m-34.9-13.5v-4.8m0 7v-2.2m5.9 3.7v-.7m0 0h.8l1.1.7m.4 4.7v-1m31.7 37.1V77.9m-1.6 33.9v-.9h1.6M53.6 63.2v-1.7m-.3-2.5v-1.8m134.9-5h-5.4M53.6 111.8h-.3m-5.9 0h-.5V51.7"/><path class="st0" d="M47.4 111.8h3.4V52.2m0 59.6h.6V51.7m0 60.1h1.8m1.6 0h-1.2V64.2m1.2 47.6h.3m178.2 44.5v-2.1m-22.4 11.6h1.6l.2-.2v-.7l-.2-.1h.7v1.3h1.2l.5-.6v-2.2h9.3l.8-.9v-.9h.6v.9l.9.9h6.3l.5-.6v-1.6m.7-7.1c-.1-.1-.3-.1-.4-.1-.1.1-.2.2-.2.4m8.1-2.7V149l-.6-.6h-8.5l-1 1v-1.5H279l.9-.9v-1.2l-.3-.4v-1.5l-4.7-1h-.7"/><path class="st0" d="m233.9 154 .3.2h.8v-3.1h4.2v.5m35-8.6c1.6-10.3 2.4-20.7 2.4-31.1m-221.5-.1V135l.3 23.1m150 17.2h-2v-.8h.5v-3.1h2.8l.6-.5v-4.8h.4v-1.3h.7l-.3.1v.7l.3.2h1.4v-.5h1.1v.5m-12.1 13.9.3.2h6l.3-.2m-150-21.6h-.6l-1.2 1.3v1h1.2v1.8h-1.2v1l-.3.2v1.3h1.5v1.7h-1.5v1.3l-.1.2v4.9h-1.8v-.9l-.6-.5h-3.4l-.5.5v2.2l.9.9H65l3.7-3.6h40.9l.6-.5v-1.3h.1v1.3l.6.5h8.7l.9 1h36.6l.9-1h22.3l.5-.5v-1.3h.2v1.3l.5.5h2.2v3.1h.5v.8h-2v4.4l.2.2h6.1l.4-.2v-4.4h-2.1v-.8h.5v-3.1h2.1l.6-.5v-1.3h.2v1.3l.5.5h9.6v3.1h.5v.8h-2m-151.9-3.4v-60.1m3.9 59.6v-59.6"/><path class="st0" d="M51.4 171.9v-60.1h-.6m2.5 0h-.1m.1 54.6v-1.7m.3-2.5v-1.8m0-1v-47.6m223.1 0h3.2m0 .9h-1.6v-.9m1.6 34v-34m-47.5 36.6v-.5m8.5.5v-.5m.6 1.1v-1.1m0 4.6v-.9m-2.3 1.7v-1.7m-5.9 9.5v-4.8m-23.5 9.5h1.1m-12.1 13.9-.3-.3m6.9.3.3-.3m2-13.3.2-.2h5l.3.2m-31 13.6-.3-.3m7 .2.2-.2m-18.4-8h2.3m-6 0h0m72.2-18.1h.8l1.5-.8m-59.6 22.8v4.1m7.2 0v-4.1h-.2m-6.7 0h-.3m16.6 0v4.1m7.2 0v-4.1h-.3m-6.6 0h-.3M55.1 111.8h221.6m204-9.7-.2-3.7m-1 .8s0 0 0 0m1-.8c0-.2-.2-.4-.4-.4m-.6.1h.6m-.5 0s-.1 0 0 0m-5.3 46.6c3-2.4 5.8-5.2 8.3-8.3m2.3-31.5c1.1.5 2.5.2 3.3-.8.8-1 .8-2.4 0-3.3-.8-1-2.1-1.3-3.3-.8m0 0c-.9.4-1.5 1.4-1.5 2.4s.6 2 1.5 2.4"/><path class="st0" d="M442.2 151.7c26.8-1 47.9-23.3 47.4-50.1s-22.4-48.3-49.2-48.3m1.9 100v-1.6"/><path class="st0" d="M484.9 100c-1.3-23.6-20.8-42.1-44.5-42.1m0 89.1c23.6 0 43.2-18.5 44.5-42.1m-42.7 43.9c0-1-.8-1.8-1.8-1.8"/><path class="st0" d="M457.2 64.5c-5.3-2.3-11-3.6-16.8-3.6m16.7 4.4.2-.8m-16.9 75.1c20.5 0 37.1-16.6 37.1-37.1s-16.6-37.1-37.1-37.1"/><path class="st0" d="M440.4 141.8c7.6 0 15-2.2 21.4-6.3m2.5-.2c-.7-.5-1.7-.5-2.4 0m17.8-34.9c0 .9.6 1.7 1.4 2m-1.5-2c-.7-14-8.9-26.6-21.4-32.9m-1.1-2.2c0 .9.4 1.7 1.2 2.1m-16 86.5v-.6m-1.9.6h1.8m-1.8-7v.1m1.9 1.9v2.8m-1.9-22.9c14.5 0 26.3-11.8 26.3-26.3s-11.8-26.3-26.3-26.3m.9-1.5h-.9m0 55.6h.9"/><path class="st0" d="M441.3 130.3c15-.5 26.9-12.8 26.9-27.8s-11.9-27.3-26.9-27.8m0-2h-.9m0 59.5h.9"/><path class="st0" d="M441.3 132.3c16.1-.5 29-13.7 29-29.9 0-16.1-12.8-29.4-29-29.9"/><path class="st0" d="M440.4 135c18 0 32.5-14.5 32.5-32.5S458.4 70 440.4 70"/><path class="st0" d="M440.4 155.7c29.4 0 53.3-23.8 53.3-53.3 0-29.4-23.8-53.3-53.3-53.3m5.8-.5c-1.9-.2-3.9-.3-5.8-.3m0 108.4c2 0 3.9-.1 5.8-.3"/><path class="st0" d="m446.3 156.3.3-.6.8-.4.8.2.5.5"/><path class="st0" d="M448.7 156c3.9-.6 7.6-1.6 11.3-3m.1 0 .2-.7.6-.6.8-.1.6.4"/><path class="st0" d="M462.3 152c3.6-1.6 7-3.5 10.1-5.8m0-.1v-.7l.5-.7.8-.2.7.1m8.2-8.2-.1-.7.3-.8.6-.5h.7m0 .1c2.3-3.2 4.3-6.5 5.8-10.1m.1-.1-.4-.7.1-.8.6-.5.6-.3m0 .1c1.4-3.6 2.4-7.4 3-11.3m.1-.1-.5-.5-.2-.8.3-.8.7-.3m-.1 0c.4-3.9.4-7.8 0-11.7m.1 0-.7-.4-.3-.8.2-.8.5-.4m-.1 0c-.6-3.9-1.6-7.6-3-11.3m0-.1-.6-.1-.6-.7-.1-.8.4-.7"/><path class="st0" d="M490 80.6c-1.6-3.6-3.5-7-5.8-10.1m-.1-.1h-.7l-.6-.4-.3-.8.1-.7m0 0c-2.4-3-5.2-5.8-8.3-8.3"/><path class="st0" d="m474.4 60.2-.7.1-.8-.2-.5-.7v-.7m0 .1c-3.2-2.3-6.5-4.3-10.1-5.8m0-.1-.6.3-.8-.1-.6-.5-.2-.6m-.1 0c-3.6-1.4-7.4-2.4-11.3-3m0-.1-.5.4-.8.3-.8-.4-.3-.7"/><path class="st0" d="M440.4 159c31.2 0 56.5-25.3 56.5-56.5S471.6 46 440.4 46m23.9 89.3.6.7"/><path class="st0" d="M464.9 136.1c10.7-7.8 17-20.2 17.1-33.5m-.9-.2.9.1m4.3.4v1h-.5v-1m0-.1c0-.1-.1-.2-.2-.2m0 .1h-1.1v-.5h1.1m.1 0c.1 0 .2-.1.2-.2"/><path class="st0" d="M485.8 102.1v-1.2h.5v1.2m0-.1c0 .1.1.2.2.2m-.1 0h1.2v.5h-1.2m.1 0c-.1 0-.2.1-.2.2m-44.9-28.2v-2.1m0 59.8v-2.2M386 104.3v-3.7m-5.4 4.9v-6.2m-2 6.2v-6.2m19.6 37.1c2.4 3 5.2 5.8 8.3 8.3m13.9-82c-.1-1.2-1.1-2.3-2.3-2.4-1.2-.2-2.4.5-2.9 1.7s-.1 2.5 1 3.2"/><path class="st0" d="M416.1 65.1c.9.6 2 .6 2.9.1.9-.5 1.4-1.5 1.3-2.6m-4.2 77.1c-1 .7-1.4 2-1 3.2.5 1.2 1.7 1.9 2.9 1.7 1.2-.2 2.2-1.2 2.3-2.4m.1 0c.1-1-.4-2-1.3-2.6s-2-.5-2.9.1m24.2-63.5c-14.5 0-26.3 11.8-26.3 26.3s11.8 26.3 26.3 26.3m0-54.1h-.9m0 55.6h.9"/><path class="st0" d="M439.5 74.7c-15 .5-26.9 12.8-26.9 27.8s11.9 27.3 26.9 27.8m.9-57.6h-.9m0 59.5h.9"/><path class="st0" d="M439.5 72.6c-16.1.5-29 13.7-29 29.9s12.8 29.4 29 29.9"/><path class="st0" d="M440.4 70c-18 0-32.5 14.6-32.5 32.5 0 18 14.6 32.5 32.5 32.5"/><path class="st0" d="M440.4 53.2c-26.8 0-48.7 21.5-49.2 48.3s20.6 49.1 47.4 50.1m0 .1v1.6"/><path class="st0" d="M420.3 142.2c6.2 3.2 13.1 4.8 20.1 4.8m0-89.1c-7 0-13.9 1.6-20.1 4.8m-4.3 2.5c-12.6 8.2-20.2 22.2-20.2 37.3 0 15 7.6 29.1 20.2 37.3m24.4 7.2c-1 0-1.8.8-1.8 1.8m1.8-87.9c-6 0-12 1.3-17.5 3.9m.3.8-.2-.8"/><path class="st0" d="M440.4 65.4c-20.5 0-37.1 16.6-37.1 37.1s16.6 37.1 37.1 37.1m-14.7-.7c4.7 1.9 9.7 2.9 14.7 2.9m-18.5-74c.8-.4 1.2-1.2 1.2-2.1"/><path class="st0" d="M422 67.8c-12.4 6.6-20.3 19.3-20.8 33.3m-1.5 2c.8-.3 1.4-1.1 1.4-2m24.6 37.7c-.8-.3-1.8-.1-2.4.5m15.3 14v.6m0 0h1.8m-1.8-2.2v-2.8m1.8-100.6c-2 0-3.9.1-5.8.3m-.1 107.7c1.9.2 3.9.3 5.8.3m-5.7-108.1-.3.7-.8.4-.9-.3-.4-.4m-.1 0c-3.9.6-7.6 1.6-11.3 3m0 .1-.2.6-.6.5-.8.1-.7-.3m0 0c-3.6 1.6-7 3.5-10.1 5.8m.1 0v.7l-.5.7-.8.2-.7-.1m-.1.1c-3 2.4-5.8 5.2-8.3 8.3m.2-.1.1.7-.3.8-.6.4h-.7m-.1.1c-2.3 3.2-4.3 6.5-5.8 10.1"/><path class="st0" d="m390.9 80.5.4.7-.2.8-.5.7-.7.1m0 .1c-1.4 3.6-2.4 7.4-3 11.3m0 0 .5.4.2.8-.5.8-.6.4m0 0c-.1 1.3-.2 2.6-.3 4m0 3.7c0 1.3.2 2.6.3 4m.1 0 .5.3.5.8-.2.8-.5.6m0 0c.6 3.9 1.6 7.6 3 11.3m0-.1.7.3.5.5.2.8-.4.7m-.1 0c1.6 3.6 3.5 7 5.8 10.1m.2 0h.7l.6.5.3.8-.1.7m8.2 8.2.7-.1.8.2.5.7v.7m-.1.1c3.2 2.3 6.5 4.3 10.1 5.8m0 0 .7-.4.8.1.6.6.2.7m0 0c3.6 1.4 7.4 2.4 11.3 3m.1 0 .4-.5.9-.2.8.4.3.6"/><path class="st0" d="M440.4 46c-31.2 0-56.5 25.3-56.5 56.5s25.3 56.5 56.5 56.5"/><path class="st0" d="M440.4 49.2c-28.7 0-52.2 22.7-53.2 51.4m0 3.7c1 28.7 24.5 51.5 53.2 51.5m-.9-83.2v2.1m0 55.5v2.2"/><path class="st0" d="M398.8 103.3c.3 15.8 9.6 30.1 23.9 36.8m.1-.1.6-.7m-24.5-36.1.8-.1m17.5 38.8-.9-.6.2-.4.9.6m0 0c.1 0 .2 0 .2-.1m0 0 .6-.9.5.2-.6.9m-.1.1c0 .1 0 .2.1.2m0 .1 1 .4-.2.5-1-.6m0 0c-.1 0-.2 0-.2.1m-.1 0-.5 1-.4-.3.6-.9m0-.1c0-.1 0-.2-.1-.2m.7-79.4 1-.5.2.4-1 .6m0 0c-.1 0-.1.2-.1.2m.1 0 .6.9-.5.3-.6-1m0 0c0-.1-.2-.1-.2-.1m0 0-.9.6-.2-.3.9-.6m0 0c.1 0 .1-.2.1-.2m0 0-.6-1.1.4-.2.5 1m.1-.1c0 .1.2.1.2.1m-32.8 36.4h-5.9m0 7.1h5.9m0-7.1v7.1m-4.3-.5h0m8.2-1.2h-3m3-3.7h-3m-5.4-1.3.9-.4m-.9 6.6.9.5m-2.9-6.7.6-.4m-.6 6.6.6.5m6.8-1.7h-.9m.9-3.7h-.9m101.3 1.8h.3m-46.3 46.1v.1"/></g><path class="st0" d="M47.4 52h-18m18 119.5h-18m18.3-123H13.3M47.7 175H13.3M46.8 51.6V25.9m226.3 26.8V28.2m6.9 116.6v47.8M232.8 60.8V13.7m83.9 98v-98m-83.2 149v29.9m39.6-113.7V64.4m-.9 11.4h29.5m-22.6 72.1h22.6m-60.2 3.6v26.7m-2.3-110.3-2.6 3.7m2.6-3.7 7.4-10.3h4.5m64.3 55.5 1.3-1.4 1.3 1.4m0-2.7-1.3 1.3-1.3-1.3m69.2-34.2 55.8 26.2m-56.6-24.6-.9 2.5m-.5 1.4-.1.1m-.7 1.9-1.2 4.7m-.4 1.3v.2m-.2 1.4-.8 4.8m-.1 2v.2m7.2-25.3c-.9 1.6-1.6 3.2-2.4 4.8" id="Dimensions_00000007419670075999130940000001523901390037858735_"/><g id="Arrows"><path class="st1" d="M33 58.3v107"/><path d="m30.9 59.7 2-7.7 2.1 7.7zm0 104.2 2 7.6 2.1-7.6z"/><path class="st1" d="M17 54.9v113.7"/><path d="m15 56.3 2-7.7 2.1 7.7zm0 110.9 2 7.7 2.1-7.7z"/><path class="st1" d="M53.2 31.9h173.2"/><path d="m54.6 34-7.7-2.1 7.7-2.1zM225 34l7.7-2.1-7.7-2.1z"/><path class="st1" d="M239.7 189.1h33.9"/><path d="m241.1 191.2-7.6-2.1 7.6-2.1zm31.1 0 7.7-2.1-7.7-2.1z"/><path class="st1" d="M310.5 17.2H239"/><path d="m309.1 15.2 7.6 2-7.6 2.1zm-68.7 0-7.7 2 7.7 2.1z"/><path class="st1" d="M247.9 174.6h11.7"/><path d="m249.3 176.7-7.7-2.1 7.7-2z"/><path class="st1" d="M239 31.9h27.8"/><path d="m240.4 34-7.7-2.1 7.7-2.1zm25 0 7.7-2.1-7.7-2.1z"/><path class="st1" d="M298 82.2v59.3"/><path d="m295.9 83.6 2.1-7.7 2 7.7zm0 56.5 2.1 7.7 2-7.7z"/><path class="st1" d="m320.6 117.3 22.8 31.7 5.8 8.7h-7.3"/><path d="m319.8 119.6-2.8-7.4 6.1 5z"/><path class="st1" d="m378.9 73.5-21.3-10"/><path d="m378.5 71 6.1 5.1-7.9-1.4z"/><path class="st0" d="M233.5 174.6h8.1"/><path class="st1" d="M227.1 174.6h-11.7"/><path d="m225.7 172.6 7.7 2-7.7 2.1z"/></g><g id="middle"><path class="st1" d="M364.9 102.5H379"/><path class="st2" d="M384.3 102.5h3.1"/><path class="st3" d="M390.1 102.5h109"/><path class="st1" d="M501.7 102.5h14.2m-472.6 9.3h14.2"/><path style="fill:none;stroke:#000;stroke-width:.2835;stroke-linecap:round;stroke-linejoin:round;stroke-dasharray:.565,5.6497" d="M63.2 111.8h3.3"/><path style="fill:none;stroke:#000;stroke-width:.2835;stroke-linecap:round;stroke-linejoin:round;stroke-dasharray:28.2484,5.6497,.565,5.6497" d="M69.4 111.8h197.7"/><path class="st1" d="M269.9 111.8h14.2M440.4 178v-14.2"/><path class="st2" d="M440.4 158.6v-3.2"/><path class="st3" d="M440.4 152.8v-109"/><path class="st1" d="M440.4 41.1V27"/></g><g id="Text"><text transform="translate(281.78 159.523)" class="st6 st7">Sensor position</text><text transform="translate(252.434 13.312)" class="st6 st7">46.5 (in air)</text><text transform="translate(247.053 171.62)" class="st6 st7">4.5</text><text transform="translate(250.353 185.453)" class="st6 st7">25.8</text><text transform="translate(133.322 28.224)" class="st6 st7">103.3</text><text transform="translate(252.22 61.052)" class="st6 st7">F-mount</text><text transform="translate(245.843 27.88)" class="st6 st7">22.1</text><text transform="translate(332.136 62.472)" class="st6 st7">R37.7</text><text transform="rotate(-90.138 206.68 -85.891)" class="st6 st8">Ø 40</text><text transform="rotate(-90.138 66.792 53.662)" class="st6 st8">Ø 70</text><text transform="rotate(-90.138 79.775 50.6)" class="st6 st8">M67x0.75</text><text transform="translate(153.35 89.688)" class="st6 st7">Inf.</text><text transform="translate(149.143 134.933)" class="st6 st7">MOD</text><text transform="translate(445.087 183.417)" class="st6 st9">Not to scale</text><text transform="translate(444.911 195.166)" class="st6 st9">Dimensions in mm</text></g></svg>