<svg xmlns="http://www.w3.org/2000/svg" viewBox="0 0 501.7 300.5" style="enable-background:new 0 0 501.7 300.5;background-color:#fff" xml:space="preserve"><style>.st1{fill:none;stroke-width:.4252;stroke-miterlimit:10;fill-rule:evenodd;clip-rule:evenodd;stroke:#c6c6c6}.st4{fill:#5a5a5a}.st5{font-family:Helvetica,Arial,sans-serif}.st6{font-size:10.1575px}</style><g id="Lines"><path d="M54.6 223.9h432.8M54.6 181.4h432.8M54.6 138.8h432.8M54.6 96.3h432.8M54.6 53.8h432.8M54.6 11.2h432.8" style="stroke:#d9d9d9;stroke-linejoin:round;fill:none;stroke-width:.4252;stroke-miterlimit:10"/><path class="st1" d="M169.4 11.6v254.9M67.9 11.6v254.9"/><path style="fill-rule:evenodd;clip-rule:evenodd;fill:none;stroke:#9d9d9c;stroke-width:.4252;stroke-miterlimit:10" d="M54.6 11.6v254.9"/><path class="st1" d="M237 11.6v254.9M101.7 11.6v254.9M203.2 11.6v254.9M135.5 11.6v254.9M372.4 11.6v254.9M473.8 11.6v254.9m13.3-255.9v255.9M304.7 11.6v254.9M440 11.6v254.9M338.5 11.6v254.9m67.7-254.9v254.9M270.8 11.6v254.9"/><path style="fill:none;stroke:#9d9d9c;stroke-width:.4252;stroke-linejoin:round;stroke-miterlimit:10" d="M54.6 266.5h432.8"/></g><g id="Text"><text transform="translate(36.717 269.611)" class="st4 st5 st6">0</text><text transform="translate(5.65 227.07)" class="st4 st5 st6">100,000</text><text transform="translate(5.65 184.53)" class="st4 st5 st6">200,000</text><text transform="translate(5.65 141.988)" class="st4 st5 st6">300,000</text><text transform="translate(5.65 99.448)" class="st4 st5 st6">400,000</text><text transform="translate(5.65 56.907)" class="st4 st5 st6">500,000</text><text transform="translate(5.65 14.366)" class="st4 st5 st6">600,000</text><text transform="translate(160.41 281.68)" class="st5 st6">-60</text><text transform="translate(42.133 281.68)" class="st5 st6">-128</text><text transform="translate(88.748 281.68)" class="st5 st6">-100</text><text transform="translate(227.531 281.68)" class="st5 st6">-20</text><text transform="translate(290.013 295.332)" class="st4 st5 st6">15</text><text transform="translate(298.909 281.68)" class="st4 st5 st6">20</text><text transform="translate(267.902 281.68)" class="st4 st5 st6">0</text><text transform="translate(367.435 281.68)" class="st4 st5 st6">60</text><text transform="translate(478.66 295.33)" class="st4 st5 st6">127</text><text transform="translate(434.868 281.68)" class="st4 st5 st6">80</text></g><path d="M98.7 265.6h.8v.1l-.8-.1zm1.9 0h.7v.1l-.7-.1zm1.8 0h.8v.1l-.8-.1zm1.9 0h.7v.1l-.7-.1zm1.8 0h.8v.1l-.8-.1zm1.9 0h.7v.1l-.7-.1zm1.8 0h.7v.1l-.7-.1zm1.9 0h.7v.1l-.7-.1zm1.8 0h.7v.1l-.7-.1zm1.9 0h.7v.1l-.7-.1zm1.8 0h.7v.1l-.7-.1zm1.8 0h.8v.1l-.8-.1zm1.9 0h.7v.1l-.7-.1zm1.8 0h.8v.1l-.8-.1zm1.9 0h.7v.1l-.7-.1zm1.8 0h.8v.1l-.8-.1zm1.9 0h.7v.1l-.7-.1zm1.8 0h.8v.1l-.8-.1zm1.9 0h.7v.1l-.7-.1zm1.8 0h.8v.1l-.8-.1zm1.9 0h.7v.1l-.7-.1zm1.8 0h.8v.1l-.8-.1zm1.9 0h.7v.1l-.7-.1zm1.8 0h.8v.1l-.8-.1zm1.9 0h.7v.1l-.7-.1zm1.8 0h.8v.1l-.8-.1zm1.9 0h.7v.1l-.7-.1zm1.8 0h.8v.1l-.8-.1zm1.9 0h.7v.1l-.7-.1zm1.8 0h.8v.1l-.8-.1zm1.9 0h.7v.1l-.7-.1zm1.8 0h.8v.1l-.8-.1zm1.9 0h.7v.1l-.7-.1zm1.8 0h.8v.1l-.8-.1zm1.9 0h.7v.1l-.7-.1zm1.8 0h.7v.1l-.7-.1zm1.9 0h.7v.1l-.7-.1zm1.8 0h.7v.1l-.7-.1zm1.9 0h.7v.1l-.7-.1zm1.8 0h.7v.1l-.7-.1zm1.8 0h.8v.1l-.8-.1zm1.9 0h.7v.1l-.7-.1zm1.8 0h.8v.1l-.8-.1zm1.9 0h.7v.1l-.7-.1zm1.8 0h.8v.1l-.8-.1zm1.9-.1h.7v.2h-.7v-.2zm1.8-.2h.8v.4h-.8v-.4zm1.9.2h.7v.2h-.7v-.2zm1.8 0h.8v.2h-.8v-.2zm1.9 0h.7v.2h-.7v-.2zm1.8 0h.8v.2h-.8v-.2zm1.9-.2h.7v.4h-.7v-.4zm1.8.1h.8v.3h-.8v-.3zm1.9 0h.7v.3h-.7v-.3zm1.8 0h.8v.3h-.8v-.3zm1.9-.1h.7v.4h-.7v-.4zm1.8 0h.8v.4h-.8v-.4zm1.9 0h.7v.4h-.7v-.4zm1.8 0h.8v.4h-.8v-.4zm1.9 0h.7v.4h-.7v-.4zm1.8 0h.8v.4h-.8v-.4zm1.9 0h.7v.4h-.7v-.4zm1.8 0h.8v.4h-.8v-.4zm1.9-.1h.7v.5h-.7v-.5zm1.8 0h.7v.5h-.7v-.5zm1.9 0h.7v.5h-.7v-.5zm1.8 0h.7v.5h-.7v-.5zm1.9 0h.7v.5h-.7v-.5zm1.8 0h.7v.5h-.7v-.5zm1.8-.1h.8v.6h-.8v-.6zm1.9 0h.7v.6h-.7v-.6zm1.8 0h.8v.6h-.8v-.6zm1.9-.1h.7v.7h-.7v-.7zm1.8.1h.8v.6h-.8v-.6zm1.9 0h.7v.6h-.7v-.6zm1.8-.1h.8v.7h-.8v-.7zm1.9 0h.7v.7h-.7v-.7zm1.8 0h.8v.7h-.8v-.7zm1.9 0h.7v.7h-.7v-.7zm1.8 0h.8v.7h-.8v-.7zm1.9 0h.7v.7h-.7v-.7zm1.8-.1h.8v.8h-.8v-.8zm1.9 0h.7v.8h-.7v-.8zm1.8 0h.8v.8h-.8v-.8zm1.9-.1h.7v.9h-.7v-.9zm1.8 0h.8v.9h-.8v-.9zm1.9 0h.7v.9h-.7v-.9zm1.8 0h.8v.9h-.8v-.9zm1.9-.2h.7v1.1h-.7v-1.1zm1.8-.1h.8v1.2h-.8v-1.2zm1.9-2.1h.7v3.3h-.7v-3.3zm1.8-12.5h.8v15.8h-.8v-15.8zm1.9-45.9h.7v61.7h-.7V204zm1.8-151.6h.7v213.3h-.7V52.4zm1.9 153.1h.7v60.2h-.7v-60.2zm1.8 43.9h.7v16.3h-.7v-16.3zm1.9 10.3h.7v6h-.7v-6zm1.8 4.5h.7v1.5h-.7v-1.5zm1.8.8h.8v.7h-.8v-.7zm1.9.2h.7v.5h-.7v-.5zm1.8.1h.8v.4h-.8v-.4zm1.9 0h.7v.4h-.7v-.4zm1.8 0h.8v.4h-.8v-.4zm1.9 0h.7v.4h-.7v-.4zm1.8 0h.8v.4h-.8v-.4zm1.9.1h.7v.3h-.7v-.3zm1.8 0h.8v.3h-.8v-.3zm1.9 0h.7v.3h-.7v-.3zm1.8 0h.8v.3h-.8v-.3zm1.9-.1h.7v.4h-.7v-.4zm1.8.1h.8v.3h-.8v-.3zm1.9 0h.7v.3h-.7v-.3zm1.8 0h.8v.3h-.8v-.3zm1.9 0h.7v.3h-.7v-.3zm1.8 0h.8v.3h-.8v-.3zm1.9 0h.7v.3h-.7v-.3zm1.8 0h.8v.3h-.8v-.3zm1.9 0h.7v.3h-.7v-.3zm1.8 0h.8v.3h-.8v-.3zm1.9.1h.7v.2h-.7v-.2zm1.8-.1h.8v.3h-.8v-.3zm1.9 0h.7v.3h-.7v-.3zm1.8 0h.7v.3h-.7v-.3zm1.9 0h.7v.3h-.7v-.3zm1.8 0h.7v.3h-.7v-.3zm1.9.1h.7v.2h-.7v-.2zm1.8 0h.7v.2h-.7v-.2zm1.8 0h.8v.2h-.8v-.2zm1.9 0h.7v.2h-.7v-.2zm1.8 0h.8v.2h-.8v-.2zm1.9.1h.7v.1l-.7-.1zm1.8 0h.8v.1l-.8-.1zm1.9 0h.7v.1l-.7-.1zm1.8 0h.8v.1l-.8-.1zm1.9 0h.7v.1l-.7-.1zm1.8 0h.8v.1l-.8-.1zm1.9 0h.7v.1l-.7-.1zm1.8 0h.8v.1l-.8-.1zm1.9 0h.7v.1l-.7-.1zm1.8 0h.8v.1l-.8-.1zm1.9 0h.7v.1l-.7-.1zm1.8 0h.8v.1l-.8-.1zm1.9 0h.7v.1l-.7-.1zm1.8 0h.8v.1l-.8-.1zm1.9 0h.7v.1l-.7-.1zm1.8 0h.8v.1l-.8-.1zm1.9-.1h.7v.2h-.7v-.2zm1.8.1h.8v.1l-.8-.1zm1.9-.1h.7v.2h-.7v-.2zm1.8 0h.8v.2h-.8v-.2zm1.9 0h.7v.2h-.7v-.2zm1.8.1h.7v.1l-.7-.1zm1.9-.1h.7v.2h-.7v-.2zm1.8.1h.7v.1l-.7-.1zm1.9-.1h.7v.2h-.7v-.2zm1.8.1h.7v.1l-.7-.1zm1.8 0h.8v.1l-.8-.1zm1.9 0h.7v.1l-.7-.1zm1.8 0h.8v.1l-.8-.1zm1.9 0h.7v.1l-.7-.1zm1.8 0h.8v.1l-.8-.1zm1.9 0h.7v.1l-.7-.1zm1.8 0h.8v.1l-.8-.1zm1.9 0h.7v.1l-.7-.1zm1.8 0h.8v.1l-.8-.1zm1.9 0h.7v.1l-.7-.1zm1.8 0h.8v.1l-.8-.1zm1.9 0h.7v.1l-.7-.1zm1.8 0h.8v.1l-.8-.1zm1.9 0h.7v.1l-.7-.1zm1.8 0h.8v.1l-.8-.1zm1.9 0h.7v.1l-.7-.1zm1.8 0h.8v.1l-.8-.1zm1.9 0h.7v.1l-.7-.1zm1.8 0h.8v.1l-.8-.1zm1.9 0h.7v.1l-.7-.1zm1.8 0h.8v.1l-.8-.1zm1.9 0h.7v.1l-.7-.1zm1.8 0h.8v.1l-.8-.1zm1.9 0h.7v.1l-.7-.1zm1.8 0h.7v.1l-.7-.1zm1.9 0h.7v.1l-.7-.1zm1.8 0h.7v.1l-.7-.1zm1.9 0h.7v.1l-.7-.1zm1.8 0h.7v.1l-.7-.1zm1.8 0h.8v.1l-.8-.1zm1.9 0h.7v.1l-.7-.1zm1.8 0h.8v.1l-.8-.1zm1.9 0h.7v.1l-.7-.1zm1.8 0h.8v.1l-.8-.1zm1.9 0h.7v.1l-.7-.1zm1.8 0h.8v.1l-.8-.1zm1.9 0h.7v.1l-.7-.1zm1.8 0h.8v.1l-.8-.1zm1.9 0h.7v.1l-.7-.1zm1.8 0h.8v.1l-.8-.1zm1.9 0h.7v.1l-.7-.1zm1.8 0h.8v.1l-.8-.1zm1.9 0h.7v.1l-.7-.1zm1.8 0h.8v.1l-.8-.1zm1.9 0h.7v.1l-.7-.1zm1.8 0h.8v.1l-.8-.1zm1.9 0h.7v.1l-.7-.1zm1.8 0h.8v.1l-.8-.1zm1.9 0h.7v.1l-.7-.1zm1.8 0h.8v.1l-.8-.1zm1.9 0h.7v.1l-.7-.1zm1.8 0h.8v.1l-.8-.1zm1.9 0h.7v.1l-.7-.1zm1.8 0h.7v.1l-.7-.1z" style="fill:#00457c;stroke:#00457c;stroke-width:1.2756;stroke-miterlimit:10" id="Graphen_00000115500420143128663610000017394546589503380633_"/><path d="M296.2 283.5V11m190.9 272.5V11" style="fill:none;stroke:#f59d21;stroke-width:.5669;stroke-miterlimit:10" id="Schwellenwert"/></svg>