<svg style="background-color:#fff" version="1.1" viewBox="0 0 256.9 322.3" xml:space="preserve" xmlns="http://www.w3.org/2000/svg" xmlns:xlink="http://www.w3.org/1999/xlink"><style>.st36{font-family:Helvetica,Arial,sans-serif}.st37{font-size:11px}</style><defs><path id="ci" transform="rotate(-80.781 198.1 127.5)" d="M69.6-33.6h256.9v322.3H69.6z"/><clipPath id="i"><use overflow="visible" xlink:href="#b"/></clipPath><clipPath id="g"><use width="100%" height="100%" overflow="visible" xlink:href="#a"/></clipPath><path id="a" d="m149.7 5.8h91.7v13h-91.7z"/></defs><clipPath id="bx"><use overflow="visible" xlink:href="#ci"/></clipPath><circle cx="143.5" cy="103.4" r="5.8" clip-path="url(#bx)" fill="none" stroke="#000" stroke-linecap="round" stroke-linejoin="round" stroke-miterlimit="10" stroke-width=".283"/><defs><path id="bm" d="M0 0h256.9v322.3H0z"/></defs><clipPath id="bb"><use overflow="visible" xlink:href="#bm"/></clipPath><circle cx="143.5" cy="103.4" r="4.2" clip-path="url(#bb)" fill="none" stroke="#000" stroke-linecap="round" stroke-linejoin="round" stroke-miterlimit="10" stroke-width=".283"/><defs><path id="aq" transform="rotate(-80.781 66.718 239.28)" d="M-61.7 78.1h256.9v322.3H-61.7z"/></defs><clipPath id="af"><use overflow="visible" xlink:href="#aq"/></clipPath><circle cx="143.5" cy="236.5" r="5.8" clip-path="url(#af)" fill="none" stroke="#000" stroke-linecap="round" stroke-linejoin="round" stroke-miterlimit="10" stroke-width=".283"/><defs><path id="y" d="M0 0h256.9v322.3H0z"/></defs><clipPath id="n"><use overflow="visible" xlink:href="#y"/></clipPath><circle cx="143.5" cy="236.5" r="4.2" clip-path="url(#n)" fill="none" stroke="#000" stroke-linecap="round" stroke-linejoin="round" stroke-miterlimit="10" stroke-width=".283"/><defs><path id="c" d="M0 0h256.9v322.3H0z"/></defs><clipPath id="cs"><use overflow="visible" xlink:href="#c"/></clipPath><path d="M184 70.5v198.6m1.5-198.6v198.6m-4.6.6V70m50.2 181.6h-38v18.1m38-14.6v-26.5M193.1 70v18.2h38.2" clip-path="url(#cs)" fill="none" stroke="#000" stroke-linecap="round" stroke-linejoin="round" stroke-miterlimit="10" stroke-width=".283"/><defs><path id="cr" d="M0 0h256.9v322.3H0z"/></defs><clipPath id="cq"><use overflow="visible" xlink:href="#cr"/></clipPath><path d="M193.1 71.4h7.9c.5 0 .9.4.9.9v12.9c0 .5-.4.9-.9.9h-7.9m0 167.5h7.9c.5 0 .9.4.9.9v13c0 .5-.4.9-.9.9h-7.9" clip-path="url(#cq)" fill="none" stroke="#000" stroke-linecap="round" stroke-linejoin="round" stroke-miterlimit="10" stroke-width=".283"/><defs><path id="cp" d="M0 0h256.9v322.3H0z"/></defs><clipPath id="co"><use overflow="visible" xlink:href="#cp"/></clipPath><path d="M130.5 221v4.7h-21.8v10.7H52.2V103.2h56.5v10.7h21.8v5.1h11.3l.4 102z" clip-path="url(#co)" fill="#f5f5f5"/><text class="st36 st37" x="16.10659" y="26.294044" font-family="Helvetica, Arial, sans-serif" font-size="11px"><tspan x="16.10659" y="26.294044">Lens mount</tspan><tspan x="16.10659" y="40.044044">thread length</tspan></text><text class="st36 st37" x="64.501122" y="128.24179" font-family="Helvetica, Arial, sans-serif" font-size="11px"><tspan x="64.501122" y="128.24179">Sensor</tspan><tspan x="64.501122" y="141.99179">glass</tspan></text><defs><path id="cn" d="M0 0h256.9v322.3H0z"/></defs><clipPath id="cm"><use overflow="visible" xlink:href="#cn"/></clipPath><path d="M147.9 127.5v84.4m-5.7-92.9v102h-11.7v4.7h-21.8v10.7H52.2V103.2h56.5v10.7h21.8v5.1h11.7" clip-path="url(#cm)" fill="none" stroke="#000" stroke-miterlimit="3.864" stroke-width=".567"/><defs><path id="cl" d="M0 0h256.9v322.3H0z"/></defs><clipPath id="ck"><use overflow="visible" xlink:href="#cl"/></clipPath><path d="M135.5 232.1h-1.3v.4h-5.9l-.8.8v5.4l-3.4 1.8h-11.8l-.8.8v2.1" clip-path="url(#ck)" fill="none" stroke="#000" stroke-miterlimit="10" stroke-width=".283"/><defs><path id="cj" d="M0 0h256.9v322.3H0z"/></defs><clipPath id="ch"><use overflow="visible" xlink:href="#cj"/></clipPath><path d="M136.8 107.6h-2.6v-.4h-5.9l-.8-.8v-7.2h-15.2l-.8-.8V84.7" clip-path="url(#ch)" fill="none" stroke="#000" stroke-linecap="round" stroke-linejoin="round" stroke-miterlimit="10" stroke-width=".283"/><defs><path id="cg" d="M0 0h256.9v322.3H0z"/></defs><clipPath id="cf"><use overflow="visible" xlink:href="#cg"/></clipPath><path d="M152.2 196.5H151v-.5h-1.8v-10h1.8v5.3h1.6l-.4 5.2zm.6-47.9H151v5.1h-1.8v-9.9h1.8v-.5h1.8v5.3zm-.7 7.4h.7v27.8h-.7V156z" clip-path="url(#cf)" fill="#f5f5f5"/><defs><path id="ce" d="M0 0h256.9v322.3H0z"/></defs><clipPath id="cd"><use overflow="visible" xlink:href="#ce"/></clipPath><path d="M118 99.2l-6.5-6.6m20.6 14.6l-4.6-4.5m-3.5-3.5l-12.5-12.5m4.6 156.1l-2.3-2.3m18.2-5.2l-2.9-2.9m-8.2 9.2l-1.3-1.2m29.6-53.5l.5-.9m-.5 3.5l1.8-3.2m-1.8 5.7l1.8-3.2m-1.8 5.8l1.9-3.3m-1.3 4.7l2.8-4.7m-1.6 5.1l1.5-2.5m-3.3-47.6l1.4-2.5m-1.4 5l3.2-5.5m-3.2 8.1l3.6-6.3m-3.5 8.6l1.7-3m1.3-2.1l.5-1m-2 6.1l.2-.5m1.1 5.8l.7-1.3m-.7 6.4l.7-1.3m-.7 6.4l.7-1.3m-.7 6.3l.7-1.2m-.7 6.3l.7-1.3m-.3 5.8l.3-.7m-20.5 41.5V110.4m16.9 75.6v-32.3m1.8 0V186m-1.8-12.4h1.8m-1.8-5.6h1.8m-1.8-3.4h1.8m-1.8-5.9h1.8m-1.8-3.7h1.8m1.2 41.5H151v-.5h-1.8v-10h1.8v5.3h1.6l-.4 5.2zm.6-47.9H151v5.1h-1.8v-9.9h1.8v-.5h1.8v5.3zm-.7 7.4h.7v27.8h-.7V156zm-2.9 28.8h1.8" clip-path="url(#cd)" fill="none" stroke="#000" stroke-linecap="round" stroke-linejoin="round" stroke-miterlimit="10" stroke-width=".283"/><defs><path id="cc" d="M0 0h256.9v322.3H0z"/></defs><clipPath id="cb"><use overflow="visible" xlink:href="#cc"/></clipPath><path d="M111.5 101.2V64.3l.8-1h67.8l.8.7v6h2.6l.5.5h1.5l.6-.5h44.3l.9.9v157.7h4.8l.6.4v25.6l-.6.5h-4.8v13.8l-.9.8h-44.3l-.6-.6H184l-.5.6h-2.6v5.9l-.8 1h-67.8l-.8-1v-37 2.8m.8-140.1v-2.1m0 141.3v-1.9m22.2-68.7h-4m-1.1 0h-.1" clip-path="url(#cb)" fill="none" stroke="#000" stroke-linecap="round" stroke-linejoin="round" stroke-miterlimit="10" stroke-width=".283"/><defs><path id="ca" d="M0 0h256.9v322.3H0z"/></defs><clipPath id="bz"><use overflow="visible" xlink:href="#ca"/></clipPath><path d="M127 101.6l.5.6v5h4.3l.6.5v1.5l-2.8 4.7-2.4 1.4h-17.3l-1.1-1v-12.6l.6-.5h10.1v.4h7.5zm-7.5 136.5v.4h-10.1l-.6-.6v-12.4l1.1-1.1h17.3l2.4 1.3 2.8 4.8v1.4l-.6.6h-4.3v5.1l-.5.5h-7.5" clip-path="url(#bz)" fill="#f5f5f5"/><defs><path id="by" d="M0 0h256.9v322.3H0z"/></defs><clipPath id="bw"><use overflow="visible" xlink:href="#by"/></clipPath><path d="M127 101.6l.5.6v5h4.3l.6.5v1.5l-2.8 4.7-2.4 1.4h-17.3l-1.1-1v-12.6l.6-.5h10.1v.4h7.5m-7.5 136.5v.4h-10.1l-.6-.6v-12.4l1.1-1.1h17.3l2.4 1.3 2.8 4.8v1.4l-.6.6h-4.3v5.1l-.5.5h-7.5" clip-path="url(#bw)" fill="none" stroke="#000" stroke-linecap="round" stroke-linejoin="round" stroke-miterlimit="10" stroke-width=".283"/><defs><path id="bv" d="M0 0h256.9v322.3H0z"/></defs><clipPath id="bu"><use overflow="visible" xlink:href="#bv"/></clipPath><path d="M123.5 115.3l8.2-8.1m-14.2 8.1l10-9.9m-15.9 9.9l13.7-13.7m-16.5 10.5l10.7-10.7m-10.7 4.7l4.9-4.9m12.7 136.9l1.1-1.1m-7 1.1l10.2-10.3m-16.6 10.7l13.8-13.8m-19.1 13.1l13.4-13.4m-13.4 7.4l7.5-7.4m-7.5 1.3l1.5-1.3m22.1 6.1V109.2m-5.2 115.2V115.3m-17.3 109.1V115.3m-1.1 110.2V114.3m20-.5h-20m20 0v112m-20 0h20M111.6 85.9c7.2 3 16.8 10.3 25.3 21.7s15.9 28.7 16 35.6c.1 6.9-.2 45.9-.6 53.2-.3 7.3-7.2 25.7-17.5 36.4s-23.3 10.5-23.3 10.5" clip-path="url(#bu)" fill="none" stroke="#000" stroke-linecap="round" stroke-linejoin="round" stroke-miterlimit="10" stroke-width=".283"/><defs><path id="bt" d="M0 0h256.9v322.3H0z"/></defs><clipPath id="bs"><use overflow="visible" xlink:href="#bt"/></clipPath><path d="m48.2 169.9h3.6" clip-path="url(#bs)" fill="none" stroke="#000" stroke-miterlimit="10" stroke-width=".283"/><defs><path id="br" d="M0 0h256.9v322.3H0z"/></defs><clipPath id="bq"><use overflow="visible" xlink:href="#br"/></clipPath><path d="m54.7 169.9h2" clip-path="url(#bq)" fill="none" stroke="#000" stroke-dasharray=".579,2.895" stroke-miterlimit="10" stroke-width=".283"/><defs><path id="bp" d="M0 0h256.9v322.3H0z"/></defs><clipPath id="bo"><use overflow="visible" xlink:href="#bp"/></clipPath><path d="m58.1 169.9h175.5" clip-path="url(#bo)" fill="none" stroke="#000" stroke-dasharray="7.238,2.895,.579,2.895" stroke-miterlimit="10" stroke-width=".283"/><defs><path id="bn" d="M0 0h256.9v322.3H0z"/></defs><clipPath id="bl"><use overflow="visible" xlink:href="#bn"/></clipPath><path d="m235 169.9h3.6" clip-path="url(#bl)" fill="none" stroke="#000" stroke-miterlimit="10" stroke-width=".283"/><defs><path id="bk" d="M0 0h256.9v322.3H0z"/></defs><clipPath id="bj"><use overflow="visible" xlink:href="#bk"/></clipPath><path d="m142.6 151.2-2.2 3.1 8.4 3.7z" clip-path="url(#bj)" clip-rule="evenodd" fill-rule="evenodd"/><defs><path id="bi" d="M0 0h256.9v322.3H0z"/></defs><clipPath id="bh"><use overflow="visible" xlink:href="#bi"/></clipPath><path d="M141.5 152.7l-28.6-21.2H66" clip-path="url(#bh)" fill="none" stroke="#000" stroke-miterlimit="3.864" stroke-width=".227"/><defs><path id="bg" d="M0 0h256.9v322.3H0z"/></defs><clipPath id="bf"><use overflow="visible" xlink:href="#bg"/></clipPath><path d="m27.7 122.9h3.9l-1.9-9-2 9zm3.9 93.9h-3.9l2 9 1.9-9z" clip-path="url(#bf)" clip-rule="evenodd" fill-rule="evenodd"/><defs><path id="be" d="M0 0h256.9v322.3H0z"/></defs><clipPath id="bd"><use overflow="visible" xlink:href="#be"/></clipPath><path d="m29.7 122.9v93.9" clip-path="url(#bd)" fill="none" stroke="#000" stroke-miterlimit="3.864" stroke-width=".227"/><defs><path id="bc" d="M0 0h256.9v322.3H0z"/></defs><clipPath id="ba"><use overflow="visible" xlink:href="#bc"/></clipPath><path d="M108.8 114H27.2m81.6 111.7H27.2" clip-path="url(#ba)" fill="none" stroke="#000" stroke-miterlimit="3.864" stroke-width=".283"/><defs><path id="az" d="M0 0h256.9v322.3H0z"/></defs><clipPath id="ay"><use overflow="visible" xlink:href="#az"/></clipPath><path d="m105.1 244.6-2.6-3.7 10-4.5z" clip-path="url(#ay)" clip-rule="evenodd" fill-rule="evenodd"/><defs><path id="ax" d="M0 0h256.9v322.3H0z"/></defs><clipPath id="aw"><use overflow="visible" xlink:href="#ax"/></clipPath><path d="M103.9 242.6l-22 16.2H9" clip-path="url(#aw)" fill="none" stroke="#000" stroke-miterlimit="3.864" stroke-width=".227"/><defs><path id="av" d="M0 0h256.9v322.3H0z"/></defs><clipPath id="au"><use overflow="visible" xlink:href="#av"/></clipPath><path d="m133.1 18.4v3.8l9-1.9-9-1.9zm-15.5 3.8v-3.8l-9.1 1.9 9.1 1.9z" clip-path="url(#au)" clip-rule="evenodd" fill-rule="evenodd"/><defs><path id="at" d="M0 0h256.9v322.3H0z"/></defs><clipPath id="as"><use overflow="visible" xlink:href="#at"/></clipPath><path d="M108.5 102.6V17.7m33.7 126.6V47.5m0-8.8v-21" clip-path="url(#as)" fill="none" stroke="#000" stroke-miterlimit="3.864" stroke-width=".283"/><defs><path id="ar" d="M0 0h256.9v322.3H0z"/></defs><clipPath id="ap"><use overflow="visible" xlink:href="#ar"/></clipPath><path d="M116.3 20.3H245" clip-path="url(#ap)" fill="none" stroke="#000" stroke-miterlimit="10" stroke-width=".283"/><defs><path id="ao" d="M0 0h256.9v322.3H0z"/></defs><clipPath id="an"><use overflow="visible" xlink:href="#ao"/></clipPath><path d="m99.4 41.3v3.9l9-1.9-9-2zm40 3.9v-3.9l-9 2 9 1.9z" clip-path="url(#an)" clip-rule="evenodd" fill-rule="evenodd"/><defs><path id="am" d="M0 0h256.9v322.3H0z"/></defs><clipPath id="al"><use overflow="visible" xlink:href="#am"/></clipPath><path d="M130.5 115.3V40.7" clip-path="url(#al)" fill="none" stroke="#000" stroke-miterlimit="3.864" stroke-width=".283"/><defs><path id="ak" d="M0 0h256.9v322.3H0z"/></defs><clipPath id="aj"><use overflow="visible" xlink:href="#ak"/></clipPath><path d="m16.7 43.3h143.7" clip-path="url(#aj)" fill="none" stroke="#000" stroke-miterlimit="10" stroke-width=".283"/><defs><path id="ai" d="M0 0h256.9v322.3H0z"/></defs><clipPath id="ah"><use overflow="visible" xlink:href="#ai"/></clipPath><g clip-path="url(#ah)"><defs><path id="ag" d="m64.9 118.9h35v26.2h-35z"/></defs><clipPath id="ae"><use width="100%" height="100%" overflow="visible" xlink:href="#ag"/></clipPath><g clip-path="url(#ae)"><defs><path id="ad" d="m64.9 118.9h35v13h-35z"/></defs><clipPath id="cw"><use width="100%" height="100%" overflow="visible" xlink:href="#ad"/></clipPath></g><defs><path id="ac" d="m64.9 118.9h35v26.2h-35z"/></defs><clipPath id="cx"><use width="100%" height="100%" overflow="visible" xlink:href="#ac"/></clipPath></g><defs><path id="ab" d="M0 0h256.9v322.3H0z"/></defs><clipPath id="aa"><use overflow="visible" xlink:href="#ab"/></clipPath><g clip-path="url(#aa)"><defs><path id="z" d="m13.1 113.4h13v112.5h-13z"/></defs><clipPath id="x"><use overflow="visible" xlink:href="#z"/></clipPath><g clip-path="url(#x)"><text class="st36 st37" transform="rotate(-90 124.21 101.7)">M42 lens mount thread</text></g></g><defs><path id="w" d="M0 0h256.9v322.3H0z"/></defs><clipPath id="v"><use overflow="visible" xlink:href="#w"/></clipPath><g clip-path="url(#v)"><defs><path id="u" d="m154.5 290.9h58.1v13h-58.1z"/></defs><clipPath id="t"><use overflow="visible" xlink:href="#u"/></clipPath><g clip-path="url(#t)"><text class="st36 st37" transform="translate(154.51 300.36)">Not to scale</text></g></g><defs><path id="s" d="M0 0h256.9v322.3H0z"/></defs><clipPath id="r"><use overflow="visible" xlink:href="#s"/></clipPath><g clip-path="url(#r)"><defs><path id="q" d="M154.5 304.1H245v13h-90.5z"/></defs><clipPath id="p"><use overflow="visible" xlink:href="#q"/></clipPath><g clip-path="url(#p)"><text class="st36 st37" transform="translate(154.51 313.55)">Dimensions in mm</text></g></g><defs><path id="o" d="M0 0h256.9v322.3H0z"/></defs><clipPath id="m"><use overflow="visible" xlink:href="#o"/></clipPath><g clip-path="url(#m)"><defs><path id="l" d="M8.1 242.8h78.3v13H8.1z"/></defs><clipPath id="k"><use overflow="visible" xlink:href="#l"/></clipPath><g clip-path="url(#k)"><text class="st36 st37" transform="translate(8.144 252.21)">M42 lens mount</text></g></g><defs><path id="b" d="M0 0h256.9v322.3H0z"/></defs><clipPath id="j"><use overflow="visible" xlink:href="#b"/></clipPath><g transform="translate(-132.9,11.9)" clip-path="url(#j)"><defs><path id="h" d="m149.7 5.8h91.7v13h-91.7z"/></defs><clipPath id="cy"><use width="100%" height="100%" overflow="visible" xlink:href="#h"/></clipPath></g><g transform="translate(-4.5373 2.3262)" clip-path="url(#i)"><clipPath><use width="100%" height="100%" overflow="visible" xlink:href="#a"/></clipPath><g clip-path="url(#g)"><text class="st36 st37" transform="translate(149.7,15.243)">Max. lens intrusion</text></g></g><defs><path id="f" d="M0 0h256.9v322.3H0z"/></defs><clipPath id="e"><use overflow="visible" xlink:href="#f"/></clipPath><g clip-path="url(#e)"><defs><path id="d" d="m16.1 16h64.2v26.2h-64.2z"/></defs><clipPath id="cv"><use width="100%" height="100%" overflow="visible" xlink:href="#d"/></clipPath><g clip-path="url(#cv)"><defs><path id="cu" d="m16.1 16h57.5v13h-57.5z"/></defs><clipPath id="cz"><use width="100%" height="100%" overflow="visible" xlink:href="#cu"/></clipPath></g><defs><path id="ct" d="m16.1 16h64.2v26.2h-64.2z"/></defs><clipPath id="da"><use width="100%" height="100%" overflow="visible" xlink:href="#ct"/></clipPath></g></svg>
