<svg style="background-color:#fff" version="1.1" viewBox="0 0 496.1 243" xml:space="preserve" xmlns="http://www.w3.org/2000/svg"><style>.st2,.st6,.st7,.st8{fill:none;stroke:#646363;stroke-width:.7087;stroke-miterlimit:10}.st6,.st7,.st8{fill:#f6f6f6;stroke:#878787;stroke-width:.2835}.st7,.st8{fill:none}.st8{stroke:#000;stroke-width:.4252}.st9{font-family:Helvetica,Arial,sans-serif}.st10{font-size:12px}</style><g id="a"><path d="M26.3 47.4h113.4v141.7H26.3V47.4z" fill="#e3e3e3"/><path d="M139.7 47.4h340.2v141.7H139.7V47.4z" fill="#ededed"/><path class="st2" d="m26.3 17.4v180.2"/><path d="m139.7 17.4v180.2" fill="none" stroke="#000" stroke-miterlimit="10" stroke-width=".283"/><path class="st2" d="M253.1 47.4v150.2M366.5 47.4v150.2M479.9 47.4v150.2"/><path d="m26.3 189.1h453.6" fill="none" stroke="#000" stroke-miterlimit="10" stroke-width=".709"/></g><g id="b"><path d="M216.2 137h14.2v28.3h-14.2V137zm-92.3 86.7h14.2v14.2h-14.2v-14.2zM297.8 74.1l16.4 28.4h-32.8l16.4-28.4z" fill="#575756"/><path class="st6" d="M102.9 137h14.2v28.3h-14.2V137z"/><path class="st7" d="m102.9 138.8 14.1 14.1m-14.1-8.5 14.1 14.2m-14.1-8.5 14.1 14.2m-14.1-8.5 9.5 9.5m-9.5-3.9 3.8 3.9m0-28.3 10.3 10.3m-4.6-10.3 4.6 4.6"/><path class="st6" d="M26.6 223.7h14.2v14.2H26.6v-14.2z"/><path class="st7" d="m39 223.7 1.8 1.7m-7.5-1.7 7.5 7.4m-13.2-7.4 13.2 13.1m-14.2-8.5 9.5 9.5m-9.5-3.9 3.9 3.9"/><path class="st6" d="M71 74.1l16.3 28.4H54.6L71 74.1z"/><path class="st7" d="M86.2 100.6L67 81.4m15.3 20.9L64.8 84.8m12 17.7L62.7 88.4m8.4 14.1L60.7 92m4.8 10.5l-7.1-7.1m1.4 7.1l-3.3-3.3m22-12L69 77.6"/><path class="st8" d="m149.1 20.1h15.4"/><path d="m151.2 23.2-11.5-3.1 11.5-3.1v6.2z"/><path class="st8" d="M14.4 20.1H-.9"/><path d="M12.3 17l11.6 3.1-11.6 3.1V17z"/></g><g id="c"><text class="st9 st10" transform="translate(22.67 208.39)">0</text><text class="st9 st10" transform="translate(35.112,17.388)"><tspan x="0" y="0">Non-ambiguity</tspan><tspan x="0" y="15">range</tspan></text><text class="st9 st10" transform="translate(145.5 234.85)">Object</text><text class="st9 st10" transform="translate(47.483,234.85)">Reflection</text><text class="st9 st10" transform="translate(126.32 208.39)">10</text><text class="st9 st10" transform="translate(239.7 208.39)">20</text><text class="st9 st10" transform="translate(351.09 208.39)">30</text><text class="st9 st10" transform="translate(454.15 208.39)">40 m</text></g></svg>
