<svg xmlns="http://www.w3.org/2000/svg" viewBox="0 0 578.3 255.1" style="enable-background:new 0 0 578.3 255.1;background-color:#fff" xml:space="preserve"><style>.st3{fill:none;stroke-miterlimit:10;stroke-width:.7087;stroke-linejoin:round;stroke:#178ecf;stroke-linecap:round}.st9{font-family:Helvetica,Arial,sans-serif}.st10{font-size:9px}.st11{fill:#575756}.st13{font-size:8.7485px}.st14{font-size:6.5549px}</style><g id="Lines"><path d="M35.1 209.1V10.9m532.7 198.2H35.1" style="fill:none;stroke-width:.7087;stroke-miterlimit:10;stroke:#dadada;stroke-linecap:round;stroke-linejoin:round"/><path d="M567.8 10.9H35.1m532.7 39.6H35.1m532.7 39.7H35.1m532.7 39.6H35.1m532.7 39.6H35.1m342-158.5v198.2m38.2-198.2v198.2m38.1-198.2v198.2m38.2-198.2v198.2m38.1-198.2v198.2m38.1-198.2v198.2M301 10.9v198.2M263 10.9v198.2M225.1 10.9v198.2m-38-198.2v198.2m-38-198.2v198.2m-38-198.2v198.2" style="fill:none;stroke-miterlimit:10;stroke-width:.2835;stroke:#dadada;stroke-linecap:round;stroke-linejoin:round"/><path d="M339.2 209.2V11m-266 198.2V11" style="stroke:#dadada;stroke-width:.2835;fill:none;stroke-miterlimit:10"/></g><g id="Graphen_00000115500420143128663610000017394546589503380633_"><g id="infrared"><path class="st3" d="M422.3 207.7c.2 0 .4-.1.6-.1.2 0 .4.1.6.1.2 0 .4-.1.6-.2h1.2c.2 0 .4-.1.6-.1.2 0 .4-.1.6-.1.2 0 .4-.1.6-.1h.6c.2 0 .4-.2.6-.2.2-.1.4-.1.6-.1.2 0 .4-.1.6-.1.2 0 .4 0 .6-.1.2 0 .4 0 .6-.1.2 0 .4-.1.6-.2.2-.1.4-.1.6-.1h.6c.2 0 .4 0 .6-.1.2 0 .4-.1.6-.2.2-.1.4-.1.6-.2.2-.1.4-.1.6-.2l.6-.3c.2-.1.4 0 .6-.1l.6-.3c.2-.1.4 0 .6 0 .2 0 .4-.1.6-.2.2-.1.4-.4.6-.5.2-.1.4 0 .6 0l.6-.3c.2-.1.4-.3.6-.4.2-.1.4-.1.6-.2.2-.1.4-.4.6-.5.2-.1.4 0 .6-.1l.6-.3.6-.3c.2-.1.4-.3.6-.5.2-.1.4-.1.6-.2.2-.1.4-.3.6-.5.2-.2.4-.4.6-.5.2-.2.4-.3.6-.5.2-.1.4-.3.6-.4l.6-.6c.2-.2.4-.2.6-.4.2-.2.4-.7.6-.8.2-.1.4.1.6 0 .2-.1.4-.3.6-.6.2-.3.4-.8.6-1.1.2-.2.4 0 .6-.2.2-.2.4-.4.6-.8.2-.4.4-1 .6-1.3.2-.3.4-.5.6-.6.2-.1.4-.1.6-.3.2-.2.4-.7.6-1.1.2-.4.4-.9.6-1.2.2-.3.4-.4.6-.7.2-.3.4-.8.6-1.2.2-.4.4-.6.6-1 .2-.3.4-.8.6-1.1.2-.3.4-.2.6-.6.2-.4.4-1.2.6-1.7.2-.5.4-.8.6-1.2.2-.4.4-.8.6-1.3s.4-1.3.6-1.7c.2-.4.4-.3.6-.8.2-.5.4-1.5.6-2.1.2-.6.4-.9.6-1.4.2-.4.4-.7.6-1.2.2-.5.4-1.4.6-2.1.2-.6.4-1.1.6-1.7.2-.5.4-.9.6-1.6.2-.7.4-1.7.6-2.5.2-.8.4-1.7.6-2.3.2-.6.4-.9.6-1.6.2-.6.4-1.3.6-2.1.2-.8.4-1.9.6-2.7.2-.8.4-1.5.6-2.3.2-.9.4-1.9.6-2.8.2-.9.4-1.6.6-2.4.2-.8.4-1.5.6-2.5.2-1 .4-2.5.6-3.6.2-1 .4-2 .6-2.7.2-.6.4-.7.6-1.5.2-.9.4-2.6.6-3.8.2-1.2.4-2 .6-3.1.2-1.2.4-3 .6-4 .2-1 .4-1.2.6-2 .2-.8.4-1.6.6-2.7.2-1.1.4-2.9.6-4 .2-1.1.4-1.4.6-2.4.2-1 .4-2.5.6-3.6.2-1.1.4-2.1.6-3.1.2-1 .4-1.9.6-2.8.2-.9.4-1.8.6-2.8.2-1.1.4-2.7.6-3.6.2-.9.4-1.1.6-2.2.2-1.2.4-3.5.6-4.8.2-1.3.4-2 .6-3.2.2-1.2.4-2.7.6-4.1.2-1.4.4-3.1.6-4.3.2-1.1.4-1.3.6-2.7.2-1.4.4-4.3.6-5.7.2-1.3.4-1.5.6-2.6.2-1.2.4-2.8.6-4.4.2-1.6.4-3.5.6-5.4.2-1.8.4-3.9.6-5.7.2-1.8.4-3.9.6-5.1.1-.9.4-.9.6-1.8.2-1.2.4-3.5.6-5.5.2-2 .4-4.8.6-6.6.2-1.7.4-2.4.6-3.7.2-1.4.4-2.8.6-4.4.2-1.6.4-4 .6-5.1.1-.8.4-1 .6-1.6.2-.8.4-2.1.6-3.2.2-1.2.4-2.7.6-3.7.2-1 .4-1.2.6-2.2.2-1 .4-3.5.6-3.7.2-.2.4 1.8.6 2.2.2.4.4.3.6.5.2.2.4.4.6.9.2.4.4.8.6 1.7.2.9.4 2.2.6 3.8.2 1.6.4 4.5.6 5.7.1.6.5.5.6 1.2.2 1.2.4 4.3.6 6.2.2 1.9.4 3.2.6 5.3.2 2.1.4 4.8.6 7.3s.4 5.4.6 7.9c.2 2.4.4 4.2.6 6.7.2 2.5.4 6.1.6 8.5.2 2.4.4 3.4.6 5.7.2 2.4.4 5.6.6 8.4l.6 8.7c.2 2.9.4 5.8.6 8.6.2 2.8.4 5.5.6 8 .2 2.6.4 5.1.6 7.4.2 2.4.4 4.2.6 6.7.2 2.5.4 6.2.6 8.5.2 2.3.4 3.5.6 5.5.2 2 .4 4.5.6 6.5.2 2.1.4 4.1.6 5.9.2 1.9.4 3.6.6 5.3.2 1.7.4 3 .6 4.7.2 1.7.4 3.9.6 5.6.2 1.7.4 3.3.6 4.6.2 1.3.4 2.2.6 3.3.2 1.2.4 2.8.6 3.8.2 1 .4 1.5.6 2.3.2.8.4 1.4.6 2.4.2.9.4 2.4.6 3.3.2.9.4 1.5.6 2.3.2.8.4 1.9.6 2.7.2.8.4 1.7.6 2.3.2.6.4.9.6 1.4.2.5.4.9.6 1.5.2.5.4 1.2.6 1.7.2.4.4.7.6 1 .2.3.4.2.6.6.2.4.4 1.4.6 1.7.2.4.4.3.6.5.2.3.4.8.6 1 .2.2.4.1.6.2.2.2.4.7.6.9.2.1.4-.2.6-.1.2.1.4.5.6.7l.6.6c.2.2.4.5.6.6s.4-.1.6.1c.2.1.4.7.6.8.2.1.4-.3.6-.3.2.1.4.6.6.7.2.1.4-.1.6 0 .2 0 .4.1.6.2s.4.2.6.2c.2 0 .4-.1.6 0 .2.1.4.5.6.6.2.1.4-.1.6-.1.2 0 .4.3.6.4.2.1.4-.1.6-.1.2 0 .4-.1.6-.1.2 0 .4.1.6.2.2.1.4.3.6.4.2 0 .4-.1.6-.1.2 0 .4.1.6.1.2 0 .4 0 .6.1.2.1.4.3.6.4.2 0 .4-.2.6-.3.2-.1.4-.1.6-.1.2 0 .4.1.6.2.2.1.4.5.6.5s.4-.5.6-.5c.2 0 .4.3.6.3s.4-.1.6-.2c.2 0 .4-.1.6-.1.2 0 .4.1.6.2.2.1.4.1.6.2.2 0 .4.1.6.1.2 0 .4-.2.6-.2.2 0 .4.3.6.3.2.1.4-.1.6 0s.4.3.6.2c.2 0 .4-.5.6-.5.2 0 .4.3.6.4.2.1.4.1.6.1.2 0 .4 0 .6.1h.6c.2 0 .4-.1.6-.1.2.1.4.4.6.4.2.1.4.1.6 0s.4-.5.6-.6.4 0 .6.1c.2 0 .4.1.6.1.2 0 .4-.1.6-.1.2 0 .4-.1.6-.1.2 0 .4.1.6.2.2.1.4.4.6.4.2 0 .4-.3.6-.4.2-.1.4-.3.6-.3.2 0 .4.2.6.2.2.1.4.2.6.2.2 0 .4-.2.6-.1s.4.3.6.3c.2 0 .4-.2.6-.2.2 0 .4.3.6.3.2 0 .4-.3.6-.3.2 0 .4.1.6.1.2 0 .4-.3.6-.2s.4.4.6.5c.2.1.4 0 .6 0 .2 0 .4 0 .6.1.2.1.4.3.6.3.2 0 .4-.3.6-.4.2-.1.4.1.6.1.2 0 .4-.1.6 0 .2.1.4.7.6.7s.4-.6.6-.7c.2 0 .4.6.6.6.2 0 .4-.6.6-.6s.4.6.6.6c.2 0 .4-.4.6-.4.2 0 .4.1.6.1.2.1.4.3.6.4.2.1.4.3.6.3.2 0 .4-.4.6-.4.2 0 .4.6.6.5.2 0 .4-.8.6-.8.2 0 .4.7.6.8.2 0 .4-.5.6-.7s.4-.2.6-.1c.2.1.4.6.6.7.2 0 .4-.3.6-.4s.4-.2.6-.2"/><path class="st3" d="M389.5 208.7h1.8c.2 0 .4-.1.6-.1.2 0 .4.1.6.1h4.2c.2 0 .4-.1.6-.1h.6c.2 0 .4.1.6.1.2 0 .4-.1.6-.1h.6c.2 0 .4.1.6.1.2 0 .4-.1.6-.1.2 0 .4-.1.6-.1h3c.2 0 .4-.1.6-.1h.6c.2 0 .4-.1.6-.1.2 0 .4.1.6.1h1.2c.2 0 .4-.1.6-.1.2 0 .4-.1.6-.1.2 0 .4.1.6.1.2 0 .4-.1.6-.1.2 0 .4.1.6.1.2 0 .4-.1.6-.1.2 0 .4.1.6.1.2 0 .4 0 .6-.1l.6-.3c.2 0 .4.1.6.1.2 0 .4.1.6.1.2 0 .4-.2.6-.2h2.4c.2 0 .4-.1.6-.1.2 0 .4.1.6.1.2 0 .4-.1.6-.1.2 0 .4-.1.6-.1h.6c.2 0 .4-.1.6-.1h.6c.2 0 .4 0 .6-.1"/></g><path id="red" d="M249.9 208.6c.3 0 .6-.1.9-.1h2.7c.3 0 .6-.1.9-.1h1.8c.3 0 .6.1.9 0 .3 0 .6-.1.9-.1h2.7c.3 0 .6.1.9.1.3 0 .6-.1.9-.1h1.8c.3 0 .6.1.9.1.3 0 .6-.1.9-.1h.9c.3 0 .6-.1.9-.1h.9c.3 0 .6-.1.9-.1h.9c.3 0 .6 0 .9-.1h.9c.3 0 .6-.1.9-.1h.9c.3 0 .6-.1.9-.1h.9c.3 0 .6-.2.9-.2.3-.1.6-.1.9-.1.3 0 .6 0 .9-.1s.6-.1.9-.1c.3-.1.6-.1.9-.2.3-.1.6-.1.9-.2.3 0 .6-.1.9-.1.3-.1.6-.1.9-.2.3-.1.6-.1.9-.2l.9-.3.9-.3.9-.3c.3-.1.6-.3.9-.5l.9-.3c.3-.1.6-.4.9-.5.3-.2.6-.3.9-.5l.9-.6c.3-.2.6-.3.9-.6.3-.2.6-.6.9-.9.3-.3.6-.5.9-.8.3-.3.6-.7.9-1l.9-.9c.3-.3.6-.7.9-1.1.3-.4.6-.9.9-1.4.3-.5.6-1 .9-1.4.3-.5.6-.9.9-1.5.3-.6.6-1.3.9-2 .3-.7.6-1.4.9-2 .3-.6.6-1.1.9-1.9.3-.8.6-1.7.9-2.6.3-.9.6-2 .9-3 .3-1 .6-2.1.9-3.1.3-1.1.6-2 .9-3.2.3-1.2.6-2.6.9-4 .3-1.4.6-2.6.9-4.2.3-1.5.6-3.3.9-5 .3-1.7.6-3.4.9-5.3.3-1.9.6-4 .9-6 .3-2.1.6-4.1.9-6.4.3-2.3.6-4.7.9-7.3.3-2.6.6-5.2.9-8 .3-2.9.6-6.1.9-9.3.3-3.2.6-6.2.9-9.6.3-3.5.6-7.3.9-11.1.3-3.8.6-7.6.9-11.5.3-3.9.6-8 .9-12.2.3-4.2.6-8.6.9-12.9l.9-12.6c.3-4.2.6-8.4.9-12.4.3-4 .6-8.1.9-11.6.3-3.5.6-6.9.9-9.3.3-2.4.6-4.1.9-5.2.2-.7.7-1.4.9-1 .3.5.6 2.1.9 4.3.3 2.4.6 5.9.9 10.3.3 4.4.6 10.3.9 16 .3 5.8.6 12.1.9 18.5.3 6.4.6 13.3.9 19.7.3 6.4.6 12.8.9 18.9.3 6.1.6 12.1.9 17.4.3 5.3.6 9.8.9 14.4.3 4.6.6 9.2.9 13.1.3 3.9.6 7.3.9 10.5.3 3.2.6 6.1.9 8.7.3 2.6.6 4.7.9 6.9.3 2.1.6 4.2.9 6 .3 1.9.6 3.6.9 5.2.3 1.5.6 2.8.9 4 .3 1.3.6 2.5.9 3.6.3 1.1.6 2.2.9 3.1.3.9.6 1.6.9 2.4l.9 2.4c.3.7.6 1.3.9 1.9.3.6.6 1 .9 1.5.3.5.6 1 .9 1.4.3.4.6.8.9 1.1.3.3.6.5.9.7.3.3.6.5.9.8.3.2.6.5.9.7.3.2.6.3.9.5.3.2.6.4.9.5l.9.3c.3.1.6.3.9.4.3.1.6.3.9.4.3.1.6.1.9.2.3.1.6.3.9.3.3.1.6.1.9.2.3.1.6.1.9.2.3.1.6.1.9.2.3 0 .6.1.9.1.3 0 .6.1.9.1.3 0 .6.1.9.1h.9c.3 0 .6.1.9.1.3 0 .6.1.9.1h1.8c.3 0 .6.1.9.1h1.8c.3 0 .6 0 .9.1h.9c.3 0 .6.1.9.1.3 0 .6 0 .9-.1h.9c.3 0 .6 0 .9.1.3 0 .6.1.9.1.3 0 .6-.1.9-.1h2.7c.3 0 .6 0 .9.1h.9c.3 0 .6.1.9.1.3 0 .6-.1.9-.1.3 0 .6.1.9.1h2.7c.3 0 .6-.1.9-.1.3 0 .6.1.9.1h2.7c.3 0 .6.1.9.1" style="fill:none;stroke:#f59d23;stroke-width:.7087;stroke-linecap:round;stroke-linejoin:round;stroke-miterlimit:10"/><path d="M110.9 208.7h.8m0 0h.8m0 0h.7m0 0h.8m0 0h.7m0 0h.8m0 0h.8m0 0h.7m0 0h.8m0 0h.8m0 0h.7m0 0h.8m0 0h.7m0 0h.8m0 0h.7m0 0h.8m0 0h.8m0 0h.7m0 0h.8m0 0h.8m0 0h.7m0 0 .4-.1h.4m0 0h.3l.4.1m0 0h.4l.4-.1m0 0h.8m0 0h.7m0 0h.8m0 0 .8.1m0 0h.7m0 0h.8m0 0h.7m0 0h.8m0 0h.7m0 0h.8m0 0h.8m0 0h.7m0 0h.8m0 0h.7m0 0h.8m0 0h.8m0 0h.8m0 0h.7m0 0h.8m0 0h.7m0 0 .4-.1h.4m0 0h.8m0 0h.7m0 0h.8m0 0h.8m0 0h.7m0 0 .8-.1m0 0h.7m0 0h.8m0 0 .7-.1m0 0h.8m0 0 .8-.1m0 0 .7-.1m0 0 .8-.1m0 0 .7-.1m0 0 .4-.1.4-.1m0 0 .4-.1.4-.1m0 0 .3-.1.4-.1m0 0 .4-.2.4-.2m0 0 .4-.1.2-.1.2-.1m0 0 .1-.1.2-.1.2-.2.2-.1m0 0 .2-.1.2-.1.2-.1.2-.2m0 0 .2-.1.1-.2.4-.4m0 0 .4-.3.2-.1.2-.2m0 0 .2-.3.2-.2.2-.3.2-.3m0 0 .2-.2.1-.2.3-.2.1-.2m0 0 .2-.4.2-.3.2-.4.2-.4m0 0 .2-.3.2-.2.1-.3.1-.2.1-.1m0 0 .1-.2.1-.3.2-.5.2-.5.2-.5m0 0 .2-.4.2-.3.2-.4.2-.4m0 0 .1-.4.2-.4.2-.4.1-.3.1-.2m0 0 .1-.3.1-.3.2-.7.2-.8.1-.3.1-.3m0 0 .1-.3.1-.3.1-.5.1-.2.2-.3v-.3l.1-.3m0 0 .1-.4.1-.4.1-.4.1-.5.2-.9.1-.4.1-.4m0 0 .1-.4.1-.3.2-.6.1-.3.1-.4.1-.3.1-.4m0 0 .1-.4v-.5l.2-.6v-.5l.2-1.1.1-.5.1-.5m0 0 .1-.5.1-.4.2-.7.1-.3.1-.4.1-.5.1-.5m0 0 .1-.5.1-.6.1-.6.1-.7.1-.7.1-.6v-.6l.2-.6m0 0 .1-.5v-.5l.1-.4.1-.4.1-.4.1-.5.1-.5.1-.5m0 0 .1-.7.1-.7.1-.7.1-.8.1-.8.1-.8.1-.7.1-.7m0 0 .1-.6.1-.6.1-.5v-.5l.2-.5.1-.5v-.6l.1-.7m0 0 .2-.7v-.9l.1-.9.1-.9.1-.9.1-.9.1-.9.1-.8m0 0 .1-.7.1-.7.1-.6.1-.5.1-.7.1-.6.1-.7v-.4l.1-.4m0 0v-.4l.1-.5.1-.9.1-1.1v-1l.1-1.1.1-1 .1-1 .1-1m0 0 .1-.4v-.4l.1-.8.1-.8.1-.7.1-.7.1-.8v-.4l.1-.5.1-.4v-.5m0 0v-.6l.1-.5v-.6l.1-.6.1-1.3.1-1.3.1-1.3.1-1.4v-1.2l.1-.6.1-.6m0 0v-.5l.1-.5v-1l.1-.8.1-.9.1-.9.1-.9.1-.5v-.5l.1-.5v-.7m0 0 .1-.6v-.7l.1-.7v-.7l.1-1.6.1-1.6.1-1.6.1-1.6v-.8l.1-.7v-.7l.1-.7m0 0v-.6l.1-.7v-.5l.1-.6.1-1v-1.1l.1-1 .1-1.1.1-.6v-.6l.1-.6v-.7m0 0v-.8l.1-.7.1-.8v-.9l.1-1.7.1-1.8.1-1.8.1-1.8v-.8l.1-.8v-.8l.1-.8m0 0v-.7l.1-.7v-.6l.1-.6.1-1.2v-1.1l.1-1.1.2-1.2v-1.3l.1-.6v-.8m0 0 .1-.8v-.8l.1-.8v-.9l.1-.9v-1l.1-1.9.1-1.9v-.9l.1-.9.1-.9v-.9l.1-.8v-.8m0 0v-.7l.1-.7v-.6l.1-.6.1-1.2.1-1.1.1-1.1.1-1.1v-.6l.1-.6v-.6l.1-.7m0 0V44l.1-.8v-1.6l.2-1.7v-1.7l.1-1.7.1-.8v-.8l.1-.8v-.8l.1-.6V32m0 0 .1-.6v-.6l.1-.5v-.6l.1-.9.1-.9.1-.9.1-.8.1-.9.1-.9m0 0 .1-1 .1-1 .1-1.1v-1.1l.2-1 .1-1v-.9l.1-.4v-.3m0 0 .2-.7v-.5l.1-.5.1-.5.1-.4.1-.3.2-.7m0 0 .2-.7.1-.3.1-.3.1-.2.1-.2.1-.2h.1m0 0 .2.1.1.1v.2l.1.2.2.3.1.6m0 0 .1.2v.2l.1.6.1.6.1.7.1.7.1.8.1.7.1.7m0 0 .1.7.1.6.1.7.1.6.1.8.1.7.1.8v.5l.1.5m0 0v.5l.1.5V26l.2 1.2v1.3l.1 1.4.1 1.3.1 1.3.1.6v.6m0 0 .1.6v.5l.1 1 .1 1 .1.9.1 1 .1 1v.6l.1.5.1.6v.7m0 0v.6l.1.7v.8l.1.7.1 1.7.1 1.6.1 1.7.1 1.5V53l.1.7.1.7m0 0v.6l.1.6v1.2l.1 1 .1 1 .1 1 .1 1.1.1.5v.6l.1.6v.6m0 0 .1.7v.7l.1.7v.8l.1 1.5.1 1.6.1 1.6.1 1.6v.7l.1.7v.7l.1.6m0 0v.6l.1.6v.6l.1.5.1.9v1l.1.9.2.9v1l.1.5v.5m0 0 .1.6v.6l.1 1.3.1 1.3.1 1.3.1 1.4.1 1.3.1.6v.5l.1.6v.6m0 0v.5l.1.4v.5l.1.4.1.8.1.8v.7l.1.8.1.7.1.9m0 0 .1 1 .1 1 .1 1 .1 1.1.1 1.1.1 1 .1.9.1.5v.4m0 0v.4l.1.4.1.6.1.7.1.5.1.6.1.6v.6l.2.6m0 0 .1.8v.8l.1.8.1.9.1.8.1.9.1.7.1.7m0 0 .1.6.1.6.1.4.1.5.1.5.1.4.1.5.1.6m0 0 .1.6.1.7.1.6v.7l.2.7.1.7v.7l.1.5m0 0 .2.5v.5l.1.5.1.4.1.4.1.4.1.4.1.5m0 0 .1.5.1.6.1.6.1.6.1.6.1.6.1.6.1.5m0 0 .1.5.1.4.1.4v.4l.3.8v.4l.1.4m0 0 .1.5.1.5.2 1.1.2 1.1.1.5.1.4m0 0 .1.5.1.4.2.7.2.7.2.7m0 0 .1.7.2.7.2.7.2.7m0 0 .1.5.1.4.2 1 .1.4.1.5.1.4.1.4m0 0 .1.4.1.3.1.3v.2l.3.6v.3l.1.3m0 0 .2.3v.4l.2.8.2.7.1.4.1.3m0 0 .1.3.1.2.2.5.2.4.1.3.1.2m0 0 .1.4.1.3.1.6.3.7v.2l.1.3m0 0 .1.2.1.2.2.4.2.3.2.3m0 0 .2.4.2.5.2.4.2.4m0 0 .1.3.3.2.1.3.2.2m0 0 .2.3.2.3.2.3.2.2m0 0 .1.2.2.1.2.2.2.1m0 0 .2.2.2.2.2.2.2.1m0 0 .2.1h.1l.3.1h.1m0 0 .4.2.2.1h.2m0 0h.8m0 0 .3-.1.4-.1m0 0 .4-.1h.2l.2-.1m0 0 .2-.2.2-.1.2-.2.2-.2m0 0 .1-.1.2-.2.2-.1.2-.2m0 0 .2-.2.2-.2.2-.3.2-.2m0 0 .2-.2.1-.2.3-.2.1-.3m0 0 .2-.4.2-.3.2-.4.2-.4m0 0 .2-.3.2-.3.2-.3.2-.3m0 0 .1-.2v-.3l.2-.5.2-.5.2-.4m0 0 .1-.2.1-.2.2-.3.2-.3.1-.3.1-.2m0 0 .1-.2.1-.3.2-.5.2-.6v-.3l.2-.2m0 0 .1-.5.2-.4.2-.4.1-.2.1-.3m0 0 .1-.2.1-.3.2-.7.2-.6.2-.5m0 0 .2-.5.1-.5.3-.5v-.2l.1-.3m0 0 .2-.3v-.3l.2-.7.2-.7.1-.3.1-.3m0 0 .1-.3.1-.2.2-.4.2-.5v-.2l.1-.3m0 0 .1-.3.1-.3.2-.7.2-.7.1-.4.1-.3m0 0 .1-.2.1-.3.2-.5.2-.5.1-.2.1-.3m0 0 .1-.3v-.4l.2-.7.2-.7.1-.4.1-.3m0 0 .1-.3.1-.3.2-.4.2-.4.1-.3.1-.3m0 0 .1-.3.1-.4.1-.7.3-.7v-.4l.1-.3m0 0 .2-.2v-.3l.2-.4.2-.4.1-.2.1-.3m0 0 .1-.3.1-.3.2-.7.2-.7.1-.4.1-.3m0 0 .1-.2.1-.3.1-.4.3-.4v-.3l.1-.2m0 0 .1-.3.1-.3.2-.7.2-.6.1-.3.1-.3m0 0 .1-.3.1-.2.2-.5.2-.4.2-.5m0 0 .1-.6.2-.6.2-.6.1-.3.1-.2m0 0 .1-.3.1-.2.2-.4.2-.4.2-.4m0 0 .2-.5.2-.5.2-.6.2-.5m0 0 .1-.4.2-.4.2-.3.2-.4m0 0 .2-.5.2-.5.2-.5.1-.3.1-.2m0 0 .2-.4.1-.3.3-.3.1-.4m0 0 .2-.5.2-.4.2-.5.1-.2.1-.2m0 0 .1-.2.1-.1.2-.3.2-.2.1-.2.1-.2m0 0 .1-.2v-.2l.3-.4.1-.5.1-.2.1-.2m0 0 .1-.1.1-.1.2-.3.2-.2.2-.3m0 0 .1-.3.2-.4.2-.3.2-.4m0 0 .2-.2.2-.2.2-.2.2-.2m0 0 .2-.3.1-.4.3-.3.1-.3m0 0 .2-.3.2-.1.2-.2.2-.2m0 0 .2-.2.2-.3.2-.3.2-.3m0 0 .1-.1.2-.2.2-.1.2-.2m0 0 .2-.2.2-.2.2-.3.2-.2m0 0 .2-.1.2-.2.4-.3m0 0 .3-.3.4-.3m0 0 .2-.1.2-.1.2-.1.2-.1m0 0 .2-.2.1-.1.3-.2.1-.1m0 0 .2-.1.2-.1.2-.1h.2m0 0 .4-.2.4-.2m0 0 .2-.1h.1l.3-.1h.1m0 0 .2-.1.2-.2.2-.1.2-.1m0 0 .2-.1h.2l.4-.1m0 0 .3-.1.4-.1m0 0h.4l.4-.1m0 0 .3-.1h.4m0 0h.6l.2-.1m0 0h.2l.2-.1.2-.1h.1m0 0h.8m0 0 .8.1m0 0 .3.1.2.1h.2m0 0h.8m0 0h.8m0 0 .7.1m0 0h.8m0 0 .2.1.1.1h.3l.1.1m0 0 .4.1.4.1m0 0 .4.1.2.1.2.1m0 0h.3l.4.1m0 0h.4l.4.1m0 0 .4.2.4.1m0 0 .1.1.2.2.2.1.2.1m0 0 .2.1h.2l.2.1h.2m0 0 .2.1.1.2.3.1.1.1m0 0h.6l.2.1m0 0h.2l.2.2.2.1.2.1m0 0 .4.1.3.2m0 0 .4.2.4.2m0 0 .3.1.4.2m0 0 .4.1.4.2m0 0 .3.2h.3l.1.1m0 0 .2.1.2.1.4.2m0 0 .2.1.2.1.2.1.2.1m0 0 .2.1.1.1.4.4m0 0 .4.2.4.3m0 0 .4.3.4.3m0 0 .1.2.2.1.2.1.2.1m0 0 .2.2.2.2.4.4m0 0 .3.4.4.3m0 0 .4.3.4.3m0 0 .4.3.4.4m0 0 .2.1.1.1.3.2.1.1m0 0 .2.2.2.2.2.2.2.2m0 0 .2.1.2.1.2.1.2.2m0 0 .1.2.2.2.2.2.2.2m0 0 .2.1.2.2.2.1.2.1m0 0 .2.2.2.3.2.2.2.3m0 0 .1.2.3.1.1.2.2.2m0 0 .4.4.3.4m0 0 .4.4.2.2.2.2m0 0 .2.2.2.3.2.2.2.3m0 0 .1.1.2.1.2.2.2.1m0 0 .2.3.2.3.2.3.2.2m0 0 .2.2.2.2.2.2.2.2m0 0 .1.3.2.2.2.3.2.2m0 0 .2.2.2.2.2.2.2.2m0 0 .2.3.1.2.4.5m0 0 .4.4.4.5m0 0 .4.5.4.5m0 0 .3.4.3.3.1.2m0 0 .2.3.2.3.2.3.2.2m0 0 .2.3.2.2.2.2.2.3m0 0 .1.2.2.3.2.3.2.3m0 0 .2.2.2.2.2.2.2.3m0 0 .2.2.1.3.4.6m0 0 .4.5.4.5m0 0 .2.3.2.3.2.3.2.3m0 0 .2.2.2.2.2.2.1.2m0 0 .2.3.2.3.2.3.2.3m0 0 .1.2.2.2.2.3.2.2m0 0 .2.3.2.3.4.6m0 0 .2.3.2.4.2.3.2.3m0 0 .1.2.2.1.2.2.2.2m0 0 .2.3.2.3.2.3.2.3m0 0 .2.3.2.2.2.2.2.2m0 0 .1.3.2.4.2.3.2.3m0 0 .2.2.2.2.2.3.2.2m0 0 .2.3.1.3.3.4.1.3m0 0 .2.2.2.2.2.3.2.2m0 0 .2.3.2.4.2.3.2.3m0 0 .1.3.2.2.2.2.2.2m0 0 .2.3.2.3.2.3.2.3m0 0 .2.2.2.2.2.2.2.2m0 0 .1.3.2.4.2.3.2.3m0 0 .2.2.2.2.2.2.2.3m0 0 .2.3.1.3.3.3.1.3m0 0 .2.2.2.2.2.2.2.2m0 0 .2.3.2.3.2.4.2.3m0 0 .1.2.3.2.1.2.2.3m0 0 .2.2.2.3.2.3.2.3m0 0 .1.2.2.2.2.3.2.2m0 0 .2.3.2.3.2.3.2.3m0 0 .2.2.1.2.3.2.1.2m0 0 .2.2.2.3.2.3.2.3m0 0 .2.2.2.2.2.2.2.2m0 0 .2.3.1.2.3.3.1.3m0 0 .2.2.2.1.2.3.2.2m0 0 .2.2.2.4.2.3.2.2m0 0 .1.2.2.2.2.1.2.2m0 0 .2.3.2.3.2.3.2.3m0 0 .3.5.3.3.1.2m0 0 .2.2.2.2.2.2.2.2m0 0 .2.2.2.3.2.3.2.2m0 0 .2.2.1.2.3.2.1.2m0 0 .2.2.2.3.2.2.2.2m0 0 .2.3.2.1.2.2.2.2m0 0 .1.2.2.2.2.3.2.2m0 0 .2.2.2.2.2.2.2.1m0 0 .4.5.2.2.2.2m0 0 .1.1.2.2.2.1.2.2m0 0 .2.2.1.2.3.3.1.2m0 0 .2.1.2.2.2.1.2.2m0 0 .2.2.2.3.2.2.2.2m0 0 .3.4.4.4m0 0 .2.2.2.1.2.1.2.2m0 0 .2.2.2.2.2.3.2.2m0 0 .3.3.4.4m0 0 .4.4.4.3m0 0 .3.3.4.4m0 0 .2.2.2.2.2.2.2.2m0 0 .2.1.2.1.2.2.2.1m0 0 .2.2.1.2.3.2.1.2m0 0 .2.1.2.1.2.2.2.1m0 0 .2.2.2.2.2.2.2.2m0 0 .3.3.4.3m0 0 .4.4.2.2.2.2m0 0 .2.1.1.1.3.2.1.1m0 0 .2.2.2.2.2.2.2.2m0 0 .4.4.4.3m0 0 .2.1.2.1.2.1.1.1m0 0 .2.2.2.1.2.2.2.1m0 0 .3.3.4.2m0 0 .8.5m0 0 .7.4m0 0 .8.4m0 0 .4.1.4.2m0 0 .2.1.1.1.4.3m0 0 .4.2.4.2m0 0 .4.3.4.2m0 0 .3.2.4.2m0 0 .4.2.4.3m0 0 .4.2.4.2m0 0 .3.2.4.3m0 0 .4.2.2.2.2.1m0 0 .2.1.1.1.4.2m0 0 .4.2.4.2m0 0 .4.2.4.1m0 0 .3.2.4.2m0 0 .4.1.4.2m0 0 .4.1.4.2m0 0 .3.1.4.2m0 0 .3.2.4.2m0 0h.2l.2.1h.2l.2.1m0 0 .2.1.2.1.2.1.2.1m0 0 .2.1h.1l.3.1h.1m0 0 .4.2.4.2m0 0 .4.2.4.1m0 0 .7.3m0 0 .4.2.4.2m0 0 .3.1.4.1m0 0 .8.2m0 0 .4.1.4.1m0 0h.2l.1.1.3.1.1.1m0 0 .4.1h.4m0 0 .4.2.4.1m0 0 .3.1.4.1m0 0 .4.1.4.2m0 0 .4.1.3.1m0 0 .8.3m0 0 .4.2.4.1m0 0h.2l.1.1h.4m0 0 .2.1.2.1.2.1.2.1m0 0 .3.1h.4m0 0 .4.1.4.2m0 0 .4.1h.4m0 0 .7.2m0 0 .8.2m0 0 .3.2.4.1m0 0h.4l.4.1m0 0 .4.1.4.1m0 0 .3.1.4.1m0 0h.4l.4.1m0 0 .8.1m0 0 .7.2m0 0 .8.2m0 0 .7.1m0 0 .8.1m0 0 .8.2m0 0 .3.1h.4m0 0 .4.1h.4m0 0 .8.1m0 0 .3.1.4.1m0 0 .3.1h.4m0 0 .4.1h.4m0 0 .8.1m0 0 .7.1m0 0 .4.1.4.1m0 0 .8.1m0 0 .7.1m0 0 .8.1m0 0h.8m0 0 .3.1.4.1m0 0h.4l.4.1m0 0h.7m0 0 .4.1h.4m0 0 .4.1h.4m0 0h.3l.4.1m0 0h.4l.4.1m0 0h.8m0 0 .7.1m0 0h.4l.4.1m0 0 .7.1m0 0h.8m0 0 .7.1m0 0 .8.1m0 0 .4.1h.4m0 0h.7m0 0h.4l.4.1m0 0h.7m0 0 .8.1m0 0 .8.1m0 0h.7m0 0 .8.1m0 0h.8m0 0 .7.1m0 0h.8m0 0 .7.1m0 0h.8m0 0 .8.1m0 0h.7m0 0h.8m0 0 .4.1h.4m0 0 .7.1m0 0h.8m0 0h.7m0 0h.8m0 0 .7.1m0 0h.8m0 0 .8.1m0 0h.7m0 0h.8m0 0h.4l.4.1m0 0h.7m0 0h.8m0 0h.7m0 0 .8.1m0 0h.8m0 0h.3l.4.1m0 0h.8m0 0h.8m0 0h.7m0 0h.8m0 0h.7m0 0 .4.1h.4m0 0h.7m0 0h.8m0 0h.8m0 0h.7m0 0 .8.1m0 0h.7m0 0h.8m0 0h.8m0 0h.7" style="stroke:#b2b2b2;fill:none;stroke-miterlimit:10;stroke-width:.7087;stroke-linejoin:round" id="white"/><path id="blue_00000070100866158284393000000001698052860426284166_" d="M110.9 208.9c.3-.1.5-.2.8-.3.3-.1.5-.2.8-.3.3-.1.5-.2.8-.2.3 0 .5.1.8.2h.8c.3 0 .5.2.8.2.3 0 .5-.4.8-.4.3 0 .5.3.8.4.3 0 .5-.2.8-.3.3 0 .5 0 .8.1.3 0 .5.2.8.2.3 0 .5.1.8.1.3 0 .5 0 .8-.1.3 0 .5-.2.8-.2.3 0 .5.1.8.2.3 0 .5.1.8.1.3 0 .5 0 .8-.1.3 0 .5-.2.8-.2h2.4c.3 0 .5-.1.8-.1.3 0 .5.1.8.2.3.1.5.2.8.2.3 0 .5-.4.8-.5.3 0 .5.1.8.2.3.1.5.2.8.2h.8c.3 0 .5.1.8.1.3 0 .5-.1.8-.1.3 0 .5.1.8.2.3 0 .5.1.8 0 .3 0 .5-.2.8-.3.3-.1.5-.2.8-.2.3 0 .5.1.8.1h.8c.3 0 .5.1.8.1h1.6c.3 0 .5.1.8.2.3 0 .5.1.8.1.3 0 .5-.1.8-.1h.8c.3 0 .5-.1.8-.1.3 0 .5.1.8.1.3 0 .5 0 .8-.1h.8c.3 0 .5.1.8.1.3 0 .5-.1.8-.1h.8c.3 0 .5-.1.8-.1h2.4c.3 0 .5-.1.8-.1.3 0 .5 0 .8-.1h1.6c.3 0 .5 0 .8-.1.3 0 .5-.1.8-.2s.5 0 .8-.1c.3-.1.5-.2.8-.2.3-.1.5-.1.8-.1.3 0 .5-.1.8-.1.3-.1.5-.1.8-.2.3-.1.5-.2.8-.4.3-.2.5-.4.8-.5.3-.1.5-.2.8-.3.3-.1.5-.3.8-.4.3-.2.5-.3.8-.5.3-.2.5-.5.8-.7.3-.2.5-.4.8-.7.3-.3.5-.7.8-1.1.3-.4.5-.7.8-1 .3-.4.5-.6.8-1.1.3-.5.5-1.2.8-1.8.3-.6.5-1.1.8-1.7.3-.6.5-1.2.8-1.9.3-.7.5-1.5.8-2.4.3-.9.5-1.8.8-2.8.3-1 .5-2.1.8-3.3.3-1.1.5-2.1.8-3.4.3-1.3.5-2.9.8-4.4.3-1.5.5-3.1.8-4.8.3-1.7.5-3.3.8-5.2.3-1.9.5-4 .8-6.2.3-2.2.5-4.4.8-6.8.3-2.4.5-5 .8-7.6.3-2.6.5-5.3.8-8.2.3-2.9.5-6.2.8-9.4.3-3.2.5-6.5.8-10 .3-3.5.5-7.5.8-11.3.3-3.8.5-7.6.8-11.5.3-4 .5-8.1.8-12.2.3-4.1.5-8.3.8-12.6.3-4.4.5-9.2.8-13.5.3-4.2.5-8.1.8-12 .3-3.9.5-7.9.8-11.5.3-3.6.5-7.5.8-10.3.3-2.8.5-4.7.8-6.8.3-2 .5-4.1.8-5.3.2-1.2.5-1.9.8-2.1.2-.2.6 0 .8.6.3.9.5 3 .8 5.1.3 2.1.5 4.5.8 7.5.3 2.9.5 6.5.8 10.1.3 3.6.5 7.4.8 11.6.3 4.1.5 8.8.8 13.2.3 4.4.5 9.1.8 13.4.3 4.4.5 8.5.8 12.7.3 4.2.5 8.7.8 12.5.3 3.9.5 7.2.8 10.7.3 3.5.5 7.2.8 10.3.3 3.1.5 5.8.8 8.4.3 2.7.5 5.3.8 7.7.3 2.4.5 4.7.8 6.8.3 2.1.5 4 .8 5.9.3 1.9.5 3.9.8 5.6.3 1.7.5 3.2.8 4.8.3 1.6.5 3.2.8 4.7.3 1.5.5 3 .8 4.4.3 1.4.5 2.9.8 4.2.3 1.3.5 2.5.8 3.7.3 1.2.5 2.4.8 3.5.3 1.1.5 2.3.8 3.3.3 1 .5 2 .8 2.8.3.9.5 1.7.8 2.5.3.8.5 1.7.8 2.5.3.8.5 1.4.8 2.1.3.6.5 1.2.8 1.7.3.5.5 1.1.8 1.6.3.5.5 1 .8 1.4.3.4.5.8.8 1.2.3.4.5.6.8 1 .3.3.5.8.8 1.1l.8.8c.3.3.5.5.8.7.3.3.5.6.8.9.3.2.5.4.8.6.3.2.5.5.8.7s.5.3.8.4c.3.2.5.4.8.6.3.2.5.4.8.5.3.1.5.2.8.3.3.1.5.3.8.4.3.1.5.2.8.3.3.1.5.2.8.3.3.1.5.2.8.2.3.1.5.1.8.2.3.1.5.2.8.2.3.1.5.1.8.1.3 0 .5.1.8.2.3 0 .5 0 .8.1.3.1.5.2.8.2.3 0 .5 0 .8.1.3 0 .5.1.8.1.3 0 .5 0 .8.1.3 0 .5 0 .8.1.3 0 .5.1.8.1.3 0 .5.1.8.1.3 0 .5 0 .8.1.3 0 .5 0 .8.1h.8c.3 0 .5.1.8.1h5.6c.3 0 .5.1.8.1h.8c.3 0 .5 0 .8.1h1.6c.3 0 .5 0 .8.1h4" style="fill:none;stroke:#212d56;stroke-width:.7087;stroke-linecap:round;stroke-linejoin:round;stroke-miterlimit:10"/></g><g id="Text"><text transform="matrix(1 0 0 1.0029 27.353 221.129)" class="st11 st9 st10">250</text><text transform="matrix(1 0 0 1.0029 65.32 221.129)" class="st11 st9 st10">300</text><text transform="matrix(1 0 0 1.0029 103.65 221.129)" class="st11 st9 st10">350</text><text transform="matrix(1 0 0 1.0029 141.617 221.129)" class="st11 st9 st10">400</text><text transform="matrix(1 0 0 1.0029 179.584 221.129)" class="st11 st9 st10">450</text><text transform="matrix(1 0 0 1.0029 217.555 221.129)"><tspan x="0" y="0" class="st11 st9 st10">5</tspan><tspan x="5" y="0" class="st11 st9 st10">00</tspan></text><text transform="matrix(1 0 0 1.0029 255.522 221.129)"><tspan x="0" y="0" class="st11 st9 st10">5</tspan><tspan x="5" y="0" class="st11 st9 st10">50</tspan></text><text transform="matrix(1 0 0 1.0029 293.489 221.129)"><tspan x="0" y="0" class="st11 st9 st10">6</tspan><tspan x="5" y="0" class="st11 st9 st10">00</tspan></text><text transform="matrix(1 0 0 1.0029 331.457 221.129)"><tspan x="0" y="0" class="st11 st9 st10">6</tspan><tspan x="5" y="0" class="st11 st9 st10">50</tspan></text><text transform="matrix(1 0 0 1.0029 369.423 221.129)"><tspan x="0" y="0" class="st11 st9 st10">7</tspan><tspan x="5" y="0" class="st11 st9 st10">00</tspan></text><text transform="matrix(1 0 0 1.0029 407.39 221.129)"><tspan x="0" y="0" class="st11 st9 st10">7</tspan><tspan x="5" y="0" class="st11 st9 st10">50</tspan></text><text transform="matrix(1 0 0 1.0029 445.357 221.129)"><tspan x="0" y="0" class="st11 st9 st10">8</tspan><tspan x="5" y="0" class="st11 st9 st10">00</tspan></text><text transform="matrix(1 0 0 1.0029 483.088 221.129)"><tspan x="0" y="0" class="st11 st9 st10">8</tspan><tspan x="5" y="0" class="st11 st9 st10">50</tspan></text><text transform="matrix(1 0 0 1.0029 521.054 221.129)"><tspan x="0" y="0" class="st11 st9 st10">9</tspan><tspan x="5" y="0" class="st11 st9 st10">00</tspan></text><text transform="matrix(1 0 0 1.0029 559.02 221.129)"><tspan x="0" y="0" class="st11 st9 st10">9</tspan><tspan x="5" y="0" class="st11 st9 st10">50</tspan></text><text transform="matrix(.8877 0 0 1.0029 48.426 246.348)" class="st11 st9 st10">blue</text><text transform="matrix(1 0 0 1.0029 176.79 246.348)" class="st11 st9 st10">infrared</text><text transform="matrix(1 0 0 1.0029 19.576 211.552)" class="st11 st9 st10">0.0</text><text transform="matrix(1 0 0 1.0029 19.576 171.971)" class="st11 st9 st10">0.2</text><text transform="matrix(1 0 0 1.0029 19.576 132.27)" class="st11 st9 st10">0.4</text><text transform="matrix(1 0 0 1.0029 19.576 92.69)" class="st11 st9 st10">0.6</text><text transform="matrix(1 0 0 1.0029 19.576 53.108)" class="st11 st9 st10">0.8</text><text transform="matrix(1 0 0 1.0029 19.576 13.407)" class="st11 st9 st10">1.0</text><text transform="matrix(.9465 0 -.3237 .9492 537.954 234.583)" class="st11 st9" style="font-size:8.9633px">λ</text><text transform="matrix(1 0 0 1.0029 544.944 234.566)"><tspan x="0" y="0" class="st11 st9 st13">[</tspan><tspan x="2.5" y="0" class="st11 st9 st13">nm</tspan><tspan x="14.7" y="0" class="st11 st9 st13">]</tspan></text><text transform="matrix(1 0 0 1.0029 5.661 18.9)" class="st11 st9 st10">I</text><text transform="matrix(1 0 0 1.0029 8.65 20.574)"><tspan x="0" y="0" class="st11 st9 st14">r</tspan><tspan x="2.2" y="0" class="st11 st9 st14">el</tspan></text><text transform="matrix(1 0 0 1.0029 131.004 246.348)" class="st11 st9 st10">white</text><text transform="matrix(1 0 0 1.0029 94.041 246.348)" class="st11 st9 st10">red</text><path style="fill:#f59d23" d="M81.9 238.6h8.5v8.5h-8.5z"/><path style="fill:#b2b2b2" d="M119.6 238.8h8.5v8.5h-8.5z"/><path style="fill:#178ecf" d="M165.5 238.6h8.5v8.5h-8.5z"/><path style="fill:#0a457c" d="M35.9 238.8h8.5v8.5h-8.5z"/></g></svg>