<svg version="1.1" id="Ebene_1" xmlns="http://www.w3.org/2000/svg" x="0" y="0" viewBox="0 0 825 350" style="enable-background:new 0 0 825 350;background-color:#fff" xml:space="preserve"><style>.st2{fill:none;stroke:#000;stroke-width:.75;stroke-miterlimit:3.86}.st4{font-family:Helvetica,Arial,sans-serif}.st5{font-size:14px}</style><path d="M543.8 126.3h-87.5V4.4h-50v121.9H255.8V4.4h-49.5v121.9H6.3m814.3 220h-24.8V224.4H107.3v121.9H6.3m814.3-220H706.3V4.4h-50v121.9h-50" style="fill:none;stroke:#000;stroke-width:2;stroke-miterlimit:3.86"/><path class="st2" d="M255.8 173.1h-49.1"/><path d="M255.4 170.2h.9v5.9h-.9v-5.9zm-49.1 0h.9v5.9h-.9v-5.9z"/><path class="st2" d="M155.8 135.6h-49.1"/><path d="M155.4 132.7h.9v5.9h-.9v-5.9zm-49.1 0h.9v5.9h-.9v-5.9z"/><path class="st2" d="M355.8 135.6h-99.1"/><path d="M355.4 132.7h.9v5.9h-.9v-5.9zm-99.1 0h.9v5.9h-.9v-5.9z"/><path class="st2" d="M455.8 173.1h-49.1"/><path d="M455.4 170.2h.9v5.9h-.9v-5.9zm-49.1 0h.9v5.9h-.9v-5.9z"/><path class="st2" d="M543.3 135.6h-86.6"/><path d="M542.8 132.7h.9v5.9h-.9v-5.9zm-86.5 0h.9v5.9h-.9v-5.9z"/><path class="st2" d="M705.8 173.1h-49.1"/><path d="M705.3 170.2h.9v5.9h-.9v-5.9zm-49 0h.9v5.9h-.9v-5.9z"/><path class="st2" d="M655.8 148.1h-49.1"/><path d="M655.3 145.2h.9v5.9h-.9v-5.9zm-49 0h.9v5.9h-.9v-5.9z"/><path class="st2" d="M793.3 135.6h-86.6"/><path d="M792.8 132.7h.9v5.9h-.9v-5.9zm-86.5 0h.9v5.9h-.9v-5.9z"/><path d="M543.8 126.3h62.5" style="fill:none;stroke:#000;stroke-width:2;stroke-miterlimit:3.86;stroke-dasharray:7.27,4.36"/><g id="text"><text transform="translate(42.41 76.25)" class="st4 st5">Trigger</text><path d="M106.3 82.5v42.1" style="fill:none;stroke:#000;stroke-width:1.44;stroke-miterlimit:3.86;stroke-dasharray:7.27,4.36"/><text transform="translate(106.25 156.08)" class="st4 st5">Startup</text><text transform="translate(6.25 328.08)" class="st4 st5">Frame Active</text><path class="st2" d="M205.8 151.3h-49.1"/><path d="M205.4 148.3h.9v5.9h-.9v-5.9zm-49.1 0h.9v5.9h-.9v-5.9z"/><text transform="translate(162.5 166.87)" class="st4 st5">Reset</text><text transform="translate(225 54.38)" class="st4 st5">1</text><text transform="translate(428.13 54.38)" class="st4 st5">2</text><text transform="translate(678.13 54.38)" class="st4 st5">8</text><text transform="translate(278.13 151.9)" class="st4 st5">Readout</text><text transform="translate(203.13 191.88)" class="st4 st5">Exposure</text><path class="st2" d="M405.8 148.1h-49.1"/><path d="M405.4 145.2h.9v5.9h-.9v-5.9zm-49.1 0h.9v5.9h-.9v-5.9z"/><text transform="translate(362.96 164.41)" class="st4 st5">Reset</text><text transform="translate(468.75 151.9)" class="st4 st5">Readout</text><text transform="translate(403.13 191.88)" class="st4 st5">Exposure</text><text transform="translate(609.38 166.87)" class="st4 st5">Reset</text><text transform="translate(706.25 151.9)" class="st4 st5">Readout</text><text transform="translate(653.13 191.88)" class="st4 st5">Exposure</text></g></svg>