<svg version="1.1" id="Ebene_1" xmlns="http://www.w3.org/2000/svg" xmlns:xlink="http://www.w3.org/1999/xlink" x="0" y="0" viewBox="0 0 992.1 396.9" style="background-color:#fff" xml:space="preserve"><style>.st1{fill:none;stroke:#000;stroke-width:.425;stroke-linecap:round;stroke-linejoin:round;clip-path:url(#SVGID_2_)}.st1,.st2{stroke-miterlimit:10}.st12,.st13,.st2,.st3{fill:none;stroke:#000;stroke-width:.283;stroke-linecap:round;stroke-linejoin:round}.st12{stroke-dasharray:.621,3.107}.st13{stroke-dasharray:.258,1.289}.st24{font-family:Helvetica,Arial,sans-serif}.st25{font-size:14.9996px}.st26{font-size:14.9997px}.st27{font-size:14.9995px}.st28{font-size:10.6165px}</style><path d="M557.4 275.2h-34m0-212.5V261m0-198.3V48.4h34V261m-34 14.2V261m34 14.2V261m371.5 14.2h-42.5" stroke-miterlimit="10" fill="none" stroke="#000" stroke-width=".425" stroke-linecap="round" stroke-linejoin="round"/><defs><path id="SVGID_1_" d="M0 0h992.1v396.9H0z"/></defs><clipPath id="SVGID_2_"><use xlink:href="#SVGID_1_" overflow="visible"/></clipPath><path class="st1" d="M872.3 262.2c.6 7.3 6.7 13 14.1 13m-14.1-13c-.3-3-2.1-5.7-4.8-7-2.7-1.3-5.9-1.2-8.4.5m84-193V261m0-198.4c0-7.8-6.4-14.1-14.2-14.1m-42.5-.1h42.5m-42.5 0c-7.4 0-13.6 5.6-14.2 13m-13.1 6.4c2.5 1.7 5.7 2 8.4.7s4.5-4.1 4.7-7.1m-13.1 6.4C811.8 36 748.3 44.1 710.7 86.9c-37.6 42.8-37.6 106.8 0 149.6s101.1 51 148.4 19.2m27.2-188.9c2.3 0 4.3-1.9 4.3-4.3 0-2.3-1.9-4.3-4.3-4.3-2.3 0-4.3 1.9-4.3 4.3s1.9 4.3 4.3 4.3"/><path class="st1" d="M886.3 68.2c3.1 0 5.7-2.5 5.7-5.7 0-3.1-2.5-5.7-5.7-5.7-3.1 0-5.7 2.5-5.7 5.7m48.3 4.3c2.3 0 4.3-1.9 4.3-4.3 0-2.3-1.9-4.3-4.3-4.3-2.3 0-4.3 1.9-4.3 4.3.1 2.4 2 4.3 4.3 4.3"/><path class="st1" d="M928.9 68.2c3.1 0 5.7-2.5 5.7-5.7 0-3.1-2.5-5.7-5.7-5.7-3.1 0-5.7 2.5-5.7 5.7M795.7 225.6c35.2 0 63.8-28.6 63.8-63.8 0-35.2-28.6-63.8-63.8-63.8-35.2 0-63.8 28.6-63.8 63.8 0 35.2 28.6 63.8 63.8 63.8"/><path class="st1" d="M745.2 107.8c-1.9 0-3.5 1.6-3.5 3.5s1.6 3.5 3.5 3.5 3.5-1.6 3.5-3.5-1.6-3.5-3.5-3.5m0 101c-1.9 0-3.5 1.6-3.5 3.5s1.6 3.5 3.5 3.5 3.5-1.6 3.5-3.5-1.6-3.5-3.5-3.5m100.9 0c-1.9 0-3.5 1.6-3.5 3.5s1.6 3.5 3.5 3.5 3.5-1.6 3.5-3.5c.1-1.9-1.5-3.5-3.5-3.5m0-101c-1.9 0-3.5 1.6-3.5 3.5s1.6 3.5 3.5 3.5 3.5-1.6 3.5-3.5c.1-1.9-1.5-3.5-3.5-3.5m-2.3 132.5c-2.7 0-5 2.2-5 4.9s2.2 4.9 4.9 5c2.7 0 5-2.2 5-4.9.1-2.8-2.2-5-4.9-5m0-166.8c-2.7 0-5 2.2-5 4.9s2.2 5 4.9 5 5-2.2 5-4.9c.1-2.8-2.2-5-4.9-5m-144.5 83.3c-2.7 0-5 2.2-5 4.9s2.2 4.9 4.9 5c2.7 0 5-2.2 5-4.9 0-2.8-2.2-5-4.9-5m229.6 118.4c7.8 0 14.2-6.5 14.2-14.3M883.6 69.3c-6.4 0-11.6 5.2-11.6 11.6m68.6 0c0-6.4-5.2-11.6-11.6-11.6m-45.5 0h45.4M872 106.8V81m0 25.9c0 2.4.7 4.8 1.9 6.8m.1 96.3c18.2-29.6 18.2-66.8 0-96.4m-.1 96.4c-1.3 2.1-1.9 4.4-1.9 6.8m0 25.9v-26m0 25.9c0 6.4 5.2 11.6 11.6 11.6m45.3 0h-45.4m45.4 0c6.4 0 11.6-5.2 11.6-11.6m.1-161.6v161.7m-833.2 32.5h42.5m-.1-.1c7.4 0 13.5-5.6 14.1-13m13.4-6.3c-2.5-1.7-5.7-1.9-8.5-.6-2.7 1.3-4.6 4-4.8 7M93.2 62.7V261m14.1-212.6c-7.8 0-14.1 6.3-14.1 14.1m56.7-14.1h-42.5m56.5 13c-.6-7.3-6.7-13-14.1-13M164 61.5c.3 3 2.1 5.7 4.8 7 2.7 1.3 6 1.1 8.5-.6"/><path class="st1" d="M177.2 255.7c47.2 31.8 110.8 23.6 148.4-19.1 37.6-42.8 37.6-106.8 0-149.6S224.5 36 177.2 67.8"/><path class="st1" d="M240.5 227.7c36.4 0 66-29.5 66-66 0-36.4-29.5-66-66-66-36.4 0-66 29.5-66 66s29.6 66 66 66"/><path class="st1" d="M240.5 225.6c35.2 0 63.8-28.6 63.8-63.8 0-35.2-28.6-63.8-63.8-63.8-35.2 0-63.8 28.6-63.8 63.8 0 35.2 28.6 63.8 63.8 63.8M93.2 260.9c0 7.8 6.3 14.1 14.1 14.1"/><path class="st1" d="M165.4 161.7c0 41.5 33.6 75.2 75.1 75.2 41.5 0 75.2-33.6 75.2-75.1 0-41.5-33.6-75.2-75.1-75.2-41.6 0-75.2 33.6-75.2 75.1"/><path class="st1" d="M129.9 161.7c0 61.1 49.5 110.6 110.6 110.6 61.1 0 110.6-49.5 110.6-110.6 0-61.1-49.5-110.6-110.6-110.6-61 0-110.6 49.5-110.6 110.6"/><path class="st1" d="M138.5 161.7c0 56.3 45.6 102 101.9 102 56.3 0 102-45.6 102-101.9 0-56.3-45.6-102-101.9-102-56.3 0-101.9 45.6-102 101.9M898.9 228c0 .7.6 1.3 1.3 1.3.7 0 1.3-.6 1.3-1.3 0-.7-.6-1.3-1.3-1.3-.7.1-1.3.6-1.3 1.3m-10.9 0c0 .7.6 1.3 1.3 1.3.7 0 1.3-.6 1.3-1.3s-.6-1.3-1.3-1.3c-.7.1-1.3.6-1.3 1.3m9.1 6.6c0 .7.6 1.3 1.3 1.3.7 0 1.3-.6 1.3-1.3 0-.7-.6-1.3-1.3-1.3-.8 0-1.3.6-1.3 1.3m-6.9 0c0 .7.6 1.3 1.3 1.3.7 0 1.3-.6 1.3-1.3 0-.7-.6-1.3-1.3-1.3-.8 0-1.3.6-1.3 1.3"/><path class="st1" d="M894.7 219.9c-5.5 0-10 4.5-10 10s4.5 10 10 10 10-4.5 10-10c0-5.6-4.5-10-10-10"/><path class="st1" d="M907.6 229.9c0-7.1-5.8-12.9-12.9-12.9-7.1 0-12.9 5.8-12.9 12.9 0 7.1 5.8 12.9 12.9 12.9 7.1 0 12.9-5.8 12.9-12.9m-26.9-6.4v13.1m0 0c.4.9.9 1.7 1.5 2.5m0 0l11.2 6.6m0 0c1 .1 1.9.1 2.9 0m11.3-6.6l-11.3 6.6m11.3-6.6c.6-.8 1.1-1.8 1.5-2.7m0-12.9v12.9m0-12.9c-.4-.9-.9-1.7-1.5-2.5"/><path class="st1" d="M882.2 221l11.2-6.6h2.9l11.3 6.6m-25.4 0c-.6.8-1 1.6-1.5 2.5m-357.5-9.2h-4.8m0 6.5l-.4-3.3.4-3.2m0 6.5h5.2m0 2.5h-5.2v-2.5m0 15.5l-.4-6.6.4-6.4m0 13h5.2m-5.2 0v2.5h5.2m-5.2 6.4l-.4-3.2.4-3.2m0 6.4h4.8m-22.3-24.1v17.3m3.6-18.4v19.5m2.1-18.9V239m2.9-18.4V239m1.9-20.6v22.5m2.9-22.5v22.5m2.1-20.3V239m7.2-24.7h-5.2m5.2 30.9h-5.2m-17-24.6c-.3.1-.5.3-.5.6m0 17.2c0 .3.2.6.5.6m0-18.4l3.1-.6m-3.1 19l3.1.5h1.4m0-19.5h-1.4m2.1 19l-.7.5m.7-18.9l-.7-.6m3.6 19h-2.9m4.8-20.6l-1.9 2.2h-2.9m2.9 18.4l1.9 1.9h2.9m0-22.5h-2.9m5 20.6l-2.1 1.9m2.1-20.3l-2.1-2.2m3 2.2h-.9m.9 0c.3 0 .6-.3.6-.6l.1-2.4m-1.6 21.4h.9c.3 0 .6.3.6.6l.1 2.4m368.3 23.2c2.3 0 4.3-1.9 4.3-4.3 0-2.3-1.9-4.3-4.3-4.3-2.3 0-4.3 1.9-4.3 4.3s1.9 4.3 4.3 4.3"/><path class="st1" d="M886.3 266.6c3.1 0 5.7-2.5 5.7-5.7 0-3.1-2.5-5.7-5.7-5.7-3.1 0-5.7 2.5-5.7 5.7m48.3 4.3c2.3 0 4.3-1.9 4.3-4.3 0-2.3-1.9-4.3-4.3-4.3-2.3 0-4.3 1.9-4.3 4.3.1 2.4 2 4.3 4.3 4.3"/><path class="st1" d="M928.9 266.6c3.1 0 5.7-2.5 5.7-5.7 0-3.1-2.5-5.7-5.7-5.7-3.1 0-5.7 2.5-5.7 5.7m-816-194.1c2.3 0 4.3-1.9 4.3-4.3 0-2.3-1.9-4.3-4.3-4.3-2.3 0-4.3 1.9-4.3 4.3.1 2.4 2 4.3 4.3 4.3"/><path class="st1" d="M107.2 68.2c3.1 0 5.7-2.5 5.7-5.7 0-3.1-2.5-5.7-5.7-5.7-3.1 0-5.7 2.5-5.7 5.7m48.4 4.3c2.3 0 4.3-1.9 4.3-4.3 0-2.3-1.9-4.3-4.3-4.3-2.3 0-4.3 1.9-4.3 4.3s1.9 4.3 4.3 4.3"/><path class="st1" d="M149.9 68.2c3.1 0 5.7-2.5 5.7-5.7 0-3.1-2.5-5.7-5.7-5.7-3.1 0-5.7 2.5-5.7 5.7m-37 202.7c2.3 0 4.3-1.9 4.3-4.3 0-2.3-1.9-4.3-4.3-4.3-2.3 0-4.3 1.9-4.3 4.3.1 2.4 2 4.3 4.3 4.3"/><path class="st1" d="M107.2 266.6c3.1 0 5.7-2.5 5.7-5.7 0-3.1-2.5-5.7-5.7-5.7-3.1 0-5.7 2.5-5.7 5.7m48.4 4.3c2.3 0 4.3-1.9 4.3-4.3 0-2.3-1.9-4.3-4.3-4.3-2.3 0-4.3 1.9-4.3 4.3s1.9 4.3 4.3 4.3"/><path class="st1" d="M149.9 266.6c3.1 0 5.7-2.5 5.7-5.7 0-3.1-2.5-5.7-5.7-5.7-3.1 0-5.7 2.5-5.7 5.7"/><path class="st2" d="M273.7 80.5l26.6-45m642.8 282.1v-56.5"/><path class="st3" d="M937 314.2h-35.2"/><path d="M935.6 312.2l7.6 2-7.6 2.1zm-32.4 0l-7.7 2 7.7 2.1z"/><path class="st2" d="M894.8 317.6v-87.5m92.5.1h-92.4"/><path class="st3" d="M984 236.3v31.8"/><path d="M982 237.7l2-7.7 2.1 7.7zm0 29l2 7.7 2.1-7.7z"/><path class="st2" d="M987.3 275.2h-58.4"/><path class="st3" d="M529.2 23.7h22"/><path d="M530.6 25.7l-7.7-2 7.7-2.1zm19.2 0l7.7-2-7.7-2.1z"/><path class="st2" d="M523.1 48.9V22.1m34.4 26.3V22.1"/><path class="st3" d="M115.1 53.1L136 26.3h57.4"/><path d="M118.1 53.3l-7.6 5.7 3.7-8.8z"/><path class="st3" d="M187.1 180.5l107.3-39"/><path d="M189.1 182l-7.9.7 6.5-4.6zm104.7-38.1l6.5-4.5-7.9.7z"/><path class="st3" d="M321.9 73.6l10.7-10.8h38.5"/><path d="M324.3 74.1l-6.8 3.9 3.9-6.9z"/><path class="st3" d="M27.4 269.1V54.7"/><path d="M29.5 267.7l-2.1 7.7-2-7.7zm0-211.6l-2.1-7.7-2 7.7z"/><path class="st2" d="M24.1 48.4h83.1M93.2 314h14.2m-83.3-38.8h83.1m133.3 70.2V166.7m113.3 210.8V166.7M150 316.8V263"/><path class="st3" d="M143.9 314h-30.2"/><path d="M142.5 311.9l7.7 2.1-7.7 2zm-27.4 0l-7.7 2.1 7.7 2z"/><path class="st3" d="M234.2 342.3H99.5"/><path d="M232.8 340.2l7.7 2.1-7.7 2.1zm-131.9 0l-7.7 2.1 7.7 2.1z"/><path class="st3" d="M347.5 373.5h-248"/><path d="M346.1 371.4l7.7 2.1-7.7 2zm-245.2 0l-7.7 2.1 7.7 2z"/><path class="st2" d="M93.2 377.5v-114"/><path class="st3" d="M71.1 314h15.8"/><path d="M85.5 316l7.7-2-7.7-2.1z"/><path class="st2" d="M107.4 317.3v-53.8M500.3 314h22.9m34.1 2.8v-41.6"/><path class="st3" d="M551.2 314h-21.7"/><path d="M549.8 311.9l7.7 2.1-7.7 2zm-18.9 0l-7.7 2.1 7.7 2z"/><path class="st2" d="M500.8 317.3v-78.9"/><path class="st3" d="M478.1 314H494"/><path d="M492.6 316l7.7-2-7.7-2.1z"/><path class="st2" d="M523.2 317.3v-42.1m-457.8-.1v-14.2"/><path class="st3" d="M65.4 68.9v185.8"/><path d="M63.4 70.3l2-7.7 2.1 7.7zm0 183l2 7.6 2.1-7.6z"/><path class="st2" d="M62.1 275.1h45.3"/><path class="st3" d="M65.4 300.6v-19.2"/><path d="M67.5 282.8l-2.1-7.7-2 7.7z"/><path class="st2" d="M62.1 261h45.3M62.1 62.6h45.3"/><path class="st3" d="M359.6 161.6h-4.2"/><path fill="none" stroke="#000" stroke-width=".283" stroke-linecap="round" stroke-linejoin="round" stroke-dasharray=".539,2.696" d="M352.7 161.6h-1.9"/><path fill="none" stroke="#000" stroke-width=".283" stroke-linecap="round" stroke-linejoin="round" stroke-dasharray="8.087,2.696,.539,2.696" d="M349.4 161.6h-96.7"/><path class="st3" d="M251.3 161.6h-4.2m548.1 93v-4.2"/><path fill="none" stroke="#000" stroke-width=".283" stroke-linecap="round" stroke-linejoin="round" stroke-dasharray=".6,2.998" d="M795.2 247.4v-2.1"/><path fill="none" stroke="#000" stroke-width=".283" stroke-linecap="round" stroke-linejoin="round" stroke-dasharray="8.995,2.998,.6,2.998" d="M795.2 243.8v-76.5"/><path class="st3" d="M795.2 165.8v-4.2m94.5 0h-4.2"/><path fill="none" stroke="#000" stroke-width=".283" stroke-linecap="round" stroke-linejoin="round" stroke-dasharray=".576,2.881" d="M882.6 161.6h-2"/><path fill="none" stroke="#000" stroke-width=".283" stroke-linecap="round" stroke-linejoin="round" stroke-dasharray="8.643,2.881,.576,2.881" d="M879.1 161.6H715.8"/><path class="st3" d="M714.3 161.6h-4.2m-148.2.1h-4.3"/><path fill="none" stroke="#000" stroke-width=".283" stroke-linecap="round" stroke-linejoin="round" stroke-dasharray=".599,2.996" d="M554.6 161.7h-2.1"/><path fill="none" stroke="#000" stroke-width=".283" stroke-linecap="round" stroke-linejoin="round" stroke-dasharray="8.988,2.996,.599,2.996" d="M551 161.7h-29.6"/><path class="st3" d="M519.9 161.7h-4.3m370.7-91.5V66"/><path class="st12" d="M886.3 62.9v-2.2"/><path class="st3" d="M886.3 59.2v-4.3m7.7 7.7h-4.3"/><path class="st12" d="M886.6 62.6h-2.2"/><path class="st3" d="M882.9 62.6h-4.3m50.3 7.6V66"/><path class="st12" d="M928.9 62.9v-2.2"/><path class="st3" d="M928.9 59.2v-4.3m7.7 7.7h-4.2"/><path class="st12" d="M929.3 62.6h-2.2"/><path class="st3" d="M925.5 62.6h-4.2m-77.5 21.5v-4.3"/><path class="st13" d="M843.8 78.5v-.9"/><path class="st3" d="M843.8 77v-4.3m5.7 5.7h-4.3"/><path class="st13" d="M843.9 78.4h-.9"/><path class="st3" d="M842.4 78.4h-4.3m-598 58.1v-4.3"/><path fill="none" stroke="#000" stroke-width=".283" stroke-linecap="round" stroke-linejoin="round" stroke-dasharray=".597,2.985" d="M240.1 129.3v-2.1"/><path fill="none" stroke="#000" stroke-width=".283" stroke-linecap="round" stroke-linejoin="round" stroke-dasharray="8.956,2.985,.597,2.985" d="M240.1 125.7V49.5"/><path class="st3" d="M240.1 48.1v-4.3m-23.3 117.8h-4.2"/><path fill="none" stroke="#000" stroke-width=".283" stroke-linecap="round" stroke-linejoin="round" stroke-dasharray=".568,2.841" d="M209.7 161.6h-2"/><path fill="none" stroke="#000" stroke-width=".283" stroke-linecap="round" stroke-linejoin="round" stroke-dasharray="8.523,2.841,.568,2.841" d="M206.3 161.6H89.5"/><path class="st3" d="M88.1 161.6h-4.2m810.9 88.3v-4.2"/><path fill="none" stroke="#000" stroke-width=".283" stroke-linecap="round" stroke-linejoin="round" stroke-dasharray=".45,2.25" d="M894.8 243.4v-1.6"/><path fill="none" stroke="#000" stroke-width=".283" stroke-linecap="round" stroke-linejoin="round" stroke-dasharray="6.749,2.25,.45,2.25" d="M894.8 240.7v-22.2"/><path class="st3" d="M894.8 217.3v-4.2m19.9 17h-4.2"/><path fill="none" stroke="#000" stroke-width=".283" stroke-linecap="round" stroke-linejoin="round" stroke-dasharray=".495,2.475" d="M908 230.1h-1.7"/><path fill="none" stroke="#000" stroke-width=".283" stroke-linecap="round" stroke-linejoin="round" stroke-dasharray="7.424,2.475,.495,2.475" d="M905.1 230.1h-24.5"/><path class="st3" d="M879.3 230.1h-4.2m-345.9-.3H525"/><path fill="none" stroke="#000" stroke-width=".283" stroke-linecap="round" stroke-linejoin="round" stroke-dasharray=".733,3.664" d="M521.3 229.8h-2.5"/><path fill="none" stroke="#000" stroke-width=".283" stroke-linecap="round" stroke-linejoin="round" stroke-dasharray="10.992,3.664,.733,3.664" d="M516.9 229.8h-17.2"/><path class="st3" d="M497.9 229.8h-4.3m392.7 38.8v-4.2"/><path class="st12" d="M886.3 261.2v-2.1"/><path class="st3" d="M886.3 257.5v-4.2m7.7 7.6h-4.3"/><path class="st12" d="M886.6 260.9h-2.2"/><path class="st3" d="M882.9 260.9h-4.3m50.3 7.7v-4.2"/><path class="st12" d="M928.9 261.2v-2.1"/><path class="st3" d="M928.9 257.5v-4.2m7.7 7.6h-4.2"/><path class="st12" d="M929.3 260.9h-2.2"/><path class="st3" d="M925.5 260.9h-4.2m-77.5-8v-4.2"/><path class="st12" d="M843.8 245.6v-2.2"/><path class="st3" d="M843.8 241.9v-4.3m7.7 7.7h-4.3"/><path class="st12" d="M844.1 245.3h-2.2"/><path class="st3" d="M840.4 245.3h-4.3m-136.8-75.9v-4.2"/><path class="st12" d="M699.3 162.1v-2.2"/><path class="st3" d="M699.3 158.3v-4.2m7.6 7.7h-4.2"/><path class="st12" d="M699.6 161.8h-2.2"/><path class="st3" d="M695.9 161.8h-4.3m53.6-42.8v-4.2"/><path class="st12" d="M745.2 111.7v-2.2"/><path class="st3" d="M745.2 107.9v-4.2m7.6 7.7h-4.2"/><path class="st12" d="M745.5 111.4h-2.2"/><path class="st3" d="M741.8 111.4h-4.3m108.6 7.6v-4.2"/><path class="st12" d="M846.1 111.7v-2.2"/><path class="st3" d="M846.1 107.9v-4.2m7.7 7.7h-4.2"/><path class="st12" d="M846.5 111.4h-2.2"/><path class="st3" d="M842.7 111.4h-4.2m7.6 108.6v-4.2"/><path class="st12" d="M846.1 212.6v-2.1"/><path class="st3" d="M846.1 208.9v-4.2m7.7 7.6h-4.2"/><path class="st12" d="M846.5 212.3h-2.2"/><path class="st3" d="M842.7 212.3h-4.2m-93.3 7.7v-4.2"/><path class="st12" d="M745.2 212.6v-2.1"/><path class="st3" d="M745.2 208.9v-4.2m7.6 7.6h-4.2"/><path class="st12" d="M745.5 212.3h-2.2"/><path class="st3" d="M741.8 212.3h-4.3M107.2 70.2V66"/><path class="st12" d="M107.2 62.9v-2.2"/><path class="st3" d="M107.2 59.2v-4.3m7.7 7.7h-4.3"/><path class="st12" d="M107.5 62.6h-2.1"/><path class="st3" d="M103.8 62.6h-4.2m50.3 7.6V66"/><path class="st12" d="M149.9 62.9v-2.2"/><path class="st3" d="M149.9 59.2v-4.3m7.7 7.7h-4.3"/><path class="st12" d="M150.2 62.6H148"/><path class="st3" d="M146.5 62.6h-4.3m-35 206v-4.2"/><path class="st12" d="M107.2 261.2v-2.1"/><path class="st3" d="M107.2 257.5v-4.2m7.7 7.6h-4.3"/><path class="st12" d="M107.5 260.9h-2.1"/><path class="st3" d="M103.8 260.9h-4.2m50.3 7.7v-4.2"/><path class="st12" d="M149.9 261.2v-2.1"/><path class="st3" d="M149.9 257.5v-4.2m7.7 7.6h-4.3"/><path class="st12" d="M150.2 260.9H148"/><path class="st3" d="M146.5 260.9h-4.3"/><text transform="translate(247.059 23.68)" class="st24 st25">Ø 53 - Ø 72 (Luminous area)</text><text transform="translate(911.055 309.03)" class="st24 st25">17</text><text transform="rotate(-90 619.849 -358.968)" class="st24 st25">16</text><text transform="translate(531.889 18.527)" class="st24 st25">12</text><text transform="translate(146.216 21.017)" class="st24 st26">4</text><text transform="translate(158.726 21.017)" class="st24 st26">× M4</text><text transform="translate(339.88 58.998)" class="st24 st25">Ø</text><text transform="translate(355.72 58.998)" class="st24 st25">80</text><text transform="rotate(-19.999 571.325 -551.931)" class="st24 st27">Ø</text><text transform="rotate(-19.999 563.404 -596.849)" class="st24 st27">45</text><text transform="rotate(-90 93.932 75.404)" class="st24 st25">80</text><text transform="translate(95.398 308.88)" class="st24 st25">5</text><text transform="translate(120.478 308.88)" class="st24 st25">15</text><text transform="translate(507.722 308.88)" class="st24 st25">8</text><text transform="translate(531.887 308.88)" class="st24 st25">12</text><text transform="translate(149.231 337.229)" class="st24 st25">52</text><text transform="translate(232.194 367.094)" class="st24 st25">92</text><text transform="rotate(-90 166.082 106.114)" class="st24 st25">5</text><text transform="rotate(-90 114.655 54.687)" class="st24 st25">70</text><text transform="matrix(1.1157 0 0 1 635.25 365.056)" class="st24 st28">Not to scale</text><text transform="matrix(1.1157 0 0 1 635.25 377.796)" class="st24 st28">Dimensions in mm</text></svg>