<svg enable-background="new 0 0 844.1 584.2" style="background-color:#fff" version="1.1" viewBox="0 0 844.1 584.2" xml:space="preserve" xmlns="http://www.w3.org/2000/svg"><style>.st1,.st2{fill:#f6f6f6;stroke:#1d1d1b;stroke-width:.71;stroke-linecap:round;stroke-linejoin:round}.st2{fill:none}.st3{fill:none;stroke-width:.43}.st3,.st4{stroke:#000;stroke-miterlimit:10}.st4,.st5{stroke-width:.43}.st5,.st6,.st7{stroke:#000}.st4{fill:#f6f6f6}.st5{fill:none;stroke-miterlimit:10.0003}.st6,.st7{fill:none;stroke-width:1.42;stroke-miterlimit:10}.st7{stroke-width:.99}.st8{enable-background:new}.st9{font-family:Helvetica,Arial,sans-serif}.st10{font-size:14px}.st11{fill:none;stroke:#000;stroke-miterlimit:10}.st12{font-size:13px}.st13{font-size:5px}</style><g id="a"><path class="st1" d="M324.9 437.7c-.1 1.8 0 24.5 0 24.5H353v-22.8c-.1-7.6 11.9-9 12.9 0v36.1l2.8 2.8H403l2.6-2.6V452c-.1-1.7 1.2-3.1 2.9-3.2s3.1 1.2 3.2 2.9v23.8l2.8 2.7h129.6l2.3-2.8v-36c0-1.9 1.6-3.4 3.5-3.4h249.2V160.8h6.2V110h-6.2V87.2H454v28.1s.2 4.1-4.9 4c-4.9 0-169.6.3-176 0-5.2 0-5.5-3.4-5.5-3.4l-.3-28.8h-58.7V128H204V99.3c.1-.8-.4-1.5-1.2-1.6H158v4.1h2.3l1.5-.9H200s.8.2.8.8v29.5h-24.1v12.2h24.1v4.9h-11.3s-3.4 0-3.4 3.4v36.9s.6 3.2 3.4 3.2H201v5h-24.2V209h24.1v307.9l-1.4 16.2h3.3l1.4-15.9v-49.8h9v-5.3h47.2s-.1-22.2 0-24.4c.1-1.6 1.1-4.1 4-4.1H320c-.1.1 4.9-.5 4.9 4.1h0z"/><path class="st2" d="M395.7 161.9h325.8V436H395.7V161.9z"/><circle class="st2" transform="rotate(-45.001 524.21 301.11)" cx="524.2" cy="301.1" r="57.6"/><circle class="st2" cx="524.2" cy="301.1" r="119.7"/><path class="st2" d="M604.1 212.4c0-.9-2.2 37.3-25.1 70.9m-9.9-18.1c10.4-18.9 16.7-39.4 12.7-68.7m-38.4-13.2c-.5-.8 18.3 32.6 17.2 73.2m-18.1-9.9c-1.5-21.5-7.3-42.1-26.4-64.6m-39.5 9.6c-.8-.4 33 17.5 54 52.3m-20.5 1.4c-12.9-17.3-28.9-31.5-57.2-40.1m-28 29.5c-.9.1 37.3-3.1 73.7 14.8m-16.4 12.3c-20.2-7.6-41.4-10.9-69.8-2.8m-7.7 39.9c-.7.6 29.7-22.7 70-27.4m-7.2 19.2c-21.1 4.5-40.7 13.2-60.2 35.4m15.2 37.7c-.3.9 12.7-35.2 44.1-60.9m4.3 20.1c-15.3 15.2-27.1 33.1-31.5 62.3m33.1 23.5c.3.9-8.4-36.4 4.1-75.1m14.6 14.6c-4.6 21.1-4.9 42.5 7.2 69.5m40.5 1.9c.7.6-26.7-26.1-37.1-65.4m20.1 4.4c7.5 20.2 18.9 38.4 43.6 54.6m35.1-20.4c.9.1-36.6-7.5-66.6-35m19.4-7.1c17.2 13 36.6 22.1 66.2 22.3m18.5-36.1c.8-.4-34.9 13.5-74.9 6.6m12.3-16.5c21.5 1.6 42.7-1.2 67.7-17m-3.8-40.4c.5-.8-22.1 30.2-59.4 46m1.4-20.5c18.9-10.3 35.3-24.1 47.8-50.9M201 191.6v-43.4"/><path class="st3" d="M200.8 137.2h-24.1m628.4 23.6h-46.6V110h46.6v50.8zM734 150.3h24.4v3.7H734v-3.7zm0-16.7h24.4v3.7H734v-3.7zm0-16.8h24.4v3.7H734v-3.7z"/><circle class="st3" cx="284.6" cy="193.6" r="7.2"/><circle class="st3" cx="691.3" cy="104.8" r="11.9"/><circle class="st3" cx="706.9" cy="139.3" r="11.9"/><path class="st3" d="M546 458.5H411.4m-6.1.2H366m48.4.2v13.9h-2.7v-13.9m6.4 0v13.9h-2.7v-13.9m6.4 0v13.9h-2.6v-13.9m6.4 0v13.9h-2.7v-13.9m6.4 0v13.9h-2.7v-13.9m6.4 0v10.8h-2.7v-10.8m6.4 0v13.9H434v-13.9m6.5 0v13.9h-2.7v-13.9m6.4 0v13.9h-2.7v-13.9m6.4 0v13.9h-2.7v-13.9m6.4 0v13.9H449v-13.9m6.4 0v13.9h-2.8v-13.9m6.5 0v13.9h-2.7v-13.9m6.4 0v13.9h-2.7v-13.9m6.4 0v13.9h-2.7v-13.9m6.5 0v13.9h-2.8v-13.9m-93.2.3V473h-2.7v-13.8m-1.3 0V473h-2.7v-13.8m10.4 0V473h-2.7v-13.8m6.3 0V473h-2.7v-13.8m6.3 0V473h-2.6v-13.8m6.3 0V473h-2.7v-13.8m6.3 0V473h-2.7v-13.8m6.4 0V473h-2.7v-13.8m6.4 0V473h-2.7v-13.8m6.3 0V473h-2.7v-13.8m73.2-.3v13.9h-2.7v-13.9m6.4 0v13.9H475v-13.9m6.4 0v10.8h-2.6v-10.8m6.3 0v13.9h-2.7v-13.9m13.9 0v13.9h-2.7v-13.9m6.4 0v13.9h-2.7v-13.9m6.5 0v13.9h-2.7v-13.9m-12.2 0v13.9h-2.7v-13.9m6.4 0v13.9h-2.7v-13.9m17.5 0v13.9h-2.6v-13.9m6.4 0v13.9h-2.7v-13.9m6.4 0v13.9h-2.7v-13.9m6.5 0v13.9H516v-13.9m6.4 0v13.9h-2.7v-13.9m6.4 0v13.9h-2.7v-13.9m6.4 0v13.9h-2.7v-13.9m6.5 0v13.9h-2.7v-13.9m6.3 0v13.9h-2.6v-13.9m6.4 0v10.8h-2.7v-10.8m6.4 0v13.9H542v-13.9M244.5 292h15c1.1 0 2.1.9 2.1 2.1v11.6c0 1.1-.9 2.1-2.1 2.1h-15c-1.1 0-2.1-.9-2.1-2.1v-11.6c0-1.2 1-2.1 2.1-2.1zm0 31.6h15c1.1 0 2.1.9 2.1 2.1v11.6c0 1.1-.9 2.1-2.1 2.1h-15c-1.1 0-2.1-.9-2.1-2.1v-11.6c0-1.2 1-2.1 2.1-2.1zm0 31.6h15c1.1 0 2.1.9 2.1 2.1v11.6c0 1.1-.9 2.1-2.1 2.1h-15c-1.1 0-2.1-.9-2.1-2.1v-11.6c0-1.2 1-2.1 2.1-2.1zm0 31.6h15c1.1 0 2.1.9 2.1 2.1v11.6c0 1.1-.9 2.1-2.1 2.1h-15c-1.1 0-2.1-.9-2.1-2.1v-11.6c0-1.2 1-2.1 2.1-2.1zm79.1-164.7H341c1.5 0 2.7 1.2 2.7 2.7v17.4c0 1.5-1.2 2.7-2.7 2.7h-17.4c-1.5 0-2.7-1.2-2.7-2.7v-17.4c0-1.5 1.2-2.7 2.7-2.7zm-25.8-13.9h10.6c.9 0 1.7-.8 1.7-1.7v-10.6c0-.9-.8-1.7-1.7-1.7h-10.6c-.9 0-1.7.8-1.7 1.7v10.6c0 .9.7 1.6 1.7 1.7zm58.3 87.7h17.5v13.3h-17.5v-13.3zm1.7 0v-6m4.8 6v-6m4.8 6v-6m4.7 6v-6m-14.3 25.5v-6m4.8 6v-6m4.8 6v-6m4.7 6v-6m-85-85.3H307v17.3h-19.9v-17.3zm19.9 1.6h3m-3 4.8h3m-3 4.7h3m-3 4.7h3m-26.1-14.2h3m-3 4.8h3m-3 4.7h3m-3 4.7h3m-.5 8.8h17.3v19.9h-17.3v-19.9zm15.6 19.9v2.9m-4.7-2.9v2.9m-4.7-2.9v2.9m-4.7-2.9v2.9m14.1-26.1v3.1m-4.7-3.1v3.1m-4.7-3.1v3.1m-4.7-3.1v3.1m88.5-50.9h13.3v17.5h-13.3v-17.5zm13.3 1.7h6m-6 4.8h6m-6 4.7h6m-6 4.8h6m-25.5-14.3h6.1m-6.1 4.8h6.1m-6.1 4.7h6.1m-6.1 4.8h6.1m-27-16h13.3v17.5h-13.3v-17.5zm13.3 1.7h6m-6 4.8h6m-6 4.7h6m-6 4.8h6m-25.5-14.3h6.1m-6.1 4.8h6.1m-6.1 4.7h6.1m-6.1 4.8h6.1m.1-43.1h13.3V188h-13.3v-17.5zm13.3 1.7h6m-6 4.8h6m-6 4.8h6m-6 4.7h6m-25.5-14.3h6.1m-6.1 4.8h6.1m-6.1 4.8h6.1m-6.1 4.7h6.1m27.2-18.3h13.3V188h-13.3v-19.8zm13.3 1.9h6m-6 5.4h6m-6 5.4h6m-6 5.4h6m-25.5-16.2h6.1m-6.1 5.4h6.1m-6.1 5.4h6.1m-6.1 5.4h6.1m-20.2 145h17.5v13.3h-17.5v-13.3zm1.7 0v-6m4.8 6v-6m4.8 6v-6m4.7 6v-6m-14.3 25.5v-6m4.8 6v-6m4.8 6v-6m4.7 6v-6M332.7 322h10.5v9.5h-10.5V322zm10.5.9h4.7m-4.7 2.6h4.7m-4.7 2.6h4.7m-4.7 2.6h4.7m-20.1-7.8h4.8m-4.8 2.6h4.8m-4.8 2.6h4.8m-4.8 2.6h4.8m.1 22.9h10.5v9.5h-10.5v-9.5zm10.5.9h4.7m-4.7 2.6h4.7m-4.7 2.6h4.7m-4.7 2.6h4.7m-20.1-7.8h4.8m-4.8 2.6h4.8m-4.8 2.6h4.8m-4.8 2.6h4.8m.1 22.9h10.5v9.5h-10.5v-9.5zm10.5.9h4.7m-4.7 2.6h4.7m-4.7 2.6h4.7m-4.7 2.6h4.7m-20.1-7.8h4.8m-4.8 2.6h4.8m-4.8 2.6h4.8m-4.8 2.6h4.8m23.5-27.2h17.5V380h-17.5v-13.3zm1.7 0v-6m4.8 6v-6m4.8 6v-6m4.7 6v-6m-14.3 25.5v-6.1m4.8 6.1v-6.1m4.8 6.1v-6.1m4.7 6.1v-6.1m-16 21.9h17.5v13.3h-17.5V402zm1.7 0v-5.9m4.8 5.9v-5.9m4.8 5.9v-5.9m4.7 5.9v-5.9m-14.3 25.5v-6.1m4.8 6.1v-6.1m4.8 6.1v-6.1m4.7 6.1v-6.1M244.2 132h17.5v13.3h-17.5V132zm1.7 0v-6m4.8 6v-6m4.7 6v-6m4.8 6v-6m-14.3 25.5v-6m4.8 6v-6m4.7 6v-6m4.8 6v-6M242.8 160h19.1v15h-19.1v-15zm1.9.1v-6.8m5.2 6.8v-6.8m5.2 6.8v-6.8m5.2 6.8v-6.8M244.7 182v-6.8m5.2 6.8v-6.8m5.2 6.8v-6.8m5.2 6.8v-6.8m3.6-15.1H283v15h-19.1v-15zm1.9 0v-6.8m5.2 6.8v-6.8m5.1 6.8v-6.8m5.3 6.8v-6.8M265.8 182v-6.8m5.2 6.8v-6.8m5.1 6.8v-6.8m5.3 6.8v-6.8M775.5 254v6.4h-14.6V254h14.6zm-2.4-.1v6.5m-9.9-6.5v6.5m12.3 2.6v6.5h-14.6V263h14.6zm-2.4-.1v6.5m-9.9-6.5v6.5m12.3 2.6v6.5h-14.6V272h14.6zm-2.4 0v6.4m-9.9-6.4v6.4m12.3 2.7v6.4h-14.6v-6.4h14.6zm-2.4-.1v6.4m-9.9-6.4v6.4m-14 59.6h-6.4v-14.5h6.4V347zm.1-2.4h-6.5m6.5-9.8h-6.5m-2.6 12.2h-6.5v-14.5h6.5V347zm.1-2.4h-6.5m6.5-9.8h-6.5m-2.7 12.2h-6.4v-14.5h6.4V347zm.1-2.4h-6.4m6.4-9.8h-6.4m24.4 31.2h-6.4v-14.6h6.4V366zm.1-2.4h-6.5m6.5-9.8h-6.5m-2.6 12.2h-6.5v-14.6h6.5V366zm.1-2.4h-6.5m6.5-9.8h-6.5m-2.7 12.2h-6.4v-14.6h6.4V366zm.1-2.4h-6.4m6.4-9.8h-6.4"/><circle class="st3" cx="507.4" cy="100.1" r="2.7"/><circle class="st3" cx="498.2" cy="100.1" r="2.7"/><circle class="st3" cx="489.1" cy="100.1" r="2.7"/><circle class="st3" cx="479.9" cy="100.1" r="2.7"/><circle class="st3" cx="470.8" cy="100.1" r="2.7"/><path class="st4" d="m200.8 327.6h-4.4v-4.1h-6.5v-1.9h-25v-15.2h25v-1.8h6.5v-4.1h4.4"/><path class="st3" d="m213.2 302h23.9v24h-23.9m-33.5-19.6v15.2"/><circle class="st5" cx="172.1" cy="314.1" r="2.9"/><path class="st3" d="m189.9 321.7v-15.4m6.5-1.6v18.7"/><path class="st4" d="m200.8 422.4h-4.4v-4.1h-6.5v-1.8h-25v-15.3h25v-1.8h6.5v-4.1h4.4"/><path class="st3" d="m213.2 396.9h23.9v23.9h-23.9m-33.5-19.6v15.3"/><circle class="st5" cx="172.2" cy="408.9" r="2.9"/><path class="st3" d="m189.9 416.5v-15.3m6.5-1.7v18.7"/><path class="st4" d="m200.8 390.8h-4.4v-4.1h-6.5v-1.8h-25v-15.3h25v-1.8h6.5v-4.1h4.4"/><path class="st3" d="m213.2 365.3h23.9v23.9h-23.9m-33.5-19.6v15.3"/><circle class="st5" cx="172.2" cy="377.3" r="2.9"/><path class="st3" d="m189.9 384.9v-15.3m6.5-1.7v18.7"/><path class="st4" d="M200.8 359.2h-4.4v-4.1h-6.5v-1.8h-25V338h25v-1.8h6.5v-4.1h4.4"/><path class="st3" d="M213.2 333.7h23.9v23.9h-23.9M179.7 338v15.3"/><circle class="st5" cx="172.1" cy="345.7" r="2.9"/><path class="st3" d="M189.9 353.3v-15.4m6.5-1.6V355M213 461.9V134.7c0-3.2-3.2-3.1-3.2-3.1h-8.9m-24.2-.5h24.1v12.2h-24.1v-12.2zm24.1 71.7h-24.1m0-6.1h24.1v12.2h-24.1v-12.2zm24.3-5.1h-11.4c-1.9 0-3.4-1.5-3.4-3.4v-36.7c0-1.9 1.5-3.4 3.4-3.4H201"/><path class="st3" d="M208.6 128h14.5v17.4h15.8v48.8h-16.1v17.6H213"/><path class="st3" d="M238.8 186.7h-6.4v2.6h-4.3v-2.6H213m25.8-33.9h-6.4v-2.6h-4.3v2.6H213m10.1-24.8h7.7v17.3m-8 66.5h8v-17.6"/><circle class="st3" cx="432.5" cy="152.8" r="2.7"/><circle class="st3" cx="423.3" cy="152.8" r="2.7"/><circle class="st3" cx="414.1" cy="152.8" r="2.7"/><circle class="st3" cx="405" cy="152.8" r="2.7"/><circle class="st3" cx="395.9" cy="152.8" r="2.7"/><circle class="st3" cx="386.7" cy="152.8" r="2.7"/><circle class="st3" cx="378.3" cy="152.8" r="2.7"/><circle class="st3" cx="369.1" cy="152.8" r="2.7"/><circle class="st3" cx="359.9" cy="152.8" r="2.7"/><circle class="st3" cx="350.8" cy="152.8" r="2.7"/><circle class="st3" cx="341.7" cy="152.8" r="2.7"/><circle class="st3" cx="332.5" cy="152.8" r="2.7"/><circle class="st3" cx="324.1" cy="152.8" r="2.7"/><circle class="st3" cx="314.9" cy="152.8" r="2.7"/><circle class="st3" cx="305.8" cy="152.8" r="2.7"/><circle class="st3" cx="296.6" cy="152.8" r="2.7"/><path class="st3" d="M429.8 161.9c0-.2-.1-.4-.1-.6 0-1.5 1.2-2.7 2.7-2.7s2.7 1.2 2.7 2.7c0 .2 0 .4-.1.5m-14.4.1c0-.2-.1-.4-.1-.6 0-1.5 1.2-2.7 2.7-2.7s2.7 1.2 2.7 2.7c0 .2 0 .4-.1.5m-14.3.1c0-.2-.1-.4-.1-.6 0-1.5 1.2-2.7 2.7-2.7s2.7 1.2 2.7 2.7c0 .2 0 .4-.1.5m-14.4.1c0-.2-.1-.4-.1-.6 0-1.5 1.2-2.7 2.7-2.7s2.7 1.2 2.7 2.7c0 .2 0 .4-.1.5m-11.6 2.2c-1.5 0-2.7-1.2-2.7-2.7s1.2-2.7 2.7-2.7 2.7 1.2 2.7 2.7c0 .2 0 .4-.1.5"/><circle class="st3" cx="386.7" cy="161.3" r="2.7"/><circle class="st3" cx="378.3" cy="161.3" r="2.7"/><circle class="st3" cx="369.1" cy="161.3" r="2.7"/><circle class="st3" cx="359.9" cy="161.3" r="2.7"/><circle class="st3" cx="350.8" cy="161.3" r="2.7"/><circle class="st3" cx="341.7" cy="161.3" r="2.7"/><circle class="st3" cx="332.5" cy="161.3" r="2.7"/><circle class="st3" cx="324.1" cy="161.3" r="2.7"/><circle class="st3" cx="314.9" cy="161.3" r="2.7"/><circle class="st3" cx="305.8" cy="161.3" r="2.7"/><circle class="st3" cx="296.6" cy="161.3" r="2.7"/><circle class="st3" cx="287.5" cy="152.8" r="2.7"/><path class="st3" d="M648.6 123.6h24.7v19.5h-24.7v-19.5zm78.2 50.6h26.8V201h-26.8v-26.8zm29.1-4.2h17.4v21.6h-17.4V170zm-6.2 57.5h18.5v20.1h-18.5v-20.1zm23.5-21.1v6.4h-14.6v-6.4h14.6zm-2.4-.1v6.4m-9.9-6.4v6.4m21.3-15.4v6.5h-14.5v-6.5h14.5zm-2.3-.1v6.5m-9.9-6.5v6.5m17.5 80.6h11.4v56.4h-11.4v-56.4z"/><path class="st6" d="m789.8 295.5h6.8"/><path class="st3" d="m792.1 288.8h2.3v2.3h-2.3v-2.3z"/><path class="st6" d="m789.8 306.8h6.8"/><path class="st3" d="m792.1 300.1h2.3v2.3h-2.3v-2.3z"/><path class="st6" d="m789.8 318.1h6.8"/><path class="st3" d="m792.1 311.4h2.3v2.3h-2.3v-2.3z"/><path class="st6" d="m789.8 329.4h6.8"/><path class="st3" d="M789.8 295.5h-2.4m2.4 11.3h-2.4m2.4 11.3h-2.4m2.4 11.3h-2.4m11.4-33.9h-2.4m2.4 11.3h-2.4m2.4 11.3h-2.4m2.4 11.3h-2.4m-4.3-6.7h2.3v2.3h-2.3v-2.3zm0 11.3h2.3v2.3h-2.3V334zm-3.5 65.9h7.1v10.7h-7.1v-10.7zm-23.4 14.9h5.1v-19.2h-5.1m11.6 10.9h7.1v7.1h-7.1v-7.1zm0-9h7.1v7.1h-7.1v-7.1z"/><path class="st7" d="m721.5 306.9c6.1-8 13.3-49.2 28.2-46.5s21.2 8.4 25.8 27.2 9.7 110.2 4.9 113.4"/><path class="st7" d="m721.5 306.9c6.1-8 15.5-46.5 30.4-43.8s22.7 5.6 27.3 24.4 5.9 119.2 1.1 122.6"/><path class="st3" d="m793.2 399.9v-8.7h-28v4.4h1.4v19.2h-1.4v4.4h28v-8.7"/><circle class="st3" cx="491.1" cy="136.1" r="2.7"/><circle class="st3" cx="484.3" cy="142.9" r="2.7"/><circle class="st3" cx="462" cy="136.1" r="2.7"/><circle class="st3" cx="468.8" cy="142.9" r="2.7"/><path class="st6" d="M471.9 136.1V131m2.3 5.1V131m2.2 5.1V131m2.3 5.1V131m2.3 5.1V131m-9.1 18.6v-5m2.3 5v-5m2.2 5v-5m2.3 5v-5m2.3 5v-5"/><circle class="st3" cx="543.3" cy="136.1" r="2.7"/><circle class="st3" cx="536.5" cy="142.9" r="2.7"/><circle class="st3" cx="514.2" cy="136.1" r="2.7"/><circle class="st3" cx="520.9" cy="142.9" r="2.7"/><path class="st6" d="M524.1 136.1V131m2.2 5.1V131m2.3 5.1V131m2.3 5.1V131m2.2 5.1V131m-9 18.6v-5m2.2 5v-5m2.3 5v-5m2.3 5v-5m2.2 5v-5"/><circle class="st3" cx="743.6" cy="383.1" r="11.9"/><circle class="st3" cx="743.6" cy="419.2" r="11.9"/><path class="st3" d="m248.4 244.8h8.7v14.6h-8.7v-14.6zm8.7 12.2h-8.7m8.7-9.9h-8.7m12.5-2.3h8.7v14.6h-8.7v-14.6zm8.7 12.2h-8.7m8.7-9.9h-8.7m12.5-2.3h8.7v14.6h-8.7v-14.6zm8.8 12.2h-8.7m8.7-9.9h-8.7"/><path class="st2" d="M654.9 436c.4 1.2.8 3.1 6.8 3.1s6.7-2.3 6.8-3.1m-210.1 0c.4 1.2.8 3.1 6.8 3.1s6.7-2.3 6.8-3.1m182.9-274.3c.4-1.2.8-3.1 6.8-3.1s6.7 2.3 6.8 3.1m-210.1 0c.4-1.2.8-3.1 6.8-3.1s6.7 2.3 6.8 3.1"/><path class="st3" d="M730.9 304.2h32.9v25.2h-32.9v-25.2zm-3.9-68.3h18.1c1.2 0 2.3 1 2.3 2.3v18.1c0 1.2-1 2.3-2.3 2.3H727c-1.2 0-2.3-1-2.3-2.3v-18.1c.1-1.3 1.1-2.3 2.3-2.3zM518.2 96.5h8.1v3.6h-8.1v-3.6zm11.3.4h5.6v2.6h-5.6v-2.6zm0 6.4h5.6v2.6h-5.6v-2.6zm0 4.5h5.6v2.6h-5.6v-2.6zm-10.4 0h5.6v2.6h-5.6v-2.6zm-15.8-.7h5.6v2.6h-5.6v-2.6zm-7.4 0h5.6v2.6h-5.6v-2.6zm-9.1 0h5.6v2.6h-5.6v-2.6zm-7.2 0h5.6v2.6h-5.6v-2.6zm38.6-4.3h8.1v3.6h-8.1v-3.6zm20.3-6.3h8.1v3.6h-8.1v-3.6zm11.3.4h5.6v2.6h-5.6v-2.6zm0 6.4h5.6v2.6h-5.6v-2.6zm-11.3-.5h8.1v3.6h-8.1v-3.6zm20.4-6.3h8.1v3.6h-8.1v-3.6zm11.3.4h5.6v2.6h-5.6v-2.6zm0 6.4h5.6v2.6h-5.6v-2.6zm-11.3-.5h8.1v3.6h-8.1v-3.6zm20.3-6.3h8.1v3.6h-8.1v-3.6zm11.3.4h5.6v2.6h-5.6v-2.6zm13.5-.4h8.1v3.6H604v-3.6zm11.3.4h5.6v2.6h-5.6v-2.6zm9-.4h8.1v3.6h-8.1v-3.6zm11.3.4h5.6v2.6h-5.6v-2.6zm2.3 4.6h5.6v2.6h-5.6v-2.6zm-2.3 4.5h5.6v2.6h-5.6V106zm-2 5.8h5.6v2.6h-5.6v-2.6zm12.4-7.6h5.6v2.6H646v-2.6zm8.4-.5h5.6v2.6h-5.6v-2.6zm7.2 0h5.6v2.6h-5.6v-2.6zm-3-7.8h2.6v5.6h-2.6v-5.6zm-68.1 7.4h5.6v2.6h-5.6v-2.6zm-11.3-.5h8.1v3.6h-8.1v-3.6zm68.7-7.2h5.5v5.5h-5.5v-5.5zm.9 14.9h11.1v5.5h-11.1v-5.5zM666 95.6h5.5v5.5H666v-5.5z"/><circle class="st3" cx="644.6" cy="120.1" r="1.7"/><circle class="st3" cx="643.3" cy="113.7" r="1.7"/><circle class="st3" cx="644.6" cy="125.3" r="1.7"/><circle class="st3" cx="639" cy="126.4" r="1.7"/><circle class="st3" cx="641" cy="131.4" r="1.7"/><circle class="st3" cx="641" cy="137" r="1.7"/><circle class="st3" cx="649.8" cy="120.1" r="1.7"/><circle class="st3" cx="658.9" cy="120.1" r="1.7"/><circle class="st3" cx="664.3" cy="117.4" r="1.7"/><circle class="st3" cx="668.8" cy="117.4" r="1.7"/><circle class="st3" cx="664.3" cy="112.2" r="1.7"/><circle class="st3" cx="668.8" cy="112.2" r="1.7"/><path class="st3" d="M296.3 319h10.2v3.9h-10.2V319zm5.1-3.6v3.6m-3.1 3.9v3.8m6.8-3.8v3.8m7.5-7.7h4.1v7h-4.1v-7zm-3.3 3.5h3.3-3.3zm0 2.3h3.3-3.3zm0-4.6h3.3-3.3zm7.4 2.3h3.4-3.4zm0 2.3h3.4-3.4zm0-4.6h3.4-3.4zm-27.5 1.8h3.4v5.8h-3.4V322zm-2.7 2.8h2.7-2.7zm0 1.9h2.7-2.7zm0-3.7h2.7-2.7zm6.1 1.8h2.7-2.7zm0 1.9h2.7-2.7zm0-3.7h2.7-2.7zm-21.2-4h10.3v4.9h-10.3V319zm3.1 4.9V319m4.2 4.9V319m-7.1-14.4h3.9v8.3h-3.9v-8.3zm0 2.5h3.9m-3.9 3.3h3.9m-9.3-3.1h2.2v5.1h-2.2v-5.1zm0 1.5h2.2m-2.2 2.1h2.2m3 37.5h10.3v4.9h-10.3v-4.9zm3.1 4.8v-4.8m4.2 4.8v-4.8m-7.1-14.5h3.9v8.3h-3.9v-8.3zm0 2.5h3.9m-3.9 3.4h3.9m-9.3-3.1h2.2v5.1h-2.2v-5.1zm0 1.5h2.2m-2.2 2.1h2.2m3 39.7h10.3v4.9h-10.3V380zm3.1 4.8V380m4.2 4.8V380m-7.1-14.5h3.9v8.3h-3.9v-8.3zm0 2.5h3.9m-3.9 3.4h3.9m-9.3-3.1h2.2v5.1h-2.2v-5.1zm0 1.5h2.2m-2.2 2.1h2.2m3 39.7h10.3v4.9h-10.3v-4.9zm3.1 4.8v-4.8m4.2 4.8v-4.8m-7.1-14.4h3.9v8.3h-3.9v-8.3zm0 2.5h3.9m-3.9 3.3h3.9m-9.3-3.1h2.2v5.1h-2.2v-5.1zm0 1.5h2.2m-2.2 2.1h2.2m52.9-80.9h5.8v2.5h-5.8v-2.5zm1.8 2.5v-2.5m2.3 2.5v-2.5m-43.1-16.2h4.4v5.6h-4.4v-5.6zm2.2-2.8v2.8m0 5.6v2.7m11.8 40.4h10.2v3.9h-10.2v-3.9zm5.1-3.5v3.5m-3.1 3.9v3.9m6.8-3.9v3.9m7.5-7.8h4.1v7h-4.1v-7zm-3.3 3.5h3.3-3.3zm0 2.3h3.3-3.3zm0-4.5h3.3-3.3zm7.4 2.2h3.4-3.4zm0 2.3h3.4-3.4zm0-4.5h3.4-3.4zm-27.5-2.8h3.4v5.8h-3.4v-5.8zm-2.7 2.8h2.7-2.7zm0 1.9h2.7-2.7zm0-3.7h2.7-2.7zm6.1 1.8h2.7-2.7zm0 1.9h2.7-2.7zm0-3.7h2.7-2.7zm30.4 2.5h2.5v5.8H323v-5.8zm0 1.7h2.5m-2.5 2.4h2.5m-41.4-23.8h4.4v5.6h-4.4v-5.6zm2.2-2.8v2.8m0 5.6v2.6m10 41.1h10.2v3.9h-10.2v-3.9zm5.1-3.5v3.5m-3.1 4v3.8m6.8-3.8v3.8m7.5-7.8h4.1v7h-4.1v-7zm-3.3 3.5h3.3-3.3zm0 2.3h3.3-3.3zm0-4.5h3.3-3.3zm7.4 2.2h3.4-3.4zm0 2.3h3.4-3.4zm0-4.5h3.4-3.4zm-27.5-.6h3.4v5.8h-3.4v-5.8zm-2.7 2.9h2.7-2.7zm0 1.9h2.7-2.7zm0-3.7h2.7-2.7zm6.1 1.8h2.7-2.7zm0 1.9h2.7-2.7zm0-3.7h2.7-2.7zm30.4.2h2.5v5.8H323v-5.8zm0 1.7h2.5m-2.5 2.4h2.5m-36.4-20.9h4.4v5.6h-4.4v-5.6zm2.2-2.8v2.8m0 5.6v2.6m7.9 37.3h10.2v3.9h-10.2v-3.9zm5.1-3.5v3.5m-3.1 4v3.8m6.9-3.8v3.8m7.4-7.8h4.1v7h-4.1v-7zm-3.3 3.5h3.3-3.3zm0 2.3h3.3-3.3zm0-4.5h3.3-3.3zm7.5 2.2h3.3-3.3zm0 2.3h3.3-3.3zm0-4.5h3.3-3.3zm-27.6 1.7h3.4v5.8h-3.4v-5.8zm-2.7 2.9h2.7-2.7zm0 1.8h2.7-2.7zm0-3.7h2.7-2.7zm6.1 1.9h2.7-2.7zm0 1.8h2.7-2.7zm0-3.7h2.7-2.7zm30.4-2h2.5v5.8h-2.5v-5.8zm0 1.7h2.5m-2.5 2.4h2.5m-43.2-18.6h4.4v5.6h-4.4v-5.6zm2.2-2.8v2.8m0 5.6v2.6"/></g><text class="st9 st13" x="218.69041" y="99.932053" font-family="Helvetica, Arial, sans-serif" font-size="5px">Tamb</text><text class="st8" transform="translate(20.012 163.56)"><tspan class="st9 st10" x="0" y="0">D-Sub Micro-D  </tspan><tspan class="st9 st10" x="0" y="16.8">connector (15-pin)</tspan></text><path class="st11" d="m107.6 362.5h35.6m-35.6-108.2h69.1m-35.9-82.9h39"/><text class="st8" transform="translate(20.012 356.64)"><tspan class="st9 st10" x="0" y="0">Micro-BNC  </tspan><tspan class="st9 st10" x="0" y="16.8">connectors</tspan></text><text class="st9 st10" transform="translate(351.9 547.26)">DMA 7800</text><text class="st9 st10" transform="translate(351.9 564.06)">PCIe 3.0 x8</text><path class="st11" d="m386.7 470.1v59.2"/><text class="st8" transform="translate(729.97 21.548)"><tspan class="st9 st10" x="0" y="0">PCIe power  </tspan><tspan class="st9 st10" x="0" y="16.8">connector (6-pin)</tspan></text><path class="st11" d="m779.9 45.3v75.3"/><path class="st11" d="m536.3 34.3v63.9"/><path class="st11" d="m224.92 50.205v41.013" fill="none" stroke="#000" stroke-miterlimit="10" stroke-width=".80114"/><text class="st8" transform="translate(20.012 249.5)"><tspan class="st9 st10" x="0" y="0">LEDs on the </tspan><tspan class="st9 st10" x="0" y="16.8">slot bracket</tspan></text><path class="st1" d="m196.4 226.1h4.4v10.7h-4.4zm0 15h4.4v10.7h-4.4zm0 15h4.4v10.7h-4.4zm0 15h4.4v10.7h-4.4z"/><text class="st9 st12" transform="translate(181.8 236.4)">1</text><text class="st9 st12" transform="translate(181.8 280.4)">4</text><text class="st9 st12" transform="translate(149.94 319)">1</text><text class="st9 st12" transform="translate(149.94 413)">4</text><text class="st9 st13" transform="translate(520.63 94.1)">TRG</text><text class="st9 st13" transform="translate(517.31 117.1)">READY</text><text class="st9 st13" transform="translate(540.97 113.1)">USR6</text><text class="st9 st13" transform="translate(560.97 113.1)">USR5</text><text class="st9 st13" transform="translate(579.39 113.1)">PG_INT</text><text class="st9 st13" transform="translate(540.97 94.1)">USR4</text><text class="st9 st13" transform="translate(560.97 94.1)">USR3</text><text class="st9 st13" transform="translate(578.55 94.1)">PG_EXT</text><text class="st9 st13" transform="translate(604.97 94.1)">USR2</text><text class="st9 st13" transform="translate(625.97 94.1)">USR1</text><text class="st9 st13" transform="translate(643.97 94.1)">12EXT</text><text class="st9 st13" transform="translate(660.97 94.1)">12PCI</text><text class="st9 st10" x="478.5" y="26.419315">LEDs on the board</text><text class="st9 st10" x="228.11613" y="26.419315" font-family="Helvetica, Arial, sans-serif" font-size="14px" text-align="center" text-anchor="middle"><tspan x="228.11613" y="26.419315">Ambient temperature</tspan><tspan x="228.11613" y="43.919315">sensor</tspan></text></svg>
