<svg version="1.1" id="Ebene_1" xmlns="http://www.w3.org/2000/svg" x="0" y="0" viewBox="0 0 579 464" style="enable-background:new 0 0 579 464;background-color:#fff" xml:space="preserve"><style>.st1{fill:#f6f6f6}.st2,.st3{fill:none;stroke:#1a171b;stroke-width:.6;stroke-linecap:round;stroke-linejoin:round;stroke-miterlimit:10}.st3{stroke-width:.516}.st5{font-family:Helvetica,Arial,sans-serif}.st6{font-size:17.0079px}.st7,.st8{fill:none;stroke:#000;stroke-width:.3;stroke-linecap:round;stroke-linejoin:round}.st8{stroke-miterlimit:10}</style><path class="st1" d="M72.8 158.4h477.1v168.1H312l-.9.2-.9.5-.6.8-.1 1v34.2l-1.7 1.7h-60.6l-1.5-1.6v-21.5l-.3-.9-.6-1-.8-.6-1.1-.2-.9.2-1 .6-.6 1-.2.9v21.5l-1.5 1.5h-30.5l-1.6-1.6V332l-.2-1.4-.6-1.4-.8-1-1.2-1-1.3-.5-1.5-.2-1.4.2-1.3.5-1.1 1-1 1-.4 1.4-.3 1.4v19.2h-23.9v-21.5l-.2-1.2-.6-.9-1.1-.8-1.1-.2h-49.3l-1.2.2-1.1.8-.6.9-.2 1.2v21.7H72.8v-193z"/><path class="st2" d="M72.8 158.4h477.1v168.1H312l-.9.2-.9.5-.6.8-.1 1v34.2l-1.7 1.7h-60.6l-1.5-1.6v-21.5l-.3-.9-.6-1-.8-.6-1.1-.2-.9.2-1 .6-.6 1-.2.9v21.5l-1.5 1.5h-30.5l-1.6-1.6V332l-.2-1.4-.6-1.4-.8-1-1.2-1-1.3-.5-1.5-.2-1.4.2-1.3.5-1.1 1-1 1-.4 1.4-.3 1.4v19.2h-23.9v-21.5l-.2-1.2-.6-.9-1.1-.8-1.1-.2h-49.3l-1.2.2-1.1.8-.6.9-.2 1.2v21.7H72.8v-193z"/><path class="st2" d="m76.2 184.2-.1-.3-.1.3h.2zm-.1-.3-.1-.1v.4l.1-.3zm-.1-.1-.3.1.3.3v-.4zm-.3.1v.3h.3l-.3-.3zm0 .3v.1l.3-.1h-.3zm0 .1.3.1v-.2l-.3.1zm.3.1.1-.1-.1-.1v.2z"/><path class="st2" d="m76.1 184.3.1-.1H76l.1.1zm-5.9 164.6h4.6M32.2 50.2v-2.6m.1 3.2h1.8m-1.9-.6H67m-34.7 0v.6m1.8 0 1.1-.6"/><path class="st1" d="m67 50.2.4.3.2.3V394v-.2l-1.2 13.9h2.7l1.1-13.7v-53.1h4.6l.7-.3.6-.6.1-.7V74.2l-.1-.7-.6-.6-.7-.1h-4.6V49l-.1-.7-.6-.5-.7-.2H32.2"/><path class="st2" d="m67 50.2.4.3.2.3V394v-.2l-1.2 13.9h2.7l1.1-13.7v-53.1h4.6l.7-.3.6-.6.1-.7V74.2l-.1-.7-.6-.6-.7-.1h-4.6V49l-.1-.7-.6-.5-.7-.2H32.2"/><path class="st1" d="M65.5 192.1h101.2v48.4H65.5v-48.4z"/><path class="st3" d="M65.5 192.1h101.2v48.4H65.5v-48.4z"/><path class="st1" d="M65.5 272.3h101.2v48.4H65.5v-48.4z"/><path class="st3" d="M65.5 272.3h101.2v48.4H65.5v-48.4z"/><path d="M297.5 348.1h1.9v11.5h-1.9v-11.5zm3 0h1.9v11.5h-1.9v-11.5zm-12 0h1.9v11.5h-1.9v-11.5zm6 0h1.9v11.5h-1.9v-11.5zm-9 0h1.9v11.5h-1.9v-11.5zm6 0h1.9v11.5h-1.9v-11.5zm-15 0h1.9v11.5h-1.9v-11.5zm6 0h1.9v11.5h-1.9v-11.5zm-9 0h1.9v11.5h-1.9v-11.5zm6 0h1.9v11.5h-1.9v-11.5zm-15 0h1.9v11.5h-1.9v-11.5zm6 0h1.9v11.5h-1.9v-11.5zm-12 0h1.9v11.5h-1.9v-11.5zm9 0h1.9v11.5h-1.9v-11.5zm-18 0h1.9v11.5h-1.9v-11.5zm6 0h1.9v11.5h-1.9v-11.5zm-3 0h1.9v11.5h-1.9v-11.5zm-6 0h1.9v11.5h-1.9v-11.5zm60 0h1.9v11.5h-1.9v-11.5zm-3 .1h1.9v9.5h-1.9v-9.5zm-42 0h1.9v9.5h-1.9v-9.5zm-30-.1h1.9v11.5h-1.9v-11.5zm-6 0h1.9v11.5h-1.9v-11.5zm-9 0h1.9v11.5h-1.9v-11.5zm18 0h1.9v11.5h-1.9v-11.5zm-6 0h1.9v11.5h-1.9v-11.5zm9 0h1.9v11.5h-1.9v-11.5zm-24 0h1.9v11.5h-1.9v-11.5zm-3 0h1.9v11.5h-1.9v-11.5zm12 0h1.9v11.5h-1.9v-11.5zm-15 0h1.9v11.5h-1.9v-11.5zm12 0h1.9v11.5h-1.9v-11.5z" style="fill:none;stroke:#000;stroke-width:.1;stroke-linecap:round;stroke-linejoin:round;stroke-miterlimit:10"/><text transform="translate(265.257 16.682)" class="st5 st6">174.2</text><text transform="translate(291.777 129.812)" class="st5 st6">160</text><text transform="rotate(-90 127.17 110.346)" class="st5 st6">120</text><text transform="rotate(-90 421.944 -152.76)" class="st5 st6">68.8</text><path class="st7" d="M39.7 24.7h501.2"/><path d="m41.5 27.3-9.8-2.6 9.8-2.6v5.2zm497.6 0 9.7-2.6-9.7-2.6v5.2z"/><path class="st7" d="M84.2 137.2h457.9"/><path d="m86 139.8-9.8-2.6 9.8-2.6v5.2zm454.4 0 9.7-2.6-9.7-2.6v5.2z"/><text transform="translate(125.708 456.69)" class="st5 st6">46.1</text><path class="st7" d="M79.4 437.6h118.7"/><path d="m81.2 440.2-9.7-2.6 9.7-2.7v5.3zm115.1 0 9.8-2.6-9.8-2.7v5.3z"/><path class="st7" d="M26.2 399.3V55.1"/><path d="m28.8 397.5-2.6 9.7-2.7-9.7h5.3zm0-340.6-2.6-9.8-2.7 9.8h5.3z"/><path class="st7" d="M554.6 356.6V166.3"/><path d="m557.2 354.8-2.6 9.8-2.6-9.8h5.2zm0-186.7-2.6-9.7-2.6 9.7h5.2z"/><path class="st8" d="M32.2 50.2V18.7"/><path d="M69.1 407.7H11.9" style="fill:none;stroke:#000;stroke-width:.228;stroke-linecap:round;stroke-linejoin:round;stroke-miterlimit:10"/><path class="st8" d="M549.9 159.4V13.7M70.2 445.2v-84.5m136.3 84.5v-84.5"/><path d="M69.1 47.6H11.9" style="fill:none;stroke:#000;stroke-width:.274;stroke-linecap:round;stroke-linejoin:round;stroke-miterlimit:10"/><path d="M573.4 158.4h-23.5m23.5 206.5H305.5" style="fill:none;stroke:#000;stroke-width:.292;stroke-linecap:round;stroke-linejoin:round;stroke-miterlimit:10"/><text transform="translate(439.178 426.248)" class="st5 st6">Not to scale</text><text transform="translate(438.478 450.65)" class="st5 st6">Dimensions in mm</text></svg>