<?xml version="1.0" encoding="utf-8"?>
<!-- Generator: Adobe Illustrator 25.2.3, SVG Export Plug-In . SVG Version: 6.00 Build 0)  -->
<svg version="1.1" id="Ebene_1" xmlns="http://www.w3.org/2000/svg" xmlns:xlink="http://www.w3.org/1999/xlink" x="0px" y="0px"
	 viewBox="0 0 1635 315.1" style="enable-background:new 0 0 1635 315.1;" xml:space="preserve">
<style type="text/css">
	.st0{fill:none;}
	.st1{fill:none;stroke:#000000;stroke-width:0.425;stroke-linecap:round;stroke-linejoin:round;stroke-miterlimit:10;}
	.st2{fill:none;stroke:#000000;stroke-width:0.2835;stroke-linecap:round;stroke-linejoin:round;stroke-miterlimit:10;}
	.st3{fill:none;stroke:#000000;stroke-width:0.7087;stroke-linecap:round;stroke-linejoin:round;stroke-miterlimit:10;}
	.st4{fill:none;stroke:#000000;stroke-width:0.2835;stroke-linecap:round;stroke-linejoin:round;}
	.st5{fill:none;stroke:#000000;stroke-width:0.283;stroke-linecap:round;stroke-linejoin:round;stroke-miterlimit:10;}
	.st6{font-family:'ArialMT';}
	.st7{font-size:14px;}
	.st8{enable-background:new    ;}
</style>
<path class="st0" d="z"/>
<g id="BCBL-60x60">
	<path class="st1" d="M1285.7,135.8v1.4 M1285.7,135.8h4.7 M1285.7,218.2v1.4 M1285.7,219.6h4.6 M1285.7,218.2V212 M1285.7,143.5
		v-6.3 M1285.7,143.5v1.4 M1285.7,210.5v1.5 M1290.4,144.9h-4.7 M1285.7,210.5v-65.6 M1472.4,137.2v81 M1472.4,137.2v-1.4
		 M1467.9,135.8h4.5 M1467.9,219.6h4.5 M1472.4,219.6v-1.4 M1467.9,165.6v1.4 M1290.3,167v-1.4 M1467.9,154.4v1.4 M1290.3,155.8
		v-1.4 M1467.9,148.7v1.4 M1290.3,150.1v-1.4 M1467.9,174.1v1.4 M1290.3,175.5v-1.4 M1467.9,171.3v1.4 M1290.3,172.7v-1.4
		 M1467.9,145.9v1.4 M1290.3,147.3v-1.4 M1467.9,160v1.4 M1290.3,161.4V160 M1467.9,157.2v1.4 M1290.3,158.6v-1.4 M1467.9,188.3v1.4
		 M1290.3,189.7v-1.4 M1467.9,182.6v1.4 M1290.3,184v-1.4 M1467.9,185.5v1.4 M1290.3,186.9v-1.4 M1467.9,151.5v1.5 M1290.3,153v-1.5
		 M1467.9,168.4v1.5 M1290.3,169.9v-1.5 M1467.9,179.8v1.4 M1290.3,181.2v-1.4 M1467.9,177v1.4 M1290.3,178.4V177 M1467.9,162.8v1.4
		 M1290.3,164.2v-1.4 M1467.9,191.1v1.4 M1290.3,192.5v-1.4 M1467.9,194v1.4 M1290.3,195.4V194 M1467.9,196.8v1.4 M1290.3,198.2
		v-1.4 M1467.9,205.3v1.4 M1290.3,206.7v-1.4 M1467.9,199.6v1.4 M1290.3,201v-1.4 M1467.9,202.5v1.4 M1290.3,203.9v-1.4
		 M1467.9,208.1v1.5 M1290.3,209.6v-1.5 M1467.9,162.8v-1.4 M1467.9,161.4h-177.6 M1290.3,161.4v1.4 M1467.9,154.4V153 M1467.9,153
		h-177.6 M1290.3,153v1.4 M1467.9,160v-1.4 M1467.9,158.6h-177.6 M1290.3,158.6v1.4 M1467.9,151.5v-1.4 M1467.9,150.1h-177.6
		 M1290.3,150.1v1.4 M1467.9,145.9v-9.2 M1290.3,145.9v-9.2 M1467.9,157.2v-1.4 M1467.9,155.8h-177.6 M1290.3,155.8v1.4
		 M1467.9,136.7v-1.5 M1290.3,135.2v1.5 M1467.9,136.7h-177.6 M1290.3,135.2h177.6 M1467.9,168.4V167 M1467.9,167h-177.6
		 M1290.3,167v1.4 M1467.9,165.6v-1.4 M1467.9,164.2h-177.6 M1290.3,164.2v1.4 M1467.9,171.3v-1.4 M1467.9,169.9h-177.6
		 M1290.3,169.9v1.4 M1467.9,148.7v-1.4 M1467.9,147.3h-177.6 M1290.3,147.3v1.4 M1467.9,174.1v-1.4 M1467.9,172.7h-177.6
		 M1290.3,172.7v1.4 M1467.9,177v-1.5 M1467.9,175.5h-177.6 M1290.3,175.5v1.5 M1467.9,186.9v1.4 M1290.3,186.9h177.6 M1290.3,188.3
		v-1.4 M1467.9,192.5v1.5 M1290.3,192.5h177.6 M1290.3,194v-1.5 M1467.9,184v1.5 M1290.3,184h177.6 M1290.3,185.5V184 M1467.9,189.7
		v1.4 M1290.3,189.7h177.6 M1290.3,191.1v-1.4 M1467.9,178.4v1.4 M1290.3,178.4h177.6 M1290.3,179.8v-1.4 M1467.9,181.2v1.4
		 M1290.3,181.2h177.6 M1290.3,182.6v-1.4 M1467.9,203.9v1.4 M1290.3,203.9h177.6 M1290.3,205.3v-1.4 M1467.9,195.4v1.4
		 M1290.3,195.4h177.6 M1290.3,196.8v-1.4 M1467.9,198.2v1.4 M1290.3,198.2h177.6 M1290.3,199.6v-1.4 M1467.9,206.7v1.4
		 M1290.3,206.7h177.6 M1290.3,208.1v-1.4 M1467.9,201v1.5 M1290.3,201h177.6 M1290.3,202.5V201 M1467.9,220.2v-1.4 M1290.3,218.8
		v1.4 M1290.3,220.2h177.6 M1290.3,218.8v-9.2 M1467.9,218.8v-9.2 M1290.3,209.6h177.6 M1473.3,205.3h-0.9 M1473.3,157.2h-0.9
		 M1473.3,157.2v48.1"/>
	<path class="st2" d="M981.9,218.4V175 M906.9,269H161.3 M906.9,133H161.3 M906.9,127.2v-2.8 M161.3,124.4v2.8"/>
	<path class="st3" d="M906.9,124.4H161.3"/>
	<path class="st2" d="M906.9,127.2v4 M161.3,131.2v-4 M161.3,133h745.6 M906.9,260.6H161.3 M906.9,262.2v4 M161.3,266.2v-4
		 M906.9,269v-2.8 M161.3,266.2v2.8 M161.3,269h745.6"/>
	<path class="st3" d="M928.1,267.6l-1.4,1.4 M926.7,269h-19.8"/>
	<path class="st2" d="M906.9,124.4v2.8"/>
	<path class="st3" d="M926.7,124.4h-19.8 M926.7,124.4l1.4,1.4 M928.1,127.2v-1.4 M928.1,127.2v139"/>
	<path class="st2" d="M906.9,266.2v-5.6 M906.9,133v-5.8 M895.5,260.6V133 M906.9,266.2v2.8"/>
	<path class="st3" d="M906.9,269h19.8 M928.1,267.6l-1.4,1.4 M928.1,267.6v-1.4 M140.1,267.6l1.4,1.4 M161.3,269h-19.8"/>
	<path class="st2" d="M161.3,127.2v-2.8"/>
	<path class="st3" d="M161.3,124.4h-19.8 M140.1,125.8l1.4-1.4 M140.1,127.2v-1.4"/>
	<path class="st2" d="M161.3,260.6v5.6 M161.3,127.2v5.8 M172.7,133v126.2"/>
	<path class="st3" d="M140.1,266.2v-139 M141.5,269l-1.4-1.4"/>
	<path class="st2" d="M140.1,266.2v1.4"/>
	<path class="st3" d="M141.5,269h19.8"/>
	<path class="st2" d="M161.3,269v-2.8 M928.1,219.2h14.2 M942.3,174.4h-14.2 M942.3,197.4v21 M942.3,175v21 M942.3,174.4v0.6
		 M942.3,218.4v0.8 M942.3,196v1.4 M928.1,197.4h14.2 M993.1,207v-10 M993.1,197v-10.6 M976.7,222.6h-26.6 M950.1,222.6v-12.4
		 M976.7,170.8h-26.6 M950.1,184.2v-13.4 M976.7,184.2h-26.6 M950.1,210.2v-26 M976.7,210.2h-26.6 M976.7,210.2v12.4 M976.7,170.8
		v13.4 M976.7,184.2v26 M1134.3,191.8l0.2,0.6v2.4l-0.4,1.4l-0.6,1.2 M1133.5,197.4l-0.4,1.2v2l0.2,0.8l0.2,0.4 M1129.9,201.8v-0.2
		l-0.2-0.4v-2.4l0.2-1.4l0.6-1.4 M1129.7,198.8v1 M1130.5,196l-0.6,1.4 M1130.5,196l0.4-1.2l0.2-1.2v-0.8l-0.2-0.8l-0.2-0.2"/>
	<path class="st3" d="M906.9,124.4H161.3"/>
	<path class="st2" d="M161.3,269h745.6 M161.3,269h745.6"/>
	<path class="st3" d="M161.3,269h745.6"/>
	<path class="st2" d="M942.3,214.4h7.8 M950.1,179.2h-7.8 M976.7,218.4h5.2 M981.9,175h-5.2 M993.1,186.4l-0.2-2.2l-0.6-2.2l-1-1.8
		l-1.4-1.8l-1.8-1.4l-2-1l-2-0.8l-2.2-0.2 M981.9,218.4l2.2-0.2l2-0.6l2-1l1.8-1.4l1.4-1.8l1-2l0.6-2l0.2-2.4 M1133.5,201.8h152.2
		 M1285.7,191.8h-151.4 M993.1,201.8h136.8 M1130.7,191.8H993.1 M172.7,260.6v-1.4"/>
</g>
<g id="Dimensions">
	<path class="st4" d="M1293.1,279.6h172.7"/>
	<path d="M1294.8,282.1l-9.2-2.5l9.2-2.5V282.1z M1464.1,282.1l9.2-2.5l-9.2-2.5V282.1z"/>
	<path class="st5" d="M1473.3,205.2v77.3 M1285.6,219.5v63"/>
	<path class="st4" d="M1501.6,212.6v-70"/>
	<path d="M1504.1,210.9l-2.5,9.2l-2.5-9.2H1504.1z M1504.1,144.3l-2.5-9.3l-2.5,9.3H1504.1z"/>
	<path class="st5" d="M1467.9,135h36.6 M1467.9,220.1h36.6 M140.5,74.3h33.1"/>
	<path class="st4" d="M133,74.3H97"/>
	<path d="M131.3,71.8l9.2,2.5l-9.2,2.5V71.8z"/>
	<path class="st5" d="M172.8,148V71.4"/>
	<path class="st4" d="M181.2,74.3h706.6"/>
	<path d="M182.9,76.8l-9.3-2.5l9.3-2.5V76.8z M886.1,76.8l9.2-2.5l-9.2-2.5V76.8z"/>
	<path class="st5" d="M895.6,133.8V71.4"/>
	<path class="st4" d="M111.8,253.3V141.4"/>
	<path d="M114.3,251.6l-2.5,9.2l-2.5-9.2L114.3,251.6L114.3,251.6z M114.3,143l-2.5-9.2l-2.5,9.2H114.3z"/>
	<path class="st5" d="M161.2,133.3H109 M161.2,260.8H109"/>
	<path class="st2" d="M111.8,269v-8.2"/>
	<path class="st4" d="M111.8,297.6v-21.1"/>
	<path d="M114.3,278.2l-2.5-9.2l-2.5,9.2H114.3z"/>
	<path class="st4" d="M148,40.3h773"/>
	<path d="M149.7,42.8l-9.2-2.5l9.2-2.5V42.8z M919.3,42.8l9.3-2.5l-9.3-2.5V42.8z"/>
	<path class="st4" d="M935.7,40.3h50.5"/>
	<path d="M937.4,42.8l-9.2-2.5l9.2-2.5V42.8z M984.5,42.8l9.3-2.5l-9.3-2.5V42.8z"/>
	<path class="st5" d="M928.6,126.7V37.4 M993.2,185.5V37.4 M140.5,126.7V37.4"/>
	<path class="st4" d="M60.8,132v129.4"/>
	<path d="M58.3,133.6l2.5-9.2l2.5,9.2H58.3z M58.3,259.8l2.5,9.2l2.5-9.2H58.3z"/>
	<path class="st5" d="M141.3,269H58 M144.7,124.4H58"/>
</g>
<g id="Text_1_">
	<text transform="matrix(1 0 0 1 522.8 34.396)" class="st6 st7">278</text>
	<text transform="matrix(1 0 0 1 947.802 34.396)" class="st6 st7">23</text>
	<text transform="matrix(1 0 0 1 474.175 68.412)" class="st6 st7">255 (Emitting area)</text>
	<text transform="matrix(1 0 0 1 97.384 68.412)" class="st6 st7">11.5</text>
	<text transform="matrix(6.123234e-17 -1 1 6.123234e-17 54.314 204.4863)" class="st6 st7">51</text>
	<text transform="matrix(6.123234e-17 -1 1 6.123234e-17 105.905 204.4854)" class="st6 st7">45</text>
	<text transform="matrix(6.123234e-17 -1 1 6.123234e-17 126.905 243.3848)" class="st6 st7">(Emitting area)</text>
	<text transform="matrix(6.123234e-17 -1 1 6.123234e-17 105.905 293.1055)" class="st6 st7">3</text>
	<text transform="matrix(1 0 0 1 1362.824 272.895)" class="st6 st7">66.2</text>
	<text transform="matrix(1 0 0 1 1355.824 236.328)" class="st6 st7">Controller</text>
	<text transform="matrix(6.123234e-17 -1 1 6.123234e-17 1494.8379 183.4502)" class="st6 st7">30</text>
	<text transform="matrix(1 0 0 1 1515.814 287.32)" class="st6 st7">Not to scale</text>
	<text transform="matrix(1 0 0 1 1515.814 303.32)" class="st6 st7">Dimensions in mm</text>
</g>
<path class="st0" d="z"/>
<text transform="matrix(1 0 0 1 1514.892 165.6001)" class="st8"><tspan x="0" y="0" class="st6 st7">For pin connection </tspan><tspan x="0" y="16.8" class="st6 st7">(refer to camera </tspan><tspan x="0" y="33.6" class="st6 st7">specifications)</tspan></text>
</svg>
