<svg version="1.1" id="Ebene_1" xmlns="http://www.w3.org/2000/svg" xmlns:xlink="http://www.w3.org/1999/xlink" x="0" y="0" viewBox="0 0 345.9 194.5" style="enable-background:new 0 0 345.9 194.5;background-color:#fff" xml:space="preserve"><style>.st0{fill:none;stroke:#d9d9d9;stroke-width:.75;stroke-linejoin:round;stroke-miterlimit:10}.st3{fill:#595959}.st4{font-family:&apos;Calibri&apos;}.st5{font-size:9px}.st6{fill:#020203}.st7{font-family:Helvetica,Arial,sans-serif}.st8{font-size:9.96px}</style><path class="st0" d="M49.4 11.4h278.3M49.4 25.3h278.3M49.4 39.1h278.3m-278.3 14h278.3M49.4 67h278.3M49.4 80.9h278.3M49.4 94.8h278.3M49.4 108.7h278.3M49.4 122.5h278.3m-278.3 14h278.3m0-125.1v139m-30.9-139v139m-31-139v139M235 11.4v139m-31-139v139m-30.9-139v139m-30.9-139v139m-30.9-139v139m-31-139v139"/><path d="M49.4 150.4v-139m0 139h278.3" style="stroke:#bfbfbf;fill:none;stroke-width:.75;stroke-linejoin:round;stroke-miterlimit:10"/><defs><path id="SVGID_1_" d="M49.3 11.3h279v139.8h-279z"/></defs><clipPath id="SVGID_00000063619909383897915240000014594368306531891617_"><use xlink:href="#SVGID_1_" style="overflow:visible"/></clipPath><path style="clip-path:url(#SVGID_00000063619909383897915240000014594368306531891617_);fill:none;stroke:#5c9bd4;stroke-width:1.5;stroke-linecap:round;stroke-linejoin:round;stroke-miterlimit:10" d="M49.4 68.3c.1-.2.2-.3.3-.5l.3-.6c.1-.2.2-.5.3-.8l.3-.9c.1-.3.2-.7.3-1.1.1-.4.2-.7.3-1 .1-.3.2-.7.3-1 .1-.3.2-.7.3-1 .1-.3.2-.7.3-1 .1-.3.2-.7.3-1l.3-.9c.1-.3.2-.6.3-.8s.2-.5.3-.8.2-.5.3-.8c.1-.3.2-.5.3-.8.1-.2.2-.5.3-.7s.2-.5.3-.7c.1-.2.2-.5.3-.7s.2-.5.3-.7c.1-.2.2-.5.3-.7s.2-.5.3-.7l.3-.6.3-.6.3-.6.3-.6.3-.6.3-.6c.1-.2.2-.4.3-.5.1-.1.2-.2.3-.4.1-.1.2-.4.3-.5.1-.2.2-.3.3-.4.1-.1.2-.3.3-.4.1-.1.2-.3.3-.4s.2-.2.3-.4l.3-.3.3-.3c.1-.1.2-.3.3-.5l.3-.3.3-.3.3-.3.3-.3.3-.3.3-.3.3-.3c.1-.1.2-.2.3-.2l.3-.3c.1-.1.2-.2.3-.2.1-.1.2-.1.3-.2.1-.1.2-.1.3-.2.1-.1.2-.1.3-.1.1 0 .2-.1.3-.1.1 0 .2-.1.3-.1.1 0 .2-.1.3-.1.1 0 .2-.1.3-.1.1-.1.2-.1.3-.2.1-.1.2-.1.3-.1.1 0 .2-.1.3-.1.1 0 .2-.1.3-.1s.2-.1.3-.1.2-.1.3-.2c.1 0 .2-.1.3-.1.1 0 .2-.1.3-.1.1 0 .2-.1.3-.1.1 0 .2 0 .3-.1.1 0 .2 0 .3-.1.1 0 .2-.1.3-.1.1 0 .2-.1.3-.1.1 0 .2 0 .3-.1.1 0 .2-.1.3-.1.1 0 .2-.1.3-.1.1 0 .2-.1.3-.1.1 0 .2-.1.3-.1.1 0 .2-.1.3-.1h.6c.1 0 .2-.1.3-.1.1 0 .2-.1.3-.1h.3c.1 0 .2-.1.3-.1.1 0 .2 0 .3-.1.1 0 .2 0 .3-.1.1 0 .2 0 .3-.1.1 0 .2-.1.3-.1.1 0 .2 0 .3-.1s.2 0 .3-.1.2 0 .3 0h.3c.1 0 .2-.1.3-.1.1 0 .2 0 .3-.1.1 0 .2 0 .3-.1.1 0 .2-.1.3-.1h.6c.1 0 .2 0 .3-.1h.3c.1 0 .2 0 .3-.1.1 0 .2-.1.3-.1.1 0 .2-.1.3-.1h.3c.1 0 .2 0 .3-.1.1 0 .2 0 .3-.1.1 0 .2 0 .3-.1.1 0 .2 0 .3-.1s.2 0 .3 0h.3c.1 0 .2 0 .3-.1s.2-.1.3-.1c.1 0 .2-.1.3-.1.1 0 .2-.1.3-.1.1 0 .2 0 .3-.1.1 0 .2-.1.3-.1h.3c.1 0 .2 0 .3-.1.1 0 .2-.1.3-.1.1 0 .2 0 .3-.1h.6c.1 0 .2 0 .3-.1h.3c.1 0 .2-.1.3-.1.1 0 .2 0 .3-.1.1 0 .2 0 .3-.1.1 0 .2 0 .3-.1.1 0 .2 0 .3-.1.1 0 .2 0 .3-.1.1 0 .2 0 .3-.1h1.2c.1 0 .2 0 .3-.1.1 0 .2-.1.3-.1h.6c.1 0 .2-.1.3-.1.1 0 .2-.1.3-.1.1 0 .2 0 .3-.1.1 0 .2-.1.3-.1.1 0 .2-.1.3-.1h.3c.1 0 .2 0 .3-.1.1 0 .2-.1.3-.1.1 0 .2-.1.3-.1.1 0 .2 0 .3-.1.1 0 .2-.1.3-.1.1 0 .2-.1.3-.1.1 0 .2-.1.3-.1.1 0 .2-.1.3-.1.1 0 .2 0 .3-.1.1 0 .2-.1.3-.1.1 0 .2 0 .3-.1.1 0 .2 0 .3-.1h.6c.1 0 .2 0 .3-.1h.3c.1 0 .2-.1.3-.1.1 0 .2-.1.3-.1.1 0 .2 0 .3-.1.1 0 .2 0 .3-.1.1 0 .2-.1.3-.1.1 0 .2-.1.3-.1h.3c.1 0 .2 0 .3-.1.1 0 .2 0 .3-.1s.2-.1.3-.1.2-.1.3-.1c.1 0 .2-.1.3-.1h.6c.1 0 .2 0 .3-.1.1 0 .2-.1.3-.1.1 0 .2-.1.3-.1h.6c.1 0 .2-.1.3-.1.1 0 .2-.1.3-.1.1 0 .2-.1.3-.1.1 0 .2 0 .3-.1h2.1c.1 0 .2-.1.3-.1h.6c.1 0 .2 0 .3-.1h3c.1 0 .2 0 .3-.1h3.3c.1 0 .2 0 .3-.1s.2 0 .3 0h.6c.1 0 .2 0 .3-.1.1 0 .2-.1.3-.1h.9c.1 0 .2 0 .3-.1h4.8c.1 0 .2 0 .3-.1h.6c.1 0 .2 0 .3-.1h5.1c.1 0 .2 0 .3-.1h2.4c.1 0 .2.1.3.1h2.1c.1 0 .2-.1.3-.1h2.1c.1 0 .2 0 .3.1.1 0 .2.1.3.1.1 0 .2 0 .3.1.1 0 .2.1.3.1s.2.1.3.1h2.4c.1 0 .2-.1.3-.1h.9c.1 0 .2 0 .3-.1.1 0 .2 0 .3-.1h.9c.1 0 .2 0 .3.1s.2 0 .3 0h1.2c.1 0 .2.1.3.1h.6c.1 0 .2-.1.3-.1h7.2c.1 0 .2 0 .3-.1h.3c.1 0 .2 0 .3-.1h2.7c.1 0 .2 0 .3-.1h1.5c.1 0 .2.1.3.1h8.1c.1 0 .2-.1.3-.1s.2 0 .3-.1c.1 0 .2-.1.3-.1h2.1c.1 0 .2.1.3.1h2.1c.1 0 .2-.1.3-.1s.2 0 .3-.1h1.2c.1 0 .2 0 .3-.1.1 0 .2 0 .3-.1h2.4c.1 0 .2-.1.3-.1h4.5c.1 0 .2 0 .3-.1.1 0 .2-.1.3-.1h3c.1 0 .2 0 .3-.1h.3c.1 0 .2-.1.3-.1.1 0 .2-.1.3-.1.1 0 .2 0 .3-.1h3c.1 0 .2-.1.3-.1h.3c.1 0 .2 0 .3-.1h11.4c.1 0 .2 0 .3.1h1.2c.1 0 .2 0 .3.1h5.7c.1 0 .2 0 .3.1.1 0 .2.1.3.1.1 0 .2.1.3.1h.9c.1 0 .2 0 .3-.1h1.5c.1 0 .2 0 .3.1.1 0 .2 0 .3.1.1 0 .2.1.3.1s.2.1.3.1c.1 0 .2.1.3.1h.3c.1 0 .2 0 .3.1.1 0 .2 0 .3.1.1 0 .2.1.3.1.1 0 .2.1.3.1.1 0 .2 0 .3.1s.2 0 .3 0h.3c.1 0 .2 0 .3.1h.3c.1 0 .2 0 .3.1.1 0 .2.1.3.1h.6c.1 0 .2 0 .3.1h.6c.1 0 .2 0 .3.1h.9c.1 0 .2.1.3.1.1 0 .2 0 .3.1.1 0 .2.1.3.1.1 0 .2.1.3.1h.3c.1 0 .2.1.3.1.1 0 .2 0 .3.1.1 0 .2.1.3.1h.3c.1 0 .2 0 .3.1.1 0 .2 0 .3.1.1 0 .2.1.3.1.1 0 .2.1.3.2.1 0 .2.1.3.1.1 0 .2.1.3.2.1 0 .2 0 .3.1.1 0 .2.1.3.1.1 0 .2.1.3.1.1 0 .2.1.3.1.1 0 .2 0 .3.1.1 0 .2.1.3.1.1 0 .2.1.3.1h.3c.1 0 .2.1.3.1.1 0 .2.1.3.1h.6c.1 0 .2 0 .3.1h.3c.1 0 .2 0 .3.1s.2.1.3.1c.1 0 .2.1.3.1.1 0 .2.1.3.1.1.1.2.1.3.2s.2.2.3.2c.1.1.2.1.3.2.1.1.2.1.3.2.1 0 .2.1.3.1s.2.1.3.1c.1 0 .2.1.3.1.1.1.2.1.3.2s.2.1.3.1c.1 0 .2.1.3.1.1 0 .2.1.3.1.1 0 .2.1.3.1s.2 0 .3.1c.1 0 .2 0 .3.1.1 0 .2.1.3.1.1 0 .2.1.3.1.1.1.2.1.3.2.1 0 .2.1.3.1s.2 0 .3.1c.1 0 .2.1.3.1s.2.1.3.1c.1 0 .2.1.3.1.1 0 .2.1.3.1h.3c.1 0 .2.1.3.1.1 0 .2.1.3.1s.2.1.3.2c.1.1.2.1.3.2.1 0 .2.1.3.1.1 0 .2.1.3.1s.2.1.3.1c.1 0 .2.1.3.2.1 0 .2.1.3.1s.2.1.3.2c.1 0 .2.1.3.1s.2.1.3.1c.1 0 .2.1.3.1.1 0 .2.1.3.1.1 0 .2 0 .3.1.1 0 .2.1.3.1.1 0 .2.1.3.1.1 0 .2.1.3.1.1 0 .2.1.3.1.1 0 .2.1.3.2.1.1.2.1.3.2s.2.1.3.2c.1.1.2.1.3.1.1.1.2.1.3.2.1.1.2.1.3.2s.2.1.3.2c.1.1.2.2.3.2.1.1.2.1.3.2.1.1.2.2.3.2s.2.2.3.3c.1.1.2.1.3.1.1 0 .2.1.3.2s.2 0 .3 0 .2.1.3.1c.1 0 .2.1.3.1.1 0 .2.1.3.1.1 0 .2.1.3.1h.3c.1 0 .2.1.3.2.1.1.2.1.3.1l.3.3c.1.1.2 0 .3.1.1 0 .2.1.3.2s.2.1.3.2c.1.1.2.1.3.2l.3.3.3.3.3.3.3.3c.1.1.2.2.3.2.1.1.2.1.3.1.1.1.2.1.3.2.1.1.2.2.3.2.1.1.2 0 .3.1.1 0 .2.1.3.1.1 0 .2.1.3.1h.3c.1 0 .2.1.3.2.1.1.2.1.3.2.1.1.2.1.3.2.1.1.2.1.3.1.1.1.2.1.3.2.1.1.2.2.3.2.1.1.2.1.3.2.1.1.2.1.3.2.1.1.2.1.3.2.1.1.2.1.3.1.1 0 .2.1.3.1l.3.3c.1.1.2.2.3.2.1.1.2.1.3.2.1.1.2.1.3.2.1.1.2.2.3.2.1.1.2.1.3.2.1.1.2.1.3.2.1.1.2.2.3.2.1.1.2.1.3.2.1.1.2.1.3.2.1.1.2.1.3.2.1.1.2.1.3.2.1.1.2.1.3.2l.3.3.3.3c.1.1.2.2.3.2.1.1.2.1.3.2.1.1.2.1.3.2.1.1.2.2.3.2.1.1.2.1.3.1.1.1.2.1.3.2.1.1.2.1.3.2.1.1.2.2.3.2.1.1.2.1.3.2.1.1.2.1.3.2.1.1.2.2.3.2.1.1.2.1.3.2l.3.3c.1.1.2.1.3.2l.3.3.3.3c.1.1.2 0 .3.1l.3.3c.1.1.2.1.3.1.1 0 .2.1.3.1.1 0 .2.1.3.2.1.1.2.2.3.2.1.1.2.1.3.2.1 0 .2 0 .3.1.1.1.2.3.3.4.1.1.2.1.3.1l.3.3.3.3.3.3c.1.1.2.2.3.2.1.1.2.1.3.1l.3.3c.1.1.2.1.3.1.1 0 .2.1.3.1.1 0 .2.1.3.2.1.1.2.1.3.2l.3.3c.1.1.2.1.3.2.1.1.2.2.3.2l.3.3.3.3.3.3.3.3c.1.1.2.1.3.2.1.1.2.1.3.2l.3.3c.1.1.2.2.3.2.1.1.2 0 .3.1.1 0 .2.1.3.2.1.1.2.1.3.2l.3.3.3.3.3.3c.1.1.2.1.3.2.1.1.2.1.3.2.1.1.2.2.3.2.1.1.2.1.3.2.1.1.2.1.3.2.1.1.2.1.3.1.1.1.2.2.3.2.1.1.2.1.3.1.1 0 .2 0 .3.1.1 0 .2.1.3.2.1.1.2.1.3.2.1.1.2.2.3.2l.3.3.3.3c.1.1.2.1.3.2l.3.3c.1.1.2.3.3.4.1.1.2.1.3.2.1.1.2.2.3.2.1.1.2.1.3.2.1.1.2.1.3.1.1.1.2.1.3.2l.3.3c.1.1.2.1.3.2.1.1.2.1.3.2l.3.3c.1.1.2.1.3.2.1.1.2.1.3.2l.3.3c.1.1.2.2.3.2.1.1.2.1.3.2.1.1.2.2.3.2.1.1.2.1.3.2.1.1.2.1.3.2l.3.3.3.3c.1.1.2.2.3.2.1.1.2.1.3.2l.3.3c.1.1.2.1.3.2.1.1.2.2.3.2.1.1.2.1.3.1.1 0 .2.1.3.1.1.1.2.1.3.2.1.1.2.1.3.2.1.1.2.2.3.2.1.1.2.1.3.1.1 0 .2 0 .3.1.1 0 .2.1.3.2.1.1.2.2.3.2.1.1.2.2.3.2.1.1.2.1.3.2.1.1.2.1.3.2.1.1.2.1.3.2.1.1.2.1.3.2.1.1.2.3.3.4.1.1.2.1.3.2.1.1.2.1.3.2l.3.3.3.3c.1.1.2.1.3.2.1.1.2.2.3.2l.3.3c.1.1.2 0 .3 0 .1 0 .2.1.3.2.1.1.2.1.3.2h.3c.1 0 .2.1.3.2l.3.3c.1.1.2.3.3.4.1.1.2.1.3.2l.3.3.3.3c.1.1.2.1.3.2.1.1.2.3.3.4l.3.3h.6c.1 0 .2.1.3.1.1 0 .2.1.3.2h.3c.1 0 .2.1.3.1.1 0 .2.1.3.1.1 0 .2.1.3.1.1.1.2.3.3.4l.3.3c.1.1.2.2.3.4l.3.3.3.3c.1.1.2.2.3.2.1.1.2.1.3.1.1 0 .2.1.3.2.1 0 .2.1.3.1.1 0 .2.1.3.1.1 0 .2 0 .3.1.1 0 .2.1.3.1l.3.3.3.3.3.3.3.3c.1.1.2.1.3.1l.3.3.3.3.3.3c.1.1.2.1.3.2.1.1.2.2.3.2.1.1.2.2.3.2.1.1.2.1.3.2l.3.3c.1.1.2.1.3.2.1.1.2.2.3.2.1.1.2.1.3.1.1 0 .2.1.3.1.1.1.2.1.3.2.1.1.2.1.3.2.1 0 .2.1.3.1.1 0 .2-.1.3 0 .1 0 .2.2.3.2.1.1.2.1.3.2.1.1.2.3.3.4.1.1.2.3.3.4.1.1.2.2.3.2.1.1.2.2.3.2h.3c.1.1.2.3.3.4.1.1.2 0 .3.1.1 0 .2.1.3.1h.9c.1 0 .2-.1.3-.1.1 0 .2.2.3.3l.3.3c.1.1.2.3.3.4.1.1.2.1.3.2h.3c.1 0 .2-.1.3-.1h.3c.1 0 .2.1.3.1.1 0 .2-.1.3-.1"/><text transform="translate(36.495 152.908)" class="st3 st4 st5">0</text><text transform="translate(31.932 139.012)" class="st3 st4 st5">10</text><text transform="translate(31.932 125.116)" class="st3 st4 st5">20</text><text transform="translate(31.932 111.22)" class="st3 st4 st5">30</text><text transform="translate(31.932 97.324)" class="st3 st4 st5">40</text><text transform="translate(31.932 83.428)" class="st3 st4 st5">50</text><text transform="translate(31.932 69.532)" class="st3 st4 st5">60</text><text transform="translate(31.932 55.636)" class="st3 st4 st5">70</text><text transform="translate(31.932 41.74)" class="st3 st4 st5">80</text><text transform="translate(31.932 27.844)" class="st3 st4 st5">90</text><text transform="translate(27.369 13.948)" class="st3 st4 st5">100</text><text transform="translate(42.56 164.653)" class="st3 st4 st5">400</text><text transform="translate(73.485 164.653)" class="st3 st4 st5">450</text><text transform="translate(104.409 164.653)" class="st3 st4 st5">500</text><text transform="translate(135.333 164.653)" class="st3 st4 st5">550</text><text transform="translate(166.257 164.653)" class="st3 st4 st5">600</text><text transform="translate(197.18 164.653)" class="st3 st4 st5">650</text><text transform="translate(228.105 164.653)" class="st3 st4 st5">700</text><text transform="translate(259.029 164.653)" class="st3 st4 st5">750</text><text transform="translate(289.953 164.653)" class="st3 st4 st5">800</text><text transform="translate(320.877 164.653)" class="st3 st4 st5">850</text><path class="st0" d="M.4.4h345.1v193.7H.4z"/><text transform="translate(136.844 180.382)" class="st6 st7 st8">Wavelength [nm]</text><text transform="rotate(-89.968 73.514 57.001)" class="st6 st7 st8">Transmittance [%]</text></svg>