<svg version="1.1" id="Layer_1" xmlns="http://www.w3.org/2000/svg" x="0" y="0" viewBox="0 0 841.9 595.3" style="enable-background:new 0 0 841.9 595.3;background-color:#fff" xml:space="preserve"><style>.st0{fill:none;stroke:#000;stroke-width:.75;stroke-miterlimit:10.9531}.st1{fill-rule:evenodd;clip-rule:evenodd}.st2,.st3{fill:none;stroke:#000;stroke-miterlimit:10.9531}.st2{stroke-width:.75;stroke-linejoin:round}.st3{stroke-width:.375}.st5{font-family:Helvetica,Arial,sans-serif}.st6{font-size:14px}.st8{font-family:Helvetica,Arial,sans-serif;font-weight:700}.st9{font-size:18px}.st10,.st11{stroke-linejoin:round}.st10{fill:none;stroke:#000;stroke-width:.6746;stroke-miterlimit:10.9531;stroke-dasharray:22.6772,11.3386}.st11{stroke-width:.75;stroke-dasharray:6,3}.st11,.st15,.st16{fill:none;stroke:#000;stroke-miterlimit:10.9531}.st15{stroke-width:2.834646e-03;stroke-linejoin:round}.st16{stroke-width:.6378}</style><path class="st0" d="M252.4 144.2H267"/><path class="st1" d="M252.4 135.5H267l-7.4 7.3-7.2-7.3z"/><path class="st2" d="M252.4 135.5H267l-7.4 7.3-7.2-7.3z"/><path class="st1" d="M296.2 140.4v-4.5l11.3 4.5-11.3 4.5v-4.5z"/><path class="st2" d="M277.9 145.9h15.4l-7.8-5.5h11.3"/><path class="st2" d="M236.9 117h112.8v47.2H236.9V117z"/><path class="st0" d="M232.8 126.1h26.9l-.1-.3V155"/><path class="st2" d="M446.2 186.8h29.9m-145.9-30.7h104.2m-114.2-26.2v22.4m.1-6.5 10.2 10.2m-99.7-.9h29m185.2-9v-20.4m1.5 61.8V167m29.1 20.1v-39.2m-145.5-22.3h215"/><path d="M441.5 126.6c0-2 1.6-3.7 3.7-3.7 2 0 3.7 1.6 3.7 3.7 0 2-1.6 3.7-3.7 3.7-2 0-3.7-1.7-3.7-3.7z"/><path class="st3" d="M441.5 126.6c0-2 1.6-3.7 3.7-3.7 2 0 3.7 1.6 3.7 3.7 0 2-1.6 3.7-3.7 3.7-2 0-3.7-1.7-3.7-3.7z"/><path class="st1" d="m323 153.6 5.2-5.2v5.2H323z"/><path class="st2" d="m323 153.6 5.2-5.2v5.2H323zm-2.8-17.7 10.2-10.2M434.5 145v22.4m0-11.4 10.2 10.2"/><path d="m437.8 167.4 8.2-8.2v8.2h-8.2z" style="fill-rule:evenodd;clip-rule:evenodd;fill:#fff"/><path class="st2" d="m437.8 167.4 8.2-8.2v8.2h-8.2zm-3.3-11.7 10.2-10.2"/><text transform="translate(409.443 148.696)" class="st5 st6">Q1</text><text transform="translate(551.3 18.177)" class="st5 st6">6-pin</text><text transform="translate(551.3 34.377)" class="st5 st6">connector</text><path class="st2" d="M545.3 44h24.4v137h-24.4V44z"/><text transform="translate(552.661 65.133)" class="st5 st6">1</text><text transform="translate(552.661 86.826)" class="st5 st6">2</text><text transform="translate(552.661 108.523)" class="st5 st6">3</text><text transform="translate(552.661 130.213)" class="st5 st6">4</text><text transform="translate(552.661 151.912)" class="st5 st6">5</text><text transform="translate(552.661 173.603)" class="st5 st6">6</text><path d="M65.9 45.5h479.4V232H65.9V45.5z" style="fill:none;stroke:#000;stroke-width:.3742;stroke-linejoin:round;stroke-miterlimit:10.9531;stroke-dasharray:22.6772,11.3386"/><text transform="translate(79.485 74.005)" class="st8 st9">2D Camera</text><text transform="translate(259.831 110.864)" class="st5 st6">Optocoupler</text><path class="st2" d="M474.8 147.8h70.7"/><path class="st10" d="M156 155h74.9"/><path class="st11" d="M156 126h77"/><text transform="translate(94.47 135.956)" class="st5 st6">Further</text><text transform="translate(94.47 152.98)" class="st5 st6">circuitry</text><path class="st0" d="M641.5 225.5v-78"/><path class="st2" d="M641.8 147.8h-72.1m78.5 77.7h-13.4m2.5 2.8h8.5m-6.7 2.9h4.7"/><path d="M693.5 125.6H569.7m163.8 226.2V228" style="fill:none;stroke:#000;stroke-width:.7512;stroke-linejoin:round;stroke-miterlimit:10.9531"/><path class="st0" d="M641.3 125.1V29"/><path d="M634.4 64.4H649v43.9h-14.6V64.4z" style="fill:#fff"/><path class="st0" d="M634.4 64.4H649v43.9h-14.6V64.4z"/><path d="M637.8 125.6c0-2 1.6-3.7 3.7-3.7 2 0 3.7 1.6 3.7 3.7 0 2-1.6 3.7-3.7 3.7s-3.7-1.6-3.7-3.7z"/><path class="st3" d="M637.8 125.6c0-2 1.6-3.7 3.7-3.7 2 0 3.7 1.6 3.7 3.7 0 2-1.6 3.7-3.7 3.7s-3.7-1.6-3.7-3.7z"/><text transform="translate(671.02 84.591)" class="st5 st6">Voltage</text><text transform="translate(671.02 100.791)" class="st5 st6">output</text><text transform="translate(671.02 116.991)" class="st5 st6">signal</text><path class="st2" d="M783.5 225.5h-13.4m2.5 2.8h8.5m-6.7 2.9h4.7"/><path class="st0" d="M641.2 29.6V9.7h135.6v215.8"/><text transform="translate(718.213 46.384)" class="st5 st6">3.3–24</text><text transform="translate(726.462 60.86)" class="st5 st6">VDC</text><path d="M786 47.9c0 5.2-4.2 9.4-9.4 9.5-5.2 0-9.4-4.2-9.5-9.5 0-5.2 4.2-9.4 9.5-9.5 5.1 0 9.4 4.3 9.4 9.5z" style="fill-rule:evenodd;clip-rule:evenodd;fill:#fff;stroke:#000;stroke-width:.75;stroke-linejoin:round;stroke-miterlimit:10.9531"/><path class="st2" d="M771.3 46.4h10.4m-10.4 3h10.4"/><text transform="translate(778.781 36.755)" class="st5 st6">+</text><text transform="translate(778.75 68.052)" class="st5 st6">-</text><path class="st0" d="M505.3 125.6v22.3"/><path class="st1" d="M512.5 141.3h-14.6l7.4-8.6 7.2 8.6z"/><path class="st15" d="M512.5 141.3h-14.6l7.4-8.6 7.2 8.6z"/><path class="st16" d="M500.9 133h8.6m-.3-.1 2.6 2.6m-13.2-4.9 2.6 2.6"/><path d="M501.6 125.6c0-2 1.7-3.7 3.7-3.7s3.7 1.7 3.7 3.7-1.6 3.7-3.7 3.7c-2.1-.1-3.7-1.7-3.7-3.7z"/><path class="st3" d="M501.6 125.6c0-2 1.7-3.7 3.7-3.7s3.7 1.7 3.7 3.7-1.6 3.7-3.7 3.7c-2.1-.1-3.7-1.7-3.7-3.7z"/><path d="M501.5 147.8c0-2 1.6-3.7 3.7-3.7 2 0 3.7 1.6 3.7 3.7s-1.6 3.7-3.7 3.7c-2 0-3.7-1.6-3.7-3.7z"/><path class="st3" d="M501.5 147.8c0-2 1.6-3.7 3.7-3.7 2 0 3.7 1.6 3.7 3.7s-1.6 3.7-3.7 3.7c-2 0-3.7-1.6-3.7-3.7z"/><path d="M52.5 288.2H627v287.4H52.5V288.2z" style="fill:none;stroke:#000;stroke-width:.3827;stroke-linejoin:round;stroke-miterlimit:10.9531;stroke-dasharray:22.6772,11.3386"/><path class="st0" d="M322 536.3v-30.6m7.7 19.2h-15.3"/><path class="st1" d="M329.7 515.9h-15.3l7.7 7.7 7.6-7.7z"/><path class="st2" d="M329.7 515.9h-15.3l7.7 7.7 7.6-7.7zm-8.4-10.2h72.5M321 536.3h16.3"/><path class="st1" d="M283.8 521v4.7L272 521l11.8-4.7v4.7z"/><path class="st2" d="M303 526.7h-16.2l8.1-5.7h-11.8"/><path class="st2" d="M227.9 496.5h117.9v49.3H227.9v-49.3zm144.4-26.8h43m-78 66.6h207.2M258.7 510v23.3m-.1-6.7L248 537.2m124.2-67.5v-69.6M545 536.3V418.7m-130.5 51.1v-69.6m-42.2.2h41.8m-21.4-.3v-48.4"/><path class="st1" d="m255.9 534.8-5.4-5.4v5.4h5.4z"/><path class="st2" d="m255.9 534.8-5.4-5.4v5.4h5.4zm2.8-18.6-10.6-10.6m-19.2.1h19.8m-21.3 31.5h19.8"/><path class="st0" d="M393.9 506.2v-36.8"/><path class="st2" d="M392.7 351.7h233.8"/><text transform="translate(632.342 298.015)" class="st5 st6">8-pin connector</text><path class="st2" d="M627 311.2h26.2v143H627v-143z"/><text transform="translate(634.69 355.947)" class="st5 st6">6</text><text transform="translate(634.69 423.945)" class="st5 st6">5</text><text transform="translate(76.945 321.317)" class="st8 st9">blaze Camera</text><path class="st2" d="M733.5 351.8h-80.3"/><text transform="rotate(-90 424.594 34.957)" class="st5 st6">Current</text><text transform="rotate(-90 430.744 24.082)" class="st5 st6">limiter</text><path class="st2" d="M736.8 419h-83.1"/><path class="st0" d="M736.8 569.6V418.7"/><path class="st2" d="M545 419h82.2m116.6 150.6h-14.1m2.6 3h8.8m-6.8 3h4.9"/><text transform="translate(247.22 489.666)" class="st5 st6">Optocoupler</text><path class="st0" d="M593.4 351.7v66.9"/><path class="st1" d="M599.5 389.6h-12.3l6.2-7.3 6.1 7.3z"/><path class="st15" d="M599.5 389.6h-12.3l6.2-7.3 6.1 7.3z"/><path class="st16" d="M589.8 382.7h7.1m-.2-.1 2.2 2.1m-11.1-4.1 2.1 2.2"/><path d="M590.3 351.7c0-1.7 1.3-3.1 3.1-3.1s3.1 1.3 3.1 3.1c0 1.7-1.3 3.1-3.1 3.1-1.7 0-3.1-1.4-3.1-3.1z"/><path class="st3" d="M590.3 351.7c0-1.7 1.3-3.1 3.1-3.1s3.1 1.3 3.1 3.1c0 1.7-1.3 3.1-3.1 3.1-1.7 0-3.1-1.4-3.1-3.1z"/><path d="M590.3 419c0-1.7 1.3-3.1 3.1-3.1s3.1 1.3 3.1 3.1-1.3 3.1-3.1 3.1c-1.7-.1-3.1-1.4-3.1-3.1z"/><path class="st3" d="M590.3 419c0-1.7 1.3-3.1 3.1-3.1s3.1 1.3 3.1 3.1-1.3 3.1-3.1 3.1c-1.7-.1-3.1-1.4-3.1-3.1z"/><path class="st10" d="M147.3 537.2h80.6"/><path class="st11" d="M147.3 505.7h80.6"/><text transform="translate(82.654 516.154)" class="st5 st6">Further</text><text transform="translate(82.654 534.08)" class="st5 st6">circuitry</text><path d="M693.5 125.6h39.8-39.8z" style="fill:none;stroke:#000;stroke-width:.7531;stroke-miterlimit:11.3386"/><path d="M733.5 228V125.2 228z" style="fill:none;stroke:#000;stroke-width:.7511;stroke-miterlimit:11.3386"/></svg>