<svg enable-background="new 0 0 844.1 584.2" style="background-color:#fff" version="1.1" viewBox="0 0 844.1 584.2" xml:space="preserve" xmlns="http://www.w3.org/2000/svg"><style>.st1{fill:#f6f6f6;stroke:#1d1d1b;stroke-width:.71;stroke-linecap:round;stroke-linejoin:round}.st3{fill:none;stroke-width:.43}.st3,.st4{stroke:#000;stroke-miterlimit:10}.st4,.st5{stroke-width:.43}.st5,.st6{stroke:#000}.st4{fill:#f6f6f6}.st5,.st6{fill:none;stroke-miterlimit:10.0003}.st6{stroke-width:1.42;stroke-miterlimit:10}.st7{enable-background:new}.st8{font-family:Helvetica,Arial,sans-serif}.st9{font-size:14px}.st10{fill:none;stroke:#000;stroke-miterlimit:10}.st11{font-size:13px}.st12{font-size:5px}</style><g id="a"><path class="st1" d="M324.8 437.7c-.1 1.8 0 24.5 0 24.5h28.1v-22.8c0-1.2.3-2.4.9-3.4l10.8-.1c.6 1 1 2.2 1.2 3.4v36.1l2.8 2.8h34.2l2.6-2.6V452c-.1-1.7 1.2-3.1 2.9-3.2 1.7-.1 3.1 1.2 3.2 2.9v23.8l2.8 2.7h129.6l2.3-2.8v-36c0-1.9 1.6-3.4 3.5-3.4h249.2V160.8h6.2v-50.7h-6.2V87.3h-345v28.1s.2 4.1-4.9 4c-4.9 0-169.6.3-176 0-5.2 0-5.5-3.4-5.5-3.4l-.3-28.8h-58.7v40.9H204V99.3c.1-.8-.4-1.5-1.2-1.6H158v4.1h2.3l1.5-.9H200s.8.2.8.8v29.5h-24.1v12.2h24.1v4.9h-11.3s-3.4 0-3.4 3.4v36.9s.6 3.2 3.4 3.2h11.4v5h-24.2V209h24.1v307.9l-1.4 16.2h3.3l1.4-15.8v-49.8h9v-5.3h47.2s-.1-22.2 0-24.4c.1-1.6 1.1-4.1 4-4.1h1.5v2.4h58.8c.2.4.3 1 .2 1.6h0z"/><path d="m200.9 191.7v-43.5" fill="none" stroke="#1d1d1b" stroke-linecap="round" stroke-linejoin="round" stroke-width=".71"/><path class="st3" d="m200.7 137.3h-24.1m628.2 23.5h-46.5v-50.7h46.5v50.7zm-71-10.4h24.4v3.7h-24.4v-3.7zm0-16.7h24.4v3.7h-24.4v-3.7zm0-16.8h24.4v3.7h-24.4v-3.7z"/><circle class="st3" cx="284.5" cy="193.7" r="7.2"/><circle class="st3" cx="691.1" cy="104.9" r="11.8"/><circle class="st3" cx="706.7" cy="139.3" r="11.8"/><path class="st3" d="M545.8 458.4H411.3m-6.1.3h-39.3m48.4.2v13.8h-2.7v-13.8m6.3 0v13.8h-2.6v-13.8m6.4 0v13.8H419v-13.8m6.4 0v13.8h-2.7v-13.8m6.5 0v13.8h-2.8v-13.8m6.5 0v10.8h-2.7v-10.8m6.4 0v13.8h-2.7v-13.8m6.4 0v13.8h-2.7v-13.8m6.4 0v13.8h-2.7v-13.8m6.4 0v13.8h-2.6v-13.8m6.4 0v13.8h-2.7v-13.8m6.4 0v13.8h-2.7v-13.8m6.4 0v13.8h-2.7v-13.8m6.5 0v13.8H460v-13.8m6.4 0v13.8h-2.7v-13.8m6.4 0v13.8h-2.7v-13.8m-93.2.2V473h-2.7v-13.9m-1.3 0V473h-2.7v-13.9m10.3 0V473h-2.7v-13.9m6.3 0V473h-2.6v-13.9m6.3 0V473h-2.6v-13.9m6.3 0V473H386v-13.9m6.4 0V473h-2.7v-13.9m6.4 0V473h-2.7v-13.9m6.3 0V473H397v-13.9m6.4 0V473h-2.7v-13.9m73.1-.2v13.8h-2.7v-13.8m6.4 0v13.8h-2.6v-13.8m6.3 0v10.8h-2.6v-10.8m6.4 0v13.8h-2.7v-13.8m13.9 0v13.8h-2.7v-13.8m6.4 0v13.8h-2.7v-13.8m6.4 0v13.8h-2.7v-13.8m-12.2 0v13.8H486v-13.8m6.4 0v13.8h-2.7v-13.8m17.6 0v13.8h-2.6v-13.8m6.3 0v13.8h-2.6v-13.8m6.4 0v13.8h-2.7v-13.8m6.4 0v13.8h-2.7v-13.8m6.4 0v13.8h-2.7v-13.8m6.5 0v13.8h-2.7v-13.8m6.4 0v13.8H527v-13.8m6.4 0v13.8h-2.7v-13.8m6.4 0v13.8h-2.6v-13.8m6.3 0v10.8h-2.6v-10.8m6.4 0v13.8h-2.7v-13.8M244.4 292h15c1.1 0 2.1.9 2.1 2.1v11.6c0 1.1-.9 2.1-2.1 2.1h-15c-1.1 0-2.1-.9-2.1-2.1v-11.6c0-1.2 1-2.1 2.1-2.1zm0 31.6h15c1.1 0 2.1.9 2.1 2.1v11.6c0 1.1-.9 2.1-2.1 2.1h-15c-1.1 0-2.1-.9-2.1-2.1v-11.6c0-1.2 1-2.1 2.1-2.1zm0 31.6h15c1.1 0 2.1.9 2.1 2.1v11.6c0 1.1-.9 2.1-2.1 2.1h-15c-1.1 0-2.1-.9-2.1-2.1v-11.6c0-1.2 1-2.1 2.1-2.1zm0 31.6h15c1.1 0 2.1.9 2.1 2.1v11.6c0 1.1-.9 2.1-2.1 2.1h-15c-1.1 0-2.1-.9-2.1-2.1v-11.6c0-1.2 1-2.1 2.1-2.1zm79.1-164.6h17.4c1.5 0 2.7 1.2 2.7 2.7v17.4c0 1.5-1.2 2.7-2.7 2.7h-17.4c-1.5 0-2.7-1.2-2.7-2.7v-17.4c0-1.5 1.2-2.7 2.7-2.7zm-25.8-14h10.6c.9 0 1.7-.8 1.7-1.7v-10.6c0-.9-.8-1.7-1.7-1.7h-10.6c-.9 0-1.7.8-1.7 1.7v10.6c0 .9.7 1.7 1.7 1.7zM287 224.1h19.9v17.2H287v-17.2zm19.9 1.7h2.9m-2.9 4.7h2.9m-2.9 4.7h2.9m-2.9 4.7h2.9m-26-14.1h3m-3 4.7h3m-3 4.7h3m-3 4.7h3m-.5 21v-12.2h17.2v12.2m-1.6-15.5v3.1m-4.7-3.1v3.1m-4.7-3.1v3.1m-4.7-3.1v3.1m65.9-33.3h-4.5v-17.6h4.5m-10.7 1.7h6m-6 4.8h6m-6 4.8h6m-6 4.8h6m4.7-25.6h-4.5v-17.5h4.5m-10.7 1.6h6m-6 4.8h6m-6 4.8h6m-6 4.8h6m-104.9-54.5h17.5v13.3h-17.5v-13.3zm1.7 0V126m4.8 6.1V126m4.7 6.1V126m4.8 6.1V126m-14.3 25.6v-6.1m4.8 6.1v-6.1m4.7 6.1v-6.1m4.8 6.1v-6.1M242.7 160h19.1v15h-19.1v-15zm1.9.1v-6.8m5.2 6.8v-6.8m5.2 6.8v-6.8m5.2 6.8v-6.8M244.6 182v-6.8m5.2 6.8v-6.8m5.2 6.8v-6.8m5.2 6.8v-6.8m3.6-15.1h19.1v15h-19.1v-15zm1.9 0v-6.8m5.2 6.8v-6.8m5.1 6.8v-6.8m5.3 6.8v-6.8M265.7 182v-6.8m5.2 6.8v-6.8m5.1 6.8v-6.8m5.3 6.8v-6.8m494 78.8v6.4h-14.6V254h14.6zm-2.4-.1v6.5m-9.9-6.5v6.5m12.3 2.6v6.5h-14.6V263h14.6zm-2.4-.1v6.5m-9.9-6.5v6.5m12.3 2.7v6.4h-14.6v-6.4h14.6zm-2.4-.1v6.4M763 272v6.4m12.3 2.7v6.4h-14.6v-6.4h14.6zm-2.4-.1v6.5M763 281v6.5M749 347h-6.4v-14.5h6.4V347zm.1-2.4h-6.5m6.5-9.8h-6.5M740 347h-6.5v-14.5h6.5V347zm.1-2.4h-6.5m6.5-9.8h-6.5M731 347h-6.5v-14.5h6.5V347zm0-2.4h-6.4m6.4-9.8h-6.4M749 366h-6.4v-14.6h6.4V366zm.1-2.4h-6.5m6.5-9.8h-6.5M740 366h-6.5v-14.6h6.5V366zm.1-2.4h-6.5m6.5-9.8h-6.5M731 366h-6.5v-14.6h6.5V366zm0-2.4h-6.4m6.4-9.8h-6.4"/><circle class="st3" cx="507.3" cy="100.1" r="2.7"/><circle class="st3" cx="498.1" cy="100.1" r="2.7"/><circle class="st3" cx="488.9" cy="100.1" r="2.7"/><circle class="st3" cx="479.8" cy="100.1" r="2.7"/><circle class="st3" cx="470.7" cy="100.1" r="2.7"/><path class="st4" d="m200.7 327.6h-4.4v-4.1h-6.5v-1.8h-25v-15.3h25v-1.8h6.5v-4.1h4.4"/><path class="st3" d="M213.1 302.1H237V326h-23.9m-33.5-19.6v15.3"/><circle class="st5" cx="172" cy="314.1" r="2.9"/><path class="st3" d="m189.8 321.7v-15.4m6.5-1.6v18.7"/><path class="st4" d="M200.7 359.2h-4.4v-4.1h-6.5v-1.8h-25V338h25v-1.8h6.5v-4.1h4.4"/><path class="st3" d="M213.1 333.7H237v23.9h-23.9M179.6 338v15.3"/><circle class="st5" cx="172" cy="345.7" r="2.9"/><path class="st3" d="M189.8 353.3v-15.4m6.5-1.6V355m16.6 106.9V134.8c0-3.2-3.2-3.1-3.2-3.1h-8.9m-24.2-.5h24.1v12.2h-24.1v-12.2zm24.1 71.6h-24.1m0-6.1h24.1v12.2h-24.1v-12.2zm24.3-5h-11.4c-1.9 0-3.4-1.5-3.4-3.4v-36.7c0-1.9 1.5-3.4 3.4-3.4h11.4"/><path class="st3" d="M208.5 128.1H223v17.4h15.8v48.8h-16.1v17.5h-9.8"/><path class="st3" d="M238.7 186.8h-6.4v2.6H228v-2.6h-15.1m25.8-34h-6.4v-2.6H228v2.6h-15.1m10.1-24.7h7.7v17.3m-8 66.4h8v-17.5"/><circle class="st3" cx="350.7" cy="152.8" r="2.7"/><circle class="st3" cx="341.6" cy="152.8" r="2.7"/><circle class="st3" cx="332.4" cy="152.8" r="2.7"/><circle class="st3" cx="324" cy="152.8" r="2.7"/><circle class="st3" cx="314.8" cy="152.8" r="2.7"/><circle class="st3" cx="305.6" cy="152.8" r="2.7"/><circle class="st3" cx="296.5" cy="152.8" r="2.7"/><circle class="st3" cx="350.7" cy="161.4" r="2.7"/><circle class="st3" cx="341.6" cy="161.4" r="2.7"/><circle class="st3" cx="332.4" cy="161.4" r="2.7"/><circle class="st3" cx="324" cy="161.4" r="2.7"/><circle class="st3" cx="314.8" cy="161.4" r="2.7"/><circle class="st3" cx="305.6" cy="161.4" r="2.7"/><circle class="st3" cx="296.5" cy="161.4" r="2.7"/><circle class="st3" cx="287.4" cy="152.8" r="2.7"/><path class="st3" d="M673.1 133.1v-9.4h-24.7v9.4m78.2 41.2h26.8v26.8h-26.8v-26.8zm29.1-4.3h17.4v21.6h-17.4V170zm-6.2 57.5H768v20.1h-18.5v-20.1zm23.5-21.1v6.4h-14.6v-6.4H773zm-2.4-.1v6.5m-9.9-6.5v6.5m21.3-15.4v6.4h-14.5v-6.4H782zm-2.4-.1v6.4m-9.8-6.4v6.4m17.5 80.6h11.4v56.4h-11.4v-56.4z"/><path class="st6" d="m789.6 295.5h6.8"/><path class="st3" d="m791.9 288.8h2.3v2.3h-2.3v-2.3z"/><path class="st6" d="m789.6 306.8h6.8"/><path class="st3" d="m791.9 300.1h2.3v2.3h-2.3v-2.3z"/><path class="st6" d="m789.6 318.1h6.8"/><path class="st3" d="m791.9 311.4h2.3v2.3h-2.3v-2.3z"/><path class="st6" d="m789.6 329.4h6.8"/><path class="st3" d="M789.6 295.5h-2.4m2.4 11.3h-2.4m2.4 11.3h-2.4m2.4 11.3h-2.4m11.4-33.9h-2.4m2.4 11.3h-2.4m2.4 11.3h-2.4m2.4 11.3h-2.4m-4.3-6.7h2.3v2.3h-2.3v-2.3zm0 11.3h2.3v2.3h-2.3V334z"/><circle class="st3" cx="743.4" cy="383" r="11.8"/><circle class="st3" cx="743.4" cy="419.2" r="11.8"/><path class="st3" d="M248.3 244.8h8.7v14.6h-8.7v-14.6zM257 257h-8.7m8.7-9.9h-8.7m12.5-2.3h8.7v14.6h-8.7v-14.6zm8.7 12.2h-8.7m8.7-9.9h-8.7m12.5-2.3h8.7v14.6h-8.7v-14.6zm8.8 12.2h-8.7m8.7-9.9h-8.7m457.3 57.1h32.9v25.2h-32.9v-25.2zm-3.9-68.3h18.1c1.2 0 2.3 1 2.3 2.3v18.1c0 1.2-1 2.3-2.3 2.3h-18.1c-1.2 0-2.3-1-2.3-2.3v-18.1c.1-1.3 1.1-2.3 2.3-2.3zM518.1 96.5h8.1v3.6h-8.1v-3.6zm11.3.5h5.6v2.6h-5.6V97zm0 6.3h5.6v2.6h-5.6v-2.6zm0 4.5h5.6v2.6h-5.6v-2.6zm-10.4 0h5.6v2.6H519v-2.6zm-15.8-.6h5.6v2.6h-5.6v-2.6zm-7.5 0h5.6v2.6h-5.6v-2.6zm-9 0h5.6v2.6h-5.6v-2.6zm-7.2 0h5.6v2.6h-5.6v-2.6zm38.6-4.4h8.1v3.6h-8.1v-3.6zm20.3-6.3h8.1v3.6h-8.1v-3.6zm11.3.5h5.6v2.6h-5.6V97zm0 6.3h5.6v2.6h-5.6v-2.6zm-11.3-.5h8.1v3.6h-8.1v-3.6zm20.3-6.3h8.1v3.6h-8.1v-3.6zm11.3.5h5.6v2.6H570V97zm0 6.3h5.6v2.6H570v-2.6zm-11.3-.5h8.1v3.6h-8.1v-3.6zm20.3-6.3h8.1v3.6H579v-3.6zm11.3.5h5.6v2.6h-5.6V97zm13.6-.5h8.1v3.6h-8.1v-3.6zm11.2.5h5.6v2.6h-5.6V97zm9.1-.5h8.1v3.6h-8.1v-3.6zm11.3.5h5.6v2.6h-5.6V97zm2.2 4.5h5.6v2.6h-5.6v-2.6zm-2.2 4.5h5.6v2.6h-5.6V106zm-2.1 5.9h5.6v2.6h-5.6v-2.6zm12.4-7.7h5.6v2.6h-5.6v-2.6zm8.4-.4h5.6v2.6h-5.6v-2.6zm7.2 0h5.6v2.6h-5.6v-2.6zm-3-7.8h2.6v5.6h-2.6V96zm-68.1 7.3h5.6v2.6h-5.6v-2.6zm-11.3-.5h8.1v3.6H579v-3.6zm68.7-7.2h5.5v5.5h-5.5v-5.5zm.9 14.9h11.1v5.5h-11.1v-5.5zm17.2-14.9h5.5v5.5h-5.5v-5.5z"/><circle class="st3" cx="644.5" cy="120.1" r="1.7"/><circle class="st3" cx="643.1" cy="113.8" r="1.7"/><circle class="st3" cx="644.5" cy="125.3" r="1.7"/><circle class="st3" cx="638.8" cy="126.4" r="1.7"/><circle class="st3" cx="640.9" cy="131.4" r="1.7"/><circle class="st3" cx="649.7" cy="120.1" r="1.7"/><circle class="st3" cx="658.7" cy="120.1" r="1.7"/><circle class="st3" cx="664.1" cy="117.4" r="1.7"/><circle class="st3" cx="668.6" cy="117.4" r="1.7"/><circle class="st3" cx="664.1" cy="112.2" r="1.7"/><circle class="st3" cx="668.6" cy="112.2" r="1.7"/><path class="st3" d="M720.1 436V164.9h-29c-4.3 0-6.4-2.6-6.4-6.2v-25.8h-331v120.9c0 5-3.4 7.1-7.7 7.1h-80.3V436m283.7 0H265.7"/><path class="st3" d="M365.4 133.2h5.6v18.1h-5.6v-18.1zm0 25.9h5.6v18.1h-5.6v-18.1zm0 25.9h5.6v18.1h-5.6V185zm0 25.9h5.6V229h-5.6v-18.1zm0 25.8h5.6v18.1h-5.6v-18.1zm0 25.9h5.6v18.1h-5.6v-18.1zm0 25.9h5.6v18.1h-5.6v-18.1zm0 25.9h5.6v18.1h-5.6v-18.1zm0 25.9h5.6v18.1h-5.6v-18.1zm0 25.9h5.6v18.1h-5.6v-18.1zm0 25.8h5.6v18.1h-5.6V392zm0 25.9h5.6V436h-5.6v-18.1zm-24.9-155.3h5.6v18.1h-5.6v-18.1zm0 25.9h5.6v18.1h-5.6v-18.1zm0 25.9h5.6v18.1h-5.6v-18.1zm0 25.9h5.6v18.1h-5.6v-18.1zm0 25.9h5.6v18.1h-5.6v-18.1zm0 25.8h5.6v18.1h-5.6V392zm0 25.9h5.6V436h-5.6v-18.1zm-25-155.3h5.6v18.1h-5.6v-18.1zm0 25.9h5.6v18.1h-5.6v-18.1zm0 25.9h5.6v18.1h-5.6v-18.1zm0 25.9h5.6v18.1h-5.6v-18.1zm0 25.9h5.6v18.1h-5.6v-18.1zm0 25.8h5.6v18.1h-5.6V392zm0 25.9h5.6V436h-5.6v-18.1zm-24.9-155.3h5.6v18.1h-5.6v-18.1zm0 25.9h5.6v18.1h-5.6v-18.1zm0 25.9h5.6v18.1h-5.6v-18.1zm0 25.9h5.6v18.1h-5.6v-18.1zm0 25.9h5.6v18.1h-5.6v-18.1zm0 25.8h5.6v18.1h-5.6V392zm0 25.9h5.6V436h-5.6v-18.1zm-24.9-155.3h5.6v18.1h-5.6v-18.1zm0 25.9h5.6v18.1h-5.6v-18.1zm0 25.9h5.6v18.1h-5.6v-18.1zm0 25.9h5.6v18.1h-5.6v-18.1zm0 25.9h5.6v18.1h-5.6v-18.1zm0 25.8h5.6v18.1h-5.6V392zm0 25.9h5.6V436h-5.6v-18.1zm124.6-284.7h5.6v18.1h-5.6v-18.1zm0 25.9h5.6v18.1h-5.6v-18.1zm0 25.9h5.6v18.1h-5.6V185zm0 25.9h5.6V229h-5.6v-18.1zm0 25.8h5.6v18.1h-5.6v-18.1zm0 25.9h5.6v18.1h-5.6v-18.1zm0 25.9h5.6v18.1h-5.6v-18.1zm0 25.9h5.6v18.1h-5.6v-18.1zm0 25.9h5.6v18.1h-5.6v-18.1zm0 25.9h5.6v18.1h-5.6v-18.1zm0 25.8h5.6v18.1h-5.6V392zm0 25.9h5.6V436h-5.6v-18.1zm25-284.7h5.6v18.1h-5.6v-18.1zm0 25.9h5.6v18.1h-5.6v-18.1zm0 25.9h5.6v18.1h-5.6V185zm0 25.9h5.6V229h-5.6v-18.1zm0 25.8h5.6v18.1h-5.6v-18.1zm0 25.9h5.6v18.1h-5.6v-18.1zm0 25.9h5.6v18.1h-5.6v-18.1zm0 25.9h5.6v18.1h-5.6v-18.1zm0 25.9h5.6v18.1h-5.6v-18.1zm0 25.9h5.6v18.1h-5.6v-18.1zm0 25.8h5.6v18.1h-5.6V392zm0 25.9h5.6V436h-5.6v-18.1zm24.9-284.7h5.6v18.1h-5.6v-18.1zm0 25.9h5.6v18.1h-5.6v-18.1zm0 25.9h5.6v18.1h-5.6V185zm0 25.9h5.6V229h-5.6v-18.1zm0 25.8h5.6v18.1h-5.6v-18.1zm0 25.9h5.6v18.1h-5.6v-18.1zm0 25.9h5.6v18.1h-5.6v-18.1zm0 25.9h5.6v18.1h-5.6v-18.1zm0 25.9h5.6v18.1h-5.6v-18.1zm0 25.9h5.6v18.1h-5.6v-18.1zm0 25.8h5.6v18.1h-5.6V392zm0 25.9h5.6V436h-5.6v-18.1zm24.9-284.7h5.6v18.1h-5.6v-18.1zm0 25.9h5.6v18.1h-5.6v-18.1zm0 25.9h5.6v18.1h-5.6V185zm0 25.9h5.6V229h-5.6v-18.1zm0 25.8h5.6v18.1h-5.6v-18.1zm0 25.9h5.6v18.1h-5.6v-18.1zm0 25.9h5.6v18.1h-5.6v-18.1zm0 25.9h5.6v18.1h-5.6v-18.1zm0 25.9h5.6v18.1h-5.6v-18.1zm0 25.9h5.6v18.1h-5.6v-18.1zm0 25.8h5.6v18.1h-5.6V392zm0 25.9h5.6V436h-5.6v-18.1zm25-284.7h5.6v18.1h-5.6v-18.1zm0 25.9h5.6v18.1h-5.6v-18.1zm0 25.9h5.6v18.1h-5.6V185zm0 25.9h5.6V229h-5.6v-18.1zm0 25.8h5.6v18.1h-5.6v-18.1zm0 25.9h5.6v18.1h-5.6v-18.1zm0 25.9h5.6v18.1h-5.6v-18.1zm0 25.9h5.6v18.1h-5.6v-18.1zm0 25.9h5.6v18.1h-5.6v-18.1zm0 25.9h5.6v18.1h-5.6v-18.1zm0 25.8h5.6v18.1h-5.6V392zm0 25.9h5.6V436h-5.6v-18.1zM515 133.2h5.6v18.1H515v-18.1zm0 25.9h5.6v18.1H515v-18.1zm0 25.9h5.6v18.1H515V185zm0 25.9h5.6V229H515v-18.1zm0 25.8h5.6v18.1H515v-18.1zm0 25.9h5.6v18.1H515v-18.1zm0 25.9h5.6v18.1H515v-18.1zm0 25.9h5.6v18.1H515v-18.1zm0 25.9h5.6v18.1H515v-18.1zm0 25.9h5.6v18.1H515v-18.1zm0 25.8h5.6v18.1H515V392zm0 25.9h5.6V436H515v-18.1zm24.9-284.7h5.6v18.1h-5.6v-18.1zm0 25.9h5.6v18.1h-5.6v-18.1zm0 25.9h5.6v18.1h-5.6V185zm0 25.9h5.6V229h-5.6v-18.1zm0 25.8h5.6v18.1h-5.6v-18.1zm0 25.9h5.6v18.1h-5.6v-18.1zm0 25.9h5.6v18.1h-5.6v-18.1zm0 25.9h5.6v18.1h-5.6v-18.1zm0 25.9h5.6v18.1h-5.6v-18.1zm0 25.9h5.6v18.1h-5.6v-18.1zm0 25.8h5.6v18.1h-5.6V392zm0 25.9h5.6V436h-5.6v-18.1zm24.9-284.7h5.6v18.1h-5.6v-18.1zm0 25.9h5.6v18.1h-5.6v-18.1zm0 25.9h5.6v18.1h-5.6V185zm0 25.9h5.6V229h-5.6v-18.1zm0 25.8h5.6v18.1h-5.6v-18.1zm0 25.9h5.6v18.1h-5.6v-18.1zm0 25.9h5.6v18.1h-5.6v-18.1zm0 25.9h5.6v18.1h-5.6v-18.1zm0 25.9h5.6v18.1h-5.6v-18.1zm0 25.9h5.6v18.1h-5.6v-18.1zm0 25.8h5.6v18.1h-5.6V392zm0 25.9h5.6V436h-5.6v-18.1zm25-284.7h5.6v18.1h-5.6v-18.1zm0 25.9h5.6v18.1h-5.6v-18.1zm0 25.9h5.6v18.1h-5.6V185zm0 25.9h5.6V229h-5.6v-18.1zm0 25.8h5.6v18.1h-5.6v-18.1zm0 25.9h5.6v18.1h-5.6v-18.1zm0 25.9h5.6v18.1h-5.6v-18.1zm0 25.9h5.6v18.1h-5.6v-18.1zm0 25.9h5.6v18.1h-5.6v-18.1zm0 25.9h5.6v18.1h-5.6v-18.1zm0 25.8h5.6v18.1h-5.6V392zm0 25.9h5.6V436h-5.6v-18.1zm24.9-284.7h5.6v18.1h-5.6v-18.1zm0 25.9h5.6v18.1h-5.6v-18.1zm0 25.9h5.6v18.1h-5.6V185zm0 25.9h5.6V229h-5.6v-18.1zm0 25.8h5.6v18.1h-5.6v-18.1zm0 25.9h5.6v18.1h-5.6v-18.1zm0 25.9h5.6v18.1h-5.6v-18.1zm0 25.9h5.6v18.1h-5.6v-18.1zm0 25.9h5.6v18.1h-5.6v-18.1zm0 25.9h5.6v18.1h-5.6v-18.1zm0 25.8h5.6v18.1h-5.6V392zm0 25.9h5.6V436h-5.6v-18.1zm24.9-284.7h5.6v18.1h-5.6v-18.1zm0 25.9h5.6v18.1h-5.6v-18.1zm0 25.9h5.6v18.1h-5.6V185zm0 25.9h5.6V229h-5.6v-18.1zm0 25.8h5.6v18.1h-5.6v-18.1zm0 25.9h5.6v18.1h-5.6v-18.1zm0 25.9h5.6v18.1h-5.6v-18.1zm0 25.9h5.6v18.1h-5.6v-18.1zm0 25.9h5.6v18.1h-5.6v-18.1zm0 25.9h5.6v18.1h-5.6v-18.1zm0 25.8h5.6v18.1h-5.6V392zm0 25.9h5.6V436h-5.6v-18.1zm25-284.7h5.6v18.1h-5.6v-18.1zm0 25.9h5.6v18.1h-5.6v-18.1zm0 25.9h5.6v18.1h-5.6V185zm0 25.9h5.6V229h-5.6v-18.1zm0 25.8h5.6v18.1h-5.6v-18.1zm0 25.9h5.6v18.1h-5.6v-18.1zm0 25.9h5.6v18.1h-5.6v-18.1zm0 25.9h5.6v18.1h-5.6v-18.1zm0 25.9h5.6v18.1h-5.6v-18.1zm0 25.9h5.6v18.1h-5.6v-18.1zm0 25.8h5.6v18.1h-5.6V392zm0 25.9h5.6V436h-5.6v-18.1zm24.9-253.1v12.3h5.6v-12.2m-5.6 20.1h5.6v18.1h-5.6V185zm0 25.9h5.6V229h-5.6v-18.1zm0 25.8h5.6v18.1h-5.6v-18.1zm0 25.9h5.6v18.1h-5.6v-18.1zm0 25.9h5.6v18.1h-5.6v-18.1zm0 25.9h5.6v18.1h-5.6v-18.1zm0 25.9h5.6v18.1h-5.6v-18.1zm0 25.9h5.6v18.1h-5.6v-18.1zm0 25.8h5.6v18.1h-5.6V392zm0 25.9h5.6V436h-5.6v-18.1zm24.9-253.1v12.3h5.7v-12.3m-5.7 20.2h5.6v18.1h-5.6V185zm0 25.9h5.6V229h-5.6v-18.1zm0 25.8h5.6v18.1h-5.6v-18.1zm0 25.9h5.6v18.1h-5.6v-18.1zm0 25.9h5.6v18.1h-5.6v-18.1zm0 25.9h5.6v18.1h-5.6v-18.1zm0 25.9h5.6v18.1h-5.6v-18.1zm0 25.9h5.6v18.1h-5.6v-18.1zm0 25.8h5.6v18.1h-5.6V392zm0 25.9h5.6V436h-5.6v-18.1z"/></g><text class="st8 st12" x="219.97626" y="101.64745" font-family="Helvetica, Arial, sans-serif" font-size="5px">Tamb</text><text class="st7" transform="translate(20.012 163.56)"><tspan class="st8 st9" x="0" y="0">D-Sub Micro-D  </tspan><tspan class="st8 st9" x="0" y="16.8">connector (15-pin)</tspan></text><path class="st10" d="m107.6 330.5h33.2m-33.2-96.2h53m-19.8-62.9h39"/><text class="st7" transform="translate(20.012 324.64)"><tspan class="st8 st9" x="0" y="0">Micro-BNC  </tspan><tspan class="st8 st9" x="0" y="16.8">connectors</tspan></text><text class="st8 st9" transform="translate(351.9 547.26)">DMA 7800</text><text class="st8 st9" transform="translate(351.9 564.06)">PCIe 3.0 x8</text><path class="st10" d="m386.7 470.1v59.2"/><text class="st7" transform="translate(729.97 21.548)"><tspan class="st8 st9" x="0" y="0">PCIe power  </tspan><tspan class="st8 st9" x="0" y="16.8">connector (6-pin)</tspan></text><path class="st10" d="m779.9 45.3v75.3"/><text class="st8 st9" transform="translate(478.5 27.548)">LEDs on the board</text><text class="st8 st9" x="225.95598" y="26.548" font-family="Helvetica, Arial, sans-serif" font-size="14px" text-align="center" text-anchor="middle"><tspan x="225.95598" y="26.548">Ambient temperature</tspan><tspan x="225.95598" y="44.048">sensor</tspan></text><path class="st10" d="m536.3 34.3v63.9"/><text class="st7" transform="translate(20.012 229.5)"><tspan class="st8 st9" x="0" y="0">LEDs on the </tspan><tspan class="st8 st9" x="0" y="16.8">slot bracket</tspan></text><path class="st1" d="m196.4 221.1h4.4v10.7h-4.4zm0 15h4.4v10.7h-4.4z"/><text class="st8 st11" transform="translate(178.04 231.9)">1</text><text class="st8 st11" transform="translate(178.04 246.9)">2</text><text class="st8 st11" transform="translate(147.97 319.1)">1</text><text class="st8 st11" transform="translate(147.97 349.1)">2</text><text class="st8 st12" transform="translate(520.63 94.1)">TRG</text><text class="st8 st12" transform="translate(517.31 117.1)">READY</text><text class="st8 st12" transform="translate(540.97 113.1)">USR6</text><text class="st8 st12" transform="translate(560.97 113.1)">USR5</text><text class="st8 st12" transform="translate(579.39 113.1)">PG_INT</text><text class="st8 st12" transform="translate(540.97 94.1)">USR4</text><text class="st8 st12" transform="translate(560.97 94.1)">USR3</text><text class="st8 st12" transform="translate(578.55 94.1)">PG_EXT</text><text class="st8 st12" transform="translate(604.97 94.1)">USR2</text><text class="st8 st12" transform="translate(625.97 94.1)">USR1</text><text class="st8 st12" transform="translate(643.97 94.1)">12EXT</text><text class="st8 st12" transform="translate(660.97 94.1)">12PCI</text><path class="st11" d="m226 51.724v41.013" fill="none" stroke="#000" stroke-miterlimit="10" stroke-width=".80114"/><text class="st9 st10" x="338.23511" y="47.198017" font-family="Helvetica, Arial, sans-serif" font-size="14px" text-align="center" text-anchor="middle"><tspan x="338.23511" y="47.198017"/></text></svg>
