<svg version="1.1" id="Ebene_1" xmlns="http://www.w3.org/2000/svg" xmlns:xlink="http://www.w3.org/1999/xlink" x="0" y="0" viewBox="0 0 549.9 464.9" style="enable-background:new 0 0 549.9 464.9;background-color:#fff" xml:space="preserve"><style>.st1{clip-path:url(#SVGID_4_);fill:none;stroke:#1d1d1b;stroke-width:.425;stroke-linecap:round;stroke-linejoin:round;stroke-miterlimit:10}.st4{font-family:Helvetica,Arial,sans-serif}.st5{font-size:14px}.st6,.st7{fill:none;stroke:#000;stroke-width:.3;stroke-linecap:round;stroke-linejoin:round}.st7{stroke-width:.228;stroke-miterlimit:10}.st11{font-size:17.0079px}</style><defs><path id="SVGID_1_" d="M0 0h549.9v464.9H0z"/></defs><clipPath id="SVGID_2_"><use xlink:href="#SVGID_1_" style="overflow:visible"/></clipPath><defs><path id="SVGID_3_" d="M0 0h549.9v464.9H0z"/></defs><clipPath id="SVGID_4_"><use xlink:href="#SVGID_3_" style="overflow:visible"/></clipPath><path d="M41.5 61h36.3c.9 0 1.3.4 1.3 1.3V86h3.7v-7.7h430.9v259.4H321.1c-1.6 0-2.8 1.4-2.8 2.8v32.6l-1.9 2.3h-59.1l-2.3-2.3v-20.5c-.1-3.4-4.9-3.2-4.9 0v20.7l-2.1 2.1h-29.3l-2.3-2.3v-30.8c-.1-3.6-3.3-5.2-6.1-4.7v26.1h-36.7v-26.2h-43.4c-2.4 0-3.2 2-3.3 3.3-.1 1.8 0 21.1 0 21.1h-44v-3.1h-3.7V404l-1.1 13h-2.7l1.1-13.3V64.3c0-.5-.7-.7-.7-.7H44.6l-1.2.7h-1.9V61z" style="clip-path:url(#SVGID_4_);fill:#f6f6f6"/><path class="st1" d="M127 362H82.9m44.1-21.2V362m2.5-24.2 1.1-.2m-2.1.5 1-.3m-1.8 1 .8-.7m-1.3 1.7.5-1m-.7 2 .2-1m51.5-2.2h-48.1m51.6 2.8.1 1.2m-.6-2.3.5 1.1m-1.2-1.9.7.8m-1.8-1.4 1.1.6m-2.3-.9 1.2.3m2.4 24.1v-20.4m24.2 20.4h-24.2m24.2-19.4V362m9.8-20.8.2 1.4m-.7-2.6.5 1.2m-1.2-2.2.7 1m-1.8-1.8 1.1.8m-2.3-1.2 1.2.4m-2.5-.7 1.3.3m-2.5 0 1.2-.3m-2.4.7 1.2-.4M208 339l1.1-.8m-1.8 1.8.7-1m-1.2 2.2.5-1.2m-.8 2.6.3-1.4m9.7 32v-30.6m2.2 32.8-2.2-2.2m31.4 2.2h-29.2m31.5-2.2-2.3 2.2m2.3-22.8v20.6m4.7-21.5.1.9m-.7-1.8.6.9m-1.3-1.3.7.4m-1.7-.7 1 .3m-1.9 0 .9-.3m-1.7.7.8-.4m-1.4 1.3.6-.9m-.7 1.8.1-.9m4.7 21.5v-20.6m2.3 22.8-2.3-2.2m61.2 2.2h-58.9m61.1-2.2-2.2 2.2m2.2-2.2v-32.8c0-1.5.8-2.7 2.8-2.8h192.6m-.1-259.4v259.4M82.9 78.2h430.8M82.9 85.9v-7.7m0 283.8v-11m44.1 10.8v-.2m-.3.4h.3m0 0v-.2m3.6-24.2h.1m79.7.2v26h-36.7v-26m-88.3-60.5h53.7v54.5H85.4M79.2 359h4m2-9.5V87.4c0-1.1-.9-1.6-1.6-1.6h-7.1m2.7 317.8V351"/><path class="st1" d="M83.7 351h-7.1m2.6-265.1V62.5c0-1.1-.5-1.4-1.4-1.4H41.5v3.2h1.9l1.1-.6H76c.4 0 .6.1.6.4v339.3l-1.2 13.7H78l1.2-13.4"/><path style="clip-path:url(#SVGID_4_);fill:none;stroke:#1d1d1b;stroke-width:.425;stroke-linecap:round;stroke-linejoin:bevel;stroke-miterlimit:10" d="m83.7 351 .7-.3.5-.5.2-.7"/><path class="st1" d="M85.2 107.6h53.9v54.5H85.2m0 58.6h53.9v54.5H85.3m-.1-111h53.9v54.5H85.2"/><path d="M41.5 61h36.3c.9 0 1.3.4 1.3 1.3V86h3.7v-7.7h430.9v259.4H321.1c-1.6 0-2.8 1.4-2.8 2.8v32.6l-1.9 2.3h-59.1l-2.3-2.3v-20.5c-.1-3.4-4.9-3.2-4.9 0v20.7l-2.1 2.1h-29.3l-2.3-2.3v-30.8c-.1-3.6-3.3-5.2-6.1-4.7v26.1h-36.7v-26.2h-43.4c-2.4 0-3.2 2-3.3 3.3-.1 1.8 0 21.1 0 21.1h-44v-3.1h-3.7V404l-1.1 13h-2.7l1.1-13.3V64.3c0-.5-.7-.7-.7-.7H44.6l-1.2.7h-1.9V61z" style="clip-path:url(#SVGID_4_);fill:none;stroke:#1d1d1b;stroke-width:.709;stroke-linecap:round;stroke-linejoin:round;stroke-miterlimit:10"/><text transform="rotate(-90 135 117.325)" class="st4 st5">120</text><text transform="rotate(-90 388.043 -149.2)" class="st4 st5">100</text><path class="st6" d="M92.1 45.8H505"/><path d="m93.9 48.4-9.8-2.6 9.8-2.7zm409.3 0 9.7-2.6-9.7-2.7z"/><text transform="translate(130.947 451.38)" class="st4 st5">46.32</text><path class="st6" d="M87.5 456.7h120.4"/><path d="m89.3 459.3-9.8-2.6 9.8-2.6zm116.8 0 9.8-2.6-9.8-2.6z"/><path class="st6" d="M23.9 408.8V69.1"/><path d="m26.5 407-2.6 9.7-2.7-9.7zm0-336.1-2.6-9.8-2.7 9.8z"/><path class="st6" d="M541.9 367.7V86.6"/><path d="m544.6 365.9-2.6 9.8-2.7-9.8zm0-277.5-2.6-9.7-2.7 9.7z"/><path class="st7" d="M78.2 417.2H20.9"/><path d="M216.6 458.7v-85.4M79.2 458.7v-84.5m-38-313.1v-41m41.9 58V42.8" style="stroke-width:.3;stroke-miterlimit:10;fill:none;stroke:#000;stroke-linecap:round;stroke-linejoin:round"/><path style="fill:none;stroke:#000;stroke-width:.274;stroke-linecap:round;stroke-linejoin:round;stroke-miterlimit:10" d="M78.2 61.1H20.9"/><path d="M546.5 78.8h-33m32.8 296.7H316.4" style="stroke-width:.292;stroke-miterlimit:10;fill:none;stroke:#000;stroke-linecap:round;stroke-linejoin:round"/><text transform="translate(286.828 40.806)" class="st4 st5">145</text><text transform="translate(265.576 17.678)" class="st4 st5">159</text><path class="st6" d="M49.6 22.6H505"/><path d="m51.4 25.2-9.8-2.6 9.8-2.6zm451.8 0 9.7-2.6-9.7-2.6z"/><path class="st7" d="M513.5 78.8V20.1"/><text transform="translate(402.46 431.293)" class="st4 st11">Not to scale</text><text transform="translate(401.76 456.695)" class="st4 st11">Dimensions in mm</text></svg>