<svg version="1.1" id="Ebene_1" xmlns="http://www.w3.org/2000/svg" xmlns:xlink="http://www.w3.org/1999/xlink" x="0" y="0" viewBox="0 0 1006.3 453.5" style="background-color:#fff" xml:space="preserve"><style>.st1{fill:none;stroke:#000;stroke-width:.425;stroke-linecap:round;stroke-linejoin:round;clip-path:url(#SVGID_2_)}.st1,.st2{stroke-miterlimit:10}.st10,.st11,.st2,.st3,.st4,.st5,.st6,.st7,.st8,.st9{fill:none;stroke:#000;stroke-width:.283;stroke-linecap:round;stroke-linejoin:round}.st4{stroke-dasharray:.575,2.873}.st5{stroke-dasharray:8.619,2.873,.575,2.873}.st6{stroke-dasharray:.69,3.448}.st7{stroke-dasharray:10.343,3.448,.69,3.448}.st8{stroke-dasharray:.573,2.864}.st9{stroke-dasharray:8.591,2.864,.573,2.864}.st10{stroke-dasharray:.593,2.965}.st11{stroke-dasharray:8.896,2.965,.593,2.965}.st12{font-family:Helvetica,Arial,sans-serif}.st14{font-size:14.9997px}.st15{font-size:14.9998px}</style><path d="M453.5 364.7V81.2h34.1m0 14.2v255.1m0 0v14.2h-34.1m34.1-269.3V81.2m4.1 265.1V99.5M595 253.4v-61" stroke-miterlimit="10" fill="none" stroke="#000" stroke-width=".425" stroke-linecap="round" stroke-linejoin="round"/><defs><path id="SVGID_1_" d="M0 0h1006.3v453.5H0z"/></defs><clipPath id="SVGID_2_"><use xlink:href="#SVGID_1_" overflow="visible"/></clipPath><path class="st1" d="M491.9 99.6c0-3.1-1.6-5.9-4.3-7.4m0 261.4c2.6-1.5 4.3-4.3 4.3-7.4m-.2-236.5c0 3 2.4 5.5 5.4 5.7m0 215.1c-3 .1-5.4 2.6-5.4 5.7m5.5-5.7c45.7-2.3 84.9-33.2 97.9-77m0-61.1c-13-43.9-52.2-74.8-97.9-77M823 293.8c39.1 0 70.8-31.7 70.8-70.8s-31.7-70.8-70.8-70.8c-39.1 0-70.8 31.7-70.8 70.8 0 39 31.7 70.8 70.8 70.8m127.6 62.8c3.3 0 6-2.7 6-6s-2.7-6-6-6-6 2.7-6 6 2.7 6 6 6m-255.1 0c3.3 0 6-2.7 6-6s-2.7-6-6-6-6 2.7-6 6 2.7 6 6 6m0-255.3c3.3 0 6-2.7 6-6s-2.7-6-6-6-6 2.7-6 6 2.7 6 6 6m255.1 0c3.3 0 6-2.7 6-6s-2.7-6-6-6-6 2.7-6 6 2.7 6 6 6m.1 263.4H695.5m255.1 0c7.8 0 14.1-6.3 14.1-14.1m0-255.2v255.1m0-255.2c0-7.8-6.3-14.1-14.1-14.1m-255.1 0h255.2m-255.1 0c-7.8 0-14.1 6.3-14.1 14.1m-.1 255.2V95.4m0 255.2c0 7.8 6.3 14.1 14.1 14.1m267.1-245.3c0-7.4-6-13.4-13.4-13.4m13.4 13.5v206.8m-13.4 13.5c7.4 0 13.4-6 13.4-13.4m-13.3 13.3h-22.7m-13.5-13.3c0 7.4 6 13.4 13.4 13.4m-13.2-220.3v206.8M926.5 106c-7.4 0-13.4 6-13.4 13.4m36.2-13.2h-22.7"/><path class="st1" d="M817.5 195.1c-15.4 3-25.4 17.9-22.3 33.3 3 15.4 17.9 25.4 33.3 22.3 15.4-3 25.4-17.9 22.3-33.3-3-15.3-17.9-25.3-33.3-22.3m109-88.7c-7.2 0-13.1 5.8-13.1 13m13.2-13h22.7m12.9 13c0-7.2-5.8-13-13-13m13 13.1v206.8m-13 13.2c7.2 0 13-5.8 13.1-13m-13 13h-22.7m-13.2-13.1c0 7.2 5.8 13.1 13 13.1m-13-13.2V119.5M49.9 106.6c6.2 0 11.3-5 11.3-11.2 0-6.2-5-11.3-11.2-11.3-6.2 0-11.3 5-11.3 11.2s5 11.3 11.2 11.3m255.2 0c6.2 0 11.3-5 11.3-11.2 0-6.2-5-11.3-11.2-11.3-6.2 0-11.3 5-11.3 11.2s5 11.3 11.2 11.3m0 255.2c6.2 0 11.3-5 11.3-11.2 0-6.2-5-11.3-11.2-11.3-6.2 0-11.3 5-11.3 11.2s5 11.3 11.2 11.3m-255.2 0c6.2 0 11.3-5 11.3-11.2 0-6.2-5-11.3-11.2-11.3-6.2 0-11.3 5-11.3 11.2s5 11.3 11.2 11.3m127.6-5.6c73.6 0 133.3-59.6 133.3-133.3 0-73.6-59.6-133.3-133.3-133.3-73.6 0-133.3 59.6-133.3 133.3 0 73.6 59.7 133.3 133.3 133.3"/><path class="st1" d="M49.9 356.6c3.3 0 6-2.7 6-6s-2.7-6-6-6-6 2.7-6 6 2.7 6 6 6m255.2 0c3.3 0 6-2.7 6-6s-2.7-6-6-6-6 2.7-6 6 2.7 6 6 6m0-255.3c3.3 0 6-2.7 6-6s-2.7-6-6-6-6 2.7-6 6 2.7 6 6 6m-255.2 0c3.3 0 6-2.7 6-6s-2.7-6-6-6-6 2.7-6 6 2.7 6 6 6M305 81.2H50M35.8 95.4v255.1M50 364.7h255m14.3-14.2V95.4M35.8 350.6c0 7.8 6.3 14.1 14.1 14.1m255.2 0c7.8 0 14.1-6.3 14.1-14.1m.1-255.3c0-7.8-6.3-14.1-14.1-14.1m-255.3 0c-7.8 0-14.1 6.3-14.1 14.1M183 195.1c-15.4-3-30.3 7-33.3 22.3-3 15.4 7 30.3 22.3 33.3 15.4 3 30.3-7 33.3-22.3 3.1-15.4-6.9-30.3-22.3-33.3"/><path class="st1" d="M183.4 193c-16.5-3.3-32.6 7.5-35.8 24-3.3 16.5 7.5 32.6 24 35.8 16.5 3.3 32.6-7.5 35.8-24 3.3-16.5-7.5-32.5-24-35.8m291.1 130c0 .7.6 1.3 1.3 1.3.7 0 1.3-.6 1.3-1.3 0-.7-.6-1.3-1.3-1.3-.7 0-1.3.6-1.3 1.3m-10.8 0c0 .7.6 1.3 1.3 1.3.7 0 1.3-.6 1.3-1.3 0-.7-.6-1.3-1.3-1.3-.7 0-1.3.6-1.3 1.3m9 6.5c0 .7.6 1.3 1.3 1.3.7 0 1.3-.6 1.3-1.3 0-.7-.6-1.3-1.3-1.3-.7 0-1.3.6-1.3 1.3m-6.8 0c0 .7.6 1.3 1.3 1.3.7 0 1.3-.6 1.3-1.3 0-.7-.6-1.3-1.3-1.3-.8 0-1.3.6-1.3 1.3"/><path class="st1" d="M470.4 314.9c-5.5 0-9.9 4.4-9.9 9.9s4.4 9.9 9.9 9.9 9.9-4.4 9.9-9.9-4.5-9.9-9.9-9.9"/><path class="st1" d="M483.1 324.8c0-7.1-5.7-12.8-12.8-12.8-7.1 0-12.8 5.7-12.8 12.8 0 7.1 5.7 12.8 12.8 12.8 7.1 0 12.8-5.8 12.8-12.8m-26.6-6.3v12.9m0 0c.4.9.9 1.7 1.4 2.5m0 .1l11.2 6.4m0 0c1 .1 1.9.1 2.9 0m11.1-6.4l-11.1 6.4m11.1-6.4c.6-.8 1-1.8 1.5-2.7m0-12.8v12.8m0-12.8c-.4-.9-.9-1.7-1.4-2.5"/><path class="st1" d="M457.9 316l11.2-6.5h2.9l11.1 6.5m-25.2 0c-.6.8-1 1.6-1.4 2.5m-421-9.1h-4.9m0 6.5l-.3-3.3.3-3.2m0 6.5h5.3m0 2.5h-5.3v-2.5m0 15.7l-.3-6.7.3-6.5m0 13.2h5.3m-5.3 0v2.5h5.3m-5.3 6.5l-.3-3.3.3-3.2m0 6.5h4.9M13 316.2v17.5m3.6-18.5v19.6m2.1-19.1v18.6m2.9-18.6v18.6m2-20.8v22.8m2.9-22.8v22.8m2.2-20.6v18.6m7.2-24.9h-5.3m5.3 31.2h-5.3m-17.1-24.9c-.3.1-.5.3-.5.6m0 17.3c0 .3.2.6.5.6m0-18.5l3.1-.5m-3.1 19.1l3.1.5H18m0-19.6h-1.4m2.1 19.1l-.7.5m.7-19.1l-.7-.5m3.6 19.1h-2.9m4.9-20.8l-2 2.2h-2.9m2.9 18.6l2 2h2.9m0-22.8h-2.9m5.1 20.8l-2.2 2m2.2-20.6l-2.2-2.2m3.1 2.2h-.9m.9 0c.3 0 .6-.3.6-.6l.1-2.4m-1.6 21.6h.9c.3 0 .6.3.6.6l.1 2.4m934.8 3.3h4.9m0-6.5l.3 3.2-.3 3.3m0-6.5h-5.3m0-2.5h5.3v2.5m0-15.7l.3 6.7-.3 6.5m0-13.2h-5.3m5.3 0v-2.5h-5.3m5.3-6.5l.3 3.2-.3 3.3m0-6.5h-4.9m22.5 24.3v-17.4m-3.6 18.5v-19.6m-2.1 19.1v-18.6m-2.9 18.6v-18.6m-2 20.7v-22.7m-2.9 22.7v-22.7m-2.1 20.6v-18.6m-7.3 24.9h5.3m-5.3-31.2h5.3m17.1 24.9c.3-.1.5-.3.5-.6m0-17.4c0-.3-.2-.6-.5-.6m0 18.6l-3.1.5m3.1-19.1l-3.1-.5h-1.4m0 19.6h1.4m-2.1-19.1l.7-.5m-.7 19.1l.7.5m-3.6-19.1h2.9m-4.9 20.7l2-2.1h2.9m-2.9-18.6l-2-2h-2.9m0 22.7h2.9m-5-20.7l2.1-2m-2.1 20.6l2.1 2.1m-3.1-2.1h1m-1 0c-.3 0-.6.3-.6.6l-.1 2.4m1.7-21.6h-.9c-.3 0-.6-.3-.6-.6l-.1-2.4"/><defs><path id="SVGID_3_" d="M0 0h1006.3v453.5H0z"/></defs><clipPath id="SVGID_4_"><use xlink:href="#SVGID_3_" overflow="visible"/></clipPath><path class="st2" d="M752.5 409l39.3-154.8"/><path class="st3" d="M42.2 420.5h271.2"/><path d="M43.6 422.6l-7.7-2 7.7-2.1zm268.4 0l7.6-2-7.6-2.1z"/><path class="st2" d="M319.2 350.5v74"/><path class="st3" d="M493.9 420.5h95.3"/><path d="M495.3 422.6l-7.7-2 7.7-2.1zm92.5 0l7.6-2-7.6-2.1z"/><path class="st2" d="M595 253.4v171.1m-559.4-74v74"/><path class="st3" d="M56.4 395h242.8"/><path d="M57.8 397.1l-7.7-2.1 7.7-2zm240 0l7.7-2.1-7.7-2z"/><path class="st3" d="M19 395h10.6"/><path d="M20.4 397.1l-7.7-2.1 7.7-2zm7.8 0l7.7-2.1-7.7-2z"/><path class="st2" d="M305.2 350.5v48.4M49.8 350.6v48.3m-36.9-65.2v65.2"/><path class="st3" d="M431.9 358.1v-26.8"/><path d="M434 356.7l-2.1 7.6-2-7.6zm0-24l-2.1-7.7-2 7.7z"/><path class="st2" d="M429.7 324.8h24.1m-24.1 39.9h24.1m33.7 31.9v27.9m0-59.2v25.2m-34-25.8v59.8m17.1-99.5v71.6m16.7 23.9h-33.6"/><path class="st3" d="M447.5 420.5h-35.6"/><path d="M446.1 418.5l7.7 2-7.7 2.1z"/><path class="st2" d="M470.2 395h-15.7"/><path class="st3" d="M448.4 395h-35.6"/><path d="M447 393l7.6 2-7.6 2.1z"/><path class="st3" d="M476.9 395h30.5"/><path d="M478.3 397.1l-7.7-2.1 7.7-2z"/><path class="st3" d="M53.8 82.3l14.7-57.4H122"/><path d="M56.6 81.3l-4.7 8.3-.1-9.5z"/><path class="st3" d="M64.6 82.9l27.3-27.3h133.4"/><path d="M67.5 83.5l-8.2 4.7L64 80z"/><path class="st2" d="M304.4 395h15"/><path class="st3" d="M325.5 395h14.3"/><path d="M326.9 397.1l-7.7-2.1 7.7-2z"/><path class="st3" d="M374.5 358.4V87.2"/><path d="M376.5 356.9l-2 7.7-2.1-7.7zm0-268.3l-2-7.7-2.1 7.7z"/><path class="st2" d="M304.4 81.4h74m-74 283.6h74"/><path class="st3" d="M348.9 344.2V101.4"/><path d="M351 342.8l-2.1 7.7-2-7.7zm0-240l-2.1-7.7-2 7.7z"/><path class="st2" d="M304.4 95.4h48.5m-48.4 255.4h48.4m-4-.4v14.9"/><path class="st3" d="M348.9 371.5v14.3"/><path d="M346.9 372.9l2-7.7 2.1 7.7z"/><path class="st3" d="M161.9 238.5l31.2-31.2"/><path d="M164.4 239l-6.9 4 3.9-6.9zm29.2-29.2l4-6.9-6.9 4z"/><path class="st2" d="M197.6 203l10.5-10.6h38.5"/><path class="st3" d="M305.1 110.2v-4.3"/><path class="st4" d="M305.1 103.1v-2"/><path class="st5" d="M305.1 99.6V86.1"/><path class="st3" d="M305.1 84.7v-4.3M320 95.3h-4.2"/><path class="st4" d="M312.9 95.3h-2"/><path class="st5" d="M309.4 95.3h-13.5"/><path class="st3" d="M294.5 95.3h-4.3M49.9 367.6v-4.3"/><path class="st6" d="M49.9 359.9v-2.5"/><path class="st7" d="M49.9 355.7v-16.2"/><path class="st3" d="M49.9 337.8v-4.3m17 17.1h-4.3"/><path class="st6" d="M59.2 350.6h-2.4"/><path class="st7" d="M55.1 350.6H38.9"/><path class="st3" d="M37.1 350.6h-4.2M823 297.3v-4.2"/><path class="st8" d="M823 290.2v-2"/><path class="st9" d="M823 286.8V154.2"/><path class="st3" d="M823 152.8v-4.3m74.4 74.4h-4.3"/><path class="st8" d="M890.3 222.9h-2"/><path class="st9" d="M886.8 222.9H754.3"/><path class="st3" d="M752.8 222.9h-4.2m-53-110.6v-4.2"/><path class="st6" d="M695.6 104.6v-2.4"/><path class="st7" d="M695.6 100.5V84.3"/><path class="st3" d="M695.6 82.6v-4.3m17 17h-4.3"/><path class="st6" d="M704.9 95.3h-2.5"/><path class="st7" d="M700.7 95.3h-16.2"/><path class="st3" d="M682.8 95.3h-4.3m-628.6 17v-4.2"/><path class="st6" d="M49.9 104.6v-2.4"/><path class="st7" d="M49.9 100.5V84.3"/><path class="st3" d="M49.9 82.6v-4.3m17 17h-4.3"/><path class="st6" d="M59.2 95.3h-2.4"/><path class="st7" d="M55.1 95.3H38.9"/><path class="st3" d="M37.1 95.3h-4.2m272.2 272.3v-4.3"/><path class="st6" d="M305.1 359.9v-2.5"/><path class="st7" d="M305.1 355.7v-16.2"/><path class="st3" d="M305.1 337.8v-4.3m17 17.1h-4.2"/><path class="st6" d="M314.4 350.6H312"/><path class="st7" d="M310.3 350.6h-16.2"/><path class="st3" d="M292.4 350.6h-4.3m662.5-238.3v-4.2"/><path class="st6" d="M950.6 104.6v-2.4"/><path class="st7" d="M950.6 100.5V84.3"/><path class="st3" d="M950.6 82.6v-4.3m17 17h-4.2"/><path class="st6" d="M959.9 95.3h-2.4"/><path class="st7" d="M955.8 95.3h-16.2"/><path class="st3" d="M937.9 95.3h-4.3m-238 272.3v-4.3"/><path class="st6" d="M695.6 359.9v-2.5"/><path class="st7" d="M695.6 355.7v-16.2"/><path class="st3" d="M695.6 337.8v-4.3m17 17.1h-4.3"/><path class="st6" d="M704.9 350.6h-2.5"/><path class="st7" d="M700.7 350.6h-16.2"/><path class="st3" d="M682.8 350.6h-4.3m272.1 17v-4.3"/><path class="st6" d="M950.6 359.9v-2.5"/><path class="st7" d="M950.6 355.7v-16.2"/><path class="st3" d="M950.6 337.8v-4.3m17 17.1h-4.2"/><path class="st6" d="M959.9 350.6h-2.4"/><path class="st7" d="M955.8 350.6h-16.2"/><path class="st3" d="M937.9 350.6h-4.3M177.5 269v-4.3"/><path class="st10" d="M177.5 261.8v-2.1"/><path class="st11" d="M177.5 258.2v-75.6"/><path class="st3" d="M177.5 181.1v-4.2m46.1 46h-4.3"/><path class="st10" d="M216.4 222.9h-2.1"/><path class="st11" d="M212.8 222.9h-75.6"/><path class="st3" d="M135.7 222.9h-4.3M470.6 342v-4.3"/><path class="st6" d="M470.6 334.3v-2.4"/><path class="st7" d="M470.6 330.2V314"/><path class="st3" d="M470.6 312.2V308m17 17h-4.3"/><path class="st6" d="M479.9 325h-2.5"/><path class="st7" d="M475.7 325h-16.2"/><path class="st3" d="M457.8 325h-4.3m541.5 0h-4.3"/><path class="st6" d="M987.3 325h-2.5"/><path class="st7" d="M983.1 325h-16.2"/><path class="st3" d="M965.2 325h-4.3m-921.2 0h-4.3"/><path class="st6" d="M32 325h-2.4"/><path class="st7" d="M27.8 325H11.6"/><path class="st3" d="M9.9 325H5.7"/><text transform="translate(684.519 427.459)" class="st12" font-size="15">Ø 50 (Luminous area)</text><text transform="translate(169.452 390.57)" class="st12 st14">90</text><text transform="translate(20.88 390.57)" class="st12 st14">8</text><text transform="translate(165.282 416.086)" class="st12 st14">100</text><text transform="translate(533.18 416.086)" class="st12 st14">38</text><text transform="rotate(-90 389.955 -36.935)" class="st12 st14">14</text><text transform="translate(308.41 390.568)" class="st12 st14">5</text><text transform="rotate(-90 287.8 -56.678)" class="st12 st14">90</text><text transform="rotate(-90 302.642 -67.35)" class="st12 st14">100</text><text transform="rotate(-90 353.109 8.631)" class="st12 st14">5</text><text transform="translate(460.761 415.79)" class="st12 st14">12</text><text transform="translate(458.166 390.544)" class="st12 st14">6</text><text transform="translate(101.191 49.194)" class="st12 st15">4</text><text transform="translate(113.701 49.194)" class="st12 st15">× Ø 8, 4.4 deep</text><text transform="translate(72.902 18.55)" class="st12 st15">4</text><text transform="translate(85.412 18.55)" class="st12 st15">× M5</text><text transform="translate(873.148 422.608)"><tspan x="0" y="0" class="st12 st15">Not to scale </tspan><tspan x="0" y="18" class="st12 st15">Dimensions in mm</tspan></text><text transform="translate(212.495 187.411)" class="st12 st14">Ø</text><text transform="translate(228.335 187.411)" class="st12 st14">20</text></svg>