<svg version="1.1" id="Ebene_1" xmlns="http://www.w3.org/2000/svg" xmlns:xlink="http://www.w3.org/1999/xlink" x="0" y="0" viewBox="0 0 334 239" style="enable-background:new 0 0 334 239;background-color:#fff" xml:space="preserve"><style>.st0{fill:none;stroke:#d9d9d9;stroke-width:.75;stroke-linejoin:round;stroke-miterlimit:10}.st3{fill:#595959}.st4{font-family:&apos;Calibri&apos;}.st5{font-size:9px}.st6{font-family:Helvetica,Arial,sans-serif}.st7{font-size:9.96px}.st10{fill:#020203}.st11{font-size:11.04px}</style><path class="st0" d="M45 14.4h266M45 48.6h266M45 82.8h266M45 117h266M45 151.3h266m0-136.9v171.1M284.4 14.4v171.1M257.8 14.4v171.1M231.2 14.4v171.1M204.6 14.4v171.1M178 14.4v171.1M151.4 14.4v171.1M124.8 14.4v171.1M98.2 14.4v171.1M71.6 14.4v171.1M45 14.4v171.1m0 0h266"/><defs><path id="SVGID_1_" d="M44.9 14.4h266.8v171.7H44.9z"/></defs><clipPath id="SVGID_00000052082897218118922040000013931284477188599703_"><use xlink:href="#SVGID_1_" style="overflow:visible"/></clipPath><path style="clip-path:url(#SVGID_00000052082897218118922040000013931284477188599703_);fill:none;stroke:#5c9bd4;stroke-width:2.25;stroke-linecap:round;stroke-linejoin:round;stroke-miterlimit:10" d="m45 14.4 26.6.3 26.6.4 26.6 1 26.6 1.2 26.6 2 26.6 2.4 26.6 4.5 26.6 6.6 26.6 13.5L311 62.6"/><path style="clip-path:url(#SVGID_00000052082897218118922040000013931284477188599703_);fill:none;stroke:#ee7e32;stroke-width:2.25;stroke-linecap:round;stroke-linejoin:round;stroke-miterlimit:10" d="m45 14.4 26.6.3 26.6.4 26.6.9 26.6 1.3 26.6 1.6 26.6 1.8 26.6 2.2 26.6 2.4 26.6 2.8L311 41"/><text transform="translate(32.114 188.027)" class="st3 st4 st5">0</text><text transform="translate(25.31 153.818)"><tspan x="0" y="0" class="st3 st4 st5">0</tspan><tspan x="4.6" y="0" class="st3 st4 st5">,</tspan><tspan x="6.8" y="0" class="st3 st4 st5">2</tspan></text><text transform="translate(25.31 119.61)"><tspan x="0" y="0" class="st3 st4 st5">0</tspan><tspan x="4.6" y="0" class="st3 st4 st5">,</tspan><tspan x="6.8" y="0" class="st3 st4 st5">4</tspan></text><text transform="translate(25.31 85.4)"><tspan x="0" y="0" class="st3 st4 st5">0</tspan><tspan x="4.6" y="0" class="st3 st4 st5">,</tspan><tspan x="6.8" y="0" class="st3 st4 st5">6</tspan></text><text transform="translate(25.31 51.191)"><tspan x="0" y="0" class="st3 st4 st5">0</tspan><tspan x="4.6" y="0" class="st3 st4 st5">,</tspan><tspan x="6.8" y="0" class="st3 st4 st5">8</tspan></text><text transform="translate(32.114 16.983)" class="st3 st4 st5">1</text><text transform="translate(42.743 199.745)" class="st3 st4 st5">0</text><text transform="translate(64.559 199.745)"><tspan x="0" y="0" class="st3 st4 st5">-1</tspan><tspan x="7.3" y="0" class="st3 st4 st5">,</tspan><tspan x="9.6" y="0" class="st3 st4 st5">6</tspan></text><text transform="translate(91.154 199.745)"><tspan x="0" y="0" class="st3 st4 st5">-3</tspan><tspan x="7.3" y="0" class="st3 st4 st5">,</tspan><tspan x="9.6" y="0" class="st3 st4 st5">2</tspan></text><text transform="translate(117.749 199.745)"><tspan x="0" y="0" class="st3 st4 st5">-4</tspan><tspan x="7.3" y="0" class="st3 st4 st5">,</tspan><tspan x="9.6" y="0" class="st3 st4 st5">8</tspan></text><text transform="translate(144.344 199.745)"><tspan x="0" y="0" class="st3 st4 st5">-6</tspan><tspan x="7.3" y="0" class="st3 st4 st5">,</tspan><tspan x="9.6" y="0" class="st3 st4 st5">4</tspan></text><text transform="translate(174.341 199.745)" class="st3 st4 st5">-8</text><text transform="translate(197.534 199.745)"><tspan x="0" y="0" class="st3 st4 st5">-9</tspan><tspan x="7.3" y="0" class="st3 st4 st5">,</tspan><tspan x="9.6" y="0" class="st3 st4 st5">6</tspan></text><text transform="translate(221.852 199.745)"><tspan x="0" y="0" class="st3 st4 st5">-11</tspan><tspan x="11.9" y="0" class="st3 st4 st5">,</tspan><tspan x="14.2" y="0" class="st3 st4 st5">2</tspan></text><text transform="translate(248.447 199.745)"><tspan x="0" y="0" class="st3 st4 st5">-12</tspan><tspan x="11.9" y="0" class="st3 st4 st5">,</tspan><tspan x="14.2" y="0" class="st3 st4 st5">8</tspan></text><text transform="translate(275.042 199.745)"><tspan x="0" y="0" class="st3 st4 st5">-14</tspan><tspan x="11.9" y="0" class="st3 st4 st5">,</tspan><tspan x="14.2" y="0" class="st3 st4 st5">4</tspan></text><text transform="translate(305.04 199.745)" class="st3 st4 st5">-16</text><path class="st0" d="M.4.4h333.2v238.3H.4z"/><text transform="translate(220.965 224.895)" class="st6 st7"> </text><path style="fill:none;stroke:#ee7e32;stroke-width:3.25;stroke-miterlimit:8" d="m55.7 153.2 26.3.4"/><path style="fill:none;stroke:#5c9bd4;stroke-width:3.25;stroke-miterlimit:8" d="M55.7 173.9H82"/><text transform="translate(127.095 218.904)" class="st10 st6 st7">Image Height [mm]</text><text transform="rotate(-90.213 87.22 71.706)" class="st10 st6 st7">Relative Illumination [%]</text><text transform="translate(91.658 159.016)" class="st10 st4 st11">f</text><text transform="translate(95.058 159.016)" class="st10 st4 st11">/3</text><text transform="translate(104.958 159.016)" class="st10 st4 st11">.</text><text transform="translate(107.658 159.016)" class="st10 st4 st11">5</text><text transform="translate(91.298 177.856)" class="st10 st6 st7">f/</text><text transform="translate(96.798 177.856)" class="st10 st6 st7">2</text><text transform="translate(102.398 177.856)" class="st10 st6 st7">.8</text></svg>