<?xml version="1.0" encoding="utf-8" standalone="no"?>
<!DOCTYPE svg PUBLIC "-//W3C//DTD SVG 1.1//EN"
  "http://www.w3.org/Graphics/SVG/1.1/DTD/svg11.dtd">
<svg xmlns:xlink="http://www.w3.org/1999/xlink" width="460.8pt" height="345.6pt" viewBox="0 0 460.8 345.6" xmlns="http://www.w3.org/2000/svg" version="1.1">
 <metadata>
  <rdf:RDF xmlns:dc="http://purl.org/dc/elements/1.1/" xmlns:cc="http://creativecommons.org/ns#" xmlns:rdf="http://www.w3.org/1999/02/22-rdf-syntax-ns#">
   <cc:Work>
    <dc:type rdf:resource="http://purl.org/dc/dcmitype/StillImage"/>
    <dc:date>2022-04-12T08:54:13.003902</dc:date>
    <dc:format>image/svg+xml</dc:format>
    <dc:creator>
     <cc:Agent>
      <dc:title>Matplotlib v3.5.1, https://matplotlib.org/</dc:title>
     </cc:Agent>
    </dc:creator>
   </cc:Work>
  </rdf:RDF>
 </metadata>
 <defs>
  <style type="text/css">*{stroke-linejoin: round; stroke-linecap: butt}</style>
 </defs>
 <g id="figure_1">
  <g id="patch_1">
   <path d="M 0 345.6 
L 460.8 345.6 
L 460.8 0 
L 0 0 
z
" style="fill: #ffffff"/>
  </g>
  <g id="axes_1">
   <g id="patch_2">
    <path d="M 57.6 307.584 
L 414.72 307.584 
L 414.72 41.472 
L 57.6 41.472 
z
" style="fill: #ffffff"/>
   </g>
   <g id="matplotlib.axis_1">
    <g id="xtick_1">
     <g id="line2d_1">
      <path d="M 73.832727 307.584 
L 73.832727 41.472 
" clip-path="url(#p8fde99fc52)" style="fill: none; stroke: #b0b0b0; stroke-width: 0.8; stroke-linecap: square"/>
     </g>
     <g id="line2d_2">
      <defs>
       <path id="m9db4047997" d="M 0 0 
L 0 3.5 
" style="stroke: #000000; stroke-width: 0.8"/>
      </defs>
      <g>
       <use xlink:href="#m9db4047997" x="73.832727" y="307.584" style="stroke: #000000; stroke-width: 0.8"/>
      </g>
     </g>
     <g id="text_1">
      <!-- 400 -->
      <g transform="translate(64.288977 322.182437)scale(0.1 -0.1)">
       <defs>
        <path id="DejaVuSans-34" d="M 2419 4116 
L 825 1625 
L 2419 1625 
L 2419 4116 
z
M 2253 4666 
L 3047 4666 
L 3047 1625 
L 3713 1625 
L 3713 1100 
L 3047 1100 
L 3047 0 
L 2419 0 
L 2419 1100 
L 313 1100 
L 313 1709 
L 2253 4666 
z
" transform="scale(0.015625)"/>
        <path id="DejaVuSans-30" d="M 2034 4250 
Q 1547 4250 1301 3770 
Q 1056 3291 1056 2328 
Q 1056 1369 1301 889 
Q 1547 409 2034 409 
Q 2525 409 2770 889 
Q 3016 1369 3016 2328 
Q 3016 3291 2770 3770 
Q 2525 4250 2034 4250 
z
M 2034 4750 
Q 2819 4750 3233 4129 
Q 3647 3509 3647 2328 
Q 3647 1150 3233 529 
Q 2819 -91 2034 -91 
Q 1250 -91 836 529 
Q 422 1150 422 2328 
Q 422 3509 836 4129 
Q 1250 4750 2034 4750 
z
" transform="scale(0.015625)"/>
       </defs>
       <use xlink:href="#DejaVuSans-34"/>
       <use xlink:href="#DejaVuSans-30" x="63.623047"/>
       <use xlink:href="#DejaVuSans-30" x="127.246094"/>
      </g>
     </g>
    </g>
    <g id="xtick_2">
     <g id="line2d_3">
      <path d="M 128.213723 307.584 
L 128.213723 41.472 
" clip-path="url(#p8fde99fc52)" style="fill: none; stroke: #b0b0b0; stroke-width: 0.8; stroke-linecap: square"/>
     </g>
     <g id="line2d_4">
      <g>
       <use xlink:href="#m9db4047997" x="128.213723" y="307.584" style="stroke: #000000; stroke-width: 0.8"/>
      </g>
     </g>
     <g id="text_2">
      <!-- 500 -->
      <g transform="translate(118.669973 322.182437)scale(0.1 -0.1)">
       <defs>
        <path id="DejaVuSans-35" d="M 691 4666 
L 3169 4666 
L 3169 4134 
L 1269 4134 
L 1269 2991 
Q 1406 3038 1543 3061 
Q 1681 3084 1819 3084 
Q 2600 3084 3056 2656 
Q 3513 2228 3513 1497 
Q 3513 744 3044 326 
Q 2575 -91 1722 -91 
Q 1428 -91 1123 -41 
Q 819 9 494 109 
L 494 744 
Q 775 591 1075 516 
Q 1375 441 1709 441 
Q 2250 441 2565 725 
Q 2881 1009 2881 1497 
Q 2881 1984 2565 2268 
Q 2250 2553 1709 2553 
Q 1456 2553 1204 2497 
Q 953 2441 691 2322 
L 691 4666 
z
" transform="scale(0.015625)"/>
       </defs>
       <use xlink:href="#DejaVuSans-35"/>
       <use xlink:href="#DejaVuSans-30" x="63.623047"/>
       <use xlink:href="#DejaVuSans-30" x="127.246094"/>
      </g>
     </g>
    </g>
    <g id="xtick_3">
     <g id="line2d_5">
      <path d="M 182.594719 307.584 
L 182.594719 41.472 
" clip-path="url(#p8fde99fc52)" style="fill: none; stroke: #b0b0b0; stroke-width: 0.8; stroke-linecap: square"/>
     </g>
     <g id="line2d_6">
      <g>
       <use xlink:href="#m9db4047997" x="182.594719" y="307.584" style="stroke: #000000; stroke-width: 0.8"/>
      </g>
     </g>
     <g id="text_3">
      <!-- 600 -->
      <g transform="translate(173.050969 322.182437)scale(0.1 -0.1)">
       <defs>
        <path id="DejaVuSans-36" d="M 2113 2584 
Q 1688 2584 1439 2293 
Q 1191 2003 1191 1497 
Q 1191 994 1439 701 
Q 1688 409 2113 409 
Q 2538 409 2786 701 
Q 3034 994 3034 1497 
Q 3034 2003 2786 2293 
Q 2538 2584 2113 2584 
z
M 3366 4563 
L 3366 3988 
Q 3128 4100 2886 4159 
Q 2644 4219 2406 4219 
Q 1781 4219 1451 3797 
Q 1122 3375 1075 2522 
Q 1259 2794 1537 2939 
Q 1816 3084 2150 3084 
Q 2853 3084 3261 2657 
Q 3669 2231 3669 1497 
Q 3669 778 3244 343 
Q 2819 -91 2113 -91 
Q 1303 -91 875 529 
Q 447 1150 447 2328 
Q 447 3434 972 4092 
Q 1497 4750 2381 4750 
Q 2619 4750 2861 4703 
Q 3103 4656 3366 4563 
z
" transform="scale(0.015625)"/>
       </defs>
       <use xlink:href="#DejaVuSans-36"/>
       <use xlink:href="#DejaVuSans-30" x="63.623047"/>
       <use xlink:href="#DejaVuSans-30" x="127.246094"/>
      </g>
     </g>
    </g>
    <g id="xtick_4">
     <g id="line2d_7">
      <path d="M 236.975715 307.584 
L 236.975715 41.472 
" clip-path="url(#p8fde99fc52)" style="fill: none; stroke: #b0b0b0; stroke-width: 0.8; stroke-linecap: square"/>
     </g>
     <g id="line2d_8">
      <g>
       <use xlink:href="#m9db4047997" x="236.975715" y="307.584" style="stroke: #000000; stroke-width: 0.8"/>
      </g>
     </g>
     <g id="text_4">
      <!-- 700 -->
      <g transform="translate(227.431965 322.182437)scale(0.1 -0.1)">
       <defs>
        <path id="DejaVuSans-37" d="M 525 4666 
L 3525 4666 
L 3525 4397 
L 1831 0 
L 1172 0 
L 2766 4134 
L 525 4134 
L 525 4666 
z
" transform="scale(0.015625)"/>
       </defs>
       <use xlink:href="#DejaVuSans-37"/>
       <use xlink:href="#DejaVuSans-30" x="63.623047"/>
       <use xlink:href="#DejaVuSans-30" x="127.246094"/>
      </g>
     </g>
    </g>
    <g id="xtick_5">
     <g id="line2d_9">
      <path d="M 291.356711 307.584 
L 291.356711 41.472 
" clip-path="url(#p8fde99fc52)" style="fill: none; stroke: #b0b0b0; stroke-width: 0.8; stroke-linecap: square"/>
     </g>
     <g id="line2d_10">
      <g>
       <use xlink:href="#m9db4047997" x="291.356711" y="307.584" style="stroke: #000000; stroke-width: 0.8"/>
      </g>
     </g>
     <g id="text_5">
      <!-- 800 -->
      <g transform="translate(281.812961 322.182437)scale(0.1 -0.1)">
       <defs>
        <path id="DejaVuSans-38" d="M 2034 2216 
Q 1584 2216 1326 1975 
Q 1069 1734 1069 1313 
Q 1069 891 1326 650 
Q 1584 409 2034 409 
Q 2484 409 2743 651 
Q 3003 894 3003 1313 
Q 3003 1734 2745 1975 
Q 2488 2216 2034 2216 
z
M 1403 2484 
Q 997 2584 770 2862 
Q 544 3141 544 3541 
Q 544 4100 942 4425 
Q 1341 4750 2034 4750 
Q 2731 4750 3128 4425 
Q 3525 4100 3525 3541 
Q 3525 3141 3298 2862 
Q 3072 2584 2669 2484 
Q 3125 2378 3379 2068 
Q 3634 1759 3634 1313 
Q 3634 634 3220 271 
Q 2806 -91 2034 -91 
Q 1263 -91 848 271 
Q 434 634 434 1313 
Q 434 1759 690 2068 
Q 947 2378 1403 2484 
z
M 1172 3481 
Q 1172 3119 1398 2916 
Q 1625 2713 2034 2713 
Q 2441 2713 2670 2916 
Q 2900 3119 2900 3481 
Q 2900 3844 2670 4047 
Q 2441 4250 2034 4250 
Q 1625 4250 1398 4047 
Q 1172 3844 1172 3481 
z
" transform="scale(0.015625)"/>
       </defs>
       <use xlink:href="#DejaVuSans-38"/>
       <use xlink:href="#DejaVuSans-30" x="63.623047"/>
       <use xlink:href="#DejaVuSans-30" x="127.246094"/>
      </g>
     </g>
    </g>
    <g id="xtick_6">
     <g id="line2d_11">
      <path d="M 345.737707 307.584 
L 345.737707 41.472 
" clip-path="url(#p8fde99fc52)" style="fill: none; stroke: #b0b0b0; stroke-width: 0.8; stroke-linecap: square"/>
     </g>
     <g id="line2d_12">
      <g>
       <use xlink:href="#m9db4047997" x="345.737707" y="307.584" style="stroke: #000000; stroke-width: 0.8"/>
      </g>
     </g>
     <g id="text_6">
      <!-- 900 -->
      <g transform="translate(336.193957 322.182437)scale(0.1 -0.1)">
       <defs>
        <path id="DejaVuSans-39" d="M 703 97 
L 703 672 
Q 941 559 1184 500 
Q 1428 441 1663 441 
Q 2288 441 2617 861 
Q 2947 1281 2994 2138 
Q 2813 1869 2534 1725 
Q 2256 1581 1919 1581 
Q 1219 1581 811 2004 
Q 403 2428 403 3163 
Q 403 3881 828 4315 
Q 1253 4750 1959 4750 
Q 2769 4750 3195 4129 
Q 3622 3509 3622 2328 
Q 3622 1225 3098 567 
Q 2575 -91 1691 -91 
Q 1453 -91 1209 -44 
Q 966 3 703 97 
z
M 1959 2075 
Q 2384 2075 2632 2365 
Q 2881 2656 2881 3163 
Q 2881 3666 2632 3958 
Q 2384 4250 1959 4250 
Q 1534 4250 1286 3958 
Q 1038 3666 1038 3163 
Q 1038 2656 1286 2365 
Q 1534 2075 1959 2075 
z
" transform="scale(0.015625)"/>
       </defs>
       <use xlink:href="#DejaVuSans-39"/>
       <use xlink:href="#DejaVuSans-30" x="63.623047"/>
       <use xlink:href="#DejaVuSans-30" x="127.246094"/>
      </g>
     </g>
    </g>
    <g id="xtick_7">
     <g id="line2d_13">
      <path d="M 400.118703 307.584 
L 400.118703 41.472 
" clip-path="url(#p8fde99fc52)" style="fill: none; stroke: #b0b0b0; stroke-width: 0.8; stroke-linecap: square"/>
     </g>
     <g id="line2d_14">
      <g>
       <use xlink:href="#m9db4047997" x="400.118703" y="307.584" style="stroke: #000000; stroke-width: 0.8"/>
      </g>
     </g>
     <g id="text_7">
      <!-- 1000 -->
      <g transform="translate(387.393703 322.182437)scale(0.1 -0.1)">
       <defs>
        <path id="DejaVuSans-31" d="M 794 531 
L 1825 531 
L 1825 4091 
L 703 3866 
L 703 4441 
L 1819 4666 
L 2450 4666 
L 2450 531 
L 3481 531 
L 3481 0 
L 794 0 
L 794 531 
z
" transform="scale(0.015625)"/>
       </defs>
       <use xlink:href="#DejaVuSans-31"/>
       <use xlink:href="#DejaVuSans-30" x="63.623047"/>
       <use xlink:href="#DejaVuSans-30" x="127.246094"/>
       <use xlink:href="#DejaVuSans-30" x="190.869141"/>
      </g>
     </g>
    </g>
    <g id="text_8">
     <!-- Wavelength $\lambda$ [nm] -->
     <g transform="translate(188.06 335.862125)scale(0.1 -0.1)">
      <defs>
       <path id="DejaVuSans-57" d="M 213 4666 
L 850 4666 
L 1831 722 
L 2809 4666 
L 3519 4666 
L 4500 722 
L 5478 4666 
L 6119 4666 
L 4947 0 
L 4153 0 
L 3169 4050 
L 2175 0 
L 1381 0 
L 213 4666 
z
" transform="scale(0.015625)"/>
       <path id="DejaVuSans-61" d="M 2194 1759 
Q 1497 1759 1228 1600 
Q 959 1441 959 1056 
Q 959 750 1161 570 
Q 1363 391 1709 391 
Q 2188 391 2477 730 
Q 2766 1069 2766 1631 
L 2766 1759 
L 2194 1759 
z
M 3341 1997 
L 3341 0 
L 2766 0 
L 2766 531 
Q 2569 213 2275 61 
Q 1981 -91 1556 -91 
Q 1019 -91 701 211 
Q 384 513 384 1019 
Q 384 1609 779 1909 
Q 1175 2209 1959 2209 
L 2766 2209 
L 2766 2266 
Q 2766 2663 2505 2880 
Q 2244 3097 1772 3097 
Q 1472 3097 1187 3025 
Q 903 2953 641 2809 
L 641 3341 
Q 956 3463 1253 3523 
Q 1550 3584 1831 3584 
Q 2591 3584 2966 3190 
Q 3341 2797 3341 1997 
z
" transform="scale(0.015625)"/>
       <path id="DejaVuSans-76" d="M 191 3500 
L 800 3500 
L 1894 563 
L 2988 3500 
L 3597 3500 
L 2284 0 
L 1503 0 
L 191 3500 
z
" transform="scale(0.015625)"/>
       <path id="DejaVuSans-65" d="M 3597 1894 
L 3597 1613 
L 953 1613 
Q 991 1019 1311 708 
Q 1631 397 2203 397 
Q 2534 397 2845 478 
Q 3156 559 3463 722 
L 3463 178 
Q 3153 47 2828 -22 
Q 2503 -91 2169 -91 
Q 1331 -91 842 396 
Q 353 884 353 1716 
Q 353 2575 817 3079 
Q 1281 3584 2069 3584 
Q 2775 3584 3186 3129 
Q 3597 2675 3597 1894 
z
M 3022 2063 
Q 3016 2534 2758 2815 
Q 2500 3097 2075 3097 
Q 1594 3097 1305 2825 
Q 1016 2553 972 2059 
L 3022 2063 
z
" transform="scale(0.015625)"/>
       <path id="DejaVuSans-6c" d="M 603 4863 
L 1178 4863 
L 1178 0 
L 603 0 
L 603 4863 
z
" transform="scale(0.015625)"/>
       <path id="DejaVuSans-6e" d="M 3513 2113 
L 3513 0 
L 2938 0 
L 2938 2094 
Q 2938 2591 2744 2837 
Q 2550 3084 2163 3084 
Q 1697 3084 1428 2787 
Q 1159 2491 1159 1978 
L 1159 0 
L 581 0 
L 581 3500 
L 1159 3500 
L 1159 2956 
Q 1366 3272 1645 3428 
Q 1925 3584 2291 3584 
Q 2894 3584 3203 3211 
Q 3513 2838 3513 2113 
z
" transform="scale(0.015625)"/>
       <path id="DejaVuSans-67" d="M 2906 1791 
Q 2906 2416 2648 2759 
Q 2391 3103 1925 3103 
Q 1463 3103 1205 2759 
Q 947 2416 947 1791 
Q 947 1169 1205 825 
Q 1463 481 1925 481 
Q 2391 481 2648 825 
Q 2906 1169 2906 1791 
z
M 3481 434 
Q 3481 -459 3084 -895 
Q 2688 -1331 1869 -1331 
Q 1566 -1331 1297 -1286 
Q 1028 -1241 775 -1147 
L 775 -588 
Q 1028 -725 1275 -790 
Q 1522 -856 1778 -856 
Q 2344 -856 2625 -561 
Q 2906 -266 2906 331 
L 2906 616 
Q 2728 306 2450 153 
Q 2172 0 1784 0 
Q 1141 0 747 490 
Q 353 981 353 1791 
Q 353 2603 747 3093 
Q 1141 3584 1784 3584 
Q 2172 3584 2450 3431 
Q 2728 3278 2906 2969 
L 2906 3500 
L 3481 3500 
L 3481 434 
z
" transform="scale(0.015625)"/>
       <path id="DejaVuSans-74" d="M 1172 4494 
L 1172 3500 
L 2356 3500 
L 2356 3053 
L 1172 3053 
L 1172 1153 
Q 1172 725 1289 603 
Q 1406 481 1766 481 
L 2356 481 
L 2356 0 
L 1766 0 
Q 1100 0 847 248 
Q 594 497 594 1153 
L 594 3053 
L 172 3053 
L 172 3500 
L 594 3500 
L 594 4494 
L 1172 4494 
z
" transform="scale(0.015625)"/>
       <path id="DejaVuSans-68" d="M 3513 2113 
L 3513 0 
L 2938 0 
L 2938 2094 
Q 2938 2591 2744 2837 
Q 2550 3084 2163 3084 
Q 1697 3084 1428 2787 
Q 1159 2491 1159 1978 
L 1159 0 
L 581 0 
L 581 4863 
L 1159 4863 
L 1159 2956 
Q 1366 3272 1645 3428 
Q 1925 3584 2291 3584 
Q 2894 3584 3203 3211 
Q 3513 2838 3513 2113 
z
" transform="scale(0.015625)"/>
       <path id="DejaVuSans-20" transform="scale(0.015625)"/>
       <path id="DejaVuSans-Oblique-3bb" d="M 2350 4316 
L 3125 0 
L 2516 0 
L 2038 2588 
L 328 0 
L -281 0 
L 1903 3356 
L 1794 3975 
Q 1725 4369 1391 4369 
L 1091 4369 
L 1184 4863 
L 1550 4856 
Q 2253 4847 2350 4316 
z
" transform="scale(0.015625)"/>
       <path id="DejaVuSans-5b" d="M 550 4863 
L 1875 4863 
L 1875 4416 
L 1125 4416 
L 1125 -397 
L 1875 -397 
L 1875 -844 
L 550 -844 
L 550 4863 
z
" transform="scale(0.015625)"/>
       <path id="DejaVuSans-6d" d="M 3328 2828 
Q 3544 3216 3844 3400 
Q 4144 3584 4550 3584 
Q 5097 3584 5394 3201 
Q 5691 2819 5691 2113 
L 5691 0 
L 5113 0 
L 5113 2094 
Q 5113 2597 4934 2840 
Q 4756 3084 4391 3084 
Q 3944 3084 3684 2787 
Q 3425 2491 3425 1978 
L 3425 0 
L 2847 0 
L 2847 2094 
Q 2847 2600 2669 2842 
Q 2491 3084 2119 3084 
Q 1678 3084 1418 2786 
Q 1159 2488 1159 1978 
L 1159 0 
L 581 0 
L 581 3500 
L 1159 3500 
L 1159 2956 
Q 1356 3278 1631 3431 
Q 1906 3584 2284 3584 
Q 2666 3584 2933 3390 
Q 3200 3197 3328 2828 
z
" transform="scale(0.015625)"/>
       <path id="DejaVuSans-5d" d="M 1947 4863 
L 1947 -844 
L 622 -844 
L 622 -397 
L 1369 -397 
L 1369 4416 
L 622 4416 
L 622 4863 
L 1947 4863 
z
" transform="scale(0.015625)"/>
      </defs>
      <use xlink:href="#DejaVuSans-57" transform="translate(0 0.015625)"/>
      <use xlink:href="#DejaVuSans-61" transform="translate(98.876953 0.015625)"/>
      <use xlink:href="#DejaVuSans-76" transform="translate(160.15625 0.015625)"/>
      <use xlink:href="#DejaVuSans-65" transform="translate(219.335938 0.015625)"/>
      <use xlink:href="#DejaVuSans-6c" transform="translate(280.859375 0.015625)"/>
      <use xlink:href="#DejaVuSans-65" transform="translate(308.642578 0.015625)"/>
      <use xlink:href="#DejaVuSans-6e" transform="translate(370.166016 0.015625)"/>
      <use xlink:href="#DejaVuSans-67" transform="translate(433.544922 0.015625)"/>
      <use xlink:href="#DejaVuSans-74" transform="translate(497.021484 0.015625)"/>
      <use xlink:href="#DejaVuSans-68" transform="translate(536.230469 0.015625)"/>
      <use xlink:href="#DejaVuSans-20" transform="translate(599.609375 0.015625)"/>
      <use xlink:href="#DejaVuSans-Oblique-3bb" transform="translate(631.396484 0.015625)"/>
      <use xlink:href="#DejaVuSans-20" transform="translate(690.576172 0.015625)"/>
      <use xlink:href="#DejaVuSans-5b" transform="translate(722.363281 0.015625)"/>
      <use xlink:href="#DejaVuSans-6e" transform="translate(761.376953 0.015625)"/>
      <use xlink:href="#DejaVuSans-6d" transform="translate(824.755859 0.015625)"/>
      <use xlink:href="#DejaVuSans-5d" transform="translate(922.167969 0.015625)"/>
     </g>
    </g>
   </g>
   <g id="matplotlib.axis_2">
    <g id="ytick_1">
     <g id="line2d_15">
      <path d="M 57.6 302.28431 
L 414.72 302.28431 
" clip-path="url(#p8fde99fc52)" style="fill: none; stroke: #b0b0b0; stroke-width: 0.8; stroke-linecap: square"/>
     </g>
     <g id="line2d_16">
      <defs>
       <path id="m3d30d80559" d="M 0 0 
L -3.5 0 
" style="stroke: #000000; stroke-width: 0.8"/>
      </defs>
      <g>
       <use xlink:href="#m3d30d80559" x="57.6" y="302.28431" style="stroke: #000000; stroke-width: 0.8"/>
      </g>
     </g>
     <g id="text_9">
      <!-- 0.0 -->
      <g transform="translate(34.696875 306.083528)scale(0.1 -0.1)">
       <defs>
        <path id="DejaVuSans-2e" d="M 684 794 
L 1344 794 
L 1344 0 
L 684 0 
L 684 794 
z
" transform="scale(0.015625)"/>
       </defs>
       <use xlink:href="#DejaVuSans-30"/>
       <use xlink:href="#DejaVuSans-2e" x="63.623047"/>
       <use xlink:href="#DejaVuSans-30" x="95.410156"/>
      </g>
     </g>
    </g>
    <g id="ytick_2">
     <g id="line2d_17">
      <path d="M 57.6 252.541048 
L 414.72 252.541048 
" clip-path="url(#p8fde99fc52)" style="fill: none; stroke: #b0b0b0; stroke-width: 0.8; stroke-linecap: square"/>
     </g>
     <g id="line2d_18">
      <g>
       <use xlink:href="#m3d30d80559" x="57.6" y="252.541048" style="stroke: #000000; stroke-width: 0.8"/>
      </g>
     </g>
     <g id="text_10">
      <!-- 0.2 -->
      <g transform="translate(34.696875 256.340266)scale(0.1 -0.1)">
       <defs>
        <path id="DejaVuSans-32" d="M 1228 531 
L 3431 531 
L 3431 0 
L 469 0 
L 469 531 
Q 828 903 1448 1529 
Q 2069 2156 2228 2338 
Q 2531 2678 2651 2914 
Q 2772 3150 2772 3378 
Q 2772 3750 2511 3984 
Q 2250 4219 1831 4219 
Q 1534 4219 1204 4116 
Q 875 4013 500 3803 
L 500 4441 
Q 881 4594 1212 4672 
Q 1544 4750 1819 4750 
Q 2544 4750 2975 4387 
Q 3406 4025 3406 3419 
Q 3406 3131 3298 2873 
Q 3191 2616 2906 2266 
Q 2828 2175 2409 1742 
Q 1991 1309 1228 531 
z
" transform="scale(0.015625)"/>
       </defs>
       <use xlink:href="#DejaVuSans-30"/>
       <use xlink:href="#DejaVuSans-2e" x="63.623047"/>
       <use xlink:href="#DejaVuSans-32" x="95.410156"/>
      </g>
     </g>
    </g>
    <g id="ytick_3">
     <g id="line2d_19">
      <path d="M 57.6 202.797786 
L 414.72 202.797786 
" clip-path="url(#p8fde99fc52)" style="fill: none; stroke: #b0b0b0; stroke-width: 0.8; stroke-linecap: square"/>
     </g>
     <g id="line2d_20">
      <g>
       <use xlink:href="#m3d30d80559" x="57.6" y="202.797786" style="stroke: #000000; stroke-width: 0.8"/>
      </g>
     </g>
     <g id="text_11">
      <!-- 0.4 -->
      <g transform="translate(34.696875 206.597004)scale(0.1 -0.1)">
       <use xlink:href="#DejaVuSans-30"/>
       <use xlink:href="#DejaVuSans-2e" x="63.623047"/>
       <use xlink:href="#DejaVuSans-34" x="95.410156"/>
      </g>
     </g>
    </g>
    <g id="ytick_4">
     <g id="line2d_21">
      <path d="M 57.6 153.054524 
L 414.72 153.054524 
" clip-path="url(#p8fde99fc52)" style="fill: none; stroke: #b0b0b0; stroke-width: 0.8; stroke-linecap: square"/>
     </g>
     <g id="line2d_22">
      <g>
       <use xlink:href="#m3d30d80559" x="57.6" y="153.054524" style="stroke: #000000; stroke-width: 0.8"/>
      </g>
     </g>
     <g id="text_12">
      <!-- 0.6 -->
      <g transform="translate(34.696875 156.853743)scale(0.1 -0.1)">
       <use xlink:href="#DejaVuSans-30"/>
       <use xlink:href="#DejaVuSans-2e" x="63.623047"/>
       <use xlink:href="#DejaVuSans-36" x="95.410156"/>
      </g>
     </g>
    </g>
    <g id="ytick_5">
     <g id="line2d_23">
      <path d="M 57.6 103.311262 
L 414.72 103.311262 
" clip-path="url(#p8fde99fc52)" style="fill: none; stroke: #b0b0b0; stroke-width: 0.8; stroke-linecap: square"/>
     </g>
     <g id="line2d_24">
      <g>
       <use xlink:href="#m3d30d80559" x="57.6" y="103.311262" style="stroke: #000000; stroke-width: 0.8"/>
      </g>
     </g>
     <g id="text_13">
      <!-- 0.8 -->
      <g transform="translate(34.696875 107.110481)scale(0.1 -0.1)">
       <use xlink:href="#DejaVuSans-30"/>
       <use xlink:href="#DejaVuSans-2e" x="63.623047"/>
       <use xlink:href="#DejaVuSans-38" x="95.410156"/>
      </g>
     </g>
    </g>
    <g id="ytick_6">
     <g id="line2d_25">
      <path d="M 57.6 53.568 
L 414.72 53.568 
" clip-path="url(#p8fde99fc52)" style="fill: none; stroke: #b0b0b0; stroke-width: 0.8; stroke-linecap: square"/>
     </g>
     <g id="line2d_26">
      <g>
       <use xlink:href="#m3d30d80559" x="57.6" y="53.568" style="stroke: #000000; stroke-width: 0.8"/>
      </g>
     </g>
     <g id="text_14">
      <!-- 1.0 -->
      <g transform="translate(34.696875 57.367219)scale(0.1 -0.1)">
       <use xlink:href="#DejaVuSans-31"/>
       <use xlink:href="#DejaVuSans-2e" x="63.623047"/>
       <use xlink:href="#DejaVuSans-30" x="95.410156"/>
      </g>
     </g>
    </g>
    <g id="text_15">
     <!-- Relative Response -->
     <g transform="translate(28.617187 220.295187)rotate(-90)scale(0.1 -0.1)">
      <defs>
       <path id="DejaVuSans-52" d="M 2841 2188 
Q 3044 2119 3236 1894 
Q 3428 1669 3622 1275 
L 4263 0 
L 3584 0 
L 2988 1197 
Q 2756 1666 2539 1819 
Q 2322 1972 1947 1972 
L 1259 1972 
L 1259 0 
L 628 0 
L 628 4666 
L 2053 4666 
Q 2853 4666 3247 4331 
Q 3641 3997 3641 3322 
Q 3641 2881 3436 2590 
Q 3231 2300 2841 2188 
z
M 1259 4147 
L 1259 2491 
L 2053 2491 
Q 2509 2491 2742 2702 
Q 2975 2913 2975 3322 
Q 2975 3731 2742 3939 
Q 2509 4147 2053 4147 
L 1259 4147 
z
" transform="scale(0.015625)"/>
       <path id="DejaVuSans-69" d="M 603 3500 
L 1178 3500 
L 1178 0 
L 603 0 
L 603 3500 
z
M 603 4863 
L 1178 4863 
L 1178 4134 
L 603 4134 
L 603 4863 
z
" transform="scale(0.015625)"/>
       <path id="DejaVuSans-73" d="M 2834 3397 
L 2834 2853 
Q 2591 2978 2328 3040 
Q 2066 3103 1784 3103 
Q 1356 3103 1142 2972 
Q 928 2841 928 2578 
Q 928 2378 1081 2264 
Q 1234 2150 1697 2047 
L 1894 2003 
Q 2506 1872 2764 1633 
Q 3022 1394 3022 966 
Q 3022 478 2636 193 
Q 2250 -91 1575 -91 
Q 1294 -91 989 -36 
Q 684 19 347 128 
L 347 722 
Q 666 556 975 473 
Q 1284 391 1588 391 
Q 1994 391 2212 530 
Q 2431 669 2431 922 
Q 2431 1156 2273 1281 
Q 2116 1406 1581 1522 
L 1381 1569 
Q 847 1681 609 1914 
Q 372 2147 372 2553 
Q 372 3047 722 3315 
Q 1072 3584 1716 3584 
Q 2034 3584 2315 3537 
Q 2597 3491 2834 3397 
z
" transform="scale(0.015625)"/>
       <path id="DejaVuSans-70" d="M 1159 525 
L 1159 -1331 
L 581 -1331 
L 581 3500 
L 1159 3500 
L 1159 2969 
Q 1341 3281 1617 3432 
Q 1894 3584 2278 3584 
Q 2916 3584 3314 3078 
Q 3713 2572 3713 1747 
Q 3713 922 3314 415 
Q 2916 -91 2278 -91 
Q 1894 -91 1617 61 
Q 1341 213 1159 525 
z
M 3116 1747 
Q 3116 2381 2855 2742 
Q 2594 3103 2138 3103 
Q 1681 3103 1420 2742 
Q 1159 2381 1159 1747 
Q 1159 1113 1420 752 
Q 1681 391 2138 391 
Q 2594 391 2855 752 
Q 3116 1113 3116 1747 
z
" transform="scale(0.015625)"/>
       <path id="DejaVuSans-6f" d="M 1959 3097 
Q 1497 3097 1228 2736 
Q 959 2375 959 1747 
Q 959 1119 1226 758 
Q 1494 397 1959 397 
Q 2419 397 2687 759 
Q 2956 1122 2956 1747 
Q 2956 2369 2687 2733 
Q 2419 3097 1959 3097 
z
M 1959 3584 
Q 2709 3584 3137 3096 
Q 3566 2609 3566 1747 
Q 3566 888 3137 398 
Q 2709 -91 1959 -91 
Q 1206 -91 779 398 
Q 353 888 353 1747 
Q 353 2609 779 3096 
Q 1206 3584 1959 3584 
z
" transform="scale(0.015625)"/>
      </defs>
      <use xlink:href="#DejaVuSans-52"/>
      <use xlink:href="#DejaVuSans-65" x="64.982422"/>
      <use xlink:href="#DejaVuSans-6c" x="126.505859"/>
      <use xlink:href="#DejaVuSans-61" x="154.289062"/>
      <use xlink:href="#DejaVuSans-74" x="215.568359"/>
      <use xlink:href="#DejaVuSans-69" x="254.777344"/>
      <use xlink:href="#DejaVuSans-76" x="282.560547"/>
      <use xlink:href="#DejaVuSans-65" x="341.740234"/>
      <use xlink:href="#DejaVuSans-20" x="403.263672"/>
      <use xlink:href="#DejaVuSans-52" x="435.050781"/>
      <use xlink:href="#DejaVuSans-65" x="500.033203"/>
      <use xlink:href="#DejaVuSans-73" x="561.556641"/>
      <use xlink:href="#DejaVuSans-70" x="613.65625"/>
      <use xlink:href="#DejaVuSans-6f" x="677.132812"/>
      <use xlink:href="#DejaVuSans-6e" x="738.314453"/>
      <use xlink:href="#DejaVuSans-73" x="801.693359"/>
      <use xlink:href="#DejaVuSans-65" x="853.792969"/>
     </g>
    </g>
   </g>
   <g id="line2d_27">
    <path d="M 73.832727 233.20312 
L 75.464157 240.321797 
L 77.095587 245.179283 
L 78.727017 248.272313 
L 80.358447 208.245825 
L 83.621307 215.586299 
L 85.252736 205.703083 
L 86.884166 206.156301 
L 88.515596 200.586854 
L 90.147026 193.206694 
L 91.778456 187.940371 
L 93.409886 185.858622 
L 95.041316 181.982823 
L 96.672746 173.445148 
L 98.304175 171.919401 
L 99.935605 168.666399 
L 103.198465 157.727731 
L 104.829895 159.528171 
L 106.461325 154.669104 
L 108.092755 154.649857 
L 109.724185 156.675134 
L 111.355614 157.865935 
L 112.987044 154.318394 
L 114.618474 153.592858 
L 116.249904 155.264857 
L 117.881334 153.994067 
L 119.512764 163.046457 
L 121.144194 166.242166 
L 122.775624 175.168 
L 124.407053 176.539405 
L 126.038483 185.309841 
L 127.669913 193.273247 
L 129.301343 197.289698 
L 134.195633 220.024661 
L 135.827063 226.475178 
L 137.458492 236.435495 
L 140.721352 247.658803 
L 143.984212 259.062604 
L 145.615642 260.602418 
L 147.247072 263.893659 
L 148.878502 266.12141 
L 150.509931 268.559344 
L 152.141361 272.391116 
L 153.772791 275.007451 
L 155.404221 277.047164 
L 157.035651 279.833914 
L 158.667081 282.846273 
L 160.298511 285.390016 
L 161.929941 286.973798 
L 165.1928 289.51154 
L 168.45566 290.813459 
L 170.08709 291.273435 
L 171.71852 291.923693 
L 174.98138 292.466084 
L 176.61281 292.720453 
L 184.769959 294.868856 
L 188.032819 295.383745 
L 189.664249 295.488 
L 192.927108 295.297354 
L 194.558538 295.097115 
L 197.821398 294.333175 
L 199.452828 293.849097 
L 201.084258 293.177093 
L 204.347117 291.246067 
L 205.978547 290.710197 
L 207.609977 289.2345 
L 209.241407 288.349637 
L 210.872837 287.337528 
L 212.504267 286.486872 
L 214.135697 285.099174 
L 215.767127 284.026292 
L 217.398556 282.737413 
L 219.029986 282.256276 
L 220.661416 280.877984 
L 223.924276 280.02829 
L 225.555706 279.861883 
L 227.187136 279.295087 
L 230.449995 279.119703 
L 232.081425 278.166725 
L 236.975715 277.730307 
L 238.607145 277.952101 
L 240.238575 279.117268 
L 241.870005 279.615061 
L 246.764294 284.002428 
L 251.658584 287.513862 
L 253.290014 287.915788 
L 256.552873 287.818015 
L 258.184303 287.567651 
L 261.447163 287.318202 
L 263.078593 287.380123 
L 264.710023 288.031347 
L 266.341453 288.235157 
L 267.972883 288.918257 
L 269.604312 288.686614 
L 272.867172 287.133842 
L 276.130032 283.208692 
L 277.761462 280.829715 
L 279.392892 278.721085 
L 281.024322 275.140114 
L 282.655751 254.349275 
L 285.918611 244.180062 
L 287.550041 228.212573 
L 289.181471 220.848168 
L 290.812901 212.063087 
L 292.444331 197.314049 
L 294.075761 189.428676 
L 295.70719 186.551699 
L 297.33862 178.91217 
L 298.97005 177.340183 
L 300.60148 173.500203 
L 302.23291 172.64806 
L 303.86434 172.42603 
L 305.49577 173.779265 
L 307.1272 175.634265 
L 308.75863 178.853192 
L 310.390059 181.700169 
L 312.021489 184.852213 
L 313.652919 187.345088 
L 315.284349 189.145472 
L 318.547209 191.332962 
L 320.178639 190.39754 
L 321.810069 190.504139 
L 323.441498 190.499051 
L 325.072928 192.656184 
L 328.335788 194.751005 
L 329.967218 198.269779 
L 331.598648 199.261062 
L 333.230078 203.3418 
L 334.861508 205.580791 
L 336.492937 206.97727 
L 338.124367 208.967386 
L 339.755797 211.510417 
L 341.387227 215.81983 
L 343.018657 219.31849 
L 344.650087 222.15223 
L 346.281517 225.722114 
L 347.912947 228.122368 
L 349.544376 230.190699 
L 351.175806 231.187448 
L 356.070096 236.466956 
L 357.701526 237.419569 
L 360.964386 241.086725 
L 362.595815 242.319911 
L 364.227245 244.374432 
L 365.858675 246.125254 
L 369.121535 249.994765 
L 370.752965 252.194725 
L 372.384395 253.861423 
L 374.015825 256.099115 
L 380.541544 263.677738 
L 382.172974 264.987211 
L 383.804404 266.837167 
L 385.435834 272.360886 
L 387.067264 273.735938 
L 388.698693 274.714872 
L 390.330123 275.973554 
L 391.961553 276.575769 
L 393.592983 277.427936 
L 395.224413 278.749478 
L 398.487273 280.243186 
L 398.487273 280.243186 
" clip-path="url(#p8fde99fc52)" style="fill: none; stroke-dasharray: 9.6,2.4,1.5,2.4; stroke-dashoffset: 0; stroke: #0000ff; stroke-width: 1.5"/>
   </g>
   <g id="line2d_28">
    <path d="M 73.832727 276.380083 
L 77.095587 283.241816 
L 78.727017 285.314978 
L 80.358447 273.511988 
L 81.989877 276.350082 
L 83.621307 278.561795 
L 85.252736 276.96423 
L 86.884166 279.066807 
L 88.515596 280.477879 
L 91.778456 281.443454 
L 93.409886 281.878591 
L 95.041316 281.660921 
L 96.672746 280.696671 
L 104.829895 283.093917 
L 106.461325 281.28523 
L 108.092755 278.258601 
L 109.724185 272.876029 
L 111.355614 263.391228 
L 112.987044 247.412346 
L 114.618474 236.315228 
L 116.249904 211.569498 
L 117.881334 195.486801 
L 119.512764 175.476604 
L 121.144194 162.779034 
L 122.775624 135.392988 
L 124.407053 132.919098 
L 126.038483 125.465005 
L 127.669913 121.770436 
L 129.301343 111.653939 
L 130.932773 108.007459 
L 132.564203 103.151435 
L 134.195633 93.262209 
L 137.458492 88.081752 
L 139.089922 83.599126 
L 140.721352 82.46335 
L 143.984212 79.797693 
L 145.615642 75.625781 
L 147.247072 78.020333 
L 148.878502 77.936622 
L 150.509931 74.340985 
L 152.141361 76.716711 
L 153.772791 78.673848 
L 155.404221 72.600494 
L 157.035651 76.921004 
L 158.667081 81.592978 
L 160.298511 85.720168 
L 161.929941 82.683712 
L 163.56137 86.386084 
L 165.1928 88.700074 
L 166.82423 90.351171 
L 168.45566 94.349151 
L 170.08709 95.348409 
L 171.71852 102.223867 
L 174.98138 109.836875 
L 176.61281 115.497076 
L 179.875669 136.640274 
L 181.507099 145.424588 
L 183.138529 158.75639 
L 186.401389 182.038852 
L 188.032819 190.719631 
L 191.295678 211.169339 
L 192.927108 215.815145 
L 196.189968 228.108786 
L 197.821398 231.240069 
L 199.452828 235.302568 
L 201.084258 238.25819 
L 202.715688 240.898937 
L 204.347117 244.576294 
L 205.978547 245.479987 
L 207.609977 248.441149 
L 210.872837 252.157483 
L 212.504267 253.389998 
L 214.135697 254.057577 
L 215.767127 253.593364 
L 219.029986 252.204299 
L 220.661416 248.663128 
L 222.292846 246.692886 
L 223.924276 243.120849 
L 225.555706 239.833985 
L 227.187136 236.005639 
L 228.818566 230.573059 
L 230.449995 227.453494 
L 232.081425 219.037244 
L 233.712855 217.491775 
L 235.344285 212.630631 
L 236.975715 208.181316 
L 238.607145 205.279097 
L 240.238575 202.956167 
L 243.501434 201.806503 
L 245.132864 202.342374 
L 246.764294 203.911993 
L 248.395724 204.320071 
L 251.658584 207.222409 
L 253.290014 207.997578 
L 256.552873 210.242647 
L 258.184303 209.474076 
L 259.815733 208.434441 
L 263.078593 205.239882 
L 264.710023 200.956232 
L 266.341453 200.486677 
L 267.972883 197.230363 
L 269.604312 195.399485 
L 271.235742 193.184176 
L 272.867172 192.500046 
L 274.498602 189.920456 
L 276.130032 188.182909 
L 277.761462 188.095958 
L 279.392892 190.876686 
L 281.024322 185.575443 
L 282.655751 180.716994 
L 284.287181 180.315042 
L 285.918611 179.444958 
L 287.550041 179.004215 
L 289.181471 178.234014 
L 290.812901 178.42226 
L 292.444331 179.978612 
L 294.075761 179.842745 
L 295.70719 179.544574 
L 297.33862 177.936852 
L 298.97005 177.069705 
L 300.60148 174.349352 
L 302.23291 173.493776 
L 303.86434 173.129988 
L 305.49577 174.636364 
L 307.1272 176.521178 
L 308.75863 179.219832 
L 310.390059 180.866299 
L 312.021489 182.68596 
L 313.652919 184.143852 
L 316.915779 186.553236 
L 318.547209 188.663606 
L 320.178639 189.227567 
L 321.810069 191.084718 
L 323.441498 192.265426 
L 325.072928 195.67551 
L 326.704358 197.018633 
L 328.335788 198.094781 
L 329.967218 201.23553 
L 331.598648 202.139409 
L 333.230078 206.162455 
L 334.861508 208.535735 
L 336.492937 210.214379 
L 338.124367 212.406147 
L 339.755797 215.026294 
L 341.387227 219.232893 
L 343.018657 222.35665 
L 344.650087 224.48358 
L 346.281517 227.243798 
L 349.544376 230.664351 
L 351.175806 231.41788 
L 352.807236 232.855661 
L 356.070096 236.354534 
L 357.701526 237.533521 
L 360.964386 241.838276 
L 362.595815 243.334042 
L 364.227245 245.521338 
L 365.858675 247.274951 
L 370.752965 253.164958 
L 372.384395 254.763406 
L 374.015825 257.00057 
L 378.910114 262.729507 
L 380.541544 264.409693 
L 382.172974 265.614299 
L 383.804404 267.298898 
L 385.435834 272.613607 
L 387.067264 273.796922 
L 388.698693 274.590803 
L 390.330123 275.731169 
L 391.961553 276.25315 
L 393.592983 277.125847 
L 395.224413 278.513339 
L 398.487273 280.078911 
L 398.487273 280.078911 
" clip-path="url(#p8fde99fc52)" style="fill: none; stroke-dasharray: 1.5,2.475; stroke-dashoffset: 0; stroke: #008000; stroke-width: 1.5"/>
   </g>
   <g id="line2d_29">
    <path d="M 73.832727 271.520617 
L 77.095587 279.920367 
L 78.727017 282.427604 
L 80.358447 268.632106 
L 81.989877 272.003077 
L 83.621307 274.586908 
L 85.252736 272.694161 
L 86.884166 275.121889 
L 88.515596 276.790551 
L 90.147026 277.743588 
L 91.778456 279.172585 
L 93.409886 280.923389 
L 95.041316 282.120697 
L 96.672746 282.577494 
L 98.304175 284.117376 
L 99.935605 285.264697 
L 101.567035 285.986742 
L 103.198465 286.554282 
L 104.829895 287.690342 
L 106.461325 287.879293 
L 109.724185 288.815842 
L 111.355614 289.086092 
L 112.987044 288.800047 
L 114.618474 288.724116 
L 116.249904 288.817074 
L 117.881334 288.638001 
L 119.512764 289.374788 
L 122.775624 289.764978 
L 124.407053 289.787856 
L 127.669913 290.352093 
L 129.301343 290.081508 
L 130.932773 290.043849 
L 132.564203 289.698441 
L 134.195633 288.531472 
L 135.827063 287.67163 
L 139.089922 284.071401 
L 140.721352 282.575581 
L 142.352782 281.233786 
L 143.984212 281.022795 
L 145.615642 281.295965 
L 150.509931 286.816523 
L 152.141361 289.050672 
L 153.772791 290.137943 
L 158.667081 291.14223 
L 160.298511 291.037592 
L 161.929941 290.256126 
L 163.56137 289.730562 
L 165.1928 287.512496 
L 166.82423 282.956329 
L 168.45566 273.598711 
L 170.08709 248.537369 
L 171.71852 204.701332 
L 173.34995 154.168268 
L 176.61281 92.668741 
L 178.244239 80.360572 
L 179.875669 69.616305 
L 181.507099 63.771363 
L 183.138529 60.232997 
L 184.769959 59.610455 
L 186.401389 57.320205 
L 188.032819 58.036792 
L 189.664249 56.064923 
L 191.295678 55.423988 
L 192.927108 54.534192 
L 194.558538 55.438174 
L 196.189968 55.283552 
L 197.821398 53.568 
L 199.452828 54.639153 
L 201.084258 54.763914 
L 202.715688 54.037017 
L 204.347117 56.677923 
L 205.978547 55.355133 
L 207.609977 55.4397 
L 209.241407 58.700319 
L 210.872837 63.273129 
L 212.504267 66.693177 
L 214.135697 68.114488 
L 215.767127 66.839904 
L 217.398556 71.598835 
L 219.029986 74.146488 
L 220.661416 72.043248 
L 222.292846 75.793406 
L 223.924276 83.059069 
L 225.555706 88.104686 
L 227.187136 86.767334 
L 228.818566 93.717169 
L 230.449995 96.912658 
L 232.081425 94.370867 
L 233.712855 94.158704 
L 235.344285 95.016701 
L 236.975715 92.134749 
L 238.607145 91.893786 
L 240.238575 94.417971 
L 241.870005 94.822246 
L 243.501434 95.707367 
L 245.132864 95.977347 
L 246.764294 96.653891 
L 248.395724 93.130889 
L 250.027154 91.153092 
L 251.658584 89.507888 
L 253.290014 89.633698 
L 254.921444 92.957809 
L 258.184303 103.019575 
L 259.815733 103.52714 
L 261.447163 106.89557 
L 263.078593 111.19214 
L 264.710023 112.683222 
L 266.341453 113.187371 
L 267.972883 114.984026 
L 269.604312 114.80264 
L 271.235742 116.327972 
L 272.867172 118.284057 
L 274.498602 119.394074 
L 276.130032 120.931454 
L 277.761462 124.990375 
L 279.392892 132.853081 
L 281.024322 127.478349 
L 282.655751 132.170261 
L 284.287181 133.536081 
L 285.918611 133.994742 
L 287.550041 138.647536 
L 289.181471 139.812558 
L 290.812901 142.786086 
L 292.444331 149.358362 
L 294.075761 151.474525 
L 295.70719 152.007445 
L 297.33862 153.346208 
L 298.97005 153.170565 
L 300.60148 153.37037 
L 302.23291 154.59503 
L 303.86434 157.53515 
L 308.75863 169.366692 
L 312.021489 175.062325 
L 313.652919 177.117882 
L 315.284349 178.67563 
L 316.915779 179.946147 
L 318.547209 182.039507 
L 320.178639 182.587114 
L 321.810069 184.615693 
L 323.441498 186.058093 
L 325.072928 190.015725 
L 326.704358 191.561978 
L 328.335788 192.785892 
L 329.967218 196.389429 
L 331.598648 197.382006 
L 333.230078 201.374907 
L 334.861508 203.758179 
L 336.492937 205.385763 
L 338.124367 207.665846 
L 339.755797 210.434279 
L 341.387227 214.933278 
L 343.018657 218.313692 
L 344.650087 220.694799 
L 346.281517 223.722244 
L 349.544376 227.706773 
L 351.175806 228.751477 
L 352.807236 230.500811 
L 356.070096 234.484447 
L 357.701526 235.744116 
L 360.964386 239.931093 
L 362.595815 241.242172 
L 364.227245 243.318155 
L 365.858675 245.065114 
L 370.752965 251.005644 
L 372.384395 252.59693 
L 374.015825 254.813669 
L 380.541544 262.208019 
L 382.172974 263.465683 
L 383.804404 265.274865 
L 385.435834 270.966216 
L 387.067264 272.270222 
L 388.698693 273.154416 
L 390.330123 274.366436 
L 391.961553 274.924604 
L 393.592983 275.81267 
L 395.224413 277.215544 
L 398.487273 278.702204 
L 398.487273 278.702204 
" clip-path="url(#p8fde99fc52)" style="fill: none; stroke: #ff0000; stroke-width: 1.5; stroke-linecap: square"/>
   </g>
   <g id="patch_3">
    <path d="M 57.6 307.584 
L 57.6 41.472 
" style="fill: none; stroke: #000000; stroke-width: 0.8; stroke-linejoin: miter; stroke-linecap: square"/>
   </g>
   <g id="patch_4">
    <path d="M 414.72 307.584 
L 414.72 41.472 
" style="fill: none; stroke: #000000; stroke-width: 0.8; stroke-linejoin: miter; stroke-linecap: square"/>
   </g>
   <g id="patch_5">
    <path d="M 57.6 307.584 
L 414.72 307.584 
" style="fill: none; stroke: #000000; stroke-width: 0.8; stroke-linejoin: miter; stroke-linecap: square"/>
   </g>
   <g id="patch_6">
    <path d="M 57.6 41.472 
L 414.72 41.472 
" style="fill: none; stroke: #000000; stroke-width: 0.8; stroke-linejoin: miter; stroke-linecap: square"/>
   </g>
   <g id="legend_1">
    <g id="patch_7">
     <path d="M 345.441875 93.506375 
L 407.72 93.506375 
Q 409.72 93.506375 409.72 91.506375 
L 409.72 48.472 
Q 409.72 46.472 407.72 46.472 
L 345.441875 46.472 
Q 343.441875 46.472 343.441875 48.472 
L 343.441875 91.506375 
Q 343.441875 93.506375 345.441875 93.506375 
z
" style="fill: #ffffff; opacity: 0.8; stroke: #cccccc; stroke-linejoin: miter"/>
    </g>
    <g id="line2d_30">
     <path d="M 347.441875 54.570438 
L 357.441875 54.570438 
L 367.441875 54.570438 
" style="fill: none; stroke-dasharray: 9.6,2.4,1.5,2.4; stroke-dashoffset: 0; stroke: #0000ff; stroke-width: 1.5"/>
    </g>
    <g id="text_16">
     <!-- Blue -->
     <g transform="translate(375.441875 58.070438)scale(0.1 -0.1)">
      <defs>
       <path id="DejaVuSans-42" d="M 1259 2228 
L 1259 519 
L 2272 519 
Q 2781 519 3026 730 
Q 3272 941 3272 1375 
Q 3272 1813 3026 2020 
Q 2781 2228 2272 2228 
L 1259 2228 
z
M 1259 4147 
L 1259 2741 
L 2194 2741 
Q 2656 2741 2882 2914 
Q 3109 3088 3109 3444 
Q 3109 3797 2882 3972 
Q 2656 4147 2194 4147 
L 1259 4147 
z
M 628 4666 
L 2241 4666 
Q 2963 4666 3353 4366 
Q 3744 4066 3744 3513 
Q 3744 3084 3544 2831 
Q 3344 2578 2956 2516 
Q 3422 2416 3680 2098 
Q 3938 1781 3938 1306 
Q 3938 681 3513 340 
Q 3088 0 2303 0 
L 628 0 
L 628 4666 
z
" transform="scale(0.015625)"/>
       <path id="DejaVuSans-75" d="M 544 1381 
L 544 3500 
L 1119 3500 
L 1119 1403 
Q 1119 906 1312 657 
Q 1506 409 1894 409 
Q 2359 409 2629 706 
Q 2900 1003 2900 1516 
L 2900 3500 
L 3475 3500 
L 3475 0 
L 2900 0 
L 2900 538 
Q 2691 219 2414 64 
Q 2138 -91 1772 -91 
Q 1169 -91 856 284 
Q 544 659 544 1381 
z
M 1991 3584 
L 1991 3584 
z
" transform="scale(0.015625)"/>
      </defs>
      <use xlink:href="#DejaVuSans-42"/>
      <use xlink:href="#DejaVuSans-6c" x="68.603516"/>
      <use xlink:href="#DejaVuSans-75" x="96.386719"/>
      <use xlink:href="#DejaVuSans-65" x="159.765625"/>
     </g>
    </g>
    <g id="line2d_31">
     <path d="M 347.441875 69.248563 
L 357.441875 69.248563 
L 367.441875 69.248563 
" style="fill: none; stroke-dasharray: 1.5,2.475; stroke-dashoffset: 0; stroke: #008000; stroke-width: 1.5"/>
    </g>
    <g id="text_17">
     <!-- Green -->
     <g transform="translate(375.441875 72.748563)scale(0.1 -0.1)">
      <defs>
       <path id="DejaVuSans-47" d="M 3809 666 
L 3809 1919 
L 2778 1919 
L 2778 2438 
L 4434 2438 
L 4434 434 
Q 4069 175 3628 42 
Q 3188 -91 2688 -91 
Q 1594 -91 976 548 
Q 359 1188 359 2328 
Q 359 3472 976 4111 
Q 1594 4750 2688 4750 
Q 3144 4750 3555 4637 
Q 3966 4525 4313 4306 
L 4313 3634 
Q 3963 3931 3569 4081 
Q 3175 4231 2741 4231 
Q 1884 4231 1454 3753 
Q 1025 3275 1025 2328 
Q 1025 1384 1454 906 
Q 1884 428 2741 428 
Q 3075 428 3337 486 
Q 3600 544 3809 666 
z
" transform="scale(0.015625)"/>
       <path id="DejaVuSans-72" d="M 2631 2963 
Q 2534 3019 2420 3045 
Q 2306 3072 2169 3072 
Q 1681 3072 1420 2755 
Q 1159 2438 1159 1844 
L 1159 0 
L 581 0 
L 581 3500 
L 1159 3500 
L 1159 2956 
Q 1341 3275 1631 3429 
Q 1922 3584 2338 3584 
Q 2397 3584 2469 3576 
Q 2541 3569 2628 3553 
L 2631 2963 
z
" transform="scale(0.015625)"/>
      </defs>
      <use xlink:href="#DejaVuSans-47"/>
      <use xlink:href="#DejaVuSans-72" x="77.490234"/>
      <use xlink:href="#DejaVuSans-65" x="116.353516"/>
      <use xlink:href="#DejaVuSans-65" x="177.876953"/>
      <use xlink:href="#DejaVuSans-6e" x="239.400391"/>
     </g>
    </g>
    <g id="line2d_32">
     <path d="M 347.441875 83.926688 
L 357.441875 83.926688 
L 367.441875 83.926688 
" style="fill: none; stroke: #ff0000; stroke-width: 1.5; stroke-linecap: square"/>
    </g>
    <g id="text_18">
     <!-- Red -->
     <g transform="translate(375.441875 87.426688)scale(0.1 -0.1)">
      <defs>
       <path id="DejaVuSans-64" d="M 2906 2969 
L 2906 4863 
L 3481 4863 
L 3481 0 
L 2906 0 
L 2906 525 
Q 2725 213 2448 61 
Q 2172 -91 1784 -91 
Q 1150 -91 751 415 
Q 353 922 353 1747 
Q 353 2572 751 3078 
Q 1150 3584 1784 3584 
Q 2172 3584 2448 3432 
Q 2725 3281 2906 2969 
z
M 947 1747 
Q 947 1113 1208 752 
Q 1469 391 1925 391 
Q 2381 391 2643 752 
Q 2906 1113 2906 1747 
Q 2906 2381 2643 2742 
Q 2381 3103 1925 3103 
Q 1469 3103 1208 2742 
Q 947 2381 947 1747 
z
" transform="scale(0.015625)"/>
      </defs>
      <use xlink:href="#DejaVuSans-52"/>
      <use xlink:href="#DejaVuSans-65" x="64.982422"/>
      <use xlink:href="#DejaVuSans-64" x="126.505859"/>
     </g>
    </g>
   </g>
  </g>
 </g>
 <defs>
  <clipPath id="p8fde99fc52">
   <rect x="57.6" y="41.472" width="357.12" height="266.112"/>
  </clipPath>
 </defs>
</svg>
