<svg version="1.1" id="Layer_1" xmlns="http://www.w3.org/2000/svg" x="0" y="0" viewBox="0 0 502.2 160.5" style="enable-background:new 0 0 502.2 160.5;background-color:#fff" xml:space="preserve"><style>.st0{fill:none}.st1,.st2{fill:none;stroke:#000;stroke-width:.4252;stroke-linecap:round;stroke-linejoin:round;stroke-miterlimit:10}.st2{stroke-width:.2835}.st4{font-family:Helvetica,Arial,sans-serif}.st5{font-size:8px}.st6{fill:none;stroke:#000;stroke-width:.2835;stroke-linecap:round;stroke-linejoin:round}</style><g id="Cable"><path class="st1" d="M280.1 57.1h133.8v15.7H285.8m-10.2-19.1-.2.1-.3.2-.3.2-.2.2-.3.1-.2.2-.3.1-.1.2-.2.1-.2.1-.2.1-.1.1-.2.2-.2.1-.2.1-.1.1-.2.1-.1.1-.1.1-.2.1-.1.1-.1.1-.1.1-.2.1-.1.1-.1.1h-.1l-.2.1-.1.1-.1.1-.1.1-.1.1-.1.1h-.1l-.1.1v.1l-.1.1-.1.1h-.1l-.1.1-.1.1-.1.1h0l-.1.1-.1.1v.1h-.1l-.1.1v.1h-.1v.1l-.1.1h-.1v.1l-.1.1h0l-.1.1v.1h0l-.1.1h0v.1l-.1.1h0v.1h-.1v.2h0l-.1.1h0v.2l-.1.1v.6h0v.2h.1v.3h.1v.1h0v.1h.1v.1h0l.1.1h0v.1h.1l.1.1h0l.1.1h0l.1.1h0l.1.1h0v.1h.1l.1.1h0l.1.1h.1l.1.1h0l.1.1.1.1h.1l.1.1h0l.1.1h.1l.1.1h.1l.1.1h.1v.1h.1l.1.1.2.1h.1l.1.1.1.1h.2l.1.1.1.1h.2l.1.1.1.1h.2l.1.1h0l.3.1.2.1.2.1.3.1.2.2.2.1.2.1.3.1.1.1h.2l.1.1.2.1h.1l.1.1.2.1h.1l.2.1.1.1.1.1h.2l.1.1.1.1h.1l.1.1h.1l.1.1h.1l.1.1h.1l.1.1.1.1h.1v.1h.1l.1.1h.1l.1.1v.1h.1l.1.1h.1v.1h.1v.1h.1v.1h.1v.1h.1v.1h.1v.1h.1v.1h.1v.1h0l.1.1h0v.1h.1v.1h0l.1.1h0v.2l.1.1v1h-.1v.3l-.1.1h0v.1h-.1v.2h-.1v.1h0l-.1.1v.1h0l-.1.1v.1l-.1.1h0l-.1.1-.1.1h0l-.1.1v.1l-.1.1h-.1v.1l-.1.1h0l-.1.1-.1.1-.1.1-.1.1-.1.1h0l-.1.1-.1.1-.1.1-.1.1-.1.1-.1.1h-.1l-.1.1-.1.1-.1.1-.1.1-.2.1-.1.1-.1.1-.1.1-.2.1-.1.1-.1.1-.2.1-.1.1-.1.1-.2.1-.1.1-.2.2-.2.1-.2.1-.1.1-.2.2-.2.1-.2.1-.1.1-.2.2h-.1l-.3.2-.3.2-.2.2-.3.2-.3.1-.2.2-.3.2-.1.1"/><path class="st1" d="m285 53.7-.2.1-.3.2-.2.2-.3.2-.2.1-.3.2-.2.1-.2.2-.2.1-.2.1-.1.1-.2.1-.2.2-.2.1-.1.1-.2.1-.1.1-.2.1-.1.1-.1.1-.2.1-.1.1-.1.1-.1.1-.2.1-.1.1h-.1l-.1.1-.1.1-.1.1-.1.1-.1.1-.1.1h-.1l-.1.1-.1.1-.1.1-.1.1h-.1l-.1.1v.1l-.1.1h-.1l-.1.1v.1l-.1.1h-.1v.1l-.1.1h-.1v.1l-.1.1h0l-.1.1v.1h-.1v.1l-.1.1h0v.1h-.1v.2h-.1v.1h0l-.1.1v.1h0v.1h-.1v.3l-.1.1v.6h.1v.2h0v.1l.1.1h0v.1h0l.1.1h0v.1h.1v.1h0l.1.1h.1v.1h0l.1.1h0l.1.1h0l.1.1h0l.1.1h0l.1.1h.1l.1.1h0l.1.1h.1l.1.1v.1h.1l.1.1h.1l.1.1h0l.1.1h.1l.1.1h.1v.1h.2l.1.1.1.1h.1l.1.1.2.1h.1l.1.1.2.1h.1l.1.1.2.1h.1l.1.1h.1l.2.1.2.1.3.1.2.1.2.2.2.1.3.1.2.1.2.1h.1l.2.1.1.1h.1l.2.1.1.1h.2l.1.1.1.1.2.1h.1l.1.1.2.1h0l.1.1h.1l.1.1h.1l.1.1h.1l.1.1.1.1h.1l.1.1h.1v.1h.1l.1.1.1.1h.1v.1h.1v.1h.1l.1.1h0l.1.1h0l.1.1h0l.1.1h0l.1.1h0l.1.1h0v.1h.1v.1h0l.1.1h0v.1h.1v.1h0v.1h.1v.2h0v.3l.1.1v.1l-.1.1v.3h0v.1l-.1.1v.3h-.1v.1h0l-.1.1v.1h0l-.1.1v.1l-.1.1h0l-.1.1v.1l-.1.1h0l-.1.1v.1h-.1v.1l-.1.1-.1.1h0l-.1.1-.1.1h0l-.1.1-.1.1-.1.1v.1l-.1.1h-.1l-.1.1-.1.1-.1.1-.1.1-.1.1-.1.1h-.1l-.1.1-.1.1-.1.1-.1.1-.1.1-.2.1-.1.1-.1.1-.1.1-.2.1-.1.1-.1.1-.2.1-.1.1-.1.1-.2.1-.2.2-.2.1-.1.1-.2.1-.2.2-.2.1-.1.1-.2.1-.2.2h-.1l-.3.2-.2.2-.3.2-.3.2-.2.1-.3.2-.3.2-.1.1M121.8 56.7v15.5m-56.4-23H77m-18.7 0h5.2m-12.2 0h5.2m-12.5 0h5.4m0 30.5H44m12.5 0h-5.2m12.2 0h-5.2m18.7 0H65.4M44 49.2l-.3.1-.3.3-.1.3m0 29.1.1.3.3.3.3.1m33.7-30.4-.7-.1m0 30.5.7-.1m0-30.3 10.8 2.9m0 24.5-10.8 2.9M65.4 49.2l-.1-.2-.2-.2-.2-.1m-.9 0-.3.1-.1.2-.1.2m-12.2 0-.1-.2-.1-.2-.3-.1m-.9 0-.2.1-.2.2-.1.2m7.5-.5-.2.1-.2.2v.2m1.8 0V49l-.2-.2-.2-.1m5.6 31 .1.2.1.2.3.1m.9 0 .2-.1.2-.2.1-.2m-14.6.5.3-.1.1-.2.1-.2m-1.9 0 .1.2.2.2.2.1m6.6-.5v.2l.2.2.2.1m1 0 .2-.1.2-.2v-.2m5.7-31h.9m-15 0h.9m6.1 0h1m0 31.5h-1m8 0H64m-13.2 0h-.9M117 51.8l-.2.1-.2.1v.3m0 24.3v.3l.2.1.2.1m.3 0h-.3m0-25.3h.3m-8.9.5-.1-.3-.2-.1-.2-.1m0 25.3.2-.1.2-.1.1-.3m4.2.5h-.2m0-25.3h.2m.5.5-.1-.3-.2-.1-.2-.1m0 25.3.2-.1.2-.1.1-.3m-.7-24.8-.3.1-.2.1v.3m0 24.3v.3l.2.1.3.1m5.3-24.8V52l-.2-.1-.2-.1m0 25.3.2-.1.2-.1v-.3m-10-24.8-.3.1-.1.1-.1.3m0 24.3.1.3.1.1.3.1m.2 0h-.2m0-25.3h.2m-19.4.4h0m.1 24.4h0m24.5-24.3h3.5m0 24.3h-3.5m4.6-24.3h3m0 24.3h-3m3 0 .4-.1.4-.2.3-.4v-.4m0-22.1V53l-.3-.4-.4-.2-.4-.1m-12.3 0h3.5m0 24.3h-3.5M88.6 52.3h18.6m0 24.3H88.6M40.1 53.9h3.2m0 21.1h-3.2M11.9 52h1.9m-2.3.5.4-.5M26 76.9l-.8.8-.3-.6h-.6l-.7 1.2h-.3l-.8-1.2H22l-.8 1.2h-.3l-.7-1.2h-.6l-.7 1.2h-.3l-.7-1.2h-.6l-.8 1.2h-.3l-.7-1.2h-.6l-.3.6-.8-.8m14.6 0H26m-12.2 0h-1.9m0 0-.4-.5M33 48.2h5.9M11.5 76.4h-.3v.4H8.9m0-24.7h2.3v.4h.3m54.1 13.8h-9.2m9.2-3.7v3.7m-9.2-3.7h9.2m-7.3 9.7h0v-.2h-.1 0-.1m.2 7.6v-7.4m-1.8 0v7.4m.2-7.6h0-.2v.1h0v.1m.2-.2h1.4m-6.8.2h0v-.2h-.1 0-.1m.2 7.6v-7.4m-1.9 0v7.4m.3-7.6h-.2 0v.1h0-.1v.1m.3-.2h1.4m14.3.2h0l-.1-.2h0-.2m.3 7.6v-7.4m-1.9 0v7.4m.2-7.6h0l-.2.1h0v.1m.2-.2h1.4m-8.6-15.5h0v.2h.2m-.2-7.6v7.4m1.8 0v-7.4m-.2 7.6h.2v-.1h0v-.1m-.2.2h-1.4m-7.3-.2h0l.1.2h.2m-.3-7.6v7.4m1.9 0v-7.4m-.2 7.6h.2v-.1h0v-.1m-.2.2h-1.4m13.8-.2v.2h.2m-.2-7.6v7.4m1.9 0v-7.4m-.3 7.6h.2v-.1h.1v-.1m-.3.2h-1.4m-20.4-6.9V79m73.3-2.4V52.3m-8.2 0v24.3m4.7-24.3v24.3m-1.2 0V52.3m5.8 0v24.3m-10.5 0V52.3m14.6 23.2V53.4M38.9 70.2H33m5.9 0 .1-.3.1-.3v-.3l.1-.1v-.3l.1-.2v-.1l.1-.2v-.1l.1-.2v-.3l.1-.1v-.2l.1-.1v-.5l.1-.2v-.3l.1-.2v-.6l.1-.1v-1.4l.1-.3v-.3m0 0v-.4l-.1-.2v-1.4l-.1-.1v-.7l-.1-.1v-.5l-.1-.2h0v-.3l-.1-.2v-.1l-.1-.2v-.3l-.1-.2v-.1l-.1-.2v-.2l-.1-.1v-.3l-.1-.3h0l-.1-.3-.1-.4m0 0H33m5.9 0v-2.5m1.2 9.3V51.2m-1.2 3 .1-.2.1-.1h0v-.1h.1v-.2l.1-.1h0l.1-.1v-.1h.1v-.2h.1V53l.1-.1h0v-.2l.1-.1h0v-.1l.1-.1h0v-.3h.1v-.3h0v-.3l.1-.1v-.2M38.9 73v-2.8m1.2 6.5v-.2l-.1-.1v-.8l-.1-.1v-.3l-.1-.1v-.3l-.1-.1v-.2h-.1v-.1l-.1-.1v-.2l-.1-.1v-.1l-.1-.1v-.1h-.1v-.2h0l-.1-.1v-.1l-.1-.2-.1-.1m1.2 3.7V63.5M33 65.8l-.6-.8m0-.5.6-.8m-.6.8v.5m.6-1.3v2.1m-4.7-2.1.6.8m0 .5-.6.8m.6-1.3v.5m-.6-1.3v2.1m4.7-2.1-.6-.8m0-.5.6-.7m-.6.7v.5m.6-1.2v2m-4.7-2 .6.7m0 .5-.6.8m.6-1.3v.5m-.6-1.2v2m-14.5-1.8h-1.9m0 3.4h1.9m1.6 1.1-.5 2.7-1.1-3.8v11.6m10.5-6.8h-.6l-.6-3.7h-.6l-.9 3.7h-.2l-.7-3.7h-.6l-.8 3.7H19l-.6-3.7h-.6l-.8 3.7h-.3l-.7-3.7h-.6m9.4 1.8-.5 1.9m.5-1.9h.5l.7-2.9v11.6m0-11.6h2.3m4.7 2.5-.6-.7m0-.5.6-.8m-.6.8v.5m.6-1.3v2m-4.7-2 .6.8m0 .5-.6.7m.6-1.2v.5m-.6-1.3v2m4.7-6.1-.6-.9m0-.5.6-.7m-.6.7v.5m.6-1.2v2.1m-4.7-2.1.6.7m0 .5-.6.9m.6-1.4v.5m-.6-1.2v2.1m4.7 2h-4.7m4.7 2.1h-4.7m4.7-4.1h-4.7m4.7 8.1-.6-.6m0-.5.6-.9m-.6.9v.5m.6-1.4v2m-4.7-2 .6.9m0 .5-.6.6m.6-1.1v.5m-.6-1.4v2m4.7-2h-4.7m4.7-8.2-.6-.9m0-.5.6-.5m-.6.5v.5m.6-1v1.9m-4.7-1.9.6.5m0 .5-.6.9m.6-1.4v.5m-.6-1v1.9m4.7 0h-4.7M33 69.8h-4.7m4.7 1.9-.6-.5m0-.5.6-.9m-.6.9v.5m.6-1.4v1.9m-4.7-1.9.6.9m0 .5-.6.5m.6-1v.5m-.6-1.4v1.9m4.7-14-.6-1m0-.4.6-.4m-.6.4v.4m.6-.8v1.8m-4.7-1.8.6.4m0 .4-.6 1m.6-1.4v.4m-.6-.8v1.8m4.7 0h-4.7M13.8 52v9.9M33 71.7h-4.7m4.7 1.8-.6-.4m0-.4.6-1m-.6 1v.4m.6-1.4v1.8m-4.7-1.8.6 1m0 .4-.6.4m.6-.8v.4m-.6-1.4v1.8m10.6-.5H33m0-17.1h-4.7m10.6-1.7H33m0 1.7-.6-1m0-.4.6-.3m-.6.3v.4m.6-.7v1.7m-4.7-1.7.6.3m0 .4-.6 1m.6-1.4v.4m-.6-.7v1.7M33 73.5h-4.7M11.9 52v9.9m-.4.1h.2l.2-.1M33 75.1l-.6-.2m0-.4.6-1m-.6 1v.4m.6-1.4v1.6m-4.7-1.6.6 1m0 .4-.6.2m.6-.6v.4m-.6-1.4v1.6M33 54.2h-4.7m10.6 26.3H33m5.9 0 .1-.2.1-.2V80l.1-.1v-.1h0l.1-.1v-.1l.1-.1v-.1l.1-.1v-.2h.1V79l.1-.1v-.3l.1-.1v-.2h.1v-.4l.1-.1v-.7l.1-.2v-.2M11.5 65.3h.4m-.4-3.3v3.3M33 54.2l-.6-1m0-.4.6-.1m-.6.1v.4m.6-.5v1.5m-4.7-1.5.6.1m0 .4-.6 1m.6-1.4v.4m-.6-.5v1.5M33 75.1h-4.7m-16.4-9.8v11.6m28.2-25.7h0l-.1-.3v-.6h-.1v-.2h0V50l-.1-.1v-.1h0v-.1l-.1-.1h0v-.1l-.1-.1v-.1h-.1v-.2h-.1V49l-.1-.1v-.1h-.1v-.2l-.1-.1-.1-.1-.1-.2m0 0H33m-4.7 26.9.6 1m3.5 0 .6-1m0 1.5-.6-.1m0-.4v.4m.6-1.4v1.5m-4.1-.1-.6.1m.6-.5v.4m-.6-1.4v1.5M33 52.7h-4.7M33 76.6h-4.7M33 52.7l-.6-1m0-.3.6-.1m-.6.1v.3m.6-.4v1.4m-4.7-1.4.6.1m0 .3-.6 1m.6-1.3v.3m-.6-.4v1.4m4.1 24.9.6-1m-4.7 0 .6 1m4.1.3h-.6m0-.3v.3m.6-1.3v1.3m-4.1 0h-.6m.6-.3v.3m-.6-1.3v1.3M33 51.3h-4.7m4.1 26.6h-3.5m4.1 0h-4.7M33 51.3l-.6-.9m0-.3.6.1m-.6-.1v.3m.6-.2v1.1m-4.7-1.1.6-.1m0 .3-.6.9m.6-1.2v.3m-.6-.2v1.1m4.1 27.5.6-.9m-4.7 0 .6.9m4.1.2-.6.1m0-.3v.3m.6-1.2V79m-4.1.1-.6-.1m.6-.2v.3m-.6-1.2V79m.6-28.9h3.5m0 29h-3.5m-.6-29.8.6-.2m0 .2-.6.9m.6-1.1v.2m-.6.4v.5m0-.9v.4m4.7.5-.6-.9m0-.2.6.2m-.6-.2v.2m.6 0v.9m-.6 29.6.6-.8m-4.7 0 .6.8m4.1 0-.6.2m0-.2v.2m.6-1v.8m-4.1.2-.6-.2m.6 0v.2m-.6-1v.8m.6-30.7h3.5m0 30.9h-3.5m10-31.8h0m-10.6.4.6-.3m0 .2-.6.8m.6-1v.2m-.6.1v.7m4.7 0-.6-.8m0-.2.6.3m-.6-.3v.2m.6.1v.7m0 31.1-.6.4m0-.2.6-.8m-.6.8v.2m.6-1v.6m-4.7-.6.6.8m0 .2-.6-.4m.6.2v.2m-.6-1v.6m.6-32.1h3.5m0 32.5h-3.5m-.6-32.6.6-.4m0 .1-.6.7m.6-.8h0m-.6.4v.4m4.7 0-.6-.7m0-.1.6.4m-.6-.4h0m.6.4v.4m-.6 32.5.6-.7m-4.7 0 .6.7m4.1-.3-.6.4m0-.1h0m.6-.7v.4m-4.1.4-.6-.4m.6.3h0m-.6-.7v.4m.6-33h3.5m.6.4-.6-.7m-3.5 0-.6.7m4.1-.7h-3.5m3.5 33.9.6-.6m-4.7 0 .6.6m0 0h3.5m-3.5 0h0m3.5 0h-3.5m-20-4.6V52.1m68.8 27.5V49.3m10.8 2.9v24.5m32.2-24.4v24.3M14.9 69.1l.6 8m1.2-7 .6 7m1.7-7 .6 7m1.8-7 .6 7m1.7-7 .6 7m1-8.9.7 8.7m0-24.8-.8-.8-.3.6h-.6l-.7-1.3h-.3l-.8 1.3H22l-.8-1.3h-.3l-.7 1.3h-.6l-.7-1.3h-.3l-.7 1.3h-.6l-.8-1.3h-.3l-.7 1.2h-.6l-.3-.5-.8.7m14.5.1H26M15.4 62.5l-.5-2.7-1.1 2.1m10.5-3h-.6l-.6 3.6h-.6l-.9-3.6h-.2l-.7 3.6h-.6l-.8-3.6H19l-.6 3.6h-.6l-.8-3.6h-.3l-.7 3.6h-.6m9.4-1.8-.5-1.8m.5 1.8h.5l.7 2.9V52.1m0 11.5h2.3m-13.4-3.8.6-8m1.2 7.1.6-7m1.7 7 .6-7m1.8 7 .6-7m1.7 7 .6-7m1 8.8.7-8.6m43.5 16.2s-5.3 2.3-11.1 2.3-10.7-2.3-10.7-2.3c-.3-.2-.6-.3-.6-.6v-6.6c0-.3.4-.5.6-.6 0 0 5.2-2.2 10.8-2.2s11 2.2 11 2.2c.3.1.6.3.6.6v6.6c0 .4-.3.5-.6.6z"/><path class="st1" d="M56.4 62.6v-2.9l-4.9 4.8 4.9 4.7v-2.9"/><path class="st2" d="m413.9 64.1 5.5-5.5m.3 11.7 11.7-11.7m.2 11.7 11.7-11.7m.3 11.7 11.7-11.7m.2 11.7 11.7-11.7m.3 11.7 11.7-11.7m.2 11.7 11.8-11.7m.2 11.7 7.2-7.5m-80.5 7.5-4.2-4.2m16.1 4.2-11.7-11.7M442 70.3l-11.7-11.7m23.6 11.7-11.7-11.7m23.7 11.7-11.7-11.7m23.6 11.7-11.7-11.7m23.7 11.7-11.7-11.7m20.5 8.8-8.6-8.8"/><path class="st1" d="M498.6 70.3h-84.7m84.7-11.7h-84.7m84.7 0v11.7m-376.8-13H243m0 0h26.9M121.8 72.7h121.3m0 0h33.2"/><path class="st0" d="M179.6 57.4h58.7v1.8h-58.7v-1.8z"/><circle cx="32.7" cy="128.9" r="28.3" style="fill:none;stroke:#000;stroke-width:.7087;stroke-linecap:round;stroke-linejoin:round;stroke-miterlimit:10"/><circle class="st1" cx="32.7" cy="128.9" r="4.6"/><circle class="st1" cx="18.2" cy="129" r="4.6"/><circle class="st1" cx="47.2" cy="129" r="4.6"/><circle class="st1" cx="42.9" cy="118.6" r="4.3"/><circle class="st1" cx="22.5" cy="118.6" r="4.3"/><circle class="st1" cx="22.7" cy="139" r="4.3"/><circle class="st1" cx="32.7" cy="114.4" r="4.6"/><circle class="st1" cx="43" cy="139" r="4.3"/><path class="st1" d="M35.4 154.3V153h0c0-1.5-1.2-2.7-2.7-2.7S30 151.5 30 153h0v1.3h0C17.2 153 7.2 142.1 7.2 128.9c0-14.1 11.4-25.5 25.5-25.5s25.5 11.4 25.5 25.5c0 13.2-10 24-22.8 25.4h0z"/><text transform="translate(40.672 121.381)" class="st4 st5">4</text><text transform="translate(19.99 121.381)" class="st4 st5">6</text><text transform="translate(19.991 141.646)" class="st4 st5">1</text><text transform="translate(15.899 131.923)" class="st4 st5">7</text><text transform="translate(44.906 131.923)" class="st4 st5">3</text><text transform="translate(30.407 131.923)" class="st4 st5">8</text><text transform="translate(40.672 141.646)" class="st4 st5">2</text><text transform="translate(30.407 117.157)" class="st4 st5">5</text></g><g id="Dimensions"><path class="st2" d="M498.6 58.6V17.3"/><path class="st6" d="M12.8 19.8h481.7"/><path d="m13.7 21.1-4.6-1.3 4.6-1.2v2.5zm479.9 0 4.6-1.3-4.6-1.2v2.5z"/><path class="st2" d="M8.9 52.1V18.6m112.9 35.9V30.7m292 26.4V33.6"/><path class="st6" d="M12.8 33.4h105.1"/><path d="m13.7 34.7-4.6-1.3 4.6-1.2v2.5zm103.3 0 4.6-1.3-4.6-1.2v2.5z"/><path class="st6" d="M417.8 36.3h77.3"/><path d="m418.6 37.5-4.6-1.2 4.6-1.3v2.5zm75.7 0 4.6-1.2-4.6-1.3v2.5z"/></g><text transform="translate(202.101 15.443)" class="st4 st5">Length depending on order number</text><text transform="translate(53.5 30.207)" class="st4 st5">100 ±5 </text><text transform="translate(63.7 31.207)" class="st4 st5"> </text><path class="st0" d="M436.4 146.9h82.5v16.5h-82.5v-16.5z"/><text transform="translate(431.389 152.616)" class="st4 st5">Dimensions in mm</text><text transform="translate(443.6 32.2)" class="st4 st5">50 ±5 </text></svg>