<svg version="1.1" id="Ebene_1" xmlns="http://www.w3.org/2000/svg" x="0" y="0" viewBox="0 0 417.1 460.6" style="enable-background:new 0 0 417.1 460.6;background-color:#fff" xml:space="preserve"><style>.st0{fill:#f6f6f6}.st1{fill:none;stroke:#000;stroke-width:.6;stroke-linecap:round;stroke-linejoin:round;stroke-miterlimit:10}.st2{fill:#fff}.st3{fill:none;stroke:#1a171b;stroke-width:.6;stroke-linecap:round;stroke-linejoin:round;stroke-miterlimit:10}.st5{font-family:Helvetica,Arial,sans-serif}.st6{font-size:17.0079px}.st7,.st8{fill:none;stroke:#000;stroke-width:.3;stroke-linecap:round;stroke-linejoin:round}.st8{stroke-width:.228;stroke-miterlimit:10}</style><path class="st0" d="M375.4 323.8v-161H72.3v185.8h43v-22.4c0-1.1.9-2.1 2.1-2.1h49.2c2 0 3.6 1.6 3.6 3.6v20.9h23.6v-19.8c.4-2.4 2.2-4.2 4.6-4.6 3-.5 5.8 1.6 6.3 4.6v31l1.9 1.9H236l2-2v-20.3c0-1.4 1.2-2.6 2.6-2.6 1.4 0 2.6 1.2 2.6 2.6v20.4l1.9 1.9h17.6l1.9-1.9v-32.4c0-2 1.7-3.7 3.7-3.7h107.1"/><path class="st1" d="M375.4 323.8v-161H72.3v185.8h43v-22.4c0-1.1.9-2.1 2.1-2.1h49.2c2 0 3.6 1.6 3.6 3.6v20.9h23.6v-19.8c.4-2.4 2.2-4.2 4.6-4.6 3-.5 5.8 1.6 6.3 4.6v31l1.9 1.9H236l2-2v-20.3c0-1.4 1.2-2.6 2.6-2.6 1.4 0 2.6 1.2 2.6 2.6v20.4l1.9 1.9h17.6l1.9-1.9v-32.4c0-2 1.7-3.7 3.7-3.7h107.1"/><path class="st2" d="M186.4 337.3c0-2.6-2.1-4.8-4.8-4.8-2.6 0-4.8 2.1-4.8 4.8s2.1 4.8 4.8 4.8c2.6 0 4.8-2.2 4.8-4.8"/><circle class="st1" cx="181.6" cy="337.3" r="4.8"/><path class="st2" d="M367 175.2c0-2.6-2.1-4.8-4.8-4.8-2.6 0-4.8 2.1-4.8 4.8 0 2.6 2.1 4.8 4.8 4.8 2.6 0 4.8-2.2 4.8-4.8"/><path class="st1" d="M367 175.2c0-2.6-2.1-4.8-4.8-4.8-2.6 0-4.8 2.1-4.8 4.8 0 2.6 2.1 4.8 4.8 4.8 2.6 0 4.8-2.2 4.8-4.8z"/><path class="st0" d="M77.8 189.4h49.5v54.1H67.5v-54.1h11.2"/><path class="st1" d="M77.8 189.4h49.5v54.1H67.5v-54.1h11.2"/><path class="st0" d="M77.7 252.4h49.6v54H67.5v-54h11.2"/><path class="st1" d="M77.7 252.4h49.6v54H67.5v-54h11.2"/><path class="st3" d="m73 181.6-.1-.3-.1.3h.2zm-.1-.3-.1-.1v.4l.1-.3zm-.1-.1-.3.1.3.3v-.4zm-.3.1v.3h.3l-.3-.3zm0 .3v.1l.3-.1h-.3zm0 .1.3.1v-.2l-.3.1zm.3.1.1-.1-.1-.1v.2z"/><path class="st3" d="m72.9 181.7.1-.1h-.2l.1.1zM67 346.3h4.6M29 47.6V45m.1 3.2h1.8m-1.9-.6h34.8m-34.7 0v.6m1.8 0 1.1-.6"/><path class="st0" d="m63.8 47.6.4.3.2.3v343.2-.2l-1.2 13.9h2.7l1.1-13.7v-53.1h4.6l.7-.3.6-.6.1-.7V71.6l-.1-.7-.6-.6-.7-.1H67V46.4l-.1-.7-.6-.5-.7-.2H29"/><path class="st3" d="m63.8 47.6.4.3.2.3v343.2-.2l-1.2 13.9h2.7l1.1-13.7v-53.1h4.6l.7-.3.6-.6.1-.7V71.6l-.1-.7-.6-.6-.7-.1H67V46.4l-.1-.7-.6-.5-.7-.2H29"/><path d="M231.7 353.5v-.1m0 .1v-.1m-1-5.7h1.9v11.5h-1.9v-11.5zm34 5.8v-.1m0 .1v-.1m-6 .1v-.1m0 .1v-.1m-1-5.7h1.9v11.5h-1.9v-11.5zm-8 5.8v-.1m0 .1v-.1m-1-5.7h1.9v11.5h-1.9v-11.5zm7 5.8v-.1m0 .1v-.1m-1-5.7h1.9v11.5h-1.9v-11.5zm-29 5.8v-.1m0 .1v-.1m-1-5.7h1.9v11.5h-1.9v-11.5zm28 5.8v-.1m0 .1v-.1m-1-5.7h1.9v11.5h-1.9v-11.5zm-35 5.8v-.1m0 .1v-.1m-1-5.7h1.9v11.5h-1.9v-11.5zm31 5.8v-.1m0 .1v-.1m-1-5.7h1.9v11.5h-1.9v-11.5zm-11 5.8v-.1m0 .1v-.1m-1-5.7h1.9v11.5h-1.9v-11.5zm-5 5.8v-.1m0 .1v-.1m-1-5.7h1.9v11.5h-1.9v-11.5zm10 5.8v-.1m-24 .1v-.1m0 .1v-.1m-1-5.7h1.9v11.5h-1.9v-11.5zm-2 5.8v-.1m0 .1v-.1m-1-5.7h1.9v11.5h-1.9v-11.5zm13 5.8v-.1m0 .1v-.1m-1-5.7h1.9v11.5h-1.9v-11.5zm-15 0h1.9v11.5h-1.9v-11.5zm13 5.8v-.1m0 .1v-.1m-1-5.7h1.9v11.5h-1.9v-11.5zm43 5v-.2m0 .2v-.2m-1-4.6h1.9v9.5h-1.9v-9.5zm-2 5.6v-.1m0 .1v-.1m3 .1v-.1m0 .1v-.1m-6 .1v-.1m0 .1v-.1m-9 .1v-.1m0 .1v-.1m-30 .1v-.1m0 .1v-.1m18 .1v-.1m0 .1v-.1m-3 .1v-.1m0 .1v-.1m21 .1v-.1m0 .1v-.1m-39 .1v-.1m0 .1v-.1m36 .1v-.1m0 .1v-.1m-24 .1v-.1m0 .1v-.1m-15 .1v-.1m0 .1v-.1m18 .1v-.1m0 .1v-.1m-9 .1v-.1m0 .1v-.1m3 .1v-.1m0 .1v-.1" style="fill:none;stroke:#000;stroke-width:.1;stroke-linecap:round;stroke-linejoin:round;stroke-miterlimit:10"/><text transform="rotate(-90 123.732 109.136)" class="st5 st6">120</text><text transform="rotate(-90 341.756 -66.97)" class="st5 st6">66.9</text><path class="st7" d="M81 134.6h285.9"/><path d="m82.8 137.2-9.8-2.6 9.8-2.6v5.2zm282.3 0 9.7-2.6-9.7-2.6v5.2z"/><text transform="translate(123.48 455.043)" class="st5 st6">46.1</text><path class="st7" d="M74.7 435h120.7"/><path d="m76.5 437.6-9.8-2.6 9.8-2.7v5.3zm117.1 0 9.7-2.6-9.7-2.7v5.3z"/><path class="st7" d="M23 396.7V52.5"/><path d="m25.6 394.9-2.6 9.7-2.7-9.7h5.3zm0-340.6L23 44.5l-2.7 9.8h5.3z"/><path class="st7" d="M389.7 353.9V170.6"/><path d="m392.3 352.1-2.6 9.8-2.6-9.8h5.2zm0-179.7-2.6-9.7-2.6 9.7h5.2z"/><path class="st8" d="M65.9 405.1H8.7"/><path d="M204.7 442.6v-83.3M67 442.6v-84.5M29 45V9.7" style="fill:none;stroke:#000;stroke-width:.3;stroke-linecap:round;stroke-linejoin:round;stroke-miterlimit:10"/><path d="M65.9 45H8.7" style="fill:none;stroke:#000;stroke-width:.274;stroke-linecap:round;stroke-linejoin:round;stroke-miterlimit:10"/><path d="M408.4 162.8h-33m32.8 198.9H262.5" style="fill:none;stroke:#000;stroke-width:.292;stroke-linecap:round;stroke-linejoin:round;stroke-miterlimit:10"/><text transform="translate(212.242 129.436)" class="st5 st6">101.9</text><text transform="translate(188.862 14.596)" class="st5 st6">116.1</text><path class="st7" d="M35.9 20.7h331"/><path d="M37.7 23.3 28 20.7l9.7-2.6v5.2zm327.4 0 9.7-2.6-9.7-2.6v5.2z"/><path class="st8" d="M375.4 162.8V9.7"/><text transform="translate(277.95 423.516)" class="st5 st6">Not to scale</text><text transform="translate(277.25 445.917)" class="st5 st6">Dimensions in mm</text></svg>