<svg version="1.1" id="Layer_1" xmlns="http://www.w3.org/2000/svg" x="0" y="0" viewBox="0 0 423.2 386.2" style="enable-background:new 0 0 423.2 386.2;background-color:#fff" xml:space="preserve"><style>.st1,.st2{fill:none;stroke:#000;stroke-width:.4252;stroke-linecap:round;stroke-linejoin:round;stroke-miterlimit:10}.st2{stroke-width:.2835}.st3{fill:#020203}.st4,.st7{fill:none;stroke:#000;stroke-width:.2835;stroke-linecap:round;stroke-linejoin:round}.st7{stroke-dasharray:.724,3.6201}.st17{font-family:Helvetica,Arial,sans-serif}.st18{font-size:10px}</style><g id="Ebene_1"><path class="st1" d="m161.9 83.3.4-.3m-3.3.3 3.3-3.1m-6.1 3.1 6.1-6.1m.5-.4 2.3-2.4m-11.7 8.9 10.5-10.5m-13.5 10.5 10.7-10.5m-13 9.9 10.1-9.9m-10.1 7.1 7.3-7.1m-7.3 4.3 4.5-4.3m-7.1 4 4.1-4m-4.3 1.4 1.4-1.4m-13.5 10.5 2.2-2m-3.9 1 3.9-4m1.6-1.5 1.2-1.3m-7.1 4.3 7.1-7m-7.1 4.1 4.2-4.1m-4.2 1.2 1.3-1.2m-12.7 9.8.9-.8m-4.5 1.5 4.5-4.5m-7.3 4.5 7.3-7.3m-10.3 7.3 10.3-10.1m-13.1 10.1 10.6-10.5m-12.9 10.1 10.1-10.1M105.2 80l7.3-7.2m-7.3 4.3 4.3-4.3m-4.3 1.4 1.5-1.4M67.4 83.3l1-1m-2.1-.8 2.1-2m2.7-2.7.2-.3m-5 2.2 5-5m-5 2.2 3.1-3.1m-3.1.2.3-.2m109.6 10.5 1.1-1m-2.3-.6 2.3-2.3m-2.3-.6 2.3-2.3m-3 .3 3-3.1m-5.2 2.3 3.3-3.2m-3.3.4.4-.4m-67.9 10.5.6-.4m-3.4.4 3.4-3.3M99 83.3l6.2-6.2M96 83.3l9.2-9.1m-12 9.1 10.6-10.5M90.3 83.3 101 72.8M87.5 83.3l10.6-10.5M84.6 83.3l10.6-10.5M81.7 83.3l10.6-10.5M81.1 81l8.4-8.2m-8.4 5.4 5.6-5.4m-6.9 4 3.9-4m-5.4 2.5 2.6-2.5m45 144.7c2.9 0 5.3-2.4 5.3-5.3s-2.4-5.3-5.3-5.3-5.3 2.4-5.3 5.3 2.3 5.3 5.3 5.3"/><path class="st1" d="M119.2 213.3c.7 3.7 4.2 6.2 7.9 5.5s6.2-4.2 5.5-7.9-4.2-6.2-7.9-5.5m44 10.2c1.9 0 3.4-1.5 3.4-3.4s-1.5-3.4-3.4-3.4-3.4 1.5-3.4 3.4 1.5 3.4 3.4 3.4m-93.8-22.4c1.9 0 3.4-1.5 3.4-3.4s-1.5-3.4-3.4-3.4-3.4 1.5-3.4 3.4c-.1 1.8 1.5 3.4 3.4 3.4m0 44.7c1.9 0 3.4-1.5 3.4-3.4s-1.5-3.4-3.4-3.4-3.4 1.5-3.4 3.4c-.1 1.8 1.5 3.4 3.4 3.4m66.9-22.3c1.9 0 3.4-1.5 3.4-3.4s-1.5-3.4-3.4-3.4-3.4 1.5-3.4 3.4c0 1.8 1.5 3.4 3.4 3.4m35.5 90V118.5m0 8h-111m0 3.6v-3.6m0 3.6h111m-111-9.7h111m-111 0v6.1m111 25.4h-111m0 7.3v-7.3m0 7.3h111m-111-9.8h111m-111-1.2v3.7m0-18.3v-1m0 1h111m-111 0v3.6m111 0h-111m0 7.2v-7.2m0 7.2h111m0 35.8h-111v-2.3m0 0h111m-111 0v-2m0 0v-2.2m0 0h111m-111 0v-10.5m0-1.1h111m-111 1.1V160m0 0v-.8m0-11.9h111m-111 .9v-3.1m0 0v-.7m0-11.8v-2.3m0 0v-.2m0-9.7v-1.9m0 175.5h111m-111 3.7V294m0 3.7h111m-111-3.8v.1m0-21.7V265m0 7.3h111m-111-8.1h111m-111 0v.8m0 10.9v-1.2m0 0h111m-111 1.2v1m0 0h111m-111 14.7v-1.1m0 0h111m-111 1.1v.3m0-4.9v-7.3m0 7.3h111m-111-8h111m-111 0v.7m0 25.9v-7.9m0-3.8v-2m0-1.4V287m0-8v-2.1m0-2.2v-2.4m0-8.1v-84m0 66h111m-111-2.3h111m-111 4.5h111m-111 2h111m-111 10.7h111m-111 42.6h111m0-185.2h-111m0 187.1h111m-32-228.8h2.8v6.5h14.2v-6.5h2.8v-4h-19.8v4m-9.9 0h2.8v-4h-7.1v9.3l2.1 1.2h2.2v-6.5m-30.2 6.5h13.2l2.2-1.2v-9.3h-15.4m-36.8 4h2.9v-4h-5v10.5h2.1v-6.5m36.8-4v10.5m66.9-6.5h2.9v6.5h2.3V72.8h-5.2v4m-91 6.5h24.1m0-10.5H78.3v4h2.8v6.5m81.2 0H175m-9.9-6.5h7m-33.9 0h7.1m-7.1-4h7.1m-9.9 10.5h12.7m-79.7 0h12.7m-9.8-6.5h7m-7-4h7m86.8 0h7m-51.5 0h10.5m1.5 10.1V72.8m-13.5 0v10.1m1.5-.8h10.5m-12.7 1.2h14.8m44.1-74.4v63.9m0-32h-111v-3.4h111m-111 35.4v-32"/><path class="st1" d="M66.3 37.4V8.9h111M232 198.3h187.2m-180.4-58.6c.8 0 1.5-.5 1.8-1.2s.3-1.6-.2-2.2m0 0-8.1-10.6m7.7 5c.6.6 1.5.8 2.3.5s1.3-1.1 1.3-1.9m-9.7-5 6.1 6.5m25.5 26.9c1.2 1.3 3 1.7 4.6 1.1 1.6-.6 2.7-2.1 2.7-3.9m-9.8.2 2.4 2.6m-3.7-5.4c0 1 .4 2 1.2 2.8m-16.8-19.6c0 1.1.4 2.1 1.2 2.8m0 0 3.4 3.7m0 0c1.2 1.2 3 1.7 4.6 1.1 1.6-.6 2.7-2.1 2.8-3.8m-11.9 4.5c-.8-1-2-1.6-3.3-1.7m7.8 7.6-4.5-5.8m1.3 12.7c1.6 0 3-1 3.7-2.4s.5-3.2-.5-4.4m8.7 11.3c-.8-1-2-1.6-3.3-1.7m7.3 6.9-4-5.1m.6 11.8c1.6 0 3-1 3.7-2.4.7-1.4.5-3.1-.5-4.4m30.5 21.6v-32h-1.2v-3.4h1.2m0-28.5h-2.3m.1 0c-1.1 0-2 .9-2.1 2m0 0-2.1 41.9m6.4-15.4v-28.5m-17.1 43.8c.1 2.9 2.4 5.2 5.3 5.2s5.3-2.2 5.4-5.1m-10.6-.2-1.1-42.6m-7 64.5c3.4-.2 6.1-3.1 6-6.6-.1-3.4-2.9-6.2-6.3-6.3m-8.2-3.6-27 .9m.1.1c-.5 0-1 .5-1 1s.4 1 1 1m-.1 0 35.1.7M233.1 142l9.7.1m-4-2.4-5.7.1m.1.2c-.6 0-1 .5-1 1 0 .6.4 1 1 1m-.1 17 23 .4m-22.9-2.4c-.6 0-1 .5-1 1 0 .6.4 1 1 1m14.2-2.4-14.3.2m42.5-31.8c0-.5-.5-1-1-1s-1 .4-1 1m-.1 0-.8 29.8m-11-2.5-.9-27.3m-.1 0c0-.5-.5-1-1-1s-1 .4-1 1m-.1 0-.6 14.3m-11.9-3.8-.2-10.5m-.1 0c0-.6-.5-1-1-1-.6 0-1 .4-1 1m0 0-.1 4.3m-11.7 69V194m2.1-2.2c-1.1.1-1.9 1-1.9 2.1m1.9-2.1 34.5-2.3m-34.7-65.1c-.4-.4-1-.4-1.4-.1s-.5 1-.1 1.4m178.4 10.6c-.5.6-.6 1.5-.2 2.2.3.7 1.1 1.2 1.8 1.2m0 0 5.7.1m-10.6-10.5c0 .8.5 1.6 1.3 1.9.8.3 1.7.1 2.3-.5m-3.7-5.7.1 4.3m-29 25.6c0 1.7 1.1 3.2 2.7 3.9 1.6.6 3.4.2 4.6-1.1m-8.1-32.7.8 29.8m9.8.3c.7-.7 1.1-1.7 1.2-2.8m0 0 .9-27.3m13.6 13.4c.7-.8 1.1-1.8 1.2-2.8m-.1-.1.3-10.5m-12.2 14.3c.1 1.7 1.2 3.2 2.8 3.8 1.6.6 3.4.2 4.6-1.1m-8-17 .6 14.3m15.1 2.8c-1.3 0-2.5.6-3.3 1.7m13.1-1.8-9.7.1m-7.8 7.6c-1 1.3-1.1 3-.5 4.4.7 1.4 2.1 2.4 3.7 2.4m.1.1 14.2.2m-23 2.6c-1.3 0-2.5.6-3.3 1.7m26.3-2.1-23 .4m-7.2 6.8c-1 1.3-1.1 3-.5 4.4.7 1.4 2.1 2.4 3.7 2.4m.1 0 26.9.9m-60.6-21.5h1.3v3.4h-1.3m61.7 42.5V194m0-.1c0-1.1-.9-2-1.9-2.1m-.2 0-34.4-2.3m.3-12.8c-3.4.1-6.2 2.8-6.3 6.3-.1 3.4 2.5 6.3 6 6.6m35.4-13.6-35.1.7m35.2-.7c.5 0 1-.5 1-1s-.4-1-1-1m-30.2-7.7 3.9-5.1m26.3-2.2c.6 0 1-.5 1-1 0-.6-.4-1-1-1m-17.7-7.3 4.5-5.8m13.2-1.9c.6 0 1-.5 1-1 0-.6-.4-1-1-1m-7.4-3.7 8.1-10.6m0 0c.3-.4.3-1-.1-1.4-.4-.3-1-.3-1.4.1m-.1-.1-6.1 6.5m-3.8-5.8c0-.6-.5-1-1-1s-1 .4-1 1m-1.4 13.3-3.5 3.7m-7.9-17c0-.5-.5-1-1-1s-1 .4-1 1m-2.4 30.1-2.4 2.6m-8.1-32.7c0-.5-.5-1-1-1s-1 .4-1 1m-1.1 42.6.9-42.6m-11.6 42.8c.1 2.9 2.5 5.1 5.4 5.1s5.2-2.3 5.3-5.2m-12.7-41.8 2 41.9m-2.1-41.9c-.1-1.1-1-2-2.1-2"/><path class="st1" d="M357.5 152.4v-28.5h2.3m-66.1 63.9h63.8v-32M105.2 83.3H75.1m3.2-6.5h-3.2"/></g><g id="alt_Dimensions"><path class="st2" d="M80.1 323.5h-5.3"/><path class="st3" d="m80.1 322.4-5.3 1.1 5.3-1.1z"/><path class="st2" d="M80.1 322.4h0l-5.3 1.1 5.3-1.1z"/><path class="st3" d="m80.1 322.4-5.3 1.1 5.3 1v-2.1z"/><path class="st2" d="m80.1 322.4-5.3 1.1 5.3 1v-2.1z"/><path class="st2" d="m80.1 322.4-5.3 1.1 5.3 1v-2.1m56.4 1.1h5.3"/><path class="st3" d="m136.5 324.5 5.3-1-5.3 1z"/><path class="st2" d="M136.5 324.5h0l5.3-1-5.3 1z"/><path class="st3" d="m136.5 324.5 5.3-1-5.3-1.1v2.1z"/><path class="st2" d="m136.5 324.5 5.3-1-5.3-1.1v2.1z"/><path class="st2" d="m136.5 324.5 5.3-1-5.3-1.1v2.1m-56.4-1h56.4m5.3-111.4v115.7m-61.7 11h-5.3"/><path class="st3" d="m80.1 337.8-5.3 1 5.3-1z"/><path class="st2" d="M80.1 337.8h0l-5.3 1 5.3-1z"/><path class="st3" d="m80.1 337.8-5.3 1 5.3 1v-2z"/><path class="st2" d="m80.1 337.8-5.3 1 5.3 1v-2z"/><path class="st2" d="m80.1 337.8-5.3 1 5.3 1v-2m83.3 1h5.2"/><path class="st3" d="m163.4 339.8 5.2-1-5.2 1z"/><path class="st2" d="M163.4 339.8h0l5.2-1-5.2 1z"/><path class="st3" d="m163.4 339.8 5.2-1-5.2-1v2z"/><path class="st2" d="m163.4 339.8 5.2-1-5.2-1v2z"/><path class="st2" d="m163.4 339.8 5.2-1-5.2-1v2m-83.3-1h83.3m5.2-123.8v128M66.3 180.2v176.3m8.5-14.1 4.3 7.8v6.3m46.7-144.4v144.4m51.5-112.6v112.6M74.8 234.4v108M58.7 195.1v-5.3"/><path class="st3" d="m59.8 195.1-1.1-5.3 1.1 5.3z"/><path class="st2" d="M59.8 195.1h0l-1.1-5.3 1.1 5.3z"/><path class="st3" d="m59.8 195.1-1.1-5.3-1.1 5.3h2.2z"/><path class="st2" d="m59.8 195.1-1.1-5.3-1.1 5.3h2.2z"/><path class="st2" d="m59.8 195.1-1.1-5.3-1.1 5.3h2.2m-1.1 34v5.3"/><path class="st3" d="m57.6 229.1 1.1 5.3-1.1-5.3z"/><path class="st2" d="M57.6 229.1h0l1.1 5.3-1.1-5.3z"/><path class="st3" d="m57.6 229.1 1.1 5.3 1.1-5.3h-2.2z"/><path class="st2" d="m57.6 229.1 1.1 5.3 1.1-5.3h-2.2z"/><path class="st2" d="m57.6 229.1 1.1 5.3 1.1-5.3h-2.2m1.1-34v34m16.1-39.3H37.9m36.9 44.6h-52m16.5-22.3h-2.7m89.3 0H57.1m-10.7 0h-7.1m74.5-112.5h5.3"/><path class="st3" d="m113.8 100.7 5.3-1.1-5.3 1.1z"/><path class="st2" d="M113.8 100.7h0l5.3-1.1-5.3 1.1z"/><path class="st3" d="m113.8 100.7 5.3-1.1-5.3-.9v2z"/><path class="st2" d="m113.8 100.7 5.3-1.1-5.3-.9v2z"/><path class="st2" d="m113.8 100.7 5.3-1.1-5.3-.9v2m24-1.1h-5.2"/><path class="st3" d="m137.8 98.7-5.2.9 5.2-.9z"/><path class="st2" d="M137.8 98.7h0l-5.2.9 5.2-.9z"/><path class="st3" d="m137.8 98.7-5.2.9 5.2 1.1v-2z"/><path class="st2" d="m137.8 98.7-5.2.9 5.2 1.1v-2z"/><path class="st2" d="m137.8 98.7-5.2.9 5.2 1.1v-2m-18.7.9h13.5m-18.8 0h-5.4m29.4 0h5.4m-10.6-16.7v21m-13.5-21v21m75.3-4.3h-51.2m-56.7.3h-5.4"/><path class="st3" d="m86.5 98.8-5.4 1.1 5.4-1.1z"/><path class="st2" d="M86.5 98.8h0l-5.4 1.1 5.4-1.1z"/><path class="st3" d="m86.5 98.8-5.4 1.1 5.4 1.1v-2.2z"/><path class="st2" d="m86.5 98.8-5.4 1.1 5.4 1.1v-2.2z"/><path class="st2" d="m86.5 98.8-5.4 1.1 5.4 1.1v-2.2m-23.3 1.1h5.2"/><path class="st3" d="m63.2 101 5.2-1.1-5.2 1.1z"/><path class="st2" d="M63.2 101h0l5.2-1.1-5.2 1.1z"/><path class="st3" d="m63.2 101 5.2-1.1-5.2-1.1v2.2z"/><path class="st2" d="m63.2 101 5.2-1.1-5.2-1.1v2.2z"/><path class="st2" d="m63.2 101 5.2-1.1-5.2-1.1v2.2m17.9-1.1H68.4m18.1 0h5.3m-28.6 0h-5.4m23.3-16.6v20.9M68.4 83.3v20.9m31.9-4.3h-8.5m-8.2-37.7h-5.3"/><path class="st3" d="m83.6 61.3-5.3.9 5.3-.9z"/><path class="st2" d="M83.6 61.3h0l-5.3.9 5.3-.9z"/><path class="st3" d="m83.6 61.3-5.3.9 5.3 1.1v-2z"/><path class="st2" d="m83.6 61.3-5.3.9 5.3 1.1v-2z"/><path class="st2" d="m83.6 61.3-5.3.9 5.3 1.1v-2m-17.6.9h5.3"/><path class="st3" d="m66 63.3 5.3-1.1-5.3 1.1z"/><path class="st2" d="M66 63.3h0l5.3-1.1-5.3 1.1z"/><path class="st3" d="m66 63.3 5.3-1.1-5.3-.9v2z"/><path class="st2" d="m66 63.3 5.3-1.1-5.3-.9v2z"/><path class="st2" d="m66 63.3 5.3-1.1-5.3-.9v2m12.3-1.1h-7m12.3 0H89M71.3 72.8V58m7 14.8V58m-37.5 4.2h19.8M39.3 83.3H24.2m15.1-6.5-8.5-7h-6.6m42.1 3h-27l-8.5-16.5h-6.6M66.3 8.9H24.2m42.1 296.7H36.6M66 62.2h-5.4m14.1 21.1H39.3m35.4-6.5H39.3m27 41.7H36.6M16.7 239.8v-5.4"/><path class="st3" d="m17.8 239.8-1.1-5.4 1.1 5.4z"/><path class="st2" d="M17.8 239.8h0l-1.1-5.4 1.1 5.4z"/><path class="st3" d="m17.8 239.8-1.1-5.4-1 5.4h2.1z"/><path class="st2" d="m17.8 239.8-1.1-5.4-1 5.4h2.1z"/><path class="st2" d="m17.8 239.8-1.1-5.4-1 5.4h2.1m-1.1 6.8v-6.8m184.5-22.5v-5.2"/><path class="st3" d="m202.2 217.3-1-5.2 1 5.2z"/><path class="st2" d="M202.2 217.3h0l-1-5.2 1 5.2z"/><path class="st3" d="m202.2 217.3-1-5.2-1.1 5.2h2.1z"/><path class="st2" d="m202.2 217.3-1-5.2-1.1 5.2h2.1z"/><path class="st2" d="m202.2 217.3-1-5.2-1.1 5.2h2.1m-1 7.5v-7.5"/></g><g id="Middle_Lines"><path class="st4" d="M325.6 202.5v-4.3"/><path d="M325.6 195.5v-1.8" style="fill:none;stroke:#000;stroke-width:.2835;stroke-linecap:round;stroke-linejoin:round;stroke-dasharray:.5406,2.7032"/><path d="M325.6 192.3v-68.9" style="fill:none;stroke:#000;stroke-width:.2835;stroke-linecap:round;stroke-linejoin:round;stroke-dasharray:8.1096,2.7032,.5406,2.7032"/><path class="st4" d="M325.6 122v-4.2M141.8 71v4.3"/><path class="st7" d="M141.8 78.9v2.5"/><path class="st4" d="M141.8 83.2v4.3M168.6 71v4.3"/><path class="st7" d="M168.6 78.9v2.5"/><path class="st4" d="M168.6 83.2v4.3M74.8 71v4.3"/><path class="st7" d="M74.8 78.9v2.5"/><path class="st4" d="M74.8 83.2v4.3m51 0v-4.3"/><path class="st7" d="M125.8 79.6v-2.5"/><path class="st4" d="M125.8 75.3V71"/><path d="M74.8 189.7h5.6" style="fill:none;stroke:#000;stroke-width:.2835;stroke-linecap:round;stroke-linejoin:round;stroke-dasharray:5.6468"/><path class="st4" d="M74.9 234.4h4.2"/><path d="M83.5 234.4h3.1" style="fill:none;stroke:#000;stroke-width:.2835;stroke-linecap:round;stroke-linejoin:round;stroke-dasharray:.8776,4.388"/><path class="st4" d="M88.8 234.4H93m-18.1 0v-4.2"/><path d="M74.9 226.9v-2.2" style="fill:none;stroke:#000;stroke-width:.2835;stroke-linecap:round;stroke-linejoin:round;stroke-dasharray:.6482,3.241"/><path d="M74.9 223v-32" style="fill:none;stroke:#000;stroke-width:.2835;stroke-linecap:round;stroke-linejoin:round;stroke-dasharray:9.7229,3.241,.6482,3.241"/><path class="st4" d="M74.9 189.3v-4.2m51 27v-4.2"/><path d="M125.9 207.7v-.1" style="fill:none;stroke:#000;stroke-width:.2835;stroke-linecap:round;stroke-linejoin:round;stroke-dasharray:3.358829e-02,.1679"/><path class="st4" d="M125.9 207.5v-4.2m0 8.8h4.3"/><path d="M132.8 212.1h1.8" style="fill:none;stroke:#000;stroke-width:.2835;stroke-linecap:round;stroke-linejoin:round;stroke-dasharray:.5202,2.6009"/><path d="M135.9 212.1h52.8" style="fill:none;stroke:#000;stroke-width:.2835;stroke-linecap:round;stroke-linejoin:round;stroke-dasharray:7.8028,2.6009,.5202,2.6009"/><path class="st4" d="M190 212.1h4.3"/><path d="M141.8 212.1v-5.5m26.9 5.5v-5.5" style="fill:none;stroke:#000;stroke-width:.2835;stroke-linecap:round;stroke-linejoin:round;stroke-dasharray:5.5793"/><path d="M10.7 234.4h12.1m70.2 0h12.2m0 0v-22.3m0 0h13.7m75.4 0H208" style="fill:none;stroke:#000;stroke-width:2.34;stroke-linecap:round;stroke-linejoin:round;stroke-miterlimit:10"/></g><g id="Text"><text transform="translate(10.582 12.672)" class="st17 st18">35</text><text transform="translate(5.32 72.522)" class="st17 st18">3.1</text><text transform="translate(5.32 60.048)" class="st17 st18">5</text><text transform="translate(38.497 57.78)" class="st17 st18">Ø 3.1</text><text transform="translate(85.17 96.737)" class="st17 st18">Ø 6</text><text transform="translate(141.201 96.737)" class="st17 st18">1/4-20 UNC</text><text transform="translate(291.65 366.785)" class="st17 st18">Not to scale</text><text transform="translate(291.65 378.785)" class="st17 st18">Dimensions in mm</text><text transform="translate(20.599 86.695)" class="st17 st18">0</text><text transform="translate(30.237 122.127)" class="st17 st18">0</text><text transform="translate(16.336 192.994)" class="st17 st18">33.5</text><text transform="translate(97.16 318.66)" class="st17 st18">31.5</text><text transform="translate(97.16 333.683)" class="st17 st18">44.1</text><text transform="translate(24.675 215.67)" class="st17 st18">44</text><text transform="translate(24.675 309.214)" class="st17 st18">88</text><text transform="rotate(-90 136.774 81.333)" class="st17 st18">21</text><text transform="rotate(-90 216.53 146.34)" class="st17 st18">0</text><text transform="rotate(-90 223.413 140.943)" class="st17 st18">4</text><text transform="rotate(-90 249.359 119.073)" class="st17 st18">28</text><text transform="rotate(-90 278.836 99.42)" class="st17 st18">52.2</text><text transform="translate(13.446 262.384)" class="st17 st18">A</text><text transform="translate(198.886 241.363)" class="st17 st18">A</text></g></svg>