<?xml version="1.0" encoding="utf-8"?>
<!-- Generator: Adobe Illustrator 25.2.3, SVG Export Plug-In . SVG Version: 6.00 Build 0)  -->
<svg version="1.1" xmlns="http://www.w3.org/2000/svg" xmlns:xlink="http://www.w3.org/1999/xlink" x="0px" y="0px"
	 viewBox="0 0 453.5 425.2" style="enable-background:new 0 0 453.5 425.2;" xml:space="preserve">
<style type="text/css">
	.st0{fill:#F6F6F6;}
	.st1{fill:none;stroke:#000000;stroke-width:0.4252;stroke-linecap:round;stroke-linejoin:round;stroke-miterlimit:10;}
	.st2{fill:none;stroke:#000000;stroke-width:0.4252;stroke-linecap:round;stroke-linejoin:round;}
	.st3{fill:none;stroke:#000000;stroke-width:0.4252;stroke-linecap:round;stroke-linejoin:round;stroke-dasharray:1.3821,4.1462;}
	
		.st4{fill:none;stroke:#000000;stroke-width:0.4252;stroke-linecap:round;stroke-linejoin:round;stroke-dasharray:8.2923,4.1462,1.3821,4.1462;}
	.st5{fill:none;stroke:#000000;stroke-width:0.4252;stroke-linecap:round;stroke-linejoin:round;stroke-dasharray:1.4687,4.4062;}
	
		.st6{fill:none;stroke:#000000;stroke-width:0.4252;stroke-linecap:round;stroke-linejoin:round;stroke-dasharray:8.8124,4.4062,1.4687,4.4062;}
	.st7{fill:#F6F5F6;}
	.st8{fill:none;stroke:#000000;stroke-width:0.4252;stroke-linecap:round;}
	.st9{fill:none;stroke:#000000;stroke-width:0.4252;stroke-linecap:round;stroke-linejoin:round;stroke-dasharray:1.4949,4.4846;}
	
		.st10{fill:none;stroke:#000000;stroke-width:0.4252;stroke-linecap:round;stroke-linejoin:round;stroke-dasharray:8.9693,4.4846,1.4949,4.4846;}
</style>
<g id="Heat_sink">
	<g id="Ebene_4">
		<path class="st0" d="M46.8,285.1V154l5-2.3l2.4-0.8c0,0,1.2,0.4,1.5,0.6c0.3,0.2,14.5,7.3,14.5,7.3v-17.6c0,0,1.1-1.6,1.9-1.2
			c0.8,0.4,15.6,8.3,15.6,8.3V131l0.4-0.8h2.3l14.4,8v-17.1v-0.3l1.6-0.8l1.1,0.4l5.9,3.1c0,0,2.5,1,4.7,0c0.6-0.3,0.8-1.2,0.8-1.2
			l2.3-10.9l0.8-0.8h0.8l1.2,0.4l0.4,0.4v8.6l3.1,0.8l6.2-3.1l1.2-0.4l1.2,0.4l0.4,0.8v14.6l12.5-6.4l1.2-0.4l1.6,0.8v15.1l12.5-6.9
			l1.2-0.4l0.8,0.4l0.8,0.8v15.9l12.4-6.4l1.3-0.8l3.1,0.8l2.3,1.2v75.3l32.4-18.7l1.2,0.8l2.3-1.6v-1.2l29.3-17.2l3.1,2.7v16.4
			l14.1-7.8h2.3l0.4,0.8V211l12.2-6.5l1.4-0.5l1.2,0.4l0.4,0.4v15.2l12.5-7h2.3l0.4,0.8v6.2l9.7-0.4l1.7,0.4l0.4,0.8v0.4v130.4
			l-0.4,0.8c0,0-0.7,0.4-1.5,0.4c-0.8,0.1-14.1,1.1-14.1,1.1v7l-0.4,0.8l-1.2,0.4l-11.3-5.9c0,0-3.9-1.1-4.7-1.2c0,0.3,0,16,0,16
			l-0.4,0.8h-2.3l-14.4-8.2v17.6l-1.6,0.8l-1.6-0.6l-15.9-8.7v19.1l-0.8,1.2l-4.7,2.7L46.8,285.1z"/>
	</g>
	<g>
		<polyline class="st1" points="238,264.4 238,395.6 46.8,285.1 46.8,154 		"/>
		<line class="st1" x1="297.4" y1="353.8" x2="312.2" y2="352.6"/>
		<polyline class="st1" points="279.8,355 282.1,355.4 284.5,356.2 		"/>
		<line class="st1" x1="222" y1="202.4" x2="222" y2="201.2"/>
		<polyline class="st1" points="262.6,381.1 261.8,381.5 261.1,381.9 259.9,381.5 		"/>
		<line class="st1" x1="259.9" y1="381.5" x2="243.5" y2="372.5"/>
		<line class="st1" x1="294.6" y1="361.6" x2="284.5" y2="356.2"/>
		<polyline class="st1" points="297.4,360.8 297,361.6 295.8,362 294.6,361.6 		"/>
		<line class="st1" x1="277.1" y1="371.8" x2="262.6" y2="363.6"/>
		<polyline class="st1" points="279.8,371 279.4,371.8 278.2,371.8 277.1,371.8 		"/>
		<line class="st1" x1="238" y1="395.6" x2="242.7" y2="392.8"/>
		<polyline class="st1" points="242.7,392.8 243.1,392.5 243.5,391.7 		"/>
		<polyline class="st1" points="312.2,352.6 313,352.3 313.4,351.5 		"/>
		<line class="st1" x1="153.3" y1="203.2" x2="153.3" y2="165.3"/>
		<line class="st1" x1="156.9" y1="205.1" x2="156.9" y2="163.4"/>
		<line class="st1" x1="186.1" y1="221.9" x2="186.1" y2="146.6"/>
		<line class="st1" x1="254.4" y1="203.2" x2="254.4" y2="186.8"/>
		<line class="st1" x1="262.6" y1="381.1" x2="262.6" y2="250"/>
		<line class="st1" x1="297.4" y1="360.8" x2="297.4" y2="230.1"/>
		<line class="st1" x1="279.8" y1="371" x2="279.8" y2="240.2"/>
		<line class="st1" x1="271.2" y1="211" x2="271.2" y2="196.1"/>
		<line class="st1" x1="286.4" y1="219.9" x2="286.4" y2="205.1"/>
		<line class="st1" x1="301.6" y1="219.9" x2="301.6" y2="213.7"/>
		<line class="st1" x1="243.5" y1="260.5" x2="243.5" y2="391.7"/>
		<line class="st1" x1="313.4" y1="220.7" x2="313.4" y2="351.5"/>
		<line class="st1" x1="70.2" y1="141.1" x2="70.2" y2="159.1"/>
		<line class="st1" x1="104.9" y1="120.8" x2="104.9" y2="138.4"/>
		<line class="st1" x1="87.8" y1="131" x2="87.8" y2="148.5"/>
		<line class="st1" x1="167" y1="136" x2="167" y2="151.7"/>
		<line class="st1" x1="151.8" y1="127.1" x2="151.8" y2="142.3"/>
		<line class="st1" x1="136.6" y1="118.5" x2="136.6" y2="133.3"/>
		<line class="st1" x1="124.5" y1="119.6" x2="124.5" y2="111.5"/>
		<polyline class="st1" points="51.5,151.7 46.8,154 238,264.4 242.7,262.1 		"/>
		<polyline class="st1" points="242.7,262.1 243.5,261.3 243.5,260.1 242.7,259.4 		"/>
		<line class="st1" x1="242.7" y1="259.4" x2="209.9" y2="237.9"/>
		<polyline class="st1" points="209.9,237.9 208.4,236.3 207.6,234.4 208,232.8 209.5,230.9 211.9,229.7 214.6,228.9 217.7,228.9 
			220.5,229.3 223.2,230.5 		"/>
		<line class="st1" x1="223.2" y1="230.5" x2="259.9" y2="250.8"/>
		<polyline class="st1" points="259.9,250.8 261.1,251.2 261.8,250.8 262.6,250 262.2,249.6 		"/>
		<line class="st1" x1="262.2" y1="249.6" x2="235.3" y2="233.2"/>
		<polyline class="st1" points="235.3,233.2 234.1,231.7 233.7,230.1 234.5,228.9 236.5,227.8 238.8,227 		"/>
		<line class="st1" x1="238.8" y1="227" x2="248.2" y2="226.6"/>
		<polyline class="st1" points="248.2,226.6 250.1,226.6 251.7,227 253.2,227.4 		"/>
		<line class="st1" x1="253.2" y1="227.4" x2="277.1" y2="240.6"/>
		<polyline class="st1" points="277.1,240.6 278.2,241 279.4,240.6 279.8,240.2 279.4,239.5 		"/>
		<line class="st1" x1="279.4" y1="239.5" x2="265" y2="230.9"/>
		<polyline class="st1" points="265,230.9 263.8,229.3 263.4,228.1 264.2,226.6 266.1,225.4 268.9,225 		"/>
		<line class="st1" x1="268.9" y1="225" x2="279.4" y2="223.9"/>
		<polyline class="st1" points="279.4,223.9 281.3,224.2 282.9,224.2 284.5,225 		"/>
		<line class="st1" x1="284.5" y1="225" x2="294.6" y2="230.5"/>
		<polyline class="st1" points="294.6,230.5 295.8,230.9 297,230.5 297.4,230.1 297,229.3 		"/>
		<line class="st1" x1="297" y1="229.3" x2="291.1" y2="225.8"/>
		<polyline class="st1" points="291.1,225.8 290.3,225 290.3,224.2 291.5,223.5 293.1,223.1 		"/>
		<line class="st1" x1="293.1" y1="223.1" x2="312.2" y2="221.5"/>
		<polyline class="st1" points="312.2,221.5 313.4,221.1 313.4,220.7 313,219.9 311.8,219.6 		"/>
		<line class="st1" x1="311.8" y1="219.6" x2="299.3" y2="219.9"/>
		<polyline class="st1" points="299.3,219.9 297.4,219.6 296.2,218.8 296.2,218 297,216.8 		"/>
		<line class="st1" x1="297" y1="216.8" x2="301.3" y2="214.5"/>
		<polyline class="st1" points="301.3,214.5 301.6,213.7 301.3,212.9 300.1,212.9 298.9,212.9 		"/>
		<line class="st1" x1="298.9" y1="212.9" x2="288" y2="219.2"/>
		<polyline class="st1" points="288,219.2 286,219.9 283.7,220.3 		"/>
		<line class="st1" x1="283.7" y1="220.3" x2="276.7" y2="220.3"/>
		<polyline class="st1" points="276.7,220.3 274.3,219.9 272.4,219.6 270.8,218.4 270.4,216.8 270.8,215.7 272,214.5 		"/>
		<line class="st1" x1="272" y1="214.5" x2="286" y2="205.5"/>
		<polyline class="st1" points="286,205.5 286.4,204.7 286,204.3 284.9,203.9 283.7,204.3 		"/>
		<line class="st1" x1="283.7" y1="204.3" x2="254.8" y2="219.9"/>
		<polyline class="st1" points="254.8,219.9 252.9,220.3 250.9,220.7 		"/>
		<line class="st1" x1="250.9" y1="220.7" x2="245.4" y2="220.7"/>
		<polyline class="st1" points="245.4,220.7 243.1,220.7 241.2,219.9 240,218.8 239.2,217.2 239.6,216 241.2,214.9 		"/>
		<line class="st1" x1="241.2" y1="214.9" x2="270.8" y2="196.9"/>
		<polyline class="st1" points="270.8,196.9 271.2,196.1 270.8,195.4 269.6,195.4 268.5,195.4 		"/>
		<line class="st1" x1="268.5" y1="195.4" x2="224" y2="219.9"/>
		<polyline class="st1" points="224,219.9 221.2,221.1 218.5,221.1 215.8,221.1 213.1,219.9 211.5,218.8 211.1,216.8 211.5,215.3 
			213.1,214.1 		"/>
		<line class="st1" x1="213.1" y1="214.1" x2="253.6" y2="187.9"/>
		<polyline class="st1" points="253.6,187.9 254.4,187.2 254,186.4 253.2,185.6 		"/>
		<polyline class="st1" points="253.2,185.6 251.3,184 222,201.2 223.2,201.6 219.7,203.9 218.5,203.2 186.1,221.9 120.9,184 
			153.3,165.3 152.2,164.5 155.7,162.6 156.9,163.4 186.1,146.6 183.8,145.4 		"/>
		<polyline class="st1" points="183.8,145.4 182.2,145 180.7,144.6 179.5,145.4 		"/>
		<line class="st1" x1="179.5" y1="145.4" x2="134.6" y2="168.8"/>
		<polyline class="st1" points="134.6,168.8 131.9,169.6 129.1,170 126.4,169.6 124.1,168.4 122.1,166.9 121.7,165.3 122.1,163.8 
			123.7,162.2 		"/>
		<line class="st1" x1="123.7" y1="162.2" x2="166.6" y2="136.4"/>
		<polyline class="st1" points="166.6,136.4 167,136 166.2,135.3 165.4,134.9 164.3,135.3 		"/>
		<line class="st1" x1="164.3" y1="135.3" x2="133" y2="152.4"/>
		<polyline class="st1" points="133,152.4 130.7,153.2 128.4,153.6 126,153.2 124.1,152.4 122.9,151.3 122.5,149.7 		"/>
		<line class="st1" x1="122.5" y1="149.7" x2="122.5" y2="147"/>
		<polyline class="st1" points="122.5,147 123.3,145.4 124.5,144.6 		"/>
		<line class="st1" x1="124.5" y1="144.6" x2="151.4" y2="127.8"/>
		<polyline class="st1" points="151.4,127.8 151.8,127.1 151,126.7 150.2,126.3 149,126.7 		"/>
		<line class="st1" x1="149" y1="126.7" x2="133.8" y2="134.5"/>
		<polyline class="st1" points="133.8,134.5 131.9,135.3 129.1,135.7 127.2,135.3 125.2,134.5 123.7,133.3 123.3,131.7 		"/>
		<line class="st1" x1="123.3" y1="131.7" x2="123.7" y2="127.8"/>
		<polyline class="st1" points="123.7,127.8 124.1,126.3 125.2,125.5 		"/>
		<line class="st1" x1="125.2" y1="125.5" x2="136.2" y2="118.9"/>
		<polyline class="st1" points="136.2,118.9 136.6,118.5 136.2,117.7 135,117.3 133.8,117.7 		"/>
		<line class="st1" x1="133.8" y1="117.7" x2="129.1" y2="120"/>
		<polyline class="st1" points="129.1,120 127.6,120.8 126,120.4 124.5,120 124.1,118.9 		"/>
		<line class="st1" x1="124.1" y1="118.9" x2="124.5" y2="111.5"/>
		<polyline class="st1" points="124.5,111.5 124.1,111.1 122.9,110.7 122.1,110.7 121.3,111.5 		"/>
		<line class="st1" x1="121.3" y1="111.5" x2="119" y2="122.4"/>
		<polyline class="st1" points="119,122.4 118.2,123.6 116.7,123.9 115.1,123.9 113.5,123.6 		"/>
		<line class="st1" x1="113.5" y1="123.6" x2="107.7" y2="120.4"/>
		<polyline class="st1" points="107.7,120.4 106.5,120 105.7,120.4 104.9,120.8 105.3,121.6 		"/>
		<line class="st1" x1="105.3" y1="121.6" x2="115.5" y2="127.5"/>
		<polyline class="st1" points="115.5,127.5 116.3,128.2 117,129.4 117,130.2 		"/>
		<line class="st1" x1="117" y1="130.2" x2="115.5" y2="136.4"/>
		<polyline class="st1" points="115.5,136.4 114.7,138 112.8,139.2 110,139.6 107.7,139.2 105.3,138.4 		"/>
		<line class="st1" x1="105.3" y1="138.4" x2="90.5" y2="130.2"/>
		<polyline class="st1" points="90.5,130.2 89.3,130.2 88.2,130.2 87.8,131 88.2,131.4 		"/>
		<line class="st1" x1="88.2" y1="131.4" x2="111.2" y2="145.4"/>
		<polyline class="st1" points="111.2,145.4 112.4,146.2 112.8,147.4 112.8,148.1 		"/>
		<line class="st1" x1="112.8" y1="148.1" x2="111.6" y2="153.6"/>
		<polyline class="st1" points="111.6,153.6 110.8,155.2 108.8,156.3 106.1,156.7 103.8,156.3 101.4,155.6 		"/>
		<line class="st1" x1="101.4" y1="155.6" x2="72.9" y2="140.3"/>
		<polyline class="st1" points="72.9,140.3 71.8,139.9 70.6,140.3 70.2,141.1 70.6,141.5 		"/>
		<line class="st1" x1="70.6" y1="141.5" x2="106.1" y2="162.6"/>
		<polyline class="st1" points="106.1,162.6 107.7,164.1 108.5,166.1 108.1,167.7 106.9,169.2 104.9,170.8 102.2,171.6 99.1,171.6 
			96,171.2 93.2,170.4 		"/>
		<line class="st1" x1="93.2" y1="170.4" x2="55.4" y2="151.3"/>
		<polyline class="st1" points="55.4,151.3 54.2,150.9 52.6,151.3 51.5,151.7 		"/>
		<g>
			<g>
				<polyline class="st1" points="149,280.9 148.7,283.3 147.5,284.4 145.9,284.8 143.6,284 141.6,282.5 140.1,280.1 138.9,277.4 
					138.5,274.7 138.9,272.7 140.1,271.6 141.6,271.2 143.6,271.6 145.9,273.5 147.5,275.8 148.7,278.6 149,280.9 				"/>
				<polyline class="st1" points="150.2,283.3 149.8,280.1 148.7,276.6 146.7,273.9 144.4,271.2 142,269.6 139.3,268.8 137.3,269.2 
					135.8,270.8 135,273.1 135,275.8 135.8,279 137.3,282.1 139.3,284.8 142,287.2 144.4,288.3 146.7,288.3 148.7,287.6 
					149.8,285.6 150.2,283.3 				"/>
			</g>
			<g>
				<polyline class="st1" points="135.8,325 136.6,322.6 137.3,321.1 139.3,320.3 141.2,320.7 143.6,322.2 145.9,324.2 147.5,326.9 
					148.7,329.7 149,332.8 148.7,335.1 147.5,336.7 145.9,337.1 143.6,337.1 141.2,335.5 139.3,333.6 137.3,330.8 136.6,327.7 
					135.8,325 				"/>
				<polyline class="st1" points="142.8,321.5 143.2,323.8 144,326.5 145.5,328.9 147.1,330.8 149,332.4 				"/>
				<polyline class="st1" points="145.9,324.2 146.7,326.5 148.3,328.1 				"/>
			</g>
			<g>
				<polyline class="st1" points="158.8,227.7 159.2,225.3 160.4,223.8 161.9,223 164.3,223.4 166.6,224.5 168.6,226.9 170.1,229.2 
					171.3,232.3 171.7,235.1 171.3,237.4 170.1,239 168.6,239.8 166.6,239.4 164.3,238.2 161.9,235.9 160.4,233.1 159.2,230.4 
					158.8,227.7 				"/>
				<polyline class="st1" points="165.4,223.8 165.8,226.5 166.6,228.8 168.2,231.2 169.7,233.1 171.7,234.7 				"/>
				<polyline class="st1" points="168.6,226.9 169.3,228.8 170.9,230.8 				"/>
			</g>
			<g>
				<polyline class="st1" points="113.1,201.1 113.5,198.8 114.7,197.2 116.3,196.4 118.6,196.8 120.9,198.4 122.9,200.3 
					124.8,203.1 125.6,205.8 126,208.9 125.6,211.3 124.8,212.8 122.9,213.2 120.9,213.2 118.6,211.7 116.3,209.7 114.7,207 
					113.5,203.9 113.1,201.1 				"/>
				<polyline class="st1" points="119.8,197.6 120.2,199.9 121.3,202.7 122.5,205 124.5,207 126,208.5 				"/>
				<polyline class="st1" points="122.9,200.3 124.1,202.7 125.2,204.2 				"/>
			</g>
			<g>
				<polyline class="st1" points="135.8,293.1 136.6,290.8 137.3,289.2 139.3,288.8 141.2,288.8 143.6,290.4 145.9,292.3 
					147.5,295.1 148.7,298.2 149,300.9 148.7,303.2 147.5,304.8 145.9,305.6 143.6,305.2 141.2,303.6 139.3,301.7 137.3,299 
					136.6,296.2 135.8,293.1 				"/>
				<polyline class="st1" points="142.8,289.6 143.2,291.9 144,294.7 145.5,297 147.1,299 149,300.5 				"/>
				<polyline class="st1" points="145.9,292.7 146.7,294.7 148.3,296.6 				"/>
			</g>
		</g>
	</g>
</g>
<g id="Screws">
	<g>
		<g>
			<line class="st2" x1="325" y1="84.8" x2="321.4" y2="86.9"/>
			<line class="st3" x1="317.8" y1="89" x2="314.8" y2="90.8"/>
			<line class="st4" x1="313" y1="91.8" x2="144.1" y2="190.4"/>
			<line class="st2" x1="142.3" y1="191.4" x2="138.7" y2="193.6"/>
		</g>
	</g>
	<g>
		<g>
			<line class="st2" x1="124.8" y1="203.1" x2="121.1" y2="205.2"/>
			<line class="st5" x1="117.3" y1="207.3" x2="114.1" y2="209.1"/>
			<line class="st6" x1="112.2" y1="210.2" x2="47.6" y2="246.7"/>
			<line class="st2" x1="45.7" y1="247.8" x2="42" y2="249.9"/>
		</g>
	</g>
	<g>
		<path class="st7" d="M27.9,268.6l7-4c1.2-0.7,1.8-2.2,1.6-4.3l0,0l8.9-5.1c1.4-0.8,1.4-3.3,0-5.7c-1.4-2.3-3.6-3.6-4.9-2.8
			l-8.9,5.1l0,0c-1.6-1.1-3.3-1.5-4.5-0.8l-7,4c-2.2,1.3-2.2,5.3,0,9.1C22.2,267.8,25.7,269.8,27.9,268.6z"/>
		<path class="st8" d="M27.9,268.6l7-4c1.2-0.7,1.8-2.2,1.6-4.3l0,0l8.9-5.1c1.4-0.8,1.4-3.3,0-5.7c-1.4-2.3-3.6-3.6-4.9-2.8
			l-8.9,5.1l0,0c-1.6-1.1-3.3-1.5-4.5-0.8l-7,4c-2.2,1.3-2.2,5.3,0,9.1C22.2,267.8,25.7,269.8,27.9,268.6z"/>
		<path class="st8" d="M20.2,254.9c2.2-1.3,5.7,0.8,7.8,4.5c2.2,3.8,2.2,7.8,0,9.1"/>
		<g>
			<polyline class="st8" points="21.8,257.7 24.9,258.6 27.2,262.6 26.4,265.7 			"/>
			<polyline class="st8" points="26.4,265.7 23.2,264.8 21,260.9 21.8,257.7 			"/>
		</g>
		<line class="st8" x1="21" y1="260.9" x2="24.9" y2="258.6"/>
		<line class="st8" x1="23.2" y1="264.8" x2="27.2" y2="262.6"/>
		<path class="st8" d="M27,251c2.2-1.3,5.7,0.8,7.8,4.5c2.2,3.8,2.2,7.8,0,9.1"/>
		<path class="st8" d="M32.1,251.4c1.4-0.8,3.6,0.5,4.9,2.8c0.3,0.5,0.5,1.1,0.7,1.5"/>
		<path class="st8" d="M33.8,250.5c1.4-0.8,3.6,0.5,4.9,2.8c1.4,2.3,1.4,4.9,0,5.7"/>
		<path class="st8" d="M35.5,249.5c1.4-0.8,3.6,0.5,4.9,2.8c1.4,2.3,1.4,4.9,0,5.7"/>
		<path class="st8" d="M37.2,248.5c1.4-0.8,3.6,0.5,4.9,2.8c1.4,2.3,1.4,4.9,0,5.7"/>
		<path class="st8" d="M38.9,247.5c1.4-0.8,3.6,0.5,4.9,2.8s1.4,4.9,0,5.7"/>
	</g>
	<g>
		<g>
			<line class="st2" x1="369.9" y1="110.4" x2="366.2" y2="112.5"/>
			<line class="st3" x1="362.6" y1="114.6" x2="359.6" y2="116.4"/>
			<line class="st4" x1="357.8" y1="117.4" x2="188.9" y2="216"/>
			<line class="st2" x1="187.2" y1="217" x2="183.5" y2="219.2"/>
		</g>
	</g>
	<g>
		<g>
			<line class="st2" x1="169.7" y1="228.7" x2="166" y2="230.8"/>
			<line class="st5" x1="162.1" y1="232.9" x2="158.9" y2="234.8"/>
			<line class="st6" x1="157" y1="235.8" x2="92.5" y2="272.3"/>
			<line class="st2" x1="90.6" y1="273.4" x2="86.9" y2="275.5"/>
		</g>
	</g>
	<g>
		<path class="st7" d="M72.7,294.2l7-4c1.2-0.7,1.8-2.2,1.6-4.3l0,0l8.9-5.1c1.4-0.8,1.4-3.3,0-5.7s-3.6-3.6-4.9-2.8l-8.9,5.1l0,0
			c-1.6-1.1-3.3-1.5-4.5-0.8l-7,4c-2.2,1.3-2.2,5.3,0,9.1C67,293.4,70.6,295.4,72.7,294.2z"/>
		<path class="st8" d="M72.7,294.2l7-4c1.2-0.7,1.8-2.2,1.6-4.3l0,0l8.9-5.1c1.4-0.8,1.4-3.3,0-5.7s-3.6-3.6-4.9-2.8l-8.9,5.1l0,0
			c-1.6-1.1-3.3-1.5-4.5-0.8l-7,4c-2.2,1.3-2.2,5.3,0,9.1C67,293.4,70.6,295.4,72.7,294.2z"/>
		<path class="st8" d="M65,280.5c2.2-1.3,5.7,0.8,7.8,4.5c2.2,3.8,2.2,7.8,0,9.1"/>
		<g>
			<polyline class="st8" points="66.6,283.4 69.8,284.2 72.1,288.2 71.2,291.3 			"/>
			<polyline class="st8" points="71.2,291.3 68.1,290.5 65.8,286.5 66.6,283.4 			"/>
		</g>
		<line class="st8" x1="65.8" y1="286.5" x2="69.8" y2="284.2"/>
		<line class="st8" x1="68.1" y1="290.5" x2="72.1" y2="288.2"/>
		<path class="st8" d="M71.8,276.6c2.2-1.3,5.7,0.8,7.8,4.5c2.2,3.8,2.2,7.8,0,9.1"/>
		<path class="st8" d="M76.9,277.1c1.4-0.8,3.6,0.5,4.9,2.8c0.3,0.5,0.5,1.1,0.7,1.5"/>
		<path class="st8" d="M78.6,276.1c1.4-0.8,3.6,0.5,4.9,2.8c1.4,2.3,1.4,4.9,0,5.7"/>
		<path class="st8" d="M80.3,275.1c1.4-0.8,3.6,0.5,4.9,2.8c1.4,2.3,1.4,4.9,0,5.7"/>
		<path class="st8" d="M82,274.1c1.4-0.8,3.6,0.5,4.9,2.8c1.4,2.3,1.4,4.9,0,5.7"/>
		<path class="st8" d="M83.7,273.1c1.4-0.8,3.6,0.5,4.9,2.8c1.4,2.3,1.4,4.9,0,5.7"/>
	</g>
	<g>
		<g>
			<line class="st2" x1="347.2" y1="205.7" x2="343.5" y2="207.8"/>
			<line class="st9" x1="339.6" y1="210.1" x2="336.4" y2="212"/>
			<line class="st10" x1="334.5" y1="213.1" x2="319.6" y2="221.8"/>
			<line class="st2" x1="317.7" y1="222.9" x2="314" y2="225"/>
		</g>
	</g>
	<g>
		<g>
			<line class="st2" x1="147" y1="325.9" x2="143.3" y2="328"/>
			<line class="st5" x1="139.4" y1="330.2" x2="136.2" y2="332"/>
			<line class="st6" x1="134.3" y1="333.1" x2="69.8" y2="369.6"/>
			<line class="st2" x1="67.8" y1="370.7" x2="64.1" y2="372.8"/>
		</g>
	</g>
	<g>
		<path class="st7" d="M50,391.4l7-4c1.2-0.7,1.8-2.2,1.6-4.3l0,0l8.9-5.1c1.4-0.8,1.4-3.3,0-5.7s-3.6-3.6-4.9-2.8l-8.9,5.1l0,0
			c-1.6-1.1-3.3-1.5-4.5-0.8l-7,4c-2.2,1.3-2.2,5.3,0,9.1C44.3,390.7,47.9,392.7,50,391.4z"/>
		<path class="st8" d="M50,391.4l7-4c1.2-0.7,1.8-2.2,1.6-4.3l0,0l8.9-5.1c1.4-0.8,1.4-3.3,0-5.7s-3.6-3.6-4.9-2.8l-8.9,5.1l0,0
			c-1.6-1.1-3.3-1.5-4.5-0.8l-7,4c-2.2,1.3-2.2,5.3,0,9.1C44.3,390.7,47.9,392.7,50,391.4z"/>
		<path class="st8" d="M42.3,377.8c2.2-1.3,5.7,0.8,7.8,4.5c2.2,3.8,2.2,7.8,0,9.1"/>
		<g>
			<polyline class="st8" points="43.9,380.6 47.1,381.4 49.3,385.4 48.5,388.6 			"/>
			<polyline class="st8" points="48.5,388.6 45.4,387.7 43.1,383.7 43.9,380.6 			"/>
		</g>
		<line class="st8" x1="43.1" y1="383.7" x2="47.1" y2="381.4"/>
		<line class="st8" x1="45.4" y1="387.7" x2="49.3" y2="385.4"/>
		<path class="st8" d="M49.1,373.8c2.2-1.3,5.7,0.8,7.8,4.5c2.2,3.8,2.2,7.8,0,9.1"/>
		<path class="st8" d="M54.2,374.3c1.4-0.8,3.6,0.5,4.9,2.8c0.3,0.5,0.5,1.1,0.7,1.5"/>
		<path class="st8" d="M55.9,373.3c1.4-0.8,3.6,0.5,4.9,2.8c1.4,2.3,1.4,4.9,0,5.7"/>
		<path class="st8" d="M57.6,372.3c1.4-0.8,3.6,0.5,4.9,2.8c1.4,2.3,1.4,4.9,0,5.7"/>
		<path class="st8" d="M59.3,371.4c1.4-0.8,3.6,0.5,4.9,2.8c1.4,2.3,1.4,4.9,0,5.7"/>
		<path class="st8" d="M61,370.4c1.4-0.8,3.6,0.5,4.9,2.8s1.4,4.9,0,5.7"/>
	</g>
</g>
<g id="ace2_GigE">
	<g>
		<polyline class="st1" points="406.4,71.8 402.4,68.9 397.5,66.5 391.8,64.6 385.8,63.3 379.5,62.5 373,62.6 366.7,63.4 
			360.6,64.5 354.9,66.5 350.2,68.9 346,71.8 		"/>
		<line class="st1" x1="346" y1="71.8" x2="350.2" y2="68.9"/>
		<line class="st1" x1="336.3" y1="88.3" x2="337.2" y2="74"/>
		<line class="st1" x1="373.6" y1="110.2" x2="373.8" y2="119.5"/>
		<polyline class="st1" points="350,74.5 354.1,72.2 358.8,70.1 364,68.6 369.7,67.5 375.4,67.3 381.5,67.5 387.2,68.3 392.5,69.6 
			397.4,71.6 		"/>
		<line class="st1" x1="399.2" y1="72.1" x2="397.4" y2="71.6"/>
		<polyline class="st1" points="399.2,72.1 400.4,72.7 401.2,73.3 402.5,74.5 		"/>
		<line class="st1" x1="387.2" y1="79.7" x2="381.7" y2="76.5"/>
		<polyline class="st1" points="381.7,76.5 378.8,75.4 375.5,74.9 371.9,74.8 368.6,75.4 365.8,76.6 		"/>
		<line class="st1" x1="365.8" y1="76.6" x2="361.5" y2="79"/>
		<line class="st1" x1="381.7" y1="76.5" x2="387.2" y2="79.7"/>
		<line class="st1" x1="361.5" y1="79" x2="365.8" y2="76.6"/>
		<polyline class="st1" points="398.1,72.1 396.3,72.4 395.1,73.4 395.1,74.5 395.9,75.5 397.6,75.8 399.4,75.9 401,75.2 
			401.7,74.2 		"/>
		<polyline class="st1" points="395.8,74.9 396.3,74.2 397.5,73.7 399.2,73.6 400.3,74.1 400.9,75 		"/>
		<line class="st1" x1="363.5" y1="71.5" x2="354.5" y2="76.7"/>
		<polyline class="st1" points="384,71.5 380.9,70.2 377.5,69.3 373.7,69.1 370.1,69.3 366.5,70.3 363.5,71.5 		"/>
		<line class="st1" x1="394.9" y1="77.9" x2="384" y2="71.5"/>
		<line class="st1" x1="373.6" y1="110.2" x2="373.8" y2="119.5"/>
		<line class="st1" x1="355.4" y1="80.6" x2="338.5" y2="70.9"/>
		<polyline class="st1" points="359.7,82.3 357.5,81.5 355.5,80.7 		"/>
		<polyline class="st1" points="338.5,70.9 338.4,70.8 336.8,69.8 335.6,68.5 335.5,68.3 333.7,64.8 332.6,61.5 332.5,57.8 
			333.1,54.4 334.6,50.9 		"/>
		<polyline class="st1" points="395.1,81 395.1,81 392.8,82.1 389.9,82.9 384,83.7 378,84.1 371.8,84 365.8,83.5 359.9,82.3 
			359.7,82.3 		"/>
		<line class="st1" x1="414.6" y1="69.7" x2="395.1" y2="81"/>
		<polyline class="st1" points="414.6,69.7 414.6,69.7 416.6,68.3 417.9,66.7 419.6,62.9 420.1,58.9 419.6,54.9 417.9,50.8 
			416.6,49.4 414.6,47.9 		"/>
		<line class="st1" x1="395.1" y1="36.7" x2="414.6" y2="47.9"/>
		<polyline class="st1" points="395.1,36.7 395.1,36.7 392.7,35.5 389.9,34.9 383.2,33.8 376.3,33.6 369.3,34 362.6,34.8 
			362.4,34.9 359.8,35.5 357.4,36.7 		"/>
		<line class="st1" x1="337.9" y1="47.9" x2="357.4" y2="36.7"/>
		<polyline class="st1" points="334.6,50.9 334.6,50.9 335.9,49.3 337.7,48 337.9,47.9 		"/>
		<polyline class="st1" points="403,74.2 407.3,71.4 410.6,68.1 412.8,64.4 414,60.7 414,57 412.7,53.2 410.6,49.6 407.2,46.3 
			403,43.5 398,40.9 392.3,39 386.1,37.8 379.6,37 372.9,37.1 366.5,37.8 360.2,39 354.6,40.9 349.5,43.4 345.3,46.3 341.9,49.6 
			339.7,53.3 338.5,57 338.5,60.7 339.7,64.6 341.9,68.1 345.3,71.4 349.5,74.4 354.5,76.7 360.2,78.7 366.4,79.9 373,80.7 
			379.5,80.6 386,79.9 392.3,78.7 397.9,76.7 403,74.2 		"/>
		<polyline class="st1" points="371,113.2 370.5,114.6 369.3,114.8 367.9,114.2 366.7,112.5 365.9,110.7 366,109.1 366.8,108.2 
			368.2,108.3 		"/>
		<polyline class="st1" points="326.9,87.9 326.3,89.1 325.2,89.3 323.7,88.6 322.5,86.9 321.7,85.2 321.8,83.6 322.6,82.7 
			324,82.8 		"/>
		<line class="st1" x1="434.5" y1="87.9" x2="435.4" y2="86.9"/>
		<path class="st1" d="M330.1,71.8l0.1,4.7V79c0,0-0.1,1,0.5,2.9c0.6,2,2.2,4.3,2.2,4.3"/>
		<polyline class="st1" points="360.7,101 366.5,102.3 372.5,103 378.8,102.9 384.9,102.6 391.8,100.8 		"/>
		<path class="st1" d="M422.4,72.5l0,6.4c0,0-0.6,3.9-1.8,5.7s-3.5,3.3-4.4,3.7l0-14.8"/>
		<polyline class="st1" points="419.6,70.4 421.4,66.7 422.2,63.2 422.2,59.5 421.4,55.8 419.6,52.3 418.5,50.7 416.7,49.6 		"/>
		<polyline class="st1" points="335.9,49.3 334.1,50.8 332.8,52.4 		"/>
		<polyline class="st1" points="332.8,52.4 331.1,55.8 330.2,59.6 330.3,63 331.1,66.7 332.9,70.2 334.4,72 336.3,73.5 		"/>
		<line class="st1" x1="336.3" y1="73.5" x2="355.2" y2="84.4"/>
		<polyline class="st1" points="355.2,84.4 357.7,85.6 360.7,86.3 		"/>
		<polyline class="st1" points="360.7,86.3 366.8,87.3 373.1,87.8 379.5,87.8 385.7,87.3 391.9,86.3 394.7,85.6 397.3,84.3 		"/>
		<line class="st1" x1="397.3" y1="84.3" x2="416.1" y2="73.5"/>
		<polyline class="st1" points="416.1,73.5 418.1,72.1 419.6,70.4 		"/>
		<polyline class="st1" points="364.5,109.8 364.9,108.3 365.9,107.4 367.4,107.7 369,108.9 370.4,110.7 371.2,112.9 371.2,114.7 
			370.4,116 369.1,116.3 367.3,115.6 365.8,114 364.8,112 364.5,109.8 		"/>
		<polyline class="st1" points="320.3,84.3 320.7,82.7 321.7,81.9 323.2,82.2 324.8,83.4 326.3,85.2 327.1,87.3 327,89.1 
			326.2,90.4 324.9,90.8 323.2,90 321.6,88.5 320.7,86.5 320.3,84.3 		"/>
		<line class="st1" x1="330.2" y1="67.4" x2="317.8" y2="74.6"/>
		<line class="st1" x1="422.4" y1="67.4" x2="434.6" y2="74.5"/>
		<line class="st1" x1="336.3" y1="88.3" x2="317.7" y2="77.5"/>
		<line class="st1" x1="355.2" y1="99" x2="373.6" y2="109.8"/>
		<line class="st1" x1="397.3" y1="99.1" x2="378.8" y2="109.8"/>
		<line class="st1" x1="378.7" y1="119.4" x2="378.8" y2="109.8"/>
		<line class="st1" x1="416.1" y1="88.3" x2="434.8" y2="77.5"/>
		<polyline class="st1" points="434.6,74.5 435.6,75.5 435.6,76.6 434.8,77.5 		"/>
		<polyline class="st1" points="378.8,109.8 377.2,110.3 375.2,110.3 373.6,109.8 		"/>
		<polyline class="st1" points="317.7,77.5 316.9,76.6 316.8,75.6 317.8,74.6 		"/>
		<line class="st1" x1="435.6" y1="76.6" x2="435.8" y2="85.6"/>
		<line class="st1" x1="316.8" y1="76" x2="316.7" y2="85.7"/>
		<line class="st1" x1="419.6" y1="85.7" x2="419.6" y2="70.4"/>
		<line class="st1" x1="355.2" y1="84.4" x2="355.2" y2="99"/>
		<line class="st1" x1="360.7" y1="101" x2="360.7" y2="86.3"/>
		<line class="st1" x1="332.9" y1="70.2" x2="332.9" y2="86.3"/>
		<line class="st1" x1="397.3" y1="99.1" x2="397.3" y2="84.3"/>
		<line class="st1" x1="391.9" y1="86.3" x2="391.8" y2="100.8"/>
		<line class="st1" x1="316.7" y1="85.7" x2="317" y2="86.6"/>
		<line class="st1" x1="434.5" y1="87.9" x2="378.5" y2="120.2"/>
		<line class="st1" x1="435.4" y1="86.9" x2="435.8" y2="85.6"/>
		<line class="st1" x1="422.4" y1="72.5" x2="422.4" y2="61.3"/>
		<line class="st1" x1="330.2" y1="71.8" x2="330.2" y2="61.4"/>
		<line class="st1" x1="396" y1="206.1" x2="396.1" y2="211.9"/>
		<polyline class="st1" points="395.5,202.9 395.9,204.4 396,206.1 		"/>
		<polyline class="st1" points="395.5,202.9 392.3,194.3 391.8,191.9 391.8,133 		"/>
		<polyline class="st1" points="394.4,125.7 393.1,128 392.2,130.7 391.8,133 		"/>
		<line class="st1" x1="395.9" y1="123.1" x2="394.4" y2="125.7"/>
		<polyline class="st1" points="399.3,113.1 399,116.3 397.7,119.8 395.9,123.1 		"/>
		<line class="st1" x1="399.3" y1="108.2" x2="399.3" y2="113.1"/>
		<line class="st1" x1="430" y1="192.4" x2="434.3" y2="189.9"/>
		<g>
			<polyline class="st1" points="425.9,95.3 424.7,95.1 423.3,95.7 422,96.9 421,98.5 420.5,100.4 420.8,101.9 421.3,102.9 			"/>
			<polyline class="st1" points="420.4,102.4 419.6,101.5 419.3,100.2 419.6,98.7 420.3,97 421.3,95.7 422.5,94.8 423.8,94.3 
				424.8,94.6 425.9,95.3 426.8,96.1 426.9,97.5 426.7,99 426,100.4 425.2,101.8 424,102.7 422.8,103.2 421.3,102.9 			"/>
			<line class="st1" x1="425.8" y1="95.1" x2="425.8" y2="92.9"/>
			<line class="st1" x1="430.1" y1="90.5" x2="430" y2="96"/>
			<line class="st1" x1="420.4" y1="102.4" x2="421.3" y2="102.9"/>
			<polyline class="st1" points="419.3,103.2 420.5,104.1 422,104.1 423.6,103.1 425.2,101.8 			"/>
			<polyline class="st1" points="430,96 429.7,98.5 428.6,101.1 427.1,103.5 425.1,105.3 423.2,106.5 421.4,106.8 419.8,106.2 
				418.7,104.9 418.4,102.7 			"/>
			<line class="st1" x1="418.4" y1="102.7" x2="418.5" y2="97.2"/>
			<polyline class="st1" points="419.3,103.2 419.2,102.6 419.2,101.8 			"/>
			<line class="st1" x1="419.2" y1="101.8" x2="419.1" y2="96.8"/>
		</g>
		<polyline class="st1" points="371,120.4 371.6,119.9 372.3,119.7 373.4,119.9 		"/>
		<line class="st1" x1="371" y1="120.4" x2="368.8" y2="125.2"/>
		<polyline class="st1" points="366.4,125.7 367.3,126.1 368.3,125.9 368.8,125.2 		"/>
		<polyline class="st1" points="367,212 366.4,210.6 365.5,209.5 364.6,208.7 		"/>
		<line class="st1" x1="367" y1="212" x2="368.6" y2="217.5"/>
		<polyline class="st1" points="371,220.5 370,219.8 369.1,218.8 368.6,217.5 		"/>
		<line class="st1" x1="371" y1="220.5" x2="373.5" y2="222.1"/>
		<line class="st1" x1="373.5" y1="222.1" x2="373.5" y2="120.1"/>
		<g>
			<polyline class="st1" points="390.5,115.7 389.4,115.5 387.9,116.1 386.7,117.3 385.7,118.9 385.2,120.7 385.4,122.3 386,123.3 
							"/>
			<polyline class="st1" points="385.1,122.8 384.3,121.9 384,120.5 384.2,119.1 385,117.4 386,116.1 387.2,115.2 388.5,114.7 
				389.5,115 390.5,115.7 391.4,116.5 391.6,117.9 391.4,119.3 390.7,120.8 389.9,122.1 388.7,123.1 387.5,123.6 386,123.3 			"/>
			<line class="st1" x1="390.5" y1="115.5" x2="390.5" y2="113.3"/>
			<line class="st1" x1="394.7" y1="110.8" x2="394.7" y2="116.4"/>
			<line class="st1" x1="385.1" y1="122.8" x2="386" y2="123.3"/>
			<polyline class="st1" points="384,123.6 385.2,124.5 386.7,124.4 388.3,123.5 389.9,122.1 			"/>
			<polyline class="st1" points="394.7,116.4 394.4,118.9 393.3,121.5 391.8,123.9 389.8,125.7 387.8,126.8 386.1,127.2 
				384.4,126.6 383.4,125.2 383,123.1 			"/>
			<line class="st1" x1="383" y1="123.1" x2="383.1" y2="117.6"/>
			<polyline class="st1" points="384,123.6 383.9,123 383.8,122.2 			"/>
			<line class="st1" x1="383.8" y1="122.2" x2="383.8" y2="117.2"/>
		</g>
		<polyline class="st1" points="380,221.3 380.3,220.8 380.6,220.5 		"/>
		<polyline class="st1" points="378.5,222.1 377,222.5 375,222.6 373.5,222.1 		"/>
		<line class="st1" x1="378.5" y1="120.2" x2="378.5" y2="222.1"/>
		<polyline class="st1" points="378.5,120.2 377,120.6 375.1,120.7 373.5,120.1 		"/>
		<line class="st1" x1="378.5" y1="222.1" x2="380" y2="221.3"/>
		<line class="st1" x1="325" y1="101.9" x2="366.4" y2="125.7"/>
		<line class="st1" x1="320.5" y1="91.4" x2="322.8" y2="98.8"/>
		<line class="st1" x1="317.9" y1="88.1" x2="318.1" y2="88.1"/>
		<line class="st1" x1="320.5" y1="191.5" x2="317.9" y2="190.1"/>
		<line class="st1" x1="324.6" y1="187.3" x2="322.8" y2="191"/>
		<line class="st1" x1="326.8" y1="187" x2="364.6" y2="208.7"/>
		<polyline class="st1" points="322.8,98.8 323.3,100 324.1,101.1 325,101.9 		"/>
		<polyline class="st1" points="318.1,88.1 319,88.9 320,90.1 320.5,91.4 		"/>
		<polyline class="st1" points="322.8,191 322.3,191.7 321.5,191.8 320.5,191.5 		"/>
		<polyline class="st1" points="326.8,187 325.9,186.6 325.1,186.6 324.6,187.3 		"/>
		<polyline class="st1" points="317,188.5 317.3,189.4 317.9,190.1 		"/>
		<polyline class="st1" points="317,86.6 317.3,87.3 317.9,88.1 		"/>
		<line class="st1" x1="317" y1="188.5" x2="317" y2="86.6"/>
		<polyline class="st1" points="349,207.7 348.6,208.8 347.4,209.1 345.9,208.4 344.8,206.9 344,205.1 344.2,203.5 345,202.6 
			346.1,202.6 		"/>
		<polyline class="st1" points="342.3,204.4 342.6,202.7 343.8,202 345.4,202.2 346.9,203.3 348.2,205.1 349,207.3 349,209.2 
			348.3,210.3 347,210.6 345.3,210 343.8,208.5 342.8,206.3 342.3,204.4 		"/>
		<line class="st1" x1="373.7" y1="228.3" x2="318.1" y2="196.1"/>
		<polyline class="st1" points="316.9,194.4 317.2,195.3 318.1,196.1 		"/>
		<polyline class="st1" points="434.3,196 435.2,195.3 435.5,194.4 		"/>
		<line class="st1" x1="434.3" y1="196" x2="378.5" y2="228.2"/>
		<polyline class="st1" points="373.8,228.3 374.9,228.7 376.3,228.8 377.4,228.6 378.5,228.2 		"/>
		<line class="st1" x1="373.7" y1="222.9" x2="373.7" y2="228.3"/>
		<line class="st1" x1="378.7" y1="228.1" x2="378.8" y2="223"/>
		<line class="st1" x1="435.7" y1="189.7" x2="435.5" y2="194.4"/>
		<line class="st1" x1="316.9" y1="188.7" x2="316.9" y2="194.4"/>
		<polyline class="st1" points="435.3,87.1 435.4,188.4 435.7,188.6 435.7,189.7 		"/>
		<line class="st1" x1="418.2" y1="199.2" x2="391.4" y2="214.6"/>
		<line class="st1" x1="378.8" y1="223" x2="378.5" y2="222.1"/>
		<line class="st1" x1="435.7" y1="188.6" x2="434.3" y2="189.9"/>
		<g>
			<polyline class="st1" points="387.3,209.4 386.3,209.3 384.8,210 383.5,211.1 382.5,212.8 382,214.6 382.3,216.2 383,217.1 			
				"/>
			<path class="st1" d="M381.9,216.7l-0.6-0.7l-0.2-1.2l0.1-1c0,0,0.4-2.4,2.1-4l1.2-0.9l1.2-0.2l0.8,0.2"/>
			<polyline class="st1" points="387.3,209.4 388.3,210.3 388.4,211.8 388.2,213.2 387.7,214.6 386.7,216 385.5,216.9 384.3,217.4 
				383,217.1 			"/>
			<line class="st1" x1="383" y1="217.1" x2="381.9" y2="216.7"/>
			<line class="st1" x1="387.3" y1="209.4" x2="386.3" y2="208.9"/>
			<line class="st1" x1="380" y1="221.3" x2="379.9" y2="216.9"/>
			<polyline class="st1" points="379.9,216.9 380.2,214.6 381.2,211.8 382.8,209.6 384.7,207.6 386.7,206.5 388.7,206.2 
				390.1,206.7 391.2,208.2 391.5,210.2 			"/>
			<line class="st1" x1="388.7" y1="214.9" x2="387.6" y2="214.9"/>
			<polyline class="st1" points="391.4,214.6 390.3,215 388.7,214.9 			"/>
			<line class="st1" x1="391.5" y1="210.2" x2="391.4" y2="214.6"/>
			<line class="st1" x1="380.6" y1="218.9" x2="383.4" y2="217.3"/>
			<line class="st1" x1="380.6" y1="220.5" x2="380.6" y2="218.9"/>
			<line class="st1" x1="391.4" y1="214.6" x2="380" y2="221.3"/>
		</g>
		<polyline class="st1" points="425.6,187 424.7,186.9 423.1,187.6 421.8,188.8 420.8,190.5 420.4,192.3 420.6,193.8 421.3,194.7 		
			"/>
		<polyline class="st1" points="420.2,194.3 419.6,193.6 419.3,192.4 419.4,191.4 		"/>
		<polyline class="st1" points="421.5,187.5 422.7,186.5 423.9,186.3 424.7,186.5 		"/>
		<polyline class="st1" points="425.6,187 426.6,188 426.8,189.4 426.5,190.9 426,192.3 425.1,193.7 423.9,194.6 422.6,195.1 
			421.3,194.7 		"/>
		<line class="st1" x1="421.3" y1="194.7" x2="420.2" y2="194.3"/>
		<line class="st1" x1="425.6" y1="187" x2="424.7" y2="186.5"/>
		<line class="st1" x1="418.3" y1="198.9" x2="418.2" y2="194.6"/>
		<polyline class="st1" points="418.2,194.6 418.6,192.2 419.6,189.4 421.1,187.2 423.1,185.2 425,184.1 427,183.8 428.4,184.3 
			429.5,185.9 429.8,187.9 		"/>
		<line class="st1" x1="427.1" y1="192.5" x2="426" y2="192.5"/>
		<polyline class="st1" points="429.7,192.3 428.7,192.7 427.1,192.5 		"/>
		<line class="st1" x1="429.8" y1="187.9" x2="429.7" y2="192.3"/>
		<line class="st1" x1="418.9" y1="196.6" x2="421.7" y2="195"/>
		<line class="st1" x1="418.9" y1="198.1" x2="418.9" y2="193.5"/>
		<polyline class="st1" points="418.9,193.5 419.1,192.3 419.7,190.7 420.2,189 421.3,187.5 		"/>
		<polyline class="st1" points="429.9,192.2 430,192.4 418.2,199.2 418.1,199 		"/>
		<line class="st1" x1="332.1" y1="213.5" x2="331.9" y2="204.1"/>
		<polyline class="st1" points="358.1,219.3 356.4,220.2 354.6,220.8 352.8,221.4 350.6,221.8 348.6,222.1 346.2,222.2 344.2,222 
			342,221.6 340,221.2 338.3,220.5 336.4,219.5 335,218.6 333.9,217.3 332.9,216.1 332.4,214.9 332.1,213.5 		"/>
		<polyline class="st1" points="339.7,64.6 339.9,61.2 340.8,57.4 342.9,54 346,50.7 350,47.7 354.9,45.3 360.6,43.4 366.6,42.1 
			373,41.4 379.5,41.4 385.8,42.1 392,43.3 397.5,45.4 402.4,47.8 406.4,50.7 409.6,53.9 411.7,57.5 413.3,63.1 		"/>
	</g>
</g>
</svg>
