<svg version="1.1" id="Ebene_1" xmlns="http://www.w3.org/2000/svg" xmlns:xlink="http://www.w3.org/1999/xlink" x="0" y="0" viewBox="0 0 333.3 235" style="enable-background:new 0 0 333.3 235;background-color:#fff" xml:space="preserve"><style>.st0{fill:none;stroke:#d9d9d9;stroke-width:.75;stroke-linejoin:round;stroke-miterlimit:10}.st3{fill:#595959}.st4{font-family:&apos;Calibri&apos;}.st5{font-size:9px}.st8{fill:#020203}.st9{font-size:11.04px}.st10{font-family:Helvetica,Arial,sans-serif}.st11{font-size:9.96px}</style><path class="st0" d="M44.9 14.7h270.5M44.9 48.3h270.5M44.9 81.9h270.5M44.9 115.3h270.5M44.9 148.8h270.5m.1-134.1v167.6M288.4 14.7v167.6M261.3 14.7v167.6m-27-167.6v167.6m-27-167.6v167.6M180.2 14.7v167.6m-27-167.6v167.6M126.1 14.7v167.6m-27-167.6v167.6M71.9 14.7v167.6m-27-167.6v167.6m0 .1h270.6"/><defs><path id="SVGID_1_" d="M44.8 14.7h271.3v168.4H44.8z"/></defs><clipPath id="SVGID_00000039097830552440862960000005428557253594952865_"><use xlink:href="#SVGID_1_" style="overflow:visible"/></clipPath><path style="clip-path:url(#SVGID_00000039097830552440862960000005428557253594952865_);fill:none;stroke:#5c9bd4;stroke-width:2.25;stroke-linecap:round;stroke-linejoin:round;stroke-miterlimit:10" d="m44.9 14.7 27 1.2 27.2 2.8 27 5.3 27.1 3.5 27 5.2 27.1 3.4 27 6 27 4.1 27.1 6.6 27.1 6.4"/><path style="clip-path:url(#SVGID_00000039097830552440862960000005428557253594952865_);fill:none;stroke:#ee7e32;stroke-width:2.25;stroke-linecap:round;stroke-linejoin:round;stroke-miterlimit:10" d="m44.9 14.7 27 .2 27.2.2 27 .5 27.1.7 27 .9 27.1 1.8 27 3.6 27 5.1 27.1 7.5 27.1 10"/><text transform="translate(32.031 184.91)" class="st3 st4 st5">0</text><text transform="translate(25.227 151.385)"><tspan x="0" y="0" class="st3 st4 st5">0</tspan><tspan x="4.6" y="0" class="st3 st4 st5">,</tspan><tspan x="6.8" y="0" class="st3 st4 st5">2</tspan></text><text transform="translate(25.227 117.86)"><tspan x="0" y="0" class="st3 st4 st5">0</tspan><tspan x="4.6" y="0" class="st3 st4 st5">,</tspan><tspan x="6.8" y="0" class="st3 st4 st5">4</tspan></text><text transform="translate(25.227 84.335)"><tspan x="0" y="0" class="st3 st4 st5">0</tspan><tspan x="4.6" y="0" class="st3 st4 st5">,</tspan><tspan x="6.8" y="0" class="st3 st4 st5">6</tspan></text><text transform="translate(25.227 50.81)"><tspan x="0" y="0" class="st3 st4 st5">0</tspan><tspan x="4.6" y="0" class="st3 st4 st5">,</tspan><tspan x="6.8" y="0" class="st3 st4 st5">8</tspan></text><text transform="translate(32.031 17.285)" class="st3 st4 st5">1</text><text transform="translate(42.66 196.619)" class="st3 st4 st5">0</text><text transform="translate(66.312 196.619)"><tspan x="0" y="0" class="st3 st4 st5">1</tspan><tspan x="4.6" y="0" class="st3 st4 st5">,</tspan><tspan x="6.8" y="0" class="st3 st4 st5">6</tspan></text><text transform="translate(93.366 196.619)"><tspan x="0" y="0" class="st3 st4 st5">3</tspan><tspan x="4.6" y="0" class="st3 st4 st5">,</tspan><tspan x="6.8" y="0" class="st3 st4 st5">2</tspan></text><text transform="translate(120.42 196.619)"><tspan x="0" y="0" class="st3 st4 st5">4</tspan><tspan x="4.6" y="0" class="st3 st4 st5">,</tspan><tspan x="6.8" y="0" class="st3 st4 st5">8</tspan></text><text transform="translate(147.474 196.619)"><tspan x="0" y="0" class="st3 st4 st5">6</tspan><tspan x="4.6" y="0" class="st3 st4 st5">,</tspan><tspan x="6.8" y="0" class="st3 st4 st5">4</tspan></text><text transform="translate(177.93 196.619)" class="st3 st4 st5">8</text><text transform="translate(201.582 196.619)"><tspan x="0" y="0" class="st3 st4 st5">9</tspan><tspan x="4.6" y="0" class="st3 st4 st5">,</tspan><tspan x="6.8" y="0" class="st3 st4 st5">6</tspan></text><text transform="translate(226.35 196.619)"><tspan x="0" y="0" class="st3 st4 st5">11</tspan><tspan x="9.1" y="0" class="st3 st4 st5">,</tspan><tspan x="11.4" y="0" class="st3 st4 st5">2</tspan></text><text transform="translate(253.404 196.619)"><tspan x="0" y="0" class="st3 st4 st5">12</tspan><tspan x="9.1" y="0" class="st3 st4 st5">,</tspan><tspan x="11.4" y="0" class="st3 st4 st5">8</tspan></text><text transform="translate(280.458 196.619)"><tspan x="0" y="0" class="st3 st4 st5">14</tspan><tspan x="9.1" y="0" class="st3 st4 st5">,</tspan><tspan x="11.4" y="0" class="st3 st4 st5">4</tspan></text><text transform="translate(310.914 196.619)" class="st3 st4 st5">16</text><path class="st0" d="M.4.4H333v234.3H.4z"/><path style="fill:none;stroke:#ee7e32;stroke-width:3.25;stroke-miterlimit:8" d="m55.6 150.7 26.2.3"/><path style="fill:none;stroke:#5c9bd4;stroke-width:3.25;stroke-miterlimit:8" d="M55.6 171h26.2"/><text transform="translate(92.262 154.825)" class="st8 st4 st9">f</text><text transform="translate(95.662 154.825)" class="st8 st4 st9">/3</text><text transform="translate(105.562 154.825)" class="st8 st4 st9">.</text><text transform="translate(108.262 154.825)" class="st8 st4 st9">5</text><text transform="translate(91.902 173.665)" class="st8 st10 st11">f/</text><text transform="translate(97.402 173.665)" class="st8 st10 st11">2</text><text transform="translate(103.002 173.665)" class="st8 st10 st11">.8</text><text transform="translate(127.118 215.015)" class="st8 st10 st11">Image Height [mm]</text><text transform="rotate(-90.213 86.787 72.249)" class="st8 st10 st11">Relative Illumination [%]</text></svg>