<svg version="1.1" id="Ebene_1" xmlns="http://www.w3.org/2000/svg" xmlns:xlink="http://www.w3.org/1999/xlink" x="0" y="0" viewBox="0 0 907.1 907.1" style="background-color:#fff" xml:space="preserve"><style>.st1,.st2,.st3,.st4,.st5,.st6,.st7,.st8{fill:none;stroke:#000;stroke-linecap:round;stroke-linejoin:round}.st1{stroke-miterlimit:10;clip-path:url(#SVGID_2_);stroke-width:.425}.st2,.st3,.st4,.st5,.st6,.st7,.st8{stroke-width:.283}.st3{stroke-miterlimit:10}.st4{stroke-dasharray:.701,3.507}.st5{stroke-dasharray:.306,1.532}.st6{stroke-dasharray:4.597,1.532,.306,1.532}.st7{stroke-dasharray:.567,2.835}.st8{stroke-dasharray:8.504,2.835,.567,2.835}.st9{font-family:Helvetica,Arial,sans-serif}.st10{font-size:9.9998px}</style><path d="M403.6 394.8V46.1m-2.9 5.2v-5.2h2.9M398 400.5h5.4m0 0h.2v-1.4m0 0v-4.3M398 56.1h5.6M398 400.5V56.1m-348.7-10v348.7M52 51.3v-5.2h-2.7m0 353v-4.3m0 4.3v1.4m0 0H55m0-344.4v344.4M49.3 56.1H55m26.7 344.4H55m29.7-2.7V49.1m-3-3h-24m337.3 0h-24.1m-2.7 351.7V49.1M398 400.5h-27.1M398 56.1v-7" fill="none" stroke="#000" stroke-width=".425" stroke-linecap="round" stroke-linejoin="round" stroke-miterlimit="10"/><defs><path id="SVGID_1_" d="M0 0h907.1v907.1H0z"/></defs><clipPath id="SVGID_2_"><use xlink:href="#SVGID_1_" overflow="visible"/></clipPath><path class="st1" d="M398 49c0-1.6-1.3-2.8-2.8-2.8m-24.1-.1c-1.6 0-2.8 1.3-2.8 2.8m-.1 348.7c0 1.6 1.3 2.8 2.8 2.8M57.8 46.1c-1.6 0-2.8 1.3-2.8 2.8m0 .2v7m26.8 344.4c1.6 0 2.8-1.3 2.8-2.8M84.7 49c0-1.6-1.3-2.8-2.8-2.8M52 49.1h-2.7m5.5 4.1c-1.6 0-2.8 1.3-2.8 2.8m2.8-5.5c-3.1 0-5.5 2.5-5.5 5.5m354.3-6.9h-2.9m0 6.9c0-1.6-1.3-2.8-2.8-2.8m5.5 2.8c0-3.1-2.5-5.5-5.5-5.5M81.7 46.1h289.2m0 354.4H81.7m-28.9-350v-4.4m347.3 0v4.4M52.8 46.1H55m343 0h2.1M55 50.5h-2.2m347.3 0H398M55 48v-2.9m14 1v-1m-14 4V48m0-.8h.5m-.5-2.1h14m314.6 1v-1m14.4 2.1v-2.1m0 4v-1.9m-.3.8h.3m-.6-.8h.6m-14.4-2.1H398m-18.4 8.2c0-2.5-2-4.5-4.5-4.5s-4.5 2-4.5 4.5 2 4.5 4.5 4.5c2.5-.1 4.5-2 4.5-4.5"/><path class="st1" d="M381.7 53.3c0-3.7-3-6.6-6.6-6.6-3.7 0-6.6 3-6.6 6.6 0 3.7 3 6.6 6.6 6.6 3.7 0 6.6-3 6.6-6.6"/><path class="st1" d="M375.3 55.6l2.1-1.1v-2.4l-2.1-1.4-2.2 1.4v2.4l2.2 1.1M82 53.3c0-2.5-2-4.5-4.5-4.5s-4.5 2-4.5 4.5 2 4.5 4.5 4.5c2.5-.1 4.5-2 4.5-4.5"/><path class="st1" d="M84.1 53.3c0-3.7-3-6.6-6.6-6.6-3.7 0-6.6 3-6.6 6.6 0 3.7 3 6.6 6.6 6.6 3.7 0 6.6-3 6.6-6.6"/><path class="st1" d="M77.7 55.6l1.8-1.1v-2.4l-1.8-1.4-2.2 1.4v2.4l2.2 1.1m4.3 338c0-2.5-2-4.5-4.5-4.5s-4.5 2-4.5 4.5 2 4.5 4.5 4.5c2.5-.1 4.5-2.1 4.5-4.5"/><path class="st1" d="M84.1 393.6c0-3.7-3-6.6-6.6-6.6-3.7 0-6.6 3-6.6 6.6 0 3.7 3 6.6 6.6 6.6 3.7 0 6.6-3 6.6-6.6"/><path class="st1" d="M77.7 395.9l1.8-1.1v-2.4l-1.8-1.4-2.2 1.4v2.4l2.2 1.1m301.9-2.3c0-2.5-2-4.5-4.5-4.5s-4.5 2-4.5 4.5 2 4.5 4.5 4.5c2.5-.1 4.5-2.1 4.5-4.5"/><path class="st1" d="M381.7 393.6c0-3.7-3-6.6-6.6-6.6-3.7 0-6.6 3-6.6 6.6 0 3.7 3 6.6 6.6 6.6 3.7 0 6.6-3 6.6-6.6"/><path class="st1" d="M375.3 395.9l2.1-1.1v-2.4l-2.1-1.4-2.2 1.4v2.4l2.2 1.1M55 504.4h343m-343 2.7h12.7m314.6 0H398m-330.3 0h2.7M400.7 826v-.5m2.9.5v-.5m0-285.2v285.2m0 27.5v-27m0-316v30.3m-2.9 285.2V536.8m0 285.7h2.9m0-282.2h-2.9m-2.9 318.1c3.1 0 5.5-2.5 5.5-5.5m-5.5 2.8c1.6 0 2.8-1.3 2.8-2.8m2.8-343c0-3.1-2.5-5.5-5.5-5.5m2.8 5.5c0-1.6-1.3-2.8-2.8-2.8M52 536.8v.8m-2.7-.8v.8m0 287.9V537.6m0-27.6v26.8m0 316.2v-27.5M52 537.6V826m-2.7-3.5H52m0-282.2h-2.7m0 312.6c0 3.1 2.5 5.5 5.5 5.5M52 853c0 1.6 1.3 2.7 2.8 2.7m0-351.3c-3.1 0-5.5 2.5-5.5 5.5m5.5-2.8c-1.6 0-2.8 1.3-2.8 2.8m32.7 345.8v3m-3-3h-24m0 0v3m24 0h-24m24 0v-3m313.3 3h-24.1m24.1 0v-3m0 0h-24.1m0 0v3m-2.7 0v-3m26.8 3h3m-29.8 0h2.7m-315.9 0h2.7m24 0h3m310.3-3h3m-343 0h2.7M55 507.1v-2.7m0 354.3v-3M49.3 510H55m-5.7 26.8h3.5m2.2-28.9v.5M49.3 826h3.5m-3.5 27H55m0 2.2v-.8m0 1.3v-.5m343-350.8v2.7m0 348.6v3m2.1-321.9h3.5M398 510h5.6M398 853h5.6m-3.5-27h3.5M69 504.4v2.7m314.6 0v-2.7m-1.3 5.6v-5.6M70.4 510v-5.6m0 5.6h311.9m0 14.1V510m-311.9 0v14.1h311.9m3-19.7v2.7m11.3 0v-2.7m-340.3 0v2.7m11.4 0v-2.7M383.6 520h-1.3m-311.9 0H69m1.4 335.7v-17m7.3 17h297.6m0 0v-17m-297.6 0h297.6m-297.6 0v17m297.6-17h7v17m-311.9-17h7.3m273 17h6.5m26.4-330.3H69m-16.2 3v306.3m16.2 2.7h314.6m16.5-2.7V528.4M52.8 834.7l2.2 2.1m343 0l2.1-2.1m0-306.3l-2.1-2.2m-343 0l-2.2 2.2m345.2-3.5v-2.2m-14.4 7v-7m14.4 0v-14.3m-14.4 14.3v-1.1m13-14.5h-11.3m12.7 1.4c0-.8-.7-1.5-1.5-1.5m-11.4.1c-.8 0-1.5.7-1.5 1.5m0 13v-13.2m14.4 13.2h-14.4m14.4 1.1h-14.4m14.4 2.2h-14.4m13 6.2h-11.3m11.3 0c.8 0 1.3-.4 1.3-1.2m.1-.2v-4.8m-14.4 5c0 .8.7 1.2 1.5 1.2M69 524.9v-2.2m-14 7v-7m14 0v-14.3m-14 14.3v-1.1m12.7-14.5H56.3m12.7 1.4c0-.8-.7-1.5-1.5-1.5m-11.3.1c-.8 0-1.2 0-1.2.8m0 13.7v-13.2m14 13.2H55m14 1.1H55m14 2.2H55m12.7 6.2H56.3m11.4 0c.8 0 1.3-.4 1.3-1.2m0-.2v-4.8m-14 4.8c0 .8.5 1.4 1.4 1.4M55 840.3v-2.4m14 2.4V833m-14 21.4v-14.1m14 1.1v-1.1m0 1.1v14.3m-14-14.3h14m-14-1.1h14m-14-2.4h14m-12.7-6.2h11.4m-11.4 0c-.8 0-1.4.5-1.4 1.4m.1-.1v4.9m14-4.7c0-.8-.7-1.5-1.5-1.5m316.1 8.6v-2.4m14.4 2.4V833m-14.4 22.7v-15.4m14.4 1.1v-1.1m0 1.1v14.3m-14.4-14.3H398m-14.4-1.1H398m-14.4-2.4H398m-12.7-6.2h11.3m-11.5 0c-.8 0-1.5.7-1.5 1.5m0-.2v4.9m14.4-4.7c0-.8-.7-1.5-1.5-1.5M59.6 515.6c0 1.3 1 2.3 2.3 2.3s2.3-1 2.3-2.3c0-1.3-1-2.3-2.3-2.3-1.3 0-2.3 1-2.3 2.3"/><path class="st1" d="M56.6 515.6c0 2.9 2.4 5.3 5.3 5.3s5.3-2.4 5.3-5.3-2.4-5.3-5.3-5.3c-3 0-5.3 2.4-5.3 5.3"/><path class="st1" d="M63.1 517.3l.8-1.6-.8-1.9h-2.2l-1.1 1.9 1.1 1.6h2.2m-6.5 329.9c0 2.9 2.4 5.3 5.3 5.3s5.3-2.4 5.3-5.3-2.4-5.3-5.3-5.3c-3 0-5.3 2.4-5.3 5.3"/><path class="st1" d="M63.1 849.2l.8-1.9-.8-1.8h-2.2l-1.1 1.8 1.1 1.9h2.2m322.5-.9c.6 2.8 3.4 4.7 6.2 4.1 2.8-.6 4.7-3.4 4.1-6.2-.6-2.8-3.4-4.7-6.2-4.1-2.8.5-4.7 3.3-4.1 6.2"/><path class="st1" d="M392.3 849l.5-2.2-1.3-1.3-1.9.2-.8 1.9 1.3 1.6 2.2-.2m-6.8-333.4c0 2.9 2.4 5.3 5.3 5.3s5.3-2.4 5.3-5.3-2.4-5.3-5.3-5.3-5.3 2.4-5.3 5.3"/><path class="st1" d="M391.7 517.3l1.1-1.6-1.1-1.9h-1.8l-1.1 1.9 1.1 1.6h1.8m-21 345.2h8.9m0 .1c1.2-1 2-2.3 2.3-3.8m-13.3-.1c.3 1.5 1.1 2.9 2.3 3.8m-297.8 0H82m0 0c1.2-1 1.8-2.2 2-3.7m-13-.1c.3 1.5.9 2.8 2 3.7m510-480.1c0 1.6 1.3 2.8 2.8 2.8 1.6 0 2.8-1.3 2.8-2.8 0-1.6-1.3-2.8-2.8-2.8-1.5 0-2.8 1.2-2.8 2.8m215.8 0c0-1.6-1.3-2.8-2.8-2.8-1.6 0-2.8 1.3-2.8 2.8 0 1.6 1.3 2.8 2.8 2.8 1.6 0 2.8-1.2 2.8-2.8m-283 14V49.2m2.6 6.7v-6.7m3.5 341.5h-.5m26.7-334.8h.5m284.7-7v7m0-7.1c0-1.5-1.3-2.8-2.8-2.8m-278.9 0h278.7m-278.9 0c-1.5 0-2.8 1.3-2.8 2.8m0 7.1v-7m-27.2 341.8V55.9h26.7m-26.2 334.8H860m.5 0h-.5m.5 0V55.9h-26.7m-.5 0h.5M537.1 375l5.4-5.1 1 1.1-5.3 5-1.1-1"/><path class="st1" d="M839.4 72.7l5.3-5.1 1.1 1.1-5.3 5.1-1.1-1.1M704.3 229.4l1.3 1.1-5.3 5.4-1.1-1.1 5.1-5.4M860.5 395v-4.3m0 4.3l.3.5.2.6.3.2h.5m0 0h4.3V55.9h-5.6M515.8 396.3h4.2m0 0h.6l.2-.2.3-.6.3-.5m0-4.3v4.3m-5.6-339.1h5.6m342-9.9h2.7v9.9m-2.7-9.9v9.9m-345-5.4h-2.6m350.3-1.6h-2.7m-342 7v-5.6m26.7 5.6v-5.6m-28.9 0h18.2m-18.2 2.6h2.2m312.4 3v-5.6m26.7 5.6v-5.6h-16m18.1 0h-2.1m2.1 2.6h-2.1m-.5 337.8v5.6m0 0H521.9v-5.6M862.6 50.3v2.6m-343.4 0v-2.6m2-1.4c-.4 0-.8.1-1.2.3m-1.2 1.1c-.2.4-.4.9-.4 1.4m3-2.8V46m-.1.3c-2.1 0-4 1.2-4.9 3m5-.4h.2m10.7 0h1.4m1.3 0h.3v-2.6m-13.9-.3h3.2m4.5 0h5.1m-18.4 3.2h2.6m326.3 18.4l-.2.3M538.2 376l-1.1-1M840.5 73.8l-1.1-1.1M585.9 386.6c2.3 0 4.3-1.9 4.3-4.3 0-2.3-1.9-4.3-4.3-4.3-2.3 0-4.3 1.9-4.3 4.3m214.4 4.3c2.3 0 4.3-1.9 4.3-4.3 0-2.3-1.9-4.3-4.3-4.3-2.3 0-4.3 1.9-4.3 4.3m71.7-329.4h-.8M847.7 46h5m4.6 0h6.1m-1.6 350.3H860m-13.4-346v-4m16.6-.3h-.8m-5.4 0h5.4m-7 0h1.6m-7.2 0h5.6m-6.1 0h.5m0 0h-.5m13.3 0h.6m-326.3 4.3V46m2.6 4.3h9.1m284.7 0h9V46m-302.8 0h12.1m278.7 0h12m-302.8 0v4.3M845 46v4.3m-2.7-4.3h2.2m-307.1 0h2.1m305 4.3h-2.2m-302.8 0h-2.1m-1.3-5.4V46m.1-1.1c-1.3 0-2.3 1-2.3 2.3m1.1-.1h-1.1m2.3-1.1c-.7 0-1.2.5-1.2 1.2m2.4-1.2h-1.3m4.8 0v-1.1m0 0h-4.8m-2.2 3h1.1m-2.3 1.3c.7 0 1.2-.5 1.2-1.2m-1 2.3v-1.1m-.2 1.1c1.3 0 2.3-1 2.3-2.3m-1.1-.9v.8m1.1-.8v.8m-2.1 2.4H520m-1.6 0h.8m-.8-1.1h14.5m8-4.3h1.6V46M520 49.2v1.1m327.9-3.2h-1m1 .1c0-1.3-1-2.3-2.3-2.3m.2 1.1v-1.1m1.1 2.3c0-.7-.5-1.2-1.2-1.2m2.2 1.1v.8m-1-.8v.8m0 0h1m1.1 1.3v1.1m-1.1-2.3c0 .7.5 1.2 1.2 1.2m-2.2-1.2c0 1.3 1 2.3 2.3 2.3m-.2 0h12.8m0 0v-1.1m-12.8 0h12.8m.8 1.1h.8m-1.6-1.1h1.6"/><path class="st1" d="M839.4 46v-1.1h6.4m-1.3 1.1h1.3m-4.8-1.1V46m-316.4 0h4.5m-4.4 0c-1.7 0-3.1 1.4-3.1 3.1m10.7 0c0-1.7-1.4-3.1-3.1-3.1m323.6 0h4.5m-4.7 0c-1.7 0-3.1 1.4-3.1 3.1m10.7 0c0-1.7-1.4-3.1-3.1-3.1m13 11.5v-8.8m0 0c-1-1.2-2.5-2-4-2.3m0 13.1c1.5-.3 3-.9 4-2m0 336.4v-8.8m-.2 0c-1-1.2-2.3-2-3.8-2.2m0 13c1.5-.3 2.8-1.1 3.8-2.2M84.6 540h283.5v283.5H84.6zM864 45.8v-2.5m-3.2 0l1.6-.1 1.6.1m-3.2 0V46m-1.3 0v-2.7h1.3m-7.9 0l3.4-.1 3.2.1m-6.6 0V46m0-2.7h-1.2V46m-3.3-2.7l1.6-.1 1.7.1m-3.3 0v2.5m12.2-11.3h-8.7m9.2 1.8h-9.8m9.6 1.1h-9.3m9.3 1.4h-9.3m10.3 1h-11.3m11.3 1.5h-11.3m10.3 1h-9.3M864 46v-2.7M848.4 46v-2.7m12.5-8.5c0-.1-.2-.3-.3-.3m-8.7 0c-.2 0-.3.1-.3.3m9.3 0l.2 1.5m-9.5-1.5l-.3 1.5v.7m9.8 0v-.7m-9.5 1.1l-.3-.4m9.6.4l.2-.4m-9.5 1.8v-1.4m10.3 2.4l-1-1v-1.4m-9.3 1.4l-1 1v1.5m11.3 0v-1.5m-10.3 2.5l-1-1m10.3 1l1-1m-1 1.5v-.5m0 .5c0 .2.1.3.3.3h1.2m-10.8-.8v.5c0 .2-.1.3-.3.3h-1.2m-488.4 2.7v-2.5m-3.2 0l1.6-.1 1.6.1m-3.2 0V46m-1.3 0v-2.7h1.3m-7.9 0l3.4-.1 3.2.1m-6.6 0V46m0-2.7h-1.2V46m-3.3-2.7l1.7-.1 1.6.1m-3.3 0v2.5m12.2-11.3h-8.7m9.2 1.8H349m9.6 1.1h-9.3m9.3 1.4h-9.3m10.4 1h-11.4m11.4 1.5h-11.4m10.3 1h-9.3m12.4 3.7v-2.7M346.1 46v-2.7m12.5-8.5c0-.1-.2-.3-.3-.3m-8.7 0c-.2 0-.3.1-.3.3m9.3 0l.2 1.5m-9.5-1.5l-.3 1.5v.7m9.8 0v-.7m-9.5 1.1l-.3-.4m9.6.4l.2-.4m-9.5 1.8v-1.4m10.4 2.4l-1.1-1v-1.4m-9.3 1.4l-1 1v1.5m11.4 0v-1.5m-10.4 2.5l-1-1m10.3 1l1.1-1m-1.1 1.5v-.5m0 .5c0 .2.1.3.3.3h1.2m-10.8-.8v.5c0 .2-.1.3-.3.3h-1.2m5.3 803.5c.3 0 .6-.3.6-.6s-.3-.6-.6-.6-.6.3-.6.6c-.1.3.2.6.6.6m0 5.4c.3 0 .6-.3.6-.6s-.3-.6-.6-.6-.6.3-.6.6c-.1.3.2.6.6.6m3.2-4.5c.3 0 .6-.3.6-.6s-.3-.6-.6-.6-.6.3-.6.6.3.6.6.6m0 3.4c.3 0 .6-.3.6-.6s-.3-.6-.6-.6-.6.3-.6.6.3.6.6.6"/><path class="st1" d="M354 852.7c2.2 0 4-1.8 4.1-4 0-2.2-1.8-4.1-4.1-4.1-2.2 0-4 1.8-4 4-.1 2.3 1.7 4.1 4 4.1"/><path class="st1" d="M349 848.7c0 2.7 2.2 5 4.9 5s5-2.2 5-4.9-2.2-5-4.9-5-5 2.1-5 4.9"/><path class="st1" d="M348.3 848.7c0 3.1 2.5 5.7 5.7 5.7 3.1 0 5.7-2.5 5.7-5.7 0-3.1-2.5-5.7-5.7-5.7s-5.7 2.5-5.7 5.7"/><path class="st1" d="M354 842.3c-3.5 0-6.4 2.9-6.4 6.4 0 3.5 2.9 6.4 6.4 6.4 3.5 0 6.4-2.9 6.4-6.4 0-3.6-2.9-6.4-6.4-6.4m-3.2 13.3h6.5m0 0c.4-.2.9-.4 1.3-.7m0 0l3.2-5.6m0 0v-1.4m-3.2-5.6l3.2 5.5m-3.2-5.5c-.4-.3-.9-.5-1.3-.7m-6.5-.1h6.4m-6.4 0c-.4.2-.9.4-1.3.7m-3.2 5.6l3.3-5.5m-3.3 5.5v1.4m0 .1l3.3 5.6m0 0c.4.3.8.5 1.3.7"/><path class="st2" d="M802.3 390.8l24.3 33.5h34.7"/><path d="M801.4 393.1l-2.8-7.4 6.2 5z"/><path class="st3" d="M17.6 45.2V34.6M398 858.7h30.9m-74.8-10.2h74.8"/><path class="st2" d="M360.4 890.2h36.9"/><path d="M361.8 892.3l-7.7-2.1 7.7-2zm34.1 0l7.7-2.1-7.7-2z"/><path class="st3" d="M403.6 853v39.8M353.9 853v39.8"/><path class="st2" d="M17.6 510.7v342"/><path d="M15.6 512.1l2-7.7 2.1 7.7zm0 339.1l2 7.7 2.1-7.7z"/><path class="st3" d="M54.8 858.9H15m39.8-354.7H15"/><path class="st2" d="M17.6 51.5v342.8"/><path d="M15.6 52.9l2-7.7 2.1 7.7zm0 340l2 7.7 2.1-7.7z"/><path class="st3" d="M54.8 400.6H15M54.8 45H15"/><path class="st2" d="M17.6 28.7v-23"/><path d="M19.7 27.3L17.6 35l-2-7.7z"/><path class="st3" d="M349 34.8H15"/><path class="st2" d="M397.3 472.8H55.4"/><path d="M395.9 470.7l7.7 2.1-7.7 2zm-339.1 0l-7.7 2.1 7.7 2z"/><path class="st3" d="M49.1 510v-39.8M403.8 510v-39.8m22.7 378.6v10.9"/><path class="st2" d="M426.5 819.5v22.3"/><path d="M424.4 840.4l2.1 7.7 2.1-7.7z"/><path class="st2" d="M426.5 866v21.6"/><path d="M424.4 867.4l2.1-7.7 2.1 7.7z"/><path class="st2" d="M522.4 424.6h57.2"/><path d="M523.8 426.7l-7.7-2.1 7.7-2zm54.4 0l7.7-2.1-7.7-2z"/><path class="st2" d="M592.6 424.6h197.1"/><path d="M594 426.7l-7.7-2.1 7.7-2zm194.3 0l7.7-2.1-7.7-2z"/><path class="st3" d="M515.9 396.3v30.9m70-44.9v44.9M796 382.3v44.9m-210.1-44.8H485.1m31 13.7h-31m2.4.4v-15.1"/><path class="st2" d="M487.5 425.1v-22.3"/><path d="M489.6 404.2l-2.1-7.7-2 7.7z"/><path class="st2" d="M487.5 375.2v-21.6"/><path d="M489.6 373.8l-2.1 7.7-2-7.7z"/><path class="st3" d="M309.4 715.4l115.4 52.1"/><path class="st2" d="M77.5 401.7v-4.3"/><path class="st4" d="M77.5 393.9v-2.4"/><path class="st2" d="M77.5 389.7v-4.2m8.1 8.1h-4.2"/><path class="st4" d="M77.9 393.6h-2.5"/><path class="st2" d="M73.7 393.6h-4.3m305.7 8.1v-4.3"/><path class="st4" d="M375.1 393.9v-2.4"/><path class="st2" d="M375.1 389.7v-4.2m8.1 8.1H379"/><path class="st4" d="M375.5 393.6H373"/><path class="st2" d="M371.3 393.6H367m218.9-3.2v-4.2"/><path class="st4" d="M585.9 382.7v-2.5"/><path class="st2" d="M585.9 378.5v-4.3m8.1 8.2h-4.3"/><path class="st4" d="M586.2 382.4h-2.4"/><path class="st2" d="M582 382.4h-4.2m218.2 8v-4.2"/><path class="st4" d="M796 382.7v-2.5"/><path class="st2" d="M796 378.5v-4.3m8.1 8.1h-4.2"/><path class="st4" d="M796.4 382.3h-2.5"/><path class="st2" d="M792.2 382.3h-4.3M354.1 858.5v-4.3"/><path class="st5" d="M354.1 852.7v-1.1"/><path class="st6" d="M354.1 850.9v-7.2"/><path class="st2" d="M354.1 842.9v-4.3m9.9 10h-4.3"/><path class="st5" d="M358.2 848.6h-1.1"/><path class="st6" d="M356.4 848.6h-7.2"/><path class="st2" d="M348.4 848.6h-4.3m-117.8 17.3v-4.2"/><path class="st7" d="M226.3 858.9v-2"/><path class="st8" d="M226.3 855.4V503.1"/><path class="st2" d="M226.3 501.7v-4.3m184.3 184.3h-4.3"/><path class="st7" d="M403.5 681.7h-2"/><path class="st8" d="M400.1 681.7H47.8"/><path class="st2" d="M46.3 681.7h-4.2"/><text transform="translate(829.32 420.73)" class="st9 st10">2</text><text transform="translate(837.66 420.73)" class="st9 st10">× M4</text><text transform="translate(373.13 886.915)" class="st9 st10">35</text><text transform="rotate(-90 352.185 337.935)" class="st9 st10">250</text><text transform="rotate(-90 124.149 109.899)" class="st9 st10">250.8</text><text transform="rotate(-90 19.906 5.656)" class="st9 st10">7.2</text><text transform="rotate(-90 629.917 206.89)" class="st9 st10">7.1</text><text transform="translate(217.91 469.379)" class="st9 st10">250</text><text transform="translate(545.354 421.299)" class="st9 st10">50</text><text transform="translate(693.99 421.299)" class="st9 st10">150</text><text transform="rotate(-90 439.587 -44.412)" class="st9 st10">10</text><text transform="translate(435.097 772.876)" class="st9" font-size="10">200 x 200 (Luminous area)</text><text transform="translate(777.557 876.793)" class="st9 st10">Not to scale</text><text transform="translate(777.557 888.793)" class="st9 st10">Dimensions in mm</text></svg>