<svg xmlns="http://www.w3.org/2000/svg" viewBox="0 0 538.6 300.5" style="enable-background:new 0 0 538.6 300.5;background-color:#fff" xml:space="preserve"><style>.st4{fill:#5a5a5a}.st5{font-family:Helvetica,Arial,sans-serif}.st6{font-size:10.1575px}</style><g id="Lines"><path d="M42.6 266h473.3M42.6 223.5h473.3M42.6 181h473.3M42.6 138.6h473.3M42.6 96.1h473.3M42.6 53.6h473.3M42.6 11.2h473.3" style="stroke:#d9d9d9;stroke-linejoin:round;fill:none;stroke-width:.4252;stroke-miterlimit:10" id="Lines_H"/><g id="Lines_V"><path d="M135.4 10.5v255.9m92.8-255.9v255.9M321 10.5v255.9m92.9-255.9v255.9m92.9-255.9v255.9" style="fill-rule:evenodd;clip-rule:evenodd;stroke:#c6c6c6;fill:none;stroke-width:.4252;stroke-miterlimit:10"/><path style="fill:none;stroke:#9d9d9c;stroke-width:.4252;stroke-linejoin:round;stroke-miterlimit:10" d="M42.6 266.4h473.3"/><path style="fill-rule:evenodd;clip-rule:evenodd;fill:none;stroke:#9d9d9c;stroke-width:.4252;stroke-miterlimit:10" d="M42.5 10.5v255.9"/></g></g><g id="Text"><text transform="translate(30.48 269.555)" class="st4 st5 st6">0</text><text transform="translate(5.061 227.014)" class="st4 st5 st6">10,000</text><text transform="translate(5.061 184.473)" class="st4 st5 st6">20,000</text><text transform="translate(5.061 141.932)" class="st4 st5 st6">30,000</text><text transform="translate(5.061 99.391)" class="st4 st5 st6">40,000</text><text transform="translate(5.061 56.85)" class="st4 st5 st6">50,000</text><text transform="translate(5.061 14.31)" class="st4 st5 st6">60,000</text><text transform="translate(129.661 281.623)" class="st4 st5 st6">50</text><text transform="translate(219.67 281.623)" class="st4 st5 st6">100</text><text transform="translate(39.73 298.826)" class="st4 st5 st6">0</text><text transform="translate(312.494 281.623)" class="st4 st5 st6">150</text><text transform="translate(405.317 281.623)" class="st4 st5 st6">200</text><text transform="translate(498.24 281.623)" class="st4 st5 st6">250</text><text transform="translate(157.588 298.826)" class="st4 st5 st6">65</text></g><path d="M43.5 265.5h.5v.1h-.5v-.1zm7.4 0h.5v.1h-.5v-.1zm1.8 0h.5v.1h-.5v-.1zm1.9 0h.5v.1h-.5v-.1zm1.8 0h.6v.1h-.6v-.1zm1.8 0h.6v.1h-.6v-.1zm1.9 0h.5v.1h-.5v-.1zm1.9 0h.5v.1H62v-.1zm1.7 0h.6v.1h-.6v-.1zm1.9 0h.6v.1h-.6v-.1zm1.9 0h.5v.1h-.5v-.1zm1.8 0h.5v.1h-.5v-.1zm1.9 0h.5v.1h-.5v-.1zm1.8 0h.6v.1H73v-.1zm1.8 0h.6v.1h-.6v-.1zm1.9 0h.5v.1h-.5v-.1zm1.9 0h.5v.1h-.5v-.1zm1.7 0h.7v.1h-.6v-.1h-.1zm1.9 0h.6v.1h-.6v-.1zm1.9 0h.5v.1h-.5v-.1zm1.8 0h.5v.1h-.5v-.1zm1.8 0h.6v.1h-.6v-.1zm1.9 0h.6v.1h-.6v-.1zm1.8 0h.6v.1h-.6v-.1zm1.9 0h.5v.1h-.5v-.1zm1.9 0h.5v.1h-.5v-.1zm1.7 0h.6v.1h-.6v-.1zm1.9 0h.6v.1h-.6v-.1zm1.9-.1h.5v.2h-.5v-.2zm1.8.1h.5v.1h-.5v-.1zm1.8-.1h.6v.2h-.6v-.2zm1.9 0h.6v.2h-.6v-.2zm1.8-.1h.6v.3h-.6v-.3zm1.9-.3h.5v.6h-.5v-.6zm1.9-.1h.5v.7h-.5v-.7zm1.7-.5h.6v1.2h-.6v-1.2zm1.9-.4h.6v1.6h-.6V264zm1.9-.6h.5v2.1h-.5v-2.1zm1.8-.5h.5v2.7h-.5v-2.7zm1.8-.2h.6v2.9h-.6v-2.9zm1.9-.2h.6v3.1h-.6v-3.1zm1.8.2h.6v2.9h-.6v-2.9zm1.9.5h.5v2.4h-.5v-2.4zm1.9.2h.5v2.1h-.5v-2.1zm1.7.5h.6v1.7h-.6v-1.7zm1.9.2h.6v1.5h-.6v-1.5zm1.9.1h.5v1.4h-.5v-1.4zm1.8.2h.5v1.2h-.5v-1.2zm1.8.3h.6v.9h-.6v-.9zm1.9 0h.6v.9h-.6v-.9zm1.8.1h.5v.8h-.5v-.8zm1.9.1h.5v.7h-.5v-.7zm1.9 0h.5v.7h-.5v-.7zm1.7.1h.6v.6h-.6v-.6zm1.9.1h.6v.5h-.6v-.5zm1.9.1h.5v.4h-.5v-.4zm1.8 0h.5v.4h-.5v-.4zm1.8 0h.6v.4h-.6v-.4zm1.9-.1h.6v.5h-.6v-.5zm1.8 0h.5v.5h-.5v-.5zm1.9-.1h.5v.6h-.5v-.6zm1.9-.2h.5v.8h-.5v-.8zm1.7-.2h.6v1h-.6v-1zm1.9-.3h.6v1.3h-.6v-1.3zm1.9-.4h.5v1.7h-.5v-1.7zm1.8-.3h.5v1.9h-.5v-1.9zm1.8-.4h.6v2.4h-.6v-2.4zm1.9-.2h.6v2.6h-.6V263zm1.8-.5h.5v3.1h-.5v-3.1zm1.9-.4h.5v3.5h-.5v-3.5zm1.8-.2h.6v3.7h-.6v-3.7zm1.8-.6h.6v4.3h-.6v-4.3zm1.9-.8h.6v5.1h-.6v-5.1zm1.9-1h.5v6.1h-.5v-6.1zm1.8-1.5h.5v7.6h-.5V258zm1.8-1.2h.6v8.8h-.6v-8.8zm1.9-1.5h.6v10.3h-.6v-10.3zm1.8-3.2h.5v13.5h-.5v-13.5zm1.9-4h.5v17.5h-.5v-17.5zm1.8-5.8h.6v23.3h-.6v-23.3zm1.8-6h.6v29.3h-.6v-29.3zm1.9-10.1h.6v39.4h-.6v-39.4zm1.9-12.1h.5v51.5h-.5v-51.5zm1.8-16.4h.5v67.9h-.5v-67.9zm1.8-20h.6v87.9h-.6v-87.9zm1.9-25.6h.6v113.5h-.6V152.1zm1.8-33.6h.5v147.1h-.5V118.5zm1.9-30.2h.5v177.3h-.5V88.3zm1.8-32.6h.6v209.8h-.6V55.7zm1.8-22.5h.6v232.4h-.6V33.2zM215 23h.6v242.6h-.6V23zm1.9-.9h.5v243.5h-.5V22.1zm1.8 8.6h.5v234.9h-.5V30.7zm1.8 15.7h.6v219.2h-.6V46.4zm1.9 25.8h.6v193.4h-.6V72.2zm1.8 24.6h.5v168.8h-.5V96.8zm1.9 24.3h.5v144.5h-.5V121.1zm1.8 29.1h.6v115.4h-.6V150.2zm1.8 21.5h.6v93.9h-.6v-93.9zm1.9 22.2h.5v71.7h-.5v-71.7zm1.9 17.8h.5v53.9h-.5v-53.9zm1.8 13.8h.5v40.1h-.5v-40.1zm1.8 12.3h.6v27.8h-.6v-27.8zm1.9 8.6h.6v19.2h-.6v-19.2zm1.8 6.1h.5v13.1h-.5v-13.1zm1.9 3.4h.5v9.7h-.5v-9.7zm1.8 2.4h.6v7.3h-.6v-7.3zm1.8 2.5h.6v4.8h-.6v-4.8zm1.9 1.1h.5v3.7h-.5v-3.7zm1.9.7h.5v3h-.5v-3zm1.8.4h.5v2.6h-.5V263zm1.8.1h.6v2.5h-.6v-2.5zm1.9.3h.6v2.1h-.6v-2.1zm1.8-.1h.5v2.3h-.5v-2.3zm1.9-.2h.5v2.5h-.5v-2.5zm1.8 0h.6v2.5h-.6v-2.5zm1.8-.4h.6v2.9h-.6v-2.9zm1.9-.5h.5v3.4h-.5v-3.4zm1.9-.4h.5v3.8h-.5v-3.8zm1.7-.4h.6v4.2h-.6v-4.2zm1.9-.1h.6v4.3h-.6v-4.3zm1.9.1h.6v4.2h-.6v-4.2zm1.8.5h.5v3.7h-.5v-3.7zm1.9.1h.5v3.6h-.5V262zm1.8.1h.6v3.5h-.6v-3.5zm1.8.2h.6v3.3h-.6v-3.3zm1.9.4h.5v2.9h-.5v-2.9zm1.9.1h.5v2.8h-.5v-2.8zm1.7.3h.6v2.5h-.6v-2.5zm1.9.1h.6v2.4h-.6v-2.4zm1.9.3h.6v2h-.6v-2zm1.8.5h.5v1.6h-.5V264zm1.9.3h.5v1.3h-.5v-1.3zm1.8.1h.6v1.2h-.6v-1.2zm1.8.1h.6v1.1h-.6v-1.1zm1.9.3h.5v.8h-.5v-.8zm1.9-.1h.5v.9h-.5v-.9zm1.7 0h.6v.9h-.6v-.9zm1.9.1h.6v.8h-.6v-.8zm1.9.2h.6v.6h-.6v-.6zm1.8-.1h.5v.7h-.5v-.7zm1.9 0h.5v.7h-.5v-.7zm1.8 0h.6v.7h-.6v-.7zm1.8.1h.6v.6h-.6v-.6zm1.9 0h.5v.6h-.5v-.6zm1.9.1h.5v.5h-.5v-.5zm1.7 0h.6v.5h-.6v-.5zm1.9 0h.6v.5h-.6v-.5zm1.9 0h.5v.5h-.5v-.5zm1.8 0h.5v.5h-.5v-.5zm1.9 0h.5v.5h-.5v-.5zm1.8 0h.6v.5h-.6v-.5zm1.8.1h.6v.4h-.6v-.4zm1.9-.1h.5v.5h-.5v-.5zm1.9.1h.5v.4h-.5v-.4zm1.7 0h.6v.4h-.6v-.4zm1.9 0h.6v.4h-.6v-.4zm1.9 0h.5v.4h-.5v-.4zm1.8 0h.5v.4h-.5v-.4zm1.9 0h.5v.4h-.5v-.4zm1.8 0h.6v.4h-.6v-.4zm1.8 0h.6v.4h-.6v-.4zm1.9-.1h.5v.5h-.5v-.5zm1.9.1h.5v.4h-.5v-.4zm1.7-.1h.6v.5h-.6v-.5zm1.9.1h.6v.4h-.6v-.4zm1.9 0h.5v.4h-.5v-.4zm1.8-.2h.5v.6h-.5v-.6zm1.8.1h.6v.5h-.6v-.5zm1.9-.2h.6v.7h-.6v-.7zm1.8 0h.6v.7h-.6v-.7zm1.9 0h.5v.7h-.5v-.7zm1.9.1h.5v.6h-.5v-.6zm1.7 0h.6v.6h-.6v-.6zm1.9 0h.6v.6h-.6v-.6zm1.9 0h.5v.6h-.5v-.6zm1.8.1h.5v.5h-.5v-.5zm1.8-.1h.6v.6h-.6v-.6zm1.9 0h.6v.6h-.6v-.6zm1.8.1h.6v.5h-.6v-.5zm1.9 0h.5v.5h-.5v-.5zm1.9-.1h.5v.6h-.5v-.6zm1.7.1h.6v.5h-.6v-.5zm1.9 0h.6v.5h-.6v-.5zm1.9-.1h.5v.6h-.5v-.6zm1.8.2h.5v.4h-.5v-.4zm1.8-.1h.6v.5h-.6v-.5zm1.9 0h.6v.5h-.6v-.5zm1.8 0h.6v.5h-.6v-.5zm1.9 0h.5v.5h-.5v-.5zm1.9-.2h.5v.7h-.5v-.7zm1.7 0h.6v.7h-.6v-.7zm1.9 0h.6v.7h-.6v-.7zm1.9-.1h.5v.8h-.5v-.8zm1.8-.1h.5v.9h-.5v-.9zm1.8.1h.6v.8h-.6v-.8zm1.9-.1h.6v.9h-.6v-.9zm1.8 0h.6v.9h-.6v-.9zm1.9 0h.5v.9h-.5v-.9zm1.9 0h.5v.9h-.5v-.9zm1.7 0h.6v.9h-.6v-.9zm1.9.1h.6v.8h-.6v-.8zm1.9-.3h.5v1.1h-.5v-1.1zm1.8.2h.5v.9h-.5v-.9zm1.8-.1h.6v1h-.6v-1zm1.9.1h.6v.9h-.6v-.9zm1.8 0h.5v.9h-.5v-.9zm1.9.1h.5v.8h-.5v-.8zm1.9-.1h.5v.9h-.5v-.9zm1.7.2h.6v.7h-.6v-.7zm1.9-.1h.6v.8h-.6v-.8zm1.9.1h.5v.7h-.5v-.7zm1.8.1h.5v.6h-.5v-.6zm1.8.1h.6v.5h-.6v-.5zm1.9 0h.6v.5h-.6v-.5zm1.8-.1h.5v.6h-.5v-.6zm1.9.1h.5v.5h-.5v-.5zm1.9-.1h.5v.6h-.5v-.6zm1.7.1h.6v.5h-.6v-.5zm1.9.1h.6v.4h-.6v-.4zm1.9 0h.5v.4h-.5v-.4zm1.8 0h.5v.4h-.5v-.4zm1.8 0h.6v.4h-.6v-.4zm1.9.1h.6v.3h-.6v-.3zm1.8 0h.5v.3h-.5v-.3zm1.9 0h.5v.3h-.5v-.3zm1.8 0h.6v.3h-.6v-.3zm1.8 0h.6v.3h-.6v-.3zm1.9 0h.6v.3h-.6v-.3zm1.9.1h.5v.2h-.5v-.2zm1.8-.1h.5v.3h-.5v-.3zm1.8.1h.6v.2h-.6v-.2zm1.9 0h.6v.2h-.6v-.2zm1.8 0h.5v.2h-.5v-.2zm1.9 0h.5v.2h-.5v-.2zm1.8 0h.6v.2h-.6v-.2zm1.8 0h.6v.2h-.6v-.2zm1.9 0h.6v.2h-.6v-.2zm1.9 0h.5v.2h-.5v-.2zm1.8 0h.5v.2h-.5v-.2zm1.8 0h.6v.2h-.6v-.2zm1.9 0h.6v.2h-.6v-.2zm1.8 0h.5v.2h-.5v-.2zm1.9 0h.5v.2h-.5v-.2zm1.8 0h.6v.2h-.6v-.2zm1.8.1h.6v.1h-.6v-.1zm1.9 0h.6v.1h-.6v-.1zm1.9-.1h.5v.2h-.5v-.2zm1.8.1h.5v.1h-.5v-.1zm1.8 0h.6v.1h-.6v-.1zm1.9 0h.6v.1h-.6v-.1zm1.8 0h.5v.1h-.5v-.1zm1.9 0h.5v.1h-.5v-.1z" style="fill:#00457c;stroke:#00457c;stroke-width:1.4173;stroke-miterlimit:10" id="Graphen_00000115500420143128663610000017394546589503380633_"/><path d="M42.6 288.3V11m120.6 277.3V11" style="fill:none;stroke:#f59d21;stroke-width:.4252;stroke-miterlimit:10" id="Schwellenwert"/></svg>