<svg version="1.1" id="Ebene_1" xmlns="http://www.w3.org/2000/svg" x="0" y="0" viewBox="0 0 484.1 460.1" style="enable-background:new 0 0 484.1 460.1;background-color:#fff" xml:space="preserve"><style>.st1{fill:#f6f6f6}.st2,.st3{fill:none;stroke:#1a171b;stroke-width:.6;stroke-linecap:round;stroke-linejoin:round;stroke-miterlimit:10}.st3{stroke:#000;stroke-width:.1}.st5{font-family:Helvetica,Arial,sans-serif}.st6{font-size:17.0079px}.st7,.st9{fill:none;stroke:#000;stroke-width:.3;stroke-linecap:round;stroke-linejoin:round}.st9{stroke-miterlimit:10}</style><path class="st1" d="M73.6 155.3h341.1v168.1H269.8l-.9.2-.9.5-.6.8-.1 1v34.2l-1.7 1.7H248l-1.5-1.6v-21.5l-.3-.9-.6-1-.8-.6-1.1-.2-.9.2-1 .6-.6 1-.2.9v21.5l-1.5 1.5H209l-1.6-1.6v-31.2l-.2-1.4-.6-1.4-.8-1-1.2-1-1.3-.5-1.5-.2-1.4.2-1.3.5-1.1 1-1 1-.4 1.4-.3 1.4v19.2h-23.9v-21.5l-.2-1.2-.6-.9-1.1-.8-1.1-.2h-49.3l-1.2.2-1.1.8-.6.9-.2 1.2v21.7H73.6v-193z"/><path class="st2" d="M73.6 155.3h341.1v168.1H269.8l-.9.2-.9.5-.6.8-.1 1v34.2l-1.7 1.7H248l-1.5-1.6v-21.5l-.3-.9-.6-1-.8-.6-1.1-.2-.9.2-1 .6-.6 1-.2.9v21.5l-1.5 1.5H209l-1.6-1.6v-31.2l-.2-1.4-.6-1.4-.8-1-1.2-1-1.3-.5-1.5-.2-1.4.2-1.3.5-1.1 1-1 1-.4 1.4-.3 1.4v19.2h-23.9v-21.5l-.2-1.2-.6-.9-1.1-.8-1.1-.2h-49.3l-1.2.2-1.1.8-.6.9-.2 1.2v21.7H73.6v-193z"/><path class="st3" d="M117.6 324v-.1l-.2.1h.2z"/><path class="st3" d="m117.6 323.9-.2-.2v.3l.2-.1zm-.2-.2-.2.2.2.1v-.3zm-.3.3.1.2.2-.2h-.3zm.1.2h.2v-.2l-.2.2z"/><path class="st2" d="m75 181.1-.1-.3-.1.3h.2zm-.1-.3-.1-.1v.4l.1-.3zm-.1-.1-.3.1.3.3v-.4zm-.3.1v.3h.3l-.3-.3zm0 .3v.1l.3-.1h-.3zm0 .1.3.1v-.2l-.3.1zm.3.1.1-.1-.1-.1v.2z"/><path class="st2" d="m74.9 181.2.1-.1h-.2l.1.1zM69 345.8h4.6M31 47.1v-2.6m.1 3.2h1.8m-1.9-.6h34.8m-34.7 0v.6m1.8 0 1.1-.6"/><path class="st1" d="m65.8 47.1.4.3.2.3v343.2-.2l-1.2 13.9h2.7l1.1-13.7v-53.1h4.6l.7-.3.6-.6.1-.7V71.1l-.1-.7-.6-.6-.7-.1H69V45.9l-.1-.7-.6-.5-.7-.2H31"/><path class="st2" d="m65.8 47.1.4.3.2.3v343.2-.2l-1.2 13.9h2.7l1.1-13.7v-53.1h4.6l.7-.3.6-.6.1-.7V71.1l-.1-.7-.6-.6-.7-.1H69V45.9l-.1-.7-.6-.5-.7-.2H31"/><path class="st1" d="M73.6 188.5h92.3v48.8H73.6v-48.8z"/><path d="M73.6 188.5h92.3v48.8H73.6v-48.8z" style="fill:none;stroke:#1a171b;stroke-width:.495;stroke-linecap:round;stroke-linejoin:round;stroke-miterlimit:10"/><path class="st3" d="M233.7 347.2h1.9v11.5h-1.9v-11.5zm27 0h1.9v11.5h-1.9v-11.5zm-9 0h1.9v11.5h-1.9v-11.5zm6 0h1.9v11.5h-1.9v-11.5zm-30 0h1.9v11.5h-1.9v-11.5zm27 0h1.9v11.5h-1.9v-11.5zm-36 0h1.9v11.5h-1.9v-11.5zm30 0h1.9v11.5h-1.9v-11.5zm-12 0h1.9v11.5h-1.9v-11.5zm-6 0h1.9v11.5h-1.9v-11.5zm-15 0h1.9v11.5h-1.9v-11.5zm-3 0h1.9v11.5h-1.9v-11.5zm12 0h1.9v11.5h-1.9v-11.5zm-15 0h1.9v11.5h-1.9v-11.5zm12 0h1.9v11.5h-1.9v-11.5zm42 .2h1.9v9.5h-1.9v-9.5z"/><text transform="translate(207.091 14.596)" class="st5 st6">128.6</text><text transform="translate(226.082 126.726)" class="st5 st6">114.4</text><text transform="rotate(-90 124.513 109.917)" class="st5 st6">120</text><text transform="rotate(-90 368.443 -97.343)" class="st5 st6">68.8</text><path class="st7" d="M38.5 21.6h367.7"/><path d="m40.3 24.2-9.8-2.6 9.8-2.6v5.2zm364.1 0 9.8-2.6-9.8-2.6v5.2z"/><path d="M81.9 134.1h325.6" style="fill:none;stroke:#000;stroke-width:.261;stroke-linecap:round;stroke-linejoin:round"/><path d="m83.5 136.3-8.5-2.2 8.5-2.3v4.5zm322.4 0 8.5-2.2-8.5-2.3v4.5z"/><text transform="translate(128.48 454.604)" class="st5 st6">46.1</text><path class="st7" d="M78.2 434.5h120.7"/><path d="m80 437.1-9.7-2.6 9.7-2.7v5.3zm117.1 0 9.8-2.6-9.8-2.7v5.3z"/><path class="st7" d="M25 396.2V52"/><path d="m27.6 394.4-2.6 9.7-2.7-9.7h5.3zm0-340.6L25 44l-2.7 9.8h5.3z"/><path class="st7" d="M444.7 353.5V163.2"/><path d="m447.4 351.7-2.7 9.8-2.6-9.8h5.3zm0-186.7-2.7-9.7-2.6 9.7h5.3z"/><path class="st9" d="M31 47.1V15.6"/><path d="M67.9 404.6H10.7" style="fill:none;stroke:#000;stroke-width:.228;stroke-linecap:round;stroke-linejoin:round;stroke-miterlimit:10"/><path d="M414.2 156.3V10.6" style="fill:none;stroke:#000;stroke-width:.261;stroke-linecap:round;stroke-linejoin:round;stroke-miterlimit:10"/><path class="st9" d="M69 442.1v-84.5m137.9 84.5v-84.5"/><path d="M67.9 44.5H10.7" style="fill:none;stroke:#000;stroke-width:.274;stroke-linecap:round;stroke-linejoin:round;stroke-miterlimit:10"/><path d="M463.5 155.3H415m48.5 206.5H265.6" style="fill:none;stroke:#000;stroke-width:.292;stroke-linecap:round;stroke-linejoin:round;stroke-miterlimit:10"/><text transform="translate(344.95 422.462)" class="st5 st6">Not to scale</text><text transform="translate(344.25 445.864)" class="st5 st6">Dimensions in mm</text></svg>