<svg version="1.1" id="Ebene_1" xmlns="http://www.w3.org/2000/svg" xmlns:xlink="http://www.w3.org/1999/xlink" x="0" y="0" viewBox="0 0 800 661.3" style="enable-background:new 0 0 800 661.3;background-color:#fff" xml:space="preserve"><style>.st1{fill:none;stroke:#000;stroke-width:.425;stroke-linecap:round;stroke-linejoin:round;stroke-miterlimit:10}.st21{fill:#020203}.st23{font-family:Helvetica,Arial,sans-serif}.st24{font-size:14px}</style><path class="st1" d="M346 502.8v27l-1.5 1.4H136.8"/><defs><path id="SVGID_1_" d="M0 0h800v661.3H0z"/></defs><clipPath id="SVGID_2_"><use xlink:href="#SVGID_1_" style="overflow:visible"/></clipPath><path d="M262.8 518.4c0 2.8 2.3 5.1 5.1 5.1s5.1-2.3 5.1-5.1-2.3-5.1-5.1-5.1c-2.8-.1-5.1 2.2-5.1 5.1m85.9-394V123h-1.3m0 379.8h1.3v-1.5M0 501.3v1.5h1.4m0-379.8H0v1.4m75.8 394c0 2.8 2.3 5.1 5.1 5.1s5.1-2.3 5.1-5.1-2.3-5.1-5.1-5.1c-2.8-.1-5.1 2.2-5.1 5.1m0-411c0 2.8 2.3 5.1 5.1 5.1s5.1-2.3 5.1-5.1-2.3-5.1-5.1-5.1-5.1 2.3-5.1 5.1m187 0c0 2.8 2.3 5.1 5.1 5.1s5.1-2.3 5.1-5.1-2.3-5.1-5.1-5.1-5.1 2.3-5.1 5.1" style="clip-path:url(#SVGID_2_);fill:none;stroke:#000;stroke-width:.425;stroke-linecap:round;stroke-linejoin:round;stroke-miterlimit:10"/><defs><path id="SVGID_3_" d="M0 0h800v661.3H0z"/></defs><clipPath id="SVGID_4_"><use xlink:href="#SVGID_3_" style="overflow:visible"/></clipPath><path d="M2.9 123V96l1.4-1.5h340.2L346 96v27M126.9 531.2H4.3l-1.4-1.4v-27" style="clip-path:url(#SVGID_4_);fill:none;stroke:#000;stroke-width:.425;stroke-linecap:round;stroke-linejoin:round;stroke-miterlimit:10"/><defs><path id="SVGID_5_" d="M0 0h800v661.3H0z"/></defs><clipPath id="SVGID_6_"><use xlink:href="#SVGID_5_" style="overflow:visible"/></clipPath><path d="M16.4 490.7h-3.6v1.5h3.6v3.6h1.4v-3.6h3.6v-1.5h-3.6v-3.4h-1.4v3.4" style="clip-path:url(#SVGID_6_);fill:none;stroke:#000;stroke-width:.283;stroke-linecap:round;stroke-linejoin:round;stroke-miterlimit:10"/><defs><path id="SVGID_7_" d="M0 0h800v661.3H0z"/></defs><clipPath id="SVGID_8_"><use xlink:href="#SVGID_7_" style="overflow:visible"/></clipPath><path d="M10.8 491.5c0 3.4 2.8 6.2 6.2 6.2s6.2-2.8 6.2-6.2-2.8-6.2-6.2-6.2-6.2 2.8-6.2 6.2M0 124.4v376.9m1.4 1.5h346m1.3-1.5V124.4m-1.3-1.4H1.4" style="clip-path:url(#SVGID_8_);fill:none;stroke:#000;stroke-width:.425;stroke-linecap:round;stroke-linejoin:round;stroke-miterlimit:10"/><defs><path id="SVGID_9_" d="M0 0h800v661.3H0z"/></defs><clipPath id="SVGID_10_"><use xlink:href="#SVGID_9_" style="overflow:visible"/></clipPath><path d="M2.9 145.7v334.4M346 145.7H2.9M346 480.1V145.7M2.9 480.1H346" style="clip-path:url(#SVGID_10_);fill:none;stroke:#000;stroke-width:.283;stroke-linecap:round;stroke-linejoin:round;stroke-miterlimit:10;stroke-dasharray:8.504,2.835,8.504,2.835"/><defs><path id="SVGID_11_" d="M0 0h800v661.3H0z"/></defs><clipPath id="SVGID_12_"><use xlink:href="#SVGID_11_" style="overflow:visible"/></clipPath><path d="M173.7 490.7h-3.6v1.5h3.6v3.6h1.4v-3.6h3.6v-1.5h-3.6v-3.4h-1.4v3.4" style="clip-path:url(#SVGID_12_);fill:none;stroke:#000;stroke-width:.283;stroke-linecap:round;stroke-linejoin:round;stroke-miterlimit:10"/><defs><path id="SVGID_13_" d="M0 0h800v661.3H0z"/></defs><clipPath id="SVGID_14_"><use xlink:href="#SVGID_13_" style="overflow:visible"/></clipPath><path d="M168.1 491.5c0 3.4 2.8 6.2 6.2 6.2s6.2-2.8 6.2-6.2-2.8-6.2-6.2-6.2-6.2 2.8-6.2 6.2" style="clip-path:url(#SVGID_14_);fill:none;stroke:#000;stroke-width:.425;stroke-linecap:round;stroke-linejoin:round;stroke-miterlimit:10"/><defs><path id="SVGID_15_" d="M0 0h800v661.3H0z"/></defs><clipPath id="SVGID_16_"><use xlink:href="#SVGID_15_" style="overflow:visible"/></clipPath><path d="M331 490.7h-3.6v1.5h3.6v3.6h1.5v-3.6h3.6v-1.5h-3.6v-3.4H331v3.4" style="clip-path:url(#SVGID_16_);fill:none;stroke:#000;stroke-width:.283;stroke-linecap:round;stroke-linejoin:round;stroke-miterlimit:10"/><defs><path id="SVGID_17_" d="M0 0h800v661.3H0z"/></defs><clipPath id="SVGID_18_"><use xlink:href="#SVGID_17_" style="overflow:visible"/></clipPath><path d="M325.4 491.5c0 3.4 2.8 6.2 6.2 6.2 3.4 0 6.2-2.8 6.2-6.2s-2.8-6.2-6.2-6.2c-3.4 0-6.2 2.8-6.2 6.2" style="clip-path:url(#SVGID_18_);fill:none;stroke:#000;stroke-width:.425;stroke-linecap:round;stroke-linejoin:round;stroke-miterlimit:10"/><defs><path id="SVGID_19_" d="M0 0h800v661.3H0z"/></defs><clipPath id="SVGID_20_"><use xlink:href="#SVGID_19_" style="overflow:visible"/></clipPath><path d="M16.4 133.4h-3.6v1.5h3.6v3.6h1.4v-3.6h3.6v-1.5h-3.6V130h-1.4v3.4" style="clip-path:url(#SVGID_20_);fill:none;stroke:#000;stroke-width:.283;stroke-linecap:round;stroke-linejoin:round;stroke-miterlimit:10"/><defs><path id="SVGID_21_" d="M0 0h800v661.3H0z"/></defs><clipPath id="SVGID_22_"><use xlink:href="#SVGID_21_" style="overflow:visible"/></clipPath><path d="M10.8 134.2c0 3.4 2.8 6.2 6.2 6.2s6.2-2.8 6.2-6.2-2.8-6.2-6.2-6.2-6.2 2.8-6.2 6.2" style="clip-path:url(#SVGID_22_);fill:none;stroke:#000;stroke-width:.425;stroke-linecap:round;stroke-linejoin:round;stroke-miterlimit:10"/><defs><path id="SVGID_23_" d="M0 0h800v661.3H0z"/></defs><clipPath id="SVGID_24_"><use xlink:href="#SVGID_23_" style="overflow:visible"/></clipPath><path d="M173.7 133.4h-3.6v1.5h3.6v3.6h1.4v-3.6h3.6v-1.5h-3.6V130h-1.4v3.4" style="clip-path:url(#SVGID_24_);fill:none;stroke:#000;stroke-width:.283;stroke-linecap:round;stroke-linejoin:round;stroke-miterlimit:10"/><defs><path id="SVGID_25_" d="M0 0h800v661.3H0z"/></defs><clipPath id="SVGID_26_"><use xlink:href="#SVGID_25_" style="overflow:visible"/></clipPath><path d="M168.1 134.2c0 3.4 2.8 6.2 6.2 6.2s6.2-2.8 6.2-6.2-2.8-6.2-6.2-6.2-6.2 2.8-6.2 6.2" style="clip-path:url(#SVGID_26_);fill:none;stroke:#000;stroke-width:.425;stroke-linecap:round;stroke-linejoin:round;stroke-miterlimit:10"/><defs><path id="SVGID_27_" d="M0 0h800v661.3H0z"/></defs><clipPath id="SVGID_28_"><use xlink:href="#SVGID_27_" style="overflow:visible"/></clipPath><path d="M331 133.4h-3.6v1.5h3.6v3.6h1.5v-3.6h3.6v-1.5h-3.6V130H331v3.4" style="clip-path:url(#SVGID_28_);fill:none;stroke:#000;stroke-width:.283;stroke-linecap:round;stroke-linejoin:round;stroke-miterlimit:10"/><defs><path id="SVGID_29_" d="M0 0h800v661.3H0z"/></defs><clipPath id="SVGID_30_"><use xlink:href="#SVGID_29_" style="overflow:visible"/></clipPath><path d="M325.4 134.2c0 3.4 2.8 6.2 6.2 6.2 3.4 0 6.2-2.8 6.2-6.2s-2.8-6.2-6.2-6.2c-3.4 0-6.2 2.8-6.2 6.2" style="clip-path:url(#SVGID_30_);fill:none;stroke:#000;stroke-width:.425;stroke-linecap:round;stroke-linejoin:round;stroke-miterlimit:10"/><path class="st1" d="M409.2 636.3v-85.1m-177.8 85.1v-85.1m177.8 84.6h4.5v-14.4m0-48.2v-21.3h-4.5m-177.8 7.6h-4.5m4.5-7.6h-4.5m4.5 83.9h-4.5v-83.9m4.5 76.2h-4.5m4.5-33.5h177.8m0-2.9H231.4m0 5.6h177.8m0-8.5H231.4m0 11.4h177.8m0-14.3H231.4m0 17.1h177.8m0-19.8H231.4m0 22.7h177.8m0-25.5H231.4m0 28.2h177.8m0-31.1H231.4m0 34h177.8m0-36.9H231.4m0 39.8h177.8m0-42.5H231.4m0 45.2h177.8m0-48.1H231.4m0 51h177.8m0-53.9H231.4m0 56.7h177.8m0-59.5H231.4m0 73h177.8m-177.8-10.6h177.8m-177.8-74.5h177.8m4.5 70.2h.9v-48.2h-.9m-286.5 11.3v-81.7m10.1 81.7v-81.7"/><defs><path id="SVGID_31_" d="M0 0h800v661.3H0z"/></defs><clipPath id="SVGID_32_"><use xlink:href="#SVGID_31_" style="overflow:visible"/></clipPath><path d="M127.2 584.4c0 18.4 14.9 33.4 33.4 33.4" style="clip-path:url(#SVGID_32_);fill:none;stroke:#000;stroke-width:.425;stroke-linecap:round;stroke-linejoin:round;stroke-miterlimit:10"/><defs><path id="SVGID_33_" d="M0 0h800v661.3H0z"/></defs><clipPath id="SVGID_34_"><use xlink:href="#SVGID_33_" style="overflow:visible"/></clipPath><path d="M137.3 584.4c0 12.9 10.4 23.3 23.3 23.3m42.5 10.1h-42.5m41.2-10.1h-41.2m66.3 10.1h-18.4m18.4-10.1h-19.5" style="clip-path:url(#SVGID_34_);fill:none;stroke:#000;stroke-width:.425;stroke-linecap:round;stroke-linejoin:round;stroke-miterlimit:10"/><defs><path id="SVGID_35_" d="M0 0h800v661.3H0z"/></defs><clipPath id="SVGID_36_"><use xlink:href="#SVGID_35_" style="overflow:visible"/></clipPath><path d="M207.3 607.7c-1.8 0-1 2.9-.1 4.6 4.7 9.5-3.4 4.7-.2-.2m-4 5.8c1.8 0 1-2.9.1-4.6-4.7-9.5 3.4-4.7.2.2" style="clip-path:url(#SVGID_36_);fill:none;stroke:#000;stroke-width:.283;stroke-linecap:round;stroke-linejoin:round;stroke-miterlimit:10"/><path d="m265.3 101.7-28.1-60.2h-62.4" style="fill:none;stroke:#020203;stroke-width:.283;stroke-miterlimit:10"/><path class="st21" d="m266.5 99.6 1.4 7.8-5.1-6.1 3.7-1.7z"/><path d="M69.6 518.4h22.6M80.9 507v22.7m175.7-11.3h22.7M267.9 507v22.7M69.6 107.4h22.6M80.9 96.1v22.7m175.7-11.4h22.7m-11.4-11.3v22.7" style="fill:none;stroke:#020203;stroke-width:.283;stroke-linecap:round;stroke-linejoin:round;stroke-miterlimit:10;stroke-dasharray:8.504,1.417,1.417,1.417"/><text transform="translate(434.901 620.9)" class="st23 st24">Not to scale</text><text transform="translate(434.901 636.3)" class="st23 st24">Dimensions in mm</text><text transform="translate(177.23 37.014)" class="st21 st23 st24">4 x Ø 3.6 </text></svg>