<svg version="1.1" id="Ebene_1" xmlns="http://www.w3.org/2000/svg" x="0" y="0" viewBox="0 0 402.5 198.8" style="enable-background:new 0 0 402.5 198.8;background-color:#fff" xml:space="preserve"><style>.st0{fill:none;stroke:#1c1c1a;stroke-width:1.13;stroke-linecap:round;stroke-linejoin:round}.st4{font-family:Helvetica,Arial,sans-serif}.st5{font-size:17.0079px}.st6{fill:none;stroke:#000;stroke-width:.28;stroke-linecap:round;stroke-linejoin:round}</style><path class="st0" d="M97.4 59h169.7v139.2H97.4V59z"/><path d="M109.3 72.2H140v20.1h-30.7V72.2z" style="fill:#ffed00;stroke:#1c1c1a;stroke-width:1.35;stroke-linecap:round;stroke-linejoin:round"/><path d="M225.9 72.2h30.7v20.1h-30.7V72.2z" style="fill:#0f0;stroke:#1c1c1a;stroke-width:1.35;stroke-linecap:round;stroke-linejoin:round"/><path class="st0" d="M204.1 86h13.7v11.8h5.7v7.4h21.1v74.7H120.3l.1-74.1h21.1v-7.9h5.7V86h13.7v-8.6h43.2V86"/><path d="M145.8 150.9V179m4.3 0v-28.1h-4.3m49.3 0V179m4.4 0v-28.1h-4.3m9.8 0V179m4.3 0v-28.1H205m-19.7 0V179m4.3 0v-28.1h-4.3m-9.9 0V179m4.3 0v-28.1h-4.3m-9.9 0V179m4.3 0v-28.1h-4.3m49.4 0V179m4.3 0v-28.1h-4.3m-59.3 0V179m4.4 0v-28.1h-4.3" style="fill:none;stroke:#000;stroke-width:1.13;stroke-linecap:round;stroke-linejoin:round"/><text transform="translate(0 14.596)" class="st4 st5">Link LED</text><text transform="translate(300.33 14.596)" class="st4 st5">Network LED</text><path class="st6" d="m262.6 63.8 34.6-46.1H399"/><path d="m266.6 63.9-10 7.8 4.7-11.8 5.3 4z"/><path class="st6" d="M103.5 63.8 68.9 17.6H1.3"/><path d="m104.8 60 4.8 11.8-10-7.8 5.2-4z"/></svg>