<svg version="1.1" id="svg472" xmlns="http://www.w3.org/2000/svg" x="0" y="0" viewBox="0 0 578.3 164" style="enable-background:new 0 0 578.3 164;background-color:#fff" xml:space="preserve"><style>.st1{fill:none;stroke:#000;stroke-width:.4252;stroke-miterlimit:3.86}.st3{fill:#1d1d1b}.st4{fill:none;stroke:#1d1d1b;stroke-width:.4252;stroke-miterlimit:3.86}.st6{font-family:Helvetica,Arial,sans-serif}.st7{font-size:9.2877px}.st8{font-size:8.6243px}</style><g id="Layer_1"><g id="timelines"><path id="path386" class="st1" d="M51 140.1h439.2"/><path id="path388" d="m489.2 141.6 5.4-1.5-5.4-1.5v3z"/><path id="path390" d="M100.7 51v58m186.4-58v57.3" style="fill:none;stroke:#000;stroke-width:.4252;stroke-miterlimit:3.86;stroke-dasharray:3.78,2.27"/></g><path id="path393" class="st1" d="M482.2 51h-74.6V38.6h-4.2V51H391V38.6h-4.2V51h-12.4V38.6h-4.2V51h-12.4V38.6h-4.2V51H337V38.6h-4.1V51h-12.5V38.6h-4.1V51h-12.5V38.6h-4.1V51h-12.5V38.6h-4.1V51h-62.2V38.6h-4.1V51h-12.5V38.6h-4.1V51h-12.5V38.6h-4.1V51h-12.5V38.6H167V51h-16.6V38.6h-4.2V51h-12.4V38.6h-4.2V51h-12.4V38.6H113V51h-12.4V38.6h-4.2V51H34.1m-.2 58h73V96.6h4.2V109h12.4V96.6h4.2V109h12.4V96.6h4.2V109h12.4V96.6h4.2V109h16.6V96.6h4.1V109H194V96.6h4.1V109h12.5V96.6h4.1V109h12.5V96.6h4.1V109h62.2V96.6h4.1V109h12.5V96.6h4.1V109h12.5V96.6h4.1V109h12.5V96.6h4.1V109H364V96.6h4.2V109h12.4V96.6h4.2V109h12.4V96.6h4.2V109h12.4V96.6h4.2V109h64.3M106.6 82.1H101"/><path id="path395" d="M106.3 80.1h.6V84h-.6v-3.9zm-5.6 0h.6V84h-.6v-3.9z"/><path id="path397" class="st1" d="M94.2 113.2h-9.8"/><path id="path399" d="M93.9 111.2h.6v3.9h-.6v-3.9zm-9.7 0h.6v3.9h-.6v-3.9z"/><path id="path401" class="st1" d="M293.2 84.1h-5.6"/><path id="path403" d="M292.9 82.2h.6v3.9h-.6v-3.9zm-5.6 0h.6v3.9h-.6v-3.9z"/><path id="path405" class="st1" d="M220.6 17.8H96.8"/><path id="path407" d="M220.3 15.9h.6v3.8h-.6v-3.8zm-123.7 0h.6v3.8h-.6v-3.8z"/><path id="path409" class="st1" d="M407.2 17.8H283.4"/><path id="path411" d="M406.9 15.9h.6v3.8h-.6v-3.8zm-123.7 0h.6v3.8h-.6v-3.8z"/><path id="path413" class="st3" d="M23.8 59.8h.3v31.8h-.3V59.8z"/><path id="path415" class="st3" d="m22.7 60.6 1.2-4.6 1.2 4.6h-2.4zm0 30.1 1.2 4.6 1.2-4.6h-2.4z"/><circle id="circle417" class="st4" cx="11" cy="75.7" r="5.3"/><path id="path419" d="M11 75.7v-4.1m3.8 4.1H11" style="fill:none;stroke:#1d1d1b;stroke-width:.4252;stroke-linecap:round;stroke-miterlimit:3.86"/><g id="blaze"><path id="path421" class="st4" d="m10.8 114.3.5.5h22.3l.5-.5V96.4l-.5-.5H11.3l-.5.5v17.9"/><path id="path423" class="st4" d="M19.7 102.6c.1-.2.1-.4 0-.5s-.3-.1-.4 0h-5.5c-.1-.1-.3-.1-.4 0-.1.1-.1.3 0 .4v4.7c-.1.1-.1.3 0 .4s.3.1.4 0h5.5c.1.1.3.1.4 0s.1-.3 0-.4v-4.6zm8.5.1c0-.1.1-.1 0 0 .1-.2.1-.4 0-.5s-.3-.1-.5 0h-5.5c-.1-.1-.3-.1-.5 0-.1.1-.1.3 0 .5v4.7c-.1.1-.1.3 0 .5.1.1.3.1.5 0h5.5c.1.1.3.1.5 0 .1-.1.1-.3 0-.5v-4.7z"/><path id="path425" class="st4" d="M23.5 103.4h1.2v1.2h-1.2v-1.2zm0 1.9h1.2v1.2h-1.2v-1.2zm1.9-1.9h1.2v1.2h-1.2v-1.2zm0 1.9h1.2v1.2h-1.2v-1.2z"/><circle id="circle427" class="st4" cx="16.5" cy="105" r="2.1"/></g><g id="blaze_00000180354329676148031330000004299166360057571223_"><path id="path430" class="st4" d="m10.8 54.1.5.5h22.3l.5-.5V36.2l-.5-.4H11.3l-.5.4v17.9"/><path id="path432" class="st4" d="M19.7 42.5s0-.1 0 0c.1-.2.1-.4 0-.5s-.3-.1-.4 0h-5.5c-.1-.1-.3-.1-.4 0-.1.1-.1.3 0 .4v4.7c-.1.1-.1.3 0 .4.1.1.3.1.4 0h5.5c.1.1.3.1.4 0s.1-.3 0-.4v-4.6zm8.5 0s.1-.1 0 0c.1-.2.1-.4 0-.5s-.3-.1-.5 0h-5.5c-.1-.1-.3-.1-.5 0-.1.1-.1.3 0 .5v4.7c-.1.1-.1.3 0 .5.1.1.3.1.5 0h5.5c.1.1.3.1.5 0 .1-.1.1-.3 0-.5v-4.7z"/><path id="path434" class="st4" d="M23.5 43.3h1.2v1.2h-1.2v-1.2zm0 1.8h1.2v1.2h-1.2v-1.2zm1.9-1.8h1.2v1.2h-1.2v-1.2zm0 1.8h1.2v1.2h-1.2v-1.2z"/><circle id="circle436" class="st4" cx="16.5" cy="44.8" r="2.1"/></g></g><g id="Text"><g id="text"><text id="text440" transform="translate(38.86 33.082)" class="st6 st7">Timer start</text><text id="text442" transform="translate(49.073 90.802)" class="st6 st7">Timer start</text><text id="text444" transform="translate(106.85 77.825)" class="st6 st8">Safety margin</text><text id="text446" transform="translate(139.661 13.561)" class="st6 st7">Frame 1</text><text id="text448" transform="translate(326.243 13.561)" class="st6 st7">Frame 2</text><text id="text450" transform="translate(293.43 81.97)" class="st6 st8">Safety margin</text><path id="path452" d="M94.5 94.5V109M84.2 36.4V51" style="fill:none;stroke:#000;stroke-width:.75;stroke-miterlimit:3.86;stroke-dasharray:3.78,2.27"/><text id="text454" transform="translate(27.035 72.39)" class="st6 st8">PTP </text><text id="text456" transform="translate(27.035 82.74)" class="st6 st8">sync</text><text id="text458" transform="translate(89.222 126.14)" class="st6 st7">Trigger offset</text><text id="text460" transform="translate(257.979 151.927)" class="st6 st7">Time</text><text id="text462" transform="translate(497.66 47.175)" class="st6 st7">Image acquisition </text><text id="text464" transform="translate(497.66 58.32)" class="st6 st7">on camera 1</text><text id="text466" transform="translate(497.66 104.33)" class="st6 st7">Image acquisition </text><text id="text468" transform="translate(497.66 115.475)" class="st6 st7">on camera 2</text></g></g></svg>