<svg version="1.1" id="Ebene_1" xmlns="http://www.w3.org/2000/svg" x="0" y="0" viewBox="0 0 578 479.1" style="enable-background:new 0 0 578 479.1;background-color:#fff" xml:space="preserve"><style>.st1{fill:#f6f6f6}.st2,.st4{fill:none;stroke:#1a171b;stroke-width:.6;stroke-linecap:round;stroke-linejoin:round;stroke-miterlimit:10}.st4{stroke-width:.532}.st5{font-family:Helvetica,Arial,sans-serif}.st6{font-size:17.0079px}.st7,.st8{fill:none;stroke:#000;stroke-width:.3;stroke-linecap:round;stroke-linejoin:round}.st8{stroke-width:.323;stroke-miterlimit:10}</style><path class="st1" d="M69.6 67.3h446.8v79h24.3v196.1H309.8l-.9.2-.9.5-.6.8-.1 1v34.2l-1.7 1.7H245l-1.5-1.6v-21.5l-.3-.9-.6-1-.8-.6-1.1-.2-.9.2-1 .6-.6 1-.2.9v21.5l-1.5 1.5H206l-1.6-1.6v-31.2l-.2-1.4-.6-1.4-.8-1-1.2-1-1.3-.5-1.5-.2-1.4.2-1.3.5-1.1 1-1 1-.4 1.4-.3 1.4v19.2h-23.9v-21.5l-.2-1.2-.6-.9-1.1-.8-1.1-.2h-49.3l-1.2.2-1.1.8-.6.9-.2 1.2v21.7H69.6v-300z"/><path class="st2" d="M69.6 67.3h446.8v79h24.3v196.1H309.8l-.9.2-.9.5-.6.8-.1 1v34.2l-1.7 1.7H245l-1.5-1.6v-21.5l-.3-.9-.6-1-.8-.6-1.1-.2-.9.2-1 .6-.6 1-.2.9v21.5l-1.5 1.5H206l-1.6-1.6v-31.2l-.2-1.4-.6-1.4-.8-1-1.2-1-1.3-.5-1.5-.2-1.4.2-1.3.5-1.1 1-1 1-.4 1.4-.3 1.4v19.2h-23.9v-21.5l-.2-1.2-.6-.9-1.1-.8-1.1-.2h-49.3l-1.2.2-1.1.8-.6.9-.2 1.2v21.7H69.6v-300z"/><path class="st2" d="m73 200.1-.1-.3-.1.3h.2zm-.1-.3-.1-.1v.4l.1-.3zm-.1-.1-.3.1.3.3v-.4zm-.3.1v.3h.3l-.3-.3zm0 .3v.1l.3-.1h-.3zm0 .1.3.1v-.2l-.3.1zm.3.1.1-.1-.1-.1v.2z"/><path class="st2" d="m72.9 200.2.1-.1h-.2l.1.1zM67 364.8h4.6M29 66.1v-2.6m.1 3.2h1.8m-1.9-.6h34.8m-34.7 0v.6m1.8 0 1.1-.6"/><path class="st1" d="m63.8 66.1.4.3.2.3v343l-1.2 13.9h2.7l1.1-13.7v-53.1h4.6l.7-.3.6-.6.1-.7V90.1l-.1-.7-.6-.6-.7-.1H67V64.9l-.1-.7-.6-.5-.7-.2H29"/><path class="st2" d="m63.8 66.1.4.3.2.3v343l-1.2 13.9h2.7l1.1-13.7v-53.1h4.6l.7-.3.6-.6.1-.7V90.1l-.1-.7-.6-.6-.7-.1H67V64.9l-.1-.7-.6-.5-.7-.2H29"/><path d="M295.3 364h1.9v11.5h-1.9V364zm3 0h1.9v11.5h-1.9V364zm-12 0h1.9v11.5h-1.9V364zm6 0h1.9v11.5h-1.9V364zm-9 0h1.9v11.5h-1.9V364zm6 0h1.9v11.5h-1.9V364zm-15 0h1.9v11.5h-1.9V364zm6 0h1.9v11.5h-1.9V364zm-9 0h1.9v11.5h-1.9V364zm6 0h1.9v11.5h-1.9V364zm-15 0h1.9v11.5h-1.9V364zm6 0h1.9v11.5h-1.9V364zm-12 0h1.9v11.5h-1.9V364zm9 0h1.9v11.5h-1.9V364zm-18 0h1.9v11.5h-1.9V364zm6 0h1.9v11.5h-1.9V364zm-3 0h1.9v11.5h-1.9V364zm-6 0h1.9v11.5h-1.9V364zm60 0h1.9v11.5h-1.9V364zm-3 .1h1.9v9.5h-1.9v-9.5zm-42 0h1.9v9.5h-1.9v-9.5zm-30-.1h1.9v11.5h-1.9V364zm-6 0h1.9v11.5h-1.9V364zm-9 0h1.9v11.5h-1.9V364zm18 0h1.9v11.5h-1.9V364zm-6 0h1.9v11.5h-1.9V364zm9 0h1.9v11.5h-1.9V364zm-24 0h1.9v11.5h-1.9V364zm-3 0h1.9v11.5h-1.9V364zm12 0h1.9v11.5h-1.9V364zm-15 0h1.9v11.5h-1.9V364zm12 0h1.9v11.5h-1.9V364z" style="fill:none;stroke:#000;stroke-width:.1;stroke-linecap:round;stroke-linejoin:round;stroke-miterlimit:10"/><path class="st1" d="M62.3 109.3h100.8v51.6H62.3v-51.6z"/><path class="st4" d="M62.3 109.3h100.8v51.6H62.3v-51.6z"/><path class="st1" d="M62.3 167.5h100.8v51.6H62.3v-51.6z"/><path class="st4" d="M62.3 167.5h100.8v51.6H62.3v-51.6z"/><path class="st1" d="M62.3 225.7h100.8v51.6H62.3v-51.6z"/><path class="st4" d="M62.3 225.7h100.8v51.6H62.3v-51.6z"/><path class="st1" d="M62.3 284h100.8v51.6H62.3V284z"/><path class="st4" d="M62.3 284h100.8v51.6H62.3V284z"/><text transform="translate(258.029 14.596)" class="st5 st6">170.9</text><text transform="translate(277.378 46.726)" class="st5 st6">156.7</text><text transform="rotate(-90 135.013 120.417)" class="st5 st6">120</text><text transform="rotate(-90 404.178 -168.299)" class="st5 st6">104.4</text><path class="st7" d="M36.5 20.6h495.2"/><path d="m38.3 23.2-9.8-2.6 9.8-2.6v5.2zm491.6 0 9.7-2.6-9.7-2.6v5.2z"/><path class="st7" d="M78 53.1h454.9"/><path d="M79.8 55.7 70 53.1l9.8-2.6v5.2zm451.4 0 9.7-2.6-9.7-2.6v5.2z"/><text transform="translate(122.48 473.604)" class="st5 st6">46.1</text><path class="st7" d="M76.2 453.5h118.7"/><path d="m78 456.1-9.7-2.6 9.7-2.7v5.3zm115.1 0 9.8-2.6-9.8-2.7v5.3z"/><path class="st7" d="M23 415.2V71"/><path d="m25.6 413.4-2.6 9.7-2.7-9.7h5.3zm0-340.6L23 63l-2.7 9.8h5.3z"/><path class="st7" d="M551.4 372.5V75.2"/><path d="m554 370.7-2.6 9.8-2.6-9.8h5.2zM554 77l-2.6-9.7-2.6 9.7h5.2z"/><path class="st8" d="M29 66.9V12.4m40.3 54.5V42.4"/><path d="M65.9 423.6H8.7" style="fill:none;stroke:#000;stroke-width:.228;stroke-linecap:round;stroke-linejoin:round;stroke-miterlimit:10"/><path class="st8" d="M540.7 175.3V6.6"/><path d="M67 461.1v-84.5m137 84.5v-84.5" style="fill:none;stroke:#000;stroke-width:.3;stroke-linecap:round;stroke-linejoin:round;stroke-miterlimit:10"/><path d="M65.9 63.5H8.7" style="fill:none;stroke:#000;stroke-width:.274;stroke-linecap:round;stroke-linejoin:round;stroke-miterlimit:10"/><path d="M568.9 67.3h-53.5m54.8 313.5H302.3" style="fill:none;stroke:#000;stroke-width:.292;stroke-linecap:round;stroke-linejoin:round;stroke-miterlimit:10"/><text transform="translate(437.95 442.462)" class="st5 st6">Not to scale</text><text transform="translate(437.25 465.864)" class="st5 st6">Dimensions in mm</text></svg>