<svg version="1.1" id="Ebene_1" xmlns="http://www.w3.org/2000/svg" xmlns:xlink="http://www.w3.org/1999/xlink" x="0" y="0" viewBox="0 0 334.8 243.3" style="enable-background:new 0 0 334.8 243.3;background-color:#fff" xml:space="preserve"><style>.st0{fill:none;stroke:#d9d9d9;stroke-width:.75;stroke-linejoin:round;stroke-miterlimit:10}.st3{fill:#595959}.st4{font-family:&apos;Calibri&apos;}.st5{font-size:9px}.st7{font-family:Helvetica,Arial,sans-serif}.st8{font-size:9.96px}.st10{fill:#030304}</style><path class="st0" d="M45.1 16.2h269.7M45.1 50.7h269.7M45.1 85.2h269.7M45.1 119.7h269.7M45.1 154.2h269.7m0-138v172.6M287.9 16.2v172.6m-27-172.6v172.6m-27-172.6v172.6M207 16.2v172.6M180 16.2v172.6M153 16.2v172.6M126 16.2v172.6M99.1 16.2v172.6m-27-172.6v172.6m-27-172.6v172.6m0-.1h269.7"/><defs><path id="SVGID_1_" d="M45.1 16.1h270.4v173.3H45.1z"/></defs><clipPath id="SVGID_00000070084380609325488550000016891337726157577908_"><use xlink:href="#SVGID_1_" style="overflow:visible"/></clipPath><path style="clip-path:url(#SVGID_00000070084380609325488550000016891337726157577908_);fill:none;stroke:#5c9bd4;stroke-width:2.25;stroke-linecap:round;stroke-linejoin:round;stroke-miterlimit:10" d="m45.1 16.2 27 .2 27 .6 26.9 1 27 1.5 27 1.9 27 2 26.9 2.9 27 6.3 27 8.6 26.9 17.3"/><path style="clip-path:url(#SVGID_00000070084380609325488550000016891337726157577908_);fill:none;stroke:#ee7e32;stroke-width:2.25;stroke-linecap:round;stroke-linejoin:round;stroke-miterlimit:10" d="m45.1 16.2 27 .2 27 .6 26.9 1 27 1.5 27 1.8 27 2.1 26.9 2.4 27 2.7 27 2.9 26.9 10.1"/><text transform="translate(32.232 191.28)" class="st3 st4 st5">0</text><text transform="translate(25.428 156.764)"><tspan x="0" y="0" class="st3 st4 st5">0</tspan><tspan x="4.6" y="0" class="st3 st4 st5">,</tspan><tspan x="6.8" y="0" class="st3 st4 st5">2</tspan></text><text transform="translate(25.428 122.25)"><tspan x="0" y="0" class="st3 st4 st5">0</tspan><tspan x="4.6" y="0" class="st3 st4 st5">,</tspan><tspan x="6.8" y="0" class="st3 st4 st5">4</tspan></text><text transform="translate(25.428 87.734)"><tspan x="0" y="0" class="st3 st4 st5">0</tspan><tspan x="4.6" y="0" class="st3 st4 st5">,</tspan><tspan x="6.8" y="0" class="st3 st4 st5">6</tspan></text><text transform="translate(25.428 53.219)"><tspan x="0" y="0" class="st3 st4 st5">0</tspan><tspan x="4.6" y="0" class="st3 st4 st5">,</tspan><tspan x="6.8" y="0" class="st3 st4 st5">8</tspan></text><text transform="translate(32.232 18.704)" class="st3 st4 st5">1</text><text transform="translate(42.86 202.997)" class="st3 st4 st5">0</text><text transform="translate(65.046 202.997)"><tspan x="0" y="0" class="st3 st4 st5">-1</tspan><tspan x="7.3" y="0" class="st3 st4 st5">,</tspan><tspan x="9.6" y="0" class="st3 st4 st5">6</tspan></text><text transform="translate(92.01 202.997)"><tspan x="0" y="0" class="st3 st4 st5">-3</tspan><tspan x="7.3" y="0" class="st3 st4 st5">,</tspan><tspan x="9.6" y="0" class="st3 st4 st5">2</tspan></text><text transform="translate(118.974 202.997)"><tspan x="0" y="0" class="st3 st4 st5">-4</tspan><tspan x="7.3" y="0" class="st3 st4 st5">,</tspan><tspan x="9.6" y="0" class="st3 st4 st5">8</tspan></text><text transform="translate(145.938 202.997)"><tspan x="0" y="0" class="st3 st4 st5">-6</tspan><tspan x="7.3" y="0" class="st3 st4 st5">,</tspan><tspan x="9.6" y="0" class="st3 st4 st5">4</tspan></text><text transform="translate(176.304 202.997)" class="st3 st4 st5">-8</text><text transform="translate(199.866 202.997)"><tspan x="0" y="0" class="st3 st4 st5">-9</tspan><tspan x="7.3" y="0" class="st3 st4 st5">,</tspan><tspan x="9.6" y="0" class="st3 st4 st5">6</tspan></text><text transform="translate(224.553 202.997)"><tspan x="0" y="0" class="st3 st4 st5">-11</tspan><tspan x="11.9" y="0" class="st3 st4 st5">,</tspan><tspan x="14.2" y="0" class="st3 st4 st5">2</tspan></text><text transform="translate(251.517 202.997)"><tspan x="0" y="0" class="st3 st4 st5">-12</tspan><tspan x="11.9" y="0" class="st3 st4 st5">,</tspan><tspan x="14.2" y="0" class="st3 st4 st5">8</tspan></text><text transform="translate(278.48 202.997)"><tspan x="0" y="0" class="st3 st4 st5">-14</tspan><tspan x="11.9" y="0" class="st3 st4 st5">,</tspan><tspan x="14.2" y="0" class="st3 st4 st5">4</tspan></text><text transform="translate(308.847 202.997)" class="st3 st4 st5">-16</text><path class="st0" d="M.4.4h334.1v242.5H.4z"/><path style="fill:none;stroke:#ee7e32;stroke-width:3.25;stroke-miterlimit:8" d="m55.9 155.9 26.3.4"/><text transform="translate(113.143 160.845)" class="st7 st8"> </text><path style="fill:none;stroke:#5c9bd4;stroke-width:3.25;stroke-miterlimit:8" d="M55.9 177h26.3"/><text transform="translate(110.745 179.685)" class="st7 st8"> </text><text transform="translate(129.645 225.337)" class="st10 st7 st8">Image Height [mm]</text><text transform="rotate(-90.213 89.206 73.148)" class="st10 st7 st8">Relative Illumination [%]</text><text transform="translate(93.178 160.368)" class="st7 st5">f/3.5</text><text transform="translate(93.355 179.4)" class="st7 st5">f/2.8</text></svg>