<svg version="1.1" id="Ebene_1" xmlns="http://www.w3.org/2000/svg" xmlns:xlink="http://www.w3.org/1999/xlink" x="0" y="0" viewBox="0 0 800 370" style="enable-background:new 0 0 800 370;background-color:#fff" xml:space="preserve"><style>.st9{fill:none;stroke:#020203;stroke-width:.283;stroke-miterlimit:10}.st10{fill:#020203}.st11{font-family:Helvetica,Arial,sans-serif}.st12{font-size:11.9999px}</style><path d="M620.6 292.4h-66.9m0 4.9h67.6m-67.6 1.3V291" style="fill:none;stroke:#000;stroke-width:.425;stroke-linecap:round;stroke-linejoin:round;stroke-miterlimit:10"/><defs><path id="SVGID_1_" d="M0 0h800v370H0z"/></defs><clipPath id="SVGID_2_"><use xlink:href="#SVGID_1_" style="overflow:visible"/></clipPath><path d="M546.6 305.8c3.9 0 7.1-3.2 7.1-7.1m0-7.6c0-3.9-3.2-7.1-7.1-7.1m-1.2-.2v-.3h-13.3v22.7h13.3v-11h-13.3m13.3-11.4v11.4m-17.3-6.3V282m0 25.8v-18.9m-7-6.9h7m-7 25.8h7m-7.7 28.2h0l.7-.7-.7.7m0-69.4.7.7m-394 68 .7.7-.7-.7m0 0v-68l.7-.7m393.3 68.7v-68m-.7 68.7h-9.9 9.9m-9.9-19.9v-4.2m0 12.6v-8.3m0 12.6v-4.1m0 9.9V329m0-37.2v-16.2m0 29.7v-8.7M137.7 336h372.8v-1.4m9.9-68H127.8m382.7 49.6v-.1m0 4.3h0m0 4.3v-.2m-372.8-8.3v-.1m0 4.3h0m0 4.3v-.2m0 7.9h372.8M137.7 329v-.2m372.8.2v-.2m-372.8-.7h372.8M137.7 324h372.8m-372.8-4.3h372.8m-372.8-4.2h372.8m-372.8-3.6h372.8m-372.8-6.6h372.8m-372.8-8.7h372.8m-372.8-4.8h372.8m0-5.6H137.7h372.8m-372.8-3.4h372.8m-372.8-3.6h372.8m-372.8-3.6h372.8M127.8 336h9.9-9.9m9.9-1.4V329m0-.2v-4.1m0-.2v-8.3m0-.1v-4.2m0-20.1v-16.2m0 29.7v-8.7m0 39.4v-1.4m571.7-53.8 1.1-2-1.1-1.8m-6.1 3.8-1.1-2 1.1-1.8m2.9.5c-.7 0-1.4.6-1.4 1.4 0 .7.6 1.4 1.4 1.4.7 0 1.3-.6 1.3-1.4.1-.8-.5-1.4-1.3-1.4m19.6 24v-27.7m-89.1 18.9h0m0 6.6h0m0 2.2V273m91.2 1.5v-.7h-2.3v-.8m-91.1 10.5v-.7m0-8.3v-.7m2.2 9v-9h-2.2m2.2 9.7v18m91.2-11.2v10.5m0-26.3v4.7m-93.4 21.6v-17.3m0-.7v-8.3m0 27h2.2m91.2 0h-2.1 2.1v-.7m-2.1.7h-.2m-88.9 0h0m0 0h-2.2v-.7m91.3-12.8h-89.1m0 11h89.1m0-8.1h-89.1m0 10.6h88.9m0-16.4h-88.9m0-4.3h89.1m0-3.5-89.1-.3m88.9-4h-88.9m91.2 17.3h.4v-11.1h-.4m-61.2 1.6 1.1-2-1.1-1.8m-5.9 3.8-1.1-2 1.1-1.8m3 .5c-.7 0-1.4.6-1.4 1.4 0 .7.6 1.4 1.4 1.4.7 0 1.3-.6 1.3-1.4s-.6-1.4-1.3-1.4m-29.3 19.8h-9.9m9.9-5H624m101.6-7.2h.2M545.4 284h1.1m-1.1 21.8h1.1m-18.4-16.7h4m-4 11.7h4M620 113.7h-66.3m0 5.1h67m-67 1.2v-7.5m-7.1 14.6c3.9 0 7.1-3.2 7.1-7.1m0-7.4c0-3.9-3.2-7.1-7.1-7.1m-14.5-2.2v25.9h13.3v-6.3h-13.3" style="clip-path:url(#SVGID_2_);fill:none;stroke:#000;stroke-width:.425;stroke-linecap:round;stroke-linejoin:round;stroke-miterlimit:10"/><defs><path id="SVGID_3_" d="M0 0h800v370H0z"/></defs><clipPath id="SVGID_4_"><use xlink:href="#SVGID_3_" style="overflow:visible"/></clipPath><path d="M532.1 110h13.3v12.9m-13.3-19.6h13.3v6.7m-24.3 17.4h7v-22.3h-7m0 46.6V81.5m0 0v-.7m-10.6 71.6h9.9m-9.9 1.3v-7.2m0-53.5v-4.5m0 13.2v-6.1m0 26.2v-11.3m0 26.5v-6.2m0 13.2v-4.5m0-53.5v-5.9h9.9m.7 71.6-.7.7.7-.7m-.7.7h0m0-72.3.7.7m-393.3 71.6h0m-.7-70.9V151m0 0v.7l.7.7m-.7-.7.7.7m-.7-70.9v-.7l.7-.7m392.6 72.3h-9.9m-372.8 0h-9.9m382.7 0h0m0-72.3h0m-372.8 72.3h0m0-72.3h0m0 66.4h372.8M137.7 144h372.8m-372.8-4.5h372.8M137.7 137h372.8m-372.8-6.2h372.8m-372.8-9h372.8m-372.8-11.3h372.8m-372.8-8.8h372.8m-372.8-6.1h372.8M137.7 93h372.8m-372.8-4.5h372.8M137.7 86h372.8m-372.8-5.9h0m372.8 0h0m0 73.6H137.7h372.8-372.8m372.8-73.6H137.7h372.8-372.8m0 72.3h-9.9m9.9 1.3v-7.2m0-53.5v-4.5m0 13.2v-6.1m0 26.2v-11.3m0 26.5v-6.2m0 13.2v-4.5" style="clip-path:url(#SVGID_4_);fill:none;stroke:#000;stroke-width:.425;stroke-linecap:round;stroke-linejoin:round;stroke-miterlimit:10"/><defs><path id="SVGID_5_" d="M0 0h800v370H0z"/></defs><clipPath id="SVGID_6_"><use xlink:href="#SVGID_5_" style="overflow:visible"/></clipPath><path d="M137.7 86v-5.9h-9.9M636.7 144v.2m0-36.8h0m89.1 0v-2.7m0 42V144m-.2-39.3h0m-88.9 2.7v-2.8m0 42.4v-2.8m0-36.8v-2.7m0 39.3v2.7m91.2-42h-2.3m0 42h2.3m-93.4 0h2.2m0-42h-2.2m0 42v-.7m2.2-2h89.1m2.1 2.7v-10.6m0-24.2v-7.2m-2.1 2.7h-89.1m-2.2 38.6v-41.3m2.2 42.3h88.9m0-42.4h-88.9m88.9 42.4v-.3m-88.9-39.3h88.9m2.3 28.7h.4v-24.2h-.4m-93.4 6.9h-10.7m10.7-5.1h-11.1m-78-8.2h1.1m-1.1 21.6h1.1m-18.4-16.6h4m-4 11.5h4M31.9 110l.2 12.9 4.5 2.5m0-18.3-4.7 2.9m-4.7 6.2c0-3.1-2.5-5.7-5.7-5.7-3.1 0-5.7 2.5-5.7 5.7 0 3.1 2.5 5.7 5.7 5.7 3.2-.1 5.7-2.6 5.7-5.7m33.5-25.4c0-3.1-2.5-5.7-5.7-5.7-3.1 0-5.7 2.5-5.7 5.7 0 3.1 2.5 5.7 5.7 5.7 3.1 0 5.7-2.6 5.7-5.7M2 151c0 .7.7 1.4 1.4 1.4m0-72.3c-.7 0-1.4.7-1.4 1.4m0 0V151m1.4 1.4H70m0 0c.7 0 1.4-.8 1.4-1.5m.1 0V81.5m0 0c0-.7-.7-1.4-1.4-1.4m-.1 0H3.4m53.1 52v1.4m0-19v1.4m0 12.6v1.4m0-4.8v1.4m0-5v1.4m-6.1-9.5h6m.1 4.5v1.4m-9 16.9v-24.4m16.8-6.3c0-.3-.2-.7-.7-.7m0 41.9c.3 0 .7-.4.7-.7m0 0v-40.5m-.7-.8H37.3m-.1 42h26.4m-16.1-34.9h11.7v24.4H47.5m-3.6 2.7v-3m0 0h2.2m0 0v3m0 0h-2.2m-7.3 7.1c0 .3.3.6.6.6m.1-41.9c-.3 0-.7.3-.7.6m0 40.7v-40.6m11.1 17.9h0" style="clip-path:url(#SVGID_6_);fill:none;stroke:#000;stroke-width:.425;stroke-linecap:round;stroke-linejoin:round;stroke-miterlimit:10"/><defs><path id="SVGID_7_" d="M0 0h800v370H0z"/></defs><clipPath id="SVGID_8_"><use xlink:href="#SVGID_7_" style="overflow:visible"/></clipPath><path d="M50.4 113.4h6v1.1m0 4.8h.9v.7h.9m-1.8-2.1h-2.1m.1 1.4h2m0 3.6h.9v.7h.9m-1.8-2.1h-2m-.1 1.4h2.1m0 3.6h.9v.6h.9m-1.8-2h-2m-.1 1.4h2.1m0 3.4h.9v.8h.9m-1.8-2.2h-2.1m.1 1.4h2m0-14h.9v.5h.9m-1.8-1.9h-2m-.1 1.4h2.1m-8.7 16.4h0m0 1.1h0m0-10.7h0m0 7.1h0m0-3.5h0m0-10.6h0m0 3.4h0m9.6 15.2h.9v-2.9h-.9v.7" style="clip-path:url(#SVGID_8_);fill:none;stroke:#000;stroke-width:.425;stroke-linecap:round;stroke-linejoin:round;stroke-miterlimit:10"/><defs><path id="SVGID_9_" d="M0 0h800v370H0z"/></defs><clipPath id="SVGID_10_"><use xlink:href="#SVGID_9_" style="overflow:visible"/></clipPath><path d="M51.9 115.1c0 .7.6 1.4 1.3 1.4s1.3-.6 1.3-1.3c0-.7-.6-1.4-1.3-1.4-.7-.1-1.3.5-1.3 1.3m1.3 19c.7 0 1.3-.6 1.3-1.3s-.6-1.4-1.3-1.4-1.4.6-1.4 1.4c.1.7.7 1.3 1.4 1.3m0-3.4c.7 0 1.3-.6 1.3-1.3s-.6-1.4-1.3-1.4-1.4.6-1.4 1.4c.1.7.7 1.3 1.4 1.3m0-3.6c.7 0 1.3-.6 1.3-1.3 0-.7-.6-1.4-1.3-1.4s-1.4.6-1.4 1.4c.1.7.7 1.3 1.4 1.3m0-3.6c.7 0 1.3-.6 1.3-1.3 0-.7-.6-1.4-1.3-1.4s-1.4.6-1.4 1.4c.1.7.7 1.3 1.4 1.3m0-3.5c.7 0 1.3-.6 1.3-1.3 0-.7-.6-1.4-1.3-1.4s-1.4.6-1.4 1.4c.1.7.7 1.3 1.4 1.3m3.2-2.1v-2m0 5.6v-2.2m0 5.8v-2.2m0 5.6v-2m0 5.6v-2.2m.9-12h-.9m.9 3.6h-.9m.9 3.6h-.9m.9 3.4h-.9m.9 3.6h-.9m.9-18.4v.8h-.9m.9 2.7v.7m0 2.9v.7m0 2.9v.7m0 2.7v.7m0 5v.8m-.9-2.2h-2m-.1 1.4h3m-8.5-18.7v2m9.4-3.1h-.9m.9 3.5h-.9m.9 3.6h-.9m.9 3.6h-.9m.9 3.4h-.9m-.9 6.8v-1.1m-7.6-1v2.1m0-17.8h1.6v-2h-1.6m1.6 19.8v-2.1h-1.6m1.6 1h1.7m-.1-1.4h-1.6m0-2.2H52m.1-1.4h-1.7m0-2h1.7m-.1-1.4h-1.6m0-2.2h1.7m-.1-1.4h-1.6m0-2.2H52m.1-1.4h-1.7m0-2h1.7m-.1-1.4h-1.6m7.8-.8v2.7m0 .8v2.8m0 .8v2.8m0 .8v2.7m0 .7v2.9m-1.8 3.9h-7.6m1.6-19.8v-1.4m0 19.1v-15.7m-2.7 4.9h0m0 7h0m0-3.6h0m0-10.6h0m0 3.6h0" style="clip-path:url(#SVGID_10_);fill:none;stroke:#000;stroke-width:.425;stroke-linecap:round;stroke-linejoin:round;stroke-miterlimit:10"/><path d="M120.4 116.3H535M120.4 300.9H535" style="fill:none;stroke:#020203;stroke-width:.283;stroke-linecap:round;stroke-linejoin:round;stroke-miterlimit:10;stroke-dasharray:14.173,5.669,2.835,5.669"/><path d="M21.5 105.5v21.3m-10.6-10.6h21.3M55 80.1v21.3M44.4 90.8h21.3" style="fill:none;stroke:#020203;stroke-width:.283;stroke-linecap:round;stroke-linejoin:round;stroke-miterlimit:10;stroke-dasharray:7.087,2.835,2.835,2.835"/><path class="st9" d="m298.2 294.8 28.1-60.3h76.6"/><path class="st10" d="m300.6 294.4-5.1 6.1 1.4-7.9 3.7 1.8z"/><path class="st9" d="m298.2 109.8 28.1-60.2h76.6"/><path class="st10" d="m300.6 109.4-5.1 6.1 1.4-7.8 3.7 1.7z"/><text transform="translate(334.152 230.237)" class="st10 st11 st12">M6 DIN rail</text><text transform="translate(334.152 45.294)" class="st10 st11 st12">M6 DIN rail</text><defs><path id="SVGID_11_" d="M0 0h800v370H0z"/></defs><clipPath id="SVGID_12_"><use xlink:href="#SVGID_11_" style="overflow:visible"/></clipPath><path d="M623.3 113.7c-.9 0-.5 1.5 0 2.3 2.4 4.8-1.7 2.4-.1-.1m-2.6 2.9c.9 0 .5-1.5 0-2.3-2.4-4.8 1.7-2.4.1.1m3.2 175.7c-.9 0-.5 1.5 0 2.3 2.4 4.8-1.7 2.4-.1-.1m-2.5 2.9c.9 0 .5-1.5 0-2.3-2.4-4.8 1.7-2.4.1.1" style="clip-path:url(#SVGID_12_);fill:none;stroke:#000;stroke-width:.283;stroke-linecap:round;stroke-linejoin:round;stroke-miterlimit:10"/></svg>