<svg version="1.1" id="Ebene_1" xmlns="http://www.w3.org/2000/svg" xmlns:xlink="http://www.w3.org/1999/xlink" x="0" y="0" viewBox="0 0 334.8 242.9" style="enable-background:new 0 0 334.8 242.9;background-color:#fff" xml:space="preserve"><style>.st0{fill:none;stroke:#d9d9d9;stroke-width:.75;stroke-linejoin:round;stroke-miterlimit:10}.st2{fill:#595959}.st3{font-family:&apos;Calibri&apos;}.st4{font-size:9px}.st5{fill:#020203}.st6{font-family:Helvetica,Arial,sans-serif}.st7{font-size:9.96px}</style><path class="st0" d="M46.5 29.7H319M46.5 52.3H319M46.5 74.9H319M46.5 97.5H319M46.5 142.6H319M46.5 165.1H319M46.5 187.7H319M46.5 210.2H319m.1-180.5v180.5M291.8 29.7v180.5M264.6 29.7v180.5M237.4 29.7v180.5M210.1 29.7v180.5M182.8 29.7v180.5M155.5 29.7v180.5M128.3 29.7v180.5M101 29.7v180.5M73.8 29.7v180.5M46.5 29.7v180.5m0-90.2h272.6"/><defs><path id="SVGID_1_" d="M46.4 29.7h273.4v181.2H46.4z"/></defs><clipPath id="SVGID_00000138569442518745625500000014205517624261698208_"><use xlink:href="#SVGID_1_" style="overflow:visible"/></clipPath><path style="clip-path:url(#SVGID_00000138569442518745625500000014205517624261698208_);fill:none;stroke:#5c9bd4;stroke-width:2.25;stroke-linecap:round;stroke-linejoin:round;stroke-miterlimit:10" d="m46.5 120 27.3.6 27.2 1.8 27.3 3 27.2 4 27.3 4.4 27.3 4.8 27.3 4.7 27.2 4.1 27.2 3.1 27.3 2.1"/><text transform="translate(30.872 212.732)" class="st2 st3 st4">-2</text><text transform="translate(24.068 190.177)"><tspan x="0" y="0" class="st2 st3 st4">-1</tspan><tspan x="7.3" y="0" class="st2 st3 st4">,</tspan><tspan x="9.6" y="0" class="st2 st3 st4">5</tspan></text><text transform="translate(30.872 167.624)" class="st2 st3 st4">-1</text><text transform="translate(24.068 145.07)"><tspan x="0" y="0" class="st2 st3 st4">-0</tspan><tspan x="7.3" y="0" class="st2 st3 st4">,</tspan><tspan x="9.6" y="0" class="st2 st3 st4">5</tspan></text><text transform="translate(33.626 122.516)" class="st2 st3 st4">0</text><text transform="translate(26.822 99.962)"><tspan x="0" y="0" class="st2 st3 st4">0</tspan><tspan x="4.6" y="0" class="st2 st3 st4">,</tspan><tspan x="6.8" y="0" class="st2 st3 st4">5</tspan></text><text transform="translate(33.626 77.408)" class="st2 st3 st4">1</text><text transform="translate(26.822 54.854)"><tspan x="0" y="0" class="st2 st3 st4">1</tspan><tspan x="4.6" y="0" class="st2 st3 st4">,</tspan><tspan x="6.8" y="0" class="st2 st3 st4">5</tspan></text><text transform="translate(33.626 32.3)" class="st2 st3 st4">2</text><text transform="translate(44.255 134.225)" class="st2 st3 st4">0</text><text transform="translate(66.728 134.225)"><tspan x="0" y="0" class="st2 st3 st4">-1</tspan><tspan x="7.3" y="0" class="st2 st3 st4">,</tspan><tspan x="9.6" y="0" class="st2 st3 st4">6</tspan></text><text transform="translate(93.98 134.225)"><tspan x="0" y="0" class="st2 st3 st4">-3</tspan><tspan x="7.3" y="0" class="st2 st3 st4">,</tspan><tspan x="9.6" y="0" class="st2 st3 st4">2</tspan></text><text transform="translate(121.232 134.225)"><tspan x="0" y="0" class="st2 st3 st4">-4</tspan><tspan x="7.3" y="0" class="st2 st3 st4">,</tspan><tspan x="9.6" y="0" class="st2 st3 st4">8</tspan></text><text transform="translate(148.484 134.225)"><tspan x="0" y="0" class="st2 st3 st4">-6</tspan><tspan x="7.3" y="0" class="st2 st3 st4">,</tspan><tspan x="9.6" y="0" class="st2 st3 st4">4</tspan></text><text transform="translate(179.138 134.225)" class="st2 st3 st4">-8</text><text transform="translate(202.988 134.225)"><tspan x="0" y="0" class="st2 st3 st4">-9</tspan><tspan x="7.3" y="0" class="st2 st3 st4">,</tspan><tspan x="9.6" y="0" class="st2 st3 st4">6</tspan></text><text transform="translate(227.963 134.225)"><tspan x="0" y="0" class="st2 st3 st4">-11</tspan><tspan x="11.9" y="0" class="st2 st3 st4">,</tspan><tspan x="14.2" y="0" class="st2 st3 st4">2</tspan></text><text transform="translate(255.214 134.225)"><tspan x="0" y="0" class="st2 st3 st4">-12</tspan><tspan x="11.9" y="0" class="st2 st3 st4">,</tspan><tspan x="14.2" y="0" class="st2 st3 st4">8</tspan></text><text transform="translate(282.466 134.225)"><tspan x="0" y="0" class="st2 st3 st4">-14</tspan><tspan x="11.9" y="0" class="st2 st3 st4">,</tspan><tspan x="14.2" y="0" class="st2 st3 st4">4</tspan></text><text transform="translate(313.12 134.225)" class="st2 st3 st4">-16</text><path class="st0" d="M.4.4h334.1v242.2H.4z"/><text transform="translate(133.633 224.964)" class="st5 st6 st7">Image Height [mm]</text><text transform="rotate(-90.079 89.699 76.586)" class="st5 st6 st7">Optical Distortion [%]</text></svg>