<svg xmlns="http://www.w3.org/2000/svg" viewBox="0 0 552.8 552.8" style="enable-background:new 0 0 552.8 552.8;background-color:#fff" xml:space="preserve"><style>.st0{stroke-width:.4252;stroke-miterlimit:10}.st0,.st1,.st2,.st3,.st4,.st5,.st9{fill:none;stroke:#000;stroke-linecap:round;stroke-linejoin:round}.st1{stroke-width:.283;stroke-miterlimit:10}.st2,.st3,.st4,.st5,.st9{stroke-width:.2835}.st3{stroke-dasharray:.5603,2.8014}.st4{stroke-dasharray:8.4043,2.8014,.5603,2.8014}.st5{stroke-dasharray:8.1416}.st9{stroke-dasharray:.7015,3.5074}.st15{font-family:Helvetica,Arial,sans-serif}.st16{font-size:9px}.st17{font-size:8.9999px}.st18{font-size:14.9998px}</style><g id="BCLB-10x100"><path class="st0" d="M56.1 19.9v124.7h0c0 6.6 5.3 11.9 11.9 11.9h283.4c6.6 0 11.8-5.3 11.8-11.9V19.9c0-6.6-5.3-11.9-11.9-11.9H68.1c-6.6 0-12 5.3-12 11.9"/><path class="st0" d="M351.5 5.7H68.1c-7.8 0-14.2 6.3-14.2 14.2h0v124.7h0c0 7.8 6.3 14.2 14.2 14.2h283.4c7.8 0 14.2-6.3 14.2-14.2v0V19.9v0c0-7.9-6.3-14.2-14.2-14.2h0z"/><path class="st0" d="M354.4 15.7H65.2v133.1h289.2V15.7m-2.8 252.2h14.2m-312 0h297.8m0 65.2h14.2v-65.2m-14.2 65.2v-65.2M312 297.7c0-1.6-1.3-3-3-3-1.6 0-3 1.3-3 3s1.3 3 3 3c1.6 0 3-1.3 3-3m-198.4 0c0-1.6-1.3-3-3-3-1.6 0-3 1.3-3 3s1.3 3 3 3 3-1.3 3-3m238 35.4H68.1m0-65.2v65.2m-14.3-65.2v65.2h14.3m15.6-77.4v12.2m48.1 0v-12.2h5.7v12.2m-21.2 0v-12.2h15.5m-27 12.2v-12.2h11.5m-26.8 12.2v-12.2h15.3m-21.1 0h5.8m4.1-36.7h34m-34 28.2h34m-7.7 8.5-2.5-1.8-2.4-1.5-2.3-.7-2.2-.2-2.1.2-2.2.7-2.3 1.5-2.5 1.8m26.2-36.7v28.2m-34-28.2v28.2m34 0 4.2 8.5m-38.2-8.5-4.3 8.5M351.1 377c-2.5 0-4.6 2.1-4.6 4.6 0 2.5 2.1 4.6 4.6 4.6 2.5 0 4.6-2.1 4.6-4.6 0-2.5-2.1-4.6-4.6-4.6m-283.3 0c-2.5 0-4.6 2.1-4.6 4.6 0 2.5 2.1 4.6 4.6 4.6 2.5 0 4.6-2.1 4.6-4.6 0-2.5-2.1-4.6-4.6-4.6m0 124.8c-2.5 0-4.6 2.1-4.6 4.6 0 2.5 2.1 4.6 4.6 4.6 2.5 0 4.6-2.1 4.6-4.6 0-2.6-2.1-4.6-4.6-4.6m283.3 0c-2.5 0-4.6 2.1-4.6 4.6 0 2.5 2.1 4.6 4.6 4.6 2.5 0 4.6-2.1 4.6-4.6 0-2.6-2.1-4.6-4.6-4.6m.1 18.9c7.8 0 14.2-6.4 14.2-14.2m0-.1V381.7m-.2-.1c0-7.8-6.3-14.1-14.1-14.1m.1 0H67.7m0 0c-7.8 0-14.2 6.4-14.2 14.2m0 0v124.7m.1 0c0 7.8 6.3 14.1 14.1 14.1m0 .2h283.5m11-117.7c0-6.1-5-11.1-11.1-11.1m0 104.3c6.1 0 11.1-5 11.1-11.1M67.8 392c-6.1 0-11.1 5-11.1 11.1m0 82.1v-82.3m0 82.2c0 6.1 5 11.1 11.1 11.1m283.4 0H67.7m294.5-93.3v82.3M67.7 392h283.5M83.3 435.2V453m53.9-17.8c-1.2-3.7-3.2-7.1-5.8-10l-15.3-8.9c-3.8-.8-7.8-.8-11.6 0l-15.3 8.9c-2.6 2.9-4.6 6.3-5.8 10m53.8 17.8v-17.8m-53.9 17.7c1.2 3.7 3.2 7.1 5.8 10l15.3 8.9c3.8.8 7.8.8 11.6 0l15.3-8.9c2.6-2.9 4.6-6.3 5.8-10"/><path class="st0" d="M110.3 429.9c-7.8 0-14.1 6.3-14.1 14.1s6.3 14.1 14.1 14.1 14.1-6.3 14.1-14.1c0-7.7-6.3-14.1-14.1-14.1"/><path class="st0" d="M93.2 444.1c0 9.4 7.6 17 17 17s17-7.6 17-17-7.6-17-17-17c-9.3 0-17 7.6-17 17m7.8-19.2h18.5"/><path class="st0" d="M101 424.9c-7.4 3.6-12 11-12 19.2s4.7 15.6 12 19.2m0-.1h18.5m0 .1c7.4-3.6 12-11 12-19.2s-4.7-15.6-12-19.2"/><path class="st0" d="M100.3 442.7c-.7 0-1.4.6-1.4 1.3 0 .7.6 1.4 1.3 1.4.7 0 1.4-.6 1.4-1.3.1-.8-.5-1.4-1.3-1.4m9.9 9.9c-.7 0-1.4.6-1.4 1.3 0 .7.6 1.4 1.3 1.4.7 0 1.4-.6 1.4-1.3.1-.8-.5-1.4-1.3-1.4m9.9-9.9c-.7 0-1.4.6-1.4 1.3 0 .7.6 1.4 1.3 1.4.7 0 1.4-.6 1.4-1.3.1-.8-.5-1.4-1.3-1.4m-9.9 0c-.7 0-1.4.6-1.4 1.3 0 .7.6 1.4 1.3 1.4.7 0 1.4-.6 1.4-1.3.1-.8-.5-1.4-1.3-1.4m0-9.9c-.7 0-1.4.6-1.4 1.3 0 .7.6 1.4 1.3 1.4.7 0 1.4-.6 1.4-1.3.1-.8-.5-1.4-1.3-1.4m339.7-274.1V5.7h65.2v14m0 0h-65.2"/><path class="st0" d="M475.4 26.6c-2.5 0-4.6 2.1-4.6 4.6 0 2.5 2.1 4.6 4.6 4.6 2.5 0 4.6-2.1 4.6-4.6 0-2.6-2.1-4.6-4.6-4.6m0 102c-2.5 0-4.6 2.1-4.6 4.6 0 2.5 2.1 4.6 4.6 4.6 2.5 0 4.6-2.1 4.6-4.6 0-2.5-2.1-4.6-4.6-4.6m39.7-108.9v124.8m-65.2 0h65.2m-65.2 14.2h65.2v-14.2M449.9 91h-12.2V73.4h12.2m0 27.7h-12.2V91m0 18.9v-8.8m0 9.4v-.6m12.2-46.6h-12.2v-9.5m0 19.6V63.3m-36.9 35.8v-34m28.4 34v-34m4.2 36.2h4.3m-4.3-38.2h4.3m0 47.4h12.2m-12.2-56.7h12.2m-49.1 11.3h28.4m-28.4 34h28.4m0-34 4.2-2m-4.2 36 4.2 2.2"/></g><g id="Dimensions"><path class="st1" d="M515.1 158.7h17.6m-57.3-25.5h57.3m-57.3-102h57.3m-57.3 102v42.3"/><path class="st2" d="M510 188.5h-55.1"/><path d="m508.9 186.9 6.2 1.6-6.2 1.7zm-52.9 0-6.2 1.6 6.2 1.7z"/><path class="st2" d="M510 172.9h-29.4"/><path d="m508.9 171.3 6.2 1.6-6.2 1.7zm-27.2 0-6.1 1.6 6.1 1.7z"/><path class="st2" d="M532 138.3v15.4"/><path d="m530.4 139.4 1.6-6.2 1.7 6.2zm0 13.2 1.6 6.1 1.7-6.1z"/><path class="st2" d="M532 36.2v92"/><path d="m530.4 37.3 1.6-6.1 1.7 6.1zm0 89.8 1.6 6.1 1.7-6.1z"/><path class="st1" d="M387.5 158.7h62.4m-62.4-76.6h24"/><path class="st2" d="M389.6 87.1v66.6"/><path d="m388 88.3 1.6-6.2 1.6 6.2zm0 64.3 1.6 6.1 1.6-6.1z"/><path class="st1" d="M449.8 151.7v39.7m65.3-39.7v39.7M68.6 158.8H29.2"/><path class="st2" d="M33.2 153.7V10.8"/><path d="m34.9 152.6-1.7 6.1-1.6-6.1zm0-140.7-1.7-6.2-1.6 6.2z"/><path class="st1" d="M67.8 506.4H29.2m38.6 35.5H53.1m14.2-160.3H29.2"/><path class="st2" d="M32.3 501.6V386.5"/><path d="m33.9 500.5-1.6 6.2-1.7-6.2zm0-112.8-1.6-6.2-1.7 6.2z"/><path class="st1" d="M87.8 5.8H29.5m295.5 207-60.5-89.1"/><path class="st2" d="m466.5 35.6-22.1 11.8h-63"/><path d="m464.8 34.7 6.2-1.5-4.7 4.4z"/><path class="st2" d="m303.8 292-32.5-36.3H200"/><path d="m304.3 290.1 2.9 5.6-5.3-3.4z"/><path class="st2" d="m358.1 374.9 15.6-15.5h72.7"/><path d="m360.1 375.3-5.5 3.2 3.2-5.6z"/><path class="st1" d="M365.9 144.9v33.6m-312-34.1v34.2m0 154.5v18.1"/><path class="st2" d="M360.8 175.5H58.9"/><path d="m359.7 173.9 6.2 1.6-6.2 1.7zm-299.7 0-6.1 1.6 6.1 1.7z"/><path class="st1" d="M309 297.3v54.8m-198.4-54.7v54.9"/><path class="st2" d="M105.6 349.2H58.7"/><path d="m104.5 347.5 6.1 1.7-6.1 1.6zm-44.6 0-6.2 1.7 6.2 1.6z"/><path class="st2" d="M304.4 349.2H115.6"/><path d="m303.2 347.5 6.2 1.7-6.2 1.6zm-186.5 0-6.1 1.7 6.1 1.6z"/><path class="st1" d="M53.6 506.2V545m297.5-38.7v38.6M67.8 506.3V545"/><path class="st2" d="M48.1 541.9H36.7"/><path d="m47 540.3 6.1 1.6-6.1 1.7z"/><path class="st1" d="M32.4 506.3V521m35.7-.2H29.3"/><path class="st2" d="M32.4 526v11.4"/><path d="m30.7 527.1 1.7-6.1 1.6 6.1z"/><path class="st2" d="M346 541.9H73.1"/><path d="m344.9 540.3 6.2 1.6-6.2 1.7zm-270.7 0-6.2 1.6 6.2 1.7z"/><path class="st1" d="M111.1 297.8H32.6m21.3 35.3H17"/><path class="st2" d="M33.2 328v-25.1"/><path d="m34.9 326.8-1.7 6.2-1.6-6.2zm0-22.8-1.7-6.1-1.6 6.1z"/><path class="st1" d="M93.6 218.8H17m36.9 49.1H32.6"/><path class="st2" d="M33.2 262.8V224"/><path d="m34.9 261.6-1.7 6.2-1.6-6.2zm0-36.5-1.7-6.2-1.6 6.2z"/><path class="st2" d="M18.1 327.5V224"/><path d="m19.8 326.4-1.7 6.1-1.6-6.1zm0-101.3-1.7-6.2-1.6 6.2z"/><path class="st1" d="M53.8 268v-61m56.8 21.3V207"/><path class="st2" d="M105.4 208.1H59"/><path d="m104.3 206.5 6.1 1.6-6.1 1.7zm-44.1 0-6.2 1.6 6.2 1.7z"/></g><g id="Middle_Lines"><path class="st2" d="M110.6 228.3v4.3"/><path class="st3" d="M110.6 235.4v1.9"/><path class="st4" d="M110.6 238.7v27.8"/><path class="st2" d="M110.6 267.9v4.2"/><path class="st5" d="M110.6 297.8v-8.1"/><path style="fill:none;stroke:#000;stroke-width:.2835;stroke-linecap:round;stroke-linejoin:round;stroke-dasharray:8.1871" d="M118.7 297.8h-8.1"/><path style="fill:none;stroke:#000;stroke-width:.2835;stroke-linecap:round;stroke-linejoin:round;stroke-dasharray:5.7982" d="M308.9 297.8V292"/><path class="st2" d="M303.6 297.8h4.2"/><path style="fill:none;stroke:#000;stroke-width:.2835;stroke-linecap:round;stroke-linejoin:round;stroke-dasharray:.2153,1.0763" d="M308.9 297.8h.7"/><path class="st2" d="M310.2 297.8h4.2"/><path class="st5" d="M67.3 381.5h8.1"/><path class="st2" d="M67.3 389.6v-4.2"/><path class="st9" d="M67.3 381.9v-2.5"/><path class="st2" d="M67.3 377.6v-4.2m283.8 16.2v-4.2"/><path class="st9" d="M351.1 381.9v-2.5"/><path class="st2" d="M351.1 377.6v-4.2m8.1 8.1h-4.3"/><path class="st9" d="M351.4 381.5H349"/><path class="st2" d="M347.2 381.5H343"/><path style="fill:none;stroke:#000;stroke-width:.2835;stroke-linecap:round;stroke-linejoin:round;stroke-dasharray:8.2202" d="M351.1 506.3v-8.2"/><path class="st2" d="M359.2 506.2h-4.3"/><path class="st9" d="M351.4 506.2H349"/><path class="st2" d="M347.2 506.2H343"/><path class="st5" d="M67.7 506.3h8.1"/><path class="st2" d="M67.7 506.4v-4.3"/><path style="fill:none;stroke:#000;stroke-width:.2835;stroke-linecap:round;stroke-linejoin:round;stroke-dasharray:0,3.740046e-02" d="M67.7 502.1v-.1"/><path class="st2" d="M67.7 502v-4.2M475.4 39.3V35"/><path class="st9" d="M475.4 31.5v-2.4"/><path class="st2" d="M475.4 27.3v-4.2"/><path style="fill:none;stroke:#000;stroke-width:.2835;stroke-linecap:round;stroke-linejoin:round;stroke-dasharray:8.1102" d="M475.4 31.2h-8.1"/><path style="fill:none;stroke:#000;stroke-width:.2835;stroke-linecap:round;stroke-linejoin:round;stroke-dasharray:8.1196" d="M475.5 133.2v-8.1"/><path style="fill:none;stroke:#000;stroke-width:.2835;stroke-linecap:round;stroke-linejoin:round;stroke-dasharray:8.0273" d="M475.4 133.2h-8"/><path class="st2" d="M411.5 82.1h4.2"/><path class="st3" d="M418.5 82.1h2"/><path class="st4" d="M421.9 82.1h27.7"/><path class="st2" d="M451 82.1h4.3"/></g><g id="Text_1_"><text transform="rotate(-90 252.265 -131.55)" class="st15 st16">27</text><text transform="rotate(-90 338.328 -189.867)" class="st15 st17">9</text><text transform="rotate(-90 307.697 -220.499)" class="st15 st17">36</text><text transform="translate(490.283 169.798)" class="st15 st17">14</text><text transform="translate(478.957 185.654)" class="st15 st17">23</text><text transform="rotate(-90 57.615 27.068)" class="st15 st17">54</text><text transform="translate(330.11 219.661)" class="st15 st16">45 x 100 (Luminous area)</text><text transform="translate(200.952 251.123)" class="st15 st16">4 × M2.5, 5 deep</text><text transform="translate(382.026 43.593)" class="st15 st16">4 × M4, 5 deep</text><text transform="translate(376.126 354.621)" class="st15 st16">4 × M4, 7.3 deep</text><text transform="translate(190.122 346.355)" class="st15 st16">70</text><text transform="translate(77.149 346.355)" class="st15 st16">20</text><text transform="translate(193.977 173.027)" class="st15 st16">110</text><text transform="translate(77.149 203.08)" class="st15 st16">20</text><text transform="rotate(-90 139.451 108.904)" class="st15 st17">17</text><text transform="rotate(-90 151.486 136.631)" class="st15 st17">(40.3)</text><text transform="rotate(-90 177.363 146.816)" class="st15 st17">12.5</text><text transform="rotate(-90 239.804 209.257)" class="st15 st17">44</text><text transform="rotate(-90 273.226 242.679)" class="st15 st17">5</text><text transform="translate(58.29 538.442)" class="st15 st17">5</text><text transform="translate(187.785 538.442)" class="st15 st17">100</text><text transform="translate(426.183 528.413)" class="st15 st18">Not to scale</text><text transform="translate(426.183 546.413)" class="st15 st18">Dimensions in mm</text></g></svg>