<svg version="1.1" id="Ebene_1" xmlns="http://www.w3.org/2000/svg" xmlns:xlink="http://www.w3.org/1999/xlink" x="0" y="0" viewBox="0 0 800 650" style="enable-background:new 0 0 800 650;background-color:#fff" xml:space="preserve"><style>.st21{fill:none;stroke:#020203;stroke-width:.283;stroke-miterlimit:10}.st22{fill:#020203}.st25{font-family:Helvetica,Arial,sans-serif}.st26{font-size:13.9999px}</style><path d="m300.3 53.2-.1.6V55l.1 1.8.8 2 .5 1.8-.2 1.3-.2.9v.3" style="fill:none;stroke:#000;stroke-width:.425;stroke-linecap:round;stroke-linejoin:round;stroke-miterlimit:10"/><defs><path id="SVGID_1_" d="M0 0h800v650H0z"/></defs><clipPath id="SVGID_2_"><use xlink:href="#SVGID_1_" style="overflow:visible"/></clipPath><path d="M537.7 255.7c-1.2 0-2.3 1-2.3 2.3 0 1.2 1 2.3 2.2 2.3s2.3-1 2.3-2.3-1-2.3-2.2-2.3m0-22.6c-1.2 0-2.3 1-2.3 2.3 0 1.2 1 2.3 2.2 2.3s2.3-1 2.3-2.3-1-2.3-2.2-2.3m-306.2 0c-1.2 0-2.3 1-2.3 2.3 0 1.2 1 2.3 2.2 2.3s2.3-1 2.3-2.3-1-2.3-2.2-2.3m0 22.6c-1.2 0-2.3 1-2.3 2.3 0 1.2 1 2.3 2.2 2.3s2.3-1 2.3-2.3-1-2.3-2.2-2.3m38.1-9.1c0 1.7 1.4 3.1 3.1 3.1s3.1-1.4 3.1-3.1c0-1.7-1.4-3.1-3.1-3.1s-3.1 1.4-3.1 3.1m223.9 0c0 1.7 1.4 3.1 3.1 3.1s3.1-1.4 3.1-3.1c0-1.7-1.4-3.1-3.1-3.1s-3.1 1.4-3.1 3.1" style="clip-path:url(#SVGID_2_);fill:none;stroke:#000;stroke-width:.425;stroke-linecap:round;stroke-linejoin:round;stroke-miterlimit:10"/><defs><path id="SVGID_3_" d="M0 0h800v650H0z"/></defs><clipPath id="SVGID_4_"><use xlink:href="#SVGID_3_" style="overflow:visible"/></clipPath><path d="m224.4 219.7 1.4-1.4h317.5l1.5 1.4v53.9l-1.5 1.4H225.8l-1.4-1.4v-53.9" style="clip-path:url(#SVGID_4_);fill:none;stroke:#000;stroke-width:.425;stroke-linecap:round;stroke-linejoin:round;stroke-miterlimit:10"/><defs><path id="SVGID_5_" d="M0 0h800v650H0z"/></defs><clipPath id="SVGID_6_"><use xlink:href="#SVGID_5_" style="overflow:visible"/></clipPath><path d="M233.7 258c0-1.2-1-2.3-2.3-2.3-1.2 0-2.3 1-2.3 2.2 0 1.2 1 2.3 2.3 2.3s2.3-1 2.3-2.2m0-22.7c0-1.2-1-2.3-2.3-2.3-1.2 0-2.3 1-2.3 2.2s1 2.3 2.3 2.3c1.3.1 2.3-1 2.3-2.2M539.9 258c0-1.2-1-2.3-2.3-2.3-1.2 0-2.3 1-2.3 2.2 0 1.2 1 2.3 2.3 2.3s2.3-1 2.3-2.2M234.5 86.5v131.8M224.4 86.5v133.2m33.4-166.6c-18.4 0-33.4 14.9-33.4 33.4" style="clip-path:url(#SVGID_6_);fill:none;stroke:#000;stroke-width:.425;stroke-linecap:round;stroke-linejoin:round;stroke-miterlimit:10"/><defs><path id="SVGID_7_" d="M0 0h800v650H0z"/></defs><clipPath id="SVGID_8_"><use xlink:href="#SVGID_7_" style="overflow:visible"/></clipPath><path d="M257.8 63.1c-12.9 0-23.3 10.4-23.3 23.3m66.7-23.3h-43.3m42.4-9.9h-42.4" style="clip-path:url(#SVGID_8_);fill:none;stroke:#000;stroke-width:.425;stroke-linecap:round;stroke-linejoin:round;stroke-miterlimit:10"/><defs><path id="SVGID_9_" d="M0 0h800v650H0z"/></defs><clipPath id="SVGID_10_"><use xlink:href="#SVGID_9_" style="overflow:visible"/></clipPath><path d="M273.4 242.5c-2.3-.4-4.5 1.1-4.9 3.4-.4 2.3 1.1 4.5 3.4 4.9s4.5-1.1 4.9-3.4m220.6-4.9c-2.3-.4-4.5 1.1-4.9 3.4-.4 2.3 1.1 4.5 3.4 4.9s4.5-1.1 4.9-3.4" style="clip-path:url(#SVGID_10_);fill:none;stroke:#000;stroke-width:.283;stroke-linecap:round;stroke-linejoin:round;stroke-miterlimit:10"/><defs><path id="SVGID_11_" d="M0 0h800v650H0z"/></defs><clipPath id="SVGID_12_"><use xlink:href="#SVGID_11_" style="overflow:visible"/></clipPath><path d="M506.4 599.3v-85.1m-177.8 85.1v-85.1m177.8 84.6h4.5v-14.4m0-48.3v-21.2h-4.5m-177.8 7.5h-4.5m4.5-7.5h-4.5m4.5 83.9h-4.5v-83.9m4.5 76.1h-4.5m182.3-36.3H328.6m0 5.5h177.8m0-11.3H328.6m0 17.1h177.8m0-22.7H328.6m0 28.3h177.8m0-34H328.6m0 39.7h177.8m0-45.3H328.6m0 50.9h177.8m0-56.7H328.6m0 73.1h177.8m-177.8-10.6h177.8m-177.8-74.5h177.8m4.5 70.2h.9v-48.3h-.9M241.5 366h286.4m-286.4 42.5h286.4m-286.4 7h286.4m-286.4 0v-56.7h286.4m-297.1 28.4c0 1.2 1 2.1 2.1 2.1s2.1-1 2.1-2.1c0-1.2-1-2.1-2.1-2.1s-2.1.9-2.1 2.1m-5.5 11.3c0 3.4 2.8 6.2 6.2 6.2s6.2-2.8 6.2-6.2c0-3.4-2.8-6.2-6.2-6.2s-6.2 2.8-6.2 6.2m0-22.7c0 3.4 2.8 6.2 6.2 6.2s6.2-2.8 6.2-6.2c0-3.4-2.8-6.2-6.2-6.2s-6.2 2.8-6.2 6.2m-.9 38.3 1.4 1.4" style="clip-path:url(#SVGID_12_);fill:none;stroke:#000;stroke-width:.425;stroke-linecap:round;stroke-linejoin:round;stroke-miterlimit:10"/><defs><path id="SVGID_13_" d="M0 0h800v650H0z"/></defs><clipPath id="SVGID_14_"><use xlink:href="#SVGID_13_" style="overflow:visible"/></clipPath><path d="M241.5 358.8h-15.7l-1.4 1.5v53.8m17.1 1.4h-15.7" style="clip-path:url(#SVGID_14_);fill:none;stroke:#000;stroke-width:.425;stroke-linecap:round;stroke-linejoin:round;stroke-miterlimit:10"/><defs><path id="SVGID_15_" d="M0 0h800v650H0z"/></defs><clipPath id="SVGID_16_"><use xlink:href="#SVGID_15_" style="overflow:visible"/></clipPath><path d="M236.5 375.8c0-2.7-2.2-5-5-5-2.7 0-5 2.2-5 5 0 2.7 2.2 5 5 5 2.7 0 5-2.2 5-5m0 22.7c0-2.7-2.2-5-5-5-2.7 0-5 2.2-5 5 0 2.7 2.2 5 5 5 2.7 0 5-2.3 5-5m291.4-39.7v56.7m14.7-39.7c0-2.7-2.2-5-5-5-2.7 0-5 2.2-5 5 0 2.7 2.2 5 5 5s5-2.2 5-5m-4.2 11.4c0-1.2-1-2.1-2.1-2.1-1.2 0-2.1 1-2.1 2.1 0 1.2 1 2.1 2.1 2.1s2.1-1 2.1-2.1m5.5 11.3c0-3.4-2.8-6.2-6.2-6.2s-6.2 2.8-6.2 6.2c0 3.4 2.8 6.2 6.2 6.2s6.2-2.8 6.2-6.2" style="clip-path:url(#SVGID_16_);fill:none;stroke:#000;stroke-width:.425;stroke-linecap:round;stroke-linejoin:round;stroke-miterlimit:10"/><defs><path id="SVGID_17_" d="M0 0h800v650H0z"/></defs><clipPath id="SVGID_18_"><use xlink:href="#SVGID_17_" style="overflow:visible"/></clipPath><path d="M543.9 375.8c0-3.4-2.8-6.2-6.2-6.2s-6.2 2.8-6.2 6.2c0 3.4 2.8 6.2 6.2 6.2s6.2-2.7 6.2-6.2m.9 38.3-1.5 1.4h-15.4m0-56.7h15.4" style="clip-path:url(#SVGID_18_);fill:none;stroke:#000;stroke-width:.425;stroke-linecap:round;stroke-linejoin:round;stroke-miterlimit:10"/><defs><path id="SVGID_19_" d="M0 0h800v650H0z"/></defs><clipPath id="SVGID_20_"><use xlink:href="#SVGID_19_" style="overflow:visible"/></clipPath><path d="m543.3 358.8 1.5 1.5v53.8m-4.7-11.3c2.4-1.4 3.2-4.4 1.8-6.8s-4.4-3.2-6.8-1.8c-2.4 1.4-3.2 4.4-1.8 6.8s4.5 3.2 6.8 1.8M224.4 547.5V414.1m10.1 133.4v-132m-10.1 131.9c0 18.4 14.9 33.4 33.4 33.4" style="clip-path:url(#SVGID_20_);fill:none;stroke:#000;stroke-width:.425;stroke-linecap:round;stroke-linejoin:round;stroke-miterlimit:10"/><defs><path id="SVGID_21_" d="M0 0h800v650H0z"/></defs><clipPath id="SVGID_22_"><use xlink:href="#SVGID_21_" style="overflow:visible"/></clipPath><path d="M234.5 547.4c0 12.9 10.4 23.3 23.3 23.3m42.5 10.1h-42.4m41.1-10.1h-41.1m66.2 10.1h-18.4m18.4-10.1h-19.4" style="clip-path:url(#SVGID_22_);fill:none;stroke:#000;stroke-width:.425;stroke-linecap:round;stroke-linejoin:round;stroke-miterlimit:10"/><defs><path id="SVGID_23_" d="M0 0h800v650H0z"/></defs><clipPath id="SVGID_24_"><use xlink:href="#SVGID_23_" style="overflow:visible"/></clipPath><path d="M233.4 384.2c-1.6-.3-3.2.8-3.4 2.4-.3 1.6.8 3.2 2.4 3.4 1.6.3 3.2-.8 3.4-2.4m300.9-3.4c-1.6-.3-3.2.8-3.4 2.4-.3 1.6.8 3.2 2.4 3.4s3.2-.8 3.4-2.4" style="clip-path:url(#SVGID_24_);fill:none;stroke:#000;stroke-width:.283;stroke-linecap:round;stroke-linejoin:round;stroke-miterlimit:10"/><defs><path id="SVGID_25_" d="M0 0h800v650H0z"/></defs><clipPath id="SVGID_26_"><use xlink:href="#SVGID_25_" style="overflow:visible"/></clipPath><path d="M0 597.3c0 .7.7 1.4 1.4 1.4m-.2-83.8c-.7 0-1.2.5-1.2 1.3m0-.1v81.2m1.4 1.5h52.7m-.3-83.9H1.2m54.1 1.3c0-.7-.6-1.3-1.4-1.3m.2 83.9c.7 0 1.2-.5 1.2-1.2m0-81.5v81.4m8.8-238.7v56.7" style="clip-path:url(#SVGID_26_);fill:none;stroke:#000;stroke-width:.425;stroke-linecap:round;stroke-linejoin:round;stroke-miterlimit:10"/><defs><path id="SVGID_27_" d="M0 0h800v650H0z"/></defs><clipPath id="SVGID_28_"><use xlink:href="#SVGID_27_" style="overflow:visible"/></clipPath><path d="M35.7 384c-1.7 0-3.1 1.4-3.1 3.1s1.4 3.1 3.1 3.1c1.7 0 3.1-1.4 3.1-3.1s-1.3-3.1-3.1-3.1" style="clip-path:url(#SVGID_28_);fill:none;stroke:#000;stroke-width:.283;stroke-linecap:round;stroke-linejoin:round;stroke-miterlimit:10"/><defs><path id="SVGID_29_" d="M0 0h800v650H0z"/></defs><clipPath id="SVGID_30_"><use xlink:href="#SVGID_29_" style="overflow:visible"/></clipPath><path d="M7.4 414.1v1.4h56.7M7.4 358.8h56.7m-56.7 0v55.3m29.7 100.8v-99.4m10.1 99.4v-99.4M36.5 383c-2.3-.4-4.5 1.1-4.9 3.4s1.1 4.5 3.4 4.9 4.5-1.1 4.9-3.4m184.5 54.6h10.1" style="clip-path:url(#SVGID_30_);fill:none;stroke:#000;stroke-width:.425;stroke-linecap:round;stroke-linejoin:round;stroke-miterlimit:10"/><defs><path id="SVGID_31_" d="M0 0h800v650H0z"/></defs><clipPath id="SVGID_32_"><use xlink:href="#SVGID_31_" style="overflow:visible"/></clipPath><path d="M304.6 570.6c-1.8 0-1 2.9-.1 4.6 4.7 9.5-3.4 4.7-.2-.2m-4.1 5.8c1.8 0 1-2.9.1-4.6-4.7-9.5 3.4-4.7.2.2" style="clip-path:url(#SVGID_32_);fill:none;stroke:#000;stroke-width:.283;stroke-linecap:round;stroke-linejoin:round;stroke-miterlimit:10"/><defs><path id="SVGID_33_" d="M0 0h800v650H0z"/></defs><clipPath id="SVGID_34_"><use xlink:href="#SVGID_33_" style="overflow:visible"/></clipPath><path d="M328.5 113.8v.4m0-73.4h0m178.2 0v-5.4m0 83.8v-5.4m-.3-78.4V35m-177.9 5.8V35m0 85v-5.8m0-73.4v-5.4m0 78.4v5.4m182.6-83.8h-4.7m0 83.8h4.7m-186.9 0h4.3m0-83.8h-4.3m0 83.8v-1.4m4.3-4h178.2m4.4 5.4V98m0-48.2V35.4m-4.4 5.4H328.5m-4.3 77V35.4m4.3 84.6h177.9m0-85H328.5m177.9 85v-.8M328.5 40.8h177.9m4.7 57.2h.7V49.8h-.7M304.8 63.4v-3.9l-.7-1.8-.8-1.8v-1.5l.4-.7v-.3m20.5 10h-19.4m19.4-10h-20.5M15.8 544.1v-2.9m0 38.2v-2.9m0-25.2v-2.9m0 9.8v-2.9m0 10.1v-2.9M28 581.6H16.1m-.3-9v-2.9m18-33.9v49m0 0H10.4v-49h23.4m7.2-5.4v6.2m0 0h-4.3m0 0v-6.2m0 0H41m-7.6 31.4h0" style="clip-path:url(#SVGID_34_);fill:none;stroke:#000;stroke-width:.425;stroke-linecap:round;stroke-linejoin:round;stroke-miterlimit:10"/><defs><path id="SVGID_35_" d="M0 0h800v650H0z"/></defs><clipPath id="SVGID_36_"><use xlink:href="#SVGID_35_" style="overflow:visible"/></clipPath><path d="M28 581.6H16.1v-2.2m0-9.7h-1.8v-1.5h-1.8m3.6 4.4h4.2m-.2-2.9h-4m0-7.2h-1.8V561h-1.8m3.6 4.4h4m.2-2.9h-4.2m0-7.2h-1.8v-1.1h-1.8m3.6 4h4m.2-2.9h-4.2m0-6.9h-1.8V547h-1.8m3.6 4.3h4.2m-.2-2.9h-4m0 28.1h-1.8v-1.1h-1.8m3.6 4h4m.2-2.9h-4.2m17.3-32.7h0m0-2.2h0m0 21.2h0m0-14h0m0 6.8h0m0 21.3h0m0-6.9h0m-19.1-30.2h-1.8v5.8h1.8v-1.5" style="clip-path:url(#SVGID_36_);fill:none;stroke:#000;stroke-width:.425;stroke-linecap:round;stroke-linejoin:round;stroke-miterlimit:10"/><defs><path id="SVGID_37_" d="M0 0h800v650H0z"/></defs><clipPath id="SVGID_38_"><use xlink:href="#SVGID_37_" style="overflow:visible"/></clipPath><path d="M25.1 578.1c0-1.5-1.2-2.7-2.7-2.7s-2.7 1.2-2.7 2.7 1.2 2.7 2.7 2.7 2.7-1.2 2.7-2.7m-2.7-37.9c-1.5 0-2.7 1.2-2.7 2.7s1.2 2.7 2.7 2.7 2.7-1.2 2.7-2.7-1.2-2.7-2.7-2.7m0 6.8c-1.5 0-2.7 1.2-2.7 2.7s1.2 2.7 2.7 2.7 2.7-1.2 2.7-2.7-1.2-2.7-2.7-2.7m0 7.2c-1.5 0-2.7 1.2-2.7 2.7s1.2 2.7 2.7 2.7 2.7-1.2 2.7-2.7-1.2-2.7-2.7-2.7m0 7.2c-1.5 0-2.7 1.2-2.7 2.7s1.2 2.7 2.7 2.7 2.7-1.2 2.7-2.7-1.2-2.7-2.7-2.7m0 6.8c-1.5 0-2.7 1.2-2.7 2.7s1.2 2.7 2.7 2.7 2.7-1.2 2.7-2.7-1.2-2.7-2.7-2.7m-6.3 4.4v3.9m0-11.1v4.3m0-11.5v4.3m0-11.2v4m0-11.2v4.3m-1.8 24.2h1.8m-1.8-7.2h1.8m-1.8-7.2h1.8m-1.8-6.9h1.8m-1.8-7.2h1.8m-1.8 36.7v-1.4h1.8m-1.8-5.4v-1.4m0-5.8v-1.4m0-5.8v-1.4m0-5.4v-1.5m0-10.1v-1.4m1.8 4.3h4m.2-2.9h-6m17 37.5v-4m-18.8 6.1h1.8m-1.8-6.8h1.8m-1.8-7.2h1.8m-1.8-7.2h1.8m-1.8-6.8h1.8m1.8-13.7v2.1m15.2 2.2v-4.3m0 35.6H28v4h3.3M28 539.1v4.3h3.3m-3.3-2.2h-3.4m.2 2.9H28m0 4.3h-3.2m-.2 2.9H28m0 4h-3.4m.2 2.9H28m0 4.3h-3.4m.2 2.9H28m0 4.3h-3.2m-.2 2.9H28m0 3.9h-3.4m.2 2.9H28m-15.5 1.4v-5.4m0-1.4v-5.8m0-1.4V561m0-1.4v-5.4m0-1.4V547m3.6-7.9h15.2M28 578.7v2.9m0-38.2v31.3m5.4-9.7h0m0-14h0m0 7.2h0m0 21.2h0m0-7.2h0" style="clip-path:url(#SVGID_38_);fill:none;stroke:#000;stroke-width:.425;stroke-linecap:round;stroke-linejoin:round;stroke-miterlimit:10"/><path class="st21" d="m275.3 240.7 28.1-60.2h71.1"/><path class="st22" d="m277.8 240.3-5.1 6.1 1.4-7.8 3.7 1.7z"/><path class="st21" d="m38.5 381.4 28-60.2h134.7"/><path class="st22" d="m40.9 381-5.1 6.1 1.4-7.9 3.7 1.8z"/><path class="st21" d="m235.7 381.4 28.1-60.2h120.8"/><path class="st22" d="m238.2 381-5.1 6.1 1.4-7.9 3.7 1.8z"/><path d="M216.1 387.3h340m-340-140.7h340" style="fill:none;stroke:#020203;stroke-width:.283;stroke-linecap:round;stroke-linejoin:round;stroke-miterlimit:10;stroke-dasharray:14.173,5.669,2.835,5.669"/><path d="M24.5 387.3h22.7m-11.4-11.4v22.7M272.7 258v-22.7M496.6 258v-22.7" style="fill:none;stroke:#020203;stroke-width:.283;stroke-linecap:round;stroke-linejoin:round;stroke-miterlimit:10;stroke-dasharray:8.504,2.835,2.835,2.835"/><text transform="translate(305.413 175.54)" class="st22 st25 st26">2 x M3 x 3</text><text transform="translate(68.549 316.226)" class="st22 st25 st26">M3 x 5 on both sides</text><text transform="translate(288.898 316.226)" class="st22 st25 st26">2 x M2 x 6</text><text transform="translate(265.821 334.23)" class="st22 st25 st26">(for accessories)</text></svg>