<svg version="1.1" id="Ebene_1" xmlns="http://www.w3.org/2000/svg" xmlns:xlink="http://www.w3.org/1999/xlink" x="0" y="0" viewBox="0 0 1105.5 459.2" style="background-color:#fff" xml:space="preserve"><style>.st0{clip-path:url(#SVGID_2_);fill:none;stroke:#000;stroke-width:.425;stroke-linecap:round;stroke-linejoin:round}.st0,.st1{stroke-miterlimit:10}.st1,.st11,.st12,.st13,.st2,.st3,.st4{fill:none;stroke:#000;stroke-width:.283;stroke-linecap:round;stroke-linejoin:round}.st3{stroke-dasharray:.599,2.996}.st4{stroke-dasharray:8.988,2.996,.599,2.996}.st11{stroke-dasharray:.621,3.107}.st12{stroke-dasharray:.491,2.456}.st13{stroke-dasharray:7.368,2.456,.491,2.456}.st18{font-family:Helvetica,Arial,sans-serif}.st19{font-size:14.9996px}.st20{font-size:14.9997px}.st22{font-size:14.9998px}</style><defs><path id="SVGID_1_" d="M0 0h1105.5v459.2H0z"/></defs><clipPath id="SVGID_2_"><use xlink:href="#SVGID_1_" overflow="visible"/></clipPath><path class="st0" d="M637 209.7c0 5.1 4.1 9.3 9.3 9.3 5.1 0 9.3-4.2 9.3-9.3 0-5.1-4.1-9.3-9.3-9.3-5.1.1-9.3 4.2-9.3 9.3"/><path class="st0" d="M646.3 221.1c6.3 0 11.3-5.1 11.3-11.3 0-6.3-5.1-11.3-11.3-11.3-6.3 0-11.3 5.1-11.3 11.3m58.7-.1c0 5.1 4.1 9.3 9.3 9.3s9.3-4.2 9.3-9.3c0-5.1-4.1-9.3-9.3-9.3-5.1.1-9.3 4.2-9.3 9.3"/><path class="st0" d="M703 221.1c6.3 0 11.3-5.1 11.3-11.3 0-6.3-5.1-11.3-11.3-11.3-6.3 0-11.3 5.1-11.3 11.3m-153.3-.1c0 5.1 4.1 9.3 9.3 9.3s9.3-4.2 9.3-9.3c0-5.1-4.2-9.3-9.3-9.3-5.2.1-9.3 4.2-9.3 9.3"/><path class="st0" d="M547.6 221.1c6.3 0 11.3-5.1 11.3-11.3 0-6.3-5.1-11.3-11.3-11.3-6.3 0-11.3 5.1-11.3 11.3m45.3-.1c0 10.7 8.7 19.4 19.3 19.4 10.7 0 19.4-8.7 19.4-19.3 0-10.7-8.7-19.4-19.3-19.4-10.8 0-19.4 8.7-19.4 19.3"/><path class="st0" d="M600.9 232.4c12.5 0 22.7-10.1 22.7-22.7 0-12.5-10.2-22.7-22.7-22.7s-22.7 10.2-22.7 22.7"/><path class="st0" d="M470.5 50.9h260.8v317.5H470.5zm107.8 256.5h45.4"/><path class="st0" d="M578.2 293.4c-3.9 0-7.1 3.2-7.1 7.1 0 3.9 3.2 7.1 7.1 7.1m45.5-14.2h-45.4m45.3 14.2c3.9 0 7.1-3.2 7.1-7.1 0-3.9-3.2-7.1-7.1-7.1m-45.3-167.3h45.4m-45.5-14.2c-3.9 0-7.1 3.2-7.1 7.1 0 3.9 3.2 7.1 7.1 7.1m45.5-14.2h-45.4m45.3 14.2c3.9 0 7.1-3.2 7.1-7.1 0-3.9-3.2-7.1-7.1-7.1M425.7 296.8v-61.9m-59.4 61v-60.1m-1.3 59v-58m105.5-22.1h-10.6m0 0l.2.2v1.2l-.2.9m0 0h10.6m-43 85.9v-74.2m-49.7 68.1v-61.9m41.4 0v.5l.2 1.3.2 1.9.2 2.6v3l.1 3.4.2 4 .2 4.3v4.5l.2 4.5.2 4.7.1 4.5v4.3l.2 4.2.2 3.6.2 3.2m-7.9-54.5l.1.3v.6l.2.9v1l.2 1.5v1.6l.2 1.8v2.2l.2 2.3v2.3l.1 2.7v2.7l.2 2.9v6l.2 2.8v3.1l.2 2.9v2.9l.2 2.8v2.7l.1 2.6v2.3l.2 2.2v1.9l.2 1.8v1.5l.2 1.2v1.1l.2.7v.4l.1.2m-8.4-61.9v.3l.2.6v.9l.1 1v1.5l.2 1.6v1.8l.2 2.2v2.3l.2 2.3v2.7l.2 2.7v2.9l.1 2.9v5.9l.2 3.1v2.9l.2 2.9v2.8l.2 2.7v2.6l.2 2.3v2.2l.1 1.9v1.8l.2 1.5v1.2l.2 1.1v.7l.2.4v.2m-8.1-60.5v2.2l.2 3 .1 3.8.2 4.3.2 4.9.2 5.2.2 5.6.1 5.4.2 5.2v5l.2 4.5.2 4 .2 3.1.1 2.3.2 1.4.2.6m13.1-.2l-.1-.9-.4-1.4-.2-2.2-.3-2.7-.2-3.2v-3.8l-.2-4.2-.2-4.5-.2-4.6-.1-4.7v-4.7l-.2-4.5-.2-4.3-.2-4v-3.4l-.2-3.1-.1-2.3-.2-1.8v-1.1l-.2-.3m-2.9 61.9l-.2-.4v-.5l-.1-.9v-1.1l-.2-1.4v-1.7l-.2-1.9v-2l-.2-2.4v-5l-.2-2.7v-2.9l-.1-2.9v-3l-.2-2.9V262l-.2-2.8v-2.9l-.2-2.9v-2.7l-.2-2.5v-2.4l-.1-2.1v-2l-.2-1.8v-1.4l-.2-1.3v-1.1l-.2-.7v-.4l-.2-.1m-2.8 61.9v-.4l-.2-.5v-.9l-.2-1.1v-1.4l-.2-1.7v-1.9l-.2-2V282l-.1-2.5v-2.7l-.2-2.9V271l-.2-3v-2.9l-.2-3.1v-2.8l-.2-2.9v-2.9l-.1-2.7v-2.5l-.2-2.4v-2.1l-.2-2v-1.8l-.2-1.4v-1.3l-.2-1.1v-.7l-.1-.4v-.1m-2.9 61.9l-.2-.7-.2-1.8-.2-2.4-.1-3.4v-4l-.2-4.5-.2-4.8-.2-5.2-.2-5.4-.1-5.4-.2-5.1-.2-4.8v-4.2l-.2-3.8-.2-2.8-.1-2.2-.2-1.1-.2-.3m-2.9 61.9v-.4l-.2-.5v-.9l-.1-1.1v-1.4l-.2-1.7v-1.9l-.2-2V282l-.2-2.5v-2.7l-.2-2.9V271l-.1-3v-2.9l-.2-3.1v-2.8l-.2-2.9v-2.9l-.2-2.7v-2.5l-.2-2.4v-2.1l-.1-2v-1.8l-.2-1.4v-1.3l-.2-1.1v-.7l-.2-.4v-.1m-2.9 61.9l-.1-.4v-.5l-.2-.9v-1.1l-.2-1.4v-1.7l-.2-1.9v-4.4l-.2-2.5v-2.5l-.1-2.7v-2.9l-.2-2.9v-3l-.2-2.9V262l-.2-2.8v-2.9l-.2-2.9v-2.7l-.1-2.5v-2.4l-.2-2.1v-2l-.2-1.8v-1.4l-.2-1.3v-1.1l-.2-.7v-.4l-.1-.1m-2.9 61.9v-.4l-.2-.5v-.9l-.2-1.1v-1.4l-.2-1.7v-3.9l-.1-2.4V282l-.2-2.5v-2.7l-.2-2.9V271l-.2-3v-2.9l-.2-3.1v-2.8l-.1-2.9v-2.9l-.2-2.7v-2.5l-.2-2.4v-2.1l-.2-2v-1.8l-.2-1.4v-1.3l-.1-1.1v-.7l-.2-.4v-.1m-.9 55.9h-.7v6m.7-6l.2 2.6.3 1.8.2 1.2.4.4m4.1-61.9v.3l.2.6v.9l.2 1v1.5l.1 1.6v1.8l.2 2.2v2.3l.2 2.3v2.7l.2 2.7v2.9l.2 2.9v3.1l.1 2.8v6l.2 2.9v2.8l.2 2.7v2.6l.2 2.3v2.2l.2 1.9v1.8l.1 1.5v1.2l.2 1.1v.7l.2.4v.2m2.9-61.9l.2.3v.6l.1.9v1l.2 1.5v1.6l.2 1.8v2.2l.2 2.3v2.3l.2 2.7v2.7l.1 2.9v2.9l.2 3.1v5.9l.2 2.9v2.9l.2 2.8v2.7l.2 2.6v2.3l.1 2.2v1.9l.2 1.8v1.5l.2 1.2v1.1l.2.7v.4l.2.2m2.8-61.9v.3l.2.6v.9l.2 1v1.5l.2 1.6v1.8l.2 2.2v2.3l.1 2.3v2.7l.2 2.7v2.9l.2 2.9v5.9l.2 3.1v2.9l.2 2.9v2.8l.1 2.7v2.6l.2 2.3v2.2l.2 1.9v1.8l.2 1.5v1.2l.2 1.1v.7l.1.4v.2m2.9-61.9l.2.5.2.9m-25.4 59.6v-60.1m-2.9 60.1v-60.1m-2 0v.1l.2.6.4.9.3 1.1.6 2.7.3 3.4-.3 4.1-.6 4.7-.3 2.9-.4 3-.2 3.3v6.5l.2 3 .4 3.3.3 2.8.6 4.7.3 4.2-.3 3.4-.6 2.7-.3 1.1-.4.9-.2.5v.2m1.1-57.1l-.2-.3m83.9-23.8h2.9M457 316.8h13.5m-10.6-2.2l-1.4-6.3-.9-5.9-.4-5.6-.2-5.4m13.5 23.2h-10.6m0-46.4h10.6M457 291.4l.2-5.6.4-5.6.9-5.9 1.4-6.1m0-4.7l-1.4-6.3-.9-5.8-.4-5.6-.2-5.5m13.5 23.2h-10.6m-2.9-23.2l.2-5.4.4-5.6.9-6 1.4-6.3m-2.9 23.3v-25.6m2.9 102.1h.2v-1.3l-.2-.9m-2.9 2.2v-25.4m2.9-23.2l.2-1.3v-2.3l-.2-1.1m-19.1-36h-10.4m11.5 0h-1.1m1.1 0h7.4m1.1 0h-1.1m1.1 0h6.6m-2.1 0l.1 1.6v2l.2 2.1.2 2.7.2 2.9v3.1l.2 3.4.1 3.6v3.8l.2 3.9.2 4 .2 4v4.1l.2 4 .1 3.9.2 3.8m-1.1 23.8h1.1m-4.3-76.7l.2 2.7.2 3.4.1 4.1.4 4.7.2 5.4.2 5.8.1 6.1.2 6.1.2 6.1.2 6.2.3 5.7.2 5.4.2 4.7.2 4.1.2 3.5.1 2.7m-11.3 0h11.3m-12.4 0h1.1m-8.5 0h7.4m-8.4 0h1m-5.7-76.7v76.7h4.7m2.7-76.7l.1 2.7.4 3.4.2 4.1.2 4.7.1 5.4.2 5.8.2 6.1.2 6.1.3 6.1.2 6.2.2 5.7.2 5.4.2 4.7.1 4.1.2 3.5.4 2.7m6.3 0l-.2-2.7-.2-3.5-.2-4.1-.3-4.7-.2-5.4-.2-5.7-.2-6.2-.1-6.1-.2-6.1-.2-6.1-.4-5.8-.1-5.4-.2-4.7-.2-4.1-.2-3.4-.2-2.7m-2.3 0l.2 3.4v4l.2 4.3.1 4.8.2 5.1.2 5.4.2 5.6.2 5.7.1 5.6.2 5.8.2 5.4.2 5 .2 4.9.1 4.3.2 3.9.2 3.5m1.8-76.7l.2 2.7.2 3.4.1 4.1.2 4.7.2 5.4.2 5.8.3 6.1.2 6.1.2 6.1.2 6.2.2 5.7.1 5.4.2 4.7.4 4.1.2 3.5.1 2.7m.8-76.7l.1 3.4.2 4 .2 4.3.2 4.8.2 5.1v5.4l.1 5.6.2 5.7.2 5.6.2 5.8.2 5.4.1 5 .2 4.9.2 4.3.2 3.9.2 3.5m-19.3-62.5h-1.1m1.1 0l.4 4 .3 4.3.2 4.3.4 4.7.3 4.7.4 4.6.2 4.7.3 4.7.4 4.3.3 4.2.2 3.9.4 3.6.3 3.3.4 2.8.2 2.4.3 2m-6.1 0v-62.5"/><path class="st0" d="M435.1 304.2l-.2-2.7-.2-3.1-.2-3.2v-3.8l-.2-3.8-.1-4.1-.2-4.2V275l-.2-4.5-.2-4.3-.2-4.5-.1-4.3v-4.2l-.2-4.1-.2-3.8-.2-3.6m-32-8.3v1.1l.2 1.1v1.6l.1 2v2.3l.2 2.7v3.1l.2 3.2v3.6l.2 3.8v4l.2 3.7.1 3.8v3.4l.2 3.3v5.7l.2 2.4.2 4.3v3.4l.2 2.9.1 2 .2 1.8v1.1l.2.1m2.9-68v.2l.2.7v1.3l.1 1.8.2 2.1v2.7l.2 2.9v2.9l.2 3v3.1l.2 3.1v2.8l.1 5.6.2 5.2.2 4.9v4.9l.2 4.8.2 2.4v2.3l.1 2.2v2.1l.2 2.2v1.6l.2 1.4v1.1l.2.6.2.1m2.7-68l.1.2v.7l.2.9v1.3l.2 1.2v1.6l.2 3.6.2 3.8v4.3l.1 4.7.2 5.6.2 3.1v3.2l.2 3.4v3.6l.2 3.6v3.8l.1 3.8v3.4l.2 3.1.2 2.8v2.2l.2 1.8.2 1.1v.9l.1.3m2.9-68v.2l.2.7v1.1l.2 1.6.2 2.2v3l.1 3.8.2 4.7v2.5l.2 2.9v3.2l.2 3.1v3.2l.2 3.3v3.2l.1 3.2v2.9l.2 2.9v4.9l.2 4.1.2 3.2m0 0l.2 3.3.1 2.1v1.3l.2.4m-36.7-67v.2l.2.3v1.5l.2 2.3.1 2.9.2 4.1v2.4l.2 2.7v3l.2 3.5v3.7l.2 4 .1 4.3v4.5l.2 4.3.2 4.2v3.8l.2 3.6.2 2.8v2.6l.1 2.1v1.6l.2 1.3v1.1l.2 1.1.2.1m2.7-68l.2.2v.3l.1.8v1.2l.2 1.6v2l.2 2.5v3.1l.2 3.6.2 3.8v3.9l.1 4.2.2 3.9v4l.2 3.6v3.4l.2 3.1v2.9l.2 4.8.1 4.3.2 3.5v2.8l.2 2.6.2.9v.5l.2.5m2.8-68v.2l.2.9v1.1l.2 1.8.2 1.9v2.4l.2 2.5v2.7l.1 2.7v2.7l.2 5.2.2 5.2.2 5.1v5l.2 5.2.1 2.6v5.4l.2 2.7v2.7l.2 2.3.2 2.3v2l.2 1.6v1.1l.1.6.2.1m2.7-68l.2.5.2 1.1M380 290.8l.2 3.1.1 2.3v1.3l.2.2m-6.3-12.8l-.2 2.2m53.5 11.4c0-.9-.8-1.7-1.7-1.7m0-61.9c.9 0 1.7-.8 1.7-1.7M365 294.7c0 .6.5 1.2 1.2 1.2m0-60.1c-.6 0-1.2.5-1.2 1.2m63.6-9.5h1.8m-1.8 76.7h1.8m-2.9-75.5l1.1-1.2m-1.1 75.4l1.1 1.3m-50.8-69.3h3.1m4.3 0h1.3m4.3 0h1.4m4.3 0h1.3m4.3 0h1.5m4.3 0h1.2m4.4 0h1.4m4.3 0h6.5m-47.9 61.9h1.5m1.8 0h2.7m4.1 0h1.4m4.4 0h1.2m4.3 0h1.5m4.3 0h1.3m4.3 0h1.4m4.3 0h2m3.1 0h4.3m-48.6-61l.7-.9m-.7 61l.7.9m1.5 0l.5.9m-5.6-61.9h2.9m-2.9 60.1h2.9m-3.8-57.1h.9m-.9 54h.9m-7.9-57h5.9m-5.9 60.1h5.9m44.1.9l-1.8 3m-3.9-3l-1.6 3m-4-3l-1.8 3m2.9-68l1.8 3.1m3.8-3.1l1.8 3.1m3.9-3.1l1.8 3.1m-5.4 64.9l-1.8-3m-3.9 3l-1.8-3m-3.8 3l-1.8-3m14.2-61.9l1.6-3.1m-7.4 3.1l1.8-3.1m-7.3 3.1l1.6-3.1m14.2 67l-1.3-2.2m3.3.2l-1.3 2m-16.9 1h-.7m3.6-68h-.7m3.4 68h-.7m3.6-68h-.8m3.6 68h-.7m3.6-68h-.7m3.4 67h-.7m-31.5-2l-1.6 3m7.4-3l-1.8 3m7.3-3l-1.6 3m-14.2-68l1.8 3.1m3.8-3.1l1.8 3.1m3.9-3.1l1.8 3.1m3.8-3.1l1.8 3.1m-5.4 64.9l-1.8-3m-3.8 3l-1.8-3m-3.9 3l-1.8-3m14.2-61.9l1.8-3.1m-7.4 3.1l1.6-3.1m-7.3 3.1l1.8-3.1m-7.4 3.1l1.6-3.1m.9 0h-.7m3.4 68h-.7m3.6-68h-.7m3.6 68h-.8m3.6-68h-.7m3.4 68h-.7m3.6-68h-.7m-18.4 65l-.7.9m0 .2h-.7m-5.8-11l-.1 2.5m0-47.3l.1 2.7m546.2 123.6v-28.2H940v28.2h11.3v-28.2h19.8v28.2h11.3v-28.2h19.8v28.2h11.4v-28.2h20v28.2h26.8V50.9h-26.8v28.4h-20V50.9h-11.4v28.4h-19.8V50.9h-11.3v28.4h-19.8V50.9H940v28.4h-19.8V50.9h-11.4v28.4h-20V50.9h-11.3v28.4h-19.8V50.9h-11.3v28.4h-19.8V50.9h-27v317.5h27v-28.2h19.8v28.2h11.3v-28.2h19.8v28.2h11.3v-28.2h20v28.2h11.4m-116-89.5c0 31.3 25.3 56.6 56.6 56.6m-56.6-195v138.3m56.7-195c-31.3 0-56.6 25.3-56.6 56.6m194.9-56.6H860.9m195 56.6c0-31.3-25.3-56.6-56.6-56.6m56.6 195V140.5m-56.6 195c31.3 0 56.6-25.3 56.6-56.6m-195 56.6h138.3m-138.3-249c-29.8 0-53.9 24.1-53.9 53.9m53.9-53.7h138.3m54 53.7c0-29.8-24.1-53.9-53.9-53.9m53.7 54v138.3m-53.7 54c29.8 0 53.9-24.1 53.9-53.9m-54 53.9H860.9m-54-53.9c0 29.8 24.1 53.9 53.9 53.9m-53.9-54V140.5m-8.4-51.8V86m0 55.6v-2.9m1.1 2.9h-1.1m-.6-51.5v-1.4m0 50V90.1m0 48.6h.6m1.1-52.7h-1.1m-.6 2.7h.6M271.3 209.8c0-38.3-31.1-69.4-69.4-69.4-38.3 0-69.4 31.1-69.4 69.4 0 38.3 31.1 69.4 69.4 69.4 38.3-.1 69.3-31.1 69.4-69.4"/><path class="st0" d="M191.9 340.2h19.8v28.2H223v-28.2h19.8v28.2h11.4v-28.2h19.9v28.2h11.4v-28.2h19.8v28.2h27V50.9h-27v28.4h-19.8V50.9h-11.4v28.4h-19.9V50.9h-11.4v28.4H223V50.9h-11.3v28.4h-19.8V50.9h-11.4v28.4h-19.8V50.9h-11.3v28.4h-19.8V50.9h-11.3v28.4h-20V50.9H71.5v317.5h26.8v-28.2h20v28.2h11.3v-28.2h19.8v28.2h11.3v-28.2h19.8v28.2h11.4v-28.2"/><path class="st0" d="M333.4 138.7v2.9h-1.1m1.1-55.6v2.7m.5 0v50m0 0h-.5M332.3 86h1.1m.5 2.7h-.5m668.1 197.5c11.3-11.3 11.3-29.6 0-40.8-11.3-11.3-29.5-11.3-40.8-.1m0 0c-11.3 11.3-11.3 29.6 0 40.8 11.3 11.3 29.5 11.3 40.8.1m-40.8-40.9"/><path class="st0" d="M998.2 283.6c9.9-9.5 10.2-25.1.8-35-9.5-9.9-25.1-10.2-35-.8-9.9 9.5-10.2 25.1-.8 35 9.5 9.9 25.1 10.3 35 .8m9.6-68.9l1.3.2 1.1.5.9.7.7.9m-74.9 74.2c9.1 15.8 26 25.5 44.2 25.5m-44.2-25.3l13.3 23.2m0 0l.7.9 1.1.7 1.1.6h1.1m0 0H981"/><path class="st0" d="M1018.3 265.7c0-20.5-16.6-37.2-37.2-37.2s-37.2 16.6-37.2 37.2c0 20.5 16.6 37.2 37.2 37.2 20.5 0 37.2-16.6 37.2-37.2"/><path class="st0" d="M1002.9 243.9c-12.1-12.1-31.6-12.1-43.7 0-12.1 12.1-12.1 31.6 0 43.7 12.1 12.1 31.6 12.1 43.7 0 12.1-12.1 12.1-31.6 0-43.7"/><path class="st0" d="M988.2 262.9c-.7-.7-1.8-.7-2.4 0-.7.7-.7 1.8 0 2.4.7.7 1.8.7 2.4 0 .7-.7.7-1.7 0-2.4m-10.4-2.7c-.7-.7-1.8-.7-2.4 0-.7.7-.7 1.8 0 2.4.7.7 1.8.7 2.4 0 .7-.7.7-1.7 0-2.4m0-11.5c-.7-.7-1.8-.7-2.4 0-.7.7-.7 1.8 0 2.4.7.7 1.8.7 2.4 0 .7-.7.7-1.8 0-2.4m10.6.7c-.7-.7-1.8-.7-2.4 0-.7.7-.7 1.8 0 2.4.7.7 1.8.7 2.4 0 .7-.7.7-1.7 0-2.4m8.1 6.8c-.7-.7-1.8-.7-2.4 0s-.7 1.8 0 2.4c.7.7 1.8.7 2.4 0 .7-.6.7-1.7 0-2.4m2 10.5c-.7-.7-1.8-.7-2.4 0-.7.7-.7 1.8 0 2.4.7.7 1.8.7 2.4 0 .7-.7.7-1.8 0-2.4m-4.7 9.5c-.7-.7-1.8-.7-2.4 0-.7.7-.7 1.8 0 2.4.7.7 1.8.7 2.4 0 .7-.6.7-1.7 0-2.4m-9.3 4.7c-.7-.7-1.8-.7-2.4 0-.7.7-.7 1.8 0 2.4.7.7 1.8.7 2.4 0 .6-.7.6-1.7 0-2.4m-10.5-2.2c-.7-.7-1.8-.7-2.4 0s-.7 1.8 0 2.4c.7.7 1.8.7 2.4 0 .7-.6.7-1.7 0-2.4m-7-7.9c-.7-.7-1.8-.7-2.4 0-.7.7-.7 1.8 0 2.4.7.7 1.8.7 2.4 0 .7-.6.7-1.7 0-2.4m-.5-10.6c-.7-.7-1.8-.7-2.4 0-.7.7-.7 1.8 0 2.4.7.7 1.8.7 2.4 0 .6-.7.6-1.7 0-2.4m14.2 10.4c-.7-.7-1.8-.7-2.4 0-.7.7-.7 1.8 0 2.4.7.7 1.8.7 2.4 0 .6-.6.6-1.7 0-2.4m-57.3-7.1l13.5-23.2 13.3-23.3m4-2.3h53.6m-84.4 53.5l13.5 23.2m44.1 25.4h26.8m4-2.2l13.5-23.2 13.3-23.2m-26.8-51.2l13.5 23.3 13.3 23.2m-115.2 0l-.4 1.1-.1 1.2.1 1.1.4 1.3m13.5-28a51.05 51.05 0 000 51m17.3-76.5l-1.1.2-1.1.5-1.1.7-.7.9m30.9-2.3c-18.2 0-35.1 9.7-44.2 25.5m88.4 0c-9.1-15.8-26-25.5-44.2-25.5m26.7 102.1h1.3l1.1-.6.9-.7.7-.9m-30.7 2.2c18.2 0 35.1-9.7 44.2-25.5m13.3-23.1l.5-1.3.2-1.1-.2-1.2-.5-1.1m-13.3 27.7c9.1-15.8 9.1-35.2 0-51m-68.6-12.7h48.8m-48.8 76.7h48.8"/><path class="st0" d="M956.7 227.5l-4.7 3.4-4.1 4-3.6 4.3-3.1 4.8-2.3 5.1-1.8 5.4-1.1 5.6-.4 5.7.4 5.6 1.1 5.8 1.8 5.4 2.3 5 3.1 4.9 3.6 4.3 4.1 3.9 4.7 3.5m48.8 0l4.5-3.5 4.1-3.9 3.6-4.3 3.1-4.9 2.5-5 1.6-5.4 1.1-5.8.4-5.6-.4-5.7-1.1-5.6-1.6-5.4-2.5-5.1-3.1-4.8-3.6-4.3-4.1-4-4.5-3.4m-37.8 24.1l2.7-1.3m0 0l-3.4-3.4m-2.2 1.8l2.9 2.9m-5.6.2l3.6 3.4m0 0l1.1-2.9-2.7-2.7"/><path class="st0" d="M970.4 252.9l-2.7-1.3-.9.7m3.6.4c.7-.7.7-1.8 0-2.4m19.1 17.3l-.6.6m0 0l-.5-.8v-.5l.3-.7.8-.4 1 .6.6.7v2m0 0l1.1-1.1.5.5-1.8 1.6"/><path class="st0" d="M990.9 270.1l-.4-.5-.1-1.3v-.9l-.4-.7-.4-.2-.3.2-.2.6.4.3m-2.6 2.4l-.3-.6m0 0l.3-.7-.1-.5"/><path class="st0" d="M986.8 268.2l.3-.4 3.1 3.2-.4.4-2.3-2.2-.6.8m-11.3-2.4l-.4-.5m0 0l.4-.7-.2-.6"/><path class="st0" d="M975.4 265.8l.4-.3 3.2 3.2-.5.4-2.2-2.2-.7.7m-2 2l-.3-.5m0 0l.3-.8-.2-.5"/><path class="st0" d="M973.4 267.8l.4-.4 3.2 3.3-.5.3-2.2-2.1-.7.7m7.2-12.2l-.7-.9-.4-.6v-.5l.4-.6.4-.3h.5l.7.3.7.8.8.7.3.7v.5l-.2.6-.5.3-.5-.1-.8-.4-.7-.5m-2.5 1.2l-.5-.5h.1m0 0l.2-.7-.2-.6"/><path class="st0" d="M977.9 256.8l.4-.3 3.2 3.2-.5.4-2.2-2.2-.5.7m14.2-6.8l.6-.6h.1m0 0h.6l.2-.7-.6-.7m0 0"/><path class="st0" d="M993.4 249.8l-.3.9-.9.4-1.1-.6-.4-.5-.2-.6.6-1 .9-.4h.7l1.1.9.7.9.2.7-.4 1.1-.9.5-.9-.3m8.3 8.6l.5.9-.1.6-.4.7-.5.3-.8.2-.7-.5-.3-.4v-.9h-.6l-.5-.2-.4-.9.6-.9.9-.5.9.4.3.3-.2.6h.8l.5.3m-2 10.1l.4.5m0 0l.2.8.1.9.4 1 .9 1.1m0 0l-.7.7m0 0l-.7-1-.4-1.1-.4-.9v-.7m0 0l-1.6 1.6-.5-.6 2.3-2.3m-7.5 9.5l-.6.6m0 0l-.3-.2-.4.2v.7l.4.7m0 0"/><path class="st0" d="M990.4 282v-.3l.3-.6 1.1-.3.9.3.5 1.3-.3 1.1-.7.3h-.8l-1.4-.9-.7-1.2-.2-.8.5-.9.9-.3.8.3m-12.8 4l.5.7m0 0l.4-.7.9-.4h.5l.6.6.5.9v.5l-.5.7-.9.6-1.1-.4m0 0l.7-.7"/><path class="st0" d="M980.1 285.8l.4.2.5-.2.2-.5-.4-.6-.5-.2-.6.2-.1.6m0 0l-.6.5-1.6-2 1.8-1.6.5.5-1.2 1.3m-8.8-5.6l.5.4-.4.3.8.8-.8.7-.7-.7-1.2 1.2-.6-.5-.7-3.3.7-.5 2 2 .4-.4m-7.6-9.5l-.5-.6h.1"/><path class="st0" d="M961.7 268.3l.4-.3-.2-.7-.3-.2-.6.2-.2.7.4.3m0 0l-.7.6"/><path class="st0" d="M960.5 268.9l-.4-1.1.6-1.1.7-.3h.5l.6.3.1.6v.3m0 0"/><path class="st0" d="M962.6 267.6h.6l.7.4.4 1.1-.4.9-.9.5h-.5l-.8-.4m0 0l.6-.7"/><path class="st0" d="M962.3 269.4l.3.4.8-.2.1-.5-.3-.6h-.6l-.5.4m9.9-22l-.5-.3.1-.2m0 0l.4-.7-.2-.6"/><path class="st0" d="M971.8 245.1l.6-.5 3.2 3.2-.7.6-2.2-2.2-.7.7m-10.8 11l-.5.5m0 0l-.6-.7v-.5l.2-.7.9-.4 1.1.5.3.8.2.9-.2.7.2.3"/><path class="st0" d="M962.8 259.3l1.1-1 .5.5-1.8 1.8m0 0l-.3-.7-.2-1.3v-.9l-.4-.5-.3-.4-.6.2v.5l.4.4m4.5-2.7c.7.7 1.8.7 2.4 0m-1.3-2.9l1.2 2.9m0 0l2.4-2.3m12.4 4.6h-.5l-.9-.7-.9-.9v-.5l.5-.2 1.1.9.7.9v.5m9.9-7.5l-.4.2-.7-.4-.2-.5.2-.4.6-.2.5.4.2.5-.2.4m6.7 11l.5-.2.4.3.1.4-.1.5-.4.2-.5-.2-.2-.5.2-.5m-.6-1.3l.2.4-.2.5-.3.2-.4-.2-.2-.4.2-.5.4-.2.3.2m-7.7 22.1l.5-.1.6.1.3.6-.2.5-.5.2-.5-.4-.4-.5.2-.4m-22.3-2.5l-.9.7-.6-2.1"/><path class="st0" d="M967.3 277.9l.4.5 1.1.9"/><path class="st1" d="M229.4 170.4L299.7 29m761 382.3v-42.4"/><path class="st2" d="M1054.5 408h-66.6"/><path d="M1053.1 405.9l7.7 2.1-7.7 2zm-63.8 0l-7.6 2.1 7.6 2z"/><path class="st1" d="M981.4 411.3V265.7m123.5.3H981"/><path class="st2" d="M1101.6 271.9v90"/><path d="M1099.5 273.3l2.1-7.7 2.1 7.7zm0 87.2l2.1 7.6 2.1-7.6z"/><path class="st1" d="M1104.9 368.9h-44.2"/><path class="st2" d="M614.1 182.6l87.1-158.7h78.9"/><path d="M617.1 182.3l-6.6 6.9 2.2-9.3z"/><path class="st2" d="M543.6 191.1l-40-167.2h114.8"/><path d="M545.6 188.9l-.3 9.5-4.5-8.4z"/><path class="st2" d="M143.6 233.4l116.5-47.3"/><path d="M145.7 234.8l-7.9 1 6.3-4.8zm113.9-46.3l6.4-4.8-7.9 1z"/><path class="st1" d="M470.7 455.1v-86.7"/><path class="st2" d="M477.2 451.1H725"/><path d="M478.7 453.1l-7.7-2 7.7-2.1zm244.9 0l7.7-2-7.7-2.1z"/><path class="st1" d="M731.3 455.1v-86.7m-85.1 42.7V209.7"/><path class="st2" d="M640.1 408.3H607"/><path d="M638.7 406.2l7.7 2.1-7.7 2zm-30.3 0l-7.7 2.1 7.7 2z"/><path class="st1" d="M702.9 411.1V209.7"/><path class="st2" d="M696.8 408.3h-44.4"/><path d="M695.4 406.2l7.7 2.1-7.7 2zm-41.6 0l-7.7 2.1 7.7 2z"/><path class="st1" d="M766.7 368.4h-35.4m35.4-158.7h-63.6"/><path class="st2" d="M763.9 215.6v146.7"/><path d="M761.9 217l2-7.6 2.1 7.6zm0 143.9l2 7.6 2.1-7.6z"/><path class="st2" d="M554.1 408.3h40.3"/><path d="M555.5 410.3l-7.7-2 7.7-2.1zm37.5 0l7.7-2-7.7-2.1z"/><path class="st1" d="M547.6 411.6V209.7m53.1 201.9V209.7"/><path class="st2" d="M371.5 408.3h92.8"/><path d="M372.9 410.3l-7.7-2 7.7-2.1zm90 0l7.7-2-7.7-2.1z"/><path class="st1" d="M364.9 411.6V267.3"/><path class="st2" d="M24 56.9v305.2"/><path d="M22 58.3l2-7.7 2.1 7.7zm0 302.4l2 7.7 2.1-7.7z"/><path class="st1" d="M20.7 368.4h65.1M20.7 50.6h50.8"/><path class="st2" d="M52.4 216v146.1"/><path d="M50.3 217.4l2.1-7.7 2 7.7zm0 143.3l2.1 7.7 2-7.7z"/><path class="st1" d="M49 209.7h129.9"/><path class="st2" d="M326.3 430.8H77.7"/><path d="M324.9 428.8l7.6 2-7.6 2.1zm-245.8 0l-7.6 2 7.6 2.1z"/><path class="st1" d="M71.4 434.2V369m261.1 65.2v-65.8"/><path class="st2" d="M195.5 402.5H77.7"/><path d="M194 400.4l7.7 2.1-7.7 2zm-114.9 0l-7.6 2.1 7.6 2z"/><path class="st1" d="M201.9 405.8V217.5"/><path class="st2" d="M724.8 408.3h-15.6"/><path d="M723.4 406.2l7.7 2.1-7.7 2zm-12.8 0l-7.7 2.1 7.7 2z"/><path class="st2" d="M624.1 209.7h-4.3"/><path class="st3" d="M616.8 209.7h-2.1"/><path class="st4" d="M613.2 209.7h-29.7"/><path class="st2" d="M582.1 209.7h-4.3m23.1 23.2v-4.3"/><path class="st3" d="M600.9 225.6v-2.1"/><path class="st4" d="M600.9 222v-29.6"/><path class="st2" d="M600.9 190.9v-4.3m-399-3.1v-4.3"/><path fill="none" stroke="#000" stroke-width=".283" stroke-linecap="round" stroke-linejoin="round" stroke-dasharray=".65,3.25" d="M201.9 176v-2.3"/><path fill="none" stroke="#000" stroke-width=".283" stroke-linecap="round" stroke-linejoin="round" stroke-dasharray="9.75,3.25,.65,3.25" d="M201.9 172.1v-32.2"/><path class="st2" d="M201.9 138.3V134m74.7 75.7h-4.3"/><path fill="none" stroke="#000" stroke-width=".283" stroke-linecap="round" stroke-linejoin="round" stroke-dasharray=".611,3.053" d="M269.3 209.7h-2.2"/><path fill="none" stroke="#000" stroke-width=".283" stroke-linecap="round" stroke-linejoin="round" stroke-dasharray="9.16,3.053,.611,3.053" d="M265.6 209.7h-46.1"/><path class="st2" d="M218 209.7h-4.3m265.4 56h-4.2"/><path fill="none" stroke="#000" stroke-width=".283" stroke-linecap="round" stroke-linejoin="round" stroke-dasharray=".542,2.709" d="M472.2 265.7h-1.9"/><path fill="none" stroke="#000" stroke-width=".283" stroke-linecap="round" stroke-linejoin="round" stroke-dasharray="8.126,2.709,.542,2.709" d="M468.9 265.7H357.6"/><path class="st2" d="M356.2 265.7H352m523 84.8v-4.3"/><path class="st11" d="M875 343.1v-2.2"/><path class="st2" d="M875 339.4v-4.3m7.6 7.7h-4.2"/><path class="st11" d="M875.3 342.8h-2.2"/><path class="st2" d="M871.6 342.8h-4.3M703 223.1v-4.3"/><path class="st12" d="M703 216.4v-1.7"/><path class="st13" d="M703 213.4v-11.5"/><path class="st2" d="M703 200.7v-4.3m13.3 13.3h-4.2"/><path class="st12" d="M709.6 209.7h-1.7"/><path class="st13" d="M706.7 209.7h-11.6"/><path class="st2" d="M693.9 209.7h-4.3m-43.3 13.4v-4.3"/><path class="st12" d="M646.3 216.4v-1.7"/><path class="st13" d="M646.3 213.4v-11.5"/><path class="st2" d="M646.3 200.7v-4.3m13.3 13.3h-4.2"/><path class="st12" d="M652.9 209.7h-1.7"/><path class="st13" d="M650 209.7h-11.6"/><path class="st2" d="M637.2 209.7h-4.3M920 360.6v-4.3"/><path class="st11" d="M920 353.2V351"/><path class="st2" d="M920 349.5v-4.3m7.7 7.7h-4.3"/><path class="st11" d="M920.3 352.9h-2.1"/><path class="st2" d="M916.6 352.9h-4.3m68.8-87.2v-4.2"/><path fill="none" stroke="#000" stroke-width=".283" stroke-linecap="round" stroke-linejoin="round" stroke-dasharray=".628,3.139" d="M981.1 258.3v-2.2"/><path fill="none" stroke="#000" stroke-width=".283" stroke-linecap="round" stroke-linejoin="round" stroke-dasharray="9.416,3.139,.628,3.139" d="M981.1 254.6v-47.4"/><path class="st2" d="M981.1 205.6v-4.2m.1 64.3h-4.3"/><path fill="none" stroke="#000" stroke-width=".283" stroke-linecap="round" stroke-linejoin="round" stroke-dasharray=".629,3.143" d="M973.8 265.7h-2.2"/><path fill="none" stroke="#000" stroke-width=".283" stroke-linecap="round" stroke-linejoin="round" stroke-dasharray="9.429,3.143,.629,3.143" d="M970 265.7h-47.5"/><path class="st2" d="M921 265.7h-4.3m-369.1-42.6v-4.3"/><path class="st12" d="M547.6 216.4v-1.7"/><path class="st13" d="M547.6 213.4v-11.5"/><path class="st2" d="M547.6 200.7v-4.3m13.4 13.3h-4.3"/><path class="st12" d="M554.3 209.7h-1.7"/><path class="st13" d="M551.3 209.7h-11.5"/><path class="st2" d="M538.6 209.7h-4.3"/><text transform="translate(243.213 18.55)" class="st18 st19">Ø 24.5 (Luminous area)</text><text transform="translate(1010.2 403.366)" class="st18 st19">14</text><text transform="rotate(-90 712.64 -381.152)" class="st18 st19">18.1</text><text transform="translate(705.604 18.55)" class="st18 st20">M8, 6 deep</text><text transform="translate(505.973 18.55)" class="st18 st20">3</text><text transform="translate(518.482 18.55)" class="st18 st20">× M4, 5.5 deep</text><text transform="rotate(-19.999 691.734 -427.423)" class="st18" font-size="14.999">24.5</text><text transform="translate(564.734 402.879)" class="st18 st19">9.4</text><text transform="translate(403.323 402.879)" class="st18 st19">18.6</text><text transform="translate(619.378 402.879)" class="st18 st19">8</text><text transform="translate(592.799 445.973)" class="st18 st19">46</text><text transform="translate(666.236 402.879)" class="st18 st19">10</text><text transform="rotate(-90 118.317 99.767)" class="st18 st19">56</text><text transform="rotate(-90 169.839 122.941)" class="st18 st19">28</text><text transform="translate(193.662 426.093)" class="st18 st19">46</text><text transform="translate(128.264 397.653)" class="st18 st19">23</text><text transform="translate(712.858 402.873)" class="st18 st19">5</text><text transform="rotate(-90 529.805 -228.645)" class="st18 st19">28</text><text transform="translate(802.585 430.827)" class="st18 st22">Not to scale</text><text transform="translate(802.585 448.827)" class="st18 st22">Dimensions in mm</text></svg>