<svg version="1.1" id="Ebene_1" xmlns="http://www.w3.org/2000/svg" xmlns:xlink="http://www.w3.org/1999/xlink" x="0" y="0" viewBox="0 0 1105.5 538.6" style="background-color:#fff" xml:space="preserve"><style>.st1{fill:none;stroke:#000;stroke-width:.425;stroke-linecap:round;stroke-linejoin:round;clip-path:url(#SVGID_2_)}.st1,.st2{stroke-miterlimit:10}.st2,.st20,.st3,.st8{fill:none;stroke:#000;stroke-width:.283;stroke-linecap:round;stroke-linejoin:round}.st8{stroke-dasharray:.568,2.841}.st20{stroke-dasharray:.621,3.107}.st21{font-family:Helvetica,Arial,sans-serif}.st22{font-size:14.9996px}.st23{font-size:14.9997px}.st24{font-size:14.9995px}.st26{font-size:10.6165px}</style><path d="M573.9 412.9V44.2h39.8m0 14.3v340.2m0 14.2h-39.8m39.8-354.4V44.2m0 368.7v-14.2" stroke-miterlimit="10" fill="none" stroke="#000" stroke-width=".425" stroke-linecap="round" stroke-linejoin="round"/><defs><path id="SVGID_1_" d="M0 0h1105.5v538.6H0z"/></defs><clipPath id="SVGID_2_"><use xlink:href="#SVGID_1_" overflow="visible"/></clipPath><path class="st1" d="M672.1 223.7c-2.7 0-5 2.2-5 4.9s2.2 5 4.9 5 5-2.2 5-4.9c.1-2.8-2.2-5-4.9-5M896.6 66.4c-2.7 0-5 2.2-5 4.9s2.2 5 4.9 5 5-2.2 5-4.9c0-2.8-2.2-5-4.9-5m0 314.4c-2.7 0-5 2.2-5 4.9s2.2 4.9 4.9 5c2.7 0 5-2.2 5-4.9s-2.2-5-4.9-5m31.1 21.2c-.6-2.5-2.3-4.6-4.6-5.7-2.3-1.1-4.9-1.1-7.2 0M839.5 342c62.6 0 113.3-50.7 113.3-113.3 0-62.6-50.7-113.3-113.3-113.3-62.6 0-113.3 50.7-113.3 113.3 0 62.5 50.7 113.2 113.3 113.3"/><path class="st1" d="M916 61c-77.4-35.2-168.8-13-221.3 53.8s-52.5 160.9 0 227.7c52.5 66.8 143.9 89 221.3 53.8m25.5-352.1h99.2m-99.1.2c-6.5 0-12.2 4.5-13.7 10.8m-12 5.7c2.3 1.1 5 1 7.3-.1s4-3.2 4.6-5.7m-.1 346.9c1.5 6.4 7.2 10.9 13.7 10.9m112 0h-99.2m86.5-.2c7.8 0 14.1-6.3 14.1-14.1m.1-326v340.2m0-354.3c0-7.8-6.4-14.3-14.2-14.3m11.7 102.2c0-7.2-5.8-13-13-13m13 27.1v215.4m-13.1-1c7.2 0 13-5.8 13.1-13m-.4 13h-51m-25.9-13.1c0 7.2 5.8 13 13 13.1m-13-13.1V146.3m13.1-13c-7.2 0-13.1 5.8-13.1 13m13.2-13h50.9m-807.3 263c-2.3-1.1-4.9-1.1-7.2 0s-4 3.2-4.6 5.7m88.2-60c62.6 0 113.3-50.7 113.3-113.3 0-62.6-50.7-113.3-113.3-113.3C245.8 115.3 195 166 195 228.6S245.7 341.9 308.3 342M107.1 66.9c3.1 0 5.7-2.5 5.7-5.7 0-3.1-2.5-5.7-5.7-5.7-3.1 0-5.7 2.5-5.7 5.7s2.6 5.7 5.7 5.7"/><path class="st1" d="M107.1 68.3c3.9 0 7.1-3.2 7.1-7.1s-3.2-7.1-7.1-7.1c-3.9 0-7.1 3.2-7.1 7.1m106.4 5.7c3.1 0 5.7-2.5 5.7-5.7 0-3.1-2.5-5.7-5.7-5.7-3.1 0-5.7 2.5-5.7 5.7.1 3.2 2.6 5.7 5.7 5.7"/><path class="st1" d="M206.4 68.3c3.9 0 7.1-3.2 7.1-7.1 0-3.9-3.2-7.1-7.1-7.1-3.9 0-7.1 3.2-7.1 7.1m32.6 335.1c77.3 35.3 168.8 13.1 221.3-53.7s52.6-160.9 0-227.7C400.7 48 309.3 25.8 231.9 61m-25.5-16.8h-99.2M93 58.5v340.2m14.2 14.2h99.2"/><path class="st1" d="M220.2 55.2c.6 2.5 2.2 4.5 4.5 5.6 2.3 1.1 4.9 1.2 7.3.2m-11.8-5.8c-1.5-6.4-7.3-11-13.8-11m-99.2 0c-7.8 0-14.2 6.5-14.2 14.3m0 340.1c0 7.8 6.3 14.1 14.1 14.1m99.3.2c6.5 0 12.2-4.6 13.7-10.9m-35-167.2c3.4 68.1 61.3 120.5 129.4 117.1 68.1-3.4 120.5-61.3 117.1-129.4-3.4-68.1-61.3-120.5-129.4-117.1-68 3.4-120.5 61.3-117.1 129.4"/><path class="st1" d="M137.1 237.1c4.7 94.6 85.2 167.4 179.7 162.7 94.6-4.7 167.4-85.2 162.7-179.7-4.7-94.6-85.2-167.4-179.7-162.7-94.5 4.7-167.4 85.2-162.7 179.7"/><path class="st1" d="M192.3 234.4c3.2 64.1 57.7 113.5 121.8 110.3 64.1-3.2 113.5-57.7 110.3-121.8-3.2-64.1-57.7-113.5-121.8-110.3-64.1 3.2-113.5 57.7-110.3 121.8"/><path class="st1" d="M127.2 237.6c5 100 90.1 177.1 190.1 172.1s177.1-90.1 172.1-190.1S399.3 42.5 299.3 47.5s-177.1 90.1-172.1 190.1m67.6-9h-.3m-87.4 172.9c3.1 0 5.7-2.5 5.7-5.7 0-3.1-2.5-5.7-5.7-5.7-3.1 0-5.7 2.5-5.7 5.7s2.6 5.7 5.7 5.7"/><path class="st1" d="M107.1 403c3.9 0 7.1-3.2 7.1-7.1 0-3.9-3.2-7.1-7.1-7.1-3.9 0-7.1 3.2-7.1 7.1m106.4 5.6c3.1 0 5.7-2.5 5.7-5.7 0-3.1-2.5-5.7-5.7-5.7-3.1 0-5.7 2.5-5.7 5.7.1 3.2 2.6 5.7 5.7 5.7"/><path class="st1" d="M206.4 403c3.9 0 7.1-3.2 7.1-7.1 0-3.9-3.2-7.1-7.1-7.1-3.9 0-7.1 3.2-7.1 7.1m742.3-329c3.1 0 5.7-2.5 5.7-5.7 0-3.1-2.5-5.7-5.7-5.7-3.1 0-5.7 2.5-5.7 5.7s2.6 5.7 5.7 5.7"/><path class="st1" d="M941.6 68.3c3.9 0 7.1-3.2 7.1-7.1 0-3.9-3.2-7.1-7.1-7.1-3.9 0-7.1 3.2-7.1 7.1m106.5 5.7c3.1 0 5.7-2.5 5.7-5.7 0-3.1-2.5-5.7-5.7-5.7-3.1 0-5.7 2.5-5.7 5.7s2.5 5.7 5.7 5.7"/><path class="st1" d="M1041 68.3c3.9 0 7.1-3.2 7.1-7.1 0-3.9-3.2-7.1-7.1-7.1-3.9 0-7.1 3.2-7.1 7.1m-92.3 340.3c3.1 0 5.7-2.5 5.7-5.7 0-3.1-2.5-5.7-5.7-5.7-3.1 0-5.7 2.5-5.7 5.7s2.6 5.7 5.7 5.7"/><path class="st1" d="M941.6 403c3.9 0 7.1-3.2 7.1-7.1 0-3.9-3.2-7.1-7.1-7.1-3.9 0-7.1 3.2-7.1 7.1m106.5 5.6c3.1 0 5.7-2.5 5.7-5.7 0-3.1-2.5-5.7-5.7-5.7-3.1 0-5.7 2.5-5.7 5.7s2.5 5.7 5.7 5.7"/><path class="st1" d="M1041 403c3.9 0 7.1-3.2 7.1-7.1 0-3.9-3.2-7.1-7.1-7.1-3.9 0-7.1 3.2-7.1 7.1m-3.3-50.7c0 .7.6 1.3 1.3 1.3.7 0 1.3-.6 1.3-1.3 0-.7-.6-1.3-1.3-1.3-.8 0-1.3.6-1.3 1.3m-10.9 0c0 .7.6 1.3 1.3 1.3.7 0 1.3-.6 1.3-1.3 0-.7-.6-1.3-1.3-1.3-.8 0-1.3.6-1.3 1.3m9 6.5c0 .7.6 1.3 1.3 1.3.7 0 1.3-.6 1.3-1.3s-.6-1.3-1.3-1.3c-.7.1-1.3.6-1.3 1.3m-6.9 0c0 .7.6 1.3 1.3 1.3.7 0 1.3-.6 1.3-1.3s-.6-1.3-1.3-1.3c-.7.1-1.3.6-1.3 1.3"/><path class="st1" d="M1026.4 337c-5.5 0-10 4.5-10 10s4.5 10 10 10 10-4.5 10-10-4.5-10-10-10"/><path class="st1" d="M1039.3 347c0-7.1-5.8-12.9-12.9-12.9-7.1 0-12.9 5.8-12.9 12.9 0 7.1 5.8 12.9 12.9 12.9 7.1 0 12.9-5.7 12.9-12.9m-26.9-6.3v13m0 0c.4.9.9 1.7 1.5 2.5m0 .1l11.2 6.5m0 0c1 .1 1.9.1 2.9 0m11.3-6.5l-11.3 6.5m11.3-6.5c.6-.8 1.1-1.8 1.5-2.7m-.1-12.9v12.9m0-12.9c-.4-.9-.9-1.7-1.5-2.5"/><path class="st1" d="M1013.9 338.1l11.2-6.5h2.9l11.3 6.5m-25.4 0c-.6.8-1 1.6-1.5 2.5m-439.6-8.5H568m0 6.5l-.3-3.3.3-3.2m0 6.5h5.2m0 2.5H568v-2.5m0 15.5l-.3-6.6.3-6.4m0 13h5.2m-5.2 0v2.5h5.2M568 363l-.3-3.2.3-3.2m0 6.4h4.8m-22.3-24.1v17.3m3.6-18.4v19.5m2.1-18.9v18.4m2.9-18.4v18.4m2-20.6v22.5m2.8-22.5v22.5m2.2-20.3v18.4m7.1-24.7H568m5.2 30.9H568m-17-24.6c-.3.1-.5.3-.5.6m0 17.1c0 .3.2.6.5.6m.1-18.3l3-.6m-3 19l3 .5h1.4m0-19.5h-1.4m2.1 19l-.7.5m.7-18.9l-.7-.6m3.6 19h-2.9m4.9-20.6l-2 2.2h-2.9m2.9 18.4l2 1.9h2.8m0-22.5h-2.8m5 20.6l-2.2 1.9m2.2-20.3l-2.2-2.2m3 2.2h-.8m.8 0c.3 0 .6-.3.6-.6l.1-2.4m-1.5 21.4h.9c.3 0 .6.3.6.6l.1 2.4"/><path class="st2" d="M365.2 92.8l39-57.3m650.6 419.4v-56.5"/><path class="st3" d="M1048.6 451.5h-15.5"/><path d="M1047.2 449.5l7.7 2-7.7 2.1zm-12.7 0l-7.7 2 7.7 2.1z"/><path class="st2" d="M1026.5 454.9V347.2m72.5.4h-72.9"/><path class="st3" d="M1095.7 353.4v52"/><path d="M1093.6 354.8l2.1-7.6 2.1 7.6zm0 49.2l2.1 7.7 2.1-7.7z"/><path class="st2" d="M1099 412.4h-58.5"/><path class="st3" d="M116.2 50.6l20.9-26.7h57.4"/><path d="M119.2 50.8l-7.6 5.7 3.7-8.8z"/><path class="st3" d="M207.9 265.6l201.2-73.2"/><path d="M209.9 267.1l-7.9.7 6.5-4.6zm198.6-72.2l6.5-4.6-7.9.7z"/><path class="st3" d="M429 80.9l10.7-10.7h52.6"/><path d="M431.4 81.4l-6.9 4 4-6.9z"/><path class="st3" d="M27.4 406.6V50.5"/><path d="M29.5 405.2l-2.1 7.7-2-7.7zm0-353.3l-2.1-7.6-2 7.6z"/><path class="st2" d="M24.1 44.3h83.1m-14 407.2h14.2m-83.3-38.7h83.1M307.6 483V237.7m185 277.4V229.8M206.4 454.4v-58.9"/><path class="st3" d="M200.3 451.5h-86.6"/><path d="M198.9 449.5l7.6 2-7.6 2.1zm-83.8 0l-7.7 2 7.7 2.1z"/><path class="st3" d="M301.3 479.9H99.5"/><path d="M299.9 477.8l7.7 2.1-7.7 2zm-199 0l-7.7 2.1 7.7 2z"/><path class="st3" d="M486.3 511.1H99.5"/><path d="M484.9 509l7.7 2.1-7.7 2zm-384 0l-7.7 2.1 7.7 2z"/><path class="st2" d="M93.2 515.1v-114"/><path class="st3" d="M71.1 451.5h15.8"/><path d="M85.5 453.6l7.7-2.1-7.7-2z"/><path class="st2" d="M107.1 454.9V396m506.6 58.1v-41.6"/><path class="st3" d="M607.6 451.2h-27.4"/><path d="M606.2 449.2l7.7 2-7.7 2.1zm-24.5 0l-7.7 2 7.7 2.1z"/><path class="st3" d="M557 451.2h10.7"/><path d="M558.4 453.3l-7.7-2.1 7.7-2zm7.9 0l7.7-2.1-7.7-2z"/><path class="st2" d="M550.4 454.6V350.4m23.5 104.2v-42.1m-508.5.2V396"/><path class="st3" d="M65.4 67.5v322.2"/><path d="M63.4 68.9l2-7.7 2.1 7.7zm0 319.4l2 7.7 2.1-7.7z"/><path class="st2" d="M62.1 412.7h45.3"/><path class="st3" d="M65.4 438.1V419"/><path d="M67.5 420.4l-2.1-7.7-2 7.7z"/><path class="st2" d="M62.1 396h45.3M62.1 61.2h45.3"/><path class="st3" d="M427.1 229.7h-4.3"/><path fill="none" stroke="#000" stroke-width=".283" stroke-linecap="round" stroke-linejoin="round" stroke-dasharray=".539,2.696" d="M420.1 229.7h-1.9"/><path fill="none" stroke="#000" stroke-width=".283" stroke-linecap="round" stroke-linejoin="round" stroke-dasharray="8.087,2.696,.539,2.696" d="M416.9 229.7h-96.8"/><path class="st3" d="M318.8 229.7h-4.3m525 116.3v-4.2"/><path fill="none" stroke="#000" stroke-width=".283" stroke-linecap="round" stroke-linejoin="round" stroke-dasharray=".564,2.822" d="M839.5 339v-2"/><path fill="none" stroke="#000" stroke-width=".283" stroke-linecap="round" stroke-linejoin="round" stroke-dasharray="8.465,2.822,.564,2.822" d="M839.5 335.6V116.9"/><path class="st3" d="M839.5 115.5v-4.3m118.2 117.4h-4.3"/><path class="st8" d="M950.6 228.6h-2"/><path fill="none" stroke="#000" stroke-width=".283" stroke-linecap="round" stroke-linejoin="round" stroke-dasharray="8.522,2.841,.568,2.841" d="M947.2 228.6H727"/><path class="st3" d="M725.6 228.6h-4.3M618 229.8h-4.2"/><path fill="none" stroke="#000" stroke-width=".283" stroke-linecap="round" stroke-linejoin="round" stroke-dasharray=".599,2.996" d="M610.8 229.8h-2.1"/><path fill="none" stroke="#000" stroke-width=".283" stroke-linecap="round" stroke-linejoin="round" stroke-dasharray="8.988,2.996,.599,2.996" d="M607.2 229.8h-29.7"/><path class="st3" d="M576 229.8h-4.2m-264.2-25.2v-4.2"/><path fill="none" stroke="#000" stroke-width=".283" stroke-linecap="round" stroke-linejoin="round" stroke-dasharray=".597,2.985" d="M307.6 197.4v-2.1"/><path fill="none" stroke="#000" stroke-width=".283" stroke-linecap="round" stroke-linejoin="round" stroke-dasharray="8.956,2.985,.597,2.985" d="M307.6 193.8v-76.1"/><path class="st3" d="M307.6 116.2v-4.3m-23.3 117.8H280"/><path class="st8" d="M277.2 229.7h-2"/><path fill="none" stroke="#000" stroke-width=".283" stroke-linecap="round" stroke-linejoin="round" stroke-dasharray="8.523,2.841,.568,2.841" d="M273.8 229.7H157"/><path class="st3" d="M155.6 229.7h-4.3m875.2 117.5V343"/><path fill="none" stroke="#000" stroke-width=".283" stroke-linecap="round" stroke-linejoin="round" stroke-dasharray=".872,4.358" d="M1026.5 338.6v-3"/><path class="st3" d="M1026.5 333.4v-4.2m0 18.4h-4.2"/><path fill="none" stroke="#000" stroke-width=".283" stroke-linecap="round" stroke-linejoin="round" stroke-dasharray=".306,1.532" d="M1020.7 347.6h-1.1"/><path fill="none" stroke="#000" stroke-width=".283" stroke-linecap="round" stroke-linejoin="round" stroke-dasharray="4.597,1.532,.306,1.532" d="M1018.9 347.6h-7.2"/><path class="st3" d="M1010.9 347.6h-4.2m-433.5 0h-4.3"/><path fill="none" stroke="#000" stroke-width=".283" stroke-linecap="round" stroke-linejoin="round" stroke-dasharray=".581,2.903" d="M566 347.6h-2"/><path fill="none" stroke="#000" stroke-width=".283" stroke-linecap="round" stroke-linejoin="round" stroke-dasharray="8.71,2.903,.581,2.903" d="M562.6 347.6h-13.7"/><path class="st3" d="M547.5 347.6h-4.3m353.4 45.9v-4.3"/><path class="st20" d="M896.6 386.1v-2.2"/><path class="st3" d="M896.6 382.4v-4.3m7.6 7.7H900"/><path class="st20" d="M896.9 385.8h-2.2"/><path class="st3" d="M893.2 385.8h-4.3M896.6 79v-4.3"/><path class="st20" d="M896.6 71.6v-2.1"/><path class="st3" d="M896.6 67.9v-4.2m7.6 7.6H900"/><path class="st20" d="M896.9 71.3h-2.2"/><path class="st3" d="M893.2 71.3h-4.3m-216.8 165v-4.2"/><path class="st20" d="M672.1 229v-2.2"/><path class="st3" d="M672.1 225.2V221m7.7 7.6h-4.3"/><path class="st20" d="M672.4 228.6h-2.2"/><path class="st3" d="M668.7 228.6h-4.3M107.1 68.9v-4.2"/><path class="st20" d="M107.1 61.6v-2.2"/><path class="st3" d="M107.1 57.8v-4.2m7.7 7.6h-4.3"/><path class="st20" d="M107.4 61.2h-2.2"/><path class="st3" d="M103.7 61.2h-4.3m107 7.7v-4.2"/><path class="st20" d="M206.4 61.6v-2.2"/><path class="st3" d="M206.4 57.8v-4.2m7.7 7.6h-4.2"/><path class="st20" d="M206.8 61.2h-2.2"/><path class="st3" d="M203 61.2h-4.2m-91.7 342.3v-4.2"/><path class="st20" d="M107.1 396.2V394"/><path class="st3" d="M107.1 392.4v-4.2m7.7 7.7h-4.3"/><path class="st20" d="M107.4 395.9h-2.2"/><path class="st3" d="M103.7 395.9h-4.3m107 7.6v-4.2"/><path class="st20" d="M206.4 396.2V394"/><path class="st3" d="M206.4 392.4v-4.2m7.7 7.7h-4.2"/><path class="st20" d="M206.8 395.9h-2.2"/><path class="st3" d="M203 395.9h-4.2m742.8-327v-4.2"/><path class="st20" d="M941.6 61.6v-2.2"/><path class="st3" d="M941.6 57.8v-4.2m7.7 7.6H945"/><path class="st20" d="M941.9 61.2h-2.2"/><path class="st3" d="M938.2 61.2h-4.3m107.1 7.7v-4.2"/><path class="st20" d="M1041 61.6v-2.2"/><path class="st3" d="M1041 57.8v-4.2m7.6 7.6h-4.2"/><path class="st20" d="M1041.3 61.2h-2.2"/><path class="st3" d="M1037.6 61.2h-4.3m-91.7 342.3v-4.2"/><path class="st20" d="M941.6 396.2V394"/><path class="st3" d="M941.6 392.4v-4.2m7.7 7.7H945"/><path class="st20" d="M941.9 395.9h-2.2"/><path class="st3" d="M938.2 395.9h-4.3m107.1 7.6v-4.2"/><path class="st20" d="M1041 396.2V394"/><path class="st3" d="M1041 392.4v-4.2m7.6 7.7h-4.2"/><path class="st20" d="M1041.3 395.9h-2.2"/><path class="st3" d="M1037.6 395.9h-4.3"/><text transform="translate(330.002 22.18)" class="st21 st22">Ø 87 - Ø 121 (Luminous area)</text><text transform="translate(1031.799 446.326)" class="st21 st22">10</text><text transform="rotate(-90 739.136 -351.372)" class="st21 st22">23</text><text transform="translate(147.358 18.534)" class="st21 st23">4</text><text transform="translate(159.868 18.534)" class="st21 st23">× M5</text><text transform="translate(448.437 64.654)" class="st21 st22">Ø</text><text transform="translate(464.277 64.654)" class="st21 st22">130</text><text transform="rotate(-19.999 798.263 -709.167)" class="st21 st24">Ø</text><text transform="rotate(-19.999 790.342 -754.083)" class="st21 st24">80</text><text transform="rotate(-90 129.816 111.282)" class="st21 st22">130</text><text transform="translate(95.415 446.457)" class="st21 st22">5</text><text transform="translate(148.634 446.457)" class="st21 st22">35</text><text transform="translate(559.758 441.597)" class="st21 st22">8</text><text transform="translate(586.683 441.597)" class="st21 st22">14</text><text transform="translate(192.058 474.806)" class="st21 st22">76</text><text transform="translate(280.375 504.67)" class="st21 st22">141</text><text transform="rotate(-90 234.308 174.334)" class="st21 st22">6</text><text transform="rotate(-90 150.257 90.283)"><tspan x="0" y="0" class="st21 st22" letter-spacing="-1">1</tspan><tspan x="7.2" y="0" class="st21 st22">18</tspan></text><text transform="matrix(1.1157 0 0 1 748.448 506.745)" class="st21 st26">Not to scale</text><text transform="matrix(1.1157 0 0 1 748.448 519.485)" class="st21 st26">Dimensions in mm</text></svg>