<svg version="1.1" id="Layer_1" xmlns="http://www.w3.org/2000/svg" x="0" y="0" viewBox="0 0 841.9 595.3" style="enable-background:new 0 0 841.9 595.3;background-color:#fff" xml:space="preserve"><style>.st1{fill:none;stroke:#000;stroke-width:.75;stroke-miterlimit:10.9531}.st2{fill-rule:evenodd;clip-rule:evenodd}.st3{fill:none;stroke:#000;stroke-width:.75;stroke-linejoin:round;stroke-miterlimit:10.9531}.st4{font-family:Helvetica,Arial,sans-serif}.st5{font-size:14px}.st6{font-family:Helvetica,Arial,sans-serif;font-weight:700}.st7{font-size:18px}.st10,.st11,.st12,.st8,.st9{fill:none;stroke:#000;stroke-miterlimit:10.9531}.st8{stroke-width:2.834646e-03;stroke-linejoin:round}.st9{stroke-width:.6378}.st10{stroke-width:.375}.st11,.st12{stroke-width:.6746;stroke-linejoin:round;stroke-dasharray:22.6772,11.3386}.st12{stroke-width:.75;stroke-dasharray:6,3}</style><path d="M73.1 285.9h574.5v287.4H73.1V285.9z" style="fill:none;stroke:#000;stroke-width:.3827;stroke-linejoin:round;stroke-miterlimit:10.9531;stroke-dasharray:22.6772,11.3386"/><path class="st1" d="M342.6 534v-30.6m7.6 19.2h-15.3"/><path class="st2" d="M350.2 513.6h-15.3l7.7 7.7 7.6-7.7z"/><path class="st3" d="M350.2 513.6h-15.3l7.7 7.7 7.6-7.7zm-8.4-10.2h72.5M341.6 534h16.3"/><path class="st2" d="M304.4 518.7v4.7l-11.8-4.7 11.8-4.7v4.7z"/><path class="st3" d="M323.5 524.4h-16.2l8.1-5.7h-11.8"/><path class="st3" d="M248.4 494.2h117.9v49.3H248.4v-49.3zm144.4-26.8h43M357.9 534H565m-285.7-26.3V531m-.1-6.7-10.7 10.6m124.2-67.5v-69.6M565.5 534V416.4M435 467.5v-69.6m-42.1.2h41.8m-21.5-.3v-48.4"/><path class="st2" d="m276.4 532.5-5.4-5.4v5.4h5.4z"/><path class="st3" d="m276.4 532.5-5.4-5.4v5.4h5.4zm2.9-18.6-10.6-10.6m-19.3.1h19.8M248 534.9h19.8"/><path class="st1" d="M414.4 503.9v-36.8"/><path class="st3" d="M413.2 349.4H647"/><text transform="translate(659.885 280.727)" class="st4 st5">6-pin</text><text transform="translate(659.885 297.752)" class="st4 st5">connector</text><path class="st3" d="M647.6 308.9h26.2v143h-26.2v-143z"/><text transform="translate(655.233 330.994)" class="st4 st5">1</text><text transform="translate(655.233 353.66)" class="st4 st5">2</text><text transform="translate(655.233 376.325)" class="st4 st5">3</text><text transform="translate(655.233 398.991)" class="st4 st5">4</text><text transform="translate(655.233 421.657)" class="st4 st5">5</text><text transform="translate(655.233 444.32)" class="st4 st5">6</text><text transform="translate(97.488 319.031)" class="st6 st7">2D Camera</text><text transform="rotate(-90 433.722 23.542)" class="st4 st5">Current</text><text transform="rotate(-90 439.871 12.666)" class="st4 st5">limiter</text><path class="st3" d="M757.4 416.7h-83.1"/><path class="st1" d="M757.3 567.3V416.4"/><path class="st3" d="M565.5 416.7h82.2m116.7 150.6h-14.1m2.6 3h8.8m-6.9 3h5"/><text transform="translate(267.763 487.378)" class="st4 st5">Optocoupler</text><path class="st1" d="M613.9 349.4v66.9"/><path class="st2" d="M620.1 387.3h-12.3l6.2-7.3 6.1 7.3z"/><path class="st8" d="M620.1 387.3h-12.3l6.2-7.3 6.1 7.3z"/><path class="st9" d="M610.3 380.4h7.1m-.2-.1 2.2 2.1m-11-4.1 2.1 2.2"/><path d="M610.8 349.4c0-1.7 1.4-3.1 3.1-3.1 1.7 0 3.1 1.3 3.1 3.1 0 1.7-1.3 3.1-3.1 3.1-1.7 0-3.1-1.4-3.1-3.1z"/><path class="st10" d="M610.8 349.4c0-1.7 1.4-3.1 3.1-3.1 1.7 0 3.1 1.3 3.1 3.1 0 1.7-1.3 3.1-3.1 3.1-1.7 0-3.1-1.4-3.1-3.1z"/><path d="M610.8 416.7c0-1.7 1.4-3.1 3.1-3.1 1.7 0 3.1 1.3 3.1 3.1 0 1.7-1.3 3.1-3.1 3.1-1.7-.1-3.1-1.4-3.1-3.1z"/><path class="st10" d="M610.8 416.7c0-1.7 1.4-3.1 3.1-3.1 1.7 0 3.1 1.3 3.1 3.1 0 1.7-1.3 3.1-3.1 3.1-1.7-.1-3.1-1.4-3.1-3.1z"/><path class="st11" d="M167.8 534.9h80.6"/><path class="st12" d="M167.8 503.4h80.6"/><text transform="translate(103.197 513.865)" class="st4 st5">Further</text><text transform="translate(103.197 531.792)" class="st4 st5">circuitry</text><path class="st1" d="M256.9 162.4h14.6"/><path class="st2" d="M256.9 153.7h14.6l-7.4 7.3-7.2-7.3z"/><path class="st3" d="M256.9 153.7h14.6l-7.4 7.3-7.2-7.3z"/><path class="st2" d="M300.7 158.6v-4.5l11.3 4.5-11.3 4.5v-4.5z"/><path class="st3" d="M282.5 164.1H298l-7.8-5.5h11.3"/><path class="st3" d="M241.5 135.2h112.8v47.2H241.5v-47.2z"/><path class="st1" d="M237.4 144.3h26.9l-.1-.3v29.3"/><path class="st3" d="M450.7 205h29.9m-145.8-30.7H439m-114.2-26.2v22.3m.1-6.4 10.2 10.2m-99.7-.9h29m185.1-9v-20.4m1.5 61.8v-20.5m29.2 20.1V166m-145.5-22.2h215"/><path d="M446.1 144.8c0-2 1.6-3.7 3.7-3.7 2 0 3.7 1.6 3.7 3.7 0 2-1.6 3.7-3.7 3.7s-3.7-1.7-3.7-3.7z"/><path class="st10" d="M446.1 144.8c0-2 1.6-3.7 3.7-3.7 2 0 3.7 1.6 3.7 3.7 0 2-1.6 3.7-3.7 3.7s-3.7-1.7-3.7-3.7z"/><path class="st2" d="m327.6 171.8 5.2-5.2v5.2h-5.2z"/><path class="st3" d="m327.6 171.8 5.2-5.2v5.2h-5.2zm-2.8-17.7 10.2-10.2m104 19.3v22.4m.1-11.4 10.2 10.2"/><path d="m442.3 185.6 8.2-8.2v8.2h-8.2z" style="fill-rule:evenodd;clip-rule:evenodd;fill:#fff"/><path class="st3" d="m442.3 185.6 8.2-8.2v8.2h-8.2zm-3.3-11.7 10.2-10.2"/><text transform="translate(414.019 166.902)" class="st4 st5">Q1</text><text transform="translate(542.19 48.362)" class="st4 st5">8-pin connector</text><path class="st3" d="M549.9 62.2h24.4v137h-24.4v-137z"/><text transform="translate(557.236 148.423)" class="st4 st5">4</text><text transform="translate(557.236 170.12)" class="st4 st5">5</text><path d="M70.5 63.7h479.4v186.5H70.5V63.7z" style="fill:none;stroke:#000;stroke-width:.3742;stroke-linejoin:round;stroke-miterlimit:10.9531;stroke-dasharray:22.6772,11.3386"/><text transform="translate(84.06 92.212)" class="st6 st7">blaze Camera</text><text transform="translate(264.406 129.07)" class="st4 st5">Optocoupler</text><path class="st3" d="M479.4 166h70.7"/><path class="st11" d="M160.6 173.2h74.9"/><path class="st12" d="M160.6 144.2h77"/><text transform="translate(99.044 154.163)" class="st4 st5">Further</text><text transform="translate(99.044 171.188)" class="st4 st5">circuitry</text><path class="st1" d="M646 243.7v-78"/><path class="st3" d="M646.3 166h-72.1m78.6 77.7h-13.4m2.4 2.8h8.5m-6.6 2.9h4.7"/><path d="M698.1 143.8H574.3" style="fill:none;stroke:#000;stroke-width:.7512;stroke-linejoin:round;stroke-miterlimit:10.9531"/><path class="st1" d="M645.9 143.3V47.2"/><path d="M639 82.6h14.6v43.9H639V82.6z" style="fill:#fff"/><path class="st1" d="M639 82.6h14.6v43.9H639V82.6z"/><path d="M642.4 143.8c0-2 1.6-3.7 3.7-3.7 2 0 3.7 1.6 3.7 3.7 0 2-1.6 3.7-3.7 3.7s-3.7-1.6-3.7-3.7z"/><path class="st10" d="M642.4 143.8c0-2 1.6-3.7 3.7-3.7 2 0 3.7 1.6 3.7 3.7 0 2-1.6 3.7-3.7 3.7s-3.7-1.6-3.7-3.7z"/><text transform="translate(683.59 102.227)" class="st4 st5">Voltage</text><text transform="translate(683.59 118.427)" class="st4 st5">output</text><text transform="translate(683.59 134.627)" class="st4 st5">signal</text><path class="st3" d="M788.1 243.7h-13.4m2.4 2.8h8.5m-6.6 2.9h4.7"/><path class="st1" d="M645.7 47.8V27.9h135.6v215.8"/><text transform="translate(722.788 64.594)" class="st4 st5">3.3–24</text><text transform="translate(731.037 79.068)" class="st4 st5">VDC</text><path d="M790.6 66.1c0 5.2-4.2 9.4-9.4 9.5-5.2 0-9.4-4.2-9.5-9.5 0-5.2 4.2-9.4 9.5-9.4 5.1 0 9.3 4.2 9.4 9.4z" style="fill-rule:evenodd;clip-rule:evenodd;fill:#fff;stroke:#000;stroke-width:.75;stroke-linejoin:round;stroke-miterlimit:10.9531"/><path class="st3" d="M775.9 64.6h10.4m-10.4 3h10.4"/><text transform="translate(783.356 54.962)" class="st4 st5">+</text><text transform="translate(783.325 86.259)" class="st4 st5">-</text><path class="st1" d="M509.8 143.8V166"/><path class="st2" d="M517.1 159.5h-14.6l7.4-8.6 7.2 8.6z"/><path class="st8" d="M517.1 159.5h-14.6l7.4-8.6 7.2 8.6z"/><path class="st9" d="M505.5 151.2h8.6m-.3-.1 2.6 2.6m-13.2-4.9 2.6 2.6"/><path d="M506.2 143.8c0-2 1.7-3.7 3.7-3.7s3.7 1.6 3.7 3.7c0 2-1.6 3.7-3.7 3.7-2.1-.1-3.7-1.7-3.7-3.7z"/><path class="st10" d="M506.2 143.8c0-2 1.7-3.7 3.7-3.7s3.7 1.6 3.7 3.7c0 2-1.6 3.7-3.7 3.7-2.1-.1-3.7-1.7-3.7-3.7z"/><path d="M506.1 166c0-2 1.6-3.7 3.7-3.7 2 0 3.7 1.6 3.7 3.7 0 2-1.6 3.7-3.7 3.7s-3.7-1.6-3.7-3.7z"/><path class="st10" d="M506.1 166c0-2 1.6-3.7 3.7-3.7 2 0 3.7 1.6 3.7 3.7 0 2-1.6 3.7-3.7 3.7s-3.7-1.6-3.7-3.7z"/><path d="M698.1 143.8h48.2v205.5H674" style="fill:none;stroke:#000;stroke-width:.75;stroke-miterlimit:11.3386"/></svg>