<svg version="1.1" id="Ebene_1" xmlns="http://www.w3.org/2000/svg" xmlns:xlink="http://www.w3.org/1999/xlink" x="0" y="0" viewBox="0 0 800 350" style="enable-background:new 0 0 800 350;background-color:#fff" xml:space="preserve"><style>.st9{fill:#020203}</style><path d="M88.8 345.6h14.8M88.5 177.8h15.1M82.9 340.9h5.9v5.8h-18v-1.1" style="fill:none;stroke:#000;stroke-width:.425;stroke-linecap:round;stroke-linejoin:round;stroke-miterlimit:10"/><defs><path id="SVGID_1_" d="M0 0h800v350H0z"/></defs><clipPath id="SVGID_2_"><use xlink:href="#SVGID_1_" style="overflow:visible"/></clipPath><path d="M81.6 339.6c0 .7.6 1.3 1.3 1.3m-1.3-8.1v6.8m1.3-8.1c-.7 0-1.3.6-1.3 1.3m7.4-2.7-.4 1.4h-5.7m33.3 15.2h-12.6v-5.8m12.6 5.8c1.5 0 2.9-1.6 2.9-3.1m0-164.3c0-1.5-1.4-2.9-2.9-2.9m0 0h-12.6v5.7h5.6m1.2 1.1c0-.7-.6-1.1-1.3-1.1m1.3 1.1v7.2m-1.4 1.5c.7 0 1.4-.7 1.4-1.4m-1.4 1.4h-5.4v.3m-.4.7c.3-.2.4-.4.4-.7m-27.7-15.8h12.6v5.7h-5.6m-1.3 1.1c0-.7.6-1.1 1.3-1.1m-1.3 1.1v7.2m1.5 1.5c-.7 0-1.4-.7-1.4-1.4m1.4 1.4h5.4v.3m.3.7c-.3-.2-.4-.4-.4-.7" style="clip-path:url(#SVGID_2_);fill:none;stroke:#000;stroke-width:.425;stroke-linecap:round;stroke-linejoin:round;stroke-miterlimit:10"/><defs><path id="SVGID_3_" d="M0 0h800v350H0z"/></defs><clipPath id="SVGID_4_"><use xlink:href="#SVGID_3_" style="overflow:visible"/></clipPath><path d="M88.5 176.4H70.8v1.4M32.1 309.9c3.4 0 6.6-1.7 8.6-4.4s2.5-6.4 1.4-9.6m-20-4.4c-3.2 3-4.3 7.6-2.7 11.7s5.5 6.8 9.9 6.8m84-117.1c1.5 0 2.9 1.2 2.9 2.7v2h2.9v-18.4m-38.9 1.3c0-1.5-1.2-2.7-2.7-2.7m.2 167.8c1.5 0 2.9-1.4 2.9-2.9m32.9-12.6c1.5 0 2.7-1.2 2.7-2.7v-2h2.9v18.4m-87.2-33.9h-2.8m89.9 15.5V197.6m-5.7-4.7H80.2v-12.4m-2.5-2.7H42m-19.8 0H8.4m.1 167.8h69.2m2.8-2.9v-12.6h32.8M8.4 177.8c-1.5 0-2.7 1.2-2.7 2.7m0 162c0 1.5 1.4 3.1 2.9 3.1m-2.9-2.9V180.5" style="clip-path:url(#SVGID_4_);fill:none;stroke:#000;stroke-width:.425;stroke-linecap:round;stroke-linejoin:round;stroke-miterlimit:10"/><defs><path id="SVGID_5_" d="M0 0h800v350H0z"/></defs><clipPath id="SVGID_6_"><use xlink:href="#SVGID_5_" style="overflow:visible"/></clipPath><path d="M22.2 299.3c0 5.5 4.4 9.9 9.9 9.9s9.9-4.4 9.9-9.9m46.8 41.6h14.8M96 338l-3.6.7-3.6.4-3.2-.4-4-.7m7-6.5h18.9M96 334.4l-3.6-1.1-3.6-.3-3.2.3-4 1.1M96 338v-3.6M22.2 243V41.9M42 243V40.3M22.2 243v56.5M42 243v56.5m67.2 32c.7 0 1.3.6 1.3 1.3v6.8c0 .7-.6 1.3-1.3 1.3h-5.6m-.6-10.8.4 1.4h5.8" style="clip-path:url(#SVGID_6_);fill:none;stroke:#000;stroke-width:.425;stroke-linecap:round;stroke-linejoin:round;stroke-miterlimit:10"/><defs><path id="SVGID_7_" d="M0 0h800v350H0z"/></defs><clipPath id="SVGID_8_"><use xlink:href="#SVGID_7_" style="overflow:visible"/></clipPath><path d="m96 338 3.6.7 3.6.4 3.3-.4 3.9-.7M96 334.4l3.6-1.1 3.6-.3 3.3.3 3.9 1.1M96 338v-3.6" style="clip-path:url(#SVGID_8_);fill:none;stroke:#000;stroke-width:.425;stroke-linecap:round;stroke-linejoin:round;stroke-miterlimit:10"/><path d="M96 169.1v28.3" style="fill:none;stroke:#020203;stroke-width:.283;stroke-linecap:round;stroke-linejoin:round;stroke-miterlimit:10;stroke-dasharray:8.504,2.835,2.835,2.835"/><defs><path id="SVGID_9_" d="M0 0h800v350H0z"/></defs><clipPath id="SVGID_10_"><use xlink:href="#SVGID_9_" style="overflow:visible"/></clipPath><path d="M42 40.3c0-3.6-5.7-1.9-9.1-.2-18.7 9.2-9.3-6.7.5-.5" style="clip-path:url(#SVGID_10_);fill:none;stroke:#000;stroke-width:.283;stroke-linecap:round;stroke-linejoin:round;stroke-miterlimit:10"/><path d="m100.8 171.4 28-60.3h105.7" style="fill:none;stroke:#020203;stroke-width:.283;stroke-miterlimit:10"/><path class="st9" d="m103.2 171-5.1 6 1.4-7.8 3.7 1.8z"/><text transform="translate(130.894 106.253)" class="st9" style="font-size:14px;font-family:Helvetica,Arial,sans-serif">2 x M2 DIN rail</text></svg>