<svg version="1.1" id="Ebene_1" xmlns="http://www.w3.org/2000/svg" x="0" y="0" viewBox="0 0 289.9 73.9" style="enable-background:new 0 0 289.9 73.9;background-color:#fff" xml:space="preserve"><style>.st0{fill:none}.st4{fill:#020203}.st5{font-family:Helvetica,Arial,sans-serif}.st6{font-size:7px}.st7,.st8,.st9{fill:none;stroke:#020203;stroke-width:.778;stroke-miterlimit:10}.st8{stroke-dasharray:1.5435,1.5435}.st9{stroke-dasharray:1.6,1.6}</style><path d="M155.8 62.3V45.6m-54-16.3H189m-87.2 16.3h54" style="fill:none;stroke:#020203;stroke-width:.672;stroke-miterlimit:10"/><path d="M155.8 62.2H189" style="fill:none;stroke:#414947;stroke-width:.679;stroke-miterlimit:10"/><path d="M189 6.8h98.4v61.1H189V6.8z" style="fill:none;stroke:#414947;stroke-width:.7;stroke-miterlimit:10"/><path class="st4" d="M191.2 13.5c0 1.1-1 1.9-2.2 1.9s-2.2-.9-2.2-1.9c0-1.1 1-1.9 2.2-1.9 1.2-.1 2.2.8 2.2 1.9zm0 16.2c0 1.1-1 1.9-2.2 1.9s-2.2-.9-2.2-1.9c0-1.1 1-1.9 2.2-1.9 1.2-.1 2.2.8 2.2 1.9zm0 15.9c0 1.1-1 1.9-2.2 1.9s-2.2-.9-2.2-1.9c0-1.1 1-1.9 2.2-1.9 1.2-.1 2.2.8 2.2 1.9zm0 16.5c0 1.1-1 1.9-2.2 1.9s-2.2-.9-2.2-1.9c0-1.1 1-1.9 2.2-1.9s2.2.9 2.2 1.9z"/><path class="st0" d="M194.2 10.4H280v59.3h-85.8V10.4z"/><text transform="matrix(1.1336 0 0 1 194.195 15.454)" class="st4 st5 st6">1 Power</text><text transform="matrix(1.1336 0 0 1 194.195 31.453)" class="st4 st5 st6">2 LED (+)</text><text transform="matrix(1.1336 0 0 1 194.195 47.553)" class="st4 st5 st6">3 Trigger source</text><text transform="matrix(1.1336 0 0 1 194.195 63.553)" class="st4 st5 st6">4 Ground / LED (-)</text><path class="st0" d="M6.1 7.5h84.2v15.2H6.1V7.5z"/><text transform="matrix(1.1336 0 0 1 6.124 12.527)" class="st4 st5 st6">LED controller</text><path class="st7" d="M101.8 66v.8h-.8"/><path class="st8" d="M99.5 66.8H4.6"/><path class="st7" d="M3.8 66.8H3V66"/><path class="st9" d="M3 64.4v-60"/><path class="st7" d="M3 3.6v-.8h.8"/><path class="st8" d="M5.3 2.8h95"/><path class="st7" d="M101 2.8h.8v.8"/><path class="st9" d="M101.8 5.2v60"/><path class="st4" d="M104 29.3c0 1.1-1 1.9-2.2 1.9s-2.2-.9-2.2-1.9c0-1.1 1-1.9 2.2-1.9 1.2-.1 2.2.8 2.2 1.9zm0 16.3c0 1.1-1 1.9-2.2 1.9s-2.2-.9-2.2-1.9c0-1.1 1-1.9 2.2-1.9s2.2.8 2.2 1.9z"/><path class="st0" d="M71.8 26.2h28.9v28.2H71.8V26.2z"/><text transform="matrix(1.1336 0 0 1 71.806 31.264)" class="st4 st5 st6">LED (+)</text><text transform="matrix(1.1336 0 0 1 71.806 47.264)" class="st4 st5 st6">LED (-)</text><text transform="matrix(1.1336 0 0 1 253.028 13.496)" class="st4 st5 st6">Standard </text><text transform="matrix(1.1336 0 0 1 253.028 21.896)" class="st4 st5 st6">Light</text></svg>