<svg version="1.1" id="Ebene_1" xmlns="http://www.w3.org/2000/svg" xmlns:xlink="http://www.w3.org/1999/xlink" x="0" y="0" viewBox="0 0 347.6 246.1" style="enable-background:new 0 0 347.6 246.1;background-color:#fff" xml:space="preserve"><style>.st0{fill:none;stroke:#d9d9d9;stroke-width:.75;stroke-linejoin:round;stroke-miterlimit:10}.st2{fill:#595959}.st3{font-family:&apos;Calibri&apos;}.st4{font-size:9px}.st5{fill:#020203}.st6{font-family:Helvetica,Arial,sans-serif}.st7{font-size:9.96px}</style><path class="st0" d="M48.3 30.1h283m-283 22.8h283m-283 23h283m-283 22.8h283m-283 45.7h283m-283 22.9h283m-283 22.8h283M48.3 213h283m0-182.9V213M303.1 30.1V213M274.8 30.1V213M246.4 30.1V213M218.1 30.1V213M189.8 30.1V213M161.5 30.1V213M133.2 30.1V213M105 30.1V213M76.6 30.1V213M48.3 30.1V213m0-91.4h283"/><defs><path id="SVGID_1_" d="M48.2 30.1H332v183.5H48.2z"/></defs><clipPath id="SVGID_00000132067048060259256760000008307048402830849710_"><use xlink:href="#SVGID_1_" style="overflow:visible"/></clipPath><path style="clip-path:url(#SVGID_00000132067048060259256760000008307048402830849710_);fill:none;stroke:#5c9bd4;stroke-width:2.25;stroke-linecap:round;stroke-linejoin:round;stroke-miterlimit:10" d="m48.3 121.6 28.3.3 28.4 1 28.2 1.6 28.3 2.1 28.3 2.5 28.3 2.8 28.3 2.9 28.4 2.6 28.3 2.3 28.2 1.7"/><text transform="translate(32.647 215.504)" class="st2 st3 st4">-2</text><text transform="translate(25.842 192.653)"><tspan x="0" y="0" class="st2 st3 st4">-1</tspan><tspan x="7.3" y="0" class="st2 st3 st4">,</tspan><tspan x="9.6" y="0" class="st2 st3 st4">5</tspan></text><text transform="translate(32.647 169.802)" class="st2 st3 st4">-1</text><text transform="translate(25.842 146.951)"><tspan x="0" y="0" class="st2 st3 st4">-0</tspan><tspan x="7.3" y="0" class="st2 st3 st4">,</tspan><tspan x="9.6" y="0" class="st2 st3 st4">5</tspan></text><text transform="translate(35.4 124.1)" class="st2 st3 st4">0</text><text transform="translate(28.597 101.25)"><tspan x="0" y="0" class="st2 st3 st4">0</tspan><tspan x="4.6" y="0" class="st2 st3 st4">,</tspan><tspan x="6.8" y="0" class="st2 st3 st4">5</tspan></text><text transform="translate(35.4 78.398)" class="st2 st3 st4">1</text><text transform="translate(28.597 55.547)"><tspan x="0" y="0" class="st2 st3 st4">1</tspan><tspan x="4.6" y="0" class="st2 st3 st4">,</tspan><tspan x="6.8" y="0" class="st2 st3 st4">5</tspan></text><text transform="translate(35.4 32.696)" class="st2 st3 st4">2</text><text transform="translate(46.03 135.818)" class="st2 st3 st4">0</text><text transform="translate(69.556 135.818)"><tspan x="0" y="0" class="st2 st3 st4">-1</tspan><tspan x="7.3" y="0" class="st2 st3 st4">,</tspan><tspan x="9.6" y="0" class="st2 st3 st4">6</tspan></text><text transform="translate(97.86 135.818)"><tspan x="0" y="0" class="st2 st3 st4">-3</tspan><tspan x="7.3" y="0" class="st2 st3 st4">,</tspan><tspan x="9.6" y="0" class="st2 st3 st4">2</tspan></text><text transform="translate(126.165 135.818)"><tspan x="0" y="0" class="st2 st3 st4">-4</tspan><tspan x="7.3" y="0" class="st2 st3 st4">,</tspan><tspan x="9.6" y="0" class="st2 st3 st4">8</tspan></text><text transform="translate(154.47 135.818)"><tspan x="0" y="0" class="st2 st3 st4">-6</tspan><tspan x="7.3" y="0" class="st2 st3 st4">,</tspan><tspan x="9.6" y="0" class="st2 st3 st4">4</tspan></text><text transform="translate(186.178 135.818)" class="st2 st3 st4">-8</text><text transform="translate(211.08 135.818)"><tspan x="0" y="0" class="st2 st3 st4">-9</tspan><tspan x="7.3" y="0" class="st2 st3 st4">,</tspan><tspan x="9.6" y="0" class="st2 st3 st4">6</tspan></text><text transform="translate(237.1 135.818)"><tspan x="0" y="0" class="st2 st3 st4">-11</tspan><tspan x="11.9" y="0" class="st2 st3 st4">,</tspan><tspan x="14.2" y="0" class="st2 st3 st4">2</tspan></text><text transform="translate(265.404 135.818)"><tspan x="0" y="0" class="st2 st3 st4">-12</tspan><tspan x="11.9" y="0" class="st2 st3 st4">,</tspan><tspan x="14.2" y="0" class="st2 st3 st4">8</tspan></text><text transform="translate(293.71 135.818)"><tspan x="0" y="0" class="st2 st3 st4">-14</tspan><tspan x="11.9" y="0" class="st2 st3 st4">,</tspan><tspan x="14.2" y="0" class="st2 st3 st4">4</tspan></text><text transform="translate(325.416 135.818)" class="st2 st3 st4">-16</text><path class="st0" d="M.4.4h346.9v245.4H.4z"/><text transform="translate(139.612 229.898)" class="st5 st6 st7">Image Height [mm]</text><text transform="rotate(-90.079 91.265 76.176)" class="st5 st6 st7">Optical Distortion [%]</text></svg>