<svg version="1.1" id="Ebene_1" xmlns="http://www.w3.org/2000/svg" x="0" y="0" viewBox="0 0 471 457.1" style="enable-background:new 0 0 471 457.1;background-color:#fff" xml:space="preserve"><style>.st1{fill:#f6f6f6}.st2,.st3{fill:none;stroke:#1a171b;stroke-width:.6;stroke-linecap:round;stroke-linejoin:round;stroke-miterlimit:10}.st3{stroke:#000;stroke-width:.1}.st6{fill:#fff}.st7{fill:none;stroke:#000;stroke-width:.72;stroke-linecap:round;stroke-linejoin:round;stroke-miterlimit:10}.st8{font-family:Helvetica,Arial,sans-serif}.st9{font-size:17.0079px}.st10,.st12{fill:none;stroke:#000;stroke-width:.3;stroke-linecap:round;stroke-linejoin:round}.st12{stroke-miterlimit:10}</style><path class="st1" d="M71.6 156.3h313.1v166.1h-74.9l-.9.2-.9.5-.6.8-.1 1v34.2l-1.7 1.7H246l-1.5-1.6v-21.5l-.3-.9-.6-1-.8-.6-1.1-.2-.9.2-1 .6-.6 1-.2.9v21.5l-1.5 1.5H207l-1.6-1.6v-31.2l-.2-1.4-.6-1.4-.8-1-1.2-1-1.3-.5-1.5-.2-1.4.2-1.3.5-1.1 1-1 1-.4 1.4-.3 1.4v19.2h-23.9v-21.5l-.2-1.2-.6-.9-1.1-.8-1.1-.2h-49.3l-1.2.2-1.1.8-.6.9-.2 1.2v21.7H71.6v-191z"/><path class="st2" d="M71.6 156.3h313.1v166.1h-74.9l-.9.2-.9.5-.6.8-.1 1v34.2l-1.7 1.7H246l-1.5-1.6v-21.5l-.3-.9-.6-1-.8-.6-1.1-.2-.9.2-1 .6-.6 1-.2.9v21.5l-1.5 1.5H207l-1.6-1.6v-31.2l-.2-1.4-.6-1.4-.8-1-1.2-1-1.3-.5-1.5-.2-1.4.2-1.3.5-1.1 1-1 1-.4 1.4-.3 1.4v19.2h-23.9v-21.5l-.2-1.2-.6-.9-1.1-.8-1.1-.2h-49.3l-1.2.2-1.1.8-.6.9-.2 1.2v21.7H71.6v-191z"/><path class="st3" d="M115.6 323v-.1l-.2.1h.2z"/><path class="st3" d="m115.6 322.9-.2-.2v.3l.2-.1zm-.2-.2-.2.2.2.1v-.3zm-.3.3.1.2.2-.2h-.3zm.1.2h.2v-.2l-.2.2z"/><path class="st2" d="m73 180.1-.1-.3-.1.3h.2zm-.1-.3-.1-.1v.4l.1-.3zm-.1-.1-.3.1.3.3v-.4zm-.3.1v.3h.3l-.3-.3zm0 .3v.1l.3-.1h-.3zm0 .1.3.1v-.2l-.3.1zm.3.1.1-.1-.1-.1v.2z"/><path class="st2" d="m72.9 180.2.1-.1h-.2l.1.1zM67 344.8h4.6M29 46.1v-2.6m.1 3.2h1.8m-1.9-.6h34.8m-34.7 0v.6m1.8 0 1.1-.6"/><path class="st1" d="m63.8 46.1.4.3.2.3v343.2-.2l-1.2 13.9h2.7l1.1-13.7v-53.1h4.6l.7-.3.6-.6.1-.7V70.1l-.1-.7-.6-.6-.7-.1H67V44.9l-.1-.7-.6-.5-.7-.2H29"/><path class="st2" d="m63.8 46.1.4.3.2.3v343.2-.2l-1.2 13.9h2.7l1.1-13.7v-53.1h4.6l.7-.3.6-.6.1-.7V70.1l-.1-.7-.6-.6-.7-.1H67V44.9l-.1-.7-.6-.5-.7-.2H29"/><path class="st1" d="M71.6 247.4H151v58.1H71.6v-58.1z"/><path d="M71.6 247.4H151v58.1H71.6v-58.1z" style="fill:none;stroke:#1a171b;stroke-width:.501;stroke-linecap:round;stroke-linejoin:round;stroke-miterlimit:10"/><path d="M294.8 344h1.8v11h-1.8v-11zm2.8 0h1.8v11h-1.8v-11zm-11.4 0h1.8v11h-1.8v-11zm5.7 0h1.8v11h-1.8v-11zm-8.6 0h1.8v11h-1.8v-11zm5.7 0h1.8v11H289v-11zm-14.3 0h1.8v11h-1.8v-11zm5.7 0h1.8v11h-1.8v-11zm-8.6 0h1.8v11h-1.8v-11zm5.8 0h1.8v11h-1.8v-11zm-14.3 0h1.8v11h-1.8v-11zm5.7 0h1.8v11H269v-11zm-11.5 0h1.8v11h-1.8v-11zm8.6 0h1.8v11h-1.8v-11zm-17.2 0h1.8v11h-1.8v-11zm5.8 0h1.8v11h-1.8v-11zm-2.9 0h1.8v11h-1.8v-11zm-5.7 0h1.8v11h-1.8v-11zm57.2 0h1.8v11h-1.8v-11zm-2.8.1h1.8v9h-1.8v-9zm-40.1 0h1.8v9h-1.8v-9zm-30.6-.1h1.8v11h-1.8v-11zm-5.8 0h1.8v11H224v-11zm-8.6 0h1.8v11h-1.8v-11zm17.2 0h1.8v11h-1.8v-11zm-5.7 0h1.8v11h-1.8v-11zm8.6 0h1.8v11h-1.8v-11zm-22.9 0h1.8v11h-1.8v-11zm-2.9 0h1.8v11h-1.8v-11zm11.5 0h1.8v11h-1.8v-11zm-14.3 0h1.8v11h-1.8v-11zm11.4 0h1.8v11h-1.8v-11z" style="fill:none;stroke:#000;stroke-width:9.500000e-02;stroke-linecap:round;stroke-linejoin:round;stroke-miterlimit:10"/><path class="st6" d="m93 332-.4-2-.7-1.8-1.2-1.6-1.6-1-1.8-.9-1.9-.2-1.9.2-1.8.9-1.6 1-1.2 1.6-.7 1.8-.2 2 .2 2 .7 1.8 1.2 1.5 1.6 1.2 1.8.7 1.9.3 1.9-.3 1.8-.7 1.6-1.2 1.2-1.5.7-1.8.4-2z"/><path class="st7" d="m93 332-.4-2-.7-1.8-1.2-1.6-1.6-1-1.8-.9-1.9-.2-1.9.2-1.8.9-1.6 1-1.2 1.6-.7 1.8-.2 2 .2 2 .7 1.8 1.2 1.5 1.6 1.2 1.8.7 1.9.3 1.9-.3 1.8-.7 1.6-1.2 1.2-1.5.7-1.8.4-2z"/><path class="st6" d="m93 169.6-.4-2-.7-1.8-1.2-1.5-1.6-1.2-1.8-.7-1.9-.3-1.9.3-1.8.7-1.6 1.2-1.2 1.5-.7 1.8-.2 2 .2 2 .7 1.8 1.2 1.4 1.6 1.2 1.8.9 1.9.2 1.9-.2 1.8-.9 1.6-1.2 1.2-1.4.7-1.8.4-2z"/><path class="st7" d="m93 169.6-.4-2-.7-1.8-1.2-1.5-1.6-1.2-1.8-.7-1.9-.3-1.9.3-1.8.7-1.6 1.2-1.2 1.5-.7 1.8-.2 2 .2 2 .7 1.8 1.2 1.4 1.6 1.2 1.8.9 1.9.2 1.9-.2 1.8-.9 1.6-1.2 1.2-1.4.7-1.8.4-2z"/><text transform="translate(192.091 14.596)" class="st8 st9">119.3</text><text transform="translate(216.082 125.726)" class="st8 st9">105.1</text><text transform="rotate(-90 124.013 109.417)" class="st8 st9">120</text><text transform="matrix(0 -.9809 1 0 461.785 265.009)" class="st8 st9">68</text><path class="st10" d="M36.5 20.6h339.7"/><path d="m38.3 23.2-9.8-2.6 9.8-2.6v5.2zm336.1 0 9.8-2.6-9.8-2.6v5.2z"/><path d="M79.9 133.1h297.6" style="fill:none;stroke:#000;stroke-width:.261;stroke-linecap:round;stroke-linejoin:round"/><path d="m81.5 135.3-8.5-2.2 8.5-2.3v4.5zm294.4 0 8.5-2.2-8.5-2.3v4.5z"/><text transform="translate(125.48 451.604)" class="st8 st9">46.1</text><path class="st10" d="M76.2 433.5h120.7"/><path d="m78 436.1-9.7-2.6 9.7-2.7v5.3zm117.1 0 9.8-2.6-9.8-2.7v5.3z"/><path class="st10" d="M23 395.2V51"/><path d="m25.6 393.4-2.6 9.7-2.7-9.7h5.3zm0-340.6L23 43l-2.7 9.8h5.3z"/><path class="st10" d="M442.7 352.5V164.2"/><path d="m445.4 350.7-2.7 9.8-2.6-9.8h5.3zm0-184.7-2.7-9.7-2.6 9.7h5.3z"/><text transform="matrix(0 -.9809 1 0 422.361 254.098)" class="st8 st9">55.3</text><path class="st10" d="M402.3 313.6V164.2"/><path d="m404.9 311.8-2.6 9.7-2.6-9.7h5.2zm0-145.8-2.6-9.7-2.6 9.7h5.2z"/><path class="st12" d="M29 46.1V14.6"/><path d="M65.9 403.6H8.7" style="fill:none;stroke:#000;stroke-width:.228;stroke-linecap:round;stroke-linejoin:round;stroke-miterlimit:10"/><path d="M384.2 157.3V9.6" style="fill:none;stroke:#000;stroke-width:.261;stroke-linecap:round;stroke-linejoin:round;stroke-miterlimit:10"/><path class="st12" d="M67 441.1v-84.5m137.9 84.5v-84.5"/><path d="M65.9 43.5H8.7" style="fill:none;stroke:#000;stroke-width:.274;stroke-linecap:round;stroke-linejoin:round;stroke-miterlimit:10"/><path d="M461.5 156.3H385m76.5 204.5H263.6m149.2-38.4H385" style="fill:none;stroke:#000;stroke-width:.292;stroke-linecap:round;stroke-linejoin:round;stroke-miterlimit:10"/><text transform="translate(331.875 417.999)" class="st8 st9">Not to scale</text><text transform="translate(331.175 444.4)" class="st8 st9">Dimensions in mm</text></svg>