<svg xmlns="http://www.w3.org/2000/svg" viewBox="0 0 1006.3 467.7" style="enable-background:new 0 0 1006.3 467.7;background-color:#fff" xml:space="preserve"><style>.st0{stroke-width:.4252;stroke-miterlimit:10}.st0,.st1,.st2,.st3,.st4,.st5{fill:none;stroke:#000;stroke-linecap:round;stroke-linejoin:round}.st1{stroke-width:.283;stroke-miterlimit:10}.st2,.st3,.st4,.st5{stroke-width:.2835}.st3{stroke-dasharray:.5536,2.7678}.st4{stroke-dasharray:8.3033,2.7678,.5536,2.7678}.st5{stroke-dasharray:.7072,3.536}.st11{font-family:Helvetica,Arial,sans-serif}.st12{font-size:14px}.st13{font-size:14.9998px}</style><g id="BCLB-10x100"><path class="st0" d="M71.8 76.6V122v-.1c0 13.2 10.7 23.8 23.8 23.9h567c13.2 0 23.7-10.6 23.7-23.8V76.6c0-13.2-10.6-23.8-23.8-23.8H95.8c-13.2.1-24 10.6-24 23.8"/><path class="st0" d="M662.6 48.2H95.8c-15.7 0-28.4 12.7-28.4 28.3V122v-.1c0 15.7 12.7 28.3 28.3 28.4h567c15.7 0 28.3-12.7 28.4-28.3v.1-45.6c-.1-15.6-12.8-28.3-28.5-28.3h0z"/><path class="st0" d="M668.4 68.2H90v62.2h578.4V68.2m231.4 8.4V48.2H786.4v28.4m113.4 0H786.4m0 0v73.6M899.8 122v28.2M786.4 122h113.4m0 28.2H786.4m113.4-73.6V122m-56.6-31.3c-4.7 0-8.5 3.8-8.5 8.5s3.8 8.5 8.5 8.5 8.5-3.8 8.5-8.5-3.8-8.5-8.5-8.5"/><path class="st0" d="M843.2 110.6c6.3 0 11.3-5.1 11.3-11.3 0-6.3-5.1-11.3-11.3-11.3m0-.1c-6.3 0-11.3 5.1-11.3 11.3M95.8 280.5v113.2m487.6-51c0-3.2-2.6-5.9-5.8-5.9-3.2 0-5.9 2.6-5.9 5.8 0 3.2 2.6 5.9 5.8 5.9 3.3 0 5.9-2.6 5.9-5.8m-396.7 0c0-3.2-2.6-5.9-5.8-5.9s-5.9 2.6-5.9 5.8 2.6 5.9 5.8 5.9 5.9-2.6 5.9-5.8m475.9 51V280.5"/><path class="st0" d="M67.3 280.5H691v113.2H67.3zm116.4-.8h0V270m-13 0 6.5-.7 6.5.7m-13 0v10.5m-5.1 0V270h5.1m-31.4 0 13.4-.7 12.9.7m-26.3 0v10.5m0-10.5h-5v10.5m-13-10.5 6.5-.7 6.5.7m-13 0h0v9.7m48.7-45h-35m37.1 7.2h-39.3m38.2 4.3h-37.1M171 252h-37.1m41.5 4H130m45.4 5.7H130m41 4.3h-37.1m49.8 14.5V270m-62.4 10.5V270m49.7-34.3c-.1-.6-.6-1-1.2-1m-34.6 0c-.6 0-1.1.4-1.2 1m37 .1 1.1 6.1m-38.2-6.1-1.1 6.1v2.9m39.3 0v-2.9m-38.2 4.3-1.1-1.4m38.2 1.4 1.1-1.4m-38.2 7.2v-5.8m41.5 9.8-4.4-4v-5.8m-37.1 5.8-3.9 4v5.7m45.4 0V256m-41.5 10-3.9-4.3m41 4.3 4.4-4.3m-4.4 6.2V266"/><path class="st0" d="M171 267.9c0 .7.6 1.3 1.3 1.3l4.9.2m-43.3-3.4v1.8c0 .7-.6 1.3-1.3 1.3l-4.9.2M785.7 68h0-9.7m0 13-.7-6.5.7-6.5m0 13h10.4m0 5.1H776V81m0 31.4-.7-13.4.7-12.9m0 26.3h10.4m-10.4 0v5h10.4m-10.4 13-.7-6.5.7-6.5m0 13h9.7m-45-48.7v35m7.2-37.1v39.3m4.3-38.3v37.2m5.8-37.2v37.2m3.9-41.5v45.4m5.8-45.4v45.4m4.3-41.1v37.2M786.4 68H776m10.4 62.4H776m-34.3-49.7c-.6.1-1 .6-1 1.2m0 34.6c0 .6.4 1.1 1 1.2m0-37.1 6.2-1m-6.2 38.2 6.2 1.1h2.9m0-39.3h-2.9m4.3 38.2-1.4 1.1m1.4-38.3-1.4-1m7.2 38.2h-5.8m9.7-41.5-3.9 4.3h-5.8m5.8 37.2 3.9 3.9h5.8m0-45.4h-5.8m10.1 41.5-4.3 3.9m4.3-41.1-4.3-4.3m6.1 4.3H772m1.8 0c.7 0 1.3-.6 1.3-1.3l.2-4.9m-3.3 43.4h1.8c.7 0 1.3.6 1.3 1.3l.2 4.9"/></g><g id="Dimensions"><path class="st1" d="M899.9 150.2h35.2m-91.9-51h91.9m-91.9.1v87.2"/><path class="st2" d="M892.3 223.9H748.2"/><path d="m890.6 221.4 9.3 2.5-9.3 2.4zm-140.7 0-9.2 2.5 9.2 2.4z"/><path class="st2" d="M892.3 181.3h-41.5"/><path d="m890.6 178.9 9.3 2.4-9.3 2.5zm-38.1 0-9.3 2.4 9.3 2.5z"/><path class="st2" d="M933.8 106.7v36"/><path d="m931.3 108.4 2.5-9.2 2.4 9.2zm0 32.6 2.5 9.2 2.4-9.2z"/><path class="st1" d="M740.7 117.8v111.9m159.2-79.5v79.5m-832.5 164H16.9m50.5-113.2H16.9"/><path class="st2" d="M23.1 385.2V288"/><path d="m25.5 383.5-2.4 9.2-2.5-9.2zm0-93.8-2.4-9.2-2.5 9.2z"/><path class="st2" d="M23.1 228v-29.7"/><path d="m25.5 226.3-2.4 9.2-2.5-9.2z"/><path class="st1" d="M23.1 279.9v-44.4m110.9-.7H17.5M337.9 97l31.6-70.2"/><path class="st2" d="m854.2 87.5 48.1-51h98.9"/><path d="m857.2 88-8.1 5 4.5-8.4z"/><path class="st2" d="m190.1 333 76-78.7h122.8"/><path d="m193.1 333.5-8.2 5 4.6-8.4z"/><path class="st1" d="M92.3 149.5H16.9M95.7 48H16.9"/><path class="st2" d="M23.1 141.4V55.5"/><path d="m25.5 139.7-2.4 9.2-2.5-9.2zm0-82.5L23.1 48l-2.5 9.2z"/><path class="st1" d="M67.1 280.5V201m85.3 33.7V201"/><path class="st2" d="M75.2 207.2h69.7"/><path d="m76.9 209.7-9.2-2.5 9.2-2.5zm66.3 0 9.2-2.5-9.2-2.5z"/><path class="st1" d="M691 393.4V461M67.3 393.7v67.5"/><path class="st2" d="M683.5 455H74.9"/><path d="m681.8 452.5 9.2 2.5-9.2 2.5zm-605.2 0-9.3 2.5 9.3 2.5z"/><path class="st1" d="M577.5 342.7v89.9m-396.7-89.7v90"/><path class="st2" d="M173.3 426.7H74.9"/><path d="m171.6 424.2 9.2 2.5-9.2 2.4zm-95 0-9.3 2.5 9.3 2.4z"/><path class="st2" d="M570 426.7H188.3"/><path d="m568.3 424.2 9.2 2.5-9.2 2.4zm-378.4 0-9.2 2.5 9.2 2.4z"/><path class="st1" d="M180.7 342.3H45.2"/><path class="st2" d="M51.4 384.9v-34.8"/><path d="m53.9 383.2-2.5 9.2-2.5-9.2zm0-31.4-2.5-9.3-2.5 9.3z"/></g><g id="Middle_Lines"><path class="st2" d="M152.5 234.7v4.2"/><path class="st3" d="M152.5 241.7v1.9"/><path class="st4" d="M152.5 245v41.8"/><path class="st2" d="M152.5 288.2v4.3m28.3 50.2v-4.3"/><path class="st5" d="M180.8 334.9v-2.5"/><path class="st2" d="M180.8 330.6v-4.2m16.2 16.2h-4.2"/><path style="fill:none;stroke:#000;stroke-width:.2835;stroke-linecap:round;stroke-linejoin:round;stroke-dasharray:.7155,3.5773" d="M189.2 342.6h-2.5"/><path class="st2" d="M184.9 342.6h-4.2m396.8.1v-4.3"/><path class="st5" d="M577.5 334.9v-2.5"/><path class="st2" d="M577.5 330.6v-4.2m16.3 16.2h-4.3"/><path style="fill:none;stroke:#000;stroke-width:.2835;stroke-linecap:round;stroke-linejoin:round;stroke-dasharray:.6469,3.2347" d="M586.3 342.6H584"/><path style="fill:none;stroke:#000;stroke-width:.2835;stroke-linecap:round;stroke-linejoin:round;stroke-dasharray:9.704,3.2347,.6469,3.2347" d="M582.4 342.6h-15.2"/><path class="st2" d="M565.6 342.6h-4.3M728.7 99.1h4.2"/><path class="st3" d="M735.7 99.1h1.9"/><path class="st4" d="M739 99.1h41.8"/><path class="st2" d="M782.2 99.1h4.2m56.8.1V95"/><path style="fill:none;stroke:#000;stroke-width:.2835;stroke-linecap:round;stroke-linejoin:round;stroke-dasharray:.7015,3.5074" d="M843.2 91.5V89"/><path class="st2" d="M843.2 87.2V83m-.1 16.2h-4.2"/><path style="fill:none;stroke:#000;stroke-width:.2835;stroke-linecap:round;stroke-linejoin:round;stroke-dasharray:.6933,3.4665" d="M835.4 99.2H833"/><path class="st2" d="M831.3 99.2H827"/></g><g id="Text_1_"><text transform="translate(814.561 218.94)" class="st11 st12">(28)</text><text transform="translate(862.844 176.165)" class="st11 st12">10</text><text transform="rotate(-90 526.375 -399.981)" class="st11 st12">9</text><text transform="rotate(-90 139.627 122.013)" class="st11 st12">8</text><text transform="rotate(-90 180.952 163.338)" class="st11 st12">20</text><text transform="rotate(-90 61.898 44.284)" class="st11 st12">18</text><text transform="translate(102.259 201.768)" class="st11 st12">15</text><text transform="translate(369.547 17.689)" class="st11 st12">10 x 100 (Luminous area)</text><text transform="translate(907.973 31.862)" class="st11 st12">2 × M4, 5 deep</text><text transform="translate(271.777 249.652)" class="st11 st12">4 × M2.5, 3.5 deep</text><text transform="translate(367.515 449.572)" class="st11 st12">110</text><text transform="translate(371.408 421.226)" class="st11 st12">70</text><text transform="translate(120.002 421.226)" class="st11 st12">20</text><text transform="rotate(-90 208.718 163.502)" class="st11 st12">9</text><text transform="translate(864.356 437.009)" class="st11 st13">Not to scale</text><text transform="translate(864.356 455.009)" class="st11 st13">Dimensions in mm</text></g></svg>