<svg version="1.1" id="Layer_1" xmlns="http://www.w3.org/2000/svg" x="0" y="0" viewBox="0 0 498.2 184.3" style="enable-background:new 0 0 498.2 184.3;background-color:#fff" xml:space="preserve"><style>.st1,.st2{stroke-linecap:round;stroke-linejoin:round;stroke-miterlimit:10}.st1{fill:none;stroke:#000;stroke-width:.4252}.st2{stroke-width:.2835}.st2,.st3,.st4{fill:none;stroke:#000}.st3{stroke-width:.4252;stroke-miterlimit:10}.st4{stroke-width:.2835;stroke-linecap:round;stroke-linejoin:round}.st5{font-family:Helvetica,Arial,sans-serif}.st6{font-size:12px}.st7{font-size:7.4px}</style><g id="Cable"><path class="st1" d="M263.8 67.5h114.8M258.1 51.8h120.5M119.4 67.5h135m-135-15.7h129.2m5-3.4-.2.1-.3.2-.3.2-.2.2-.3.1-.2.2-.3.1-.1.2-.2.1-.2.1-.2.1-.1.1-.2.2-.2.1-.2.1-.1.1-.2.1-.1.1-.1.1-.2.1-.1.1-.1.1-.1.1-.2.1-.1.1-.1.1h-.1l-.2.1-.1.1-.1.1-.1.1-.1.1-.1.1h-.1l-.1.1v.1l-.1.1-.1.1h-.1l-.1.1-.1.1-.1.1h0l-.1.1-.1.1v.1h-.1l-.1.1v.1h-.1v.1l-.1.1h-.1v.1l-.1.1h0l-.1.1v.1h0l-.1.1h0v.1l-.1.1h0v.1h-.1v.2h0l-.1.1h0v.2l-.1.1v.6h0v.2h.1v.3h.1v.1h0v.1h.1v.1h0l.1.1h0v.1h.1l.1.1h0l.1.1h0l.1.1h0l.1.1h0v.1h.1l.1.1h0l.1.1h.1l.1.1h0l.1.1.1.1h.1l.1.1h0l.1.1h.1l.1.1h.1l.1.1h.1v.1h.1l.1.1.2.1h.1l.1.1.1.1h.2l.1.1.1.1h.2l.1.1.1.1h.2l.1.1h0l.3.1.2.1.2.1.3.1.2.2.2.1.2.1.3.1.1.1h.2l.1.1.2.1h.1l.1.1.2.1h.1l.2.1.1.1.1.1h.2l.1.1.1.1h.1l.1.1h.1l.1.1h.1l.1.1h.1l.1.1.1.1h.1v.1h.1l.1.1h.1l.1.1v.1h.1l.1.1h.1v.1h.1v.1h.1v.1h.1v.1h.1v.1h.1v.1h.1v.1h.1v.1h0l.1.1h0v.1h.1v.1h0l.1.1h0v.2l.1.1v1h-.1v.3l-.1.1h0v.1h-.1v.2h-.1v.1h0l-.1.1v.1h0l-.1.1v.1l-.1.1h0l-.1.1-.1.1h0l-.1.1v.1l-.1.1h-.1v.1l-.1.1h0l-.1.1-.1.1-.1.1-.1.1-.1.1h0l-.1.1-.1.1-.1.1-.1.1-.1.1-.1.1h-.1l-.1.1-.1.1-.1.1-.1.1-.2.1-.1.1-.1.1-.1.1-.2.1-.1.1-.1.1-.2.1-.1.1-.1.1-.2.1-.1.1-.2.2-.2.1-.2.1-.1.1-.2.2-.2.1-.2.1-.1.1-.2.2h-.1l-.3.2-.3.2-.2.2-.3.2-.3.1-.2.2-.3.2-.1.1"/><path class="st1" d="m263 48.4-.2.1-.3.2-.2.2-.3.2-.2.1-.3.2-.2.1-.2.2-.2.1-.2.1-.1.1-.2.1-.2.2-.2.1-.1.1-.2.1-.1.1-.2.1-.1.1-.1.1-.2.1-.1.1-.1.1-.1.1-.2.1-.1.1h-.1l-.1.1-.1.1-.1.1-.1.1-.1.1-.1.1h-.1l-.1.1-.1.1-.1.1-.1.1h-.1l-.1.1v.1l-.1.1h-.1l-.1.1v.1l-.1.1h-.1v.1l-.1.1h-.1v.1l-.1.1h0l-.1.1v.1h-.1v.1l-.1.1h0v.1h-.1v.2h-.1v.1h0l-.1.1v.1h0v.1h-.1v.3l-.1.1v.6h.1v.2h0v.1l.1.1h0v.1h0l.1.1h0v.1h.1v.1h0l.1.1h.1v.1h0l.1.1h0l.1.1h0l.1.1h0l.1.1h0l.1.1h.1l.1.1h0l.1.1h.1l.1.1v.1h.1l.1.1h.1l.1.1h0l.1.1h.1l.1.1h.1v.1h.2l.1.1.1.1h.1l.1.1.2.1h.1l.1.1.2.1h.1l.1.1.2.1h.1l.1.1h.1l.2.1.2.1.3.1.2.1.2.2.2.1.3.1.2.1.2.1h.1l.2.1.1.1h.1l.2.1.1.1h.2l.1.1.1.1.2.1h.1l.1.1.2.1h0l.1.1h.1l.1.1h.1l.1.1h.1l.1.1.1.1h.1l.1.1h.1v.1h.1l.1.1.1.1h.1v.1h.1v.1h.1l.1.1h0l.1.1h0l.1.1h0l.1.1h0l.1.1h0l.1.1h0v.1h.1v.1h0l.1.1h0v.1h.1v.1h0v.1h.1v.2h0v.3l.1.1v.1l-.1.1v.3h0v.1l-.1.1v.3h-.1v.1h0l-.1.1v.1h0l-.1.1v.1l-.1.1h0l-.1.1v.1l-.1.1h0l-.1.1v.1h-.1v.1l-.1.1-.1.1h0l-.1.1-.1.1h0l-.1.1-.1.1-.1.1v.1l-.1.1h-.1l-.1.1-.1.1-.1.1-.1.1-.1.1-.1.1h-.1l-.1.1-.1.1-.1.1-.1.1-.1.1-.2.1-.1.1-.1.1-.1.1-.2.1-.1.1-.1.1-.2.1-.1.1-.1.1-.2.1-.2.2-.2.1-.1.1-.2.1-.2.2-.2.1-.1.1-.2.1-.2.2h-.1l-.3.2-.2.2-.3.2-.3.2-.2.1-.3.2-.3.2-.1.1M119.4 51.4v15.5m-56.5-23h11.7m-18.7 0H61m-12.1 0H54m-12.4 0H47m0 30.5h-5.4m12.4 0h-5.1m12.1 0h-5.1m18.7 0H62.9M41.6 43.9l-.4.1-.2.3-.1.3m0 29.1.1.3.2.3.4.1M75.2 44l-.6-.1m0 30.5.6-.1m0-30.3 10.9 2.9m0 24.5-10.9 2.9M62.9 43.9v-.2l-.2-.2-.2-.1m-1 0-.2.1-.2.2-.1.2m-12.1 0-.1-.2-.2-.2-.2-.1m-.9 0-.3.1-.1.2-.1.2m7.5-.5-.2.1-.2.2-.1.2m1.9 0-.1-.2-.1-.2-.3-.1m5.6 31 .1.2.2.2.2.1m1 0 .2-.1.2-.2v-.2m-14.5.5.2-.1.2-.2.1-.2m-1.9 0 .1.2.1.2.3.1m6.5-.5.1.2.2.2.2.1m.9 0 .3-.1.1-.2.1-.2m5.6-31h1m-15 0h.9m6.1 0h.9m0 31.5h-.9m8 0h-1m-13.1 0h-.9m67.1-28.4-.2.1-.2.1-.1.3m0 24.3.1.3.2.1.2.1m.2 0h-.2m0-25.3h.2m-8.9.5v-.3l-.2-.1-.2-.1m0 25.3.2-.1.2-.1v-.3m4.2.5h-.2m0-25.3h.2m.5.5-.1-.3-.1-.1-.3-.1m0 25.3.3-.1.1-.1.1-.3m-.7-24.8-.2.1-.2.1-.1.3m0 24.3.1.3.2.1.2.1m5.4-24.8-.1-.3-.1-.1-.3-.1m0 25.3.3-.1.1-.1.1-.3m-10.1-24.8-.2.1-.2.1-.1.3m0 24.3.1.3.2.1.2.1m.3 0h-.3m0-25.3h.3m-19.4.4h0m.1 24.4h0M110.6 47h3.5m0 24.3h-3.5m4.7-24.3h2.9m0 24.3h-2.9m2.9 0 .5-.1.3-.2.3-.4.1-.4m0-22.1-.1-.4-.3-.4-.3-.2-.5-.1m-12.3 0h3.5m0 24.3h-3.5M86.2 47h18.5m0 24.3H86.2M37.6 48.6h3.3m0 21.1h-3.3m-28.1-23h1.9m-2.4.5.5-.5m14.1 24.9-.8.8-.3-.6h-.6l-.8 1.2h-.3l-.7-1.2h-.6l-.7 1.2h-.3l-.8-1.2h-.5l-.8 1.2h-.3l-.7-1.2h-.6l-.7 1.2h-.3l-.8-1.2h-.6l-.2.6-.8-.8m14.5 0h-2.3m-12.2 0H9.5m0 0-.5-.5m21.6-28.2h5.8M9 71.1h-.2v.4H6.5m0-24.7h2.3v.4H9M63.2 61H54m9.2-3.7V61M54 57.3h9.2M55.9 67h0l-.1-.2h0-.1 0m.2 7.6V67M54 67v7.4m.3-7.6h-.2 0v.1H54h0v.1m.3-.2h1.4m-6.8.2h0l-.1-.2h0-.2m.3 7.6V67M47 67v7.4m.2-7.6h0-.2v.1h0v.1m.2-.2h1.4m14.3.2h0v-.2h-.1 0-.1m.2 7.6V67M61 67v7.4m.3-7.6h0-.2v.1h0-.1v.1m.3-.2h1.4M54 51.3h0l.1.2h.2m-.3-7.6v7.4m1.9 0v-7.4m-.2 7.6h0l.2-.1v-.1m-.2.2h-1.4m-7.3-.2h0v.2h.2m-.2-7.6v7.4m1.9 0v-7.4m-.3 7.6h.2v-.1h.1v-.1m-.3.2h-1.4m13.8-.2h0l.1.2h.2m-.3-7.6v7.4m1.9 0v-7.4m-.2 7.6h.2v-.1h0v-.1m-.2.2h-1.4m-20.4-6.9v29.1m73.2-2.4V47m-8.2 0v24.3m4.7-24.3v24.3m-1.2 0V47m5.9 0v24.3m-10.6 0V47m14.7 23.2V48.1m-83 16.8h-5.8m5.8 0 .1-.3.1-.3.1-.3v-.1l.1-.2v-.1l.1-.2v-.3l.1-.1v-.2l.1-.1v-.3l.1-.2v-.3l.1-.2v-.3l.1-.1v-.7l.1-.1v-.9l.1-.1v-1.3m0 0v-1.3l-.1-.2v-1l-.1-.1v-.5l-.1-.2v-.3h0l-.1-.2v-.3l-.1-.1v-.4l-.1-.1v-.2l-.1-.1V53l-.1-.2v-.1l-.1-.2v-.1l-.1-.3h0l-.1-.3-.1-.4m0 0h-5.8m5.8 0v-2.5m1.2 9.3V45.9m-1.2 3 .1-.2.1-.1h0l.1-.1h0l.1-.1v-.1l.1-.1h0v-.1l.1-.1h0l.1-.1v-.1h0l.1-.1v-.1h0l.1-.1v-.2h.1v-.2h0V47l.1-.1v-.1h0v-.3h.1v-.6m-1.2 21.8v-2.8m1.2 6.5v-.7l-.1-.1v-.5l-.1-.1v-.3l-.1-.1v-.2l-.1-.1v-.1h0l-.1-.1v-.2l-.1-.1v-.1l-.1-.1v-.1l-.1-.1h0l-.1-.2h0l-.1-.1V68l-.1-.2-.1-.1m1.2 3.7V58.2m-7 2.3-.6-.8m0-.5.6-.8m-.6.8v.5m.6-1.3v2.1m-4.7-2.1.6.8m0 .5-.6.8m.6-1.3v.5m-.6-1.3v2.1m4.7-2.1-.6-.8m0-.5.6-.7m-.6.7v.5m.6-1.2v2m-4.7-2 .6.7m0 .5-.6.8m.6-1.3v.5m-.6-1.2v2m-14.5-1.8H9.5m0 3.4h1.9m1.6 1.1-.6 2.7-1-3.8v11.6m10.4-6.8h-.5l-.7-3.7H20l-.8 3.7h-.3l-.6-3.7h-.6l-.8 3.7h-.3l-.7-3.7h-.6l-.8 3.7h-.3l-.6-3.7H13m9.3 1.8-.5 1.9m.5-1.9h.5l.8-2.9v11.6m0-11.6h2.3m4.7 2.5-.6-.7m0-.5.6-.8m-.6.8v.5m.6-1.3v2m-4.7-2 .6.8m0 .5-.6.7m.6-1.2v.5m-.6-1.3v2m4.7-6.1-.6-.9m0-.5.6-.7m-.6.7v.5m.6-1.2v2.1m-4.7-2.1.6.7m0 .5-.6.9m.6-1.4v.5m-.6-1.2v2.1m4.7 2h-4.7m4.7 2.1h-4.7m4.7-4.1h-4.7m4.7 8.1-.6-.6m0-.5.6-.9m-.6.9v.5m.6-1.4v2m-4.7-2 .6.9m0 .5-.6.6m.6-1.1v.5m-.6-1.4v2m4.7-2h-4.7m4.7-8.2-.6-.9m0-.5.6-.5m-.6.5v.5m.6-1v1.9m-4.7-1.9.6.5m0 .5-.6.9m.6-1.4v.5m-.6-1v1.9m4.7 0h-4.7m4.7 10.2h-4.7m4.7 1.9-.6-.5m0-.5.6-.9m-.6.9v.5m.6-1.4v1.9m-4.7-1.9.6.9m0 .5-.6.5m.6-1v.5m-.6-1.4v1.9m4.7-14-.6-1m0-.4.6-.4m-.6.4v.4m.6-.8v1.8m-4.7-1.8.6.4m0 .4-.6 1m.6-1.4v.4m-.6-.8v1.8m4.7 0h-4.7m-14.5-5.7v9.9m19.2 9.8h-4.7m4.7 1.8-.6-.4m0-.4.6-1m-.6 1v.4m.6-1.4v1.8m-4.7-1.8.6 1m0 .4-.6.4m.6-.8v.4m-.6-1.4v1.8m10.5-.5h-5.8m0-17.1h-4.7m10.5-1.7h-5.8m0 1.7-.6-1m0-.4.6-.3m-.6.3v.4m.6-.7v1.7m-4.7-1.7.6.3m0 .4-.6 1m.6-1.4v.4m-.6-.7v1.7m4.7 17.6h-4.7M9.5 46.7v9.9m-.5.1h.3l.2-.1m21.1 13.2-.6-.2m0-.4.6-1m-.6 1v.4m.6-1.4v1.6m-4.7-1.6.6 1m0 .4-.6.2m.6-.6v.4m-.6-1.4v1.6m4.7-20.9h-4.7m10.5 26.3h-5.8m5.8 0 .1-.2.1-.2.1-.1v-.1l.1-.1h0l.1-.1v-.2l.1-.1V74l.1-.1v-.1h0l.1-.1v-.2l.1-.1v-.2l.1-.1V73h0v-.2l.1-.1v-.5l.1-.1v-.7M9 60h.5M9 56.7V60m21.6-11.1-.6-1m0-.4.6-.1m-.6.1v.4m.6-.5v1.5m-4.7-1.5.6.1m0 .4-.6 1m.6-1.4v.4m-.6-.5v1.5m4.7 20.9h-4.7M9.5 60v11.6m28.1-25.7v-.6l-.1-.1V45h0v-.2h-.1v-.3h-.1v-.2h-.1v-.2l-.1-.1h0v-.1l-.1-.1h0l-.1-.1v-.1l-.1-.1h0l-.1-.1v-.1l-.1-.1-.1-.1-.1-.2m0 0h-5.8m-4.7 26.9.6 1m3.5 0 .6-1m0 1.5-.6-.1m0-.4v.4m.6-1.4v1.5m-4.1-.1-.6.1m.6-.5v.4m-.6-1.4v1.5m4.7-23.9h-4.7m4.7 23.9h-4.7m4.7-23.9-.6-1m0-.3.6-.1m-.6.1v.3m.6-.4v1.4M25.9 46l.6.1m0 .3-.6 1m.6-1.3v.3m-.6-.4v1.4M30 72.3l.6-1m-4.7 0 .6 1m4.1.3H30m0-.3v.3m.6-1.3v1.3m-4.1 0h-.6m.6-.3v.3m-.6-1.3v1.3M30.6 46h-4.7M30 72.6h-3.5m4.1 0h-4.7M30.6 46l-.6-.9m0-.3.6.1m-.6-.1v.3m.6-.2V46m-4.7-1.1.6-.1m0 .3-.6.9m.6-1.2v.3m-.6-.2V46M30 73.5l.6-.9m-4.7 0 .6.9m4.1.2-.6.1m0-.3v.3m.6-1.2v1.1m-4.1.1-.6-.1m.6-.2v.3m-.6-1.2v1.1m.6-28.9H30m0 29h-3.5M25.9 44l.6-.2m0 .2-.6.9m.6-1.1v.2m-.6.4v.5m0-.9v.4m4.7.5L30 44m0-.2.6.2m-.6-.2v.2m.6 0v.9M30 74.5l.6-.8m-4.7 0 .6.8m4.1 0-.6.2m0-.2v.2m.6-1v.8m-4.1.2-.6-.2m.6 0v.2m-.6-1v.8m.6-30.7H30m0 30.9h-3.5m9.9-31.8h0m-10.5.4.6-.3m0 .2-.6.8m.6-1v.2m-.6.1v.7m4.7 0-.6-.8m0-.2.6.3M30 43v.2m.6.1v.7m0 31.1-.6.4m0-.2.6-.8m-.6.8v.2m.6-1v.6m-4.7-.6.6.8m0 .2-.6-.4m.6.2v.2m-.6-1v.6m.6-32.1H30m0 32.5h-3.5m-.6-32.6.6-.4m0 .1-.6.7m.6-.8h0m-.6.4v.4m4.7 0-.6-.7m0-.1.6.4m-.6-.4h0m.6.4v.4M30 75.8l.6-.7m-4.7 0 .6.7m4.1-.3-.6.4m0-.1h0m.6-.7v.4m-4.1.4-.6-.4m.6.3h0m-.6-.7v.4m.6-33H30m.6.4-.6-.7m-3.5 0-.6.7m4.1-.7h-3.5M30 76.1l.6-.6m-4.7 0 .6.6m0 0H30m-3.5 0h0m3.5 0h-3.5m-20-4.6V46.8m68.7 27.5V44m10.9 2.9v24.5M118.2 47v24.3M456.3 46l-40-6.5m.4-5.3h-.3l-.7.3-.7.4-.4.5-.3.6-.2.7.1.7.2.6.4.6.5.5.8.3.2.1m.4-5.3h39.6m-4.5 2.9.2.1.6.2h1.2l.5-.2.5-.3.5-.3.4-.4.3-.5.2-.6.1-.6v-.3m-10.6 0 6.1 2.9"/><path class="st1" d="M456.3 34.2v-3.1l-41.9-1.4h-.6l-.7.1-.5.1-.6.1-.5.2-.4.1-.5.2-.5.3-.4.3-.5.3-.5.4-.2.3L391.6 49m-13 21.7v.4l.1.4.2.4.2.3.2.3.3.3.4.2.4.2.4.1h.4m-2.6-24.7v22.1M394.1 46h-12.5m7.6 0v3.7m-7.6 0h7.6m67.1-3.7v27.3m-73.8-.5v1.1m15.8-1.1v1.1m23.7-1.1v1.1m15.9-1.1v1.1m18.4-.6h-17.7M381.2 46h-.4l-.4.1-.4.2-.4.2-.3.2-.2.4-.2.3-.2.4-.1.4v.4m3-2.6v3.7m0-3.7h-.4m12.8 0h.1l.1-.1h.3l.1-.1h.1l.1-.1.1-.1h0m43.7 27.2h-17.4m0 .5h-22.1m39.5 0v-.5m-17.4 0v.5m-22.1-.5h-17.4m17.4.5v-.5m-17.4 0v.5h-.5m65.3-25.7v4.2m6.6-4.2v4.2h-6.6m6.6-4.2h-6.6m9.8.2h-3.2m0 19.7h-6.6m6.6 4v-4m-6.6 4v-4m-36.4 4h46.2m-48.9-1.2.2.2.3.2.2.2.3.1.3.1.3.1.3.1.3.1h.6m-2.8-1.1-15.8-15.7m0-5.6-.4.4-.4.6-.2.6-.1.5-.1.7.1.6.1.6.2.5.4.6.4.4m54.9-6.7h-52.1m28.5-1-13.7-13.7m28.7 40.8H422m-23.7 0h-15.8m108.4-21.6v2.4m5.2-5v6.4M493 68.3h-36.7m37.8-20.7h-9.9m11.9 2.1v-.4l-.1-.3-.1-.3-.2-.3-.2-.2-.2-.2-.3-.2-.3-.1-.3-.1h-.3m-.6 7.1v13.1m-.5.5h.2v-.1h.1l.1-.1h0l.1-.1v-.2m2.6-11.7h-2.6m0-1.4h-2.6m-1.3-3.7h-5.5m6.8 1.3v-.2l-.1-.2-.1-.2-.1-.2-.1-.1-.2-.1-.1-.2h-.2l-.2-.1h-.2m-4.4 0h.3l.1-.1.1-.1h.1v-.1l.1-.1v-.1l.1-.1v-.2l-.1-.1v-.2l-.1-.1-.1-.1h0l-.1-.1h-.2m-35.3-13.3v.7m23.7 10 11.6 2.5M473.8 47l-10.5-3.9-13.2-6.1m11.8 2.4-6.4-3m19.9 7.2-13.5-4.2m13.5 4.2 3.7 1m1.5 2.2 3.6.8m-5.1-3 1.5 2.2m-5.2-3.2v3.8m8.7 3.6v8.2m6.5 0h-6.5m6.5 5.4h-18.4v3.7m-4.2-.1h0m16.1-17.1h-27.8m27.8 0v8.2m6.5-.1v5.4m-18.4-.1v3.7m-57.8-12.5h13.2m-13.2 7.9h13.2m0-7.9v7.9m-13.2-7.9v7.9"/><path class="st2" d="M416.2 57.1h1.1m-1.1.9h.2m2.3 1.9h-1.4m1.4-.9h-1.4v-1.9m1.4 1.9v-1.9h2.5m-1.6.9h1.7m-.8 1h.8v-1m-.8 1.9V59m-4.2-1.1h-.2 0-.1l-.1-.1h0v-.1l-.1-.1v-.2l.1-.1v-.1h0l.1-.1h.3m5.9 1.8V58m1.9-.9h1.5m-1.6.9h1.6m-4.4-.9h.3l.1.1h.1l.2.1.1.2v.1l.1.1v.2l.1.1m2.9 1.9h-1m1.9 1.3V60m-3.2 2.3-2.3-2.4m2.3 2.4h2.2m-1.8-1-1.5-1.5m1.5 1.5h1.9v-1.4m.9 1.4h0l-.1.3v.1l-.1.1-.1.2-.1.1h-.2l-.1.1h-.3m-2.8-3.3h0l-.1.4-.1.1v.1l-.1.1h-.1l-.1.1-.1.1m2.4-.8h1m0 0h0l.3.1.1.1h.2l.1.1.1.1.1.2v.1l.1.2v.1m-2.9-1.1V58m1 1.9h-.2l-.1-.1h-.2l-.1-.1-.1-.1-.1-.1-.1-.1-.1-.2v-.3m0-.9v-.3l.1-.1.1-.1.1-.2.1-.1h.1l.2-.1h.3M424 59v-1m1.5-.9h.3v.1h.1v.2h.1v.2h-.1v.2h-.1v.1h-.1 0-.2m-6.8 4.4v-2.4m.9 1.4V58m.1 3.3h0m0 1h-1m1-1h0l.3.1v.1h.1v.2l.1.1-.1.1v.2h-.1v.1h-.3m-2.4.1v-2.4m-.9 1.4V58m-.2 4.3h1.1m-1.1-1h.2m-.1.9h-.2 0-.1l-.1-.1h0V62l-.1-.1v-.2l.1-.1v-.1h0l.1-.1h.2l.1-.1"/><path class="st1" d="M378.6 51.9v15.5m0-15.6v15.7M37.4 137v.3m0 0H26.9m-6.8 0 .9.4 1 .4 1 .1h1l1-.1 1-.4.9-.4m-6.8 0h-2.4m22.1-.3h.9m-3.3-17v-2.4m0 9.2.5-.9.3-1 .2-1v-1l-.2-1-.3-1-.5-.9m0 17v-10.2m2.4 10.2h-2.4m0-19.4-.1-.5-.2-.5-.4-.4-.4-.3-.5-.1h-.6M20 135.3l.7.5.7.4.9.1.9.1 1-.1 1.1-.2 1.2-.4 1.1-.5 1.1-.7 1.2-.7 1.1-.9 1-1 1-1 .9-1.1.7-1.1.7-1.2.5-1.1.4-1.2.2-1 .1-1.1v-.9l-.2-.9-.4-.7-.5-.6-.6-.5-.7-.4-.9-.2h-2l-1 .3-1.2.4-1.1.5-1.2.7-1.1.7-1.1.9-1 1-1 1-.9 1.1-.7 1.1-.7 1.2-.5 1.1-.4 1.2-.3 1.1-.1 1 .1.9.2.9.4.7.4.6m20.7 1.7v-21.7m-24.8 19.8v.6l.1.5.3.5.4.3.4.2.6.1"/><circle class="st3" cx="32" cy="123.4" r="1.9"/><circle class="st3" cx="32" cy="123.4" r="3.5"/><circle class="st3" cx="23.5" cy="131.9" r="1.9"/><circle class="st3" cx="23.5" cy="131.9" r="3.5"/><path class="st1" d="M43.5 143.6v-.3m0 0H54m6.8 0-.9-.4-1-.3-1-.2h-1l-1 .2-1 .3-.9.4m6.8 0h2.4m-22.1.3h-.9m3.3 17v2.5m0-9.3-.5.9-.3 1-.2 1v1l.2 1 .3 1 .5.9m0-17v10.2m-2.4-10.2h2.4m0 19.5.1.5.2.5.4.4.4.2.5.2h.6m15.2-19.6-.7-.5-.7-.3-.9-.2-.9-.1-1 .1-1.1.2-1.2.4-1.1.5-1.1.7-1.2.8-1.1.9-1 .9-1 1.1-.9 1.1-.7 1.1-.7 1.1-.5 1.2-.4 1.1-.2 1.1-.1 1v1l.2.8.4.8.5.6.6.5.7.3.9.2.9.1 1.1-.1 1-.2 1.2-.4 1.1-.6 1.2-.6 1.1-.8 1.1-.9 1-.9 1-1.1.9-1.1.7-1.1.7-1.1.5-1.2.4-1.1.3-1.1.1-1-.1-1-.2-.8-.4-.8-.4-.6m-20.7-1.7v21.8M65 145.6v-.6l-.1-.5-.3-.5-.4-.4-.4-.2-.6-.1"/><circle class="st3" cx="48.9" cy="157.3" r="1.9"/><circle class="st3" cx="48.9" cy="157.3" r="3.5"/><circle class="st3" cx="57.4" cy="148.8" r="1.9"/><circle class="st3" cx="57.4" cy="148.8" r="3.5"/><path class="st1" d="M43.8 137.3h-.3m0 0v-10.5m0-6.8-.5.9-.3 1-.2 1v1l.2 1 .3 1 .5.9m0-6.8v-2.4m.3 22.1v.9m17-3.3h2.4m-9.2 0 .9.5 1 .3 1 .2h1l1-.2 1-.3.9-.5m-17 0H54m-10.2 2.4v-2.4m19.4 0 .5-.1.5-.2.4-.4.3-.4.1-.5v-.6m-19.5-15.2-.5.7-.4.7-.2.9-.1.9.1 1 .3 1.1.4 1.2.5 1.1.7 1.1.7 1.2.9 1.1 1 1 1 1 1.1.9 1.1.7 1.2.7 1.1.5 1.2.4 1 .2 1.1.1h.9l.9-.2.7-.4.6-.5.5-.6.4-.7.2-.9v-2l-.3-1-.4-1.2-.5-1.1-.7-1.2-.7-1.1-.9-1.1-1-1-1-1-1.1-.9-1.1-.7-1.2-.7-1.1-.5-1.2-.4-1.1-.3-1-.1-.9.1-.9.2-.7.4-.6.4m-1.7 20.7h21.7m-19.9-24.8h-.5l-.5.1-.5.3-.3.4-.2.4-.1.6"/><circle class="st3" cx="57.4" cy="131.9" r="1.9"/><circle class="st3" cx="57.4" cy="131.9" r="3.5"/><circle class="st3" cx="48.9" cy="123.4" r="1.9"/><circle class="st3" cx="48.9" cy="123.4" r="3.5"/><path class="st1" d="M37.1 143.3h.3m0 0v10.6m0 6.7.5-.9.3-.9.2-1.1v-1l-.2-1-.3-.9-.5-.9m0 6.7v2.5m-.3-22.2v-.8m-17 3.2h-2.4m9.2 0-.9-.4-1-.3-1-.2h-1l-1 .2-1 .3-.9.4m17 0H26.9m10.2-2.4v2.4m-19.4 0-.5.1-.5.2-.4.4-.3.5-.1.5v.6m19.5 15.1.5-.6.4-.8.2-.8.1-1-.1-1-.3-1.1-.4-1.1-.5-1.1-.7-1.2-.7-1.1-.9-1.1-1-1.1-1-.9-1.1-.9-1.1-.8-1.2-.6-1.1-.6-1.2-.4-1-.2-1.1-.1-.9.1-.9.2-.7.3-.6.5-.5.6-.4.8-.2.8v2l.3 1.1.4 1.1.5 1.2.7 1.1.7 1.1.9 1.1 1 1.1 1 .9 1.1.9 1.1.8 1.2.7 1.1.5 1.2.4 1.1.2 1 .1h.9l.9-.3.7-.3.6-.5m1.7-20.6H15.4m19.8 24.8h.6l.5-.1.5-.3.3-.4.2-.5.1-.5"/><circle class="st3" cx="23.5" cy="148.8" r="1.9"/><circle class="st3" cx="23.5" cy="148.8" r="3.5"/><circle class="st3" cx="32" cy="157.3" r="1.9"/><circle class="st3" cx="32" cy="157.3" r="3.5"/><circle class="st1" cx="40.5" cy="140.3" r="28.1"/><circle class="st1" cx="40.5" cy="140.3" r="25.1"/><path class="st1" d="m12.4 63.8.6 8m1.2-7 .6 7m1.8-7 .6 7m1.7-7 .6 7m1.8-7 .6 7m.9-8.9.8 8.7m0-24.8-.8-.8-.3.6h-.6l-.8-1.3h-.3l-.7 1.3h-.6l-.7-1.3h-.3l-.8 1.3h-.5l-.8-1.3h-.3l-.7 1.3h-.6l-.7-1.3h-.3l-.8 1.2h-.6l-.2-.5-.8.7m14.4 0-2.2.1M13 57.2l-.6-2.7-1 2.1m10.4-3h-.5l-.7 3.6H20l-.8-3.6h-.3l-.6 3.6h-.6l-.8-3.6h-.3l-.7 3.6h-.6l-.8-3.6h-.3l-.6 3.6H13m9.3-1.8-.5-1.8m.5 1.8h.5l.8 2.9V46.8m0 11.5h2.3m-13.5-3.8.6-8m1.2 7.1.6-7m1.8 7 .6-7m1.7 7 .6-7m1.8 7 .6-7m.9 8.8.8-8.6M67 63s-5.3 2.3-11.1 2.3S45.1 63 45.1 63c-.3-.2-.6-.3-.6-.6v-6.6c0-.3.4-.5.6-.6 0 0 5.2-2.2 10.8-2.2s11 2.2 11 2.2c.3.1.6.3.6.6v6.6c.1.3-.2.5-.5.6z"/><path class="st1" d="M54 57.3v-2.9l-5 4.8 5 4.7V61"/></g><g id="Dimensions"><path class="st2" d="M496.1 49.7V12"/><path class="st4" d="M10.4 14.5H492"/><path d="m11.2 15.7-4.6-1.2 4.6-1.2v2.4zm480 0 4.6-1.2-4.6-1.2v2.4z"/><path class="st2" d="M6.5 46.8V13.2m112.9 36V25.4"/><path class="st4" d="M10.4 28.1h105"/><path d="m11.2 29.3-4.6-1.2 4.6-1.2v2.4zm103.4 0 4.6-1.2-4.6-1.2v2.4z"/></g><text transform="translate(51.872 174.633)" class="st5 st6">1</text><text transform="translate(66.622 157.684)" class="st5 st6">2</text><text transform="translate(67.972 132.234)" class="st5 st6">3</text><text transform="translate(52.972 112.934)" class="st5 st6">4</text><text transform="translate(22.722 113.834)" class="st5 st6">5</text><text transform="translate(5.522 131.884)" class="st5 st6">6</text><text transform="translate(6.422 156.684)" class="st5 st6">7</text><text transform="translate(19.222 174.633)" class="st5 st6">8</text><text transform="translate(189.501 10.955)" class="st5 st7">Length depending on order number</text><text transform="translate(36.915 25.885)" class="st5 st7">48.9 mm</text></svg>