<svg xmlns="http://www.w3.org/2000/svg" viewBox="0 0 524.4 300.5" style="enable-background:new 0 0 524.4 300.5;background-color:#fff" xml:space="preserve"><style>.st4{fill:#5a5a5a}.st5{font-family:Helvetica,Arial,sans-serif}.st6{font-size:10.1575px}</style><g id="Lines"><path d="M42.6 223.8h473.3M42.6 181.3h473.3M42.6 138.8h473.3M42.6 96.2h473.3M42.6 53.7h473.3M42.6 11.2h473.3" style="stroke:#d9d9d9;stroke-linejoin:round;fill:none;stroke-width:.4252;stroke-miterlimit:10"/><path d="M135.4 10.5v255.9m92.8-255.9v255.9M321 10.5v255.9m92.9-255.9v255.9m92.9-255.9v255.9" style="fill-rule:evenodd;clip-rule:evenodd;stroke:#c6c6c6;fill:none;stroke-width:.4252;stroke-miterlimit:10"/><path style="fill:none;stroke:#9d9d9c;stroke-width:.4252;stroke-linejoin:round;stroke-miterlimit:10" d="M42.6 266.4h473.3"/><path style="fill-rule:evenodd;clip-rule:evenodd;fill:none;stroke:#9d9d9c;stroke-width:.4252;stroke-miterlimit:10" d="M42.5 10.5v255.9"/></g><g id="Text"><text transform="translate(28.128 269.555)" class="st4 st5 st6">0</text><text transform="translate(6.977 227.014)" class="st4 st5 st6">50,000</text><text transform="translate(1.342 184.473)" class="st4 st5 st6">100,000</text><text transform="translate(1.342 141.932)" class="st4 st5 st6">150,000</text><text transform="translate(1.342 99.391)" class="st4 st5 st6">200,000</text><text transform="translate(1.342 56.85)" class="st4 st5 st6">250,000</text><text transform="translate(1.342 14.31)" class="st4 st5 st6">500,000</text><text transform="translate(39.597 281.623)" class="st4 st5 st6">0</text><text transform="translate(129.661 281.623)" class="st4 st5 st6">50</text><text transform="translate(219.67 281.623)" class="st4 st5 st6">100</text><text transform="translate(312.494 281.623)" class="st4 st5 st6">150</text><text transform="translate(405.317 281.623)" class="st4 st5 st6">200</text><text transform="translate(498.24 281.623)" class="st4 st5 st6">250</text></g><g id="Graphen_00000115500420143128663610000017394546589503380633_"><path d="M195.6 266.1h1.3v.1l-1.3-.1zm1.8 0h1.3v.1l-1.3-.1zm1.9 0h1.3v.1l-1.3-.1zm1.8 0h1.2v.1l-1.2-.1zm1.9 0h1.2v.1l-1.2-.1zm1.8 0h1.2v.1l-1.2-.1zm1.8 0h1.3v.1l-1.3-.1zm1.9 0h1.3v.1l-1.3-.1zm1.8-.1h1.3v.2h-1.3v-.2zm1.9 0h1.3v.2h-1.3v-.2zm1.8-.1h1.2v.3H214v-.3zm1.9-.1h1.2v.4h-1.2v-.4zm1.8-.1h1.2v.4h-1.2v-.4zm1.8 0h1.3v.4h-1.3v-.4zm1.9-.1h1.3v.5h-1.3v-.5zm1.8-.1h1.3v.6h-1.3v-.6zm1.9 0h1.2v.7h-1.2v-.7zm1.8-.2h1.2v.9h-1.2v-.9zm1.9-.2h1.2v1.1h-1.2v-1.1zm1.8-.1h1.3v1.1h-1.3V265zm1.8-.2h1.3v1.4h-1.3v-1.4zm1.9 0h1.3v1.3h-1.3v-1.3zm1.8-.1h1.3v1.5h-1.3v-1.5zm1.9 0h1.2v1.5H238v-1.5zm1.8 0h1.2v1.5h-1.2v-1.5zm1.9 0h1.2v1.5h-1.2v-1.5zm1.8.1h1.3v1.4h-1.3v-1.4zm1.8-.1h1.3v1.5h-1.3v-1.5zm1.9 0h1.3v1.5h-1.3v-1.5zm1.8.1h1.3v1.4H249v-1.4zm1.9-.2h1.2v1.6h-1.2v-1.6zm1.9.2h1.2v1.4h-1.2v-1.4zm1.8 0h1.2v1.4h-1.2v-1.4zm1.8 0h1.3v1.4h-1.3v-1.4zm1.8 0h1.3v1.4h-1.3v-1.4zm1.9 0h1.3v1.4h-1.3v-1.4zm1.9 0h1.2v1.4H262v-1.4zm1.8 0h1.2v1.4h-1.2v-1.4zm1.9 0h1.2v1.3h-1.2v-1.3zm1.7 0h1.3v1.3h-1.3v-1.3zm1.9.1h1.3v1.2h-1.3v-1.2zm1.8.1h1.3v1.1h-1.3V265zm1.9 0h1.3v1.1H273V265zm1.9.1h1.2v1.1h-1.2v-1.1zm1.8 0h1.2v1.1h-1.2v-1.1zm1.9.1h1.2v1h-1.2v-1zm1.7-.1h1.3v1.1h-1.3v-1.1zm1.9 0h1.3v1.1h-1.3v-1.1zm1.9.1h1.3v1h-1.3v-1zm1.8 0h1.3v1h-1.3v-1zm1.9-.1h1.2v1.1h-1.2v-1.1zm1.8.1h1.2v1h-1.2v-1zm1.8 0h1.3v1h-1.3v-1zm1.8.1h1.3v.9h-1.3v-.9zm1.9-.1h1.3v1h-1.3v-1zm1.9.1h1.3v.9H297v-.9zm1.8.1h1.2v.8h-1.2v-.8zm1.9-.1h1.2v.9h-1.2v-.9zm1.8.1h1.2v.8h-1.2v-.8zm1.8.1h1.3v.7h-1.3v-.7zm1.9-.1h1.3v.8h-1.3v-.8zm1.8.1h1.3v.7H308v-.7zm1.9 0h1.3v.7h-1.3v-.7zm1.8 0h1.2v.7h-1.2v-.7zm1.9 0h1.2v.6h-1.2v-.6zm1.8 0h1.2v.7h-1.2v-.7zm1.8 0h1.3v.6h-1.3v-.6zm1.9 0h1.3v.6h-1.3v-.6zm1.8 0h1.3v.6h-1.3v-.6zm1.9.1h1.2v.5h-1.2v-.5zm1.8-.1h1.2v.6h-1.2v-.6zm1.9 0h1.2v.6h-1.2v-.6zm1.8.1h1.3v.5h-1.3v-.5zm1.8 0h1.3v.5h-1.3v-.5zm1.9 0h1.3v.5H332v-.5zm1.8 0h1.3v.5h-1.3v-.5zm1.9.1h1.2v.4h-1.2v-.4zm1.8 0h1.2v.4h-1.2v-.4zm1.9-.1h1.2v.5h-1.2v-.5zm1.8.1h1.3v.4h-1.3v-.4zm1.8 0h1.3v.4H343v-.4zm1.9 0h1.3v.4h-1.3v-.4zm1.8 0h1.3v.4h-1.3v-.4zm1.9-.2h1.2v.6h-1.2v-.6zm1.9-.3h1.2v1h-1.2v-1zm1.8-.4h1.2v1.4h-1.2v-1.4zm1.8-.6h1.3v1.9h-1.3v-1.9zm1.8-.9h1.3v2.9h-1.3v-2.9zm1.9-1.3h1.3v4.2h-1.3V262zm1.8-1.1h1.2v5.3h-1.2v-5.3zm1.9-.7h1.2v6h-1.2v-6zm1.9.2h1.2v5.8h-1.2v-5.8zm1.7 0h1.3v5.8h-1.3v-5.8zm1.9.2h1.3v5.6H367v-5.6zm1.8-.6h1.3v6.1h-1.3V260zm1.9-.1h1.3v6.2h-1.3v-6.2zm1.9.1h1.2v6.1h-1.2V260zm1.8.5h1.2v5.7h-1.2v-5.7zm1.9 0h1.2v5.7h-1.2v-5.7zm1.7-.2h1.3v5.9H378v-5.9zm1.9-.4h1.3v6.3h-1.3v-6.3zm1.8 0h1.3v6.2h-1.3v-6.2zm1.9-.1h1.3v6.4h-1.3v-6.4zm1.9.4h1.2v6h-1.2v-6zm1.8.3h1.2v5.7h-1.2v-5.7zm1.8-.1h1.3v5.8h-1.3v-5.8zm1.8 0h1.3v5.8h-1.3v-5.8zm1.9-.5h1.3v6.2h-1.3v-6.2zm1.9.5h1.3v5.8h-1.3v-5.8zm1.8.4h1.2v5.3h-1.2v-5.3zm1.9-.5h1.2v5.9h-1.2v-5.9zm1.8.2h1.2v5.7h-1.2v-5.7zm1.8-.4h1.3v6H402v-6zm1.8-.2h1.3v6.2h-1.3v-6.2zm1.9.4h1.3v5.9h-1.3v-5.9zm1.9.5h1.3v5.3h-1.3v-5.3zm1.8-.3h1.2v5.7h-1.2v-5.7zm1.9-.4h1.2v6h-1.2v-6zm1.8 0h1.2v6h-1.2v-6zm1.8-.2h1.3v6.2h-1.3v-6.2zm1.9.3h1.3v6h-1.3v-6zm1.8-1.9h1.3v7.9h-1.3v-7.9zm1.9 2.3h1.2v5.6h-1.2v-5.6zm1.8-.3h1.2v5.9h-1.2v-5.9zm1.9-.5h1.2v6.4h-1.2v-6.4zm1.7.1h1.3v6.3h-1.3v-6.3zm1.9.1h1.3v6.1h-1.3V260zm1.9.3h1.3v5.9h-1.3v-5.9zm1.8-.1h1.3v6h-1.3v-6zm1.9-.7h1.2v6.7h-1.2v-6.7zm1.8.1h1.2v6.6h-1.2v-6.6zm1.9.2h1.2v6.4h-1.2v-6.4zm1.8.5h1.3v5.9h-1.3v-5.9zm1.8.4h1.3v5.4h-1.3v-5.4zm1.9.2h1.3v5.3h-1.3v-5.3zm1.8-.1h1.3v5.3h-1.3v-5.3zm1.9 0h1.2v5.3h-1.2v-5.3zm1.8.2h1.2v5.2h-1.2V261zm1.9.4h1.2v4.7H450v-4.7zm1.8.9h1.3v3.9h-1.3v-3.9zm1.8.4h1.3v3.4h-1.3v-3.4zm1.9 0h1.3v3.4h-1.3v-3.4zm1.8 0h1.2v3.4h-1.2v-3.4zm1.9.2h1.2v3.2h-1.2v-3.2zm1.9.1h1.2v3.2h-1.2V263zm1.7.1h1.3v3.1h-1.3v-3.1zm1.9-.2h1.3v3.2h-1.3v-3.2zm1.8-.1h1.3v3.3h-1.3v-3.3zm1.9-1.6h1.3v5h-1.3v-5zm1.8 1.1h1.2v3.9h-1.2v-3.9zm1.9.2h1.2v3.7h-1.2v-3.7zm1.9-.5h1.2v4.1H474V262zm1.7-.7h1.3v4.9h-1.3v-4.9zm1.9-.3h1.3v5.2h-1.3V261zm1.8 1.1h1.3v4h-1.3v-4zm1.9.3h1.3v3.8h-1.3v-3.8zm1.9-.9h1.2v4.6h-1.2v-4.6zm1.8-.1h1.2v4.7H485v-4.7zm1.8.8h1.3v3.9h-1.3v-3.9zm1.8.5h1.3v3.5h-1.3v-3.5zm1.9-.7h1.3v4.2h-1.3V262zm1.8 0h1.3v4.1h-1.3V262zm1.9.4h1.2v3.8h-1.2v-3.8zm1.9-.1h1.2v3.9h-1.2v-3.9zm1.8-4.4h1.2v8.2h-1.2v-8.2zm1.8-14.1h1.3v22.3h-1.3v-22.3zm1.8-12.3h1.3v34.7h-1.3v-34.7zm1.9 17.6h1.3v17.1h-1.3v-17.1zm1.9-10.3h1.3v27.4h-1.3v-27.4zm1.8 2.9h1.2v24.5h-1.2v-24.5zm1.9 3h1.2v21.4H509v-21.4zM510.8 41h1.2v225.2h-1.2V41z" style="fill:#4670b6"/><path d="M195.6 265.5h1.3v.1l-1.3-.1zm1.8 0h1.3v.1l-1.3-.1zm1.9 0h1.3v.1l-1.3-.1zm1.8 0h1.2v.1l-1.2-.1zm1.9 0h1.2v.1l-1.2-.1zm1.8 0h1.2v.1l-1.2-.1zm1.8 0h1.3v.1l-1.3-.1zm1.9 0h1.3v.1l-1.3-.1zm1.8-.1h1.3v.2h-1.3v-.2zm1.9 0h1.3v.2h-1.3v-.2zm1.8-.1h1.2v.3H214v-.3zm1.9-.1h1.2v.4h-1.2v-.4zm1.8-.1h1.2v.4h-1.2v-.4zm1.8 0h1.3v.4h-1.3v-.4zm1.9-.1h1.3v.5h-1.3v-.5zm1.8-.1h1.3v.6h-1.3v-.6zm1.9 0h1.2v.7h-1.2v-.7zm1.8-.2h1.2v.9h-1.2v-.9zm1.9-.2h1.2v1.1h-1.2v-1.1zm1.8-.1h1.3v1.1h-1.3v-1.1zm1.8-.2h1.3v1.4h-1.3v-1.4zm1.9 0h1.3v1.3h-1.3v-1.3zm1.8-.1h1.3v1.5h-1.3v-1.5zm1.9 0h1.2v1.5H238v-1.5zm1.8 0h1.2v1.5h-1.2v-1.5zm1.9 0h1.2v1.5h-1.2v-1.5zm1.8.1h1.3v1.4h-1.3v-1.4zm1.8-.1h1.3v1.5h-1.3v-1.5zm1.9 0h1.3v1.5h-1.3v-1.5zm1.8.1h1.3v1.4H249v-1.4zm1.9-.2h1.2v1.6h-1.2V264zm1.9.2h1.2v1.4h-1.2v-1.4zm1.8 0h1.2v1.4h-1.2v-1.4zm1.8 0h1.3v1.4h-1.3v-1.4zm1.8 0h1.3v1.4h-1.3v-1.4zm1.9 0h1.3v1.4h-1.3v-1.4zm1.9 0h1.2v1.4H262v-1.4zm1.8 0h1.2v1.4h-1.2v-1.4zm1.9 0h1.2v1.3h-1.2v-1.3zm1.7 0h1.3v1.3h-1.3v-1.3zm1.9.1h1.3v1.2h-1.3v-1.2zm1.8.1h1.3v1.1h-1.3v-1.1zm1.9 0h1.3v1.1H273v-1.1zm1.9.1h1.2v1.1h-1.2v-1.1zm1.8 0h1.2v1.1h-1.2v-1.1zm1.9.1h1.2v1h-1.2v-1zm1.7-.1h1.3v1.1h-1.3v-1.1zm1.9 0h1.3v1.1h-1.3v-1.1zm1.9.1h1.3v1h-1.3v-1zm1.8 0h1.3v1h-1.3v-1zm1.9-.1h1.2v1.1h-1.2v-1.1zm1.8.1h1.2v1h-1.2v-1zm1.8 0h1.3v1h-1.3v-1zm1.8.1h1.3v.9h-1.3v-.9zm1.9-.1h1.3v1h-1.3v-1zm1.9.1h1.3v.9H297v-.9zm1.8.1h1.2v.8h-1.2v-.8zm1.9-.1h1.2v.9h-1.2v-.9zm1.8.1h1.2v.8h-1.2v-.8zm1.8.1h1.3v.7h-1.3v-.7zm1.9-.1h1.3v.8h-1.3v-.8zm1.8.1h1.3v.7H308v-.7zm1.9 0h1.3v.7h-1.3v-.7zm1.8 0h1.2v.7h-1.2v-.7zm1.9 0h1.2v.6h-1.2v-.6zm1.8 0h1.2v.7h-1.2v-.7zm1.8 0h1.3v.6h-1.3v-.6zm1.9 0h1.3v.6h-1.3v-.6zm1.8 0h1.3v.6h-1.3v-.6zm1.9.1h1.2v.5h-1.2v-.5zm1.8-.1h1.2v.6h-1.2v-.6zm1.9 0h1.2v.6h-1.2v-.6zm1.8.1h1.3v.5h-1.3v-.5zm1.8 0h1.3v.5h-1.3v-.5zm1.9 0h1.3v.5H332v-.5zm1.8 0h1.3v.5h-1.3v-.5zm1.9.1h1.2v.4h-1.2v-.4zm1.8 0h1.2v.4h-1.2v-.4zm1.9-.1h1.2v.5h-1.2v-.5zm1.8.1h1.3v.4h-1.3v-.4zm1.8 0h1.3v.4H343v-.4zm1.9 0h1.3v.4h-1.3v-.4zm1.8 0h1.3v.4h-1.3v-.4zm1.9-.2h1.2v.6h-1.2v-.6zm1.9-.3h1.2v1h-1.2v-1zm1.8-.4h1.2v1.4h-1.2v-1.4zm1.8-.6h1.3v1.9h-1.3v-1.9zm1.8-.9h1.3v2.9h-1.3v-2.9zm1.9-1.3h1.3v4.2h-1.3v-4.2zm1.8-1.1h1.2v5.3h-1.2v-5.3zm1.9-.7h1.2v6h-1.2v-6zm1.9.2h1.2v5.8h-1.2v-5.8zm1.7 0h1.3v5.8h-1.3v-5.8zm1.9.2h1.3v5.6H367V260zm1.8-.6h1.3v6.1h-1.3v-6.1zm1.9-.1h1.3v6.2h-1.3v-6.2zm1.9.1h1.2v6.1h-1.2v-6.1zm1.8.5h1.2v5.7h-1.2v-5.7zm1.9 0h1.2v5.7h-1.2v-5.7zm1.7-.2h1.3v5.9H378v-5.9zm1.9-.4h1.3v6.3h-1.3v-6.3zm1.8 0h1.3v6.2h-1.3v-6.2zm1.9-.1h1.3v6.4h-1.3v-6.4zm1.9.4h1.2v6h-1.2v-6zm1.8.3h1.2v5.7h-1.2v-5.7zm1.8-.1h1.3v5.8h-1.3v-5.8zm1.8 0h1.3v5.8h-1.3v-5.8zm1.9-.5h1.3v6.2h-1.3v-6.2zm1.9.5h1.3v5.8h-1.3v-5.8zm1.8.4h1.2v5.3h-1.2v-5.3zm1.9-.5h1.2v5.9h-1.2v-5.9zm1.8.2h1.2v5.7h-1.2v-5.7zm1.8-.4h1.3v6H402v-6zm1.8-.2h1.3v6.2h-1.3v-6.2zm1.9.4h1.3v5.9h-1.3v-5.9zm1.9.5h1.3v5.3h-1.3v-5.3zm1.8-.3h1.2v5.7h-1.2v-5.7zm1.9-.4h1.2v6h-1.2v-6zm1.8 0h1.2v6h-1.2v-6zm1.8-.2h1.3v6.2h-1.3v-6.2zm1.9.3h1.3v6h-1.3v-6zm1.8-1.9h1.3v7.9h-1.3v-7.9zm1.9 2.3h1.2v5.6h-1.2V260zm1.8-.3h1.2v5.9h-1.2v-5.9zm1.9-.5h1.2v6.4h-1.2v-6.4zm1.7.1h1.3v6.3h-1.3v-6.3zm1.9.1h1.3v6.1h-1.3v-6.1zm1.9.3h1.3v5.9h-1.3v-5.9zm1.8-.1h1.3v6h-1.3v-6zm1.9-.7h1.2v6.7h-1.2v-6.7zm1.8.1h1.2v6.6h-1.2V259zm1.9.2h1.2v6.4h-1.2v-6.4zm1.8.5h1.3v5.9h-1.3v-5.9zm1.8.4h1.3v5.4h-1.3v-5.4zm1.9.2h1.3v5.3h-1.3v-5.3zm1.8-.1h1.3v5.3h-1.3v-5.3zm1.9 0h1.2v5.3h-1.2v-5.3zm1.8.2h1.2v5.2h-1.2v-5.2zm1.9.4h1.2v4.7H450v-4.7zm1.8.9h1.3v3.9h-1.3v-3.9zm1.8.4h1.3v3.4h-1.3v-3.4zm1.9 0h1.3v3.4h-1.3v-3.4zm1.8 0h1.2v3.4h-1.2v-3.4zm1.9.2h1.2v3.2h-1.2v-3.2zm1.9.1h1.2v3.2h-1.2v-3.2zm1.7.1h1.3v3.1h-1.3v-3.1zm1.9-.2h1.3v3.2h-1.3v-3.2zm1.8-.1h1.3v3.3h-1.3v-3.3zm1.9-1.6h1.3v5h-1.3v-5zm1.8 1.1h1.2v3.9h-1.2v-3.9zm1.9.2h1.2v3.7h-1.2v-3.7zm1.9-.5h1.2v4.1H474v-4.1zm1.7-.7h1.3v4.9h-1.3v-4.9zm1.9-.3h1.3v5.2h-1.3v-5.2zm1.8 1.1h1.3v4h-1.3v-4zm1.9.3h1.3v3.8h-1.3v-3.8zm1.9-.9h1.2v4.6h-1.2v-4.6zm1.8-.1h1.2v4.7H485v-4.7zm1.8.8h1.3v3.9h-1.3v-3.9zm1.8.5h1.3v3.5h-1.3v-3.5zm1.9-.7h1.3v4.2h-1.3v-4.2zm1.8 0h1.3v4.1h-1.3v-4.1zm1.9.4h1.2v3.8h-1.2v-3.8zm1.9-.1h1.2v3.9h-1.2v-3.9zm1.8-4.4h1.2v8.2h-1.2v-8.2zm1.8-14.1h1.3v22.3h-1.3v-22.3zm1.8-12.3h1.3v34.7h-1.3v-34.7zm1.9 17.6h1.3v17.1h-1.3v-17.1zm1.9-10.3h1.3v27.4h-1.3v-27.4zm1.8 2.9h1.2v24.5h-1.2v-24.5zm1.9 3h1.2v21.4H509v-21.4zm1.8-203.7h1.2v225.2h-1.2V40.4z" style="fill:none;stroke:#00457c;stroke-width:1.2756;stroke-miterlimit:10"/></g></svg>