<svg xmlns="http://www.w3.org/2000/svg" viewBox="0 0 1249.2 510.2" style="enable-background:new 0 0 1249.2 510.2;background-color:#fff" xml:space="preserve"><style>.st0{stroke-width:.4252;stroke-miterlimit:10}.st0,.st1,.st16,.st2,.st3,.st8{fill:none;stroke:#000;stroke-linecap:round;stroke-linejoin:round}.st1{stroke-miterlimit:10;stroke-width:.283}.st16,.st2,.st3,.st8{stroke-width:.2835}.st3{stroke-miterlimit:10}.st8{stroke-dasharray:.2577,1.2885}.st16{stroke-dasharray:.7731,3.8654}.st17{font-family:Helvetica,Arial,sans-serif}.st18{font-size:15px}.st19{font-size:14.9999px}.st20{font-size:14.9998px}</style><g id="Flat_dome"><path class="st0" d="M68.2 84.3c-3.9 0-7.2 3.1-7.2 7m0 0v326m0-.1c0 3.9 3.3 7.1 7.2 7.1m0 0h453.5m0 0c3.9 0 7-3.1 7-7m0-326c0-3.9-3.1-7-7-7m7 333v-326m-7-7H68.2m226.6 145.1c-17.6 0-32 14.3-32 31.9 0 17.6 14.3 32 31.9 32 17.6 0 32-14.3 32-31.9.1-17.7-14.2-32-31.9-32"/><path class="st0" d="M82.2 119.6v283.5h425.3V119.6H82.2m-14-34c-3.1 0-5.8 2.6-5.8 5.8m0-.1v326m0-.1c0 3.1 2.6 5.7 5.8 5.7m0 0h453.5m0 0c3.1 0 5.8-2.5 5.8-5.7m-.1.1V91m0 .2c0-3.1-2.6-5.7-5.8-5.7m.1.1H68.2"/><path class="st0" d="M294.8 223.8c-20.7 0-37.5 16.8-37.5 37.5s16.8 37.5 37.5 37.5 37.5-16.8 37.5-37.5c.1-20.7-16.7-37.5-37.5-37.5"/><path class="st0" d="M294.8 228c-18.4 0-33.4 14.9-33.4 33.4 0 18.4 14.9 33.4 33.4 33.4 18.4 0 33.4-14.9 33.4-33.4S313.3 228 294.8 228m328-137.9v-7h-17.1v7m17.1 0h-17.1m17.1 0v326m-17.1-326v326m0 0h17.1m0 0v7m0 0h-17.1v-7m130-47.1c1.3 0 2.4-1.1 2.4-2.4 0-1.3-1.1-2.4-2.4-2.4-1.3 0-2.4 1.1-2.4 2.4 0 1.3 1.1 2.4 2.4 2.4M1195 90c0-3.9-3.3-6.9-7.2-6.9m7.2 7v326m-7.1 7c3.9 0 7.1-3.2 7.1-7.1m-7.2 7.1H734.3m-7-7.1c0 3.9 3.2 7.1 7.1 7.1m-.1-340c-3.9 0-7 3-7 6.9m0 326.1v-326m7-7h453.5M961.2 228.2c-17.6 0-32 14.3-32 31.9 0 17.6 14.3 32 31.9 32 17.6 0 32-14.3 32-31.9 0-17.7-14.3-32-31.9-32m-225.5-71.8c1.3 0 2.4-1.1 2.4-2.4s-1.1-2.4-2.4-2.4c-1.3 0-2.4 1.1-2.4 2.4s1.1 2.4 2.4 2.4M605.5 90.7h0-2.4m0 3.2-.2-1.6.2-1.6m0 3.2h2.6m0 1.3h-2.6v-1.3m0 7.8-.2-3.3.2-3.2m0 6.5h2.6m-2.6 0v1.3h2.6m-2.6 3.2-.2-1.6.2-1.6m0 3.2h2.4m-11.1-12.1v8.7m1.7-9.2v9.7m1.1-9.4v9.2m1.4-9.2v9.2m1-10.3V104m1.5-11.2V104m1-10.1v9.2m3.6-12.4h-2.6m2.6 15.5h-2.6m-8.5-12.3c-.1 0-.3.2-.3.3m.1 8.5c0 .2.1.3.3.3m-.1-9.1 1.5-.3m-1.5 9.5 1.5.2h.8m0-9.7h-.8m1.1 9.5-.3.2m.3-9.4-.3-.3m1.7 9.5h-1.4m2.4-10.3-1 1.1h-1.4m1.4 9.2 1 .9h1.5m0-11.2h-1.5m2.5 10.3-1 .9m1-10.1-1-1.1m1.5 1.1h-.5m.5 0c.2 0 .3-.1.3-.3v-1.2m-.8 10.7h.4c.2 0 .3.1.3.3v1.2m565.9-6.9c0 .4.3.6.6.6s.6-.3.6-.6c0-.4-.3-.6-.6-.6s-.6.2-.6.6m-5.5 0c0 .4.3.6.6.6.4 0 .6-.3.6-.6 0-.4-.3-.6-.6-.6-.3-.1-.6.2-.6.6m4.6 3.2c0 .4.3.6.6.6s.6-.3.6-.6c0-.4-.3-.6-.6-.6s-.6.3-.6.6m-3.5 0c0 .4.3.6.6.6.4 0 .6-.3.6-.6 0-.4-.3-.6-.6-.6s-.6.3-.6.6"/><path class="st0" d="M1166.6 93.6c-2.8 0-5 2.2-5 5s2.2 5 5 5 5-2.2 5-5-2.3-5-5-5"/><path class="st0" d="M1173 98.6c0-3.6-2.9-6.4-6.4-6.4-3.6 0-6.4 2.9-6.4 6.4 0 3.6 2.9 6.4 6.4 6.4 3.5 0 6.4-2.9 6.4-6.4m-13.4-3.2v6.5m0 0c.2.4.4.9.7 1.3m0 0 5.7 3.3m0 0h1.5m5.5-3.3-5.6 3.3m5.6-3.3c.3-.4.5-.9.7-1.3m.1-6.5v6.5m0-6.5c-.2-.4-.4-.9-.7-1.3"/><path class="st0" d="m1160.3 94.1 5.7-3.2h1.4l5.6 3.2m-12.7 0c-.3.4-.5.8-.7 1.3m-423.9 40c1.6 0 2.8-1.3 2.8-2.8 0-1.6-1.3-2.8-2.8-2.8-1.6 0-2.8 1.3-2.8 2.8 0 1.6 1.2 2.8 2.8 2.8"/><path class="st0" d="M735.7 136.1c2 0 3.5-1.6 3.5-3.5 0-2-1.6-3.5-3.5-3.5-2 0-3.5 1.6-3.5 3.5M936 286.8c.8 0 1.4-.6 1.4-1.4 0-.8-.6-1.4-1.4-1.4-.8 0-1.4.6-1.4 1.4 0 .7.6 1.4 1.4 1.4"/><path class="st0" d="M936 287.5c1.2 0 2.1-1 2.1-2.1 0-1.2-1-2.1-2.1-2.1-1.2 0-2.1 1-2.1 2.1m52.5 1.4c.8 0 1.4-.6 1.4-1.4 0-.8-.6-1.4-1.4-1.4-.8 0-1.4.6-1.4 1.4 0 .7.6 1.4 1.4 1.4"/><path class="st0" d="M986.4 287.5c1.2 0 2.1-1 2.1-2.1 0-1.2-1-2.1-2.1-2.1-1.2 0-2.1 1-2.1 2.1m-48.3-49c.8 0 1.4-.6 1.4-1.4 0-.8-.6-1.4-1.4-1.4-.8 0-1.4.6-1.4 1.4 0 .7.6 1.4 1.4 1.4"/><path class="st0" d="M936 237.1c1.2 0 2.1-1 2.1-2.1 0-1.2-1-2.1-2.1-2.1-1.2 0-2.1 1-2.1 2.1m52.5 1.4c.8 0 1.4-.6 1.4-1.4 0-.8-.6-1.4-1.4-1.4-.8 0-1.4.6-1.4 1.4 0 .7.6 1.4 1.4 1.4"/><path class="st0" d="M986.4 237.1c1.2 0 2.1-1 2.1-2.1 0-1.2-1-2.1-2.1-2.1-1.2 0-2.1 1-2.1 2.1m202.2-99.6c1.6 0 2.8-1.3 2.8-2.8 0-1.6-1.3-2.8-2.8-2.8-1.6 0-2.8 1.3-2.8 2.8 0 1.6 1.2 2.8 2.8 2.8"/><path class="st0" d="M1186.5 136.1c2 0 3.5-1.6 3.5-3.5 0-2-1.6-3.5-3.5-3.5-2 0-3.5 1.6-3.5 3.5M735.7 390.5c1.6 0 2.8-1.3 2.8-2.8 0-1.6-1.3-2.8-2.8-2.8-1.6 0-2.8 1.3-2.8 2.8 0 1.6 1.2 2.8 2.8 2.8"/><path class="st0" d="M735.7 391.3c2 0 3.5-1.6 3.5-3.5s-1.6-3.5-3.5-3.5c-2 0-3.5 1.6-3.5 3.5m454.3 2.7c1.6 0 2.8-1.3 2.8-2.8 0-1.6-1.3-2.8-2.8-2.8s-2.8 1.3-2.8 2.8c0 1.6 1.2 2.8 2.8 2.8"/><path class="st0" d="M1186.5 391.3c2 0 3.5-1.6 3.5-3.5s-1.6-3.5-3.5-3.5c-2 0-3.5 1.6-3.5 3.5"/></g><g id="Dimensions"><path class="st1" d="m362.7 486.6 30.8-169"/><path class="st2" d="M741.9 490.6h438.3"/><path d="m743.3 492.6-7.7-2 7.7-2.1zm435.5 0 7.7-2-7.7-2.1z"/><path class="st2" d="M1227.9 241.2v37.9"/><path d="m1225.8 242.6 2.1-7.7 2 7.7zm0 35.1 2.1 7.6 2-7.6z"/><path class="st2" d="M301.3 62.8h221.2"/><path d="m302.7 64.8-7.7-2 7.7-2.1zm218.4 0 7.6-2-7.6-2.1z"/><path class="st2" d="M67.6 26.5h454.9"/><path d="m69 28.5-7.7-2 7.7-2.1zm452.1 0 7.6-2-7.6-2.1z"/><path class="st1" d="M528.7 24.9v70M61 22.1V92m234-33.1V260m404.7-127.2h36.1m-36.1 254.9h32.1m-32.1 35.6h35.9m-8.4 35v-41.6m8.6 78V388.3m450.7 59.7v-60.6m0 109v-31.2"/><path class="st2" d="M1172.9 34.5h15.9"/><path d="m1174.3 36.5-7.7-2 7.7-2.1zm13.1 0 7.6-2-7.6-2.1z"/><path class="st3" d="M1166.6 34.5H1135"/><path class="st1" d="M1166.8 98.2V33m28.2 57V33"/><path class="st3" d="M735.6 455h-8.2m503.8-220.1H986.4m244.8 50.4H986.7"/><path class="st2" d="M1227.9 291.6V417"/><path d="m1225.8 293 2.1-7.7 2 7.7zm0 122.6 2.1 7.7 2-7.7z"/><path class="st3" d="M1231.2 423.3h-43.4"/><path class="st2" d="M1188.9 457.5H992.3"/><path d="m1187.5 455.4 7.7 2.1-7.7 2zm-193.8 0-7.7 2.1 7.7 2z"/><path class="st3" d="M1195.2 460.8V416M986 460.8V285.3"/><path class="st2" d="M979.8 457.5h-37.5"/><path d="m978.4 455.4 7.6 2.1-7.6 2zm-34.7 0-7.7 2.1 7.7 2z"/><path class="st3" d="M935.9 460.8V285.3"/><path class="st2" d="M720.9 455h-23.1"/><path d="m719.5 453 7.7 2-7.7 2.1z"/><path class="st2" d="M742 455h24.6"/><path d="m743.4 457.1-7.7-2.1 7.7-2z"/><path class="st1" d="M594.2 93.6V61.3m11.5 21.8V61.3m17.1 21.8V61.3"/><path class="st3" d="M622.8 62.8h-28.4"/><path class="st2" d="M587.9 62.8h-23.1"/><path d="m586.5 60.8 7.7 2-7.7 2.1z"/><path class="st2" d="M629.1 62.8h23.1"/><path d="m630.5 64.9-7.7-2.1 7.7-2z"/><path class="st2" d="M703 139v242.4"/><path d="m701 140.4 2-7.7 2.1 7.7zm0 239.6 2 7.7 2.1-7.7z"/><path class="st2" d="M703 416.8V394"/><path d="m705.1 415.4-2.1 7.7-2-7.7zm0-20-2.1-7.7-2 7.7z"/><path class="st1" d="M1224.1 83.1h-37.6m37.6 15.3h-57.3"/><path class="st3" d="M1220.8 98.3V83"/><path class="st2" d="M1220.8 76.9V53.7"/><path d="m1222.9 75.5-2.1 7.6-2.1-7.6z"/><path class="st2" d="M1220.8 105v14"/><path d="m1218.7 106.4 2.1-7.7 2.1 7.7z"/><path class="st2" d="M931.5 291.3 910.6 318h-61.2"/><path d="m928.5 291.1 7.6-5.8-3.7 8.8z"/><path class="st2" d="m742.8 140.8 20.8 26.7h120.9"/><path d="m741.8 143.6-3.7-8.8 7.6 5.8z"/><path class="st2" d="M46 418.2V267.1"/><path d="m48.1 416.8-2.1 7.7-2.1-7.7zm0-148.3-2.1-7.6-2.1 7.6z"/><path class="st1" d="M294.7 260.2H41.2m341.4 164.3h47.2"/><path class="st2" d="M23.6 418.2V90.6"/><path d="m25.6 416.8-2 7.7-2.1-7.7zm0-324.8-2-7.7-2.1 7.7z"/><path class="st1" d="M19 84.3h48.5M19 424.5h48.5"/><path class="st2" d="m276 278.8 36.3-36.3"/><path d="m278.5 279.3-6.9 4 4-6.9zm34.2-34.3 4-6.9-6.9 4z"/><path class="st3" d="m316.7 238.1 24.8-24.8h38.4"/><circle cx="605.7" cy="62.8" r="1.4"/></g><g id="Middle_Lines"><path class="st2" d="M1201 260h-4.3"/><path style="fill:none;stroke:#000;stroke-width:.2835;stroke-linecap:round;stroke-linejoin:round;stroke-dasharray:.5641,2.8203" d="M1193.9 260h-1.9"/><path style="fill:none;stroke:#000;stroke-width:.2835;stroke-linecap:round;stroke-linejoin:round;stroke-dasharray:8.4608,2.8203,.5641,2.8203" d="M1190.5 260H722.7"/><path class="st2" d="M721.3 260H717m242.4 168.6v-4.3"/><path style="fill:none;stroke:#000;stroke-width:.2835;stroke-linecap:round;stroke-linejoin:round;stroke-dasharray:.562,2.8099" d="M959.4 421.5v-1.9"/><path style="fill:none;stroke:#000;stroke-width:.2835;stroke-linecap:round;stroke-linejoin:round;stroke-dasharray:8.4297,2.8099,.562,2.8099" d="M959.4 418.2V68.9"/><path class="st2" d="M959.4 67.5v-4.3M735.7 393.3v-4.2"/><path class="st8" d="M735.7 387.8v-.9"/><path class="st2" d="M735.7 386.3V382m5.7 5.7h-4.3"/><path class="st8" d="M735.8 387.7h-.9"/><path class="st2" d="M734.3 387.7H730m-435.2 65.8v-4.2"/><path style="fill:none;stroke:#000;stroke-width:.2835;stroke-linecap:round;stroke-linejoin:round;stroke-dasharray:.5728,2.8641" d="M294.8 446.4v-2"/><path style="fill:none;stroke:#000;stroke-width:.2835;stroke-linecap:round;stroke-linejoin:round;stroke-dasharray:8.5923,2.8641,.5728,2.8641" d="M294.8 443V265.7"/><path class="st2" d="M294.8 264.3V260m-.1 0h4.3"/><path style="fill:none;stroke:#000;stroke-width:.2835;stroke-linecap:round;stroke-linejoin:round;stroke-dasharray:.5648,2.8238" d="M301.8 260h2"/><path style="fill:none;stroke:#000;stroke-width:.2835;stroke-linecap:round;stroke-linejoin:round;stroke-dasharray:8.4715,2.8238,.5648,2.8238" d="M305.2 260h233.5"/><path class="st2" d="M540.2 260h4.2m72.2-161.5h-4.3"/><path style="fill:none;stroke:#000;stroke-width:.2835;stroke-linecap:round;stroke-linejoin:round;stroke-dasharray:.6373,3.1863" d="M609.1 98.5h-2.2"/><path style="fill:none;stroke:#000;stroke-width:.2835;stroke-linecap:round;stroke-linejoin:round;stroke-dasharray:9.559,3.1863,.6373,3.1863" d="M605.3 98.5h-15"/><path class="st2" d="M588.7 98.5h-4.2m151.2 61.1v-4.2"/><path class="st8" d="M735.7 154.1v-.9"/><path class="st2" d="M735.7 152.5v-4.2m5.7 5.6h-4.3"/><path class="st8" d="M735.8 153.9h-.9"/><path class="st2" d="M734.3 153.9H730"/><path style="fill:none;stroke:#000;stroke-width:.2835;stroke-linecap:round;stroke-linejoin:round;stroke-dasharray:5.4833" d="M735.7 138.3v-5.5"/><path class="st2" d="M741.4 132.6h-4.3"/><path class="st8" d="M735.8 132.6h-.9"/><path class="st2" d="M734.3 132.6H730m456.5 5.7V134"/><path class="st8" d="M1186.5 132.7v-.9"/><path class="st2" d="M1186.5 131.2v-4.3m5.7 5.7h-4.3"/><path class="st8" d="M1186.6 132.6h-.9"/><path class="st2" d="M1185.1 132.6h-4.3m5.7 260.8v-4.3"/><path class="st8" d="M1186.5 387.8v-.9"/><path class="st2" d="M1186.5 386.3V382m5.7 5.7h-4.3"/><path class="st8" d="M1186.6 387.7h-.9"/><path class="st2" d="M1185.1 387.7h-4.3m-14.1-280.5v-4.3"/><path class="st16" d="M1166.7 99.1v-2.7"/><path class="st2" d="M1166.7 94.4v-4.2m8.5 8.5h-4.3"/><path class="st16" d="M1167.1 98.7h-2.7"/><path class="st2" d="M1162.4 98.7h-4.2M936 291v-4.2"/><path class="st8" d="M936 285.5v-.9"/><path class="st2" d="M936 283.9v-4.2m5.6 5.6h-4.2"/><path class="st8" d="M936.1 285.3h-.9"/><path class="st2" d="M934.6 285.3h-4.3m5.7-44.7v-4.2"/><path class="st8" d="M936 235.1v-.9"/><path class="st2" d="M936 233.5v-4.2m5.6 5.6h-4.2"/><path class="st8" d="M936.1 234.9h-.9"/><path class="st2" d="M934.6 234.9h-4.3m56.1 5.7v-4.2"/><path class="st8" d="M986.4 235.1v-.9"/><path class="st2" d="M986.4 233.5v-4.2m5.6 5.6h-4.2"/><path class="st8" d="M986.5 234.9h-.9"/><path class="st2" d="M985 234.9h-4.3m5.7 56.1v-4.2"/><path class="st8" d="M986.4 285.5v-.9"/><path class="st2" d="M986.4 283.9v-4.2m5.6 5.6h-4.2"/><path class="st8" d="M986.5 285.3h-.9"/><path class="st2" d="M985 285.3h-4.3"/></g><g id="Text_1_"><text transform="translate(282.486 504.661)" class="st17 st18">200 × 300 (Lumious area)</text><text transform="translate(399.377 57.077)" class="st17 st19">165</text><text transform="translate(282.51 18.55)" class="st17 st19">330</text><text transform="translate(948.535 484.615)" class="st17 st19">318</text><text transform="translate(1140.554 29.474)" class="st17 st19">20</text><text transform="rotate(-90 556.44 -141.383)" class="st17 st19">35</text><text transform="rotate(-90 485.22 -212.488)" class="st17 st19">180</text><text transform="rotate(-90 643.062 -572.486)" class="st17 st19">11</text><text transform="rotate(-90 748.402 -473.646)" class="st17 st19">35.6</text><text transform="rotate(-90 795.486 -426.562)" class="st17 st19">97.2</text><text transform="translate(1078.08 451.656)" class="st17 st19">165</text><text transform="translate(946.714 451.656)" class="st17 st19">35.6</text><text transform="rotate(-90 142.744 124.194)" class="st17 st19">240</text><text transform="rotate(-90 197.635 157.574)" class="st17 st19">115</text><text transform="translate(750.348 449.824)" class="st17 st19">6</text><text transform="translate(569.77 59.913)" class="st17 st19">8</text><text transform="translate(634.012 59.913)" class="st17 st19">12</text><text transform="translate(854.905 313.353)"><tspan x="0" y="0" class="st17 st18">4 × M3,  </tspan><tspan x="0" y="18" class="st17 st18">5 deep</tspan></text><text transform="translate(772.438 162.214)" class="st17 st18">4 × M4, 7.5 deep</text><text transform="translate(346.094 207.885)" class="st17 st19">Ø 45</text><text transform="translate(5.865 487.087)" class="st17 st20">Not to scale</text><text transform="translate(5.865 505.087)" class="st17 st20">Dimensions in mm</text></g></svg>