<svg version="1.1" id="Ebene_1" xmlns="http://www.w3.org/2000/svg" xmlns:xlink="http://www.w3.org/1999/xlink" x="0" y="0" viewBox="0 0 334.7 247.2" style="enable-background:new 0 0 334.7 247.2;background-color:#fff" xml:space="preserve"><style>.st0{fill:none;stroke:#d9d9d9;stroke-width:.75;stroke-linejoin:round;stroke-miterlimit:10}.st3{fill:#595959}.st4{font-family:&apos;Calibri&apos;}.st5{font-size:9px}.st8{fill:#020203}.st9{font-size:11.04px}.st10{font-family:Helvetica,Arial,sans-serif}.st11{font-size:9.96px}</style><path class="st0" d="M45.1 15.8h266.5M45.1 51h266.5M45.1 86.2h266.5M45.1 121.5h266.5M45.1 156.6h266.5m0-140.8v176M285 15.8v176m-26.6-176v176m-26.7-176v176m-26.6-176v176m-26.8-176v176m-26.6-176v176M125 15.8v176m-26.6-176v176m-26.6-176v176m-26.7-176v176m0 0h266.5"/><defs><path id="SVGID_1_" d="M45 15.8h267.4v176.8H45z"/></defs><clipPath id="SVGID_00000142158503169982658980000003390482989506131127_"><use xlink:href="#SVGID_1_" style="overflow:visible"/></clipPath><path style="clip-path:url(#SVGID_00000142158503169982658980000003390482989506131127_);fill:none;stroke:#5c9bd4;stroke-width:2.25;stroke-linecap:round;stroke-linejoin:round;stroke-miterlimit:10" d="m45.1 15.8 26.7.3 26.6 1 26.6 1.5 26.7 2.2 26.6 2.6 26.8 3.3 26.6 3.9 26.7 7.7L285 48.8l26.6 19.3"/><path style="clip-path:url(#SVGID_00000142158503169982658980000003390482989506131127_);fill:none;stroke:#ee7e32;stroke-width:2.25;stroke-linecap:round;stroke-linejoin:round;stroke-miterlimit:10" d="m45.1 15.8 26.7.3 26.6 1 26.6 1.5 26.7 2.2 26.6 2.6 26.8 3.2 26.6 3.6 26.7 3.9 26.6 4.6 26.6 9.6"/><text transform="translate(32.209 194.338)" class="st3 st4 st5">0</text><text transform="translate(25.404 159.148)"><tspan x="0" y="0" class="st3 st4 st5">0</tspan><tspan x="4.6" y="0" class="st3 st4 st5">,</tspan><tspan x="6.8" y="0" class="st3 st4 st5">2</tspan></text><text transform="translate(25.404 123.958)"><tspan x="0" y="0" class="st3 st4 st5">0</tspan><tspan x="4.6" y="0" class="st3 st4 st5">,</tspan><tspan x="6.8" y="0" class="st3 st4 st5">4</tspan></text><text transform="translate(25.404 88.768)"><tspan x="0" y="0" class="st3 st4 st5">0</tspan><tspan x="4.6" y="0" class="st3 st4 st5">,</tspan><tspan x="6.8" y="0" class="st3 st4 st5">6</tspan></text><text transform="translate(25.404 53.578)"><tspan x="0" y="0" class="st3 st4 st5">0</tspan><tspan x="4.6" y="0" class="st3 st4 st5">,</tspan><tspan x="6.8" y="0" class="st3 st4 st5">8</tspan></text><text transform="translate(32.209 18.388)" class="st3 st4 st5">1</text><text transform="translate(42.838 206.056)" class="st3 st4 st5">0</text><text transform="translate(64.708 206.056)"><tspan x="0" y="0" class="st3 st4 st5">-1</tspan><tspan x="7.3" y="0" class="st3 st4 st5">,</tspan><tspan x="9.6" y="0" class="st3 st4 st5">6</tspan></text><text transform="translate(91.357 206.056)"><tspan x="0" y="0" class="st3 st4 st5">-3</tspan><tspan x="7.3" y="0" class="st3 st4 st5">,</tspan><tspan x="9.6" y="0" class="st3 st4 st5">2</tspan></text><text transform="translate(118.006 206.056)"><tspan x="0" y="0" class="st3 st4 st5">-4</tspan><tspan x="7.3" y="0" class="st3 st4 st5">,</tspan><tspan x="9.6" y="0" class="st3 st4 st5">8</tspan></text><text transform="translate(144.655 206.056)"><tspan x="0" y="0" class="st3 st4 st5">-6</tspan><tspan x="7.3" y="0" class="st3 st4 st5">,</tspan><tspan x="9.6" y="0" class="st3 st4 st5">4</tspan></text><text transform="translate(174.706 206.056)" class="st3 st4 st5">-8</text><text transform="translate(197.952 206.056)"><tspan x="0" y="0" class="st3 st4 st5">-9</tspan><tspan x="7.3" y="0" class="st3 st4 st5">,</tspan><tspan x="9.6" y="0" class="st3 st4 st5">6</tspan></text><text transform="translate(222.324 206.056)"><tspan x="0" y="0" class="st3 st4 st5">-11</tspan><tspan x="11.9" y="0" class="st3 st4 st5">,</tspan><tspan x="14.2" y="0" class="st3 st4 st5">2</tspan></text><text transform="translate(248.974 206.056)"><tspan x="0" y="0" class="st3 st4 st5">-12</tspan><tspan x="11.9" y="0" class="st3 st4 st5">,</tspan><tspan x="14.2" y="0" class="st3 st4 st5">8</tspan></text><text transform="translate(275.622 206.056)"><tspan x="0" y="0" class="st3 st4 st5">-14</tspan><tspan x="11.9" y="0" class="st3 st4 st5">,</tspan><tspan x="14.2" y="0" class="st3 st4 st5">4</tspan></text><text transform="translate(305.674 206.056)" class="st3 st4 st5">-16</text><path class="st0" d="M.4.4h333.9v246.5H.4z"/><path style="fill:none;stroke:#ee7e32;stroke-width:3.25;stroke-miterlimit:8" d="m55.9 158.5 26.2.3"/><path style="fill:none;stroke:#5c9bd4;stroke-width:3.25;stroke-miterlimit:8" d="M55.9 179.9h26.2"/><text transform="translate(90.165 163.37)" class="st8 st4 st9">f</text><text transform="translate(93.566 163.37)" class="st8 st4 st9">/3</text><text transform="translate(103.466 163.37)" class="st8 st4 st9">.</text><text transform="translate(106.165 163.37)" class="st8 st4 st9">5</text><text transform="translate(90.035 183.016)" class="st8 st10 st11">f/</text><text transform="translate(95.535 183.016)" class="st8 st10 st11">2</text><text transform="translate(101.135 183.016)" class="st8 st10 st11">.8</text><text transform="translate(127.5 223.674)" class="st8 st10 st11">Image Height [mm]</text><text transform="rotate(-90.213 89.148 74.103)" class="st8 st10 st11">Relative Illumination [%]</text></svg>